<?xml version="1.0" encoding="utf-8"?>
<svg xmlns="http://www.w3.org/2000/svg" xmlns:xlink="http://www.w3.org/1999/xlink" width="600" height="400" viewBox="0 0 2400 1600">
<defs>
  <clipPath id="clip250">
    <rect x="0" y="0" width="2400" height="1600"/>
  </clipPath>
</defs>
<path clip-path="url(#clip250)" d="
M0 1600 L2400 1600 L2400 0 L0 0  Z
  " fill="#ffffff" fill-rule="evenodd" fill-opacity="1"/>
<defs>
  <clipPath id="clip251">
    <rect x="480" y="0" width="1681" height="1600"/>
  </clipPath>
</defs>
<path clip-path="url(#clip250)" d="
M370.861 1423.18 L2352.76 1423.18 L2352.76 123.472 L370.861 123.472  Z
  " fill="#ffffff" fill-rule="evenodd" fill-opacity="1"/>
<defs>
  <clipPath id="clip252">
    <rect x="370" y="123" width="1983" height="1301"/>
  </clipPath>
</defs>
<polyline clip-path="url(#clip252)" style="stroke:#000000; stroke-linecap:butt; stroke-linejoin:round; stroke-width:2; stroke-opacity:0.1; fill:none" points="
  605.967,1423.18 605.967,123.472 
  "/>
<polyline clip-path="url(#clip252)" style="stroke:#000000; stroke-linecap:butt; stroke-linejoin:round; stroke-width:2; stroke-opacity:0.1; fill:none" points="
  1003.78,1423.18 1003.78,123.472 
  "/>
<polyline clip-path="url(#clip252)" style="stroke:#000000; stroke-linecap:butt; stroke-linejoin:round; stroke-width:2; stroke-opacity:0.1; fill:none" points="
  1401.59,1423.18 1401.59,123.472 
  "/>
<polyline clip-path="url(#clip252)" style="stroke:#000000; stroke-linecap:butt; stroke-linejoin:round; stroke-width:2; stroke-opacity:0.1; fill:none" points="
  1799.4,1423.18 1799.4,123.472 
  "/>
<polyline clip-path="url(#clip252)" style="stroke:#000000; stroke-linecap:butt; stroke-linejoin:round; stroke-width:2; stroke-opacity:0.1; fill:none" points="
  2197.21,1423.18 2197.21,123.472 
  "/>
<polyline clip-path="url(#clip252)" style="stroke:#000000; stroke-linecap:butt; stroke-linejoin:round; stroke-width:2; stroke-opacity:0.05; fill:none" points="
  446.843,1423.18 446.843,123.472 
  "/>
<polyline clip-path="url(#clip252)" style="stroke:#000000; stroke-linecap:butt; stroke-linejoin:round; stroke-width:2; stroke-opacity:0.05; fill:none" points="
  526.405,1423.18 526.405,123.472 
  "/>
<polyline clip-path="url(#clip252)" style="stroke:#000000; stroke-linecap:butt; stroke-linejoin:round; stroke-width:2; stroke-opacity:0.05; fill:none" points="
  685.529,1423.18 685.529,123.472 
  "/>
<polyline clip-path="url(#clip252)" style="stroke:#000000; stroke-linecap:butt; stroke-linejoin:round; stroke-width:2; stroke-opacity:0.05; fill:none" points="
  765.092,1423.18 765.092,123.472 
  "/>
<polyline clip-path="url(#clip252)" style="stroke:#000000; stroke-linecap:butt; stroke-linejoin:round; stroke-width:2; stroke-opacity:0.05; fill:none" points="
  844.654,1423.18 844.654,123.472 
  "/>
<polyline clip-path="url(#clip252)" style="stroke:#000000; stroke-linecap:butt; stroke-linejoin:round; stroke-width:2; stroke-opacity:0.05; fill:none" points="
  924.216,1423.18 924.216,123.472 
  "/>
<polyline clip-path="url(#clip252)" style="stroke:#000000; stroke-linecap:butt; stroke-linejoin:round; stroke-width:2; stroke-opacity:0.05; fill:none" points="
  1083.34,1423.18 1083.34,123.472 
  "/>
<polyline clip-path="url(#clip252)" style="stroke:#000000; stroke-linecap:butt; stroke-linejoin:round; stroke-width:2; stroke-opacity:0.05; fill:none" points="
  1162.9,1423.18 1162.9,123.472 
  "/>
<polyline clip-path="url(#clip252)" style="stroke:#000000; stroke-linecap:butt; stroke-linejoin:round; stroke-width:2; stroke-opacity:0.05; fill:none" points="
  1242.47,1423.18 1242.47,123.472 
  "/>
<polyline clip-path="url(#clip252)" style="stroke:#000000; stroke-linecap:butt; stroke-linejoin:round; stroke-width:2; stroke-opacity:0.05; fill:none" points="
  1322.03,1423.18 1322.03,123.472 
  "/>
<polyline clip-path="url(#clip252)" style="stroke:#000000; stroke-linecap:butt; stroke-linejoin:round; stroke-width:2; stroke-opacity:0.05; fill:none" points="
  1481.15,1423.18 1481.15,123.472 
  "/>
<polyline clip-path="url(#clip252)" style="stroke:#000000; stroke-linecap:butt; stroke-linejoin:round; stroke-width:2; stroke-opacity:0.05; fill:none" points="
  1560.71,1423.18 1560.71,123.472 
  "/>
<polyline clip-path="url(#clip252)" style="stroke:#000000; stroke-linecap:butt; stroke-linejoin:round; stroke-width:2; stroke-opacity:0.05; fill:none" points="
  1640.28,1423.18 1640.28,123.472 
  "/>
<polyline clip-path="url(#clip252)" style="stroke:#000000; stroke-linecap:butt; stroke-linejoin:round; stroke-width:2; stroke-opacity:0.05; fill:none" points="
  1719.84,1423.18 1719.84,123.472 
  "/>
<polyline clip-path="url(#clip252)" style="stroke:#000000; stroke-linecap:butt; stroke-linejoin:round; stroke-width:2; stroke-opacity:0.05; fill:none" points="
  1878.96,1423.18 1878.96,123.472 
  "/>
<polyline clip-path="url(#clip252)" style="stroke:#000000; stroke-linecap:butt; stroke-linejoin:round; stroke-width:2; stroke-opacity:0.05; fill:none" points="
  1958.53,1423.18 1958.53,123.472 
  "/>
<polyline clip-path="url(#clip252)" style="stroke:#000000; stroke-linecap:butt; stroke-linejoin:round; stroke-width:2; stroke-opacity:0.05; fill:none" points="
  2038.09,1423.18 2038.09,123.472 
  "/>
<polyline clip-path="url(#clip252)" style="stroke:#000000; stroke-linecap:butt; stroke-linejoin:round; stroke-width:2; stroke-opacity:0.05; fill:none" points="
  2117.65,1423.18 2117.65,123.472 
  "/>
<polyline clip-path="url(#clip252)" style="stroke:#000000; stroke-linecap:butt; stroke-linejoin:round; stroke-width:2; stroke-opacity:0.05; fill:none" points="
  2276.77,1423.18 2276.77,123.472 
  "/>
<polyline clip-path="url(#clip250)" style="stroke:#000000; stroke-linecap:butt; stroke-linejoin:round; stroke-width:4; stroke-opacity:1; fill:none" points="
  370.861,1423.18 2352.76,1423.18 
  "/>
<polyline clip-path="url(#clip250)" style="stroke:#000000; stroke-linecap:butt; stroke-linejoin:round; stroke-width:4; stroke-opacity:1; fill:none" points="
  605.967,1423.18 605.967,1404.28 
  "/>
<polyline clip-path="url(#clip250)" style="stroke:#000000; stroke-linecap:butt; stroke-linejoin:round; stroke-width:4; stroke-opacity:1; fill:none" points="
  1003.78,1423.18 1003.78,1404.28 
  "/>
<polyline clip-path="url(#clip250)" style="stroke:#000000; stroke-linecap:butt; stroke-linejoin:round; stroke-width:4; stroke-opacity:1; fill:none" points="
  1401.59,1423.18 1401.59,1404.28 
  "/>
<polyline clip-path="url(#clip250)" style="stroke:#000000; stroke-linecap:butt; stroke-linejoin:round; stroke-width:4; stroke-opacity:1; fill:none" points="
  1799.4,1423.18 1799.4,1404.28 
  "/>
<polyline clip-path="url(#clip250)" style="stroke:#000000; stroke-linecap:butt; stroke-linejoin:round; stroke-width:4; stroke-opacity:1; fill:none" points="
  2197.21,1423.18 2197.21,1404.28 
  "/>
<polyline clip-path="url(#clip250)" style="stroke:#000000; stroke-linecap:butt; stroke-linejoin:round; stroke-width:4; stroke-opacity:1; fill:none" points="
  446.843,1423.18 446.843,1413.73 
  "/>
<polyline clip-path="url(#clip250)" style="stroke:#000000; stroke-linecap:butt; stroke-linejoin:round; stroke-width:4; stroke-opacity:1; fill:none" points="
  526.405,1423.18 526.405,1413.73 
  "/>
<polyline clip-path="url(#clip250)" style="stroke:#000000; stroke-linecap:butt; stroke-linejoin:round; stroke-width:4; stroke-opacity:1; fill:none" points="
  685.529,1423.18 685.529,1413.73 
  "/>
<polyline clip-path="url(#clip250)" style="stroke:#000000; stroke-linecap:butt; stroke-linejoin:round; stroke-width:4; stroke-opacity:1; fill:none" points="
  765.092,1423.18 765.092,1413.73 
  "/>
<polyline clip-path="url(#clip250)" style="stroke:#000000; stroke-linecap:butt; stroke-linejoin:round; stroke-width:4; stroke-opacity:1; fill:none" points="
  844.654,1423.18 844.654,1413.73 
  "/>
<polyline clip-path="url(#clip250)" style="stroke:#000000; stroke-linecap:butt; stroke-linejoin:round; stroke-width:4; stroke-opacity:1; fill:none" points="
  924.216,1423.18 924.216,1413.73 
  "/>
<polyline clip-path="url(#clip250)" style="stroke:#000000; stroke-linecap:butt; stroke-linejoin:round; stroke-width:4; stroke-opacity:1; fill:none" points="
  1083.34,1423.18 1083.34,1413.73 
  "/>
<polyline clip-path="url(#clip250)" style="stroke:#000000; stroke-linecap:butt; stroke-linejoin:round; stroke-width:4; stroke-opacity:1; fill:none" points="
  1162.9,1423.18 1162.9,1413.73 
  "/>
<polyline clip-path="url(#clip250)" style="stroke:#000000; stroke-linecap:butt; stroke-linejoin:round; stroke-width:4; stroke-opacity:1; fill:none" points="
  1242.47,1423.18 1242.47,1413.73 
  "/>
<polyline clip-path="url(#clip250)" style="stroke:#000000; stroke-linecap:butt; stroke-linejoin:round; stroke-width:4; stroke-opacity:1; fill:none" points="
  1322.03,1423.18 1322.03,1413.73 
  "/>
<polyline clip-path="url(#clip250)" style="stroke:#000000; stroke-linecap:butt; stroke-linejoin:round; stroke-width:4; stroke-opacity:1; fill:none" points="
  1481.15,1423.18 1481.15,1413.73 
  "/>
<polyline clip-path="url(#clip250)" style="stroke:#000000; stroke-linecap:butt; stroke-linejoin:round; stroke-width:4; stroke-opacity:1; fill:none" points="
  1560.71,1423.18 1560.71,1413.73 
  "/>
<polyline clip-path="url(#clip250)" style="stroke:#000000; stroke-linecap:butt; stroke-linejoin:round; stroke-width:4; stroke-opacity:1; fill:none" points="
  1640.28,1423.18 1640.28,1413.73 
  "/>
<polyline clip-path="url(#clip250)" style="stroke:#000000; stroke-linecap:butt; stroke-linejoin:round; stroke-width:4; stroke-opacity:1; fill:none" points="
  1719.84,1423.18 1719.84,1413.73 
  "/>
<polyline clip-path="url(#clip250)" style="stroke:#000000; stroke-linecap:butt; stroke-linejoin:round; stroke-width:4; stroke-opacity:1; fill:none" points="
  1878.96,1423.18 1878.96,1413.73 
  "/>
<polyline clip-path="url(#clip250)" style="stroke:#000000; stroke-linecap:butt; stroke-linejoin:round; stroke-width:4; stroke-opacity:1; fill:none" points="
  1958.53,1423.18 1958.53,1413.73 
  "/>
<polyline clip-path="url(#clip250)" style="stroke:#000000; stroke-linecap:butt; stroke-linejoin:round; stroke-width:4; stroke-opacity:1; fill:none" points="
  2038.09,1423.18 2038.09,1413.73 
  "/>
<polyline clip-path="url(#clip250)" style="stroke:#000000; stroke-linecap:butt; stroke-linejoin:round; stroke-width:4; stroke-opacity:1; fill:none" points="
  2117.65,1423.18 2117.65,1413.73 
  "/>
<polyline clip-path="url(#clip250)" style="stroke:#000000; stroke-linecap:butt; stroke-linejoin:round; stroke-width:4; stroke-opacity:1; fill:none" points="
  2276.77,1423.18 2276.77,1413.73 
  "/>
<path clip-path="url(#clip250)" d="M600.62 1481.64 L616.939 1481.64 L616.939 1485.58 L594.995 1485.58 L594.995 1481.64 Q597.657 1478.89 602.24 1474.26 Q606.847 1469.61 608.027 1468.27 Q610.273 1465.74 611.152 1464.01 Q612.055 1462.25 612.055 1460.56 Q612.055 1457.8 610.111 1456.07 Q608.189 1454.33 605.088 1454.33 Q602.889 1454.33 600.435 1455.09 Q598.004 1455.86 595.227 1457.41 L595.227 1452.69 Q598.051 1451.55 600.504 1450.97 Q602.958 1450.39 604.995 1450.39 Q610.365 1450.39 613.56 1453.08 Q616.754 1455.77 616.754 1460.26 Q616.754 1462.39 615.944 1464.31 Q615.157 1466.2 613.051 1468.8 Q612.472 1469.47 609.37 1472.69 Q606.268 1475.88 600.62 1481.64 Z" fill="#000000" fill-rule="evenodd" fill-opacity="1" /><path clip-path="url(#clip250)" d="M1006.79 1455.09 L994.982 1473.54 L1006.79 1473.54 L1006.79 1455.09 M1005.56 1451.02 L1011.44 1451.02 L1011.44 1473.54 L1016.37 1473.54 L1016.37 1477.43 L1011.44 1477.43 L1011.44 1485.58 L1006.79 1485.58 L1006.79 1477.43 L991.186 1477.43 L991.186 1472.92 L1005.56 1451.02 Z" fill="#000000" fill-rule="evenodd" fill-opacity="1" /><path clip-path="url(#clip250)" d="M1401.99 1466.44 Q1398.85 1466.44 1396.99 1468.59 Q1395.17 1470.74 1395.17 1474.49 Q1395.17 1478.22 1396.99 1480.39 Q1398.85 1482.55 1401.99 1482.55 Q1405.14 1482.55 1406.97 1480.39 Q1408.82 1478.22 1408.82 1474.49 Q1408.82 1470.74 1406.97 1468.59 Q1405.14 1466.44 1401.99 1466.44 M1411.28 1451.78 L1411.28 1456.04 Q1409.52 1455.21 1407.71 1454.77 Q1405.93 1454.33 1404.17 1454.33 Q1399.54 1454.33 1397.09 1457.45 Q1394.66 1460.58 1394.31 1466.9 Q1395.68 1464.89 1397.74 1463.82 Q1399.8 1462.73 1402.27 1462.73 Q1407.48 1462.73 1410.49 1465.9 Q1413.52 1469.05 1413.52 1474.49 Q1413.52 1479.82 1410.37 1483.03 Q1407.23 1486.25 1401.99 1486.25 Q1396 1486.25 1392.83 1481.67 Q1389.66 1477.06 1389.66 1468.33 Q1389.66 1460.14 1393.55 1455.28 Q1397.43 1450.39 1403.99 1450.39 Q1405.74 1450.39 1407.53 1450.74 Q1409.33 1451.09 1411.28 1451.78 Z" fill="#000000" fill-rule="evenodd" fill-opacity="1" /><path clip-path="url(#clip250)" d="M1799.4 1469.17 Q1796.07 1469.17 1794.15 1470.95 Q1792.25 1472.73 1792.25 1475.86 Q1792.25 1478.98 1794.15 1480.77 Q1796.07 1482.55 1799.4 1482.55 Q1802.73 1482.55 1804.66 1480.77 Q1806.58 1478.96 1806.58 1475.86 Q1806.58 1472.73 1804.66 1470.95 Q1802.76 1469.17 1799.4 1469.17 M1794.72 1467.18 Q1791.72 1466.44 1790.03 1464.38 Q1788.36 1462.32 1788.36 1459.35 Q1788.36 1455.21 1791.3 1452.8 Q1794.26 1450.39 1799.4 1450.39 Q1804.56 1450.39 1807.5 1452.8 Q1810.44 1455.21 1810.44 1459.35 Q1810.44 1462.32 1808.75 1464.38 Q1807.09 1466.44 1804.1 1467.18 Q1807.48 1467.96 1809.35 1470.26 Q1811.25 1472.55 1811.25 1475.86 Q1811.25 1480.88 1808.17 1483.57 Q1805.12 1486.25 1799.4 1486.25 Q1793.68 1486.25 1790.6 1483.57 Q1787.55 1480.88 1787.55 1475.86 Q1787.55 1472.55 1789.45 1470.26 Q1791.35 1467.96 1794.72 1467.18 M1793.01 1459.79 Q1793.01 1462.48 1794.68 1463.98 Q1796.37 1465.49 1799.4 1465.49 Q1802.41 1465.49 1804.1 1463.98 Q1805.81 1462.48 1805.81 1459.79 Q1805.81 1457.11 1804.1 1455.6 Q1802.41 1454.1 1799.4 1454.1 Q1796.37 1454.1 1794.68 1455.6 Q1793.01 1457.11 1793.01 1459.79 Z" fill="#000000" fill-rule="evenodd" fill-opacity="1" /><path clip-path="url(#clip250)" d="M2171.9 1481.64 L2179.54 1481.64 L2179.54 1455.28 L2171.23 1456.95 L2171.23 1452.69 L2179.49 1451.02 L2184.17 1451.02 L2184.17 1481.64 L2191.81 1481.64 L2191.81 1485.58 L2171.9 1485.58 L2171.9 1481.64 Z" fill="#000000" fill-rule="evenodd" fill-opacity="1" /><path clip-path="url(#clip250)" d="M2211.25 1454.1 Q2207.64 1454.1 2205.81 1457.66 Q2204.01 1461.2 2204.01 1468.33 Q2204.01 1475.44 2205.81 1479.01 Q2207.64 1482.55 2211.25 1482.55 Q2214.89 1482.55 2216.69 1479.01 Q2218.52 1475.44 2218.52 1468.33 Q2218.52 1461.2 2216.69 1457.66 Q2214.89 1454.1 2211.25 1454.1 M2211.25 1450.39 Q2217.06 1450.39 2220.12 1455 Q2223.2 1459.58 2223.2 1468.33 Q2223.2 1477.06 2220.12 1481.67 Q2217.06 1486.25 2211.25 1486.25 Q2205.44 1486.25 2202.36 1481.67 Q2199.31 1477.06 2199.31 1468.33 Q2199.31 1459.58 2202.36 1455 Q2205.44 1450.39 2211.25 1450.39 Z" fill="#000000" fill-rule="evenodd" fill-opacity="1" /><path clip-path="url(#clip250)" d="M1043.6 1520.52 L1050.51 1520.52 L1063.69 1540.07 L1076.77 1520.52 L1083.67 1520.52 L1066.87 1545.41 L1066.87 1568.04 L1060.41 1568.04 L1060.41 1545.41 L1043.6 1520.52 Z" fill="#000000" fill-rule="evenodd" fill-opacity="1" /><path clip-path="url(#clip250)" d="M1111.52 1548.76 L1111.52 1551.62 L1084.6 1551.62 Q1084.98 1557.67 1088.23 1560.85 Q1091.5 1564 1097.33 1564 Q1100.7 1564 1103.85 1563.17 Q1107.04 1562.35 1110.16 1560.69 L1110.16 1566.23 Q1107.01 1567.57 1103.69 1568.27 Q1100.38 1568.97 1096.98 1568.97 Q1088.45 1568.97 1083.45 1564 Q1078.49 1559.04 1078.49 1550.57 Q1078.49 1541.82 1083.2 1536.69 Q1087.94 1531.54 1095.96 1531.54 Q1103.15 1531.54 1107.32 1536.18 Q1111.52 1540.8 1111.52 1548.76 M1105.67 1547.04 Q1105.6 1542.23 1102.96 1539.37 Q1100.35 1536.5 1096.02 1536.5 Q1091.12 1536.5 1088.16 1539.27 Q1085.23 1542.04 1084.79 1547.07 L1105.67 1547.04 Z" fill="#000000" fill-rule="evenodd" fill-opacity="1" /><path clip-path="url(#clip250)" d="M1137.34 1550.12 Q1130.24 1550.12 1127.5 1551.75 Q1124.77 1553.37 1124.77 1557.29 Q1124.77 1560.4 1126.8 1562.25 Q1128.87 1564.07 1132.4 1564.07 Q1137.27 1564.07 1140.2 1560.63 Q1143.16 1557.16 1143.16 1551.43 L1143.16 1550.12 L1137.34 1550.12 M1149.02 1547.71 L1149.02 1568.04 L1143.16 1568.04 L1143.16 1562.63 Q1141.16 1565.88 1138.17 1567.44 Q1135.17 1568.97 1130.84 1568.97 Q1125.37 1568.97 1122.12 1565.91 Q1118.91 1562.82 1118.91 1557.67 Q1118.91 1551.65 1122.92 1548.6 Q1126.96 1545.54 1134.95 1545.54 L1143.16 1545.54 L1143.16 1544.97 Q1143.16 1540.93 1140.49 1538.73 Q1137.85 1536.5 1133.04 1536.5 Q1129.99 1536.5 1127.09 1537.23 Q1124.19 1537.97 1121.52 1539.43 L1121.52 1534.02 Q1124.73 1532.78 1127.76 1532.17 Q1130.78 1531.54 1133.65 1531.54 Q1141.38 1531.54 1145.2 1535.55 Q1149.02 1539.56 1149.02 1547.71 Z" fill="#000000" fill-rule="evenodd" fill-opacity="1" /><path clip-path="url(#clip250)" d="M1181.74 1537.87 Q1180.75 1537.3 1179.57 1537.04 Q1178.43 1536.76 1177.03 1536.76 Q1172.06 1536.76 1169.39 1540 Q1166.75 1543.22 1166.75 1549.27 L1166.75 1568.04 L1160.86 1568.04 L1160.86 1532.4 L1166.75 1532.4 L1166.75 1537.93 Q1168.59 1534.69 1171.55 1533.13 Q1174.51 1531.54 1178.75 1531.54 Q1179.35 1531.54 1180.08 1531.63 Q1180.82 1531.7 1181.71 1531.85 L1181.74 1537.87 Z" fill="#000000" fill-rule="evenodd" fill-opacity="1" /><path clip-path="url(#clip250)" d="M1210.61 1533.45 L1210.61 1538.98 Q1208.12 1537.71 1205.45 1537.07 Q1202.78 1536.44 1199.91 1536.44 Q1195.55 1536.44 1193.36 1537.77 Q1191.19 1539.11 1191.19 1541.79 Q1191.19 1543.82 1192.75 1545 Q1194.31 1546.15 1199.02 1547.2 L1201.03 1547.64 Q1207.26 1548.98 1209.87 1551.43 Q1212.52 1553.85 1212.52 1558.21 Q1212.52 1563.17 1208.57 1566.07 Q1204.65 1568.97 1197.78 1568.97 Q1194.92 1568.97 1191.8 1568.39 Q1188.71 1567.85 1185.27 1566.74 L1185.27 1560.69 Q1188.52 1562.38 1191.67 1563.24 Q1194.82 1564.07 1197.91 1564.07 Q1202.05 1564.07 1204.27 1562.66 Q1206.5 1561.23 1206.5 1558.65 Q1206.5 1556.27 1204.88 1554.99 Q1203.29 1553.72 1197.84 1552.54 L1195.81 1552.07 Q1190.36 1550.92 1187.95 1548.56 Q1185.53 1546.18 1185.53 1542.04 Q1185.53 1537.01 1189.09 1534.27 Q1192.66 1531.54 1199.21 1531.54 Q1202.46 1531.54 1205.32 1532.01 Q1208.19 1532.49 1210.61 1533.45 Z" fill="#000000" fill-rule="evenodd" fill-opacity="1" /><path clip-path="url(#clip250)" d="M1256.38 1536.5 Q1251.67 1536.5 1248.93 1540.19 Q1246.19 1543.85 1246.19 1550.25 Q1246.19 1556.65 1248.9 1560.34 Q1251.63 1564 1256.38 1564 Q1261.06 1564 1263.79 1560.31 Q1266.53 1556.62 1266.53 1550.25 Q1266.53 1543.92 1263.79 1540.23 Q1261.06 1536.5 1256.38 1536.5 M1256.38 1531.54 Q1264.02 1531.54 1268.38 1536.5 Q1272.74 1541.47 1272.74 1550.25 Q1272.74 1559 1268.38 1564 Q1264.02 1568.97 1256.38 1568.97 Q1248.71 1568.97 1244.35 1564 Q1240.02 1559 1240.02 1550.25 Q1240.02 1541.47 1244.35 1536.5 Q1248.71 1531.54 1256.38 1531.54 Z" fill="#000000" fill-rule="evenodd" fill-opacity="1" /><path clip-path="url(#clip250)" d="M1300.49 1518.52 L1300.49 1523.39 L1294.89 1523.39 Q1291.74 1523.39 1290.5 1524.66 Q1289.29 1525.93 1289.29 1529.24 L1289.29 1532.4 L1298.93 1532.4 L1298.93 1536.95 L1289.29 1536.95 L1289.29 1568.04 L1283.4 1568.04 L1283.4 1536.95 L1277.8 1536.95 L1277.8 1532.4 L1283.4 1532.4 L1283.4 1529.91 Q1283.4 1523.96 1286.17 1521.26 Q1288.94 1518.52 1294.95 1518.52 L1300.49 1518.52 Z" fill="#000000" fill-rule="evenodd" fill-opacity="1" /><path clip-path="url(#clip250)" d="M1326.37 1520.52 L1356.41 1520.52 L1356.41 1525.93 L1332.8 1525.93 L1332.8 1540 L1355.43 1540 L1355.43 1545.41 L1332.8 1545.41 L1332.8 1562.63 L1356.99 1562.63 L1356.99 1568.04 L1326.37 1568.04 L1326.37 1520.52 Z" fill="#000000" fill-rule="evenodd" fill-opacity="1" /><path clip-path="url(#clip250)" d="M1396.93 1532.4 L1384.04 1549.74 L1397.6 1568.04 L1390.69 1568.04 L1380.32 1554.04 L1369.94 1568.04 L1363.03 1568.04 L1376.88 1549.39 L1364.21 1532.4 L1371.12 1532.4 L1380.57 1545.1 L1390.02 1532.4 L1396.93 1532.4 Z" fill="#000000" fill-rule="evenodd" fill-opacity="1" /><path clip-path="url(#clip250)" d="M1411.54 1562.7 L1411.54 1581.6 L1405.65 1581.6 L1405.65 1532.4 L1411.54 1532.4 L1411.54 1537.81 Q1413.39 1534.62 1416.19 1533.1 Q1419.02 1531.54 1422.94 1531.54 Q1429.43 1531.54 1433.47 1536.69 Q1437.54 1541.85 1437.54 1550.25 Q1437.54 1558.65 1433.47 1563.81 Q1429.43 1568.97 1422.94 1568.97 Q1419.02 1568.97 1416.19 1567.44 Q1413.39 1565.88 1411.54 1562.7 M1431.47 1550.25 Q1431.47 1543.79 1428.79 1540.13 Q1426.15 1536.44 1421.5 1536.44 Q1416.86 1536.44 1414.18 1540.13 Q1411.54 1543.79 1411.54 1550.25 Q1411.54 1556.71 1414.18 1560.4 Q1416.86 1564.07 1421.5 1564.07 Q1426.15 1564.07 1428.79 1560.4 Q1431.47 1556.71 1431.47 1550.25 Z" fill="#000000" fill-rule="evenodd" fill-opacity="1" /><path clip-path="url(#clip250)" d="M1477.74 1548.76 L1477.74 1551.62 L1450.82 1551.62 Q1451.2 1557.67 1454.45 1560.85 Q1457.72 1564 1463.55 1564 Q1466.92 1564 1470.07 1563.17 Q1473.26 1562.35 1476.38 1560.69 L1476.38 1566.23 Q1473.22 1567.57 1469.91 1568.27 Q1466.6 1568.97 1463.2 1568.97 Q1454.67 1568.97 1449.67 1564 Q1444.71 1559.04 1444.71 1550.57 Q1444.71 1541.82 1449.42 1536.69 Q1454.16 1531.54 1462.18 1531.54 Q1469.37 1531.54 1473.54 1536.18 Q1477.74 1540.8 1477.74 1548.76 M1471.89 1547.04 Q1471.82 1542.23 1469.18 1539.37 Q1466.57 1536.5 1462.24 1536.5 Q1457.34 1536.5 1454.38 1539.27 Q1451.45 1542.04 1451.01 1547.07 L1471.89 1547.04 Z" fill="#000000" fill-rule="evenodd" fill-opacity="1" /><path clip-path="url(#clip250)" d="M1508.01 1537.87 Q1507.03 1537.3 1505.85 1537.04 Q1504.7 1536.76 1503.3 1536.76 Q1498.34 1536.76 1495.66 1540 Q1493.02 1543.22 1493.02 1549.27 L1493.02 1568.04 L1487.13 1568.04 L1487.13 1532.4 L1493.02 1532.4 L1493.02 1537.93 Q1494.87 1534.69 1497.83 1533.13 Q1500.79 1531.54 1505.02 1531.54 Q1505.63 1531.54 1506.36 1531.63 Q1507.09 1531.7 1507.98 1531.85 L1508.01 1537.87 Z" fill="#000000" fill-rule="evenodd" fill-opacity="1" /><path clip-path="url(#clip250)" d="M1514.16 1532.4 L1520.01 1532.4 L1520.01 1568.04 L1514.16 1568.04 L1514.16 1532.4 M1514.16 1518.52 L1520.01 1518.52 L1520.01 1525.93 L1514.16 1525.93 L1514.16 1518.52 Z" fill="#000000" fill-rule="evenodd" fill-opacity="1" /><path clip-path="url(#clip250)" d="M1562.76 1548.76 L1562.76 1551.62 L1535.83 1551.62 Q1536.21 1557.67 1539.46 1560.85 Q1542.74 1564 1548.56 1564 Q1551.94 1564 1555.09 1563.17 Q1558.27 1562.35 1561.39 1560.69 L1561.39 1566.23 Q1558.24 1567.57 1554.93 1568.27 Q1551.62 1568.97 1548.21 1568.97 Q1539.68 1568.97 1534.69 1564 Q1529.72 1559.04 1529.72 1550.57 Q1529.72 1541.82 1534.43 1536.69 Q1539.17 1531.54 1547.19 1531.54 Q1554.39 1531.54 1558.56 1536.18 Q1562.76 1540.8 1562.76 1548.76 M1556.9 1547.04 Q1556.84 1542.23 1554.2 1539.37 Q1551.59 1536.5 1547.26 1536.5 Q1542.36 1536.5 1539.4 1539.27 Q1536.47 1542.04 1536.02 1547.07 L1556.9 1547.04 Z" fill="#000000" fill-rule="evenodd" fill-opacity="1" /><path clip-path="url(#clip250)" d="M1602 1546.53 L1602 1568.04 L1596.15 1568.04 L1596.15 1546.72 Q1596.15 1541.66 1594.17 1539.14 Q1592.2 1536.63 1588.25 1536.63 Q1583.51 1536.63 1580.77 1539.65 Q1578.04 1542.68 1578.04 1547.9 L1578.04 1568.04 L1572.15 1568.04 L1572.15 1532.4 L1578.04 1532.4 L1578.04 1537.93 Q1580.14 1534.72 1582.97 1533.13 Q1585.83 1531.54 1589.56 1531.54 Q1595.7 1531.54 1598.85 1535.36 Q1602 1539.14 1602 1546.53 Z" fill="#000000" fill-rule="evenodd" fill-opacity="1" /><path clip-path="url(#clip250)" d="M1639.34 1533.76 L1639.34 1539.24 Q1636.85 1537.87 1634.34 1537.2 Q1631.86 1536.5 1629.31 1536.5 Q1623.61 1536.5 1620.46 1540.13 Q1617.31 1543.73 1617.31 1550.25 Q1617.31 1556.78 1620.46 1560.4 Q1623.61 1564 1629.31 1564 Q1631.86 1564 1634.34 1563.33 Q1636.85 1562.63 1639.34 1561.26 L1639.34 1566.68 Q1636.89 1567.82 1634.24 1568.39 Q1631.63 1568.97 1628.67 1568.97 Q1620.62 1568.97 1615.88 1563.91 Q1611.14 1558.85 1611.14 1550.25 Q1611.14 1541.53 1615.91 1536.53 Q1620.72 1531.54 1629.06 1531.54 Q1631.76 1531.54 1634.34 1532.11 Q1636.92 1532.65 1639.34 1533.76 Z" fill="#000000" fill-rule="evenodd" fill-opacity="1" /><path clip-path="url(#clip250)" d="M1680.01 1548.76 L1680.01 1551.62 L1653.09 1551.62 Q1653.47 1557.67 1656.72 1560.85 Q1659.99 1564 1665.82 1564 Q1669.19 1564 1672.34 1563.17 Q1675.53 1562.35 1678.65 1560.69 L1678.65 1566.23 Q1675.49 1567.57 1672.18 1568.27 Q1668.87 1568.97 1665.47 1568.97 Q1656.94 1568.97 1651.94 1564 Q1646.98 1559.04 1646.98 1550.57 Q1646.98 1541.82 1651.69 1536.69 Q1656.43 1531.54 1664.45 1531.54 Q1671.64 1531.54 1675.81 1536.18 Q1680.01 1540.8 1680.01 1548.76 M1674.16 1547.04 Q1674.09 1542.23 1671.45 1539.37 Q1668.84 1536.5 1664.51 1536.5 Q1659.61 1536.5 1656.65 1539.27 Q1653.72 1542.04 1653.28 1547.07 L1674.16 1547.04 Z" fill="#000000" fill-rule="evenodd" fill-opacity="1" /><polyline clip-path="url(#clip252)" style="stroke:#000000; stroke-linecap:butt; stroke-linejoin:round; stroke-width:2; stroke-opacity:0.1; fill:none" points="
  370.861,1333.77 2352.76,1333.77 
  "/>
<polyline clip-path="url(#clip252)" style="stroke:#000000; stroke-linecap:butt; stroke-linejoin:round; stroke-width:2; stroke-opacity:0.1; fill:none" points="
  370.861,1057.7 2352.76,1057.7 
  "/>
<polyline clip-path="url(#clip252)" style="stroke:#000000; stroke-linecap:butt; stroke-linejoin:round; stroke-width:2; stroke-opacity:0.1; fill:none" points="
  370.861,781.635 2352.76,781.635 
  "/>
<polyline clip-path="url(#clip252)" style="stroke:#000000; stroke-linecap:butt; stroke-linejoin:round; stroke-width:2; stroke-opacity:0.1; fill:none" points="
  370.861,505.57 2352.76,505.57 
  "/>
<polyline clip-path="url(#clip252)" style="stroke:#000000; stroke-linecap:butt; stroke-linejoin:round; stroke-width:2; stroke-opacity:0.1; fill:none" points="
  370.861,229.505 2352.76,229.505 
  "/>
<polyline clip-path="url(#clip252)" style="stroke:#000000; stroke-linecap:butt; stroke-linejoin:round; stroke-width:2; stroke-opacity:0.05; fill:none" points="
  370.861,1388.98 2352.76,1388.98 
  "/>
<polyline clip-path="url(#clip252)" style="stroke:#000000; stroke-linecap:butt; stroke-linejoin:round; stroke-width:2; stroke-opacity:0.05; fill:none" points="
  370.861,1278.55 2352.76,1278.55 
  "/>
<polyline clip-path="url(#clip252)" style="stroke:#000000; stroke-linecap:butt; stroke-linejoin:round; stroke-width:2; stroke-opacity:0.05; fill:none" points="
  370.861,1223.34 2352.76,1223.34 
  "/>
<polyline clip-path="url(#clip252)" style="stroke:#000000; stroke-linecap:butt; stroke-linejoin:round; stroke-width:2; stroke-opacity:0.05; fill:none" points="
  370.861,1168.13 2352.76,1168.13 
  "/>
<polyline clip-path="url(#clip252)" style="stroke:#000000; stroke-linecap:butt; stroke-linejoin:round; stroke-width:2; stroke-opacity:0.05; fill:none" points="
  370.861,1112.91 2352.76,1112.91 
  "/>
<polyline clip-path="url(#clip252)" style="stroke:#000000; stroke-linecap:butt; stroke-linejoin:round; stroke-width:2; stroke-opacity:0.05; fill:none" points="
  370.861,1002.49 2352.76,1002.49 
  "/>
<polyline clip-path="url(#clip252)" style="stroke:#000000; stroke-linecap:butt; stroke-linejoin:round; stroke-width:2; stroke-opacity:0.05; fill:none" points="
  370.861,947.275 2352.76,947.275 
  "/>
<polyline clip-path="url(#clip252)" style="stroke:#000000; stroke-linecap:butt; stroke-linejoin:round; stroke-width:2; stroke-opacity:0.05; fill:none" points="
  370.861,892.061 2352.76,892.061 
  "/>
<polyline clip-path="url(#clip252)" style="stroke:#000000; stroke-linecap:butt; stroke-linejoin:round; stroke-width:2; stroke-opacity:0.05; fill:none" points="
  370.861,836.848 2352.76,836.848 
  "/>
<polyline clip-path="url(#clip252)" style="stroke:#000000; stroke-linecap:butt; stroke-linejoin:round; stroke-width:2; stroke-opacity:0.05; fill:none" points="
  370.861,726.422 2352.76,726.422 
  "/>
<polyline clip-path="url(#clip252)" style="stroke:#000000; stroke-linecap:butt; stroke-linejoin:round; stroke-width:2; stroke-opacity:0.05; fill:none" points="
  370.861,671.209 2352.76,671.209 
  "/>
<polyline clip-path="url(#clip252)" style="stroke:#000000; stroke-linecap:butt; stroke-linejoin:round; stroke-width:2; stroke-opacity:0.05; fill:none" points="
  370.861,615.996 2352.76,615.996 
  "/>
<polyline clip-path="url(#clip252)" style="stroke:#000000; stroke-linecap:butt; stroke-linejoin:round; stroke-width:2; stroke-opacity:0.05; fill:none" points="
  370.861,560.783 2352.76,560.783 
  "/>
<polyline clip-path="url(#clip252)" style="stroke:#000000; stroke-linecap:butt; stroke-linejoin:round; stroke-width:2; stroke-opacity:0.05; fill:none" points="
  370.861,450.357 2352.76,450.357 
  "/>
<polyline clip-path="url(#clip252)" style="stroke:#000000; stroke-linecap:butt; stroke-linejoin:round; stroke-width:2; stroke-opacity:0.05; fill:none" points="
  370.861,395.144 2352.76,395.144 
  "/>
<polyline clip-path="url(#clip252)" style="stroke:#000000; stroke-linecap:butt; stroke-linejoin:round; stroke-width:2; stroke-opacity:0.05; fill:none" points="
  370.861,339.931 2352.76,339.931 
  "/>
<polyline clip-path="url(#clip252)" style="stroke:#000000; stroke-linecap:butt; stroke-linejoin:round; stroke-width:2; stroke-opacity:0.05; fill:none" points="
  370.861,284.718 2352.76,284.718 
  "/>
<polyline clip-path="url(#clip252)" style="stroke:#000000; stroke-linecap:butt; stroke-linejoin:round; stroke-width:2; stroke-opacity:0.05; fill:none" points="
  370.861,174.292 2352.76,174.292 
  "/>
<polyline clip-path="url(#clip250)" style="stroke:#000000; stroke-linecap:butt; stroke-linejoin:round; stroke-width:4; stroke-opacity:1; fill:none" points="
  370.861,1423.18 370.861,123.472 
  "/>
<polyline clip-path="url(#clip250)" style="stroke:#000000; stroke-linecap:butt; stroke-linejoin:round; stroke-width:4; stroke-opacity:1; fill:none" points="
  370.861,1333.77 389.758,1333.77 
  "/>
<polyline clip-path="url(#clip250)" style="stroke:#000000; stroke-linecap:butt; stroke-linejoin:round; stroke-width:4; stroke-opacity:1; fill:none" points="
  370.861,1057.7 389.758,1057.7 
  "/>
<polyline clip-path="url(#clip250)" style="stroke:#000000; stroke-linecap:butt; stroke-linejoin:round; stroke-width:4; stroke-opacity:1; fill:none" points="
  370.861,781.635 389.758,781.635 
  "/>
<polyline clip-path="url(#clip250)" style="stroke:#000000; stroke-linecap:butt; stroke-linejoin:round; stroke-width:4; stroke-opacity:1; fill:none" points="
  370.861,505.57 389.758,505.57 
  "/>
<polyline clip-path="url(#clip250)" style="stroke:#000000; stroke-linecap:butt; stroke-linejoin:round; stroke-width:4; stroke-opacity:1; fill:none" points="
  370.861,229.505 389.758,229.505 
  "/>
<polyline clip-path="url(#clip250)" style="stroke:#000000; stroke-linecap:butt; stroke-linejoin:round; stroke-width:4; stroke-opacity:1; fill:none" points="
  370.861,1388.98 380.31,1388.98 
  "/>
<polyline clip-path="url(#clip250)" style="stroke:#000000; stroke-linecap:butt; stroke-linejoin:round; stroke-width:4; stroke-opacity:1; fill:none" points="
  370.861,1278.55 380.31,1278.55 
  "/>
<polyline clip-path="url(#clip250)" style="stroke:#000000; stroke-linecap:butt; stroke-linejoin:round; stroke-width:4; stroke-opacity:1; fill:none" points="
  370.861,1223.34 380.31,1223.34 
  "/>
<polyline clip-path="url(#clip250)" style="stroke:#000000; stroke-linecap:butt; stroke-linejoin:round; stroke-width:4; stroke-opacity:1; fill:none" points="
  370.861,1168.13 380.31,1168.13 
  "/>
<polyline clip-path="url(#clip250)" style="stroke:#000000; stroke-linecap:butt; stroke-linejoin:round; stroke-width:4; stroke-opacity:1; fill:none" points="
  370.861,1112.91 380.31,1112.91 
  "/>
<polyline clip-path="url(#clip250)" style="stroke:#000000; stroke-linecap:butt; stroke-linejoin:round; stroke-width:4; stroke-opacity:1; fill:none" points="
  370.861,1002.49 380.31,1002.49 
  "/>
<polyline clip-path="url(#clip250)" style="stroke:#000000; stroke-linecap:butt; stroke-linejoin:round; stroke-width:4; stroke-opacity:1; fill:none" points="
  370.861,947.275 380.31,947.275 
  "/>
<polyline clip-path="url(#clip250)" style="stroke:#000000; stroke-linecap:butt; stroke-linejoin:round; stroke-width:4; stroke-opacity:1; fill:none" points="
  370.861,892.061 380.31,892.061 
  "/>
<polyline clip-path="url(#clip250)" style="stroke:#000000; stroke-linecap:butt; stroke-linejoin:round; stroke-width:4; stroke-opacity:1; fill:none" points="
  370.861,836.848 380.31,836.848 
  "/>
<polyline clip-path="url(#clip250)" style="stroke:#000000; stroke-linecap:butt; stroke-linejoin:round; stroke-width:4; stroke-opacity:1; fill:none" points="
  370.861,726.422 380.31,726.422 
  "/>
<polyline clip-path="url(#clip250)" style="stroke:#000000; stroke-linecap:butt; stroke-linejoin:round; stroke-width:4; stroke-opacity:1; fill:none" points="
  370.861,671.209 380.31,671.209 
  "/>
<polyline clip-path="url(#clip250)" style="stroke:#000000; stroke-linecap:butt; stroke-linejoin:round; stroke-width:4; stroke-opacity:1; fill:none" points="
  370.861,615.996 380.31,615.996 
  "/>
<polyline clip-path="url(#clip250)" style="stroke:#000000; stroke-linecap:butt; stroke-linejoin:round; stroke-width:4; stroke-opacity:1; fill:none" points="
  370.861,560.783 380.31,560.783 
  "/>
<polyline clip-path="url(#clip250)" style="stroke:#000000; stroke-linecap:butt; stroke-linejoin:round; stroke-width:4; stroke-opacity:1; fill:none" points="
  370.861,450.357 380.31,450.357 
  "/>
<polyline clip-path="url(#clip250)" style="stroke:#000000; stroke-linecap:butt; stroke-linejoin:round; stroke-width:4; stroke-opacity:1; fill:none" points="
  370.861,395.144 380.31,395.144 
  "/>
<polyline clip-path="url(#clip250)" style="stroke:#000000; stroke-linecap:butt; stroke-linejoin:round; stroke-width:4; stroke-opacity:1; fill:none" points="
  370.861,339.931 380.31,339.931 
  "/>
<polyline clip-path="url(#clip250)" style="stroke:#000000; stroke-linecap:butt; stroke-linejoin:round; stroke-width:4; stroke-opacity:1; fill:none" points="
  370.861,284.718 380.31,284.718 
  "/>
<polyline clip-path="url(#clip250)" style="stroke:#000000; stroke-linecap:butt; stroke-linejoin:round; stroke-width:4; stroke-opacity:1; fill:none" points="
  370.861,174.292 380.31,174.292 
  "/>
<path clip-path="url(#clip250)" d="M129.862 1327.01 L118.056 1345.46 L129.862 1345.46 L129.862 1327.01 M128.635 1322.93 L134.515 1322.93 L134.515 1345.46 L139.445 1345.46 L139.445 1349.35 L134.515 1349.35 L134.515 1357.49 L129.862 1357.49 L129.862 1349.35 L114.26 1349.35 L114.26 1344.83 L128.635 1322.93 Z" fill="#000000" fill-rule="evenodd" fill-opacity="1" /><path clip-path="url(#clip250)" d="M147.177 1351.61 L152.061 1351.61 L152.061 1357.49 L147.177 1357.49 L147.177 1351.61 Z" fill="#000000" fill-rule="evenodd" fill-opacity="1" /><path clip-path="url(#clip250)" d="M172.246 1326.01 Q168.635 1326.01 166.806 1329.58 Q165.001 1333.12 165.001 1340.25 Q165.001 1347.35 166.806 1350.92 Q168.635 1354.46 172.246 1354.46 Q175.88 1354.46 177.686 1350.92 Q179.514 1347.35 179.514 1340.25 Q179.514 1333.12 177.686 1329.58 Q175.88 1326.01 172.246 1326.01 M172.246 1322.31 Q178.056 1322.31 181.112 1326.92 Q184.19 1331.5 184.19 1340.25 Q184.19 1348.98 181.112 1353.58 Q178.056 1358.16 172.246 1358.16 Q166.436 1358.16 163.357 1353.58 Q160.302 1348.98 160.302 1340.25 Q160.302 1331.5 163.357 1326.92 Q166.436 1322.31 172.246 1322.31 Z" fill="#000000" fill-rule="evenodd" fill-opacity="1" /><path clip-path="url(#clip250)" d="M202.408 1326.01 Q198.797 1326.01 196.968 1329.58 Q195.163 1333.12 195.163 1340.25 Q195.163 1347.35 196.968 1350.92 Q198.797 1354.46 202.408 1354.46 Q206.042 1354.46 207.848 1350.92 Q209.676 1347.35 209.676 1340.25 Q209.676 1333.12 207.848 1329.58 Q206.042 1326.01 202.408 1326.01 M202.408 1322.31 Q208.218 1322.31 211.274 1326.92 Q214.352 1331.5 214.352 1340.25 Q214.352 1348.98 211.274 1353.58 Q208.218 1358.16 202.408 1358.16 Q196.598 1358.16 193.519 1353.58 Q190.463 1348.98 190.463 1340.25 Q190.463 1331.5 193.519 1326.92 Q196.598 1322.31 202.408 1322.31 Z" fill="#000000" fill-rule="evenodd" fill-opacity="1" /><path clip-path="url(#clip250)" d="M250.741 1332.03 L240.162 1342.66 L250.741 1353.23 L247.986 1356.04 L237.361 1345.41 L226.736 1356.04 L224.005 1353.23 L234.56 1342.66 L224.005 1332.03 L226.736 1329.23 L237.361 1339.85 L247.986 1329.23 L250.741 1332.03 Z" fill="#000000" fill-rule="evenodd" fill-opacity="1" /><path clip-path="url(#clip250)" d="M263.102 1353.56 L270.741 1353.56 L270.741 1327.19 L262.431 1328.86 L262.431 1324.6 L270.695 1322.93 L275.37 1322.93 L275.37 1353.56 L283.009 1353.56 L283.009 1357.49 L263.102 1357.49 L263.102 1353.56 Z" fill="#000000" fill-rule="evenodd" fill-opacity="1" /><path clip-path="url(#clip250)" d="M302.454 1326.01 Q298.843 1326.01 297.014 1329.58 Q295.208 1333.12 295.208 1340.25 Q295.208 1347.35 297.014 1350.92 Q298.843 1354.46 302.454 1354.46 Q306.088 1354.46 307.893 1350.92 Q309.722 1347.35 309.722 1340.25 Q309.722 1333.12 307.893 1329.58 Q306.088 1326.01 302.454 1326.01 M302.454 1322.31 Q308.264 1322.31 311.319 1326.92 Q314.398 1331.5 314.398 1340.25 Q314.398 1348.98 311.319 1353.58 Q308.264 1358.16 302.454 1358.16 Q296.643 1358.16 293.565 1353.58 Q290.509 1348.98 290.509 1340.25 Q290.509 1331.5 293.565 1326.92 Q296.643 1322.31 302.454 1322.31 Z" fill="#000000" fill-rule="evenodd" fill-opacity="1" /><path clip-path="url(#clip250)" d="M327.074 1305.31 L317.482 1320.3 L327.074 1320.3 L327.074 1305.31 M326.078 1302 L330.855 1302 L330.855 1320.3 L334.861 1320.3 L334.861 1323.46 L330.855 1323.46 L330.855 1330.08 L327.074 1330.08 L327.074 1323.46 L314.398 1323.46 L314.398 1319.8 L326.078 1302 Z" fill="#000000" fill-rule="evenodd" fill-opacity="1" /><path clip-path="url(#clip250)" d="M127.593 1062.28 Q124.445 1062.28 122.593 1064.44 Q120.765 1066.59 120.765 1070.34 Q120.765 1074.07 122.593 1076.24 Q124.445 1078.4 127.593 1078.4 Q130.742 1078.4 132.57 1076.24 Q134.422 1074.07 134.422 1070.34 Q134.422 1066.59 132.57 1064.44 Q130.742 1062.28 127.593 1062.28 M136.876 1047.63 L136.876 1051.89 Q135.117 1051.06 133.311 1050.62 Q131.529 1050.18 129.769 1050.18 Q125.14 1050.18 122.686 1053.3 Q120.255 1056.43 119.908 1062.75 Q121.274 1060.73 123.334 1059.67 Q125.394 1058.58 127.871 1058.58 Q133.08 1058.58 136.089 1061.75 Q139.121 1064.9 139.121 1070.34 Q139.121 1075.66 135.973 1078.88 Q132.825 1082.1 127.593 1082.1 Q121.598 1082.1 118.427 1077.52 Q115.256 1072.91 115.256 1064.18 Q115.256 1055.99 119.144 1051.13 Q123.033 1046.24 129.584 1046.24 Q131.343 1046.24 133.126 1046.59 Q134.931 1046.94 136.876 1047.63 Z" fill="#000000" fill-rule="evenodd" fill-opacity="1" /><path clip-path="url(#clip250)" d="M147.177 1075.55 L152.061 1075.55 L152.061 1081.43 L147.177 1081.43 L147.177 1075.55 Z" fill="#000000" fill-rule="evenodd" fill-opacity="1" /><path clip-path="url(#clip250)" d="M172.246 1049.95 Q168.635 1049.95 166.806 1053.51 Q165.001 1057.05 165.001 1064.18 Q165.001 1071.29 166.806 1074.85 Q168.635 1078.4 172.246 1078.4 Q175.88 1078.4 177.686 1074.85 Q179.514 1071.29 179.514 1064.18 Q179.514 1057.05 177.686 1053.51 Q175.88 1049.95 172.246 1049.95 M172.246 1046.24 Q178.056 1046.24 181.112 1050.85 Q184.19 1055.43 184.19 1064.18 Q184.19 1072.91 181.112 1077.52 Q178.056 1082.1 172.246 1082.1 Q166.436 1082.1 163.357 1077.52 Q160.302 1072.91 160.302 1064.18 Q160.302 1055.43 163.357 1050.85 Q166.436 1046.24 172.246 1046.24 Z" fill="#000000" fill-rule="evenodd" fill-opacity="1" /><path clip-path="url(#clip250)" d="M202.408 1049.95 Q198.797 1049.95 196.968 1053.51 Q195.163 1057.05 195.163 1064.18 Q195.163 1071.29 196.968 1074.85 Q198.797 1078.4 202.408 1078.4 Q206.042 1078.4 207.848 1074.85 Q209.676 1071.29 209.676 1064.18 Q209.676 1057.05 207.848 1053.51 Q206.042 1049.95 202.408 1049.95 M202.408 1046.24 Q208.218 1046.24 211.274 1050.85 Q214.352 1055.43 214.352 1064.18 Q214.352 1072.91 211.274 1077.52 Q208.218 1082.1 202.408 1082.1 Q196.598 1082.1 193.519 1077.52 Q190.463 1072.91 190.463 1064.18 Q190.463 1055.43 193.519 1050.85 Q196.598 1046.24 202.408 1046.24 Z" fill="#000000" fill-rule="evenodd" fill-opacity="1" /><path clip-path="url(#clip250)" d="M250.741 1055.97 L240.162 1066.59 L250.741 1077.17 L247.986 1079.97 L237.361 1069.34 L226.736 1079.97 L224.005 1077.17 L234.56 1066.59 L224.005 1055.97 L226.736 1053.16 L237.361 1063.79 L247.986 1053.16 L250.741 1055.97 Z" fill="#000000" fill-rule="evenodd" fill-opacity="1" /><path clip-path="url(#clip250)" d="M263.102 1077.49 L270.741 1077.49 L270.741 1051.13 L262.431 1052.79 L262.431 1048.53 L270.695 1046.87 L275.37 1046.87 L275.37 1077.49 L283.009 1077.49 L283.009 1081.43 L263.102 1081.43 L263.102 1077.49 Z" fill="#000000" fill-rule="evenodd" fill-opacity="1" /><path clip-path="url(#clip250)" d="M302.454 1049.95 Q298.843 1049.95 297.014 1053.51 Q295.208 1057.05 295.208 1064.18 Q295.208 1071.29 297.014 1074.85 Q298.843 1078.4 302.454 1078.4 Q306.088 1078.4 307.893 1074.85 Q309.722 1071.29 309.722 1064.18 Q309.722 1057.05 307.893 1053.51 Q306.088 1049.95 302.454 1049.95 M302.454 1046.24 Q308.264 1046.24 311.319 1050.85 Q314.398 1055.43 314.398 1064.18 Q314.398 1072.91 311.319 1077.52 Q308.264 1082.1 302.454 1082.1 Q296.643 1082.1 293.565 1077.52 Q290.509 1072.91 290.509 1064.18 Q290.509 1055.43 293.565 1050.85 Q296.643 1046.24 302.454 1046.24 Z" fill="#000000" fill-rule="evenodd" fill-opacity="1" /><path clip-path="url(#clip250)" d="M327.074 1029.25 L317.482 1044.24 L327.074 1044.24 L327.074 1029.25 M326.078 1025.94 L330.855 1025.94 L330.855 1044.24 L334.861 1044.24 L334.861 1047.4 L330.855 1047.4 L330.855 1054.02 L327.074 1054.02 L327.074 1047.4 L314.398 1047.4 L314.398 1043.73 L326.078 1025.94 Z" fill="#000000" fill-rule="evenodd" fill-opacity="1" /><path clip-path="url(#clip250)" d="M127.015 788.951 Q123.681 788.951 121.76 790.733 Q119.862 792.516 119.862 795.641 Q119.862 798.766 121.76 800.548 Q123.681 802.331 127.015 802.331 Q130.348 802.331 132.269 800.548 Q134.191 798.743 134.191 795.641 Q134.191 792.516 132.269 790.733 Q130.371 788.951 127.015 788.951 M122.339 786.96 Q119.33 786.219 117.64 784.159 Q115.973 782.099 115.973 779.136 Q115.973 774.993 118.913 772.585 Q121.876 770.178 127.015 770.178 Q132.177 770.178 135.117 772.585 Q138.056 774.993 138.056 779.136 Q138.056 782.099 136.367 784.159 Q134.7 786.219 131.714 786.96 Q135.093 787.747 136.968 790.039 Q138.867 792.331 138.867 795.641 Q138.867 800.664 135.788 803.349 Q132.732 806.034 127.015 806.034 Q121.297 806.034 118.218 803.349 Q115.163 800.664 115.163 795.641 Q115.163 792.331 117.061 790.039 Q118.959 787.747 122.339 786.96 M120.626 779.576 Q120.626 782.261 122.293 783.766 Q123.982 785.27 127.015 785.27 Q130.024 785.27 131.714 783.766 Q133.427 782.261 133.427 779.576 Q133.427 776.891 131.714 775.386 Q130.024 773.882 127.015 773.882 Q123.982 773.882 122.293 775.386 Q120.626 776.891 120.626 779.576 Z" fill="#000000" fill-rule="evenodd" fill-opacity="1" /><path clip-path="url(#clip250)" d="M147.177 799.483 L152.061 799.483 L152.061 805.363 L147.177 805.363 L147.177 799.483 Z" fill="#000000" fill-rule="evenodd" fill-opacity="1" /><path clip-path="url(#clip250)" d="M172.246 773.882 Q168.635 773.882 166.806 777.446 Q165.001 780.988 165.001 788.118 Q165.001 795.224 166.806 798.789 Q168.635 802.331 172.246 802.331 Q175.88 802.331 177.686 798.789 Q179.514 795.224 179.514 788.118 Q179.514 780.988 177.686 777.446 Q175.88 773.882 172.246 773.882 M172.246 770.178 Q178.056 770.178 181.112 774.784 Q184.19 779.368 184.19 788.118 Q184.19 796.844 181.112 801.451 Q178.056 806.034 172.246 806.034 Q166.436 806.034 163.357 801.451 Q160.302 796.844 160.302 788.118 Q160.302 779.368 163.357 774.784 Q166.436 770.178 172.246 770.178 Z" fill="#000000" fill-rule="evenodd" fill-opacity="1" /><path clip-path="url(#clip250)" d="M202.408 773.882 Q198.797 773.882 196.968 777.446 Q195.163 780.988 195.163 788.118 Q195.163 795.224 196.968 798.789 Q198.797 802.331 202.408 802.331 Q206.042 802.331 207.848 798.789 Q209.676 795.224 209.676 788.118 Q209.676 780.988 207.848 777.446 Q206.042 773.882 202.408 773.882 M202.408 770.178 Q208.218 770.178 211.274 774.784 Q214.352 779.368 214.352 788.118 Q214.352 796.844 211.274 801.451 Q208.218 806.034 202.408 806.034 Q196.598 806.034 193.519 801.451 Q190.463 796.844 190.463 788.118 Q190.463 779.368 193.519 774.784 Q196.598 770.178 202.408 770.178 Z" fill="#000000" fill-rule="evenodd" fill-opacity="1" /><path clip-path="url(#clip250)" d="M250.741 779.9 L240.162 790.525 L250.741 801.104 L247.986 803.905 L237.361 793.28 L226.736 803.905 L224.005 801.104 L234.56 790.525 L224.005 779.9 L226.736 777.099 L237.361 787.724 L247.986 777.099 L250.741 779.9 Z" fill="#000000" fill-rule="evenodd" fill-opacity="1" /><path clip-path="url(#clip250)" d="M263.102 801.428 L270.741 801.428 L270.741 775.062 L262.431 776.729 L262.431 772.47 L270.695 770.803 L275.37 770.803 L275.37 801.428 L283.009 801.428 L283.009 805.363 L263.102 805.363 L263.102 801.428 Z" fill="#000000" fill-rule="evenodd" fill-opacity="1" /><path clip-path="url(#clip250)" d="M302.454 773.882 Q298.843 773.882 297.014 777.446 Q295.208 780.988 295.208 788.118 Q295.208 795.224 297.014 798.789 Q298.843 802.331 302.454 802.331 Q306.088 802.331 307.893 798.789 Q309.722 795.224 309.722 788.118 Q309.722 780.988 307.893 777.446 Q306.088 773.882 302.454 773.882 M302.454 770.178 Q308.264 770.178 311.319 774.784 Q314.398 779.368 314.398 788.118 Q314.398 796.844 311.319 801.451 Q308.264 806.034 302.454 806.034 Q296.643 806.034 293.565 801.451 Q290.509 796.844 290.509 788.118 Q290.509 779.368 293.565 774.784 Q296.643 770.178 302.454 770.178 Z" fill="#000000" fill-rule="evenodd" fill-opacity="1" /><path clip-path="url(#clip250)" d="M327.074 753.183 L317.482 768.172 L327.074 768.172 L327.074 753.183 M326.078 749.872 L330.855 749.872 L330.855 768.172 L334.861 768.172 L334.861 771.332 L330.855 771.332 L330.855 777.952 L327.074 777.952 L327.074 771.332 L314.398 771.332 L314.398 767.665 L326.078 749.872 Z" fill="#000000" fill-rule="evenodd" fill-opacity="1" /><path clip-path="url(#clip250)" d="M120.12 525.362 L127.758 525.362 L127.758 498.997 L119.448 500.663 L119.448 496.404 L127.712 494.738 L132.388 494.738 L132.388 525.362 L140.027 525.362 L140.027 529.298 L120.12 529.298 L120.12 525.362 Z" fill="#000000" fill-rule="evenodd" fill-opacity="1" /><path clip-path="url(#clip250)" d="M149.471 523.418 L154.355 523.418 L154.355 529.298 L149.471 529.298 L149.471 523.418 Z" fill="#000000" fill-rule="evenodd" fill-opacity="1" /><path clip-path="url(#clip250)" d="M174.541 497.816 Q170.929 497.816 169.101 501.381 Q167.295 504.923 167.295 512.052 Q167.295 519.159 169.101 522.724 Q170.929 526.265 174.541 526.265 Q178.175 526.265 179.98 522.724 Q181.809 519.159 181.809 512.052 Q181.809 504.923 179.98 501.381 Q178.175 497.816 174.541 497.816 M174.541 494.113 Q180.351 494.113 183.406 498.719 Q186.485 503.302 186.485 512.052 Q186.485 520.779 183.406 525.386 Q180.351 529.969 174.541 529.969 Q168.73 529.969 165.652 525.386 Q162.596 520.779 162.596 512.052 Q162.596 503.302 165.652 498.719 Q168.73 494.113 174.541 494.113 Z" fill="#000000" fill-rule="evenodd" fill-opacity="1" /><path clip-path="url(#clip250)" d="M204.702 497.816 Q201.091 497.816 199.263 501.381 Q197.457 504.923 197.457 512.052 Q197.457 519.159 199.263 522.724 Q201.091 526.265 204.702 526.265 Q208.337 526.265 210.142 522.724 Q211.971 519.159 211.971 512.052 Q211.971 504.923 210.142 501.381 Q208.337 497.816 204.702 497.816 M204.702 494.113 Q210.513 494.113 213.568 498.719 Q216.647 503.302 216.647 512.052 Q216.647 520.779 213.568 525.386 Q210.513 529.969 204.702 529.969 Q198.892 529.969 195.814 525.386 Q192.758 520.779 192.758 512.052 Q192.758 503.302 195.814 498.719 Q198.892 494.113 204.702 494.113 Z" fill="#000000" fill-rule="evenodd" fill-opacity="1" /><path clip-path="url(#clip250)" d="M253.035 503.835 L242.457 514.46 L253.035 525.038 L250.281 527.839 L239.656 517.214 L229.031 527.839 L226.299 525.038 L236.855 514.46 L226.299 503.835 L229.031 501.034 L239.656 511.659 L250.281 501.034 L253.035 503.835 Z" fill="#000000" fill-rule="evenodd" fill-opacity="1" /><path clip-path="url(#clip250)" d="M265.397 525.362 L273.035 525.362 L273.035 498.997 L264.725 500.663 L264.725 496.404 L272.989 494.738 L277.665 494.738 L277.665 525.362 L285.304 525.362 L285.304 529.298 L265.397 529.298 L265.397 525.362 Z" fill="#000000" fill-rule="evenodd" fill-opacity="1" /><path clip-path="url(#clip250)" d="M304.748 497.816 Q301.137 497.816 299.308 501.381 Q297.503 504.923 297.503 512.052 Q297.503 519.159 299.308 522.724 Q301.137 526.265 304.748 526.265 Q308.382 526.265 310.188 522.724 Q312.017 519.159 312.017 512.052 Q312.017 504.923 310.188 501.381 Q308.382 497.816 304.748 497.816 M304.748 494.113 Q310.558 494.113 313.614 498.719 Q316.693 503.302 316.693 512.052 Q316.693 520.779 313.614 525.386 Q310.558 529.969 304.748 529.969 Q298.938 529.969 295.859 525.386 Q292.804 520.779 292.804 512.052 Q292.804 503.302 295.859 498.719 Q298.938 494.113 304.748 494.113 Z" fill="#000000" fill-rule="evenodd" fill-opacity="1" /><path clip-path="url(#clip250)" d="M317.877 473.807 L332.792 473.807 L332.792 477.004 L321.357 477.004 L321.357 483.888 Q322.184 483.606 323.012 483.474 Q323.839 483.324 324.667 483.324 Q329.369 483.324 332.115 485.901 Q334.861 488.477 334.861 492.878 Q334.861 497.411 332.04 499.931 Q329.218 502.433 324.084 502.433 Q322.316 502.433 320.473 502.132 Q318.649 501.831 316.693 501.229 L316.693 497.411 Q318.385 498.332 320.191 498.784 Q321.996 499.235 324.009 499.235 Q327.262 499.235 329.162 497.524 Q331.062 495.812 331.062 492.878 Q331.062 489.944 329.162 488.233 Q327.262 486.521 324.009 486.521 Q322.485 486.521 320.962 486.86 Q319.457 487.198 317.877 487.913 L317.877 473.807 Z" fill="#000000" fill-rule="evenodd" fill-opacity="1" /><path clip-path="url(#clip250)" d="M120.12 249.297 L127.758 249.297 L127.758 222.931 L119.448 224.598 L119.448 220.339 L127.712 218.672 L132.388 218.672 L132.388 249.297 L140.027 249.297 L140.027 253.232 L120.12 253.232 L120.12 249.297 Z" fill="#000000" fill-rule="evenodd" fill-opacity="1" /><path clip-path="url(#clip250)" d="M149.471 247.353 L154.355 247.353 L154.355 253.232 L149.471 253.232 L149.471 247.353 Z" fill="#000000" fill-rule="evenodd" fill-opacity="1" /><path clip-path="url(#clip250)" d="M168.568 249.297 L184.888 249.297 L184.888 253.232 L162.943 253.232 L162.943 249.297 Q165.605 246.542 170.189 241.913 Q174.795 237.26 175.976 235.917 Q178.221 233.394 179.101 231.658 Q180.003 229.899 180.003 228.209 Q180.003 225.455 178.059 223.718 Q176.138 221.982 173.036 221.982 Q170.837 221.982 168.383 222.746 Q165.953 223.51 163.175 225.061 L163.175 220.339 Q165.999 219.205 168.453 218.626 Q170.906 218.047 172.943 218.047 Q178.314 218.047 181.508 220.732 Q184.702 223.418 184.702 227.908 Q184.702 230.038 183.892 231.959 Q183.105 233.857 180.999 236.45 Q180.42 237.121 177.318 240.339 Q174.216 243.533 168.568 249.297 Z" fill="#000000" fill-rule="evenodd" fill-opacity="1" /><path clip-path="url(#clip250)" d="M204.702 221.751 Q201.091 221.751 199.263 225.316 Q197.457 228.857 197.457 235.987 Q197.457 243.093 199.263 246.658 Q201.091 250.2 204.702 250.2 Q208.337 250.2 210.142 246.658 Q211.971 243.093 211.971 235.987 Q211.971 228.857 210.142 225.316 Q208.337 221.751 204.702 221.751 M204.702 218.047 Q210.513 218.047 213.568 222.654 Q216.647 227.237 216.647 235.987 Q216.647 244.714 213.568 249.32 Q210.513 253.903 204.702 253.903 Q198.892 253.903 195.814 249.32 Q192.758 244.714 192.758 235.987 Q192.758 227.237 195.814 222.654 Q198.892 218.047 204.702 218.047 Z" fill="#000000" fill-rule="evenodd" fill-opacity="1" /><path clip-path="url(#clip250)" d="M253.035 227.769 L242.457 238.394 L253.035 248.973 L250.281 251.774 L239.656 241.149 L229.031 251.774 L226.299 248.973 L236.855 238.394 L226.299 227.769 L229.031 224.968 L239.656 235.593 L250.281 224.968 L253.035 227.769 Z" fill="#000000" fill-rule="evenodd" fill-opacity="1" /><path clip-path="url(#clip250)" d="M265.397 249.297 L273.035 249.297 L273.035 222.931 L264.725 224.598 L264.725 220.339 L272.989 218.672 L277.665 218.672 L277.665 249.297 L285.304 249.297 L285.304 253.232 L265.397 253.232 L265.397 249.297 Z" fill="#000000" fill-rule="evenodd" fill-opacity="1" /><path clip-path="url(#clip250)" d="M304.748 221.751 Q301.137 221.751 299.308 225.316 Q297.503 228.857 297.503 235.987 Q297.503 243.093 299.308 246.658 Q301.137 250.2 304.748 250.2 Q308.382 250.2 310.188 246.658 Q312.017 243.093 312.017 235.987 Q312.017 228.857 310.188 225.316 Q308.382 221.751 304.748 221.751 M304.748 218.047 Q310.558 218.047 313.614 222.654 Q316.693 227.237 316.693 235.987 Q316.693 244.714 313.614 249.32 Q310.558 253.903 304.748 253.903 Q298.938 253.903 295.859 249.32 Q292.804 244.714 292.804 235.987 Q292.804 227.237 295.859 222.654 Q298.938 218.047 304.748 218.047 Z" fill="#000000" fill-rule="evenodd" fill-opacity="1" /><path clip-path="url(#clip250)" d="M317.877 197.742 L332.792 197.742 L332.792 200.939 L321.357 200.939 L321.357 207.823 Q322.184 207.541 323.012 207.409 Q323.839 207.259 324.667 207.259 Q329.369 207.259 332.115 209.835 Q334.861 212.412 334.861 216.813 Q334.861 221.346 332.04 223.866 Q329.218 226.367 324.084 226.367 Q322.316 226.367 320.473 226.066 Q318.649 225.765 316.693 225.164 L316.693 221.346 Q318.385 222.267 320.191 222.719 Q321.996 223.17 324.009 223.17 Q327.262 223.17 329.162 221.458 Q331.062 219.747 331.062 216.813 Q331.062 213.879 329.162 212.167 Q327.262 210.456 324.009 210.456 Q322.485 210.456 320.962 210.794 Q319.457 211.133 317.877 211.848 L317.877 197.742 Z" fill="#000000" fill-rule="evenodd" fill-opacity="1" /><path clip-path="url(#clip250)" d="M18.0438 841.996 L24.314 841.996 Q22.5634 845.656 21.704 848.903 Q20.8447 852.149 20.8447 855.173 Q20.8447 860.425 22.8817 863.289 Q24.9187 866.122 28.6745 866.122 Q31.8255 866.122 33.4488 864.244 Q35.0402 862.334 36.0269 857.051 L36.8226 853.168 Q38.1912 845.975 41.6605 842.569 Q45.098 839.131 50.8908 839.131 Q57.7976 839.131 61.3624 843.778 Q64.9272 848.394 64.9272 857.337 Q64.9272 860.711 64.1633 864.531 Q63.3994 868.318 61.9035 872.392 L55.2831 872.392 Q57.4793 868.477 58.5933 864.722 Q59.7073 860.966 59.7073 857.337 Q59.7073 851.831 57.543 848.839 Q55.3786 845.847 51.3682 845.847 Q47.8671 845.847 45.8937 848.012 Q43.9204 850.144 42.9337 855.046 L42.1698 858.961 Q40.7375 866.154 37.682 869.369 Q34.6264 872.583 29.1837 872.583 Q22.8817 872.583 19.2532 868.159 Q15.6248 863.703 15.6248 855.905 Q15.6248 852.563 16.2295 849.094 Q16.8343 845.624 18.0438 841.996 Z" fill="#000000" fill-rule="evenodd" fill-opacity="1" /><path clip-path="url(#clip250)" d="M46.0847 813.159 Q46.0847 820.257 47.7079 822.994 Q49.3312 825.732 53.2461 825.732 Q56.3653 825.732 58.2114 823.695 Q60.0256 821.626 60.0256 818.093 Q60.0256 813.223 56.5881 810.295 Q53.1188 807.335 47.3897 807.335 L46.0847 807.335 L46.0847 813.159 M43.6657 801.478 L64.0042 801.478 L64.0042 807.335 L58.5933 807.335 Q61.8398 809.34 63.3994 812.332 Q64.9272 815.324 64.9272 819.652 Q64.9272 825.127 61.8716 828.373 Q58.7843 831.588 53.6281 831.588 Q47.6125 831.588 44.5569 827.578 Q41.5014 823.535 41.5014 815.547 L41.5014 807.335 L40.9285 807.335 Q36.8862 807.335 34.6901 810.008 Q32.4621 812.65 32.4621 817.456 Q32.4621 820.512 33.1941 823.408 Q33.9262 826.305 35.3903 828.978 L29.9795 828.978 Q28.7381 825.763 28.1334 822.74 Q27.4968 819.716 27.4968 816.852 Q27.4968 809.117 31.5072 805.298 Q35.5176 801.478 43.6657 801.478 Z" fill="#000000" fill-rule="evenodd" fill-opacity="1" /><path clip-path="url(#clip250)" d="M14.479 789.415 L14.479 783.559 L64.0042 783.559 L64.0042 789.415 L14.479 789.415 Z" fill="#000000" fill-rule="evenodd" fill-opacity="1" /><path clip-path="url(#clip250)" d="M46.0847 755.104 Q46.0847 762.202 47.7079 764.939 Q49.3312 767.676 53.2461 767.676 Q56.3653 767.676 58.2114 765.639 Q60.0256 763.571 60.0256 760.038 Q60.0256 755.168 56.5881 752.24 Q53.1188 749.28 47.3897 749.28 L46.0847 749.28 L46.0847 755.104 M43.6657 743.423 L64.0042 743.423 L64.0042 749.28 L58.5933 749.28 Q61.8398 751.285 63.3994 754.277 Q64.9272 757.268 64.9272 761.597 Q64.9272 767.072 61.8716 770.318 Q58.7843 773.533 53.6281 773.533 Q47.6125 773.533 44.5569 769.522 Q41.5014 765.48 41.5014 757.491 L41.5014 749.28 L40.9285 749.28 Q36.8862 749.28 34.6901 751.953 Q32.4621 754.595 32.4621 759.401 Q32.4621 762.457 33.1941 765.353 Q33.9262 768.249 35.3903 770.923 L29.9795 770.923 Q28.7381 767.708 28.1334 764.685 Q27.4968 761.661 27.4968 758.796 Q27.4968 751.062 31.5072 747.243 Q35.5176 743.423 43.6657 743.423 Z" fill="#000000" fill-rule="evenodd" fill-opacity="1" /><path clip-path="url(#clip250)" d="M33.8307 710.703 Q33.2578 711.69 33.0032 712.868 Q32.7167 714.014 32.7167 715.414 Q32.7167 720.379 35.9632 723.053 Q39.1779 725.695 45.2253 725.695 L64.0042 725.695 L64.0042 731.583 L28.3562 731.583 L28.3562 725.695 L33.8944 725.695 Q30.6479 723.849 29.0883 720.888 Q27.4968 717.928 27.4968 713.695 Q27.4968 713.09 27.5923 712.358 Q27.656 711.626 27.8151 710.735 L33.8307 710.703 Z" fill="#000000" fill-rule="evenodd" fill-opacity="1" /><path clip-path="url(#clip250)" d="M67.3143 689.728 Q73.68 692.211 75.6216 694.566 Q77.5631 696.922 77.5631 700.868 L77.5631 705.547 L72.6615 705.547 L72.6615 702.11 Q72.6615 699.691 71.5157 698.354 Q70.3699 697.017 66.1048 695.394 L63.4312 694.343 L28.3562 708.762 L28.3562 702.555 L56.238 691.415 L28.3562 680.275 L28.3562 674.069 L67.3143 689.728 Z" fill="#000000" fill-rule="evenodd" fill-opacity="1" /><path clip-path="url(#clip250)" d="M687.07 14.0809 L687.07 22.0612 Q682.411 19.8332 678.279 18.7395 Q674.147 17.6457 670.299 17.6457 Q663.615 17.6457 659.969 20.2383 Q656.364 22.8309 656.364 27.611 Q656.364 31.6214 658.754 33.6873 Q661.184 35.7128 667.909 36.9686 L672.851 37.9813 Q682.006 39.7232 686.34 44.1387 Q690.715 48.5136 690.715 55.8863 Q690.715 64.6767 684.801 69.2137 Q678.927 73.7508 667.544 73.7508 Q663.25 73.7508 658.389 72.7785 Q653.569 71.8063 648.383 69.9024 L648.383 61.4765 Q653.366 64.2716 658.146 65.6895 Q662.926 67.1073 667.544 67.1073 Q674.552 67.1073 678.36 64.3527 Q682.168 61.598 682.168 56.4939 Q682.168 52.0379 679.413 49.5264 Q676.699 47.0148 670.461 45.759 L665.478 44.7868 Q656.323 42.9639 652.232 39.075 Q648.14 35.1862 648.14 28.2591 Q648.14 20.2383 653.771 15.6203 Q659.442 11.0023 669.367 11.0023 Q673.621 11.0023 678.036 11.7719 Q682.451 12.5416 687.07 14.0809 Z" fill="#000000" fill-rule="evenodd" fill-opacity="1" /><path clip-path="url(#clip250)" d="M723.771 49.7694 Q714.737 49.7694 711.253 51.8354 Q707.77 53.9013 707.77 58.8839 Q707.77 62.8538 710.362 65.2034 Q712.995 67.5124 717.492 67.5124 Q723.69 67.5124 727.417 63.1374 Q731.184 58.7219 731.184 51.4303 L731.184 49.7694 L723.771 49.7694 M738.638 46.6907 L738.638 72.576 L731.184 72.576 L731.184 65.6895 Q728.632 69.8214 724.824 71.8063 Q721.016 73.7508 715.507 73.7508 Q708.539 73.7508 704.407 69.8619 Q700.316 65.9325 700.316 59.3701 Q700.316 51.7138 705.42 47.825 Q710.565 43.9361 720.733 43.9361 L731.184 43.9361 L731.184 43.2069 Q731.184 38.0623 727.781 35.2672 Q724.419 32.4315 718.302 32.4315 Q714.413 32.4315 710.727 33.3632 Q707.04 34.295 703.638 36.1584 L703.638 29.2718 Q707.729 27.692 711.577 26.9223 Q715.426 26.1121 719.072 26.1121 Q728.915 26.1121 733.776 31.2163 Q738.638 36.3204 738.638 46.6907 Z" fill="#000000" fill-rule="evenodd" fill-opacity="1" /><path clip-path="url(#clip250)" d="M753.99 9.54393 L761.444 9.54393 L761.444 72.576 L753.99 72.576 L753.99 9.54393 Z" fill="#000000" fill-rule="evenodd" fill-opacity="1" /><path clip-path="url(#clip250)" d="M797.659 49.7694 Q788.626 49.7694 785.142 51.8354 Q781.658 53.9013 781.658 58.8839 Q781.658 62.8538 784.251 65.2034 Q786.884 67.5124 791.38 67.5124 Q797.578 67.5124 801.305 63.1374 Q805.072 58.7219 805.072 51.4303 L805.072 49.7694 L797.659 49.7694 M812.526 46.6907 L812.526 72.576 L805.072 72.576 L805.072 65.6895 Q802.52 69.8214 798.712 71.8063 Q794.905 73.7508 789.395 73.7508 Q782.428 73.7508 778.296 69.8619 Q774.204 65.9325 774.204 59.3701 Q774.204 51.7138 779.309 47.825 Q784.453 43.9361 794.621 43.9361 L805.072 43.9361 L805.072 43.2069 Q805.072 38.0623 801.67 35.2672 Q798.307 32.4315 792.19 32.4315 Q788.302 32.4315 784.615 33.3632 Q780.929 34.295 777.526 36.1584 L777.526 29.2718 Q781.618 27.692 785.466 26.9223 Q789.314 26.1121 792.96 26.1121 Q802.804 26.1121 807.665 31.2163 Q812.526 36.3204 812.526 46.6907 Z" fill="#000000" fill-rule="evenodd" fill-opacity="1" /><path clip-path="url(#clip250)" d="M854.169 34.1734 Q852.914 33.4443 851.415 33.1202 Q849.956 32.7556 848.174 32.7556 Q841.855 32.7556 838.452 36.8875 Q835.09 40.9789 835.09 48.6757 L835.09 72.576 L827.595 72.576 L827.595 27.2059 L835.09 27.2059 L835.09 34.2544 Q837.439 30.1225 841.206 28.1376 Q844.974 26.1121 850.361 26.1121 Q851.131 26.1121 852.063 26.2337 Q852.995 26.3147 854.129 26.5172 L854.169 34.1734 Z" fill="#000000" fill-rule="evenodd" fill-opacity="1" /><path clip-path="url(#clip250)" d="M880.865 76.7889 Q877.705 84.8907 874.707 87.3618 Q871.71 89.8329 866.687 89.8329 L860.732 89.8329 L860.732 83.5945 L865.107 83.5945 Q868.185 83.5945 869.887 82.1361 Q871.588 80.6778 873.654 75.2496 L874.991 71.8468 L856.64 27.2059 L864.54 27.2059 L878.718 62.6918 L892.896 27.2059 L900.795 27.2059 L880.865 76.7889 Z" fill="#000000" fill-rule="evenodd" fill-opacity="1" /><path clip-path="url(#clip250)" d="M932.109 27.2059 L940.008 27.2059 L954.186 65.2844 L968.364 27.2059 L976.264 27.2059 L959.25 72.576 L949.122 72.576 L932.109 27.2059 Z" fill="#000000" fill-rule="evenodd" fill-opacity="1" /><path clip-path="url(#clip250)" d="M1015.48 28.5427 L1015.48 35.5912 Q1012.32 33.9709 1008.91 33.1607 Q1005.51 32.3505 1001.87 32.3505 Q996.316 32.3505 993.52 34.0519 Q990.766 35.7533 990.766 39.156 Q990.766 41.7486 992.751 43.2475 Q994.736 44.7058 1000.73 46.0426 L1003.28 46.6097 Q1011.22 48.3111 1014.54 51.4303 Q1017.91 54.509 1017.91 60.0587 Q1017.91 66.3781 1012.88 70.0644 Q1007.9 73.7508 999.151 73.7508 Q995.505 73.7508 991.535 73.0216 Q987.606 72.3329 983.231 70.9151 L983.231 63.2184 Q987.363 65.3654 991.373 66.4591 Q995.384 67.5124 999.313 67.5124 Q1004.58 67.5124 1007.42 65.73 Q1010.25 63.9071 1010.25 60.6258 Q1010.25 57.5877 1008.18 55.9673 Q1006.16 54.3469 999.232 52.8481 L996.64 52.2405 Q989.713 50.7821 986.634 47.7845 Q983.555 44.7463 983.555 39.4801 Q983.555 33.0797 988.092 29.5959 Q992.629 26.1121 1000.97 26.1121 Q1005.11 26.1121 1008.75 26.7198 Q1012.4 27.3274 1015.48 28.5427 Z" fill="#000000" fill-rule="evenodd" fill-opacity="1" /><path clip-path="url(#clip250)" d="M1056.47 12.096 L1094.71 12.096 L1094.71 18.9825 L1064.65 18.9825 L1064.65 36.8875 L1093.46 36.8875 L1093.46 43.7741 L1064.65 43.7741 L1064.65 65.6895 L1095.44 65.6895 L1095.44 72.576 L1056.47 72.576 L1056.47 12.096 Z" fill="#000000" fill-rule="evenodd" fill-opacity="1" /><path clip-path="url(#clip250)" d="M1146.28 27.2059 L1129.87 49.2833 L1147.13 72.576 L1138.34 72.576 L1125.13 54.752 L1111.93 72.576 L1103.14 72.576 L1120.76 48.8377 L1104.64 27.2059 L1113.43 27.2059 L1125.46 43.369 L1137.49 27.2059 L1146.28 27.2059 Z" fill="#000000" fill-rule="evenodd" fill-opacity="1" /><path clip-path="url(#clip250)" d="M1164.87 65.7705 L1164.87 89.8329 L1157.38 89.8329 L1157.38 27.2059 L1164.87 27.2059 L1164.87 34.0924 Q1167.22 30.0415 1170.79 28.0971 Q1174.39 26.1121 1179.38 26.1121 Q1187.64 26.1121 1192.78 32.6746 Q1197.97 39.2371 1197.97 49.9314 Q1197.97 60.6258 1192.78 67.1883 Q1187.64 73.7508 1179.38 73.7508 Q1174.39 73.7508 1170.79 71.8063 Q1167.22 69.8214 1164.87 65.7705 M1190.23 49.9314 Q1190.23 41.7081 1186.83 37.0496 Q1183.47 32.3505 1177.55 32.3505 Q1171.64 32.3505 1168.24 37.0496 Q1164.87 41.7081 1164.87 49.9314 Q1164.87 58.1548 1168.24 62.8538 Q1171.64 67.5124 1177.55 67.5124 Q1183.47 67.5124 1186.83 62.8538 Q1190.23 58.1548 1190.23 49.9314 Z" fill="#000000" fill-rule="evenodd" fill-opacity="1" /><path clip-path="url(#clip250)" d="M1249.13 48.0275 L1249.13 51.6733 L1214.86 51.6733 Q1215.35 59.3701 1219.48 63.421 Q1223.65 67.4314 1231.07 67.4314 Q1235.36 67.4314 1239.37 66.3781 Q1243.42 65.3249 1247.39 63.2184 L1247.39 70.267 Q1243.38 71.9684 1239.17 72.8596 Q1234.95 73.7508 1230.62 73.7508 Q1219.76 73.7508 1213.4 67.4314 Q1207.08 61.1119 1207.08 50.3365 Q1207.08 39.1965 1213.08 32.6746 Q1219.12 26.1121 1229.32 26.1121 Q1238.48 26.1121 1243.79 32.0264 Q1249.13 37.9003 1249.13 48.0275 M1241.68 45.84 Q1241.6 39.7232 1238.24 36.0774 Q1234.91 32.4315 1229.4 32.4315 Q1223.17 32.4315 1219.4 35.9558 Q1215.67 39.4801 1215.1 45.8805 L1241.68 45.84 Z" fill="#000000" fill-rule="evenodd" fill-opacity="1" /><path clip-path="url(#clip250)" d="M1287.66 34.1734 Q1286.4 33.4443 1284.9 33.1202 Q1283.44 32.7556 1281.66 32.7556 Q1275.34 32.7556 1271.94 36.8875 Q1268.58 40.9789 1268.58 48.6757 L1268.58 72.576 L1261.08 72.576 L1261.08 27.2059 L1268.58 27.2059 L1268.58 34.2544 Q1270.93 30.1225 1274.69 28.1376 Q1278.46 26.1121 1283.85 26.1121 Q1284.62 26.1121 1285.55 26.2337 Q1286.48 26.3147 1287.62 26.5172 L1287.66 34.1734 Z" fill="#000000" fill-rule="evenodd" fill-opacity="1" /><path clip-path="url(#clip250)" d="M1295.47 27.2059 L1302.93 27.2059 L1302.93 72.576 L1295.47 72.576 L1295.47 27.2059 M1295.47 9.54393 L1302.93 9.54393 L1302.93 18.9825 L1295.47 18.9825 L1295.47 9.54393 Z" fill="#000000" fill-rule="evenodd" fill-opacity="1" /><path clip-path="url(#clip250)" d="M1357.33 48.0275 L1357.33 51.6733 L1323.06 51.6733 Q1323.55 59.3701 1327.68 63.421 Q1331.85 67.4314 1339.27 67.4314 Q1343.56 67.4314 1347.57 66.3781 Q1351.62 65.3249 1355.59 63.2184 L1355.59 70.267 Q1351.58 71.9684 1347.37 72.8596 Q1343.15 73.7508 1338.82 73.7508 Q1327.96 73.7508 1321.6 67.4314 Q1315.28 61.1119 1315.28 50.3365 Q1315.28 39.1965 1321.28 32.6746 Q1327.31 26.1121 1337.52 26.1121 Q1346.68 26.1121 1351.98 32.0264 Q1357.33 37.9003 1357.33 48.0275 M1349.88 45.84 Q1349.8 39.7232 1346.44 36.0774 Q1343.11 32.4315 1337.6 32.4315 Q1331.37 32.4315 1327.6 35.9558 Q1323.87 39.4801 1323.3 45.8805 L1349.88 45.84 Z" fill="#000000" fill-rule="evenodd" fill-opacity="1" /><path clip-path="url(#clip250)" d="M1407.28 45.1919 L1407.28 72.576 L1399.83 72.576 L1399.83 45.4349 Q1399.83 38.994 1397.31 35.7938 Q1394.8 32.5936 1389.78 32.5936 Q1383.74 32.5936 1380.26 36.4419 Q1376.78 40.2903 1376.78 46.9338 L1376.78 72.576 L1369.28 72.576 L1369.28 27.2059 L1376.78 27.2059 L1376.78 34.2544 Q1379.45 30.163 1383.06 28.1376 Q1386.7 26.1121 1391.44 26.1121 Q1399.26 26.1121 1403.27 30.9732 Q1407.28 35.7938 1407.28 45.1919 Z" fill="#000000" fill-rule="evenodd" fill-opacity="1" /><path clip-path="url(#clip250)" d="M1454.8 28.9478 L1454.8 35.9153 Q1451.64 34.1734 1448.44 33.3227 Q1445.28 32.4315 1442.04 32.4315 Q1434.79 32.4315 1430.78 37.0496 Q1426.76 41.6271 1426.76 49.9314 Q1426.76 58.2358 1430.78 62.8538 Q1434.79 67.4314 1442.04 67.4314 Q1445.28 67.4314 1448.44 66.5807 Q1451.64 65.6895 1454.8 63.9476 L1454.8 70.8341 Q1451.68 72.2924 1448.32 73.0216 Q1444.99 73.7508 1441.23 73.7508 Q1430.98 73.7508 1424.94 67.3098 Q1418.91 60.8689 1418.91 49.9314 Q1418.91 38.832 1424.98 32.472 Q1431.1 26.1121 1441.71 26.1121 Q1445.16 26.1121 1448.44 26.8413 Q1451.72 27.5299 1454.8 28.9478 Z" fill="#000000" fill-rule="evenodd" fill-opacity="1" /><path clip-path="url(#clip250)" d="M1506.57 48.0275 L1506.57 51.6733 L1472.3 51.6733 Q1472.78 59.3701 1476.91 63.421 Q1481.09 67.4314 1488.5 67.4314 Q1492.79 67.4314 1496.8 66.3781 Q1500.86 65.3249 1504.83 63.2184 L1504.83 70.267 Q1500.82 71.9684 1496.6 72.8596 Q1492.39 73.7508 1488.05 73.7508 Q1477.2 73.7508 1470.84 67.4314 Q1464.52 61.1119 1464.52 50.3365 Q1464.52 39.1965 1470.51 32.6746 Q1476.55 26.1121 1486.76 26.1121 Q1495.91 26.1121 1501.22 32.0264 Q1506.57 37.9003 1506.57 48.0275 M1499.11 45.84 Q1499.03 39.7232 1495.67 36.0774 Q1492.35 32.4315 1486.84 32.4315 Q1480.6 32.4315 1476.83 35.9558 Q1473.11 39.4801 1472.54 45.8805 L1499.11 45.84 Z" fill="#000000" fill-rule="evenodd" fill-opacity="1" /><path clip-path="url(#clip250)" d="M1563.08 9.62495 Q1557.65 18.942 1555.02 28.0566 Q1552.38 37.1711 1552.38 46.5287 Q1552.38 55.8863 1555.02 65.0818 Q1557.69 74.2369 1563.08 83.5134 L1556.6 83.5134 Q1550.52 73.9938 1547.48 64.7983 Q1544.48 55.6027 1544.48 46.5287 Q1544.48 37.4952 1547.48 28.3401 Q1550.48 19.1851 1556.6 9.62495 L1563.08 9.62495 Z" fill="#000000" fill-rule="evenodd" fill-opacity="1" /><path clip-path="url(#clip250)" d="M1569.48 12.096 L1620.64 12.096 L1620.64 18.9825 L1599.17 18.9825 L1599.17 72.576 L1590.95 72.576 L1590.95 18.9825 L1569.48 18.9825 L1569.48 12.096 Z" fill="#000000" fill-rule="evenodd" fill-opacity="1" /><path clip-path="url(#clip250)" d="M1642.31 34.1734 Q1641.06 33.4443 1639.56 33.1202 Q1638.1 32.7556 1636.32 32.7556 Q1630 32.7556 1626.6 36.8875 Q1623.23 40.9789 1623.23 48.6757 L1623.23 72.576 L1615.74 72.576 L1615.74 27.2059 L1623.23 27.2059 L1623.23 34.2544 Q1625.58 30.1225 1629.35 28.1376 Q1633.12 26.1121 1638.51 26.1121 Q1639.28 26.1121 1640.21 26.2337 Q1641.14 26.3147 1642.27 26.5172 L1642.31 34.1734 Z" fill="#000000" fill-rule="evenodd" fill-opacity="1" /><path clip-path="url(#clip250)" d="M1670.75 49.7694 Q1661.72 49.7694 1658.23 51.8354 Q1654.75 53.9013 1654.75 58.8839 Q1654.75 62.8538 1657.34 65.2034 Q1659.98 67.5124 1664.47 67.5124 Q1670.67 67.5124 1674.4 63.1374 Q1678.16 58.7219 1678.16 51.4303 L1678.16 49.7694 L1670.75 49.7694 M1685.62 46.6907 L1685.62 72.576 L1678.16 72.576 L1678.16 65.6895 Q1675.61 69.8214 1671.8 71.8063 Q1668 73.7508 1662.49 73.7508 Q1655.52 73.7508 1651.39 69.8619 Q1647.3 65.9325 1647.3 59.3701 Q1647.3 51.7138 1652.4 47.825 Q1657.54 43.9361 1667.71 43.9361 L1678.16 43.9361 L1678.16 43.2069 Q1678.16 38.0623 1674.76 35.2672 Q1671.4 32.4315 1665.28 32.4315 Q1661.39 32.4315 1657.71 33.3632 Q1654.02 34.295 1650.62 36.1584 L1650.62 29.2718 Q1654.71 27.692 1658.56 26.9223 Q1662.41 26.1121 1666.05 26.1121 Q1675.9 26.1121 1680.76 31.2163 Q1685.62 36.3204 1685.62 46.6907 Z" fill="#000000" fill-rule="evenodd" fill-opacity="1" /><path clip-path="url(#clip250)" d="M1700.97 27.2059 L1708.42 27.2059 L1708.42 72.576 L1700.97 72.576 L1700.97 27.2059 M1700.97 9.54393 L1708.42 9.54393 L1708.42 18.9825 L1700.97 18.9825 L1700.97 9.54393 Z" fill="#000000" fill-rule="evenodd" fill-opacity="1" /><path clip-path="url(#clip250)" d="M1761.73 45.1919 L1761.73 72.576 L1754.28 72.576 L1754.28 45.4349 Q1754.28 38.994 1751.77 35.7938 Q1749.26 32.5936 1744.23 32.5936 Q1738.2 32.5936 1734.71 36.4419 Q1731.23 40.2903 1731.23 46.9338 L1731.23 72.576 L1723.74 72.576 L1723.74 27.2059 L1731.23 27.2059 L1731.23 34.2544 Q1733.9 30.163 1737.51 28.1376 Q1741.16 26.1121 1745.89 26.1121 Q1753.71 26.1121 1757.72 30.9732 Q1761.73 35.7938 1761.73 45.1919 Z" fill="#000000" fill-rule="evenodd" fill-opacity="1" /><path clip-path="url(#clip250)" d="M1776.6 27.2059 L1784.05 27.2059 L1784.05 72.576 L1776.6 72.576 L1776.6 27.2059 M1776.6 9.54393 L1784.05 9.54393 L1784.05 18.9825 L1776.6 18.9825 L1776.6 9.54393 Z" fill="#000000" fill-rule="evenodd" fill-opacity="1" /><path clip-path="url(#clip250)" d="M1837.36 45.1919 L1837.36 72.576 L1829.91 72.576 L1829.91 45.4349 Q1829.91 38.994 1827.4 35.7938 Q1824.89 32.5936 1819.86 32.5936 Q1813.83 32.5936 1810.34 36.4419 Q1806.86 40.2903 1806.86 46.9338 L1806.86 72.576 L1799.37 72.576 L1799.37 27.2059 L1806.86 27.2059 L1806.86 34.2544 Q1809.53 30.163 1813.14 28.1376 Q1816.79 26.1121 1821.53 26.1121 Q1829.34 26.1121 1833.35 30.9732 Q1837.36 35.7938 1837.36 45.1919 Z" fill="#000000" fill-rule="evenodd" fill-opacity="1" /><path clip-path="url(#clip250)" d="M1882.09 49.3643 Q1882.09 41.2625 1878.72 36.8065 Q1875.4 32.3505 1869.37 32.3505 Q1863.37 32.3505 1860.01 36.8065 Q1856.69 41.2625 1856.69 49.3643 Q1856.69 57.4256 1860.01 61.8816 Q1863.37 66.3376 1869.37 66.3376 Q1875.4 66.3376 1878.72 61.8816 Q1882.09 57.4256 1882.09 49.3643 M1889.54 66.9452 Q1889.54 78.5308 1884.4 84.1616 Q1879.25 89.8329 1868.64 89.8329 Q1864.71 89.8329 1861.22 89.2252 Q1857.74 88.6581 1854.46 87.4428 L1854.46 80.1917 Q1857.74 81.9741 1860.94 82.8248 Q1864.14 83.6755 1867.46 83.6755 Q1874.79 83.6755 1878.44 79.8271 Q1882.09 76.0193 1882.09 68.282 L1882.09 64.5957 Q1879.78 68.6061 1876.17 70.5911 Q1872.57 72.576 1867.54 72.576 Q1859.2 72.576 1854.09 66.2161 Q1848.99 59.8562 1848.99 49.3643 Q1848.99 38.832 1854.09 32.472 Q1859.2 26.1121 1867.54 26.1121 Q1872.57 26.1121 1876.17 28.0971 Q1879.78 30.082 1882.09 34.0924 L1882.09 27.2059 L1889.54 27.2059 L1889.54 66.9452 Z" fill="#000000" fill-rule="evenodd" fill-opacity="1" /><path clip-path="url(#clip250)" d="M1960.19 28.5427 L1960.19 35.5912 Q1957.03 33.9709 1953.63 33.1607 Q1950.22 32.3505 1946.58 32.3505 Q1941.03 32.3505 1938.23 34.0519 Q1935.48 35.7533 1935.48 39.156 Q1935.48 41.7486 1937.46 43.2475 Q1939.45 44.7058 1945.44 46.0426 L1947.99 46.6097 Q1955.93 48.3111 1959.26 51.4303 Q1962.62 54.509 1962.62 60.0587 Q1962.62 66.3781 1957.6 70.0644 Q1952.61 73.7508 1943.86 73.7508 Q1940.22 73.7508 1936.25 73.0216 Q1932.32 72.3329 1927.94 70.9151 L1927.94 63.2184 Q1932.07 65.3654 1936.08 66.4591 Q1940.1 67.5124 1944.02 67.5124 Q1949.29 67.5124 1952.13 65.73 Q1954.96 63.9071 1954.96 60.6258 Q1954.96 57.5877 1952.9 55.9673 Q1950.87 54.3469 1943.94 52.8481 L1941.35 52.2405 Q1934.42 50.7821 1931.35 47.7845 Q1928.27 44.7463 1928.27 39.4801 Q1928.27 33.0797 1932.8 29.5959 Q1937.34 26.1121 1945.69 26.1121 Q1949.82 26.1121 1953.46 26.7198 Q1957.11 27.3274 1960.19 28.5427 Z" fill="#000000" fill-rule="evenodd" fill-opacity="1" /><path clip-path="url(#clip250)" d="M2013.3 48.0275 L2013.3 51.6733 L1979.02 51.6733 Q1979.51 59.3701 1983.64 63.421 Q1987.81 67.4314 1995.23 67.4314 Q1999.52 67.4314 2003.53 66.3781 Q2007.58 65.3249 2011.55 63.2184 L2011.55 70.267 Q2007.54 71.9684 2003.33 72.8596 Q1999.12 73.7508 1994.78 73.7508 Q1983.93 73.7508 1977.57 67.4314 Q1971.25 61.1119 1971.25 50.3365 Q1971.25 39.1965 1977.24 32.6746 Q1983.28 26.1121 1993.49 26.1121 Q2002.64 26.1121 2007.95 32.0264 Q2013.3 37.9003 2013.3 48.0275 M2005.84 45.84 Q2005.76 39.7232 2002.4 36.0774 Q1999.08 32.4315 1993.57 32.4315 Q1987.33 32.4315 1983.56 35.9558 Q1979.83 39.4801 1979.27 45.8805 L2005.84 45.84 Z" fill="#000000" fill-rule="evenodd" fill-opacity="1" /><path clip-path="url(#clip250)" d="M2032.9 14.324 L2032.9 27.2059 L2048.25 27.2059 L2048.25 32.9987 L2032.9 32.9987 L2032.9 57.6282 Q2032.9 63.1779 2034.4 64.7578 Q2035.94 66.3376 2040.6 66.3376 L2048.25 66.3376 L2048.25 72.576 L2040.6 72.576 Q2031.97 72.576 2028.69 69.3758 Q2025.41 66.1351 2025.41 57.6282 L2025.41 32.9987 L2019.94 32.9987 L2019.94 27.2059 L2025.41 27.2059 L2025.41 14.324 L2032.9 14.324 Z" fill="#000000" fill-rule="evenodd" fill-opacity="1" /><path clip-path="url(#clip250)" d="M2056.88 9.62495 L2063.36 9.62495 Q2069.44 19.1851 2072.44 28.3401 Q2075.48 37.4952 2075.48 46.5287 Q2075.48 55.6027 2072.44 64.7983 Q2069.44 73.9938 2063.36 83.5134 L2056.88 83.5134 Q2062.27 74.2369 2064.9 65.0818 Q2067.58 55.8863 2067.58 46.5287 Q2067.58 37.1711 2064.9 28.0566 Q2062.27 18.942 2056.88 9.62495 Z" fill="#000000" fill-rule="evenodd" fill-opacity="1" /><circle clip-path="url(#clip252)" cx="2097.76" cy="271.342" r="14" fill="#009af9" fill-rule="evenodd" fill-opacity="1" stroke="#000000" stroke-opacity="1" stroke-width="3.2"/>
<circle clip-path="url(#clip252)" cx="605.967" cy="1285.11" r="14" fill="#009af9" fill-rule="evenodd" fill-opacity="1" stroke="#000000" stroke-opacity="1" stroke-width="3.2"/>
<circle clip-path="url(#clip252)" cx="1938.63" cy="375.391" r="14" fill="#009af9" fill-rule="evenodd" fill-opacity="1" stroke="#000000" stroke-opacity="1" stroke-width="3.2"/>
<circle clip-path="url(#clip252)" cx="1779.51" cy="487.598" r="14" fill="#009af9" fill-rule="evenodd" fill-opacity="1" stroke="#000000" stroke-opacity="1" stroke-width="3.2"/>
<circle clip-path="url(#clip252)" cx="1839.18" cy="314.919" r="14" fill="#009af9" fill-rule="evenodd" fill-opacity="1" stroke="#000000" stroke-opacity="1" stroke-width="3.2"/>
<circle clip-path="url(#clip252)" cx="645.748" cy="1335.27" r="14" fill="#009af9" fill-rule="evenodd" fill-opacity="1" stroke="#000000" stroke-opacity="1" stroke-width="3.2"/>
<circle clip-path="url(#clip252)" cx="506.514" cy="1365.09" r="14" fill="#009af9" fill-rule="evenodd" fill-opacity="1" stroke="#000000" stroke-opacity="1" stroke-width="3.2"/>
<circle clip-path="url(#clip252)" cx="1998.31" cy="428.52" r="14" fill="#009af9" fill-rule="evenodd" fill-opacity="1" stroke="#000000" stroke-opacity="1" stroke-width="3.2"/>
<circle clip-path="url(#clip252)" cx="804.873" cy="1055.63" r="14" fill="#009af9" fill-rule="evenodd" fill-opacity="1" stroke="#000000" stroke-opacity="1" stroke-width="3.2"/>
<circle clip-path="url(#clip252)" cx="1381.7" cy="762.821" r="14" fill="#009af9" fill-rule="evenodd" fill-opacity="1" stroke="#000000" stroke-opacity="1" stroke-width="3.2"/>
<circle clip-path="url(#clip252)" cx="1023.67" cy="1097.99" r="14" fill="#009af9" fill-rule="evenodd" fill-opacity="1" stroke="#000000" stroke-opacity="1" stroke-width="3.2"/>
<circle clip-path="url(#clip252)" cx="844.654" cy="1134.38" r="14" fill="#009af9" fill-rule="evenodd" fill-opacity="1" stroke="#000000" stroke-opacity="1" stroke-width="3.2"/>
<circle clip-path="url(#clip252)" cx="2117.65" cy="331.166" r="14" fill="#009af9" fill-rule="evenodd" fill-opacity="1" stroke="#000000" stroke-opacity="1" stroke-width="3.2"/>
<circle clip-path="url(#clip252)" cx="466.733" cy="1248.12" r="14" fill="#009af9" fill-rule="evenodd" fill-opacity="1" stroke="#000000" stroke-opacity="1" stroke-width="3.2"/>
<circle clip-path="url(#clip252)" cx="1222.57" cy="974.481" r="14" fill="#009af9" fill-rule="evenodd" fill-opacity="1" stroke="#000000" stroke-opacity="1" stroke-width="3.2"/>
<circle clip-path="url(#clip252)" cx="426.952" cy="1342.83" r="14" fill="#009af9" fill-rule="evenodd" fill-opacity="1" stroke="#000000" stroke-opacity="1" stroke-width="3.2"/>
<circle clip-path="url(#clip252)" cx="1182.79" cy="948.13" r="14" fill="#009af9" fill-rule="evenodd" fill-opacity="1" stroke="#000000" stroke-opacity="1" stroke-width="3.2"/>
<circle clip-path="url(#clip252)" cx="2296.66" cy="203.665" r="14" fill="#009af9" fill-rule="evenodd" fill-opacity="1" stroke="#000000" stroke-opacity="1" stroke-width="3.2"/>
<circle clip-path="url(#clip252)" cx="2256.88" cy="196.501" r="14" fill="#009af9" fill-rule="evenodd" fill-opacity="1" stroke="#000000" stroke-opacity="1" stroke-width="3.2"/>
<circle clip-path="url(#clip252)" cx="944.107" cy="1096.5" r="14" fill="#009af9" fill-rule="evenodd" fill-opacity="1" stroke="#000000" stroke-opacity="1" stroke-width="3.2"/>
<circle clip-path="url(#clip252)" cx="844.654" cy="996.345" r="14" fill="#009af9" fill-rule="evenodd" fill-opacity="1" stroke="#000000" stroke-opacity="1" stroke-width="3.2"/>
<circle clip-path="url(#clip252)" cx="1003.78" cy="1099.7" r="14" fill="#009af9" fill-rule="evenodd" fill-opacity="1" stroke="#000000" stroke-opacity="1" stroke-width="3.2"/>
<circle clip-path="url(#clip252)" cx="1003.78" cy="1115.76" r="14" fill="#009af9" fill-rule="evenodd" fill-opacity="1" stroke="#000000" stroke-opacity="1" stroke-width="3.2"/>
<circle clip-path="url(#clip252)" cx="784.982" cy="1104.05" r="14" fill="#009af9" fill-rule="evenodd" fill-opacity="1" stroke="#000000" stroke-opacity="1" stroke-width="3.2"/>
<polyline clip-path="url(#clip252)" style="stroke:#e26f46; stroke-linecap:butt; stroke-linejoin:round; stroke-width:4; stroke-opacity:1; fill:none" points="
  426.952,1386.4 466.733,1360.31 506.514,1334.22 605.967,1269 645.748,1242.91 784.982,1151.6 804.873,1138.56 844.654,1112.47 944.107,1047.25 
  983.888,1021.16 1003.78,1008.12 1023.67,995.075 1103.23,942.898 1182.79,890.722 1222.57,864.634 1262.36,838.546 1381.7,760.282 1401.59,747.238 
  1560.71,642.886 1620.39,603.754 1779.51,499.401 1839.18,460.269 1938.63,395.049 1998.31,355.917 2097.76,290.697 2117.65,277.653 2256.88,186.344 2296.66,160.256 
  
  "/>
<polyline clip-path="url(#clip252)" style="stroke:#3da44d; stroke-linecap:butt; stroke-linejoin:round; stroke-width:4; stroke-opacity:1; fill:none" stroke-dasharray="16, 10" points="
  426.952,1386.4 466.733,1360.31 506.514,1334.22 605.967,1269 645.748,1242.91 784.982,1151.6 804.873,1138.56 844.654,1112.47 944.107,1047.25 
  983.888,1021.16 1003.78,1008.12 1023.67,995.075 1103.23,942.898 1182.79,890.722 1222.57,864.634 1262.36,838.546 1381.7,760.282 1401.59,747.238 
  1560.71,642.886 1620.39,603.754 1779.51,499.401 1839.18,460.269 1938.63,395.049 1998.31,355.917 2097.76,290.697 2117.65,277.653 2256.88,186.344 2296.66,160.256 
  
  "/>
<path clip-path="url(#clip250)" d="
M1993.68 374.156 L2286.69 374.156 L2286.69 166.796 L1993.68 166.796  Z
  " fill="#ffffff" fill-rule="evenodd" fill-opacity="1"/>
<polyline clip-path="url(#clip250)" style="stroke:#000000; stroke-linecap:butt; stroke-linejoin:round; stroke-width:4; stroke-opacity:1; fill:none" points="
  1993.68,374.156 2286.69,374.156 2286.69,166.796 1993.68,166.796 1993.68,374.156 
  "/>
<circle clip-path="url(#clip250)" cx="2089.68" cy="218.636" r="23" fill="#009af9" fill-rule="evenodd" fill-opacity="1" stroke="#000000" stroke-opacity="1" stroke-width="5.12"/>
<path clip-path="url(#clip250)" d="M2199.53 238.323 Q2197.72 242.953 2196.01 244.365 Q2194.29 245.777 2191.42 245.777 L2188.02 245.777 L2188.02 242.212 L2190.52 242.212 Q2192.28 242.212 2193.25 241.379 Q2194.23 240.545 2195.41 237.443 L2196.17 235.499 L2185.68 209.99 L2190.2 209.99 L2198.3 230.268 L2206.4 209.99 L2210.92 209.99 L2199.53 238.323 Z" fill="#000000" fill-rule="evenodd" fill-opacity="1" /><path clip-path="url(#clip250)" d="M2218.21 231.981 L2225.85 231.981 L2225.85 205.615 L2217.54 207.282 L2217.54 203.022 L2225.8 201.356 L2230.48 201.356 L2230.48 231.981 L2238.11 231.981 L2238.11 235.916 L2218.21 235.916 L2218.21 231.981 Z" fill="#000000" fill-rule="evenodd" fill-opacity="1" /><polyline clip-path="url(#clip250)" style="stroke:#e26f46; stroke-linecap:butt; stroke-linejoin:round; stroke-width:4; stroke-opacity:1; fill:none" points="
  2017.68,270.476 2161.68,270.476 
  "/>
<path clip-path="url(#clip250)" d="M2199.53 290.163 Q2197.72 294.793 2196.01 296.205 Q2194.29 297.617 2191.42 297.617 L2188.02 297.617 L2188.02 294.052 L2190.52 294.052 Q2192.28 294.052 2193.25 293.219 Q2194.23 292.385 2195.41 289.283 L2196.17 287.339 L2185.68 261.83 L2190.2 261.83 L2198.3 282.108 L2206.4 261.83 L2210.92 261.83 L2199.53 290.163 Z" fill="#000000" fill-rule="evenodd" fill-opacity="1" /><path clip-path="url(#clip250)" d="M2221.42 283.821 L2237.74 283.821 L2237.74 287.756 L2215.8 287.756 L2215.8 283.821 Q2218.46 281.066 2223.04 276.436 Q2227.65 271.784 2228.83 270.441 Q2231.08 267.918 2231.96 266.182 Q2232.86 264.423 2232.86 262.733 Q2232.86 259.978 2230.92 258.242 Q2228.99 256.506 2225.89 256.506 Q2223.69 256.506 2221.24 257.27 Q2218.81 258.034 2216.03 259.585 L2216.03 254.862 Q2218.85 253.728 2221.31 253.149 Q2223.76 252.571 2225.8 252.571 Q2231.17 252.571 2234.36 255.256 Q2237.56 257.941 2237.56 262.432 Q2237.56 264.561 2236.75 266.483 Q2235.96 268.381 2233.85 270.973 Q2233.28 271.645 2230.17 274.862 Q2227.07 278.057 2221.42 283.821 Z" fill="#000000" fill-rule="evenodd" fill-opacity="1" /><polyline clip-path="url(#clip250)" style="stroke:#3da44d; stroke-linecap:butt; stroke-linejoin:round; stroke-width:4; stroke-opacity:1; fill:none" stroke-dasharray="16, 10" points="
  2017.68,322.316 2161.68,322.316 
  "/>
<path clip-path="url(#clip250)" d="M2199.53 342.003 Q2197.72 346.633 2196.01 348.045 Q2194.29 349.457 2191.42 349.457 L2188.02 349.457 L2188.02 345.892 L2190.52 345.892 Q2192.28 345.892 2193.25 345.059 Q2194.23 344.225 2195.41 341.123 L2196.17 339.179 L2185.68 313.67 L2190.2 313.67 L2198.3 333.948 L2206.4 313.67 L2210.92 313.67 L2199.53 342.003 Z" fill="#000000" fill-rule="evenodd" fill-opacity="1" /><path clip-path="url(#clip250)" d="M2231.56 320.962 Q2234.92 321.679 2236.79 323.948 Q2238.69 326.216 2238.69 329.549 Q2238.69 334.665 2235.17 337.466 Q2231.66 340.267 2225.17 340.267 Q2223 340.267 2220.68 339.827 Q2218.39 339.411 2215.94 338.554 L2215.94 334.04 Q2217.88 335.174 2220.2 335.753 Q2222.51 336.332 2225.04 336.332 Q2229.43 336.332 2231.73 334.596 Q2234.04 332.86 2234.04 329.549 Q2234.04 326.494 2231.89 324.781 Q2229.76 323.045 2225.94 323.045 L2221.91 323.045 L2221.91 319.202 L2226.12 319.202 Q2229.57 319.202 2231.4 317.837 Q2233.23 316.448 2233.23 313.855 Q2233.23 311.193 2231.33 309.781 Q2229.46 308.346 2225.94 308.346 Q2224.02 308.346 2221.82 308.763 Q2219.62 309.179 2216.98 310.059 L2216.98 305.892 Q2219.64 305.151 2221.96 304.781 Q2224.29 304.411 2226.35 304.411 Q2231.68 304.411 2234.78 306.841 Q2237.88 309.249 2237.88 313.369 Q2237.88 316.239 2236.24 318.23 Q2234.6 320.198 2231.56 320.962 Z" fill="#000000" fill-rule="evenodd" fill-opacity="1" /></svg>
