<?xml version="1.0" encoding="utf-8"?>
<svg xmlns="http://www.w3.org/2000/svg" xmlns:xlink="http://www.w3.org/1999/xlink" width="600" height="400" viewBox="0 0 2400 1600">
<defs>
  <clipPath id="clip280">
    <rect x="0" y="0" width="2400" height="1600"/>
  </clipPath>
</defs>
<path clip-path="url(#clip280)" d="
M0 1600 L2400 1600 L2400 0 L0 0  Z
  " fill="#ffffff" fill-rule="evenodd" fill-opacity="1"/>
<defs>
  <clipPath id="clip281">
    <rect x="480" y="0" width="1681" height="1600"/>
  </clipPath>
</defs>
<path clip-path="url(#clip280)" d="
M307.593 1486.45 L2352.76 1486.45 L2352.76 47.2441 L307.593 47.2441  Z
  " fill="#ffffff" fill-rule="evenodd" fill-opacity="1"/>
<defs>
  <clipPath id="clip282">
    <rect x="307" y="47" width="2046" height="1440"/>
  </clipPath>
</defs>
<polyline clip-path="url(#clip282)" style="stroke:#000000; stroke-linecap:butt; stroke-linejoin:round; stroke-width:2; stroke-opacity:0.1; fill:none" points="
  550.204,1486.45 550.204,47.2441 
  "/>
<polyline clip-path="url(#clip282)" style="stroke:#000000; stroke-linecap:butt; stroke-linejoin:round; stroke-width:2; stroke-opacity:0.1; fill:none" points="
  960.715,1486.45 960.715,47.2441 
  "/>
<polyline clip-path="url(#clip282)" style="stroke:#000000; stroke-linecap:butt; stroke-linejoin:round; stroke-width:2; stroke-opacity:0.1; fill:none" points="
  1371.23,1486.45 1371.23,47.2441 
  "/>
<polyline clip-path="url(#clip282)" style="stroke:#000000; stroke-linecap:butt; stroke-linejoin:round; stroke-width:2; stroke-opacity:0.1; fill:none" points="
  1781.74,1486.45 1781.74,47.2441 
  "/>
<polyline clip-path="url(#clip282)" style="stroke:#000000; stroke-linecap:butt; stroke-linejoin:round; stroke-width:2; stroke-opacity:0.1; fill:none" points="
  2192.25,1486.45 2192.25,47.2441 
  "/>
<polyline clip-path="url(#clip280)" style="stroke:#000000; stroke-linecap:butt; stroke-linejoin:round; stroke-width:4; stroke-opacity:1; fill:none" points="
  307.593,1486.45 2352.76,1486.45 
  "/>
<polyline clip-path="url(#clip280)" style="stroke:#000000; stroke-linecap:butt; stroke-linejoin:round; stroke-width:4; stroke-opacity:1; fill:none" points="
  550.204,1486.45 550.204,1467.55 
  "/>
<polyline clip-path="url(#clip280)" style="stroke:#000000; stroke-linecap:butt; stroke-linejoin:round; stroke-width:4; stroke-opacity:1; fill:none" points="
  960.715,1486.45 960.715,1467.55 
  "/>
<polyline clip-path="url(#clip280)" style="stroke:#000000; stroke-linecap:butt; stroke-linejoin:round; stroke-width:4; stroke-opacity:1; fill:none" points="
  1371.23,1486.45 1371.23,1467.55 
  "/>
<polyline clip-path="url(#clip280)" style="stroke:#000000; stroke-linecap:butt; stroke-linejoin:round; stroke-width:4; stroke-opacity:1; fill:none" points="
  1781.74,1486.45 1781.74,1467.55 
  "/>
<polyline clip-path="url(#clip280)" style="stroke:#000000; stroke-linecap:butt; stroke-linejoin:round; stroke-width:4; stroke-opacity:1; fill:none" points="
  2192.25,1486.45 2192.25,1467.55 
  "/>
<path clip-path="url(#clip280)" d="M544.857 1544.91 L561.177 1544.91 L561.177 1548.85 L539.232 1548.85 L539.232 1544.91 Q541.894 1542.16 546.478 1537.53 Q551.084 1532.88 552.265 1531.53 Q554.51 1529.01 555.39 1527.27 Q556.292 1525.51 556.292 1523.82 Q556.292 1521.07 554.348 1519.33 Q552.427 1517.6 549.325 1517.6 Q547.126 1517.6 544.672 1518.36 Q542.242 1519.13 539.464 1520.68 L539.464 1515.95 Q542.288 1514.82 544.742 1514.24 Q547.195 1513.66 549.232 1513.66 Q554.603 1513.66 557.797 1516.35 Q560.991 1519.03 560.991 1523.52 Q560.991 1525.65 560.181 1527.57 Q559.394 1529.47 557.288 1532.07 Q556.709 1532.74 553.607 1535.95 Q550.505 1539.15 544.857 1544.91 Z" fill="#000000" fill-rule="evenodd" fill-opacity="1" /><path clip-path="url(#clip280)" d="M963.724 1518.36 L951.919 1536.81 L963.724 1536.81 L963.724 1518.36 M962.497 1514.29 L968.377 1514.29 L968.377 1536.81 L973.307 1536.81 L973.307 1540.7 L968.377 1540.7 L968.377 1548.85 L963.724 1548.85 L963.724 1540.7 L948.122 1540.7 L948.122 1536.19 L962.497 1514.29 Z" fill="#000000" fill-rule="evenodd" fill-opacity="1" /><path clip-path="url(#clip280)" d="M1371.63 1529.7 Q1368.48 1529.7 1366.63 1531.86 Q1364.8 1534.01 1364.8 1537.76 Q1364.8 1541.49 1366.63 1543.66 Q1368.48 1545.82 1371.63 1545.82 Q1374.78 1545.82 1376.61 1543.66 Q1378.46 1541.49 1378.46 1537.76 Q1378.46 1534.01 1376.61 1531.86 Q1374.78 1529.7 1371.63 1529.7 M1380.91 1515.05 L1380.91 1519.31 Q1379.15 1518.48 1377.35 1518.04 Q1375.57 1517.6 1373.81 1517.6 Q1369.18 1517.6 1366.72 1520.72 Q1364.29 1523.85 1363.95 1530.17 Q1365.31 1528.15 1367.37 1527.09 Q1369.43 1526 1371.91 1526 Q1377.12 1526 1380.13 1529.17 Q1383.16 1532.32 1383.16 1537.76 Q1383.16 1543.08 1380.01 1546.3 Q1376.86 1549.52 1371.63 1549.52 Q1365.64 1549.52 1362.46 1544.94 Q1359.29 1540.33 1359.29 1531.6 Q1359.29 1523.41 1363.18 1518.55 Q1367.07 1513.66 1373.62 1513.66 Q1375.38 1513.66 1377.16 1514.01 Q1378.97 1514.36 1380.91 1515.05 Z" fill="#000000" fill-rule="evenodd" fill-opacity="1" /><path clip-path="url(#clip280)" d="M1781.74 1532.44 Q1778.4 1532.44 1776.48 1534.22 Q1774.58 1536 1774.58 1539.13 Q1774.58 1542.25 1776.48 1544.03 Q1778.4 1545.82 1781.74 1545.82 Q1785.07 1545.82 1786.99 1544.03 Q1788.91 1542.23 1788.91 1539.13 Q1788.91 1536 1786.99 1534.22 Q1785.09 1532.44 1781.74 1532.44 M1777.06 1530.45 Q1774.05 1529.7 1772.36 1527.64 Q1770.69 1525.58 1770.69 1522.62 Q1770.69 1518.48 1773.63 1516.07 Q1776.6 1513.66 1781.74 1513.66 Q1786.9 1513.66 1789.84 1516.07 Q1792.78 1518.48 1792.78 1522.62 Q1792.78 1525.58 1791.09 1527.64 Q1789.42 1529.7 1786.43 1530.45 Q1789.81 1531.23 1791.69 1533.52 Q1793.59 1535.82 1793.59 1539.13 Q1793.59 1544.15 1790.51 1546.83 Q1787.45 1549.52 1781.74 1549.52 Q1776.02 1549.52 1772.94 1546.83 Q1769.88 1544.15 1769.88 1539.13 Q1769.88 1535.82 1771.78 1533.52 Q1773.68 1531.23 1777.06 1530.45 M1775.35 1523.06 Q1775.35 1525.75 1777.01 1527.25 Q1778.7 1528.76 1781.74 1528.76 Q1784.75 1528.76 1786.43 1527.25 Q1788.15 1525.75 1788.15 1523.06 Q1788.15 1520.38 1786.43 1518.87 Q1784.75 1517.37 1781.74 1517.37 Q1778.7 1517.37 1777.01 1518.87 Q1775.35 1520.38 1775.35 1523.06 Z" fill="#000000" fill-rule="evenodd" fill-opacity="1" /><path clip-path="url(#clip280)" d="M2166.93 1544.91 L2174.57 1544.91 L2174.57 1518.55 L2166.26 1520.21 L2166.26 1515.95 L2174.53 1514.29 L2179.2 1514.29 L2179.2 1544.91 L2186.84 1544.91 L2186.84 1548.85 L2166.93 1548.85 L2166.93 1544.91 Z" fill="#000000" fill-rule="evenodd" fill-opacity="1" /><path clip-path="url(#clip280)" d="M2206.29 1517.37 Q2202.67 1517.37 2200.85 1520.93 Q2199.04 1524.47 2199.04 1531.6 Q2199.04 1538.71 2200.85 1542.27 Q2202.67 1545.82 2206.29 1545.82 Q2209.92 1545.82 2211.73 1542.27 Q2213.55 1538.71 2213.55 1531.6 Q2213.55 1524.47 2211.73 1520.93 Q2209.92 1517.37 2206.29 1517.37 M2206.29 1513.66 Q2212.1 1513.66 2215.15 1518.27 Q2218.23 1522.85 2218.23 1531.6 Q2218.23 1540.33 2215.15 1544.94 Q2212.1 1549.52 2206.29 1549.52 Q2200.48 1549.52 2197.4 1544.94 Q2194.34 1540.33 2194.34 1531.6 Q2194.34 1522.85 2197.4 1518.27 Q2200.48 1513.66 2206.29 1513.66 Z" fill="#000000" fill-rule="evenodd" fill-opacity="1" /><polyline clip-path="url(#clip282)" style="stroke:#000000; stroke-linecap:butt; stroke-linejoin:round; stroke-width:2; stroke-opacity:0.1; fill:none" points="
  307.593,1409.33 2352.76,1409.33 
  "/>
<polyline clip-path="url(#clip282)" style="stroke:#000000; stroke-linecap:butt; stroke-linejoin:round; stroke-width:2; stroke-opacity:0.1; fill:none" points="
  307.593,1088.58 2352.76,1088.58 
  "/>
<polyline clip-path="url(#clip282)" style="stroke:#000000; stroke-linecap:butt; stroke-linejoin:round; stroke-width:2; stroke-opacity:0.1; fill:none" points="
  307.593,767.824 2352.76,767.824 
  "/>
<polyline clip-path="url(#clip282)" style="stroke:#000000; stroke-linecap:butt; stroke-linejoin:round; stroke-width:2; stroke-opacity:0.1; fill:none" points="
  307.593,447.073 2352.76,447.073 
  "/>
<polyline clip-path="url(#clip282)" style="stroke:#000000; stroke-linecap:butt; stroke-linejoin:round; stroke-width:2; stroke-opacity:0.1; fill:none" points="
  307.593,126.322 2352.76,126.322 
  "/>
<polyline clip-path="url(#clip280)" style="stroke:#000000; stroke-linecap:butt; stroke-linejoin:round; stroke-width:4; stroke-opacity:1; fill:none" points="
  307.593,1486.45 307.593,47.2441 
  "/>
<polyline clip-path="url(#clip280)" style="stroke:#000000; stroke-linecap:butt; stroke-linejoin:round; stroke-width:4; stroke-opacity:1; fill:none" points="
  307.593,1409.33 326.49,1409.33 
  "/>
<polyline clip-path="url(#clip280)" style="stroke:#000000; stroke-linecap:butt; stroke-linejoin:round; stroke-width:4; stroke-opacity:1; fill:none" points="
  307.593,1088.58 326.49,1088.58 
  "/>
<polyline clip-path="url(#clip280)" style="stroke:#000000; stroke-linecap:butt; stroke-linejoin:round; stroke-width:4; stroke-opacity:1; fill:none" points="
  307.593,767.824 326.49,767.824 
  "/>
<polyline clip-path="url(#clip280)" style="stroke:#000000; stroke-linecap:butt; stroke-linejoin:round; stroke-width:4; stroke-opacity:1; fill:none" points="
  307.593,447.073 326.49,447.073 
  "/>
<polyline clip-path="url(#clip280)" style="stroke:#000000; stroke-linecap:butt; stroke-linejoin:round; stroke-width:4; stroke-opacity:1; fill:none" points="
  307.593,126.322 326.49,126.322 
  "/>
<path clip-path="url(#clip280)" d="M66.5939 1402.57 L54.7884 1421.02 L66.5939 1421.02 L66.5939 1402.57 M65.367 1398.49 L71.2466 1398.49 L71.2466 1421.02 L76.1772 1421.02 L76.1772 1424.91 L71.2466 1424.91 L71.2466 1433.05 L66.5939 1433.05 L66.5939 1424.91 L50.9921 1424.91 L50.9921 1420.39 L65.367 1398.49 Z" fill="#000000" fill-rule="evenodd" fill-opacity="1" /><path clip-path="url(#clip280)" d="M83.9086 1427.17 L88.7928 1427.17 L88.7928 1433.05 L83.9086 1433.05 L83.9086 1427.17 Z" fill="#000000" fill-rule="evenodd" fill-opacity="1" /><path clip-path="url(#clip280)" d="M108.978 1401.57 Q105.367 1401.57 103.538 1405.14 Q101.733 1408.68 101.733 1415.81 Q101.733 1422.92 103.538 1426.48 Q105.367 1430.02 108.978 1430.02 Q112.612 1430.02 114.418 1426.48 Q116.246 1422.92 116.246 1415.81 Q116.246 1408.68 114.418 1405.14 Q112.612 1401.57 108.978 1401.57 M108.978 1397.87 Q114.788 1397.87 117.844 1402.48 Q120.922 1407.06 120.922 1415.81 Q120.922 1424.54 117.844 1429.14 Q114.788 1433.73 108.978 1433.73 Q103.168 1433.73 100.089 1429.14 Q97.0335 1424.54 97.0335 1415.81 Q97.0335 1407.06 100.089 1402.48 Q103.168 1397.87 108.978 1397.87 Z" fill="#000000" fill-rule="evenodd" fill-opacity="1" /><path clip-path="url(#clip280)" d="M139.14 1401.57 Q135.529 1401.57 133.7 1405.14 Q131.894 1408.68 131.894 1415.81 Q131.894 1422.92 133.7 1426.48 Q135.529 1430.02 139.14 1430.02 Q142.774 1430.02 144.58 1426.48 Q146.408 1422.92 146.408 1415.81 Q146.408 1408.68 144.58 1405.14 Q142.774 1401.57 139.14 1401.57 M139.14 1397.87 Q144.95 1397.87 148.005 1402.48 Q151.084 1407.06 151.084 1415.81 Q151.084 1424.54 148.005 1429.14 Q144.95 1433.73 139.14 1433.73 Q133.33 1433.73 130.251 1429.14 Q127.195 1424.54 127.195 1415.81 Q127.195 1407.06 130.251 1402.48 Q133.33 1397.87 139.14 1397.87 Z" fill="#000000" fill-rule="evenodd" fill-opacity="1" /><path clip-path="url(#clip280)" d="M187.473 1407.59 L176.894 1418.22 L187.473 1428.79 L184.718 1431.6 L174.093 1420.97 L163.468 1431.6 L160.737 1428.79 L171.292 1418.22 L160.737 1407.59 L163.468 1404.79 L174.093 1415.42 L184.718 1404.79 L187.473 1407.59 Z" fill="#000000" fill-rule="evenodd" fill-opacity="1" /><path clip-path="url(#clip280)" d="M199.834 1429.12 L207.473 1429.12 L207.473 1402.75 L199.163 1404.42 L199.163 1400.16 L207.426 1398.49 L212.102 1398.49 L212.102 1429.12 L219.741 1429.12 L219.741 1433.05 L199.834 1433.05 L199.834 1429.12 Z" fill="#000000" fill-rule="evenodd" fill-opacity="1" /><path clip-path="url(#clip280)" d="M239.186 1401.57 Q235.574 1401.57 233.746 1405.14 Q231.94 1408.68 231.94 1415.81 Q231.94 1422.92 233.746 1426.48 Q235.574 1430.02 239.186 1430.02 Q242.82 1430.02 244.625 1426.48 Q246.454 1422.92 246.454 1415.81 Q246.454 1408.68 244.625 1405.14 Q242.82 1401.57 239.186 1401.57 M239.186 1397.87 Q244.996 1397.87 248.051 1402.48 Q251.13 1407.06 251.13 1415.81 Q251.13 1424.54 248.051 1429.14 Q244.996 1433.73 239.186 1433.73 Q233.375 1433.73 230.297 1429.14 Q227.241 1424.54 227.241 1415.81 Q227.241 1407.06 230.297 1402.48 Q233.375 1397.87 239.186 1397.87 Z" fill="#000000" fill-rule="evenodd" fill-opacity="1" /><path clip-path="url(#clip280)" d="M263.806 1380.87 L254.214 1395.86 L263.806 1395.86 L263.806 1380.87 M262.81 1377.56 L267.587 1377.56 L267.587 1395.86 L271.593 1395.86 L271.593 1399.02 L267.587 1399.02 L267.587 1405.64 L263.806 1405.64 L263.806 1399.02 L251.13 1399.02 L251.13 1395.36 L262.81 1377.56 Z" fill="#000000" fill-rule="evenodd" fill-opacity="1" /><path clip-path="url(#clip280)" d="M64.3254 1093.16 Q61.1773 1093.16 59.3254 1095.31 Q57.4967 1097.47 57.4967 1101.22 Q57.4967 1104.94 59.3254 1107.12 Q61.1773 1109.27 64.3254 1109.27 Q67.4735 1109.27 69.3022 1107.12 Q71.1541 1104.94 71.1541 1101.22 Q71.1541 1097.47 69.3022 1095.31 Q67.4735 1093.16 64.3254 1093.16 M73.6077 1078.51 L73.6077 1082.77 Q71.8485 1081.93 70.0429 1081.49 Q68.2606 1081.05 66.5013 1081.05 Q61.8717 1081.05 59.418 1084.18 Q56.9875 1087.3 56.6402 1093.62 Q58.006 1091.61 60.0662 1090.54 Q62.1263 1089.46 64.6032 1089.46 Q69.8115 1089.46 72.8207 1092.63 Q75.8531 1095.78 75.8531 1101.22 Q75.8531 1106.54 72.705 1109.76 Q69.5568 1112.97 64.3254 1112.97 Q58.33 1112.97 55.1588 1108.39 Q51.9875 1103.78 51.9875 1095.06 Q51.9875 1086.86 55.8764 1082 Q59.7652 1077.12 66.3161 1077.12 Q68.0754 1077.12 69.8578 1077.47 Q71.6633 1077.81 73.6077 1078.51 Z" fill="#000000" fill-rule="evenodd" fill-opacity="1" /><path clip-path="url(#clip280)" d="M83.9086 1106.42 L88.7928 1106.42 L88.7928 1112.3 L83.9086 1112.3 L83.9086 1106.42 Z" fill="#000000" fill-rule="evenodd" fill-opacity="1" /><path clip-path="url(#clip280)" d="M108.978 1080.82 Q105.367 1080.82 103.538 1084.39 Q101.733 1087.93 101.733 1095.06 Q101.733 1102.16 103.538 1105.73 Q105.367 1109.27 108.978 1109.27 Q112.612 1109.27 114.418 1105.73 Q116.246 1102.16 116.246 1095.06 Q116.246 1087.93 114.418 1084.39 Q112.612 1080.82 108.978 1080.82 M108.978 1077.12 Q114.788 1077.12 117.844 1081.72 Q120.922 1086.31 120.922 1095.06 Q120.922 1103.78 117.844 1108.39 Q114.788 1112.97 108.978 1112.97 Q103.168 1112.97 100.089 1108.39 Q97.0335 1103.78 97.0335 1095.06 Q97.0335 1086.31 100.089 1081.72 Q103.168 1077.12 108.978 1077.12 Z" fill="#000000" fill-rule="evenodd" fill-opacity="1" /><path clip-path="url(#clip280)" d="M139.14 1080.82 Q135.529 1080.82 133.7 1084.39 Q131.894 1087.93 131.894 1095.06 Q131.894 1102.16 133.7 1105.73 Q135.529 1109.27 139.14 1109.27 Q142.774 1109.27 144.58 1105.73 Q146.408 1102.16 146.408 1095.06 Q146.408 1087.93 144.58 1084.39 Q142.774 1080.82 139.14 1080.82 M139.14 1077.12 Q144.95 1077.12 148.005 1081.72 Q151.084 1086.31 151.084 1095.06 Q151.084 1103.78 148.005 1108.39 Q144.95 1112.97 139.14 1112.97 Q133.33 1112.97 130.251 1108.39 Q127.195 1103.78 127.195 1095.06 Q127.195 1086.31 130.251 1081.72 Q133.33 1077.12 139.14 1077.12 Z" fill="#000000" fill-rule="evenodd" fill-opacity="1" /><path clip-path="url(#clip280)" d="M187.473 1086.84 L176.894 1097.47 L187.473 1108.04 L184.718 1110.84 L174.093 1100.22 L163.468 1110.84 L160.737 1108.04 L171.292 1097.47 L160.737 1086.84 L163.468 1084.04 L174.093 1094.66 L184.718 1084.04 L187.473 1086.84 Z" fill="#000000" fill-rule="evenodd" fill-opacity="1" /><path clip-path="url(#clip280)" d="M199.834 1108.37 L207.473 1108.37 L207.473 1082 L199.163 1083.67 L199.163 1079.41 L207.426 1077.74 L212.102 1077.74 L212.102 1108.37 L219.741 1108.37 L219.741 1112.3 L199.834 1112.3 L199.834 1108.37 Z" fill="#000000" fill-rule="evenodd" fill-opacity="1" /><path clip-path="url(#clip280)" d="M239.186 1080.82 Q235.574 1080.82 233.746 1084.39 Q231.94 1087.93 231.94 1095.06 Q231.94 1102.16 233.746 1105.73 Q235.574 1109.27 239.186 1109.27 Q242.82 1109.27 244.625 1105.73 Q246.454 1102.16 246.454 1095.06 Q246.454 1087.93 244.625 1084.39 Q242.82 1080.82 239.186 1080.82 M239.186 1077.12 Q244.996 1077.12 248.051 1081.72 Q251.13 1086.31 251.13 1095.06 Q251.13 1103.78 248.051 1108.39 Q244.996 1112.97 239.186 1112.97 Q233.375 1112.97 230.297 1108.39 Q227.241 1103.78 227.241 1095.06 Q227.241 1086.31 230.297 1081.72 Q233.375 1077.12 239.186 1077.12 Z" fill="#000000" fill-rule="evenodd" fill-opacity="1" /><path clip-path="url(#clip280)" d="M263.806 1060.12 L254.214 1075.11 L263.806 1075.11 L263.806 1060.12 M262.81 1056.81 L267.587 1056.81 L267.587 1075.11 L271.593 1075.11 L271.593 1078.27 L267.587 1078.27 L267.587 1084.89 L263.806 1084.89 L263.806 1078.27 L251.13 1078.27 L251.13 1074.6 L262.81 1056.81 Z" fill="#000000" fill-rule="evenodd" fill-opacity="1" /><path clip-path="url(#clip280)" d="M63.7467 775.14 Q60.4134 775.14 58.4921 776.922 Q56.5939 778.705 56.5939 781.83 Q56.5939 784.955 58.4921 786.737 Q60.4134 788.519 63.7467 788.519 Q67.08 788.519 69.0013 786.737 Q70.9226 784.932 70.9226 781.83 Q70.9226 778.705 69.0013 776.922 Q67.1032 775.14 63.7467 775.14 M59.0708 773.149 Q56.0615 772.408 54.3717 770.348 Q52.7051 768.288 52.7051 765.325 Q52.7051 761.182 55.6449 758.774 Q58.6078 756.367 63.7467 756.367 Q68.9087 756.367 71.8485 758.774 Q74.7883 761.182 74.7883 765.325 Q74.7883 768.288 73.0985 770.348 Q71.4318 772.408 68.4457 773.149 Q71.8253 773.936 73.7003 776.228 Q75.5985 778.52 75.5985 781.83 Q75.5985 786.853 72.5198 789.538 Q69.4642 792.223 63.7467 792.223 Q58.0291 792.223 54.9504 789.538 Q51.8949 786.853 51.8949 781.83 Q51.8949 778.52 53.793 776.228 Q55.6912 773.936 59.0708 773.149 M57.3578 765.765 Q57.3578 768.45 59.0245 769.955 Q60.7143 771.459 63.7467 771.459 Q66.7559 771.459 68.4457 769.955 Q70.1587 768.45 70.1587 765.765 Q70.1587 763.08 68.4457 761.575 Q66.7559 760.071 63.7467 760.071 Q60.7143 760.071 59.0245 761.575 Q57.3578 763.08 57.3578 765.765 Z" fill="#000000" fill-rule="evenodd" fill-opacity="1" /><path clip-path="url(#clip280)" d="M83.9086 785.672 L88.7928 785.672 L88.7928 791.552 L83.9086 791.552 L83.9086 785.672 Z" fill="#000000" fill-rule="evenodd" fill-opacity="1" /><path clip-path="url(#clip280)" d="M108.978 760.071 Q105.367 760.071 103.538 763.635 Q101.733 767.177 101.733 774.307 Q101.733 781.413 103.538 784.978 Q105.367 788.519 108.978 788.519 Q112.612 788.519 114.418 784.978 Q116.246 781.413 116.246 774.307 Q116.246 767.177 114.418 763.635 Q112.612 760.071 108.978 760.071 M108.978 756.367 Q114.788 756.367 117.844 760.973 Q120.922 765.557 120.922 774.307 Q120.922 783.033 117.844 787.64 Q114.788 792.223 108.978 792.223 Q103.168 792.223 100.089 787.64 Q97.0335 783.033 97.0335 774.307 Q97.0335 765.557 100.089 760.973 Q103.168 756.367 108.978 756.367 Z" fill="#000000" fill-rule="evenodd" fill-opacity="1" /><path clip-path="url(#clip280)" d="M139.14 760.071 Q135.529 760.071 133.7 763.635 Q131.894 767.177 131.894 774.307 Q131.894 781.413 133.7 784.978 Q135.529 788.519 139.14 788.519 Q142.774 788.519 144.58 784.978 Q146.408 781.413 146.408 774.307 Q146.408 767.177 144.58 763.635 Q142.774 760.071 139.14 760.071 M139.14 756.367 Q144.95 756.367 148.005 760.973 Q151.084 765.557 151.084 774.307 Q151.084 783.033 148.005 787.64 Q144.95 792.223 139.14 792.223 Q133.33 792.223 130.251 787.64 Q127.195 783.033 127.195 774.307 Q127.195 765.557 130.251 760.973 Q133.33 756.367 139.14 756.367 Z" fill="#000000" fill-rule="evenodd" fill-opacity="1" /><path clip-path="url(#clip280)" d="M187.473 766.089 L176.894 776.714 L187.473 787.293 L184.718 790.094 L174.093 779.469 L163.468 790.094 L160.737 787.293 L171.292 776.714 L160.737 766.089 L163.468 763.288 L174.093 773.913 L184.718 763.288 L187.473 766.089 Z" fill="#000000" fill-rule="evenodd" fill-opacity="1" /><path clip-path="url(#clip280)" d="M199.834 787.617 L207.473 787.617 L207.473 761.251 L199.163 762.918 L199.163 758.659 L207.426 756.992 L212.102 756.992 L212.102 787.617 L219.741 787.617 L219.741 791.552 L199.834 791.552 L199.834 787.617 Z" fill="#000000" fill-rule="evenodd" fill-opacity="1" /><path clip-path="url(#clip280)" d="M239.186 760.071 Q235.574 760.071 233.746 763.635 Q231.94 767.177 231.94 774.307 Q231.94 781.413 233.746 784.978 Q235.574 788.519 239.186 788.519 Q242.82 788.519 244.625 784.978 Q246.454 781.413 246.454 774.307 Q246.454 767.177 244.625 763.635 Q242.82 760.071 239.186 760.071 M239.186 756.367 Q244.996 756.367 248.051 760.973 Q251.13 765.557 251.13 774.307 Q251.13 783.033 248.051 787.64 Q244.996 792.223 239.186 792.223 Q233.375 792.223 230.297 787.64 Q227.241 783.033 227.241 774.307 Q227.241 765.557 230.297 760.973 Q233.375 756.367 239.186 756.367 Z" fill="#000000" fill-rule="evenodd" fill-opacity="1" /><path clip-path="url(#clip280)" d="M263.806 739.372 L254.214 754.361 L263.806 754.361 L263.806 739.372 M262.81 736.061 L267.587 736.061 L267.587 754.361 L271.593 754.361 L271.593 757.521 L267.587 757.521 L267.587 764.141 L263.806 764.141 L263.806 757.521 L251.13 757.521 L251.13 753.854 L262.81 736.061 Z" fill="#000000" fill-rule="evenodd" fill-opacity="1" /><path clip-path="url(#clip280)" d="M56.8515 466.866 L64.4903 466.866 L64.4903 440.5 L56.1802 442.167 L56.1802 437.907 L64.444 436.241 L69.1199 436.241 L69.1199 466.866 L76.7588 466.866 L76.7588 470.801 L56.8515 470.801 L56.8515 466.866 Z" fill="#000000" fill-rule="evenodd" fill-opacity="1" /><path clip-path="url(#clip280)" d="M86.2032 464.921 L91.0874 464.921 L91.0874 470.801 L86.2032 470.801 L86.2032 464.921 Z" fill="#000000" fill-rule="evenodd" fill-opacity="1" /><path clip-path="url(#clip280)" d="M111.272 439.319 Q107.661 439.319 105.833 442.884 Q104.027 446.426 104.027 453.555 Q104.027 460.662 105.833 464.227 Q107.661 467.768 111.272 467.768 Q114.907 467.768 116.712 464.227 Q118.541 460.662 118.541 453.555 Q118.541 446.426 116.712 442.884 Q114.907 439.319 111.272 439.319 M111.272 435.616 Q117.083 435.616 120.138 440.222 Q123.217 444.806 123.217 453.555 Q123.217 462.282 120.138 466.889 Q117.083 471.472 111.272 471.472 Q105.462 471.472 102.384 466.889 Q99.3281 462.282 99.3281 453.555 Q99.3281 444.806 102.384 440.222 Q105.462 435.616 111.272 435.616 Z" fill="#000000" fill-rule="evenodd" fill-opacity="1" /><path clip-path="url(#clip280)" d="M141.434 439.319 Q137.823 439.319 135.995 442.884 Q134.189 446.426 134.189 453.555 Q134.189 460.662 135.995 464.227 Q137.823 467.768 141.434 467.768 Q145.069 467.768 146.874 464.227 Q148.703 460.662 148.703 453.555 Q148.703 446.426 146.874 442.884 Q145.069 439.319 141.434 439.319 M141.434 435.616 Q147.245 435.616 150.3 440.222 Q153.379 444.806 153.379 453.555 Q153.379 462.282 150.3 466.889 Q147.245 471.472 141.434 471.472 Q135.624 471.472 132.546 466.889 Q129.49 462.282 129.49 453.555 Q129.49 444.806 132.546 440.222 Q135.624 435.616 141.434 435.616 Z" fill="#000000" fill-rule="evenodd" fill-opacity="1" /><path clip-path="url(#clip280)" d="M189.767 445.338 L179.189 455.963 L189.767 466.542 L187.013 469.342 L176.388 458.718 L165.763 469.342 L163.031 466.542 L173.587 455.963 L163.031 445.338 L165.763 442.537 L176.388 453.162 L187.013 442.537 L189.767 445.338 Z" fill="#000000" fill-rule="evenodd" fill-opacity="1" /><path clip-path="url(#clip280)" d="M202.128 466.866 L209.767 466.866 L209.767 440.5 L201.457 442.167 L201.457 437.907 L209.721 436.241 L214.397 436.241 L214.397 466.866 L222.036 466.866 L222.036 470.801 L202.128 470.801 L202.128 466.866 Z" fill="#000000" fill-rule="evenodd" fill-opacity="1" /><path clip-path="url(#clip280)" d="M241.48 439.319 Q237.869 439.319 236.04 442.884 Q234.235 446.426 234.235 453.555 Q234.235 460.662 236.04 464.227 Q237.869 467.768 241.48 467.768 Q245.114 467.768 246.92 464.227 Q248.749 460.662 248.749 453.555 Q248.749 446.426 246.92 442.884 Q245.114 439.319 241.48 439.319 M241.48 435.616 Q247.29 435.616 250.346 440.222 Q253.424 444.806 253.424 453.555 Q253.424 462.282 250.346 466.889 Q247.29 471.472 241.48 471.472 Q235.67 471.472 232.591 466.889 Q229.536 462.282 229.536 453.555 Q229.536 444.806 232.591 440.222 Q235.67 435.616 241.48 435.616 Z" fill="#000000" fill-rule="evenodd" fill-opacity="1" /><path clip-path="url(#clip280)" d="M254.609 415.31 L269.524 415.31 L269.524 418.508 L258.089 418.508 L258.089 425.391 Q258.916 425.109 259.744 424.978 Q260.571 424.827 261.399 424.827 Q266.101 424.827 268.847 427.404 Q271.593 429.98 271.593 434.381 Q271.593 438.914 268.772 441.434 Q265.95 443.936 260.816 443.936 Q259.048 443.936 257.205 443.635 Q255.38 443.334 253.424 442.732 L253.424 438.914 Q255.117 439.836 256.923 440.287 Q258.728 440.738 260.741 440.738 Q263.994 440.738 265.894 439.027 Q267.794 437.315 267.794 434.381 Q267.794 431.447 265.894 429.736 Q263.994 428.024 260.741 428.024 Q259.217 428.024 257.694 428.363 Q256.189 428.702 254.609 429.416 L254.609 415.31 Z" fill="#000000" fill-rule="evenodd" fill-opacity="1" /><path clip-path="url(#clip280)" d="M56.8515 146.115 L64.4903 146.115 L64.4903 119.749 L56.1802 121.416 L56.1802 117.156 L64.444 115.49 L69.1199 115.49 L69.1199 146.115 L76.7588 146.115 L76.7588 150.05 L56.8515 150.05 L56.8515 146.115 Z" fill="#000000" fill-rule="evenodd" fill-opacity="1" /><path clip-path="url(#clip280)" d="M86.2032 144.17 L91.0874 144.17 L91.0874 150.05 L86.2032 150.05 L86.2032 144.17 Z" fill="#000000" fill-rule="evenodd" fill-opacity="1" /><path clip-path="url(#clip280)" d="M105.3 146.115 L121.62 146.115 L121.62 150.05 L99.6753 150.05 L99.6753 146.115 Q102.337 143.36 106.921 138.73 Q111.527 134.078 112.708 132.735 Q114.953 130.212 115.833 128.476 Q116.735 126.716 116.735 125.027 Q116.735 122.272 114.791 120.536 Q112.87 118.8 109.768 118.8 Q107.569 118.8 105.115 119.564 Q102.685 120.328 99.9068 121.879 L99.9068 117.156 Q102.731 116.022 105.185 115.443 Q107.638 114.865 109.675 114.865 Q115.046 114.865 118.24 117.55 Q121.434 120.235 121.434 124.726 Q121.434 126.855 120.624 128.777 Q119.837 130.675 117.731 133.267 Q117.152 133.939 114.05 137.156 Q110.948 140.351 105.3 146.115 Z" fill="#000000" fill-rule="evenodd" fill-opacity="1" /><path clip-path="url(#clip280)" d="M141.434 118.568 Q137.823 118.568 135.995 122.133 Q134.189 125.675 134.189 132.804 Q134.189 139.911 135.995 143.476 Q137.823 147.017 141.434 147.017 Q145.069 147.017 146.874 143.476 Q148.703 139.911 148.703 132.804 Q148.703 125.675 146.874 122.133 Q145.069 118.568 141.434 118.568 M141.434 114.865 Q147.245 114.865 150.3 119.471 Q153.379 124.054 153.379 132.804 Q153.379 141.531 150.3 146.138 Q147.245 150.721 141.434 150.721 Q135.624 150.721 132.546 146.138 Q129.49 141.531 129.49 132.804 Q129.49 124.054 132.546 119.471 Q135.624 114.865 141.434 114.865 Z" fill="#000000" fill-rule="evenodd" fill-opacity="1" /><path clip-path="url(#clip280)" d="M189.767 124.587 L179.189 135.212 L189.767 145.79 L187.013 148.591 L176.388 137.966 L165.763 148.591 L163.031 145.79 L173.587 135.212 L163.031 124.587 L165.763 121.786 L176.388 132.411 L187.013 121.786 L189.767 124.587 Z" fill="#000000" fill-rule="evenodd" fill-opacity="1" /><path clip-path="url(#clip280)" d="M202.128 146.115 L209.767 146.115 L209.767 119.749 L201.457 121.416 L201.457 117.156 L209.721 115.49 L214.397 115.49 L214.397 146.115 L222.036 146.115 L222.036 150.05 L202.128 150.05 L202.128 146.115 Z" fill="#000000" fill-rule="evenodd" fill-opacity="1" /><path clip-path="url(#clip280)" d="M241.48 118.568 Q237.869 118.568 236.04 122.133 Q234.235 125.675 234.235 132.804 Q234.235 139.911 236.04 143.476 Q237.869 147.017 241.48 147.017 Q245.114 147.017 246.92 143.476 Q248.749 139.911 248.749 132.804 Q248.749 125.675 246.92 122.133 Q245.114 118.568 241.48 118.568 M241.48 114.865 Q247.29 114.865 250.346 119.471 Q253.424 124.054 253.424 132.804 Q253.424 141.531 250.346 146.138 Q247.29 150.721 241.48 150.721 Q235.67 150.721 232.591 146.138 Q229.536 141.531 229.536 132.804 Q229.536 124.054 232.591 119.471 Q235.67 114.865 241.48 114.865 Z" fill="#000000" fill-rule="evenodd" fill-opacity="1" /><path clip-path="url(#clip280)" d="M254.609 94.5593 L269.524 94.5593 L269.524 97.7566 L258.089 97.7566 L258.089 104.64 Q258.916 104.358 259.744 104.226 Q260.571 104.076 261.399 104.076 Q266.101 104.076 268.847 106.653 Q271.593 109.229 271.593 113.63 Q271.593 118.163 268.772 120.683 Q265.95 123.185 260.816 123.185 Q259.048 123.185 257.205 122.884 Q255.38 122.583 253.424 121.981 L253.424 118.163 Q255.117 119.085 256.923 119.536 Q258.728 119.987 260.741 119.987 Q263.994 119.987 265.894 118.276 Q267.794 116.564 267.794 113.63 Q267.794 110.696 265.894 108.985 Q263.994 107.273 260.741 107.273 Q259.217 107.273 257.694 107.612 Q256.189 107.95 254.609 108.665 L254.609 94.5593 Z" fill="#000000" fill-rule="evenodd" fill-opacity="1" /><circle clip-path="url(#clip282)" cx="365.475" cy="1419.86" r="14" fill="#009af9" fill-rule="evenodd" fill-opacity="1" stroke="#000000" stroke-opacity="1" stroke-width="3.2"/>
<circle clip-path="url(#clip282)" cx="406.526" cy="1309.81" r="14" fill="#009af9" fill-rule="evenodd" fill-opacity="1" stroke="#000000" stroke-opacity="1" stroke-width="3.2"/>
<circle clip-path="url(#clip282)" cx="447.577" cy="1445.72" r="14" fill="#009af9" fill-rule="evenodd" fill-opacity="1" stroke="#000000" stroke-opacity="1" stroke-width="3.2"/>
<circle clip-path="url(#clip282)" cx="550.204" cy="1352.79" r="14" fill="#009af9" fill-rule="evenodd" fill-opacity="1" stroke="#000000" stroke-opacity="1" stroke-width="3.2"/>
<circle clip-path="url(#clip282)" cx="591.256" cy="1411.07" r="14" fill="#009af9" fill-rule="evenodd" fill-opacity="1" stroke="#000000" stroke-opacity="1" stroke-width="3.2"/>
<circle clip-path="url(#clip282)" cx="734.934" cy="1142.43" r="14" fill="#009af9" fill-rule="evenodd" fill-opacity="1" stroke="#000000" stroke-opacity="1" stroke-width="3.2"/>
<circle clip-path="url(#clip282)" cx="755.46" cy="1086.17" r="14" fill="#009af9" fill-rule="evenodd" fill-opacity="1" stroke="#000000" stroke-opacity="1" stroke-width="3.2"/>
<circle clip-path="url(#clip282)" cx="796.511" cy="1177.66" r="14" fill="#009af9" fill-rule="evenodd" fill-opacity="1" stroke="#000000" stroke-opacity="1" stroke-width="3.2"/>
<circle clip-path="url(#clip282)" cx="796.511" cy="1017.29" r="14" fill="#009af9" fill-rule="evenodd" fill-opacity="1" stroke="#000000" stroke-opacity="1" stroke-width="3.2"/>
<circle clip-path="url(#clip282)" cx="899.138" cy="1133.66" r="14" fill="#009af9" fill-rule="evenodd" fill-opacity="1" stroke="#000000" stroke-opacity="1" stroke-width="3.2"/>
<circle clip-path="url(#clip282)" cx="940.189" cy="1036.97" r="14" fill="#009af9" fill-rule="evenodd" fill-opacity="1" stroke="#000000" stroke-opacity="1" stroke-width="3.2"/>
<circle clip-path="url(#clip282)" cx="960.715" cy="1156.03" r="14" fill="#009af9" fill-rule="evenodd" fill-opacity="1" stroke="#000000" stroke-opacity="1" stroke-width="3.2"/>
<circle clip-path="url(#clip282)" cx="960.715" cy="1137.38" r="14" fill="#009af9" fill-rule="evenodd" fill-opacity="1" stroke="#000000" stroke-opacity="1" stroke-width="3.2"/>
<circle clip-path="url(#clip282)" cx="981.24" cy="1135.39" r="14" fill="#009af9" fill-rule="evenodd" fill-opacity="1" stroke="#000000" stroke-opacity="1" stroke-width="3.2"/>
<circle clip-path="url(#clip282)" cx="1063.34" cy="1070.76" r="14" fill="#009af9" fill-rule="evenodd" fill-opacity="1" stroke="#000000" stroke-opacity="1" stroke-width="3.2"/>
<circle clip-path="url(#clip282)" cx="1145.44" cy="961.269" r="14" fill="#009af9" fill-rule="evenodd" fill-opacity="1" stroke="#000000" stroke-opacity="1" stroke-width="3.2"/>
<circle clip-path="url(#clip282)" cx="1186.5" cy="991.885" r="14" fill="#009af9" fill-rule="evenodd" fill-opacity="1" stroke="#000000" stroke-opacity="1" stroke-width="3.2"/>
<circle clip-path="url(#clip282)" cx="1227.55" cy="718.3" r="14" fill="#009af9" fill-rule="evenodd" fill-opacity="1" stroke="#000000" stroke-opacity="1" stroke-width="3.2"/>
<circle clip-path="url(#clip282)" cx="1350.7" cy="745.965" r="14" fill="#009af9" fill-rule="evenodd" fill-opacity="1" stroke="#000000" stroke-opacity="1" stroke-width="3.2"/>
<circle clip-path="url(#clip282)" cx="1371.23" cy="544.261" r="14" fill="#009af9" fill-rule="evenodd" fill-opacity="1" stroke="#000000" stroke-opacity="1" stroke-width="3.2"/>
<circle clip-path="url(#clip282)" cx="1535.43" cy="579.575" r="14" fill="#009af9" fill-rule="evenodd" fill-opacity="1" stroke="#000000" stroke-opacity="1" stroke-width="3.2"/>
<circle clip-path="url(#clip282)" cx="1597.01" cy="474.77" r="14" fill="#009af9" fill-rule="evenodd" fill-opacity="1" stroke="#000000" stroke-opacity="1" stroke-width="3.2"/>
<circle clip-path="url(#clip282)" cx="1761.21" cy="426.192" r="14" fill="#009af9" fill-rule="evenodd" fill-opacity="1" stroke="#000000" stroke-opacity="1" stroke-width="3.2"/>
<circle clip-path="url(#clip282)" cx="1822.79" cy="225.562" r="14" fill="#009af9" fill-rule="evenodd" fill-opacity="1" stroke="#000000" stroke-opacity="1" stroke-width="3.2"/>
<circle clip-path="url(#clip282)" cx="1925.41" cy="295.823" r="14" fill="#009af9" fill-rule="evenodd" fill-opacity="1" stroke="#000000" stroke-opacity="1" stroke-width="3.2"/>
<circle clip-path="url(#clip282)" cx="1986.99" cy="357.552" r="14" fill="#009af9" fill-rule="evenodd" fill-opacity="1" stroke="#000000" stroke-opacity="1" stroke-width="3.2"/>
<circle clip-path="url(#clip282)" cx="2089.62" cy="174.932" r="14" fill="#009af9" fill-rule="evenodd" fill-opacity="1" stroke="#000000" stroke-opacity="1" stroke-width="3.2"/>
<circle clip-path="url(#clip282)" cx="2110.14" cy="244.439" r="14" fill="#009af9" fill-rule="evenodd" fill-opacity="1" stroke="#000000" stroke-opacity="1" stroke-width="3.2"/>
<circle clip-path="url(#clip282)" cx="2253.82" cy="87.9763" r="14" fill="#009af9" fill-rule="evenodd" fill-opacity="1" stroke="#000000" stroke-opacity="1" stroke-width="3.2"/>
<circle clip-path="url(#clip282)" cx="2294.87" cy="96.2998" r="14" fill="#009af9" fill-rule="evenodd" fill-opacity="1" stroke="#000000" stroke-opacity="1" stroke-width="3.2"/>
</svg>
