<?xml version="1.0" encoding="utf-8"?>
<svg xmlns="http://www.w3.org/2000/svg" xmlns:xlink="http://www.w3.org/1999/xlink" width="600" height="400" viewBox="0 0 2400 1600">
<defs>
  <clipPath id="clip800">
    <rect x="0" y="0" width="2400" height="1600"/>
  </clipPath>
</defs>
<path clip-path="url(#clip800)" d="
M0 1600 L2400 1600 L2400 0 L0 0  Z
  " fill="#ffffff" fill-rule="evenodd" fill-opacity="1"/>
<defs>
  <clipPath id="clip801">
    <rect x="480" y="0" width="1681" height="1600"/>
  </clipPath>
</defs>
<path clip-path="url(#clip800)" d="
M141.853 1486.45 L2352.76 1486.45 L2352.76 47.2441 L141.853 47.2441  Z
  " fill="#ffffff" fill-rule="evenodd" fill-opacity="1"/>
<defs>
  <clipPath id="clip802">
    <rect x="141" y="47" width="2212" height="1440"/>
  </clipPath>
</defs>
<polyline clip-path="url(#clip802)" style="stroke:#000000; stroke-linecap:butt; stroke-linejoin:round; stroke-width:2; stroke-opacity:0.1; fill:none" points="
  204.426,1486.45 204.426,47.2441 
  "/>
<polyline clip-path="url(#clip802)" style="stroke:#000000; stroke-linecap:butt; stroke-linejoin:round; stroke-width:2; stroke-opacity:0.1; fill:none" points="
  1247.3,1486.45 1247.3,47.2441 
  "/>
<polyline clip-path="url(#clip802)" style="stroke:#000000; stroke-linecap:butt; stroke-linejoin:round; stroke-width:2; stroke-opacity:0.1; fill:none" points="
  2290.18,1486.45 2290.18,47.2441 
  "/>
<polyline clip-path="url(#clip800)" style="stroke:#000000; stroke-linecap:butt; stroke-linejoin:round; stroke-width:4; stroke-opacity:1; fill:none" points="
  141.853,1486.45 2352.76,1486.45 
  "/>
<polyline clip-path="url(#clip800)" style="stroke:#000000; stroke-linecap:butt; stroke-linejoin:round; stroke-width:4; stroke-opacity:1; fill:none" points="
  204.426,1486.45 204.426,1467.55 
  "/>
<polyline clip-path="url(#clip800)" style="stroke:#000000; stroke-linecap:butt; stroke-linejoin:round; stroke-width:4; stroke-opacity:1; fill:none" points="
  1247.3,1486.45 1247.3,1467.55 
  "/>
<polyline clip-path="url(#clip800)" style="stroke:#000000; stroke-linecap:butt; stroke-linejoin:round; stroke-width:4; stroke-opacity:1; fill:none" points="
  2290.18,1486.45 2290.18,1467.55 
  "/>
<path clip-path="url(#clip800)" d="M119.831 1533.2 L119.831 1548.85 L115.572 1548.85 L115.572 1533.34 Q115.572 1529.66 114.137 1527.83 Q112.702 1526 109.831 1526 Q106.382 1526 104.391 1528.2 Q102.401 1530.4 102.401 1534.2 L102.401 1548.85 L98.1184 1548.85 L98.1184 1522.92 L102.401 1522.92 L102.401 1526.95 Q103.929 1524.61 105.989 1523.45 Q108.072 1522.3 110.78 1522.3 Q115.248 1522.3 117.54 1525.07 Q119.831 1527.83 119.831 1533.2 Z" fill="#000000" fill-rule="evenodd" fill-opacity="1" /><path clip-path="url(#clip800)" d="M150.502 1534.82 L150.502 1536.9 L130.919 1536.9 Q131.197 1541.3 133.558 1543.62 Q135.942 1545.91 140.178 1545.91 Q142.632 1545.91 144.924 1545.31 Q147.238 1544.7 149.507 1543.5 L149.507 1547.53 Q147.215 1548.5 144.808 1549.01 Q142.401 1549.52 139.924 1549.52 Q133.72 1549.52 130.086 1545.91 Q126.475 1542.3 126.475 1536.14 Q126.475 1529.77 129.901 1526.05 Q133.35 1522.3 139.183 1522.3 Q144.414 1522.3 147.447 1525.68 Q150.502 1529.03 150.502 1534.82 M146.243 1533.57 Q146.197 1530.07 144.276 1527.99 Q142.377 1525.91 139.229 1525.91 Q135.664 1525.91 133.512 1527.92 Q131.382 1529.94 131.058 1533.59 L146.243 1533.57 Z" fill="#000000" fill-rule="evenodd" fill-opacity="1" /><path clip-path="url(#clip800)" d="M155.016 1522.92 L159.275 1522.92 L164.599 1543.15 L169.9 1522.92 L174.924 1522.92 L180.248 1543.15 L185.548 1522.92 L189.808 1522.92 L183.025 1548.85 L178.002 1548.85 L172.424 1527.6 L166.822 1548.85 L161.799 1548.85 L155.016 1522.92 Z" fill="#000000" fill-rule="evenodd" fill-opacity="1" /><path clip-path="url(#clip800)" d="M222.122 1551.26 Q220.317 1555.88 218.604 1557.3 Q216.891 1558.71 214.021 1558.71 L210.618 1558.71 L210.618 1555.14 L213.118 1555.14 Q214.877 1555.14 215.849 1554.31 Q216.821 1553.48 218.002 1550.38 L218.766 1548.43 L208.28 1522.92 L212.794 1522.92 L220.895 1543.2 L228.997 1522.92 L233.511 1522.92 L222.122 1551.26 Z" fill="#000000" fill-rule="evenodd" fill-opacity="1" /><path clip-path="url(#clip800)" d="M249.437 1525.91 Q246.011 1525.91 244.02 1528.59 Q242.03 1531.26 242.03 1535.91 Q242.03 1540.56 243.997 1543.25 Q245.988 1545.91 249.437 1545.91 Q252.84 1545.91 254.83 1543.22 Q256.821 1540.54 256.821 1535.91 Q256.821 1531.3 254.83 1528.62 Q252.84 1525.91 249.437 1525.91 M249.437 1522.3 Q254.993 1522.3 258.164 1525.91 Q261.335 1529.52 261.335 1535.91 Q261.335 1542.27 258.164 1545.91 Q254.993 1549.52 249.437 1549.52 Q243.858 1549.52 240.687 1545.91 Q237.539 1542.27 237.539 1535.91 Q237.539 1529.52 240.687 1525.91 Q243.858 1522.3 249.437 1522.3 Z" fill="#000000" fill-rule="evenodd" fill-opacity="1" /><path clip-path="url(#clip800)" d="M283.418 1526.9 Q282.701 1526.49 281.844 1526.3 Q281.011 1526.09 279.992 1526.09 Q276.381 1526.09 274.437 1528.45 Q272.516 1530.79 272.516 1535.19 L272.516 1548.85 L268.233 1548.85 L268.233 1522.92 L272.516 1522.92 L272.516 1526.95 Q273.858 1524.59 276.011 1523.45 Q278.164 1522.3 281.242 1522.3 Q281.682 1522.3 282.215 1522.37 Q282.747 1522.41 283.395 1522.53 L283.418 1526.9 Z" fill="#000000" fill-rule="evenodd" fill-opacity="1" /><path clip-path="url(#clip800)" d="M287.724 1512.83 L292.006 1512.83 L292.006 1534.1 L304.714 1522.92 L310.154 1522.92 L296.404 1535.05 L310.733 1548.85 L305.177 1548.85 L292.006 1536.19 L292.006 1548.85 L287.724 1548.85 L287.724 1512.83 Z" fill="#000000" fill-rule="evenodd" fill-opacity="1" /><path clip-path="url(#clip800)" d="M1174.67 1527.9 Q1176.26 1525.03 1178.49 1523.66 Q1180.71 1522.3 1183.72 1522.3 Q1187.77 1522.3 1189.97 1525.14 Q1192.17 1527.97 1192.17 1533.2 L1192.17 1548.85 L1187.88 1548.85 L1187.88 1533.34 Q1187.88 1529.61 1186.56 1527.81 Q1185.24 1526 1182.54 1526 Q1179.23 1526 1177.3 1528.2 Q1175.38 1530.4 1175.38 1534.2 L1175.38 1548.85 L1171.1 1548.85 L1171.1 1533.34 Q1171.1 1529.59 1169.78 1527.81 Q1168.46 1526 1165.71 1526 Q1162.44 1526 1160.52 1528.22 Q1158.6 1530.42 1158.6 1534.2 L1158.6 1548.85 L1154.32 1548.85 L1154.32 1522.92 L1158.6 1522.92 L1158.6 1526.95 Q1160.06 1524.57 1162.1 1523.43 Q1164.13 1522.3 1166.93 1522.3 Q1169.76 1522.3 1171.73 1523.73 Q1173.72 1525.17 1174.67 1527.9 Z" fill="#000000" fill-rule="evenodd" fill-opacity="1" /><path clip-path="url(#clip800)" d="M1200.22 1538.62 L1200.22 1522.92 L1204.48 1522.92 L1204.48 1538.45 Q1204.48 1542.13 1205.92 1543.99 Q1207.35 1545.82 1210.22 1545.82 Q1213.67 1545.82 1215.66 1543.62 Q1217.67 1541.42 1217.67 1537.62 L1217.67 1522.92 L1221.93 1522.92 L1221.93 1548.85 L1217.67 1548.85 L1217.67 1544.87 Q1216.12 1547.23 1214.06 1548.38 Q1212.03 1549.52 1209.32 1549.52 Q1204.85 1549.52 1202.54 1546.74 Q1200.22 1543.96 1200.22 1538.62 M1210.94 1522.3 L1210.94 1522.3 Z" fill="#000000" fill-rule="evenodd" fill-opacity="1" /><path clip-path="url(#clip800)" d="M1250.89 1527.9 Q1252.49 1525.03 1254.71 1523.66 Q1256.93 1522.3 1259.94 1522.3 Q1263.99 1522.3 1266.19 1525.14 Q1268.39 1527.97 1268.39 1533.2 L1268.39 1548.85 L1264.11 1548.85 L1264.11 1533.34 Q1264.11 1529.61 1262.79 1527.81 Q1261.47 1526 1258.76 1526 Q1255.45 1526 1253.53 1528.2 Q1251.61 1530.4 1251.61 1534.2 L1251.61 1548.85 L1247.33 1548.85 L1247.33 1533.34 Q1247.33 1529.59 1246.01 1527.81 Q1244.69 1526 1241.93 1526 Q1238.67 1526 1236.75 1528.22 Q1234.83 1530.42 1234.83 1534.2 L1234.83 1548.85 L1230.55 1548.85 L1230.55 1522.92 L1234.83 1522.92 L1234.83 1526.95 Q1236.29 1524.57 1238.32 1523.43 Q1240.36 1522.3 1243.16 1522.3 Q1245.98 1522.3 1247.95 1523.73 Q1249.94 1525.17 1250.89 1527.9 Z" fill="#000000" fill-rule="evenodd" fill-opacity="1" /><path clip-path="url(#clip800)" d="M1295.5 1535.91 Q1295.5 1531.21 1293.55 1528.55 Q1291.63 1525.86 1288.25 1525.86 Q1284.87 1525.86 1282.93 1528.55 Q1281.01 1531.21 1281.01 1535.91 Q1281.01 1540.61 1282.93 1543.29 Q1284.87 1545.95 1288.25 1545.95 Q1291.63 1545.95 1293.55 1543.29 Q1295.5 1540.61 1295.5 1535.91 M1281.01 1526.86 Q1282.35 1524.54 1284.39 1523.43 Q1286.45 1522.3 1289.29 1522.3 Q1294.02 1522.3 1296.96 1526.05 Q1299.92 1529.8 1299.92 1535.91 Q1299.92 1542.02 1296.96 1545.77 Q1294.02 1549.52 1289.29 1549.52 Q1286.45 1549.52 1284.39 1548.41 Q1282.35 1547.27 1281.01 1544.96 L1281.01 1548.85 L1276.73 1548.85 L1276.73 1512.83 L1281.01 1512.83 L1281.01 1526.86 Z" fill="#000000" fill-rule="evenodd" fill-opacity="1" /><path clip-path="url(#clip800)" d="M1318.76 1535.82 Q1313.6 1535.82 1311.61 1537 Q1309.62 1538.18 1309.62 1541.02 Q1309.62 1543.29 1311.1 1544.63 Q1312.61 1545.95 1315.17 1545.95 Q1318.72 1545.95 1320.85 1543.45 Q1323 1540.93 1323 1536.76 L1323 1535.82 L1318.76 1535.82 M1327.26 1534.06 L1327.26 1548.85 L1323 1548.85 L1323 1544.91 Q1321.54 1547.27 1319.36 1548.41 Q1317.19 1549.52 1314.04 1549.52 Q1310.06 1549.52 1307.7 1547.3 Q1305.36 1545.05 1305.36 1541.3 Q1305.36 1536.93 1308.28 1534.7 Q1311.22 1532.48 1317.03 1532.48 L1323 1532.48 L1323 1532.07 Q1323 1529.13 1321.05 1527.53 Q1319.13 1525.91 1315.64 1525.91 Q1313.42 1525.91 1311.31 1526.44 Q1309.2 1526.97 1307.26 1528.04 L1307.26 1524.1 Q1309.6 1523.2 1311.79 1522.76 Q1313.99 1522.3 1316.08 1522.3 Q1321.7 1522.3 1324.48 1525.21 Q1327.26 1528.13 1327.26 1534.06 Z" fill="#000000" fill-rule="evenodd" fill-opacity="1" /><path clip-path="url(#clip800)" d="M1336.03 1522.92 L1340.29 1522.92 L1340.29 1548.85 L1336.03 1548.85 L1336.03 1522.92 M1336.03 1512.83 L1340.29 1512.83 L1340.29 1518.22 L1336.03 1518.22 L1336.03 1512.83 Z" fill="#000000" fill-rule="evenodd" fill-opacity="1" /><path clip-path="url(#clip800)" d="M2239.52 1544.96 L2239.52 1558.71 L2235.24 1558.71 L2235.24 1522.92 L2239.52 1522.92 L2239.52 1526.86 Q2240.87 1524.54 2242.9 1523.43 Q2244.96 1522.3 2247.81 1522.3 Q2252.53 1522.3 2255.47 1526.05 Q2258.44 1529.8 2258.44 1535.91 Q2258.44 1542.02 2255.47 1545.77 Q2252.53 1549.52 2247.81 1549.52 Q2244.96 1549.52 2242.9 1548.41 Q2240.87 1547.27 2239.52 1544.96 M2254.01 1535.91 Q2254.01 1531.21 2252.07 1528.55 Q2250.15 1525.86 2246.77 1525.86 Q2243.39 1525.86 2241.45 1528.55 Q2239.52 1531.21 2239.52 1535.91 Q2239.52 1540.61 2241.45 1543.29 Q2243.39 1545.95 2246.77 1545.95 Q2250.15 1545.95 2252.07 1543.29 Q2254.01 1540.61 2254.01 1535.91 Z" fill="#000000" fill-rule="evenodd" fill-opacity="1" /><path clip-path="url(#clip800)" d="M2277.28 1535.82 Q2272.12 1535.82 2270.13 1537 Q2268.13 1538.18 2268.13 1541.02 Q2268.13 1543.29 2269.62 1544.63 Q2271.12 1545.95 2273.69 1545.95 Q2277.23 1545.95 2279.36 1543.45 Q2281.51 1540.93 2281.51 1536.76 L2281.51 1535.82 L2277.28 1535.82 M2285.77 1534.06 L2285.77 1548.85 L2281.51 1548.85 L2281.51 1544.91 Q2280.06 1547.27 2277.88 1548.41 Q2275.7 1549.52 2272.56 1549.52 Q2268.57 1549.52 2266.21 1547.3 Q2263.88 1545.05 2263.88 1541.3 Q2263.88 1536.93 2266.79 1534.7 Q2269.73 1532.48 2275.54 1532.48 L2281.51 1532.48 L2281.51 1532.07 Q2281.51 1529.13 2279.57 1527.53 Q2277.65 1525.91 2274.15 1525.91 Q2271.93 1525.91 2269.82 1526.44 Q2267.72 1526.97 2265.77 1528.04 L2265.77 1524.1 Q2268.11 1523.2 2270.31 1522.76 Q2272.51 1522.3 2274.59 1522.3 Q2280.22 1522.3 2283 1525.21 Q2285.77 1528.13 2285.77 1534.06 Z" fill="#000000" fill-rule="evenodd" fill-opacity="1" /><path clip-path="url(#clip800)" d="M2309.57 1526.9 Q2308.85 1526.49 2308 1526.3 Q2307.16 1526.09 2306.14 1526.09 Q2302.53 1526.09 2300.59 1528.45 Q2298.67 1530.79 2298.67 1535.19 L2298.67 1548.85 L2294.38 1548.85 L2294.38 1522.92 L2298.67 1522.92 L2298.67 1526.95 Q2300.01 1524.59 2302.16 1523.45 Q2304.32 1522.3 2307.39 1522.3 Q2307.83 1522.3 2308.37 1522.37 Q2308.9 1522.41 2309.55 1522.53 L2309.57 1526.9 Z" fill="#000000" fill-rule="evenodd" fill-opacity="1" /><path clip-path="url(#clip800)" d="M2314.04 1522.92 L2318.3 1522.92 L2318.3 1548.85 L2314.04 1548.85 L2314.04 1522.92 M2314.04 1512.83 L2318.3 1512.83 L2318.3 1518.22 L2314.04 1518.22 L2314.04 1512.83 Z" fill="#000000" fill-rule="evenodd" fill-opacity="1" /><path clip-path="url(#clip800)" d="M2343.74 1523.69 L2343.74 1527.71 Q2341.93 1526.79 2339.99 1526.32 Q2338.04 1525.86 2335.96 1525.86 Q2332.79 1525.86 2331.19 1526.83 Q2329.62 1527.81 2329.62 1529.75 Q2329.62 1531.23 2330.75 1532.09 Q2331.88 1532.92 2335.31 1533.69 L2336.77 1534.01 Q2341.31 1534.98 2343.2 1536.76 Q2345.13 1538.52 2345.13 1541.7 Q2345.13 1545.31 2342.25 1547.41 Q2339.41 1549.52 2334.41 1549.52 Q2332.32 1549.52 2330.06 1549.1 Q2327.81 1548.71 2325.31 1547.9 L2325.31 1543.5 Q2327.67 1544.73 2329.96 1545.35 Q2332.25 1545.95 2334.5 1545.95 Q2337.51 1545.95 2339.13 1544.94 Q2340.75 1543.89 2340.75 1542.02 Q2340.75 1540.28 2339.57 1539.36 Q2338.41 1538.43 2334.45 1537.57 L2332.97 1537.23 Q2329.01 1536.39 2327.25 1534.68 Q2325.5 1532.95 2325.5 1529.94 Q2325.5 1526.28 2328.09 1524.29 Q2330.68 1522.3 2335.45 1522.3 Q2337.81 1522.3 2339.89 1522.64 Q2341.98 1522.99 2343.74 1523.69 Z" fill="#000000" fill-rule="evenodd" fill-opacity="1" /><polyline clip-path="url(#clip802)" style="stroke:#000000; stroke-linecap:butt; stroke-linejoin:round; stroke-width:2; stroke-opacity:0.1; fill:none" points="
  141.853,1211.62 2352.76,1211.62 
  "/>
<polyline clip-path="url(#clip802)" style="stroke:#000000; stroke-linecap:butt; stroke-linejoin:round; stroke-width:2; stroke-opacity:0.1; fill:none" points="
  141.853,899.499 2352.76,899.499 
  "/>
<polyline clip-path="url(#clip802)" style="stroke:#000000; stroke-linecap:butt; stroke-linejoin:round; stroke-width:2; stroke-opacity:0.1; fill:none" points="
  141.853,587.375 2352.76,587.375 
  "/>
<polyline clip-path="url(#clip802)" style="stroke:#000000; stroke-linecap:butt; stroke-linejoin:round; stroke-width:2; stroke-opacity:0.1; fill:none" points="
  141.853,275.251 2352.76,275.251 
  "/>
<polyline clip-path="url(#clip800)" style="stroke:#000000; stroke-linecap:butt; stroke-linejoin:round; stroke-width:4; stroke-opacity:1; fill:none" points="
  141.853,1486.45 141.853,47.2441 
  "/>
<polyline clip-path="url(#clip800)" style="stroke:#000000; stroke-linecap:butt; stroke-linejoin:round; stroke-width:4; stroke-opacity:1; fill:none" points="
  141.853,1211.62 160.751,1211.62 
  "/>
<polyline clip-path="url(#clip800)" style="stroke:#000000; stroke-linecap:butt; stroke-linejoin:round; stroke-width:4; stroke-opacity:1; fill:none" points="
  141.853,899.499 160.751,899.499 
  "/>
<polyline clip-path="url(#clip800)" style="stroke:#000000; stroke-linecap:butt; stroke-linejoin:round; stroke-width:4; stroke-opacity:1; fill:none" points="
  141.853,587.375 160.751,587.375 
  "/>
<polyline clip-path="url(#clip800)" style="stroke:#000000; stroke-linecap:butt; stroke-linejoin:round; stroke-width:4; stroke-opacity:1; fill:none" points="
  141.853,275.251 160.751,275.251 
  "/>
<path clip-path="url(#clip800)" d="M57.7745 1224.97 L74.0939 1224.97 L74.0939 1228.9 L52.1495 1228.9 L52.1495 1224.97 Q54.8115 1222.21 59.3949 1217.58 Q64.0013 1212.93 65.1819 1211.59 Q67.4272 1209.06 68.3068 1207.33 Q69.2096 1205.57 69.2096 1203.88 Q69.2096 1201.13 67.2652 1199.39 Q65.3439 1197.65 62.2421 1197.65 Q60.043 1197.65 57.5893 1198.42 Q55.1588 1199.18 52.381 1200.73 L52.381 1196.01 Q55.2051 1194.88 57.6588 1194.3 Q60.1124 1193.72 62.1495 1193.72 Q67.5198 1193.72 70.7142 1196.4 Q73.9087 1199.09 73.9087 1203.58 Q73.9087 1205.71 73.0985 1207.63 Q72.3115 1209.53 70.205 1212.12 Q69.6263 1212.79 66.5245 1216.01 Q63.4226 1219.2 57.7745 1224.97 Z" fill="#000000" fill-rule="evenodd" fill-opacity="1" /><path clip-path="url(#clip800)" d="M93.9086 1197.42 Q90.2975 1197.42 88.4688 1200.99 Q86.6632 1204.53 86.6632 1211.66 Q86.6632 1218.76 88.4688 1222.33 Q90.2975 1225.87 93.9086 1225.87 Q97.5428 1225.87 99.3483 1222.33 Q101.177 1218.76 101.177 1211.66 Q101.177 1204.53 99.3483 1200.99 Q97.5428 1197.42 93.9086 1197.42 M93.9086 1193.72 Q99.7187 1193.72 102.774 1198.32 Q105.853 1202.91 105.853 1211.66 Q105.853 1220.38 102.774 1224.99 Q99.7187 1229.57 93.9086 1229.57 Q88.0984 1229.57 85.0197 1224.99 Q81.9642 1220.38 81.9642 1211.66 Q81.9642 1202.91 85.0197 1198.32 Q88.0984 1193.72 93.9086 1193.72 Z" fill="#000000" fill-rule="evenodd" fill-opacity="1" /><path clip-path="url(#clip800)" d="M66.5939 886.293 L54.7884 904.742 L66.5939 904.742 L66.5939 886.293 M65.367 882.219 L71.2466 882.219 L71.2466 904.742 L76.1772 904.742 L76.1772 908.631 L71.2466 908.631 L71.2466 916.779 L66.5939 916.779 L66.5939 908.631 L50.9921 908.631 L50.9921 904.117 L65.367 882.219 Z" fill="#000000" fill-rule="evenodd" fill-opacity="1" /><path clip-path="url(#clip800)" d="M93.9086 885.297 Q90.2975 885.297 88.4688 888.862 Q86.6632 892.404 86.6632 899.533 Q86.6632 906.64 88.4688 910.205 Q90.2975 913.746 93.9086 913.746 Q97.5428 913.746 99.3483 910.205 Q101.177 906.64 101.177 899.533 Q101.177 892.404 99.3483 888.862 Q97.5428 885.297 93.9086 885.297 M93.9086 881.594 Q99.7187 881.594 102.774 886.2 Q105.853 890.783 105.853 899.533 Q105.853 908.26 102.774 912.867 Q99.7187 917.45 93.9086 917.45 Q88.0984 917.45 85.0197 912.867 Q81.9642 908.26 81.9642 899.533 Q81.9642 890.783 85.0197 886.2 Q88.0984 881.594 93.9086 881.594 Z" fill="#000000" fill-rule="evenodd" fill-opacity="1" /><path clip-path="url(#clip800)" d="M64.3254 585.511 Q61.1773 585.511 59.3254 587.664 Q57.4967 589.817 57.4967 593.567 Q57.4967 597.294 59.3254 599.47 Q61.1773 601.622 64.3254 601.622 Q67.4735 601.622 69.3022 599.47 Q71.1541 597.294 71.1541 593.567 Q71.1541 589.817 69.3022 587.664 Q67.4735 585.511 64.3254 585.511 M73.6077 570.859 L73.6077 575.118 Q71.8485 574.284 70.0429 573.845 Q68.2606 573.405 66.5013 573.405 Q61.8717 573.405 59.418 576.53 Q56.9875 579.655 56.6402 585.974 Q58.006 583.96 60.0662 582.896 Q62.1263 581.808 64.6032 581.808 Q69.8115 581.808 72.8207 584.979 Q75.8531 588.127 75.8531 593.567 Q75.8531 598.891 72.705 602.108 Q69.5568 605.326 64.3254 605.326 Q58.33 605.326 55.1588 600.743 Q51.9875 596.136 51.9875 587.409 Q51.9875 579.215 55.8764 574.354 Q59.7652 569.47 66.3161 569.47 Q68.0754 569.47 69.8578 569.817 Q71.6633 570.164 73.6077 570.859 Z" fill="#000000" fill-rule="evenodd" fill-opacity="1" /><path clip-path="url(#clip800)" d="M93.9086 573.173 Q90.2975 573.173 88.4688 576.738 Q86.6632 580.28 86.6632 587.409 Q86.6632 594.516 88.4688 598.081 Q90.2975 601.622 93.9086 601.622 Q97.5428 601.622 99.3483 598.081 Q101.177 594.516 101.177 587.409 Q101.177 580.28 99.3483 576.738 Q97.5428 573.173 93.9086 573.173 M93.9086 569.47 Q99.7187 569.47 102.774 574.076 Q105.853 578.659 105.853 587.409 Q105.853 596.136 102.774 600.743 Q99.7187 605.326 93.9086 605.326 Q88.0984 605.326 85.0197 600.743 Q81.9642 596.136 81.9642 587.409 Q81.9642 578.659 85.0197 574.076 Q88.0984 569.47 93.9086 569.47 Z" fill="#000000" fill-rule="evenodd" fill-opacity="1" /><path clip-path="url(#clip800)" d="M63.7467 276.119 Q60.4134 276.119 58.4921 277.901 Q56.5939 279.684 56.5939 282.809 Q56.5939 285.933 58.4921 287.716 Q60.4134 289.498 63.7467 289.498 Q67.08 289.498 69.0013 287.716 Q70.9226 285.91 70.9226 282.809 Q70.9226 279.684 69.0013 277.901 Q67.1032 276.119 63.7467 276.119 M59.0708 274.128 Q56.0615 273.387 54.3717 271.327 Q52.7051 269.267 52.7051 266.304 Q52.7051 262.16 55.6449 259.753 Q58.6078 257.346 63.7467 257.346 Q68.9087 257.346 71.8485 259.753 Q74.7883 262.16 74.7883 266.304 Q74.7883 269.267 73.0985 271.327 Q71.4318 273.387 68.4457 274.128 Q71.8253 274.915 73.7003 277.207 Q75.5985 279.498 75.5985 282.809 Q75.5985 287.832 72.5198 290.517 Q69.4642 293.202 63.7467 293.202 Q58.0291 293.202 54.9504 290.517 Q51.8949 287.832 51.8949 282.809 Q51.8949 279.498 53.793 277.207 Q55.6912 274.915 59.0708 274.128 M57.3578 266.744 Q57.3578 269.429 59.0245 270.934 Q60.7143 272.438 63.7467 272.438 Q66.7559 272.438 68.4457 270.934 Q70.1587 269.429 70.1587 266.744 Q70.1587 264.059 68.4457 262.554 Q66.7559 261.049 63.7467 261.049 Q60.7143 261.049 59.0245 262.554 Q57.3578 264.059 57.3578 266.744 Z" fill="#000000" fill-rule="evenodd" fill-opacity="1" /><path clip-path="url(#clip800)" d="M93.9086 261.049 Q90.2975 261.049 88.4688 264.614 Q86.6632 268.156 86.6632 275.285 Q86.6632 282.392 88.4688 285.957 Q90.2975 289.498 93.9086 289.498 Q97.5428 289.498 99.3483 285.957 Q101.177 282.392 101.177 275.285 Q101.177 268.156 99.3483 264.614 Q97.5428 261.049 93.9086 261.049 M93.9086 257.346 Q99.7187 257.346 102.774 261.952 Q105.853 266.535 105.853 275.285 Q105.853 284.012 102.774 288.619 Q99.7187 293.202 93.9086 293.202 Q88.0984 293.202 85.0197 288.619 Q81.9642 284.012 81.9642 275.285 Q81.9642 266.535 85.0197 261.952 Q88.0984 257.346 93.9086 257.346 Z" fill="#000000" fill-rule="evenodd" fill-opacity="1" /><polyline clip-path="url(#clip802)" style="stroke:#ff0000; stroke-linecap:butt; stroke-linejoin:round; stroke-width:4; stroke-opacity:1; fill:none" points="
  204.426,1024.35 204.426,961.923 204.426,1086.77 204.426,1008.74 1247.3,119.189 1247.3,197.22 1247.3,166.007 1247.3,87.9763 2290.18,821.468 2290.18,743.437 
  2290.18,681.012 2290.18,868.286 
  "/>
<polyline clip-path="url(#clip802)" style="stroke:#0000ff; stroke-linecap:butt; stroke-linejoin:round; stroke-width:4; stroke-opacity:1; fill:none" points="
  204.426,1430.11 204.426,1414.5 204.426,1336.47 204.426,1414.5 1247.3,1445.72 1247.3,1336.47 1247.3,1289.65 1247.3,1445.72 2290.18,1211.62 2290.18,1320.87 
  2290.18,1398.9 2290.18,1367.68 
  "/>
<path clip-path="url(#clip800)" d="
M1744.87 250.738 L2279.06 250.738 L2279.06 95.2176 L1744.87 95.2176  Z
  " fill="#ffffff" fill-rule="evenodd" fill-opacity="1"/>
<polyline clip-path="url(#clip800)" style="stroke:#000000; stroke-linecap:butt; stroke-linejoin:round; stroke-width:4; stroke-opacity:1; fill:none" points="
  1744.87,250.738 2279.06,250.738 2279.06,95.2176 1744.87,95.2176 1744.87,250.738 
  "/>
<polyline clip-path="url(#clip800)" style="stroke:#ff0000; stroke-linecap:butt; stroke-linejoin:round; stroke-width:4; stroke-opacity:1; fill:none" points="
  1768.87,147.058 1912.87,147.058 
  "/>
<path clip-path="url(#clip800)" d="M1944.28 131.051 L1944.28 138.412 L1953.05 138.412 L1953.05 141.722 L1944.28 141.722 L1944.28 155.796 Q1944.28 158.967 1945.13 159.87 Q1946.01 160.773 1948.68 160.773 L1953.05 160.773 L1953.05 164.338 L1948.68 164.338 Q1943.75 164.338 1941.87 162.509 Q1940 160.657 1940 155.796 L1940 141.722 L1936.87 141.722 L1936.87 138.412 L1940 138.412 L1940 131.051 L1944.28 131.051 Z" fill="#000000" fill-rule="evenodd" fill-opacity="1" /><path clip-path="url(#clip800)" d="M1980.83 150.31 L1980.83 152.393 L1961.25 152.393 Q1961.52 156.791 1963.88 159.106 Q1966.27 161.398 1970.5 161.398 Q1972.96 161.398 1975.25 160.796 Q1977.57 160.194 1979.83 158.99 L1979.83 163.018 Q1977.54 163.99 1975.13 164.5 Q1972.73 165.009 1970.25 165.009 Q1964.05 165.009 1960.41 161.398 Q1956.8 157.787 1956.8 151.629 Q1956.8 145.264 1960.23 141.537 Q1963.68 137.787 1969.51 137.787 Q1974.74 137.787 1977.77 141.166 Q1980.83 144.523 1980.83 150.31 M1976.57 149.06 Q1976.52 145.565 1974.6 143.481 Q1972.7 141.398 1969.56 141.398 Q1965.99 141.398 1963.84 143.412 Q1961.71 145.426 1961.38 149.083 L1976.57 149.06 Z" fill="#000000" fill-rule="evenodd" fill-opacity="1" /><path clip-path="url(#clip800)" d="M2008 143.389 Q2009.6 140.518 2011.82 139.153 Q2014.05 137.787 2017.06 137.787 Q2021.11 137.787 2023.31 140.634 Q2025.5 143.458 2025.5 148.689 L2025.5 164.338 L2021.22 164.338 L2021.22 148.828 Q2021.22 145.102 2019.9 143.296 Q2018.58 141.49 2015.88 141.49 Q2012.56 141.49 2010.64 143.69 Q2008.72 145.889 2008.72 149.685 L2008.72 164.338 L2004.44 164.338 L2004.44 148.828 Q2004.44 145.078 2003.12 143.296 Q2001.8 141.49 1999.05 141.49 Q1995.78 141.49 1993.86 143.713 Q1991.94 145.912 1991.94 149.685 L1991.94 164.338 L1987.66 164.338 L1987.66 138.412 L1991.94 138.412 L1991.94 142.44 Q1993.4 140.055 1995.44 138.921 Q1997.47 137.787 2000.27 137.787 Q2003.1 137.787 2005.06 139.222 Q2007.06 140.657 2008 143.389 Z" fill="#000000" fill-rule="evenodd" fill-opacity="1" /><path clip-path="url(#clip800)" d="M2038.12 160.449 L2038.12 174.199 L2033.84 174.199 L2033.84 138.412 L2038.12 138.412 L2038.12 142.347 Q2039.46 140.032 2041.5 138.921 Q2043.56 137.787 2046.41 137.787 Q2051.13 137.787 2054.07 141.537 Q2057.03 145.287 2057.03 151.398 Q2057.03 157.509 2054.07 161.259 Q2051.13 165.009 2046.41 165.009 Q2043.56 165.009 2041.5 163.898 Q2039.46 162.763 2038.12 160.449 M2052.61 151.398 Q2052.61 146.699 2050.67 144.037 Q2048.75 141.352 2045.37 141.352 Q2041.99 141.352 2040.04 144.037 Q2038.12 146.699 2038.12 151.398 Q2038.12 156.097 2040.04 158.782 Q2041.99 161.444 2045.37 161.444 Q2048.75 161.444 2050.67 158.782 Q2052.61 156.097 2052.61 151.398 Z" fill="#000000" fill-rule="evenodd" fill-opacity="1" /><path clip-path="url(#clip800)" d="M2086.27 150.31 L2086.27 152.393 L2066.69 152.393 Q2066.96 156.791 2069.32 159.106 Q2071.71 161.398 2075.94 161.398 Q2078.4 161.398 2080.69 160.796 Q2083 160.194 2085.27 158.99 L2085.27 163.018 Q2082.98 163.99 2080.57 164.5 Q2078.17 165.009 2075.69 165.009 Q2069.49 165.009 2065.85 161.398 Q2062.24 157.787 2062.24 151.629 Q2062.24 145.264 2065.67 141.537 Q2069.12 137.787 2074.95 137.787 Q2080.18 137.787 2083.21 141.166 Q2086.27 144.523 2086.27 150.31 M2082.01 149.06 Q2081.96 145.565 2080.04 143.481 Q2078.14 141.398 2075 141.398 Q2071.43 141.398 2069.28 143.412 Q2067.15 145.426 2066.82 149.083 L2082.01 149.06 Z" fill="#000000" fill-rule="evenodd" fill-opacity="1" /><path clip-path="url(#clip800)" d="M2108.28 142.393 Q2107.56 141.977 2106.71 141.791 Q2105.87 141.583 2104.86 141.583 Q2101.25 141.583 2099.3 143.944 Q2097.38 146.282 2097.38 150.68 L2097.38 164.338 L2093.1 164.338 L2093.1 138.412 L2097.38 138.412 L2097.38 142.44 Q2098.72 140.078 2100.87 138.944 Q2103.03 137.787 2106.11 137.787 Q2106.55 137.787 2107.08 137.856 Q2107.61 137.903 2108.26 138.018 L2108.28 142.393 Z" fill="#000000" fill-rule="evenodd" fill-opacity="1" /><path clip-path="url(#clip800)" d="M2124.53 151.305 Q2119.37 151.305 2117.38 152.486 Q2115.39 153.666 2115.39 156.514 Q2115.39 158.782 2116.87 160.125 Q2118.37 161.444 2120.94 161.444 Q2124.49 161.444 2126.62 158.944 Q2128.77 156.421 2128.77 152.254 L2128.77 151.305 L2124.53 151.305 M2133.03 149.546 L2133.03 164.338 L2128.77 164.338 L2128.77 160.402 Q2127.31 162.763 2125.13 163.898 Q2122.96 165.009 2119.81 165.009 Q2115.83 165.009 2113.47 162.787 Q2111.13 160.541 2111.13 156.791 Q2111.13 152.416 2114.05 150.194 Q2116.99 147.972 2122.8 147.972 L2128.77 147.972 L2128.77 147.555 Q2128.77 144.615 2126.82 143.018 Q2124.9 141.398 2121.41 141.398 Q2119.18 141.398 2117.08 141.93 Q2114.97 142.463 2113.03 143.527 L2113.03 139.592 Q2115.37 138.69 2117.56 138.25 Q2119.76 137.787 2121.85 137.787 Q2127.47 137.787 2130.25 140.703 Q2133.03 143.62 2133.03 149.546 Z" fill="#000000" fill-rule="evenodd" fill-opacity="1" /><path clip-path="url(#clip800)" d="M2146.01 131.051 L2146.01 138.412 L2154.79 138.412 L2154.79 141.722 L2146.01 141.722 L2146.01 155.796 Q2146.01 158.967 2146.87 159.87 Q2147.75 160.773 2150.41 160.773 L2154.79 160.773 L2154.79 164.338 L2150.41 164.338 Q2145.48 164.338 2143.61 162.509 Q2141.73 160.657 2141.73 155.796 L2141.73 141.722 L2138.61 141.722 L2138.61 138.412 L2141.73 138.412 L2141.73 131.051 L2146.01 131.051 Z" fill="#000000" fill-rule="evenodd" fill-opacity="1" /><path clip-path="url(#clip800)" d="M2159.95 154.106 L2159.95 138.412 L2164.21 138.412 L2164.21 153.944 Q2164.21 157.625 2165.64 159.476 Q2167.08 161.305 2169.95 161.305 Q2173.4 161.305 2175.39 159.106 Q2177.4 156.907 2177.4 153.111 L2177.4 138.412 L2181.66 138.412 L2181.66 164.338 L2177.4 164.338 L2177.4 160.356 Q2175.85 162.717 2173.79 163.875 Q2171.75 165.009 2169.05 165.009 Q2164.58 165.009 2162.26 162.231 Q2159.95 159.453 2159.95 154.106 M2170.67 137.787 L2170.67 137.787 Z" fill="#000000" fill-rule="evenodd" fill-opacity="1" /><path clip-path="url(#clip800)" d="M2205.46 142.393 Q2204.74 141.977 2203.88 141.791 Q2203.05 141.583 2202.03 141.583 Q2198.42 141.583 2196.48 143.944 Q2194.55 146.282 2194.55 150.68 L2194.55 164.338 L2190.27 164.338 L2190.27 138.412 L2194.55 138.412 L2194.55 142.44 Q2195.9 140.078 2198.05 138.944 Q2200.2 137.787 2203.28 137.787 Q2203.72 137.787 2204.25 137.856 Q2204.79 137.903 2205.43 138.018 L2205.46 142.393 Z" fill="#000000" fill-rule="evenodd" fill-opacity="1" /><path clip-path="url(#clip800)" d="M2231.06 150.31 L2231.06 152.393 L2211.48 152.393 Q2211.75 156.791 2214.11 159.106 Q2216.5 161.398 2220.74 161.398 Q2223.19 161.398 2225.48 160.796 Q2227.8 160.194 2230.06 158.99 L2230.06 163.018 Q2227.77 163.99 2225.36 164.5 Q2222.96 165.009 2220.48 165.009 Q2214.28 165.009 2210.64 161.398 Q2207.03 157.787 2207.03 151.629 Q2207.03 145.264 2210.46 141.537 Q2213.91 137.787 2219.74 137.787 Q2224.97 137.787 2228 141.166 Q2231.06 144.523 2231.06 150.31 M2226.8 149.06 Q2226.75 145.565 2224.83 143.481 Q2222.93 141.398 2219.79 141.398 Q2216.22 141.398 2214.07 143.412 Q2211.94 145.426 2211.61 149.083 L2226.8 149.06 Z" fill="#000000" fill-rule="evenodd" fill-opacity="1" /><polyline clip-path="url(#clip800)" style="stroke:#0000ff; stroke-linecap:butt; stroke-linejoin:round; stroke-width:4; stroke-opacity:1; fill:none" points="
  1768.87,198.898 1912.87,198.898 
  "/>
<path clip-path="url(#clip800)" d="M1936.87 190.252 L1941.13 190.252 L1946.45 210.483 L1951.76 190.252 L1956.78 190.252 L1962.1 210.483 L1967.4 190.252 L1971.66 190.252 L1964.88 216.178 L1959.86 216.178 L1954.28 194.928 L1948.68 216.178 L1943.65 216.178 L1936.87 190.252 Z" fill="#000000" fill-rule="evenodd" fill-opacity="1" /><path clip-path="url(#clip800)" d="M1978.12 190.252 L1982.38 190.252 L1982.38 216.178 L1978.12 216.178 L1978.12 190.252 M1978.12 180.159 L1982.38 180.159 L1982.38 185.553 L1978.12 185.553 L1978.12 180.159 Z" fill="#000000" fill-rule="evenodd" fill-opacity="1" /><path clip-path="url(#clip800)" d="M2012.84 200.529 L2012.84 216.178 L2008.58 216.178 L2008.58 200.668 Q2008.58 196.988 2007.15 195.159 Q2005.71 193.33 2002.84 193.33 Q1999.39 193.33 1997.4 195.53 Q1995.41 197.729 1995.41 201.525 L1995.41 216.178 L1991.13 216.178 L1991.13 190.252 L1995.41 190.252 L1995.41 194.28 Q1996.94 191.942 1999 190.784 Q2001.08 189.627 2003.79 189.627 Q2008.26 189.627 2010.55 192.405 Q2012.84 195.159 2012.84 200.529 Z" fill="#000000" fill-rule="evenodd" fill-opacity="1" /><path clip-path="url(#clip800)" d="M2038.4 194.187 L2038.4 180.159 L2042.66 180.159 L2042.66 216.178 L2038.4 216.178 L2038.4 212.289 Q2037.06 214.603 2035 215.738 Q2032.96 216.849 2030.09 216.849 Q2025.39 216.849 2022.43 213.099 Q2019.49 209.349 2019.49 203.238 Q2019.49 197.127 2022.43 193.377 Q2025.39 189.627 2030.09 189.627 Q2032.96 189.627 2035 190.761 Q2037.06 191.872 2038.4 194.187 M2023.88 203.238 Q2023.88 207.937 2025.81 210.622 Q2027.75 213.284 2031.13 213.284 Q2034.51 213.284 2036.45 210.622 Q2038.4 207.937 2038.4 203.238 Q2038.4 198.539 2036.45 195.877 Q2034.51 193.192 2031.13 193.192 Q2027.75 193.192 2025.81 195.877 Q2023.88 198.539 2023.88 203.238 Z" fill="#000000" fill-rule="evenodd" fill-opacity="1" /><path clip-path="url(#clip800)" d="M2067.96 191.016 L2067.96 195.043 Q2066.15 194.117 2064.21 193.655 Q2062.26 193.192 2060.18 193.192 Q2057.01 193.192 2055.41 194.164 Q2053.84 195.136 2053.84 197.08 Q2053.84 198.562 2054.97 199.418 Q2056.11 200.252 2059.53 201.016 L2060.99 201.34 Q2065.53 202.312 2067.43 204.094 Q2069.35 205.854 2069.35 209.025 Q2069.35 212.636 2066.48 214.742 Q2063.63 216.849 2058.63 216.849 Q2056.55 216.849 2054.28 216.432 Q2052.03 216.039 2049.53 215.228 L2049.53 210.83 Q2051.89 212.057 2054.19 212.682 Q2056.48 213.284 2058.72 213.284 Q2061.73 213.284 2063.35 212.266 Q2064.97 211.224 2064.97 209.349 Q2064.97 207.613 2063.79 206.687 Q2062.63 205.761 2058.68 204.904 L2057.19 204.557 Q2053.24 203.724 2051.48 202.011 Q2049.72 200.275 2049.72 197.266 Q2049.72 193.608 2052.31 191.618 Q2054.9 189.627 2059.67 189.627 Q2062.03 189.627 2064.12 189.974 Q2066.2 190.321 2067.96 191.016 Z" fill="#000000" fill-rule="evenodd" fill-opacity="1" /><path clip-path="url(#clip800)" d="M2080.25 212.289 L2080.25 226.039 L2075.97 226.039 L2075.97 190.252 L2080.25 190.252 L2080.25 194.187 Q2081.59 191.872 2083.63 190.761 Q2085.69 189.627 2088.54 189.627 Q2093.26 189.627 2096.2 193.377 Q2099.16 197.127 2099.16 203.238 Q2099.16 209.349 2096.2 213.099 Q2093.26 216.849 2088.54 216.849 Q2085.69 216.849 2083.63 215.738 Q2081.59 214.603 2080.25 212.289 M2094.74 203.238 Q2094.74 198.539 2092.8 195.877 Q2090.87 193.192 2087.5 193.192 Q2084.12 193.192 2082.17 195.877 Q2080.25 198.539 2080.25 203.238 Q2080.25 207.937 2082.17 210.622 Q2084.12 213.284 2087.5 213.284 Q2090.87 213.284 2092.8 210.622 Q2094.74 207.937 2094.74 203.238 Z" fill="#000000" fill-rule="evenodd" fill-opacity="1" /><path clip-path="url(#clip800)" d="M2128.4 202.15 L2128.4 204.233 L2108.81 204.233 Q2109.09 208.631 2111.45 210.946 Q2113.84 213.238 2118.07 213.238 Q2120.53 213.238 2122.82 212.636 Q2125.13 212.034 2127.4 210.83 L2127.4 214.858 Q2125.11 215.83 2122.7 216.34 Q2120.3 216.849 2117.82 216.849 Q2111.62 216.849 2107.98 213.238 Q2104.37 209.627 2104.37 203.469 Q2104.37 197.104 2107.8 193.377 Q2111.24 189.627 2117.08 189.627 Q2122.31 189.627 2125.34 193.006 Q2128.4 196.363 2128.4 202.15 M2124.14 200.9 Q2124.09 197.405 2122.17 195.321 Q2120.27 193.238 2117.12 193.238 Q2113.56 193.238 2111.41 195.252 Q2109.28 197.266 2108.95 200.923 L2124.14 200.9 Z" fill="#000000" fill-rule="evenodd" fill-opacity="1" /><path clip-path="url(#clip800)" d="M2157.56 202.15 L2157.56 204.233 L2137.98 204.233 Q2138.26 208.631 2140.62 210.946 Q2143 213.238 2147.24 213.238 Q2149.69 213.238 2151.99 212.636 Q2154.3 212.034 2156.57 210.83 L2156.57 214.858 Q2154.28 215.83 2151.87 216.34 Q2149.46 216.849 2146.99 216.849 Q2140.78 216.849 2137.15 213.238 Q2133.54 209.627 2133.54 203.469 Q2133.54 197.104 2136.96 193.377 Q2140.41 189.627 2146.24 189.627 Q2151.48 189.627 2154.51 193.006 Q2157.56 196.363 2157.56 202.15 M2153.3 200.9 Q2153.26 197.405 2151.34 195.321 Q2149.44 193.238 2146.29 193.238 Q2142.73 193.238 2140.57 195.252 Q2138.44 197.266 2138.12 200.923 L2153.3 200.9 Z" fill="#000000" fill-rule="evenodd" fill-opacity="1" /><path clip-path="url(#clip800)" d="M2181.61 194.187 L2181.61 180.159 L2185.87 180.159 L2185.87 216.178 L2181.61 216.178 L2181.61 212.289 Q2180.27 214.603 2178.21 215.738 Q2176.18 216.849 2173.3 216.849 Q2168.61 216.849 2165.64 213.099 Q2162.7 209.349 2162.7 203.238 Q2162.7 197.127 2165.64 193.377 Q2168.61 189.627 2173.3 189.627 Q2176.18 189.627 2178.21 190.761 Q2180.27 191.872 2181.61 194.187 M2167.1 203.238 Q2167.1 207.937 2169.02 210.622 Q2170.97 213.284 2174.35 213.284 Q2177.73 213.284 2179.67 210.622 Q2181.61 207.937 2181.61 203.238 Q2181.61 198.539 2179.67 195.877 Q2177.73 193.192 2174.35 193.192 Q2170.97 193.192 2169.02 195.877 Q2167.1 198.539 2167.1 203.238 Z" fill="#000000" fill-rule="evenodd" fill-opacity="1" /></svg>
