<?xml version="1.0" encoding="utf-8"?>
<svg xmlns="http://www.w3.org/2000/svg" xmlns:xlink="http://www.w3.org/1999/xlink" width="600" height="400" viewBox="0 0 2400 1600">
<defs>
  <clipPath id="clip870">
    <rect x="0" y="0" width="2400" height="1600"/>
  </clipPath>
</defs>
<path clip-path="url(#clip870)" d="
M0 1600 L2400 1600 L2400 0 L0 0  Z
  " fill="#ffffff" fill-rule="evenodd" fill-opacity="1"/>
<defs>
  <clipPath id="clip871">
    <rect x="480" y="0" width="1681" height="1600"/>
  </clipPath>
</defs>
<path clip-path="url(#clip870)" d="
M399.449 1410.9 L2352.76 1410.9 L2352.76 123.472 L399.449 123.472  Z
  " fill="#ffffff" fill-rule="evenodd" fill-opacity="1"/>
<defs>
  <clipPath id="clip872">
    <rect x="399" y="123" width="1954" height="1288"/>
  </clipPath>
</defs>
<polyline clip-path="url(#clip872)" style="stroke:#000000; stroke-linecap:butt; stroke-linejoin:round; stroke-width:2; stroke-opacity:0.1; fill:none" points="
  533.872,1410.9 533.872,123.472 
  "/>
<polyline clip-path="url(#clip872)" style="stroke:#000000; stroke-linecap:butt; stroke-linejoin:round; stroke-width:2; stroke-opacity:0.1; fill:none" points="
  911.381,1410.9 911.381,123.472 
  "/>
<polyline clip-path="url(#clip872)" style="stroke:#000000; stroke-linecap:butt; stroke-linejoin:round; stroke-width:2; stroke-opacity:0.1; fill:none" points="
  1288.89,1410.9 1288.89,123.472 
  "/>
<polyline clip-path="url(#clip872)" style="stroke:#000000; stroke-linecap:butt; stroke-linejoin:round; stroke-width:2; stroke-opacity:0.1; fill:none" points="
  1666.4,1410.9 1666.4,123.472 
  "/>
<polyline clip-path="url(#clip872)" style="stroke:#000000; stroke-linecap:butt; stroke-linejoin:round; stroke-width:2; stroke-opacity:0.1; fill:none" points="
  2043.91,1410.9 2043.91,123.472 
  "/>
<polyline clip-path="url(#clip870)" style="stroke:#000000; stroke-linecap:butt; stroke-linejoin:round; stroke-width:4; stroke-opacity:1; fill:none" points="
  399.449,1410.9 2352.76,1410.9 
  "/>
<polyline clip-path="url(#clip870)" style="stroke:#000000; stroke-linecap:butt; stroke-linejoin:round; stroke-width:4; stroke-opacity:1; fill:none" points="
  533.872,1410.9 533.872,1392 
  "/>
<polyline clip-path="url(#clip870)" style="stroke:#000000; stroke-linecap:butt; stroke-linejoin:round; stroke-width:4; stroke-opacity:1; fill:none" points="
  911.381,1410.9 911.381,1392 
  "/>
<polyline clip-path="url(#clip870)" style="stroke:#000000; stroke-linecap:butt; stroke-linejoin:round; stroke-width:4; stroke-opacity:1; fill:none" points="
  1288.89,1410.9 1288.89,1392 
  "/>
<polyline clip-path="url(#clip870)" style="stroke:#000000; stroke-linecap:butt; stroke-linejoin:round; stroke-width:4; stroke-opacity:1; fill:none" points="
  1666.4,1410.9 1666.4,1392 
  "/>
<polyline clip-path="url(#clip870)" style="stroke:#000000; stroke-linecap:butt; stroke-linejoin:round; stroke-width:4; stroke-opacity:1; fill:none" points="
  2043.91,1410.9 2043.91,1392 
  "/>
<path clip-path="url(#clip870)" d="M409.278 1454.4 L431.5 1454.4 L431.5 1456.39 L418.954 1488.96 L414.07 1488.96 L425.875 1458.33 L409.278 1458.33 L409.278 1454.4 Z" fill="#000000" fill-rule="evenodd" fill-opacity="1" /><path clip-path="url(#clip870)" d="M440.62 1483.08 L445.505 1483.08 L445.505 1488.96 L440.62 1488.96 L440.62 1483.08 Z" fill="#000000" fill-rule="evenodd" fill-opacity="1" /><path clip-path="url(#clip870)" d="M455.736 1454.4 L474.092 1454.4 L474.092 1458.33 L460.018 1458.33 L460.018 1466.8 Q461.037 1466.46 462.055 1466.29 Q463.074 1466.11 464.092 1466.11 Q469.879 1466.11 473.259 1469.28 Q476.639 1472.45 476.639 1477.87 Q476.639 1483.45 473.166 1486.55 Q469.694 1489.63 463.375 1489.63 Q461.199 1489.63 458.93 1489.26 Q456.685 1488.89 454.278 1488.15 L454.278 1483.45 Q456.361 1484.58 458.583 1485.14 Q460.805 1485.69 463.282 1485.69 Q467.287 1485.69 469.625 1483.59 Q471.963 1481.48 471.963 1477.87 Q471.963 1474.26 469.625 1472.15 Q467.287 1470.04 463.282 1470.04 Q461.407 1470.04 459.532 1470.46 Q457.68 1470.88 455.736 1471.76 L455.736 1454.4 Z" fill="#000000" fill-rule="evenodd" fill-opacity="1" /><path clip-path="url(#clip870)" d="M495.852 1457.48 Q492.24 1457.48 490.412 1461.04 Q488.606 1464.58 488.606 1471.71 Q488.606 1478.82 490.412 1482.38 Q492.24 1485.92 495.852 1485.92 Q499.486 1485.92 501.291 1482.38 Q503.12 1478.82 503.12 1471.71 Q503.12 1464.58 501.291 1461.04 Q499.486 1457.48 495.852 1457.48 M495.852 1453.77 Q501.662 1453.77 504.717 1458.38 Q507.796 1462.96 507.796 1471.71 Q507.796 1480.44 504.717 1485.04 Q501.662 1489.63 495.852 1489.63 Q490.041 1489.63 486.963 1485.04 Q483.907 1480.44 483.907 1471.71 Q483.907 1462.96 486.963 1458.38 Q490.041 1453.77 495.852 1453.77 Z" fill="#000000" fill-rule="evenodd" fill-opacity="1" /><path clip-path="url(#clip870)" d="M526.013 1457.48 Q522.402 1457.48 520.574 1461.04 Q518.768 1464.58 518.768 1471.71 Q518.768 1478.82 520.574 1482.38 Q522.402 1485.92 526.013 1485.92 Q529.648 1485.92 531.453 1482.38 Q533.282 1478.82 533.282 1471.71 Q533.282 1464.58 531.453 1461.04 Q529.648 1457.48 526.013 1457.48 M526.013 1453.77 Q531.824 1453.77 534.879 1458.38 Q537.958 1462.96 537.958 1471.71 Q537.958 1480.44 534.879 1485.04 Q531.824 1489.63 526.013 1489.63 Q520.203 1489.63 517.125 1485.04 Q514.069 1480.44 514.069 1471.71 Q514.069 1462.96 517.125 1458.38 Q520.203 1453.77 526.013 1453.77 Z" fill="#000000" fill-rule="evenodd" fill-opacity="1" /><path clip-path="url(#clip870)" d="M574.346 1463.49 L563.768 1474.12 L574.346 1484.7 L571.592 1487.5 L560.967 1476.87 L550.342 1487.5 L547.611 1484.7 L558.166 1474.12 L547.611 1463.49 L550.342 1460.69 L560.967 1471.32 L571.592 1460.69 L574.346 1463.49 Z" fill="#000000" fill-rule="evenodd" fill-opacity="1" /><path clip-path="url(#clip870)" d="M586.708 1485.02 L594.346 1485.02 L594.346 1458.66 L586.036 1460.32 L586.036 1456.06 L594.3 1454.4 L598.976 1454.4 L598.976 1485.02 L606.615 1485.02 L606.615 1488.96 L586.708 1488.96 L586.708 1485.02 Z" fill="#000000" fill-rule="evenodd" fill-opacity="1" /><path clip-path="url(#clip870)" d="M626.059 1457.48 Q622.448 1457.48 620.619 1461.04 Q618.814 1464.58 618.814 1471.71 Q618.814 1478.82 620.619 1482.38 Q622.448 1485.92 626.059 1485.92 Q629.693 1485.92 631.499 1482.38 Q633.328 1478.82 633.328 1471.71 Q633.328 1464.58 631.499 1461.04 Q629.693 1457.48 626.059 1457.48 M626.059 1453.77 Q631.869 1453.77 634.925 1458.38 Q638.004 1462.96 638.004 1471.71 Q638.004 1480.44 634.925 1485.04 Q631.869 1489.63 626.059 1489.63 Q620.249 1489.63 617.17 1485.04 Q614.115 1480.44 614.115 1471.71 Q614.115 1462.96 617.17 1458.38 Q620.249 1453.77 626.059 1453.77 Z" fill="#000000" fill-rule="evenodd" fill-opacity="1" /><path clip-path="url(#clip870)" d="M650.68 1436.78 L641.088 1451.77 L650.68 1451.77 L650.68 1436.78 M649.683 1433.47 L654.46 1433.47 L654.46 1451.77 L658.466 1451.77 L658.466 1454.93 L654.46 1454.93 L654.46 1461.55 L650.68 1461.55 L650.68 1454.93 L638.004 1454.93 L638.004 1451.26 L649.683 1433.47 Z" fill="#000000" fill-rule="evenodd" fill-opacity="1" /><path clip-path="url(#clip870)" d="M789.265 1485.02 L796.904 1485.02 L796.904 1458.66 L788.594 1460.32 L788.594 1456.06 L796.858 1454.4 L801.534 1454.4 L801.534 1485.02 L809.172 1485.02 L809.172 1488.96 L789.265 1488.96 L789.265 1485.02 Z" fill="#000000" fill-rule="evenodd" fill-opacity="1" /><path clip-path="url(#clip870)" d="M818.617 1483.08 L823.501 1483.08 L823.501 1488.96 L818.617 1488.96 L818.617 1483.08 Z" fill="#000000" fill-rule="evenodd" fill-opacity="1" /><path clip-path="url(#clip870)" d="M843.686 1457.48 Q840.075 1457.48 838.246 1461.04 Q836.441 1464.58 836.441 1471.71 Q836.441 1478.82 838.246 1482.38 Q840.075 1485.92 843.686 1485.92 Q847.32 1485.92 849.126 1482.38 Q850.955 1478.82 850.955 1471.71 Q850.955 1464.58 849.126 1461.04 Q847.32 1457.48 843.686 1457.48 M843.686 1453.77 Q849.496 1453.77 852.552 1458.38 Q855.63 1462.96 855.63 1471.71 Q855.63 1480.44 852.552 1485.04 Q849.496 1489.63 843.686 1489.63 Q837.876 1489.63 834.797 1485.04 Q831.742 1480.44 831.742 1471.71 Q831.742 1462.96 834.797 1458.38 Q837.876 1453.77 843.686 1453.77 Z" fill="#000000" fill-rule="evenodd" fill-opacity="1" /><path clip-path="url(#clip870)" d="M873.848 1457.48 Q870.237 1457.48 868.408 1461.04 Q866.603 1464.58 866.603 1471.71 Q866.603 1478.82 868.408 1482.38 Q870.237 1485.92 873.848 1485.92 Q877.482 1485.92 879.288 1482.38 Q881.116 1478.82 881.116 1471.71 Q881.116 1464.58 879.288 1461.04 Q877.482 1457.48 873.848 1457.48 M873.848 1453.77 Q879.658 1453.77 882.714 1458.38 Q885.792 1462.96 885.792 1471.71 Q885.792 1480.44 882.714 1485.04 Q879.658 1489.63 873.848 1489.63 Q868.038 1489.63 864.959 1485.04 Q861.904 1480.44 861.904 1471.71 Q861.904 1462.96 864.959 1458.38 Q868.038 1453.77 873.848 1453.77 Z" fill="#000000" fill-rule="evenodd" fill-opacity="1" /><path clip-path="url(#clip870)" d="M904.01 1457.48 Q900.399 1457.48 898.57 1461.04 Q896.764 1464.58 896.764 1471.71 Q896.764 1478.82 898.57 1482.38 Q900.399 1485.92 904.01 1485.92 Q907.644 1485.92 909.45 1482.38 Q911.278 1478.82 911.278 1471.71 Q911.278 1464.58 909.45 1461.04 Q907.644 1457.48 904.01 1457.48 M904.01 1453.77 Q909.82 1453.77 912.876 1458.38 Q915.954 1462.96 915.954 1471.71 Q915.954 1480.44 912.876 1485.04 Q909.82 1489.63 904.01 1489.63 Q898.2 1489.63 895.121 1485.04 Q892.065 1480.44 892.065 1471.71 Q892.065 1462.96 895.121 1458.38 Q898.2 1453.77 904.01 1453.77 Z" fill="#000000" fill-rule="evenodd" fill-opacity="1" /><path clip-path="url(#clip870)" d="M952.343 1463.49 L941.764 1474.12 L952.343 1484.7 L949.588 1487.5 L938.963 1476.87 L928.338 1487.5 L925.607 1484.7 L936.162 1474.12 L925.607 1463.49 L928.338 1460.69 L938.963 1471.32 L949.588 1460.69 L952.343 1463.49 Z" fill="#000000" fill-rule="evenodd" fill-opacity="1" /><path clip-path="url(#clip870)" d="M964.704 1485.02 L972.343 1485.02 L972.343 1458.66 L964.033 1460.32 L964.033 1456.06 L972.296 1454.4 L976.972 1454.4 L976.972 1485.02 L984.611 1485.02 L984.611 1488.96 L964.704 1488.96 L964.704 1485.02 Z" fill="#000000" fill-rule="evenodd" fill-opacity="1" /><path clip-path="url(#clip870)" d="M1004.06 1457.48 Q1000.44 1457.48 998.616 1461.04 Q996.81 1464.58 996.81 1471.71 Q996.81 1478.82 998.616 1482.38 Q1000.44 1485.92 1004.06 1485.92 Q1007.69 1485.92 1009.5 1482.38 Q1011.32 1478.82 1011.32 1471.71 Q1011.32 1464.58 1009.5 1461.04 Q1007.69 1457.48 1004.06 1457.48 M1004.06 1453.77 Q1009.87 1453.77 1012.92 1458.38 Q1016 1462.96 1016 1471.71 Q1016 1480.44 1012.92 1485.04 Q1009.87 1489.63 1004.06 1489.63 Q998.245 1489.63 995.167 1485.04 Q992.111 1480.44 992.111 1471.71 Q992.111 1462.96 995.167 1458.38 Q998.245 1453.77 1004.06 1453.77 Z" fill="#000000" fill-rule="evenodd" fill-opacity="1" /><path clip-path="url(#clip870)" d="M1017.18 1433.47 L1032.1 1433.47 L1032.1 1436.66 L1020.66 1436.66 L1020.66 1443.55 Q1021.49 1443.27 1022.32 1443.13 Q1023.15 1442.98 1023.97 1442.98 Q1028.68 1442.98 1031.42 1445.56 Q1034.17 1448.14 1034.17 1452.54 Q1034.17 1457.07 1031.35 1459.59 Q1028.53 1462.09 1023.39 1462.09 Q1021.62 1462.09 1019.78 1461.79 Q1017.96 1461.49 1016 1460.89 L1016 1457.07 Q1017.69 1457.99 1019.5 1458.44 Q1021.3 1458.89 1023.32 1458.89 Q1026.57 1458.89 1028.47 1457.18 Q1030.37 1455.47 1030.37 1452.54 Q1030.37 1449.6 1028.47 1447.89 Q1026.57 1446.18 1023.32 1446.18 Q1021.79 1446.18 1020.27 1446.52 Q1018.76 1446.86 1017.18 1447.57 L1017.18 1433.47 Z" fill="#000000" fill-rule="evenodd" fill-opacity="1" /><path clip-path="url(#clip870)" d="M1166.77 1485.02 L1174.41 1485.02 L1174.41 1458.66 L1166.1 1460.32 L1166.1 1456.06 L1174.37 1454.4 L1179.04 1454.4 L1179.04 1485.02 L1186.68 1485.02 L1186.68 1488.96 L1166.77 1488.96 L1166.77 1485.02 Z" fill="#000000" fill-rule="evenodd" fill-opacity="1" /><path clip-path="url(#clip870)" d="M1196.13 1483.08 L1201.01 1483.08 L1201.01 1488.96 L1196.13 1488.96 L1196.13 1483.08 Z" fill="#000000" fill-rule="evenodd" fill-opacity="1" /><path clip-path="url(#clip870)" d="M1215.22 1485.02 L1231.54 1485.02 L1231.54 1488.96 L1209.6 1488.96 L1209.6 1485.02 Q1212.26 1482.27 1216.84 1477.64 Q1221.45 1472.98 1222.63 1471.64 Q1224.88 1469.12 1225.76 1467.38 Q1226.66 1465.62 1226.66 1463.93 Q1226.66 1461.18 1224.71 1459.44 Q1222.79 1457.71 1219.69 1457.71 Q1217.49 1457.71 1215.04 1458.47 Q1212.61 1459.23 1209.83 1460.79 L1209.83 1456.06 Q1212.65 1454.93 1215.11 1454.35 Q1217.56 1453.77 1219.6 1453.77 Q1224.97 1453.77 1228.16 1456.46 Q1231.36 1459.14 1231.36 1463.63 Q1231.36 1465.76 1230.55 1467.68 Q1229.76 1469.58 1227.65 1472.17 Q1227.07 1472.85 1223.97 1476.06 Q1220.87 1479.26 1215.22 1485.02 Z" fill="#000000" fill-rule="evenodd" fill-opacity="1" /><path clip-path="url(#clip870)" d="M1241.4 1454.4 L1259.76 1454.4 L1259.76 1458.33 L1245.69 1458.33 L1245.69 1466.8 Q1246.7 1466.46 1247.72 1466.29 Q1248.74 1466.11 1249.76 1466.11 Q1255.55 1466.11 1258.93 1469.28 Q1262.31 1472.45 1262.31 1477.87 Q1262.31 1483.45 1258.83 1486.55 Q1255.36 1489.63 1249.04 1489.63 Q1246.87 1489.63 1244.6 1489.26 Q1242.35 1488.89 1239.94 1488.15 L1239.94 1483.45 Q1242.03 1484.58 1244.25 1485.14 Q1246.47 1485.69 1248.95 1485.69 Q1252.95 1485.69 1255.29 1483.59 Q1257.63 1481.48 1257.63 1477.87 Q1257.63 1474.26 1255.29 1472.15 Q1252.95 1470.04 1248.95 1470.04 Q1247.07 1470.04 1245.2 1470.46 Q1243.35 1470.88 1241.4 1471.76 L1241.4 1454.4 Z" fill="#000000" fill-rule="evenodd" fill-opacity="1" /><path clip-path="url(#clip870)" d="M1281.52 1457.48 Q1277.91 1457.48 1276.08 1461.04 Q1274.27 1464.58 1274.27 1471.71 Q1274.27 1478.82 1276.08 1482.38 Q1277.91 1485.92 1281.52 1485.92 Q1285.15 1485.92 1286.96 1482.38 Q1288.79 1478.82 1288.79 1471.71 Q1288.79 1464.58 1286.96 1461.04 Q1285.15 1457.48 1281.52 1457.48 M1281.52 1453.77 Q1287.33 1453.77 1290.38 1458.38 Q1293.46 1462.96 1293.46 1471.71 Q1293.46 1480.44 1290.38 1485.04 Q1287.33 1489.63 1281.52 1489.63 Q1275.71 1489.63 1272.63 1485.04 Q1269.57 1480.44 1269.57 1471.71 Q1269.57 1462.96 1272.63 1458.38 Q1275.71 1453.77 1281.52 1453.77 Z" fill="#000000" fill-rule="evenodd" fill-opacity="1" /><path clip-path="url(#clip870)" d="M1329.85 1463.49 L1319.27 1474.12 L1329.85 1484.7 L1327.1 1487.5 L1316.47 1476.87 L1305.85 1487.5 L1303.12 1484.7 L1313.67 1474.12 L1303.12 1463.49 L1305.85 1460.69 L1316.47 1471.32 L1327.1 1460.69 L1329.85 1463.49 Z" fill="#000000" fill-rule="evenodd" fill-opacity="1" /><path clip-path="url(#clip870)" d="M1342.21 1485.02 L1349.85 1485.02 L1349.85 1458.66 L1341.54 1460.32 L1341.54 1456.06 L1349.81 1454.4 L1354.48 1454.4 L1354.48 1485.02 L1362.12 1485.02 L1362.12 1488.96 L1342.21 1488.96 L1342.21 1485.02 Z" fill="#000000" fill-rule="evenodd" fill-opacity="1" /><path clip-path="url(#clip870)" d="M1381.56 1457.48 Q1377.95 1457.48 1376.12 1461.04 Q1374.32 1464.58 1374.32 1471.71 Q1374.32 1478.82 1376.12 1482.38 Q1377.95 1485.92 1381.56 1485.92 Q1385.2 1485.92 1387 1482.38 Q1388.83 1478.82 1388.83 1471.71 Q1388.83 1464.58 1387 1461.04 Q1385.2 1457.48 1381.56 1457.48 M1381.56 1453.77 Q1387.37 1453.77 1390.43 1458.38 Q1393.51 1462.96 1393.51 1471.71 Q1393.51 1480.44 1390.43 1485.04 Q1387.37 1489.63 1381.56 1489.63 Q1375.75 1489.63 1372.68 1485.04 Q1369.62 1480.44 1369.62 1471.71 Q1369.62 1462.96 1372.68 1458.38 Q1375.75 1453.77 1381.56 1453.77 Z" fill="#000000" fill-rule="evenodd" fill-opacity="1" /><path clip-path="url(#clip870)" d="M1394.69 1433.47 L1409.61 1433.47 L1409.61 1436.66 L1398.17 1436.66 L1398.17 1443.55 Q1399 1443.27 1399.83 1443.13 Q1400.66 1442.98 1401.48 1442.98 Q1406.19 1442.98 1408.93 1445.56 Q1411.68 1448.14 1411.68 1452.54 Q1411.68 1457.07 1408.86 1459.59 Q1406.03 1462.09 1400.9 1462.09 Q1399.13 1462.09 1397.29 1461.79 Q1395.46 1461.49 1393.51 1460.89 L1393.51 1457.07 Q1395.2 1457.99 1397.01 1458.44 Q1398.81 1458.89 1400.83 1458.89 Q1404.08 1458.89 1405.98 1457.18 Q1407.88 1455.47 1407.88 1452.54 Q1407.88 1449.6 1405.98 1447.89 Q1404.08 1446.18 1400.83 1446.18 Q1399.3 1446.18 1397.78 1446.52 Q1396.27 1446.86 1394.69 1447.57 L1394.69 1433.47 Z" fill="#000000" fill-rule="evenodd" fill-opacity="1" /><path clip-path="url(#clip870)" d="M1544.28 1485.02 L1551.92 1485.02 L1551.92 1458.66 L1543.61 1460.32 L1543.61 1456.06 L1551.88 1454.4 L1556.55 1454.4 L1556.55 1485.02 L1564.19 1485.02 L1564.19 1488.96 L1544.28 1488.96 L1544.28 1485.02 Z" fill="#000000" fill-rule="evenodd" fill-opacity="1" /><path clip-path="url(#clip870)" d="M1573.63 1483.08 L1578.52 1483.08 L1578.52 1488.96 L1573.63 1488.96 L1573.63 1483.08 Z" fill="#000000" fill-rule="evenodd" fill-opacity="1" /><path clip-path="url(#clip870)" d="M1588.75 1454.4 L1607.11 1454.4 L1607.11 1458.33 L1593.03 1458.33 L1593.03 1466.8 Q1594.05 1466.46 1595.07 1466.29 Q1596.09 1466.11 1597.11 1466.11 Q1602.89 1466.11 1606.27 1469.28 Q1609.65 1472.45 1609.65 1477.87 Q1609.65 1483.45 1606.18 1486.55 Q1602.71 1489.63 1596.39 1489.63 Q1594.21 1489.63 1591.94 1489.26 Q1589.7 1488.89 1587.29 1488.15 L1587.29 1483.45 Q1589.38 1484.58 1591.6 1485.14 Q1593.82 1485.69 1596.3 1485.69 Q1600.3 1485.69 1602.64 1483.59 Q1604.98 1481.48 1604.98 1477.87 Q1604.98 1474.26 1602.64 1472.15 Q1600.3 1470.04 1596.3 1470.04 Q1594.42 1470.04 1592.55 1470.46 Q1590.69 1470.88 1588.75 1471.76 L1588.75 1454.4 Z" fill="#000000" fill-rule="evenodd" fill-opacity="1" /><path clip-path="url(#clip870)" d="M1628.87 1457.48 Q1625.25 1457.48 1623.43 1461.04 Q1621.62 1464.58 1621.62 1471.71 Q1621.62 1478.82 1623.43 1482.38 Q1625.25 1485.92 1628.87 1485.92 Q1632.5 1485.92 1634.31 1482.38 Q1636.13 1478.82 1636.13 1471.71 Q1636.13 1464.58 1634.31 1461.04 Q1632.5 1457.48 1628.87 1457.48 M1628.87 1453.77 Q1634.68 1453.77 1637.73 1458.38 Q1640.81 1462.96 1640.81 1471.71 Q1640.81 1480.44 1637.73 1485.04 Q1634.68 1489.63 1628.87 1489.63 Q1623.06 1489.63 1619.98 1485.04 Q1616.92 1480.44 1616.92 1471.71 Q1616.92 1462.96 1619.98 1458.38 Q1623.06 1453.77 1628.87 1453.77 Z" fill="#000000" fill-rule="evenodd" fill-opacity="1" /><path clip-path="url(#clip870)" d="M1659.03 1457.48 Q1655.42 1457.48 1653.59 1461.04 Q1651.78 1464.58 1651.78 1471.71 Q1651.78 1478.82 1653.59 1482.38 Q1655.42 1485.92 1659.03 1485.92 Q1662.66 1485.92 1664.47 1482.38 Q1666.3 1478.82 1666.3 1471.71 Q1666.3 1464.58 1664.47 1461.04 Q1662.66 1457.48 1659.03 1457.48 M1659.03 1453.77 Q1664.84 1453.77 1667.89 1458.38 Q1670.97 1462.96 1670.97 1471.71 Q1670.97 1480.44 1667.89 1485.04 Q1664.84 1489.63 1659.03 1489.63 Q1653.22 1489.63 1650.14 1485.04 Q1647.08 1480.44 1647.08 1471.71 Q1647.08 1462.96 1650.14 1458.38 Q1653.22 1453.77 1659.03 1453.77 Z" fill="#000000" fill-rule="evenodd" fill-opacity="1" /><path clip-path="url(#clip870)" d="M1707.36 1463.49 L1696.78 1474.12 L1707.36 1484.7 L1704.61 1487.5 L1693.98 1476.87 L1683.36 1487.5 L1680.62 1484.7 L1691.18 1474.12 L1680.62 1463.49 L1683.36 1460.69 L1693.98 1471.32 L1704.61 1460.69 L1707.36 1463.49 Z" fill="#000000" fill-rule="evenodd" fill-opacity="1" /><path clip-path="url(#clip870)" d="M1719.72 1485.02 L1727.36 1485.02 L1727.36 1458.66 L1719.05 1460.32 L1719.05 1456.06 L1727.31 1454.4 L1731.99 1454.4 L1731.99 1485.02 L1739.63 1485.02 L1739.63 1488.96 L1719.72 1488.96 L1719.72 1485.02 Z" fill="#000000" fill-rule="evenodd" fill-opacity="1" /><path clip-path="url(#clip870)" d="M1759.07 1457.48 Q1755.46 1457.48 1753.63 1461.04 Q1751.83 1464.58 1751.83 1471.71 Q1751.83 1478.82 1753.63 1482.38 Q1755.46 1485.92 1759.07 1485.92 Q1762.71 1485.92 1764.51 1482.38 Q1766.34 1478.82 1766.34 1471.71 Q1766.34 1464.58 1764.51 1461.04 Q1762.71 1457.48 1759.07 1457.48 M1759.07 1453.77 Q1764.88 1453.77 1767.94 1458.38 Q1771.02 1462.96 1771.02 1471.71 Q1771.02 1480.44 1767.94 1485.04 Q1764.88 1489.63 1759.07 1489.63 Q1753.26 1489.63 1750.18 1485.04 Q1747.13 1480.44 1747.13 1471.71 Q1747.13 1462.96 1750.18 1458.38 Q1753.26 1453.77 1759.07 1453.77 Z" fill="#000000" fill-rule="evenodd" fill-opacity="1" /><path clip-path="url(#clip870)" d="M1772.2 1433.47 L1787.12 1433.47 L1787.12 1436.66 L1775.68 1436.66 L1775.68 1443.55 Q1776.51 1443.27 1777.34 1443.13 Q1778.16 1442.98 1778.99 1442.98 Q1783.69 1442.98 1786.44 1445.56 Q1789.19 1448.14 1789.19 1452.54 Q1789.19 1457.07 1786.36 1459.59 Q1783.54 1462.09 1778.41 1462.09 Q1776.64 1462.09 1774.8 1461.79 Q1772.97 1461.49 1771.02 1460.89 L1771.02 1457.07 Q1772.71 1457.99 1774.52 1458.44 Q1776.32 1458.89 1778.33 1458.89 Q1781.59 1458.89 1783.49 1457.18 Q1785.39 1455.47 1785.39 1452.54 Q1785.39 1449.6 1783.49 1447.89 Q1781.59 1446.18 1778.33 1446.18 Q1776.81 1446.18 1775.29 1446.52 Q1773.78 1446.86 1772.2 1447.57 L1772.2 1433.47 Z" fill="#000000" fill-rule="evenodd" fill-opacity="1" /><path clip-path="url(#clip870)" d="M1921.79 1485.02 L1929.43 1485.02 L1929.43 1458.66 L1921.12 1460.32 L1921.12 1456.06 L1929.38 1454.4 L1934.06 1454.4 L1934.06 1485.02 L1941.7 1485.02 L1941.7 1488.96 L1921.79 1488.96 L1921.79 1485.02 Z" fill="#000000" fill-rule="evenodd" fill-opacity="1" /><path clip-path="url(#clip870)" d="M1951.14 1483.08 L1956.03 1483.08 L1956.03 1488.96 L1951.14 1488.96 L1951.14 1483.08 Z" fill="#000000" fill-rule="evenodd" fill-opacity="1" /><path clip-path="url(#clip870)" d="M1965.03 1454.4 L1987.25 1454.4 L1987.25 1456.39 L1974.71 1488.96 L1969.82 1488.96 L1981.63 1458.33 L1965.03 1458.33 L1965.03 1454.4 Z" fill="#000000" fill-rule="evenodd" fill-opacity="1" /><path clip-path="url(#clip870)" d="M1996.42 1454.4 L2014.78 1454.4 L2014.78 1458.33 L2000.7 1458.33 L2000.7 1466.8 Q2001.72 1466.46 2002.74 1466.29 Q2003.76 1466.11 2004.78 1466.11 Q2010.56 1466.11 2013.94 1469.28 Q2017.32 1472.45 2017.32 1477.87 Q2017.32 1483.45 2013.85 1486.55 Q2010.38 1489.63 2004.06 1489.63 Q2001.88 1489.63 1999.62 1489.26 Q1997.37 1488.89 1994.96 1488.15 L1994.96 1483.45 Q1997.05 1484.58 1999.27 1485.14 Q2001.49 1485.69 2003.97 1485.69 Q2007.97 1485.69 2010.31 1483.59 Q2012.65 1481.48 2012.65 1477.87 Q2012.65 1474.26 2010.31 1472.15 Q2007.97 1470.04 2003.97 1470.04 Q2002.09 1470.04 2000.22 1470.46 Q1998.37 1470.88 1996.42 1471.76 L1996.42 1454.4 Z" fill="#000000" fill-rule="evenodd" fill-opacity="1" /><path clip-path="url(#clip870)" d="M2036.54 1457.48 Q2032.93 1457.48 2031.1 1461.04 Q2029.29 1464.58 2029.29 1471.71 Q2029.29 1478.82 2031.1 1482.38 Q2032.93 1485.92 2036.54 1485.92 Q2040.17 1485.92 2041.98 1482.38 Q2043.8 1478.82 2043.8 1471.71 Q2043.8 1464.58 2041.98 1461.04 Q2040.17 1457.48 2036.54 1457.48 M2036.54 1453.77 Q2042.35 1453.77 2045.4 1458.38 Q2048.48 1462.96 2048.48 1471.71 Q2048.48 1480.44 2045.4 1485.04 Q2042.35 1489.63 2036.54 1489.63 Q2030.73 1489.63 2027.65 1485.04 Q2024.59 1480.44 2024.59 1471.71 Q2024.59 1462.96 2027.65 1458.38 Q2030.73 1453.77 2036.54 1453.77 Z" fill="#000000" fill-rule="evenodd" fill-opacity="1" /><path clip-path="url(#clip870)" d="M2084.87 1463.49 L2074.29 1474.12 L2084.87 1484.7 L2082.11 1487.5 L2071.49 1476.87 L2060.86 1487.5 L2058.13 1484.7 L2068.69 1474.12 L2058.13 1463.49 L2060.86 1460.69 L2071.49 1471.32 L2082.11 1460.69 L2084.87 1463.49 Z" fill="#000000" fill-rule="evenodd" fill-opacity="1" /><path clip-path="url(#clip870)" d="M2097.23 1485.02 L2104.87 1485.02 L2104.87 1458.66 L2096.56 1460.32 L2096.56 1456.06 L2104.82 1454.4 L2109.5 1454.4 L2109.5 1485.02 L2117.14 1485.02 L2117.14 1488.96 L2097.23 1488.96 L2097.23 1485.02 Z" fill="#000000" fill-rule="evenodd" fill-opacity="1" /><path clip-path="url(#clip870)" d="M2136.58 1457.48 Q2132.97 1457.48 2131.14 1461.04 Q2129.34 1464.58 2129.34 1471.71 Q2129.34 1478.82 2131.14 1482.38 Q2132.97 1485.92 2136.58 1485.92 Q2140.22 1485.92 2142.02 1482.38 Q2143.85 1478.82 2143.85 1471.71 Q2143.85 1464.58 2142.02 1461.04 Q2140.22 1457.48 2136.58 1457.48 M2136.58 1453.77 Q2142.39 1453.77 2145.45 1458.38 Q2148.53 1462.96 2148.53 1471.71 Q2148.53 1480.44 2145.45 1485.04 Q2142.39 1489.63 2136.58 1489.63 Q2130.77 1489.63 2127.69 1485.04 Q2124.64 1480.44 2124.64 1471.71 Q2124.64 1462.96 2127.69 1458.38 Q2130.77 1453.77 2136.58 1453.77 Z" fill="#000000" fill-rule="evenodd" fill-opacity="1" /><path clip-path="url(#clip870)" d="M2149.71 1433.47 L2164.63 1433.47 L2164.63 1436.66 L2153.19 1436.66 L2153.19 1443.55 Q2154.02 1443.27 2154.85 1443.13 Q2155.67 1442.98 2156.5 1442.98 Q2161.2 1442.98 2163.95 1445.56 Q2166.69 1448.14 2166.69 1452.54 Q2166.69 1457.07 2163.87 1459.59 Q2161.05 1462.09 2155.92 1462.09 Q2154.15 1462.09 2152.31 1461.79 Q2150.48 1461.49 2148.53 1460.89 L2148.53 1457.07 Q2150.22 1457.99 2152.02 1458.44 Q2153.83 1458.89 2155.84 1458.89 Q2159.1 1458.89 2161 1457.18 Q2162.9 1455.47 2162.9 1452.54 Q2162.9 1449.6 2161 1447.89 Q2159.1 1446.18 2155.84 1446.18 Q2154.32 1446.18 2152.8 1446.52 Q2151.29 1446.86 2149.71 1447.57 L2149.71 1433.47 Z" fill="#000000" fill-rule="evenodd" fill-opacity="1" /><path clip-path="url(#clip870)" d="M1198.37 1533 L1189.65 1556.65 L1207.12 1556.65 L1198.37 1533 M1194.74 1526.67 L1202.03 1526.67 L1220.14 1574.19 L1213.46 1574.19 L1209.13 1562 L1187.71 1562 L1183.38 1574.19 L1176.6 1574.19 L1194.74 1526.67 Z" fill="#000000" fill-rule="evenodd" fill-opacity="1" /><path clip-path="url(#clip870)" d="M1251.33 1539.91 L1251.33 1545.38 Q1248.85 1544.01 1246.34 1543.34 Q1243.85 1542.64 1241.31 1542.64 Q1235.61 1542.64 1232.46 1546.27 Q1229.31 1549.87 1229.31 1556.39 Q1229.31 1562.92 1232.46 1566.55 Q1235.61 1570.14 1241.31 1570.14 Q1243.85 1570.14 1246.34 1569.47 Q1248.85 1568.77 1251.33 1567.41 L1251.33 1572.82 Q1248.88 1573.96 1246.24 1574.54 Q1243.63 1575.11 1240.67 1575.11 Q1232.62 1575.11 1227.88 1570.05 Q1223.13 1564.99 1223.13 1556.39 Q1223.13 1547.67 1227.91 1542.68 Q1232.71 1537.68 1241.05 1537.68 Q1243.76 1537.68 1246.34 1538.25 Q1248.92 1538.79 1251.33 1539.91 Z" fill="#000000" fill-rule="evenodd" fill-opacity="1" /><path clip-path="url(#clip870)" d="M1267.31 1528.42 L1267.31 1538.54 L1279.38 1538.54 L1279.38 1543.09 L1267.31 1543.09 L1267.31 1562.44 Q1267.31 1566.8 1268.49 1568.04 Q1269.7 1569.28 1273.36 1569.28 L1279.38 1569.28 L1279.38 1574.19 L1273.36 1574.19 Q1266.58 1574.19 1264 1571.67 Q1261.42 1569.12 1261.42 1562.44 L1261.42 1543.09 L1257.13 1543.09 L1257.13 1538.54 L1261.42 1538.54 L1261.42 1528.42 L1267.31 1528.42 Z" fill="#000000" fill-rule="evenodd" fill-opacity="1" /><path clip-path="url(#clip870)" d="M1286.47 1560.12 L1286.47 1538.54 L1292.33 1538.54 L1292.33 1559.89 Q1292.33 1564.96 1294.3 1567.5 Q1296.28 1570.02 1300.22 1570.02 Q1304.97 1570.02 1307.7 1566.99 Q1310.47 1563.97 1310.47 1558.75 L1310.47 1538.54 L1316.33 1538.54 L1316.33 1574.19 L1310.47 1574.19 L1310.47 1568.71 Q1308.34 1571.96 1305.51 1573.55 Q1302.71 1575.11 1298.98 1575.11 Q1292.84 1575.11 1289.66 1571.29 Q1286.47 1567.47 1286.47 1560.12 M1301.21 1537.68 L1301.21 1537.68 Z" fill="#000000" fill-rule="evenodd" fill-opacity="1" /><path clip-path="url(#clip870)" d="M1344.59 1556.27 Q1337.49 1556.27 1334.76 1557.89 Q1332.02 1559.51 1332.02 1563.43 Q1332.02 1566.55 1334.06 1568.39 Q1336.13 1570.21 1339.66 1570.21 Q1344.53 1570.21 1347.46 1566.77 Q1350.42 1563.3 1350.42 1557.57 L1350.42 1556.27 L1344.59 1556.27 M1356.27 1553.85 L1356.27 1574.19 L1350.42 1574.19 L1350.42 1568.77 Q1348.41 1572.02 1345.42 1573.58 Q1342.43 1575.11 1338.1 1575.11 Q1332.62 1575.11 1329.38 1572.05 Q1326.16 1568.97 1326.16 1563.81 Q1326.16 1557.79 1330.17 1554.74 Q1334.22 1551.68 1342.2 1551.68 L1350.42 1551.68 L1350.42 1551.11 Q1350.42 1547.07 1347.74 1544.87 Q1345.1 1542.64 1340.3 1542.64 Q1337.24 1542.64 1334.34 1543.38 Q1331.45 1544.11 1328.77 1545.57 L1328.77 1540.16 Q1331.99 1538.92 1335.01 1538.31 Q1338.04 1537.68 1340.9 1537.68 Q1348.63 1537.68 1352.45 1541.69 Q1356.27 1545.7 1356.27 1553.85 Z" fill="#000000" fill-rule="evenodd" fill-opacity="1" /><path clip-path="url(#clip870)" d="M1368.34 1524.66 L1374.19 1524.66 L1374.19 1574.19 L1368.34 1574.19 L1368.34 1524.66 Z" fill="#000000" fill-rule="evenodd" fill-opacity="1" /><path clip-path="url(#clip870)" d="M1402.97 1538.54 L1409.17 1538.54 L1420.31 1568.46 L1431.45 1538.54 L1437.66 1538.54 L1424.29 1574.19 L1416.33 1574.19 L1402.97 1538.54 Z" fill="#000000" fill-rule="evenodd" fill-opacity="1" /><path clip-path="url(#clip870)" d="M1461.94 1556.27 Q1454.85 1556.27 1452.11 1557.89 Q1449.37 1559.51 1449.37 1563.43 Q1449.37 1566.55 1451.41 1568.39 Q1453.48 1570.21 1457.01 1570.21 Q1461.88 1570.21 1464.81 1566.77 Q1467.77 1563.3 1467.77 1557.57 L1467.77 1556.27 L1461.94 1556.27 M1473.62 1553.85 L1473.62 1574.19 L1467.77 1574.19 L1467.77 1568.77 Q1465.76 1572.02 1462.77 1573.58 Q1459.78 1575.11 1455.45 1575.11 Q1449.98 1575.11 1446.73 1572.05 Q1443.52 1568.97 1443.52 1563.81 Q1443.52 1557.79 1447.53 1554.74 Q1451.57 1551.68 1459.56 1551.68 L1467.77 1551.68 L1467.77 1551.11 Q1467.77 1547.07 1465.09 1544.87 Q1462.45 1542.64 1457.65 1542.64 Q1454.59 1542.64 1451.7 1543.38 Q1448.8 1544.11 1446.13 1545.57 L1446.13 1540.16 Q1449.34 1538.92 1452.36 1538.31 Q1455.39 1537.68 1458.25 1537.68 Q1465.99 1537.68 1469.81 1541.69 Q1473.62 1545.7 1473.62 1553.85 Z" fill="#000000" fill-rule="evenodd" fill-opacity="1" /><path clip-path="url(#clip870)" d="M1485.69 1524.66 L1491.54 1524.66 L1491.54 1574.19 L1485.69 1574.19 L1485.69 1524.66 Z" fill="#000000" fill-rule="evenodd" fill-opacity="1" /><path clip-path="url(#clip870)" d="M1503.19 1560.12 L1503.19 1538.54 L1509.05 1538.54 L1509.05 1559.89 Q1509.05 1564.96 1511.02 1567.5 Q1513 1570.02 1516.94 1570.02 Q1521.69 1570.02 1524.42 1566.99 Q1527.19 1563.97 1527.19 1558.75 L1527.19 1538.54 L1533.05 1538.54 L1533.05 1574.19 L1527.19 1574.19 L1527.19 1568.71 Q1525.06 1571.96 1522.23 1573.55 Q1519.43 1575.11 1515.7 1575.11 Q1509.56 1575.11 1506.38 1571.29 Q1503.19 1567.47 1503.19 1560.12 M1517.93 1537.68 L1517.93 1537.68 Z" fill="#000000" fill-rule="evenodd" fill-opacity="1" /><path clip-path="url(#clip870)" d="M1575.6 1554.9 L1575.6 1557.76 L1548.68 1557.76 Q1549.06 1563.81 1552.31 1566.99 Q1555.58 1570.14 1561.41 1570.14 Q1564.78 1570.14 1567.93 1569.32 Q1571.12 1568.49 1574.23 1566.83 L1574.23 1572.37 Q1571.08 1573.71 1567.77 1574.41 Q1564.46 1575.11 1561.06 1575.11 Q1552.53 1575.11 1547.53 1570.14 Q1542.57 1565.18 1542.57 1556.71 Q1542.57 1547.96 1547.28 1542.83 Q1552.02 1537.68 1560.04 1537.68 Q1567.23 1537.68 1571.4 1542.33 Q1575.6 1546.94 1575.6 1554.9 M1569.75 1553.18 Q1569.68 1548.37 1567.04 1545.51 Q1564.43 1542.64 1560.1 1542.64 Q1555.2 1542.64 1552.24 1545.41 Q1549.31 1548.18 1548.87 1553.21 L1569.75 1553.18 Z" fill="#000000" fill-rule="evenodd" fill-opacity="1" /><polyline clip-path="url(#clip872)" style="stroke:#000000; stroke-linecap:butt; stroke-linejoin:round; stroke-width:2; stroke-opacity:0.1; fill:none" points="
  399.449,1231.9 2352.76,1231.9 
  "/>
<polyline clip-path="url(#clip872)" style="stroke:#000000; stroke-linecap:butt; stroke-linejoin:round; stroke-width:2; stroke-opacity:0.1; fill:none" points="
  399.449,1000.27 2352.76,1000.27 
  "/>
<polyline clip-path="url(#clip872)" style="stroke:#000000; stroke-linecap:butt; stroke-linejoin:round; stroke-width:2; stroke-opacity:0.1; fill:none" points="
  399.449,768.653 2352.76,768.653 
  "/>
<polyline clip-path="url(#clip872)" style="stroke:#000000; stroke-linecap:butt; stroke-linejoin:round; stroke-width:2; stroke-opacity:0.1; fill:none" points="
  399.449,537.031 2352.76,537.031 
  "/>
<polyline clip-path="url(#clip872)" style="stroke:#000000; stroke-linecap:butt; stroke-linejoin:round; stroke-width:2; stroke-opacity:0.1; fill:none" points="
  399.449,305.409 2352.76,305.409 
  "/>
<polyline clip-path="url(#clip870)" style="stroke:#000000; stroke-linecap:butt; stroke-linejoin:round; stroke-width:4; stroke-opacity:1; fill:none" points="
  399.449,1410.9 399.449,123.472 
  "/>
<polyline clip-path="url(#clip870)" style="stroke:#000000; stroke-linecap:butt; stroke-linejoin:round; stroke-width:4; stroke-opacity:1; fill:none" points="
  399.449,1231.9 418.346,1231.9 
  "/>
<polyline clip-path="url(#clip870)" style="stroke:#000000; stroke-linecap:butt; stroke-linejoin:round; stroke-width:4; stroke-opacity:1; fill:none" points="
  399.449,1000.27 418.346,1000.27 
  "/>
<polyline clip-path="url(#clip870)" style="stroke:#000000; stroke-linecap:butt; stroke-linejoin:round; stroke-width:4; stroke-opacity:1; fill:none" points="
  399.449,768.653 418.346,768.653 
  "/>
<polyline clip-path="url(#clip870)" style="stroke:#000000; stroke-linecap:butt; stroke-linejoin:round; stroke-width:4; stroke-opacity:1; fill:none" points="
  399.449,537.031 418.346,537.031 
  "/>
<polyline clip-path="url(#clip870)" style="stroke:#000000; stroke-linecap:butt; stroke-linejoin:round; stroke-width:4; stroke-opacity:1; fill:none" points="
  399.449,305.409 418.346,305.409 
  "/>
<path clip-path="url(#clip870)" d="M114.26 1221.06 L136.482 1221.06 L136.482 1223.06 L123.936 1255.62 L119.052 1255.62 L130.857 1225 L114.26 1225 L114.26 1221.06 Z" fill="#000000" fill-rule="evenodd" fill-opacity="1" /><path clip-path="url(#clip870)" d="M145.603 1249.75 L150.487 1249.75 L150.487 1255.62 L145.603 1255.62 L145.603 1249.75 Z" fill="#000000" fill-rule="evenodd" fill-opacity="1" /><path clip-path="url(#clip870)" d="M160.718 1221.06 L179.075 1221.06 L179.075 1225 L165.001 1225 L165.001 1233.47 Q166.019 1233.12 167.038 1232.96 Q168.056 1232.78 169.075 1232.78 Q174.862 1232.78 178.241 1235.95 Q181.621 1239.12 181.621 1244.54 Q181.621 1250.12 178.149 1253.22 Q174.677 1256.3 168.357 1256.3 Q166.181 1256.3 163.913 1255.93 Q161.667 1255.56 159.26 1254.81 L159.26 1250.12 Q161.343 1251.25 163.565 1251.81 Q165.788 1252.36 168.264 1252.36 Q172.269 1252.36 174.607 1250.25 Q176.945 1248.15 176.945 1244.54 Q176.945 1240.93 174.607 1238.82 Q172.269 1236.71 168.264 1236.71 Q166.39 1236.71 164.515 1237.13 Q162.663 1237.55 160.718 1238.43 L160.718 1221.06 Z" fill="#000000" fill-rule="evenodd" fill-opacity="1" /><path clip-path="url(#clip870)" d="M200.834 1224.14 Q197.223 1224.14 195.394 1227.71 Q193.588 1231.25 193.588 1238.38 Q193.588 1245.49 195.394 1249.05 Q197.223 1252.59 200.834 1252.59 Q204.468 1252.59 206.274 1249.05 Q208.102 1245.49 208.102 1238.38 Q208.102 1231.25 206.274 1227.71 Q204.468 1224.14 200.834 1224.14 M200.834 1220.44 Q206.644 1220.44 209.699 1225.05 Q212.778 1229.63 212.778 1238.38 Q212.778 1247.11 209.699 1251.71 Q206.644 1256.3 200.834 1256.3 Q195.024 1256.3 191.945 1251.71 Q188.889 1247.11 188.889 1238.38 Q188.889 1229.63 191.945 1225.05 Q195.024 1220.44 200.834 1220.44 Z" fill="#000000" fill-rule="evenodd" fill-opacity="1" /><path clip-path="url(#clip870)" d="M230.996 1224.14 Q227.385 1224.14 225.556 1227.71 Q223.75 1231.25 223.75 1238.38 Q223.75 1245.49 225.556 1249.05 Q227.385 1252.59 230.996 1252.59 Q234.63 1252.59 236.435 1249.05 Q238.264 1245.49 238.264 1238.38 Q238.264 1231.25 236.435 1227.71 Q234.63 1224.14 230.996 1224.14 M230.996 1220.44 Q236.806 1220.44 239.861 1225.05 Q242.94 1229.63 242.94 1238.38 Q242.94 1247.11 239.861 1251.71 Q236.806 1256.3 230.996 1256.3 Q225.185 1256.3 222.107 1251.71 Q219.051 1247.11 219.051 1238.38 Q219.051 1229.63 222.107 1225.05 Q225.185 1220.44 230.996 1220.44 Z" fill="#000000" fill-rule="evenodd" fill-opacity="1" /><path clip-path="url(#clip870)" d="M279.329 1230.16 L268.75 1240.79 L279.329 1251.37 L276.574 1254.17 L265.949 1243.54 L255.324 1254.17 L252.593 1251.37 L263.148 1240.79 L252.593 1230.16 L255.324 1227.36 L265.949 1237.99 L276.574 1227.36 L279.329 1230.16 Z" fill="#000000" fill-rule="evenodd" fill-opacity="1" /><path clip-path="url(#clip870)" d="M291.69 1251.69 L299.329 1251.69 L299.329 1225.32 L291.018 1226.99 L291.018 1222.73 L299.282 1221.06 L303.958 1221.06 L303.958 1251.69 L311.597 1251.69 L311.597 1255.62 L291.69 1255.62 L291.69 1251.69 Z" fill="#000000" fill-rule="evenodd" fill-opacity="1" /><path clip-path="url(#clip870)" d="M331.041 1224.14 Q327.43 1224.14 325.602 1227.71 Q323.796 1231.25 323.796 1238.38 Q323.796 1245.49 325.602 1249.05 Q327.43 1252.59 331.041 1252.59 Q334.676 1252.59 336.481 1249.05 Q338.31 1245.49 338.31 1238.38 Q338.31 1231.25 336.481 1227.71 Q334.676 1224.14 331.041 1224.14 M331.041 1220.44 Q336.852 1220.44 339.907 1225.05 Q342.986 1229.63 342.986 1238.38 Q342.986 1247.11 339.907 1251.71 Q336.852 1256.3 331.041 1256.3 Q325.231 1256.3 322.153 1251.71 Q319.097 1247.11 319.097 1238.38 Q319.097 1229.63 322.153 1225.05 Q325.231 1220.44 331.041 1220.44 Z" fill="#000000" fill-rule="evenodd" fill-opacity="1" /><path clip-path="url(#clip870)" d="M355.662 1203.44 L346.07 1218.43 L355.662 1218.43 L355.662 1203.44 M354.665 1200.13 L359.443 1200.13 L359.443 1218.43 L363.449 1218.43 L363.449 1221.59 L359.443 1221.59 L359.443 1228.21 L355.662 1228.21 L355.662 1221.59 L342.986 1221.59 L342.986 1217.93 L354.665 1200.13 Z" fill="#000000" fill-rule="evenodd" fill-opacity="1" /><path clip-path="url(#clip870)" d="M118.545 1020.07 L126.184 1020.07 L126.184 993.702 L117.874 995.368 L117.874 991.109 L126.138 989.443 L130.814 989.443 L130.814 1020.07 L138.453 1020.07 L138.453 1024 L118.545 1024 L118.545 1020.07 Z" fill="#000000" fill-rule="evenodd" fill-opacity="1" /><path clip-path="url(#clip870)" d="M147.897 1018.12 L152.781 1018.12 L152.781 1024 L147.897 1024 L147.897 1018.12 Z" fill="#000000" fill-rule="evenodd" fill-opacity="1" /><path clip-path="url(#clip870)" d="M172.966 992.521 Q169.355 992.521 167.527 996.086 Q165.721 999.628 165.721 1006.76 Q165.721 1013.86 167.527 1017.43 Q169.355 1020.97 172.966 1020.97 Q176.601 1020.97 178.406 1017.43 Q180.235 1013.86 180.235 1006.76 Q180.235 999.628 178.406 996.086 Q176.601 992.521 172.966 992.521 M172.966 988.818 Q178.777 988.818 181.832 993.424 Q184.911 998.007 184.911 1006.76 Q184.911 1015.48 181.832 1020.09 Q178.777 1024.67 172.966 1024.67 Q167.156 1024.67 164.078 1020.09 Q161.022 1015.48 161.022 1006.76 Q161.022 998.007 164.078 993.424 Q167.156 988.818 172.966 988.818 Z" fill="#000000" fill-rule="evenodd" fill-opacity="1" /><path clip-path="url(#clip870)" d="M203.128 992.521 Q199.517 992.521 197.689 996.086 Q195.883 999.628 195.883 1006.76 Q195.883 1013.86 197.689 1017.43 Q199.517 1020.97 203.128 1020.97 Q206.763 1020.97 208.568 1017.43 Q210.397 1013.86 210.397 1006.76 Q210.397 999.628 208.568 996.086 Q206.763 992.521 203.128 992.521 M203.128 988.818 Q208.938 988.818 211.994 993.424 Q215.073 998.007 215.073 1006.76 Q215.073 1015.48 211.994 1020.09 Q208.938 1024.67 203.128 1024.67 Q197.318 1024.67 194.239 1020.09 Q191.184 1015.48 191.184 1006.76 Q191.184 998.007 194.239 993.424 Q197.318 988.818 203.128 988.818 Z" fill="#000000" fill-rule="evenodd" fill-opacity="1" /><path clip-path="url(#clip870)" d="M233.29 992.521 Q229.679 992.521 227.85 996.086 Q226.045 999.628 226.045 1006.76 Q226.045 1013.86 227.85 1017.43 Q229.679 1020.97 233.29 1020.97 Q236.924 1020.97 238.73 1017.43 Q240.559 1013.86 240.559 1006.76 Q240.559 999.628 238.73 996.086 Q236.924 992.521 233.29 992.521 M233.29 988.818 Q239.1 988.818 242.156 993.424 Q245.235 998.007 245.235 1006.76 Q245.235 1015.48 242.156 1020.09 Q239.1 1024.67 233.29 1024.67 Q227.48 1024.67 224.401 1020.09 Q221.346 1015.48 221.346 1006.76 Q221.346 998.007 224.401 993.424 Q227.48 988.818 233.29 988.818 Z" fill="#000000" fill-rule="evenodd" fill-opacity="1" /><path clip-path="url(#clip870)" d="M281.623 998.54 L271.045 1009.16 L281.623 1019.74 L278.869 1022.54 L268.244 1011.92 L257.619 1022.54 L254.887 1019.74 L265.443 1009.16 L254.887 998.54 L257.619 995.739 L268.244 1006.36 L278.869 995.739 L281.623 998.54 Z" fill="#000000" fill-rule="evenodd" fill-opacity="1" /><path clip-path="url(#clip870)" d="M293.984 1020.07 L301.623 1020.07 L301.623 993.702 L293.313 995.368 L293.313 991.109 L301.577 989.443 L306.253 989.443 L306.253 1020.07 L313.892 1020.07 L313.892 1024 L293.984 1024 L293.984 1020.07 Z" fill="#000000" fill-rule="evenodd" fill-opacity="1" /><path clip-path="url(#clip870)" d="M333.336 992.521 Q329.725 992.521 327.896 996.086 Q326.091 999.628 326.091 1006.76 Q326.091 1013.86 327.896 1017.43 Q329.725 1020.97 333.336 1020.97 Q336.97 1020.97 338.776 1017.43 Q340.604 1013.86 340.604 1006.76 Q340.604 999.628 338.776 996.086 Q336.97 992.521 333.336 992.521 M333.336 988.818 Q339.146 988.818 342.202 993.424 Q345.28 998.007 345.28 1006.76 Q345.28 1015.48 342.202 1020.09 Q339.146 1024.67 333.336 1024.67 Q327.526 1024.67 324.447 1020.09 Q321.392 1015.48 321.392 1006.76 Q321.392 998.007 324.447 993.424 Q327.526 988.818 333.336 988.818 Z" fill="#000000" fill-rule="evenodd" fill-opacity="1" /><path clip-path="url(#clip870)" d="M346.465 968.512 L361.38 968.512 L361.38 971.71 L349.945 971.71 L349.945 978.593 Q350.772 978.311 351.6 978.179 Q352.427 978.029 353.255 978.029 Q357.957 978.029 360.703 980.606 Q363.449 983.182 363.449 987.583 Q363.449 992.116 360.627 994.636 Q357.806 997.138 352.672 997.138 Q350.904 997.138 349.061 996.837 Q347.236 996.536 345.28 995.934 L345.28 992.116 Q346.973 993.038 348.779 993.489 Q350.584 993.94 352.597 993.94 Q355.85 993.94 357.75 992.229 Q359.649 990.517 359.649 987.583 Q359.649 984.649 357.75 982.938 Q355.85 981.226 352.597 981.226 Q351.073 981.226 349.55 981.565 Q348.045 981.903 346.465 982.618 L346.465 968.512 Z" fill="#000000" fill-rule="evenodd" fill-opacity="1" /><path clip-path="url(#clip870)" d="M118.545 788.445 L126.184 788.445 L126.184 762.08 L117.874 763.746 L117.874 759.487 L126.138 757.821 L130.814 757.821 L130.814 788.445 L138.453 788.445 L138.453 792.381 L118.545 792.381 L118.545 788.445 Z" fill="#000000" fill-rule="evenodd" fill-opacity="1" /><path clip-path="url(#clip870)" d="M147.897 786.501 L152.781 786.501 L152.781 792.381 L147.897 792.381 L147.897 786.501 Z" fill="#000000" fill-rule="evenodd" fill-opacity="1" /><path clip-path="url(#clip870)" d="M166.994 788.445 L183.314 788.445 L183.314 792.381 L161.369 792.381 L161.369 788.445 Q164.031 785.691 168.615 781.061 Q173.221 776.408 174.402 775.066 Q176.647 772.543 177.527 770.807 Q178.429 769.047 178.429 767.358 Q178.429 764.603 176.485 762.867 Q174.564 761.131 171.462 761.131 Q169.263 761.131 166.809 761.895 Q164.379 762.658 161.601 764.209 L161.601 759.487 Q164.425 758.353 166.879 757.774 Q169.332 757.196 171.369 757.196 Q176.74 757.196 179.934 759.881 Q183.128 762.566 183.128 767.057 Q183.128 769.186 182.318 771.108 Q181.531 773.006 179.425 775.598 Q178.846 776.27 175.744 779.487 Q172.642 782.682 166.994 788.445 Z" fill="#000000" fill-rule="evenodd" fill-opacity="1" /><path clip-path="url(#clip870)" d="M193.175 757.821 L211.531 757.821 L211.531 761.756 L197.457 761.756 L197.457 770.228 Q198.476 769.881 199.494 769.719 Q200.513 769.533 201.531 769.533 Q207.318 769.533 210.698 772.705 Q214.077 775.876 214.077 781.293 Q214.077 786.871 210.605 789.973 Q207.133 793.052 200.814 793.052 Q198.638 793.052 196.369 792.681 Q194.124 792.311 191.716 791.57 L191.716 786.871 Q193.8 788.006 196.022 788.561 Q198.244 789.117 200.721 789.117 Q204.726 789.117 207.063 787.01 Q209.401 784.904 209.401 781.293 Q209.401 777.682 207.063 775.575 Q204.726 773.469 200.721 773.469 Q198.846 773.469 196.971 773.885 Q195.119 774.302 193.175 775.182 L193.175 757.821 Z" fill="#000000" fill-rule="evenodd" fill-opacity="1" /><path clip-path="url(#clip870)" d="M233.29 760.899 Q229.679 760.899 227.85 764.464 Q226.045 768.006 226.045 775.135 Q226.045 782.242 227.85 785.806 Q229.679 789.348 233.29 789.348 Q236.924 789.348 238.73 785.806 Q240.559 782.242 240.559 775.135 Q240.559 768.006 238.73 764.464 Q236.924 760.899 233.29 760.899 M233.29 757.196 Q239.1 757.196 242.156 761.802 Q245.235 766.385 245.235 775.135 Q245.235 783.862 242.156 788.469 Q239.1 793.052 233.29 793.052 Q227.48 793.052 224.401 788.469 Q221.346 783.862 221.346 775.135 Q221.346 766.385 224.401 761.802 Q227.48 757.196 233.29 757.196 Z" fill="#000000" fill-rule="evenodd" fill-opacity="1" /><path clip-path="url(#clip870)" d="M281.623 766.918 L271.045 777.543 L281.623 788.121 L278.869 790.922 L268.244 780.297 L257.619 790.922 L254.887 788.121 L265.443 777.543 L254.887 766.918 L257.619 764.117 L268.244 774.742 L278.869 764.117 L281.623 766.918 Z" fill="#000000" fill-rule="evenodd" fill-opacity="1" /><path clip-path="url(#clip870)" d="M293.984 788.445 L301.623 788.445 L301.623 762.08 L293.313 763.746 L293.313 759.487 L301.577 757.821 L306.253 757.821 L306.253 788.445 L313.892 788.445 L313.892 792.381 L293.984 792.381 L293.984 788.445 Z" fill="#000000" fill-rule="evenodd" fill-opacity="1" /><path clip-path="url(#clip870)" d="M333.336 760.899 Q329.725 760.899 327.896 764.464 Q326.091 768.006 326.091 775.135 Q326.091 782.242 327.896 785.806 Q329.725 789.348 333.336 789.348 Q336.97 789.348 338.776 785.806 Q340.604 782.242 340.604 775.135 Q340.604 768.006 338.776 764.464 Q336.97 760.899 333.336 760.899 M333.336 757.196 Q339.146 757.196 342.202 761.802 Q345.28 766.385 345.28 775.135 Q345.28 783.862 342.202 788.469 Q339.146 793.052 333.336 793.052 Q327.526 793.052 324.447 788.469 Q321.392 783.862 321.392 775.135 Q321.392 766.385 324.447 761.802 Q327.526 757.196 333.336 757.196 Z" fill="#000000" fill-rule="evenodd" fill-opacity="1" /><path clip-path="url(#clip870)" d="M346.465 736.89 L361.38 736.89 L361.38 740.087 L349.945 740.087 L349.945 746.971 Q350.772 746.689 351.6 746.557 Q352.427 746.407 353.255 746.407 Q357.957 746.407 360.703 748.984 Q363.449 751.56 363.449 755.961 Q363.449 760.494 360.627 763.014 Q357.806 765.516 352.672 765.516 Q350.904 765.516 349.061 765.215 Q347.236 764.914 345.28 764.312 L345.28 760.494 Q346.973 761.415 348.779 761.867 Q350.584 762.318 352.597 762.318 Q355.85 762.318 357.75 760.607 Q359.649 758.895 359.649 755.961 Q359.649 753.027 357.75 751.316 Q355.85 749.604 352.597 749.604 Q351.073 749.604 349.55 749.943 Q348.045 750.281 346.465 750.996 L346.465 736.89 Z" fill="#000000" fill-rule="evenodd" fill-opacity="1" /><path clip-path="url(#clip870)" d="M118.545 556.823 L126.184 556.823 L126.184 530.458 L117.874 532.124 L117.874 527.865 L126.138 526.198 L130.814 526.198 L130.814 556.823 L138.453 556.823 L138.453 560.758 L118.545 560.758 L118.545 556.823 Z" fill="#000000" fill-rule="evenodd" fill-opacity="1" /><path clip-path="url(#clip870)" d="M147.897 554.879 L152.781 554.879 L152.781 560.758 L147.897 560.758 L147.897 554.879 Z" fill="#000000" fill-rule="evenodd" fill-opacity="1" /><path clip-path="url(#clip870)" d="M163.013 526.198 L181.369 526.198 L181.369 530.134 L167.295 530.134 L167.295 538.606 Q168.314 538.259 169.332 538.097 Q170.351 537.911 171.369 537.911 Q177.156 537.911 180.536 541.083 Q183.915 544.254 183.915 549.671 Q183.915 555.249 180.443 558.351 Q176.971 561.43 170.652 561.43 Q168.476 561.43 166.207 561.059 Q163.962 560.689 161.554 559.948 L161.554 555.249 Q163.638 556.384 165.86 556.939 Q168.082 557.495 170.559 557.495 Q174.564 557.495 176.902 555.388 Q179.24 553.282 179.24 549.671 Q179.24 546.059 176.902 543.953 Q174.564 541.847 170.559 541.847 Q168.684 541.847 166.809 542.263 Q164.957 542.68 163.013 543.56 L163.013 526.198 Z" fill="#000000" fill-rule="evenodd" fill-opacity="1" /><path clip-path="url(#clip870)" d="M203.128 529.277 Q199.517 529.277 197.689 532.842 Q195.883 536.384 195.883 543.513 Q195.883 550.62 197.689 554.184 Q199.517 557.726 203.128 557.726 Q206.763 557.726 208.568 554.184 Q210.397 550.62 210.397 543.513 Q210.397 536.384 208.568 532.842 Q206.763 529.277 203.128 529.277 M203.128 525.573 Q208.938 525.573 211.994 530.18 Q215.073 534.763 215.073 543.513 Q215.073 552.24 211.994 556.846 Q208.938 561.43 203.128 561.43 Q197.318 561.43 194.239 556.846 Q191.184 552.24 191.184 543.513 Q191.184 534.763 194.239 530.18 Q197.318 525.573 203.128 525.573 Z" fill="#000000" fill-rule="evenodd" fill-opacity="1" /><path clip-path="url(#clip870)" d="M233.29 529.277 Q229.679 529.277 227.85 532.842 Q226.045 536.384 226.045 543.513 Q226.045 550.62 227.85 554.184 Q229.679 557.726 233.29 557.726 Q236.924 557.726 238.73 554.184 Q240.559 550.62 240.559 543.513 Q240.559 536.384 238.73 532.842 Q236.924 529.277 233.29 529.277 M233.29 525.573 Q239.1 525.573 242.156 530.18 Q245.235 534.763 245.235 543.513 Q245.235 552.24 242.156 556.846 Q239.1 561.43 233.29 561.43 Q227.48 561.43 224.401 556.846 Q221.346 552.24 221.346 543.513 Q221.346 534.763 224.401 530.18 Q227.48 525.573 233.29 525.573 Z" fill="#000000" fill-rule="evenodd" fill-opacity="1" /><path clip-path="url(#clip870)" d="M281.623 535.296 L271.045 545.921 L281.623 556.499 L278.869 559.3 L268.244 548.675 L257.619 559.3 L254.887 556.499 L265.443 545.921 L254.887 535.296 L257.619 532.495 L268.244 543.12 L278.869 532.495 L281.623 535.296 Z" fill="#000000" fill-rule="evenodd" fill-opacity="1" /><path clip-path="url(#clip870)" d="M293.984 556.823 L301.623 556.823 L301.623 530.458 L293.313 532.124 L293.313 527.865 L301.577 526.198 L306.253 526.198 L306.253 556.823 L313.892 556.823 L313.892 560.758 L293.984 560.758 L293.984 556.823 Z" fill="#000000" fill-rule="evenodd" fill-opacity="1" /><path clip-path="url(#clip870)" d="M333.336 529.277 Q329.725 529.277 327.896 532.842 Q326.091 536.384 326.091 543.513 Q326.091 550.62 327.896 554.184 Q329.725 557.726 333.336 557.726 Q336.97 557.726 338.776 554.184 Q340.604 550.62 340.604 543.513 Q340.604 536.384 338.776 532.842 Q336.97 529.277 333.336 529.277 M333.336 525.573 Q339.146 525.573 342.202 530.18 Q345.28 534.763 345.28 543.513 Q345.28 552.24 342.202 556.846 Q339.146 561.43 333.336 561.43 Q327.526 561.43 324.447 556.846 Q321.392 552.24 321.392 543.513 Q321.392 534.763 324.447 530.18 Q327.526 525.573 333.336 525.573 Z" fill="#000000" fill-rule="evenodd" fill-opacity="1" /><path clip-path="url(#clip870)" d="M346.465 505.268 L361.38 505.268 L361.38 508.465 L349.945 508.465 L349.945 515.349 Q350.772 515.067 351.6 514.935 Q352.427 514.785 353.255 514.785 Q357.957 514.785 360.703 517.361 Q363.449 519.938 363.449 524.339 Q363.449 528.872 360.627 531.392 Q357.806 533.894 352.672 533.894 Q350.904 533.894 349.061 533.593 Q347.236 533.292 345.28 532.69 L345.28 528.872 Q346.973 529.793 348.779 530.245 Q350.584 530.696 352.597 530.696 Q355.85 530.696 357.75 528.985 Q359.649 527.273 359.649 524.339 Q359.649 521.405 357.75 519.694 Q355.85 517.982 352.597 517.982 Q351.073 517.982 349.55 518.321 Q348.045 518.659 346.465 519.374 L346.465 505.268 Z" fill="#000000" fill-rule="evenodd" fill-opacity="1" /><path clip-path="url(#clip870)" d="M118.545 325.201 L126.184 325.201 L126.184 298.836 L117.874 300.502 L117.874 296.243 L126.138 294.576 L130.814 294.576 L130.814 325.201 L138.453 325.201 L138.453 329.136 L118.545 329.136 L118.545 325.201 Z" fill="#000000" fill-rule="evenodd" fill-opacity="1" /><path clip-path="url(#clip870)" d="M147.897 323.257 L152.781 323.257 L152.781 329.136 L147.897 329.136 L147.897 323.257 Z" fill="#000000" fill-rule="evenodd" fill-opacity="1" /><path clip-path="url(#clip870)" d="M161.786 294.576 L184.008 294.576 L184.008 296.567 L171.462 329.136 L166.578 329.136 L178.383 298.512 L161.786 298.512 L161.786 294.576 Z" fill="#000000" fill-rule="evenodd" fill-opacity="1" /><path clip-path="url(#clip870)" d="M193.175 294.576 L211.531 294.576 L211.531 298.512 L197.457 298.512 L197.457 306.984 Q198.476 306.637 199.494 306.475 Q200.513 306.289 201.531 306.289 Q207.318 306.289 210.698 309.461 Q214.077 312.632 214.077 318.049 Q214.077 323.627 210.605 326.729 Q207.133 329.808 200.814 329.808 Q198.638 329.808 196.369 329.437 Q194.124 329.067 191.716 328.326 L191.716 323.627 Q193.8 324.761 196.022 325.317 Q198.244 325.873 200.721 325.873 Q204.726 325.873 207.063 323.766 Q209.401 321.66 209.401 318.049 Q209.401 314.437 207.063 312.331 Q204.726 310.225 200.721 310.225 Q198.846 310.225 196.971 310.641 Q195.119 311.058 193.175 311.937 L193.175 294.576 Z" fill="#000000" fill-rule="evenodd" fill-opacity="1" /><path clip-path="url(#clip870)" d="M233.29 297.655 Q229.679 297.655 227.85 301.22 Q226.045 304.762 226.045 311.891 Q226.045 318.998 227.85 322.562 Q229.679 326.104 233.29 326.104 Q236.924 326.104 238.73 322.562 Q240.559 318.998 240.559 311.891 Q240.559 304.762 238.73 301.22 Q236.924 297.655 233.29 297.655 M233.29 293.951 Q239.1 293.951 242.156 298.558 Q245.235 303.141 245.235 311.891 Q245.235 320.618 242.156 325.224 Q239.1 329.808 233.29 329.808 Q227.48 329.808 224.401 325.224 Q221.346 320.618 221.346 311.891 Q221.346 303.141 224.401 298.558 Q227.48 293.951 233.29 293.951 Z" fill="#000000" fill-rule="evenodd" fill-opacity="1" /><path clip-path="url(#clip870)" d="M281.623 303.674 L271.045 314.299 L281.623 324.877 L278.869 327.678 L268.244 317.053 L257.619 327.678 L254.887 324.877 L265.443 314.299 L254.887 303.674 L257.619 300.873 L268.244 311.498 L278.869 300.873 L281.623 303.674 Z" fill="#000000" fill-rule="evenodd" fill-opacity="1" /><path clip-path="url(#clip870)" d="M293.984 325.201 L301.623 325.201 L301.623 298.836 L293.313 300.502 L293.313 296.243 L301.577 294.576 L306.253 294.576 L306.253 325.201 L313.892 325.201 L313.892 329.136 L293.984 329.136 L293.984 325.201 Z" fill="#000000" fill-rule="evenodd" fill-opacity="1" /><path clip-path="url(#clip870)" d="M333.336 297.655 Q329.725 297.655 327.896 301.22 Q326.091 304.762 326.091 311.891 Q326.091 318.998 327.896 322.562 Q329.725 326.104 333.336 326.104 Q336.97 326.104 338.776 322.562 Q340.604 318.998 340.604 311.891 Q340.604 304.762 338.776 301.22 Q336.97 297.655 333.336 297.655 M333.336 293.951 Q339.146 293.951 342.202 298.558 Q345.28 303.141 345.28 311.891 Q345.28 320.618 342.202 325.224 Q339.146 329.808 333.336 329.808 Q327.526 329.808 324.447 325.224 Q321.392 320.618 321.392 311.891 Q321.392 303.141 324.447 298.558 Q327.526 293.951 333.336 293.951 Z" fill="#000000" fill-rule="evenodd" fill-opacity="1" /><path clip-path="url(#clip870)" d="M346.465 273.646 L361.38 273.646 L361.38 276.843 L349.945 276.843 L349.945 283.727 Q350.772 283.445 351.6 283.313 Q352.427 283.163 353.255 283.163 Q357.957 283.163 360.703 285.739 Q363.449 288.316 363.449 292.717 Q363.449 297.25 360.627 299.77 Q357.806 302.271 352.672 302.271 Q350.904 302.271 349.061 301.971 Q347.236 301.67 345.28 301.068 L345.28 297.25 Q346.973 298.171 348.779 298.623 Q350.584 299.074 352.597 299.074 Q355.85 299.074 357.75 297.363 Q359.649 295.651 359.649 292.717 Q359.649 289.783 357.75 288.072 Q355.85 286.36 352.597 286.36 Q351.073 286.36 349.55 286.699 Q348.045 287.037 346.465 287.752 L346.465 273.646 Z" fill="#000000" fill-rule="evenodd" fill-opacity="1" /><path clip-path="url(#clip870)" d="M21.7677 1008.21 L39.6235 1008.21 L39.6235 1000.12 Q39.6235 995.634 37.3 993.183 Q34.9765 990.732 30.6797 990.732 Q26.4147 990.732 24.0912 993.183 Q21.7677 995.634 21.7677 1000.12 L21.7677 1008.21 M16.4842 1014.64 L16.4842 1000.12 Q16.4842 992.133 20.1126 988.058 Q23.7092 983.953 30.6797 983.953 Q37.7138 983.953 41.3104 988.058 Q44.907 992.133 44.907 1000.12 L44.907 1008.21 L64.0042 1008.21 L64.0042 1014.64 L16.4842 1014.64 Z" fill="#000000" fill-rule="evenodd" fill-opacity="1" /><path clip-path="url(#clip870)" d="M33.8307 956.071 Q33.2578 957.057 33.0032 958.235 Q32.7167 959.381 32.7167 960.781 Q32.7167 965.747 35.9632 968.42 Q39.1779 971.062 45.2253 971.062 L64.0042 971.062 L64.0042 976.95 L28.3562 976.95 L28.3562 971.062 L33.8944 971.062 Q30.6479 969.216 29.0883 966.256 Q27.4968 963.296 27.4968 959.063 Q27.4968 958.458 27.5923 957.726 Q27.656 956.994 27.8151 956.103 L33.8307 956.071 Z" fill="#000000" fill-rule="evenodd" fill-opacity="1" /><path clip-path="url(#clip870)" d="M44.7161 920.868 L47.5806 920.868 L47.5806 947.795 Q53.6281 947.413 56.8109 944.167 Q59.9619 940.889 59.9619 935.064 Q59.9619 931.69 59.1344 928.539 Q58.3069 925.356 56.6518 922.237 L62.1899 922.237 Q63.5267 925.388 64.227 928.698 Q64.9272 932.008 64.9272 935.414 Q64.9272 943.944 59.9619 948.941 Q54.9967 953.906 46.5303 953.906 Q37.7774 953.906 32.6531 949.196 Q27.4968 944.453 27.4968 936.433 Q27.4968 929.239 32.1438 925.07 Q36.7589 920.868 44.7161 920.868 M42.9973 926.725 Q38.1912 926.789 35.3266 929.43 Q32.4621 932.04 32.4621 936.369 Q32.4621 941.271 35.2312 944.231 Q38.0002 947.159 43.0292 947.604 L42.9973 926.725 Z" fill="#000000" fill-rule="evenodd" fill-opacity="1" /><path clip-path="url(#clip870)" d="M33.7671 887.799 L14.479 887.799 L14.479 881.942 L64.0042 881.942 L64.0042 887.799 L58.657 887.799 Q61.8398 889.645 63.3994 892.477 Q64.9272 895.278 64.9272 899.225 Q64.9272 905.686 59.771 909.76 Q54.6147 913.803 46.212 913.803 Q37.8093 913.803 32.6531 909.76 Q27.4968 905.686 27.4968 899.225 Q27.4968 895.278 29.0564 892.477 Q30.5842 889.645 33.7671 887.799 M46.212 907.755 Q52.6732 907.755 56.3653 905.113 Q60.0256 902.44 60.0256 897.793 Q60.0256 893.146 56.3653 890.472 Q52.6732 887.799 46.212 887.799 Q39.7508 887.799 36.0905 890.472 Q32.3984 893.146 32.3984 897.793 Q32.3984 902.44 36.0905 905.113 Q39.7508 907.755 46.212 907.755 Z" fill="#000000" fill-rule="evenodd" fill-opacity="1" /><path clip-path="url(#clip870)" d="M28.3562 869.879 L28.3562 864.023 L64.0042 864.023 L64.0042 869.879 L28.3562 869.879 M14.479 869.879 L14.479 864.023 L21.895 864.023 L21.895 869.879 L14.479 869.879 Z" fill="#000000" fill-rule="evenodd" fill-opacity="1" /><path clip-path="url(#clip870)" d="M29.7248 826.115 L35.1993 826.115 Q33.8307 828.598 33.1623 831.112 Q32.4621 833.595 32.4621 836.141 Q32.4621 841.838 36.0905 844.989 Q39.6872 848.14 46.212 848.14 Q52.7369 848.14 56.3653 844.989 Q59.9619 841.838 59.9619 836.141 Q59.9619 833.595 59.2935 831.112 Q58.5933 828.598 57.2247 826.115 L62.6355 826.115 Q63.7814 828.566 64.3543 831.207 Q64.9272 833.817 64.9272 836.777 Q64.9272 844.83 59.8664 849.573 Q54.8057 854.315 46.212 854.315 Q37.491 854.315 32.4939 849.541 Q27.4968 844.735 27.4968 836.396 Q27.4968 833.69 28.0697 831.112 Q28.6108 828.534 29.7248 826.115 Z" fill="#000000" fill-rule="evenodd" fill-opacity="1" /><path clip-path="url(#clip870)" d="M18.2347 810.137 L28.3562 810.137 L28.3562 798.074 L32.9077 798.074 L32.9077 810.137 L52.2594 810.137 Q56.6199 810.137 57.8613 808.959 Q59.1026 807.75 59.1026 804.09 L59.1026 798.074 L64.0042 798.074 L64.0042 804.09 Q64.0042 810.869 61.4897 813.447 Q58.9434 816.025 52.2594 816.025 L32.9077 816.025 L32.9077 820.322 L28.3562 820.322 L28.3562 816.025 L18.2347 816.025 L18.2347 810.137 Z" fill="#000000" fill-rule="evenodd" fill-opacity="1" /><path clip-path="url(#clip870)" d="M44.7161 759.88 L47.5806 759.88 L47.5806 786.807 Q53.6281 786.425 56.8109 783.178 Q59.9619 779.9 59.9619 774.075 Q59.9619 770.701 59.1344 767.55 Q58.3069 764.368 56.6518 761.248 L62.1899 761.248 Q63.5267 764.399 64.227 767.71 Q64.9272 771.02 64.9272 774.425 Q64.9272 782.955 59.9619 787.953 Q54.9967 792.918 46.5303 792.918 Q37.7774 792.918 32.6531 788.207 Q27.4968 783.465 27.4968 775.444 Q27.4968 768.251 32.1438 764.081 Q36.7589 759.88 44.7161 759.88 M42.9973 765.736 Q38.1912 765.8 35.3266 768.442 Q32.4621 771.052 32.4621 775.38 Q32.4621 780.282 35.2312 783.242 Q38.0002 786.17 43.0292 786.616 L42.9973 765.736 Z" fill="#000000" fill-rule="evenodd" fill-opacity="1" /><path clip-path="url(#clip870)" d="M33.7671 726.81 L14.479 726.81 L14.479 720.953 L64.0042 720.953 L64.0042 726.81 L58.657 726.81 Q61.8398 728.656 63.3994 731.489 Q64.9272 734.29 64.9272 738.236 Q64.9272 744.698 59.771 748.772 Q54.6147 752.814 46.212 752.814 Q37.8093 752.814 32.6531 748.772 Q27.4968 744.698 27.4968 738.236 Q27.4968 734.29 29.0564 731.489 Q30.5842 728.656 33.7671 726.81 M46.212 746.766 Q52.6732 746.766 56.3653 744.125 Q60.0256 741.451 60.0256 736.804 Q60.0256 732.157 56.3653 729.483 Q52.6732 726.81 46.212 726.81 Q39.7508 726.81 36.0905 729.483 Q32.3984 732.157 32.3984 736.804 Q32.3984 741.451 36.0905 744.125 Q39.7508 746.766 46.212 746.766 Z" fill="#000000" fill-rule="evenodd" fill-opacity="1" /><path clip-path="url(#clip870)" d="M28.3562 692.371 L28.3562 686.165 L58.275 675.025 L28.3562 663.885 L28.3562 657.678 L64.0042 671.046 L64.0042 679.003 L28.3562 692.371 Z" fill="#000000" fill-rule="evenodd" fill-opacity="1" /><path clip-path="url(#clip870)" d="M46.0847 633.393 Q46.0847 640.491 47.7079 643.228 Q49.3312 645.965 53.2461 645.965 Q56.3653 645.965 58.2114 643.928 Q60.0256 641.86 60.0256 638.327 Q60.0256 633.457 56.5881 630.529 Q53.1188 627.569 47.3897 627.569 L46.0847 627.569 L46.0847 633.393 M43.6657 621.712 L64.0042 621.712 L64.0042 627.569 L58.5933 627.569 Q61.8398 629.574 63.3994 632.566 Q64.9272 635.557 64.9272 639.886 Q64.9272 645.361 61.8716 648.607 Q58.7843 651.822 53.6281 651.822 Q47.6125 651.822 44.5569 647.811 Q41.5014 643.769 41.5014 635.78 L41.5014 627.569 L40.9285 627.569 Q36.8862 627.569 34.6901 630.242 Q32.4621 632.884 32.4621 637.69 Q32.4621 640.746 33.1941 643.642 Q33.9262 646.538 35.3903 649.212 L29.9795 649.212 Q28.7381 645.997 28.1334 642.974 Q27.4968 639.95 27.4968 637.085 Q27.4968 629.351 31.5072 625.531 Q35.5176 621.712 43.6657 621.712 Z" fill="#000000" fill-rule="evenodd" fill-opacity="1" /><path clip-path="url(#clip870)" d="M14.479 609.649 L14.479 603.793 L64.0042 603.793 L64.0042 609.649 L14.479 609.649 Z" fill="#000000" fill-rule="evenodd" fill-opacity="1" /><path clip-path="url(#clip870)" d="M49.9359 592.143 L28.3562 592.143 L28.3562 586.287 L49.7131 586.287 Q54.7739 586.287 57.3202 584.314 Q59.8346 582.34 59.8346 578.393 Q59.8346 573.651 56.8109 570.914 Q53.7872 568.145 48.5673 568.145 L28.3562 568.145 L28.3562 562.288 L64.0042 562.288 L64.0042 568.145 L58.5296 568.145 Q61.7762 570.277 63.3676 573.11 Q64.9272 575.911 64.9272 579.635 Q64.9272 585.778 61.1078 588.961 Q57.2883 592.143 49.9359 592.143 M27.4968 577.407 L27.4968 577.407 Z" fill="#000000" fill-rule="evenodd" fill-opacity="1" /><path clip-path="url(#clip870)" d="M44.7161 519.733 L47.5806 519.733 L47.5806 546.66 Q53.6281 546.278 56.8109 543.032 Q59.9619 539.754 59.9619 533.929 Q59.9619 530.555 59.1344 527.404 Q58.3069 524.221 56.6518 521.102 L62.1899 521.102 Q63.5267 524.253 64.227 527.563 Q64.9272 530.873 64.9272 534.279 Q64.9272 542.809 59.9619 547.806 Q54.9967 552.771 46.5303 552.771 Q37.7774 552.771 32.6531 548.061 Q27.4968 543.318 27.4968 535.298 Q27.4968 528.104 32.1438 523.935 Q36.7589 519.733 44.7161 519.733 M42.9973 525.59 Q38.1912 525.654 35.3266 528.295 Q32.4621 530.905 32.4621 535.234 Q32.4621 540.136 35.2312 543.096 Q38.0002 546.024 43.0292 546.469 L42.9973 525.59 Z" fill="#000000" fill-rule="evenodd" fill-opacity="1" /><path clip-path="url(#clip870)" d="M469.976 18.8205 L469.976 41.5461 L480.265 41.5461 Q485.977 41.5461 489.096 38.5889 Q492.215 35.6318 492.215 30.163 Q492.215 24.7348 489.096 21.7777 Q485.977 18.8205 480.265 18.8205 L469.976 18.8205 M461.793 12.096 L480.265 12.096 Q490.433 12.096 495.618 16.714 Q500.844 21.2916 500.844 30.163 Q500.844 39.1155 495.618 43.6931 Q490.433 48.2706 480.265 48.2706 L469.976 48.2706 L469.976 72.576 L461.793 72.576 L461.793 12.096 Z" fill="#000000" fill-rule="evenodd" fill-opacity="1" /><path clip-path="url(#clip870)" d="M536.33 34.1734 Q535.074 33.4443 533.575 33.1202 Q532.117 32.7556 530.334 32.7556 Q524.015 32.7556 520.612 36.8875 Q517.25 40.9789 517.25 48.6757 L517.25 72.576 L509.756 72.576 L509.756 27.2059 L517.25 27.2059 L517.25 34.2544 Q519.599 30.1225 523.367 28.1376 Q527.134 26.1121 532.522 26.1121 Q533.291 26.1121 534.223 26.2337 Q535.155 26.3147 536.289 26.5172 L536.33 34.1734 Z" fill="#000000" fill-rule="evenodd" fill-opacity="1" /><path clip-path="url(#clip870)" d="M581.133 48.0275 L581.133 51.6733 L546.862 51.6733 Q547.348 59.3701 551.48 63.421 Q555.652 67.4314 563.066 67.4314 Q567.359 67.4314 571.37 66.3781 Q575.421 65.3249 579.391 63.2184 L579.391 70.267 Q575.38 71.9684 571.167 72.8596 Q566.954 73.7508 562.62 73.7508 Q551.764 73.7508 545.404 67.4314 Q539.084 61.1119 539.084 50.3365 Q539.084 39.1965 545.08 32.6746 Q551.115 26.1121 561.324 26.1121 Q570.479 26.1121 575.785 32.0264 Q581.133 37.9003 581.133 48.0275 M573.679 45.84 Q573.598 39.7232 570.236 36.0774 Q566.914 32.4315 561.405 32.4315 Q555.166 32.4315 551.399 35.9558 Q547.672 39.4801 547.105 45.8805 L573.679 45.84 Z" fill="#000000" fill-rule="evenodd" fill-opacity="1" /><path clip-path="url(#clip870)" d="M623.221 34.0924 L623.221 9.54393 L630.675 9.54393 L630.675 72.576 L623.221 72.576 L623.221 65.7705 Q620.872 69.8214 617.267 71.8063 Q613.702 73.7508 608.679 73.7508 Q600.455 73.7508 595.27 67.1883 Q590.126 60.6258 590.126 49.9314 Q590.126 39.2371 595.27 32.6746 Q600.455 26.1121 608.679 26.1121 Q613.702 26.1121 617.267 28.0971 Q620.872 30.0415 623.221 34.0924 M597.822 49.9314 Q597.822 58.1548 601.185 62.8538 Q604.587 67.5124 610.502 67.5124 Q616.416 67.5124 619.819 62.8538 Q623.221 58.1548 623.221 49.9314 Q623.221 41.7081 619.819 37.0496 Q616.416 32.3505 610.502 32.3505 Q604.587 32.3505 601.185 37.0496 Q597.822 41.7081 597.822 49.9314 Z" fill="#000000" fill-rule="evenodd" fill-opacity="1" /><path clip-path="url(#clip870)" d="M646.028 27.2059 L653.482 27.2059 L653.482 72.576 L646.028 72.576 L646.028 27.2059 M646.028 9.54393 L653.482 9.54393 L653.482 18.9825 L646.028 18.9825 L646.028 9.54393 Z" fill="#000000" fill-rule="evenodd" fill-opacity="1" /><path clip-path="url(#clip870)" d="M701.728 28.9478 L701.728 35.9153 Q698.568 34.1734 695.368 33.3227 Q692.208 32.4315 688.968 32.4315 Q681.717 32.4315 677.706 37.0496 Q673.696 41.6271 673.696 49.9314 Q673.696 58.2358 677.706 62.8538 Q681.717 67.4314 688.968 67.4314 Q692.208 67.4314 695.368 66.5807 Q698.568 65.6895 701.728 63.9476 L701.728 70.8341 Q698.609 72.2924 695.247 73.0216 Q691.925 73.7508 688.157 73.7508 Q677.909 73.7508 671.873 67.3098 Q665.837 60.8689 665.837 49.9314 Q665.837 38.832 671.913 32.472 Q678.03 26.1121 688.644 26.1121 Q692.087 26.1121 695.368 26.8413 Q698.649 27.5299 701.728 28.9478 Z" fill="#000000" fill-rule="evenodd" fill-opacity="1" /><path clip-path="url(#clip870)" d="M722.064 14.324 L722.064 27.2059 L737.416 27.2059 L737.416 32.9987 L722.064 32.9987 L722.064 57.6282 Q722.064 63.1779 723.562 64.7578 Q725.102 66.3376 729.76 66.3376 L737.416 66.3376 L737.416 72.576 L729.76 72.576 Q721.132 72.576 717.851 69.3758 Q714.569 66.1351 714.569 57.6282 L714.569 32.9987 L709.101 32.9987 L709.101 27.2059 L714.569 27.2059 L714.569 14.324 L722.064 14.324 Z" fill="#000000" fill-rule="evenodd" fill-opacity="1" /><path clip-path="url(#clip870)" d="M786.027 48.0275 L786.027 51.6733 L751.757 51.6733 Q752.243 59.3701 756.375 63.421 Q760.547 67.4314 767.96 67.4314 Q772.254 67.4314 776.265 66.3781 Q780.316 65.3249 784.285 63.2184 L784.285 70.267 Q780.275 71.9684 776.062 72.8596 Q771.849 73.7508 767.515 73.7508 Q756.658 73.7508 750.298 67.4314 Q743.979 61.1119 743.979 50.3365 Q743.979 39.1965 749.974 32.6746 Q756.01 26.1121 766.218 26.1121 Q775.373 26.1121 780.68 32.0264 Q786.027 37.9003 786.027 48.0275 M778.574 45.84 Q778.493 39.7232 775.13 36.0774 Q771.809 32.4315 766.299 32.4315 Q760.061 32.4315 756.294 35.9558 Q752.567 39.4801 752 45.8805 L778.574 45.84 Z" fill="#000000" fill-rule="evenodd" fill-opacity="1" /><path clip-path="url(#clip870)" d="M828.116 34.0924 L828.116 9.54393 L835.57 9.54393 L835.57 72.576 L828.116 72.576 L828.116 65.7705 Q825.767 69.8214 822.161 71.8063 Q818.597 73.7508 813.573 73.7508 Q805.35 73.7508 800.165 67.1883 Q795.02 60.6258 795.02 49.9314 Q795.02 39.2371 800.165 32.6746 Q805.35 26.1121 813.573 26.1121 Q818.597 26.1121 822.161 28.0971 Q825.767 30.0415 828.116 34.0924 M802.717 49.9314 Q802.717 58.1548 806.079 62.8538 Q809.482 67.5124 815.396 67.5124 Q821.311 67.5124 824.713 62.8538 Q828.116 58.1548 828.116 49.9314 Q828.116 41.7081 824.713 37.0496 Q821.311 32.3505 815.396 32.3505 Q809.482 32.3505 806.079 37.0496 Q802.717 41.7081 802.717 49.9314 Z" fill="#000000" fill-rule="evenodd" fill-opacity="1" /><path clip-path="url(#clip870)" d="M871.947 27.2059 L879.846 27.2059 L894.024 65.2844 L908.203 27.2059 L916.102 27.2059 L899.088 72.576 L888.961 72.576 L871.947 27.2059 Z" fill="#000000" fill-rule="evenodd" fill-opacity="1" /><path clip-path="url(#clip870)" d="M947.01 49.7694 Q937.977 49.7694 934.493 51.8354 Q931.009 53.9013 931.009 58.8839 Q931.009 62.8538 933.602 65.2034 Q936.235 67.5124 940.731 67.5124 Q946.929 67.5124 950.656 63.1374 Q954.423 58.7219 954.423 51.4303 L954.423 49.7694 L947.01 49.7694 M961.877 46.6907 L961.877 72.576 L954.423 72.576 L954.423 65.6895 Q951.871 69.8214 948.063 71.8063 Q944.256 73.7508 938.746 73.7508 Q931.779 73.7508 927.647 69.8619 Q923.556 65.9325 923.556 59.3701 Q923.556 51.7138 928.66 47.825 Q933.804 43.9361 943.972 43.9361 L954.423 43.9361 L954.423 43.2069 Q954.423 38.0623 951.021 35.2672 Q947.658 32.4315 941.542 32.4315 Q937.653 32.4315 933.966 33.3632 Q930.28 34.295 926.877 36.1584 L926.877 29.2718 Q930.969 27.692 934.817 26.9223 Q938.665 26.1121 942.311 26.1121 Q952.155 26.1121 957.016 31.2163 Q961.877 36.3204 961.877 46.6907 Z" fill="#000000" fill-rule="evenodd" fill-opacity="1" /><path clip-path="url(#clip870)" d="M977.23 9.54393 L984.684 9.54393 L984.684 72.576 L977.23 72.576 L977.23 9.54393 Z" fill="#000000" fill-rule="evenodd" fill-opacity="1" /><path clip-path="url(#clip870)" d="M999.51 54.671 L999.51 27.2059 L1006.96 27.2059 L1006.96 54.3874 Q1006.96 60.8284 1009.48 64.0691 Q1011.99 67.2693 1017.01 67.2693 Q1023.05 67.2693 1026.53 63.421 Q1030.05 59.5726 1030.05 52.9291 L1030.05 27.2059 L1037.51 27.2059 L1037.51 72.576 L1030.05 72.576 L1030.05 65.6084 Q1027.34 69.7404 1023.73 71.7658 Q1020.17 73.7508 1015.43 73.7508 Q1007.61 73.7508 1003.56 68.8897 Q999.51 64.0286 999.51 54.671 M1018.27 26.1121 L1018.27 26.1121 Z" fill="#000000" fill-rule="evenodd" fill-opacity="1" /><path clip-path="url(#clip870)" d="M1091.67 48.0275 L1091.67 51.6733 L1057.4 51.6733 Q1057.88 59.3701 1062.02 63.421 Q1066.19 67.4314 1073.6 67.4314 Q1077.89 67.4314 1081.91 66.3781 Q1085.96 65.3249 1089.93 63.2184 L1089.93 70.267 Q1085.92 71.9684 1081.7 72.8596 Q1077.49 73.7508 1073.16 73.7508 Q1062.3 73.7508 1055.94 67.4314 Q1049.62 61.1119 1049.62 50.3365 Q1049.62 39.1965 1055.61 32.6746 Q1061.65 26.1121 1071.86 26.1121 Q1081.01 26.1121 1086.32 32.0264 Q1091.67 37.9003 1091.67 48.0275 M1084.21 45.84 Q1084.13 39.7232 1080.77 36.0774 Q1077.45 32.4315 1071.94 32.4315 Q1065.7 32.4315 1061.93 35.9558 Q1058.21 39.4801 1057.64 45.8805 L1084.21 45.84 Z" fill="#000000" fill-rule="evenodd" fill-opacity="1" /><path clip-path="url(#clip870)" d="M1124.93 27.2059 L1132.83 27.2059 L1147 65.2844 L1161.18 27.2059 L1169.08 27.2059 L1152.07 72.576 L1141.94 72.576 L1124.93 27.2059 Z" fill="#000000" fill-rule="evenodd" fill-opacity="1" /><path clip-path="url(#clip870)" d="M1208.29 28.5427 L1208.29 35.5912 Q1205.13 33.9709 1201.73 33.1607 Q1198.33 32.3505 1194.68 32.3505 Q1189.13 32.3505 1186.34 34.0519 Q1183.58 35.7533 1183.58 39.156 Q1183.58 41.7486 1185.57 43.2475 Q1187.55 44.7058 1193.55 46.0426 L1196.1 46.6097 Q1204.04 48.3111 1207.36 51.4303 Q1210.72 54.509 1210.72 60.0587 Q1210.72 66.3781 1205.7 70.0644 Q1200.72 73.7508 1191.97 73.7508 Q1188.32 73.7508 1184.35 73.0216 Q1180.42 72.3329 1176.05 70.9151 L1176.05 63.2184 Q1180.18 65.3654 1184.19 66.4591 Q1188.2 67.5124 1192.13 67.5124 Q1197.4 67.5124 1200.23 65.73 Q1203.07 63.9071 1203.07 60.6258 Q1203.07 57.5877 1201 55.9673 Q1198.98 54.3469 1192.05 52.8481 L1189.46 52.2405 Q1182.53 50.7821 1179.45 47.7845 Q1176.37 44.7463 1176.37 39.4801 Q1176.37 33.0797 1180.91 29.5959 Q1185.45 26.1121 1193.79 26.1121 Q1197.92 26.1121 1201.57 26.7198 Q1205.21 27.3274 1208.29 28.5427 Z" fill="#000000" fill-rule="evenodd" fill-opacity="1" /><path clip-path="url(#clip870)" d="M1269.5 20.1573 L1258.4 50.2555 L1280.64 50.2555 L1269.5 20.1573 M1264.88 12.096 L1274.16 12.096 L1297.21 72.576 L1288.7 72.576 L1283.19 57.061 L1255.93 57.061 L1250.42 72.576 L1241.79 72.576 L1264.88 12.096 Z" fill="#000000" fill-rule="evenodd" fill-opacity="1" /><path clip-path="url(#clip870)" d="M1336.91 28.9478 L1336.91 35.9153 Q1333.75 34.1734 1330.55 33.3227 Q1327.39 32.4315 1324.15 32.4315 Q1316.9 32.4315 1312.89 37.0496 Q1308.88 41.6271 1308.88 49.9314 Q1308.88 58.2358 1312.89 62.8538 Q1316.9 67.4314 1324.15 67.4314 Q1327.39 67.4314 1330.55 66.5807 Q1333.75 65.6895 1336.91 63.9476 L1336.91 70.8341 Q1333.79 72.2924 1330.43 73.0216 Q1327.11 73.7508 1323.34 73.7508 Q1313.09 73.7508 1307.05 67.3098 Q1301.02 60.8689 1301.02 49.9314 Q1301.02 38.832 1307.1 32.472 Q1313.21 26.1121 1323.83 26.1121 Q1327.27 26.1121 1330.55 26.8413 Q1333.83 27.5299 1336.91 28.9478 Z" fill="#000000" fill-rule="evenodd" fill-opacity="1" /><path clip-path="url(#clip870)" d="M1357.25 14.324 L1357.25 27.2059 L1372.6 27.2059 L1372.6 32.9987 L1357.25 32.9987 L1357.25 57.6282 Q1357.25 63.1779 1358.74 64.7578 Q1360.28 66.3376 1364.94 66.3376 L1372.6 66.3376 L1372.6 72.576 L1364.94 72.576 Q1356.31 72.576 1353.03 69.3758 Q1349.75 66.1351 1349.75 57.6282 L1349.75 32.9987 L1344.28 32.9987 L1344.28 27.2059 L1349.75 27.2059 L1349.75 14.324 L1357.25 14.324 Z" fill="#000000" fill-rule="evenodd" fill-opacity="1" /><path clip-path="url(#clip870)" d="M1381.63 54.671 L1381.63 27.2059 L1389.09 27.2059 L1389.09 54.3874 Q1389.09 60.8284 1391.6 64.0691 Q1394.11 67.2693 1399.13 67.2693 Q1405.17 67.2693 1408.65 63.421 Q1412.18 59.5726 1412.18 52.9291 L1412.18 27.2059 L1419.63 27.2059 L1419.63 72.576 L1412.18 72.576 L1412.18 65.6084 Q1409.46 69.7404 1405.86 71.7658 Q1402.29 73.7508 1397.55 73.7508 Q1389.73 73.7508 1385.68 68.8897 Q1381.63 64.0286 1381.63 54.671 M1400.39 26.1121 L1400.39 26.1121 Z" fill="#000000" fill-rule="evenodd" fill-opacity="1" /><path clip-path="url(#clip870)" d="M1455.6 49.7694 Q1446.57 49.7694 1443.08 51.8354 Q1439.6 53.9013 1439.6 58.8839 Q1439.6 62.8538 1442.19 65.2034 Q1444.83 67.5124 1449.32 67.5124 Q1455.52 67.5124 1459.25 63.1374 Q1463.01 58.7219 1463.01 51.4303 L1463.01 49.7694 L1455.6 49.7694 M1470.47 46.6907 L1470.47 72.576 L1463.01 72.576 L1463.01 65.6895 Q1460.46 69.8214 1456.65 71.8063 Q1452.85 73.7508 1447.34 73.7508 Q1440.37 73.7508 1436.24 69.8619 Q1432.15 65.9325 1432.15 59.3701 Q1432.15 51.7138 1437.25 47.825 Q1442.4 43.9361 1452.56 43.9361 L1463.01 43.9361 L1463.01 43.2069 Q1463.01 38.0623 1459.61 35.2672 Q1456.25 32.4315 1450.13 32.4315 Q1446.24 32.4315 1442.56 33.3632 Q1438.87 34.295 1435.47 36.1584 L1435.47 29.2718 Q1439.56 27.692 1443.41 26.9223 Q1447.26 26.1121 1450.9 26.1121 Q1460.75 26.1121 1465.61 31.2163 Q1470.47 36.3204 1470.47 46.6907 Z" fill="#000000" fill-rule="evenodd" fill-opacity="1" /><path clip-path="url(#clip870)" d="M1485.82 9.54393 L1493.27 9.54393 L1493.27 72.576 L1485.82 72.576 L1485.82 9.54393 Z" fill="#000000" fill-rule="evenodd" fill-opacity="1" /><path clip-path="url(#clip870)" d="M1529.89 27.2059 L1537.79 27.2059 L1551.97 65.2844 L1566.15 27.2059 L1574.05 27.2059 L1557.04 72.576 L1546.91 72.576 L1529.89 27.2059 Z" fill="#000000" fill-rule="evenodd" fill-opacity="1" /><path clip-path="url(#clip870)" d="M1604.96 49.7694 Q1595.92 49.7694 1592.44 51.8354 Q1588.96 53.9013 1588.96 58.8839 Q1588.96 62.8538 1591.55 65.2034 Q1594.18 67.5124 1598.68 67.5124 Q1604.88 67.5124 1608.6 63.1374 Q1612.37 58.7219 1612.37 51.4303 L1612.37 49.7694 L1604.96 49.7694 M1619.82 46.6907 L1619.82 72.576 L1612.37 72.576 L1612.37 65.6895 Q1609.82 69.8214 1606.01 71.8063 Q1602.2 73.7508 1596.69 73.7508 Q1589.73 73.7508 1585.59 69.8619 Q1581.5 65.9325 1581.5 59.3701 Q1581.5 51.7138 1586.61 47.825 Q1591.75 43.9361 1601.92 43.9361 L1612.37 43.9361 L1612.37 43.2069 Q1612.37 38.0623 1608.97 35.2672 Q1605.61 32.4315 1599.49 32.4315 Q1595.6 32.4315 1591.91 33.3632 Q1588.23 34.295 1584.83 36.1584 L1584.83 29.2718 Q1588.92 27.692 1592.76 26.9223 Q1596.61 26.1121 1600.26 26.1121 Q1610.1 26.1121 1614.96 31.2163 Q1619.82 36.3204 1619.82 46.6907 Z" fill="#000000" fill-rule="evenodd" fill-opacity="1" /><path clip-path="url(#clip870)" d="M1635.18 9.54393 L1642.63 9.54393 L1642.63 72.576 L1635.18 72.576 L1635.18 9.54393 Z" fill="#000000" fill-rule="evenodd" fill-opacity="1" /><path clip-path="url(#clip870)" d="M1657.46 54.671 L1657.46 27.2059 L1664.91 27.2059 L1664.91 54.3874 Q1664.91 60.8284 1667.42 64.0691 Q1669.93 67.2693 1674.96 67.2693 Q1680.99 67.2693 1684.48 63.421 Q1688 59.5726 1688 52.9291 L1688 27.2059 L1695.46 27.2059 L1695.46 72.576 L1688 72.576 L1688 65.6084 Q1685.29 69.7404 1681.68 71.7658 Q1678.12 73.7508 1673.38 73.7508 Q1665.56 73.7508 1661.51 68.8897 Q1657.46 64.0286 1657.46 54.671 M1676.21 26.1121 L1676.21 26.1121 Z" fill="#000000" fill-rule="evenodd" fill-opacity="1" /><path clip-path="url(#clip870)" d="M1749.62 48.0275 L1749.62 51.6733 L1715.35 51.6733 Q1715.83 59.3701 1719.96 63.421 Q1724.14 67.4314 1731.55 67.4314 Q1735.84 67.4314 1739.85 66.3781 Q1743.9 65.3249 1747.87 63.2184 L1747.87 70.267 Q1743.86 71.9684 1739.65 72.8596 Q1735.44 73.7508 1731.1 73.7508 Q1720.25 73.7508 1713.89 67.4314 Q1707.57 61.1119 1707.57 50.3365 Q1707.57 39.1965 1713.56 32.6746 Q1719.6 26.1121 1729.81 26.1121 Q1738.96 26.1121 1744.27 32.0264 Q1749.62 37.9003 1749.62 48.0275 M1742.16 45.84 Q1742.08 39.7232 1738.72 36.0774 Q1735.4 32.4315 1729.89 32.4315 Q1723.65 32.4315 1719.88 35.9558 Q1716.16 39.4801 1715.59 45.8805 L1742.16 45.84 Z" fill="#000000" fill-rule="evenodd" fill-opacity="1" /><path clip-path="url(#clip870)" d="M1805.8 32.4315 Q1799.81 32.4315 1796.32 37.1306 Q1792.84 41.7891 1792.84 49.9314 Q1792.84 58.0738 1796.28 62.7728 Q1799.77 67.4314 1805.8 67.4314 Q1811.76 67.4314 1815.24 62.7323 Q1818.72 58.0333 1818.72 49.9314 Q1818.72 41.8701 1815.24 37.1711 Q1811.76 32.4315 1805.8 32.4315 M1805.8 26.1121 Q1815.52 26.1121 1821.07 32.4315 Q1826.62 38.7509 1826.62 49.9314 Q1826.62 61.0714 1821.07 67.4314 Q1815.52 73.7508 1805.8 73.7508 Q1796.04 73.7508 1790.49 67.4314 Q1784.98 61.0714 1784.98 49.9314 Q1784.98 38.7509 1790.49 32.4315 Q1796.04 26.1121 1805.8 26.1121 Z" fill="#000000" fill-rule="evenodd" fill-opacity="1" /><path clip-path="url(#clip870)" d="M1876.69 45.1919 L1876.69 72.576 L1869.24 72.576 L1869.24 45.4349 Q1869.24 38.994 1866.73 35.7938 Q1864.22 32.5936 1859.19 32.5936 Q1853.16 32.5936 1849.67 36.4419 Q1846.19 40.2903 1846.19 46.9338 L1846.19 72.576 L1838.7 72.576 L1838.7 27.2059 L1846.19 27.2059 L1846.19 34.2544 Q1848.86 30.163 1852.47 28.1376 Q1856.11 26.1121 1860.85 26.1121 Q1868.67 26.1121 1872.68 30.9732 Q1876.69 35.7938 1876.69 45.1919 Z" fill="#000000" fill-rule="evenodd" fill-opacity="1" /><path clip-path="url(#clip870)" d="M1909.87 12.096 L1961.03 12.096 L1961.03 18.9825 L1939.56 18.9825 L1939.56 72.576 L1931.34 72.576 L1931.34 18.9825 L1909.87 18.9825 L1909.87 12.096 Z" fill="#000000" fill-rule="evenodd" fill-opacity="1" /><path clip-path="url(#clip870)" d="M1993.32 48.0275 L1993.32 51.6733 L1959.05 51.6733 Q1959.53 59.3701 1963.67 63.421 Q1967.84 67.4314 1975.25 67.4314 Q1979.55 67.4314 1983.56 66.3781 Q1987.61 65.3249 1991.58 63.2184 L1991.58 70.267 Q1987.57 71.9684 1983.35 72.8596 Q1979.14 73.7508 1974.81 73.7508 Q1963.95 73.7508 1957.59 67.4314 Q1951.27 61.1119 1951.27 50.3365 Q1951.27 39.1965 1957.27 32.6746 Q1963.3 26.1121 1973.51 26.1121 Q1982.66 26.1121 1987.97 32.0264 Q1993.32 37.9003 1993.32 48.0275 M1985.86 45.84 Q1985.78 39.7232 1982.42 36.0774 Q1979.1 32.4315 1973.59 32.4315 Q1967.35 32.4315 1963.58 35.9558 Q1959.86 39.4801 1959.29 45.8805 L1985.86 45.84 Z" fill="#000000" fill-rule="evenodd" fill-opacity="1" /><path clip-path="url(#clip870)" d="M2034.48 28.5427 L2034.48 35.5912 Q2031.32 33.9709 2027.91 33.1607 Q2024.51 32.3505 2020.86 32.3505 Q2015.31 32.3505 2012.52 34.0519 Q2009.76 35.7533 2009.76 39.156 Q2009.76 41.7486 2011.75 43.2475 Q2013.73 44.7058 2019.73 46.0426 L2022.28 46.6097 Q2030.22 48.3111 2033.54 51.4303 Q2036.91 54.509 2036.91 60.0587 Q2036.91 66.3781 2031.88 70.0644 Q2026.9 73.7508 2018.15 73.7508 Q2014.5 73.7508 2010.53 73.0216 Q2006.61 72.3329 2002.23 70.9151 L2002.23 63.2184 Q2006.36 65.3654 2010.37 66.4591 Q2014.38 67.5124 2018.31 67.5124 Q2023.58 67.5124 2026.41 65.73 Q2029.25 63.9071 2029.25 60.6258 Q2029.25 57.5877 2027.18 55.9673 Q2025.16 54.3469 2018.23 52.8481 L2015.64 52.2405 Q2008.71 50.7821 2005.63 47.7845 Q2002.55 44.7463 2002.55 39.4801 Q2002.55 33.0797 2007.09 29.5959 Q2011.63 26.1121 2019.97 26.1121 Q2024.11 26.1121 2027.75 26.7198 Q2031.4 27.3274 2034.48 28.5427 Z" fill="#000000" fill-rule="evenodd" fill-opacity="1" /><path clip-path="url(#clip870)" d="M2056.15 14.324 L2056.15 27.2059 L2071.5 27.2059 L2071.5 32.9987 L2056.15 32.9987 L2056.15 57.6282 Q2056.15 63.1779 2057.65 64.7578 Q2059.19 66.3376 2063.84 66.3376 L2071.5 66.3376 L2071.5 72.576 L2063.84 72.576 Q2055.22 72.576 2051.93 69.3758 Q2048.65 66.1351 2048.65 57.6282 L2048.65 32.9987 L2043.18 32.9987 L2043.18 27.2059 L2048.65 27.2059 L2048.65 14.324 L2056.15 14.324 Z" fill="#000000" fill-rule="evenodd" fill-opacity="1" /><path clip-path="url(#clip870)" d="M2116.18 18.8205 L2116.18 65.8515 L2126.07 65.8515 Q2138.58 65.8515 2144.38 60.1802 Q2150.21 54.509 2150.21 42.2752 Q2150.21 30.1225 2144.38 24.4918 Q2138.58 18.8205 2126.07 18.8205 L2116.18 18.8205 M2108 12.096 L2124.81 12.096 Q2142.39 12.096 2150.61 19.4281 Q2158.84 26.7198 2158.84 42.2752 Q2158.84 57.9117 2150.57 65.2439 Q2142.31 72.576 2124.81 72.576 L2108 72.576 L2108 12.096 Z" fill="#000000" fill-rule="evenodd" fill-opacity="1" /><path clip-path="url(#clip870)" d="M2192.18 49.7694 Q2183.14 49.7694 2179.66 51.8354 Q2176.18 53.9013 2176.18 58.8839 Q2176.18 62.8538 2178.77 65.2034 Q2181.4 67.5124 2185.9 67.5124 Q2192.1 67.5124 2195.82 63.1374 Q2199.59 58.7219 2199.59 51.4303 L2199.59 49.7694 L2192.18 49.7694 M2207.04 46.6907 L2207.04 72.576 L2199.59 72.576 L2199.59 65.6895 Q2197.04 69.8214 2193.23 71.8063 Q2189.42 73.7508 2183.91 73.7508 Q2176.95 73.7508 2172.81 69.8619 Q2168.72 65.9325 2168.72 59.3701 Q2168.72 51.7138 2173.83 47.825 Q2178.97 43.9361 2189.14 43.9361 L2199.59 43.9361 L2199.59 43.2069 Q2199.59 38.0623 2196.19 35.2672 Q2192.83 32.4315 2186.71 32.4315 Q2182.82 32.4315 2179.13 33.3632 Q2175.45 34.295 2172.04 36.1584 L2172.04 29.2718 Q2176.14 27.692 2179.98 26.9223 Q2183.83 26.1121 2187.48 26.1121 Q2197.32 26.1121 2202.18 31.2163 Q2207.04 36.3204 2207.04 46.6907 Z" fill="#000000" fill-rule="evenodd" fill-opacity="1" /><path clip-path="url(#clip870)" d="M2229.77 14.324 L2229.77 27.2059 L2245.12 27.2059 L2245.12 32.9987 L2229.77 32.9987 L2229.77 57.6282 Q2229.77 63.1779 2231.27 64.7578 Q2232.81 66.3376 2237.47 66.3376 L2245.12 66.3376 L2245.12 72.576 L2237.47 72.576 Q2228.84 72.576 2225.56 69.3758 Q2222.28 66.1351 2222.28 57.6282 L2222.28 32.9987 L2216.81 32.9987 L2216.81 27.2059 L2222.28 27.2059 L2222.28 14.324 L2229.77 14.324 Z" fill="#000000" fill-rule="evenodd" fill-opacity="1" /><path clip-path="url(#clip870)" d="M2275.54 49.7694 Q2266.51 49.7694 2263.03 51.8354 Q2259.54 53.9013 2259.54 58.8839 Q2259.54 62.8538 2262.14 65.2034 Q2264.77 67.5124 2269.27 67.5124 Q2275.46 67.5124 2279.19 63.1374 Q2282.96 58.7219 2282.96 51.4303 L2282.96 49.7694 L2275.54 49.7694 M2290.41 46.6907 L2290.41 72.576 L2282.96 72.576 L2282.96 65.6895 Q2280.41 69.8214 2276.6 71.8063 Q2272.79 73.7508 2267.28 73.7508 Q2260.31 73.7508 2256.18 69.8619 Q2252.09 65.9325 2252.09 59.3701 Q2252.09 51.7138 2257.19 47.825 Q2262.34 43.9361 2272.51 43.9361 L2282.96 43.9361 L2282.96 43.2069 Q2282.96 38.0623 2279.56 35.2672 Q2276.19 32.4315 2270.08 32.4315 Q2266.19 32.4315 2262.5 33.3632 Q2258.81 34.295 2255.41 36.1584 L2255.41 29.2718 Q2259.5 27.692 2263.35 26.9223 Q2267.2 26.1121 2270.85 26.1121 Q2280.69 26.1121 2285.55 31.2163 Q2290.41 36.3204 2290.41 46.6907 Z" fill="#000000" fill-rule="evenodd" fill-opacity="1" /><circle clip-path="url(#clip872)" cx="2297.47" cy="159.909" r="14" fill="#009af9" fill-rule="evenodd" fill-opacity="1" stroke="#000000" stroke-opacity="1" stroke-width="3.2"/>
<circle clip-path="url(#clip872)" cx="1771.97" cy="402.414" r="14" fill="#009af9" fill-rule="evenodd" fill-opacity="1" stroke="#000000" stroke-opacity="1" stroke-width="3.2"/>
<circle clip-path="url(#clip872)" cx="1758.85" cy="457.845" r="14" fill="#009af9" fill-rule="evenodd" fill-opacity="1" stroke="#000000" stroke-opacity="1" stroke-width="3.2"/>
<circle clip-path="url(#clip872)" cx="1294.48" cy="714.279" r="14" fill="#009af9" fill-rule="evenodd" fill-opacity="1" stroke="#000000" stroke-opacity="1" stroke-width="3.2"/>
<circle clip-path="url(#clip872)" cx="1082.21" cy="833.575" r="14" fill="#009af9" fill-rule="evenodd" fill-opacity="1" stroke="#000000" stroke-opacity="1" stroke-width="3.2"/>
<circle clip-path="url(#clip872)" cx="926.551" cy="983.427" r="14" fill="#009af9" fill-rule="evenodd" fill-opacity="1" stroke="#000000" stroke-opacity="1" stroke-width="3.2"/>
<circle clip-path="url(#clip872)" cx="910.439" cy="1007.04" r="14" fill="#009af9" fill-rule="evenodd" fill-opacity="1" stroke="#000000" stroke-opacity="1" stroke-width="3.2"/>
<circle clip-path="url(#clip872)" cx="872.54" cy="1011.93" r="14" fill="#009af9" fill-rule="evenodd" fill-opacity="1" stroke="#000000" stroke-opacity="1" stroke-width="3.2"/>
<circle clip-path="url(#clip872)" cx="862.742" cy="1018.6" r="14" fill="#009af9" fill-rule="evenodd" fill-opacity="1" stroke="#000000" stroke-opacity="1" stroke-width="3.2"/>
<circle clip-path="url(#clip872)" cx="759.609" cy="1098.29" r="14" fill="#009af9" fill-rule="evenodd" fill-opacity="1" stroke="#000000" stroke-opacity="1" stroke-width="3.2"/>
<circle clip-path="url(#clip872)" cx="454.731" cy="1374.46" r="14" fill="#009af9" fill-rule="evenodd" fill-opacity="1" stroke="#000000" stroke-opacity="1" stroke-width="3.2"/>
</svg>
