<?xml version="1.0" encoding="utf-8"?>
<svg xmlns="http://www.w3.org/2000/svg" xmlns:xlink="http://www.w3.org/1999/xlink" width="600" height="400" viewBox="0 0 2400 1600">
<defs>
  <clipPath id="clip210">
    <rect x="0" y="0" width="2400" height="1600"/>
  </clipPath>
</defs>
<path clip-path="url(#clip210)" d="
M0 1600 L2400 1600 L2400 0 L0 0  Z
  " fill="#ffffff" fill-rule="evenodd" fill-opacity="1"/>
<defs>
  <clipPath id="clip211">
    <rect x="480" y="0" width="1681" height="1600"/>
  </clipPath>
</defs>
<path clip-path="url(#clip210)" d="
M370.861 1423.18 L2352.76 1423.18 L2352.76 123.472 L370.861 123.472  Z
  " fill="#ffffff" fill-rule="evenodd" fill-opacity="1"/>
<defs>
  <clipPath id="clip212">
    <rect x="370" y="123" width="1983" height="1301"/>
  </clipPath>
</defs>
<polyline clip-path="url(#clip212)" style="stroke:#000000; stroke-linecap:butt; stroke-linejoin:round; stroke-width:2; stroke-opacity:0.1; fill:none" points="
  605.967,1423.18 605.967,123.472 
  "/>
<polyline clip-path="url(#clip212)" style="stroke:#000000; stroke-linecap:butt; stroke-linejoin:round; stroke-width:2; stroke-opacity:0.1; fill:none" points="
  1003.78,1423.18 1003.78,123.472 
  "/>
<polyline clip-path="url(#clip212)" style="stroke:#000000; stroke-linecap:butt; stroke-linejoin:round; stroke-width:2; stroke-opacity:0.1; fill:none" points="
  1401.59,1423.18 1401.59,123.472 
  "/>
<polyline clip-path="url(#clip212)" style="stroke:#000000; stroke-linecap:butt; stroke-linejoin:round; stroke-width:2; stroke-opacity:0.1; fill:none" points="
  1799.4,1423.18 1799.4,123.472 
  "/>
<polyline clip-path="url(#clip212)" style="stroke:#000000; stroke-linecap:butt; stroke-linejoin:round; stroke-width:2; stroke-opacity:0.1; fill:none" points="
  2197.21,1423.18 2197.21,123.472 
  "/>
<polyline clip-path="url(#clip212)" style="stroke:#000000; stroke-linecap:butt; stroke-linejoin:round; stroke-width:2; stroke-opacity:0.05; fill:none" points="
  446.843,1423.18 446.843,123.472 
  "/>
<polyline clip-path="url(#clip212)" style="stroke:#000000; stroke-linecap:butt; stroke-linejoin:round; stroke-width:2; stroke-opacity:0.05; fill:none" points="
  526.405,1423.18 526.405,123.472 
  "/>
<polyline clip-path="url(#clip212)" style="stroke:#000000; stroke-linecap:butt; stroke-linejoin:round; stroke-width:2; stroke-opacity:0.05; fill:none" points="
  685.529,1423.18 685.529,123.472 
  "/>
<polyline clip-path="url(#clip212)" style="stroke:#000000; stroke-linecap:butt; stroke-linejoin:round; stroke-width:2; stroke-opacity:0.05; fill:none" points="
  765.092,1423.18 765.092,123.472 
  "/>
<polyline clip-path="url(#clip212)" style="stroke:#000000; stroke-linecap:butt; stroke-linejoin:round; stroke-width:2; stroke-opacity:0.05; fill:none" points="
  844.654,1423.18 844.654,123.472 
  "/>
<polyline clip-path="url(#clip212)" style="stroke:#000000; stroke-linecap:butt; stroke-linejoin:round; stroke-width:2; stroke-opacity:0.05; fill:none" points="
  924.216,1423.18 924.216,123.472 
  "/>
<polyline clip-path="url(#clip212)" style="stroke:#000000; stroke-linecap:butt; stroke-linejoin:round; stroke-width:2; stroke-opacity:0.05; fill:none" points="
  1083.34,1423.18 1083.34,123.472 
  "/>
<polyline clip-path="url(#clip212)" style="stroke:#000000; stroke-linecap:butt; stroke-linejoin:round; stroke-width:2; stroke-opacity:0.05; fill:none" points="
  1162.9,1423.18 1162.9,123.472 
  "/>
<polyline clip-path="url(#clip212)" style="stroke:#000000; stroke-linecap:butt; stroke-linejoin:round; stroke-width:2; stroke-opacity:0.05; fill:none" points="
  1242.47,1423.18 1242.47,123.472 
  "/>
<polyline clip-path="url(#clip212)" style="stroke:#000000; stroke-linecap:butt; stroke-linejoin:round; stroke-width:2; stroke-opacity:0.05; fill:none" points="
  1322.03,1423.18 1322.03,123.472 
  "/>
<polyline clip-path="url(#clip212)" style="stroke:#000000; stroke-linecap:butt; stroke-linejoin:round; stroke-width:2; stroke-opacity:0.05; fill:none" points="
  1481.15,1423.18 1481.15,123.472 
  "/>
<polyline clip-path="url(#clip212)" style="stroke:#000000; stroke-linecap:butt; stroke-linejoin:round; stroke-width:2; stroke-opacity:0.05; fill:none" points="
  1560.71,1423.18 1560.71,123.472 
  "/>
<polyline clip-path="url(#clip212)" style="stroke:#000000; stroke-linecap:butt; stroke-linejoin:round; stroke-width:2; stroke-opacity:0.05; fill:none" points="
  1640.28,1423.18 1640.28,123.472 
  "/>
<polyline clip-path="url(#clip212)" style="stroke:#000000; stroke-linecap:butt; stroke-linejoin:round; stroke-width:2; stroke-opacity:0.05; fill:none" points="
  1719.84,1423.18 1719.84,123.472 
  "/>
<polyline clip-path="url(#clip212)" style="stroke:#000000; stroke-linecap:butt; stroke-linejoin:round; stroke-width:2; stroke-opacity:0.05; fill:none" points="
  1878.96,1423.18 1878.96,123.472 
  "/>
<polyline clip-path="url(#clip212)" style="stroke:#000000; stroke-linecap:butt; stroke-linejoin:round; stroke-width:2; stroke-opacity:0.05; fill:none" points="
  1958.53,1423.18 1958.53,123.472 
  "/>
<polyline clip-path="url(#clip212)" style="stroke:#000000; stroke-linecap:butt; stroke-linejoin:round; stroke-width:2; stroke-opacity:0.05; fill:none" points="
  2038.09,1423.18 2038.09,123.472 
  "/>
<polyline clip-path="url(#clip212)" style="stroke:#000000; stroke-linecap:butt; stroke-linejoin:round; stroke-width:2; stroke-opacity:0.05; fill:none" points="
  2117.65,1423.18 2117.65,123.472 
  "/>
<polyline clip-path="url(#clip212)" style="stroke:#000000; stroke-linecap:butt; stroke-linejoin:round; stroke-width:2; stroke-opacity:0.05; fill:none" points="
  2276.77,1423.18 2276.77,123.472 
  "/>
<polyline clip-path="url(#clip210)" style="stroke:#000000; stroke-linecap:butt; stroke-linejoin:round; stroke-width:4; stroke-opacity:1; fill:none" points="
  370.861,1423.18 2352.76,1423.18 
  "/>
<polyline clip-path="url(#clip210)" style="stroke:#000000; stroke-linecap:butt; stroke-linejoin:round; stroke-width:4; stroke-opacity:1; fill:none" points="
  605.967,1423.18 605.967,1404.28 
  "/>
<polyline clip-path="url(#clip210)" style="stroke:#000000; stroke-linecap:butt; stroke-linejoin:round; stroke-width:4; stroke-opacity:1; fill:none" points="
  1003.78,1423.18 1003.78,1404.28 
  "/>
<polyline clip-path="url(#clip210)" style="stroke:#000000; stroke-linecap:butt; stroke-linejoin:round; stroke-width:4; stroke-opacity:1; fill:none" points="
  1401.59,1423.18 1401.59,1404.28 
  "/>
<polyline clip-path="url(#clip210)" style="stroke:#000000; stroke-linecap:butt; stroke-linejoin:round; stroke-width:4; stroke-opacity:1; fill:none" points="
  1799.4,1423.18 1799.4,1404.28 
  "/>
<polyline clip-path="url(#clip210)" style="stroke:#000000; stroke-linecap:butt; stroke-linejoin:round; stroke-width:4; stroke-opacity:1; fill:none" points="
  2197.21,1423.18 2197.21,1404.28 
  "/>
<polyline clip-path="url(#clip210)" style="stroke:#000000; stroke-linecap:butt; stroke-linejoin:round; stroke-width:4; stroke-opacity:1; fill:none" points="
  446.843,1423.18 446.843,1413.73 
  "/>
<polyline clip-path="url(#clip210)" style="stroke:#000000; stroke-linecap:butt; stroke-linejoin:round; stroke-width:4; stroke-opacity:1; fill:none" points="
  526.405,1423.18 526.405,1413.73 
  "/>
<polyline clip-path="url(#clip210)" style="stroke:#000000; stroke-linecap:butt; stroke-linejoin:round; stroke-width:4; stroke-opacity:1; fill:none" points="
  685.529,1423.18 685.529,1413.73 
  "/>
<polyline clip-path="url(#clip210)" style="stroke:#000000; stroke-linecap:butt; stroke-linejoin:round; stroke-width:4; stroke-opacity:1; fill:none" points="
  765.092,1423.18 765.092,1413.73 
  "/>
<polyline clip-path="url(#clip210)" style="stroke:#000000; stroke-linecap:butt; stroke-linejoin:round; stroke-width:4; stroke-opacity:1; fill:none" points="
  844.654,1423.18 844.654,1413.73 
  "/>
<polyline clip-path="url(#clip210)" style="stroke:#000000; stroke-linecap:butt; stroke-linejoin:round; stroke-width:4; stroke-opacity:1; fill:none" points="
  924.216,1423.18 924.216,1413.73 
  "/>
<polyline clip-path="url(#clip210)" style="stroke:#000000; stroke-linecap:butt; stroke-linejoin:round; stroke-width:4; stroke-opacity:1; fill:none" points="
  1083.34,1423.18 1083.34,1413.73 
  "/>
<polyline clip-path="url(#clip210)" style="stroke:#000000; stroke-linecap:butt; stroke-linejoin:round; stroke-width:4; stroke-opacity:1; fill:none" points="
  1162.9,1423.18 1162.9,1413.73 
  "/>
<polyline clip-path="url(#clip210)" style="stroke:#000000; stroke-linecap:butt; stroke-linejoin:round; stroke-width:4; stroke-opacity:1; fill:none" points="
  1242.47,1423.18 1242.47,1413.73 
  "/>
<polyline clip-path="url(#clip210)" style="stroke:#000000; stroke-linecap:butt; stroke-linejoin:round; stroke-width:4; stroke-opacity:1; fill:none" points="
  1322.03,1423.18 1322.03,1413.73 
  "/>
<polyline clip-path="url(#clip210)" style="stroke:#000000; stroke-linecap:butt; stroke-linejoin:round; stroke-width:4; stroke-opacity:1; fill:none" points="
  1481.15,1423.18 1481.15,1413.73 
  "/>
<polyline clip-path="url(#clip210)" style="stroke:#000000; stroke-linecap:butt; stroke-linejoin:round; stroke-width:4; stroke-opacity:1; fill:none" points="
  1560.71,1423.18 1560.71,1413.73 
  "/>
<polyline clip-path="url(#clip210)" style="stroke:#000000; stroke-linecap:butt; stroke-linejoin:round; stroke-width:4; stroke-opacity:1; fill:none" points="
  1640.28,1423.18 1640.28,1413.73 
  "/>
<polyline clip-path="url(#clip210)" style="stroke:#000000; stroke-linecap:butt; stroke-linejoin:round; stroke-width:4; stroke-opacity:1; fill:none" points="
  1719.84,1423.18 1719.84,1413.73 
  "/>
<polyline clip-path="url(#clip210)" style="stroke:#000000; stroke-linecap:butt; stroke-linejoin:round; stroke-width:4; stroke-opacity:1; fill:none" points="
  1878.96,1423.18 1878.96,1413.73 
  "/>
<polyline clip-path="url(#clip210)" style="stroke:#000000; stroke-linecap:butt; stroke-linejoin:round; stroke-width:4; stroke-opacity:1; fill:none" points="
  1958.53,1423.18 1958.53,1413.73 
  "/>
<polyline clip-path="url(#clip210)" style="stroke:#000000; stroke-linecap:butt; stroke-linejoin:round; stroke-width:4; stroke-opacity:1; fill:none" points="
  2038.09,1423.18 2038.09,1413.73 
  "/>
<polyline clip-path="url(#clip210)" style="stroke:#000000; stroke-linecap:butt; stroke-linejoin:round; stroke-width:4; stroke-opacity:1; fill:none" points="
  2117.65,1423.18 2117.65,1413.73 
  "/>
<polyline clip-path="url(#clip210)" style="stroke:#000000; stroke-linecap:butt; stroke-linejoin:round; stroke-width:4; stroke-opacity:1; fill:none" points="
  2276.77,1423.18 2276.77,1413.73 
  "/>
<path clip-path="url(#clip210)" d="M600.62 1481.64 L616.939 1481.64 L616.939 1485.58 L594.995 1485.58 L594.995 1481.64 Q597.657 1478.89 602.24 1474.26 Q606.847 1469.61 608.027 1468.27 Q610.273 1465.74 611.152 1464.01 Q612.055 1462.25 612.055 1460.56 Q612.055 1457.8 610.111 1456.07 Q608.189 1454.33 605.088 1454.33 Q602.889 1454.33 600.435 1455.09 Q598.004 1455.86 595.227 1457.41 L595.227 1452.69 Q598.051 1451.55 600.504 1450.97 Q602.958 1450.39 604.995 1450.39 Q610.365 1450.39 613.56 1453.08 Q616.754 1455.77 616.754 1460.26 Q616.754 1462.39 615.944 1464.31 Q615.157 1466.2 613.051 1468.8 Q612.472 1469.47 609.37 1472.69 Q606.268 1475.88 600.62 1481.64 Z" fill="#000000" fill-rule="evenodd" fill-opacity="1" /><path clip-path="url(#clip210)" d="M1006.79 1455.09 L994.982 1473.54 L1006.79 1473.54 L1006.79 1455.09 M1005.56 1451.02 L1011.44 1451.02 L1011.44 1473.54 L1016.37 1473.54 L1016.37 1477.43 L1011.44 1477.43 L1011.44 1485.58 L1006.79 1485.58 L1006.79 1477.43 L991.186 1477.43 L991.186 1472.92 L1005.56 1451.02 Z" fill="#000000" fill-rule="evenodd" fill-opacity="1" /><path clip-path="url(#clip210)" d="M1401.99 1466.44 Q1398.85 1466.44 1396.99 1468.59 Q1395.17 1470.74 1395.17 1474.49 Q1395.17 1478.22 1396.99 1480.39 Q1398.85 1482.55 1401.99 1482.55 Q1405.14 1482.55 1406.97 1480.39 Q1408.82 1478.22 1408.82 1474.49 Q1408.82 1470.74 1406.97 1468.59 Q1405.14 1466.44 1401.99 1466.44 M1411.28 1451.78 L1411.28 1456.04 Q1409.52 1455.21 1407.71 1454.77 Q1405.93 1454.33 1404.17 1454.33 Q1399.54 1454.33 1397.09 1457.45 Q1394.66 1460.58 1394.31 1466.9 Q1395.68 1464.89 1397.74 1463.82 Q1399.8 1462.73 1402.27 1462.73 Q1407.48 1462.73 1410.49 1465.9 Q1413.52 1469.05 1413.52 1474.49 Q1413.52 1479.82 1410.37 1483.03 Q1407.23 1486.25 1401.99 1486.25 Q1396 1486.25 1392.83 1481.67 Q1389.66 1477.06 1389.66 1468.33 Q1389.66 1460.14 1393.55 1455.28 Q1397.43 1450.39 1403.99 1450.39 Q1405.74 1450.39 1407.53 1450.74 Q1409.33 1451.09 1411.28 1451.78 Z" fill="#000000" fill-rule="evenodd" fill-opacity="1" /><path clip-path="url(#clip210)" d="M1799.4 1469.17 Q1796.07 1469.17 1794.15 1470.95 Q1792.25 1472.73 1792.25 1475.86 Q1792.25 1478.98 1794.15 1480.77 Q1796.07 1482.55 1799.4 1482.55 Q1802.73 1482.55 1804.66 1480.77 Q1806.58 1478.96 1806.58 1475.86 Q1806.58 1472.73 1804.66 1470.95 Q1802.76 1469.17 1799.4 1469.17 M1794.72 1467.18 Q1791.72 1466.44 1790.03 1464.38 Q1788.36 1462.32 1788.36 1459.35 Q1788.36 1455.21 1791.3 1452.8 Q1794.26 1450.39 1799.4 1450.39 Q1804.56 1450.39 1807.5 1452.8 Q1810.44 1455.21 1810.44 1459.35 Q1810.44 1462.32 1808.75 1464.38 Q1807.09 1466.44 1804.1 1467.18 Q1807.48 1467.96 1809.35 1470.26 Q1811.25 1472.55 1811.25 1475.86 Q1811.25 1480.88 1808.17 1483.57 Q1805.12 1486.25 1799.4 1486.25 Q1793.68 1486.25 1790.6 1483.57 Q1787.55 1480.88 1787.55 1475.86 Q1787.55 1472.55 1789.45 1470.26 Q1791.35 1467.96 1794.72 1467.18 M1793.01 1459.79 Q1793.01 1462.48 1794.68 1463.98 Q1796.37 1465.49 1799.4 1465.49 Q1802.41 1465.49 1804.1 1463.98 Q1805.81 1462.48 1805.81 1459.79 Q1805.81 1457.11 1804.1 1455.6 Q1802.41 1454.1 1799.4 1454.1 Q1796.37 1454.1 1794.68 1455.6 Q1793.01 1457.11 1793.01 1459.79 Z" fill="#000000" fill-rule="evenodd" fill-opacity="1" /><path clip-path="url(#clip210)" d="M2171.9 1481.64 L2179.54 1481.64 L2179.54 1455.28 L2171.23 1456.95 L2171.23 1452.69 L2179.49 1451.02 L2184.17 1451.02 L2184.17 1481.64 L2191.81 1481.64 L2191.81 1485.58 L2171.9 1485.58 L2171.9 1481.64 Z" fill="#000000" fill-rule="evenodd" fill-opacity="1" /><path clip-path="url(#clip210)" d="M2211.25 1454.1 Q2207.64 1454.1 2205.81 1457.66 Q2204.01 1461.2 2204.01 1468.33 Q2204.01 1475.44 2205.81 1479.01 Q2207.64 1482.55 2211.25 1482.55 Q2214.89 1482.55 2216.69 1479.01 Q2218.52 1475.44 2218.52 1468.33 Q2218.52 1461.2 2216.69 1457.66 Q2214.89 1454.1 2211.25 1454.1 M2211.25 1450.39 Q2217.06 1450.39 2220.12 1455 Q2223.2 1459.58 2223.2 1468.33 Q2223.2 1477.06 2220.12 1481.67 Q2217.06 1486.25 2211.25 1486.25 Q2205.44 1486.25 2202.36 1481.67 Q2199.31 1477.06 2199.31 1468.33 Q2199.31 1459.58 2202.36 1455 Q2205.44 1450.39 2211.25 1450.39 Z" fill="#000000" fill-rule="evenodd" fill-opacity="1" /><path clip-path="url(#clip210)" d="M1043.6 1520.52 L1050.51 1520.52 L1063.69 1540.07 L1076.77 1520.52 L1083.67 1520.52 L1066.87 1545.41 L1066.87 1568.04 L1060.41 1568.04 L1060.41 1545.41 L1043.6 1520.52 Z" fill="#000000" fill-rule="evenodd" fill-opacity="1" /><path clip-path="url(#clip210)" d="M1111.52 1548.76 L1111.52 1551.62 L1084.6 1551.62 Q1084.98 1557.67 1088.23 1560.85 Q1091.5 1564 1097.33 1564 Q1100.7 1564 1103.85 1563.17 Q1107.04 1562.35 1110.16 1560.69 L1110.16 1566.23 Q1107.01 1567.57 1103.69 1568.27 Q1100.38 1568.97 1096.98 1568.97 Q1088.45 1568.97 1083.45 1564 Q1078.49 1559.04 1078.49 1550.57 Q1078.49 1541.82 1083.2 1536.69 Q1087.94 1531.54 1095.96 1531.54 Q1103.15 1531.54 1107.32 1536.18 Q1111.52 1540.8 1111.52 1548.76 M1105.67 1547.04 Q1105.6 1542.23 1102.96 1539.37 Q1100.35 1536.5 1096.02 1536.5 Q1091.12 1536.5 1088.16 1539.27 Q1085.23 1542.04 1084.79 1547.07 L1105.67 1547.04 Z" fill="#000000" fill-rule="evenodd" fill-opacity="1" /><path clip-path="url(#clip210)" d="M1137.34 1550.12 Q1130.24 1550.12 1127.5 1551.75 Q1124.77 1553.37 1124.77 1557.29 Q1124.77 1560.4 1126.8 1562.25 Q1128.87 1564.07 1132.4 1564.07 Q1137.27 1564.07 1140.2 1560.63 Q1143.16 1557.16 1143.16 1551.43 L1143.16 1550.12 L1137.34 1550.12 M1149.02 1547.71 L1149.02 1568.04 L1143.16 1568.04 L1143.16 1562.63 Q1141.16 1565.88 1138.17 1567.44 Q1135.17 1568.97 1130.84 1568.97 Q1125.37 1568.97 1122.12 1565.91 Q1118.91 1562.82 1118.91 1557.67 Q1118.91 1551.65 1122.92 1548.6 Q1126.96 1545.54 1134.95 1545.54 L1143.16 1545.54 L1143.16 1544.97 Q1143.16 1540.93 1140.49 1538.73 Q1137.85 1536.5 1133.04 1536.5 Q1129.99 1536.5 1127.09 1537.23 Q1124.19 1537.97 1121.52 1539.43 L1121.52 1534.02 Q1124.73 1532.78 1127.76 1532.17 Q1130.78 1531.54 1133.65 1531.54 Q1141.38 1531.54 1145.2 1535.55 Q1149.02 1539.56 1149.02 1547.71 Z" fill="#000000" fill-rule="evenodd" fill-opacity="1" /><path clip-path="url(#clip210)" d="M1181.74 1537.87 Q1180.75 1537.3 1179.57 1537.04 Q1178.43 1536.76 1177.03 1536.76 Q1172.06 1536.76 1169.39 1540 Q1166.75 1543.22 1166.75 1549.27 L1166.75 1568.04 L1160.86 1568.04 L1160.86 1532.4 L1166.75 1532.4 L1166.75 1537.93 Q1168.59 1534.69 1171.55 1533.13 Q1174.51 1531.54 1178.75 1531.54 Q1179.35 1531.54 1180.08 1531.63 Q1180.82 1531.7 1181.71 1531.85 L1181.74 1537.87 Z" fill="#000000" fill-rule="evenodd" fill-opacity="1" /><path clip-path="url(#clip210)" d="M1210.61 1533.45 L1210.61 1538.98 Q1208.12 1537.71 1205.45 1537.07 Q1202.78 1536.44 1199.91 1536.44 Q1195.55 1536.44 1193.36 1537.77 Q1191.19 1539.11 1191.19 1541.79 Q1191.19 1543.82 1192.75 1545 Q1194.31 1546.15 1199.02 1547.2 L1201.03 1547.64 Q1207.26 1548.98 1209.87 1551.43 Q1212.52 1553.85 1212.52 1558.21 Q1212.52 1563.17 1208.57 1566.07 Q1204.65 1568.97 1197.78 1568.97 Q1194.92 1568.97 1191.8 1568.39 Q1188.71 1567.85 1185.27 1566.74 L1185.27 1560.69 Q1188.52 1562.38 1191.67 1563.24 Q1194.82 1564.07 1197.91 1564.07 Q1202.05 1564.07 1204.27 1562.66 Q1206.5 1561.23 1206.5 1558.65 Q1206.5 1556.27 1204.88 1554.99 Q1203.29 1553.72 1197.84 1552.54 L1195.81 1552.07 Q1190.36 1550.92 1187.95 1548.56 Q1185.53 1546.18 1185.53 1542.04 Q1185.53 1537.01 1189.09 1534.27 Q1192.66 1531.54 1199.21 1531.54 Q1202.46 1531.54 1205.32 1532.01 Q1208.19 1532.49 1210.61 1533.45 Z" fill="#000000" fill-rule="evenodd" fill-opacity="1" /><path clip-path="url(#clip210)" d="M1256.38 1536.5 Q1251.67 1536.5 1248.93 1540.19 Q1246.19 1543.85 1246.19 1550.25 Q1246.19 1556.65 1248.9 1560.34 Q1251.63 1564 1256.38 1564 Q1261.06 1564 1263.79 1560.31 Q1266.53 1556.62 1266.53 1550.25 Q1266.53 1543.92 1263.79 1540.23 Q1261.06 1536.5 1256.38 1536.5 M1256.38 1531.54 Q1264.02 1531.54 1268.38 1536.5 Q1272.74 1541.47 1272.74 1550.25 Q1272.74 1559 1268.38 1564 Q1264.02 1568.97 1256.38 1568.97 Q1248.71 1568.97 1244.35 1564 Q1240.02 1559 1240.02 1550.25 Q1240.02 1541.47 1244.35 1536.5 Q1248.71 1531.54 1256.38 1531.54 Z" fill="#000000" fill-rule="evenodd" fill-opacity="1" /><path clip-path="url(#clip210)" d="M1300.49 1518.52 L1300.49 1523.39 L1294.89 1523.39 Q1291.74 1523.39 1290.5 1524.66 Q1289.29 1525.93 1289.29 1529.24 L1289.29 1532.4 L1298.93 1532.4 L1298.93 1536.95 L1289.29 1536.95 L1289.29 1568.04 L1283.4 1568.04 L1283.4 1536.95 L1277.8 1536.95 L1277.8 1532.4 L1283.4 1532.4 L1283.4 1529.91 Q1283.4 1523.96 1286.17 1521.26 Q1288.94 1518.52 1294.95 1518.52 L1300.49 1518.52 Z" fill="#000000" fill-rule="evenodd" fill-opacity="1" /><path clip-path="url(#clip210)" d="M1326.37 1520.52 L1356.41 1520.52 L1356.41 1525.93 L1332.8 1525.93 L1332.8 1540 L1355.43 1540 L1355.43 1545.41 L1332.8 1545.41 L1332.8 1562.63 L1356.99 1562.63 L1356.99 1568.04 L1326.37 1568.04 L1326.37 1520.52 Z" fill="#000000" fill-rule="evenodd" fill-opacity="1" /><path clip-path="url(#clip210)" d="M1396.93 1532.4 L1384.04 1549.74 L1397.6 1568.04 L1390.69 1568.04 L1380.32 1554.04 L1369.94 1568.04 L1363.03 1568.04 L1376.88 1549.39 L1364.21 1532.4 L1371.12 1532.4 L1380.57 1545.1 L1390.02 1532.4 L1396.93 1532.4 Z" fill="#000000" fill-rule="evenodd" fill-opacity="1" /><path clip-path="url(#clip210)" d="M1411.54 1562.7 L1411.54 1581.6 L1405.65 1581.6 L1405.65 1532.4 L1411.54 1532.4 L1411.54 1537.81 Q1413.39 1534.62 1416.19 1533.1 Q1419.02 1531.54 1422.94 1531.54 Q1429.43 1531.54 1433.47 1536.69 Q1437.54 1541.85 1437.54 1550.25 Q1437.54 1558.65 1433.47 1563.81 Q1429.43 1568.97 1422.94 1568.97 Q1419.02 1568.97 1416.19 1567.44 Q1413.39 1565.88 1411.54 1562.7 M1431.47 1550.25 Q1431.47 1543.79 1428.79 1540.13 Q1426.15 1536.44 1421.5 1536.44 Q1416.86 1536.44 1414.18 1540.13 Q1411.54 1543.79 1411.54 1550.25 Q1411.54 1556.71 1414.18 1560.4 Q1416.86 1564.07 1421.5 1564.07 Q1426.15 1564.07 1428.79 1560.4 Q1431.47 1556.71 1431.47 1550.25 Z" fill="#000000" fill-rule="evenodd" fill-opacity="1" /><path clip-path="url(#clip210)" d="M1477.74 1548.76 L1477.74 1551.62 L1450.82 1551.62 Q1451.2 1557.67 1454.45 1560.85 Q1457.72 1564 1463.55 1564 Q1466.92 1564 1470.07 1563.17 Q1473.26 1562.35 1476.38 1560.69 L1476.38 1566.23 Q1473.22 1567.57 1469.91 1568.27 Q1466.6 1568.97 1463.2 1568.97 Q1454.67 1568.97 1449.67 1564 Q1444.71 1559.04 1444.71 1550.57 Q1444.71 1541.82 1449.42 1536.69 Q1454.16 1531.54 1462.18 1531.54 Q1469.37 1531.54 1473.54 1536.18 Q1477.74 1540.8 1477.74 1548.76 M1471.89 1547.04 Q1471.82 1542.23 1469.18 1539.37 Q1466.57 1536.5 1462.24 1536.5 Q1457.34 1536.5 1454.38 1539.27 Q1451.45 1542.04 1451.01 1547.07 L1471.89 1547.04 Z" fill="#000000" fill-rule="evenodd" fill-opacity="1" /><path clip-path="url(#clip210)" d="M1508.01 1537.87 Q1507.03 1537.3 1505.85 1537.04 Q1504.7 1536.76 1503.3 1536.76 Q1498.34 1536.76 1495.66 1540 Q1493.02 1543.22 1493.02 1549.27 L1493.02 1568.04 L1487.13 1568.04 L1487.13 1532.4 L1493.02 1532.4 L1493.02 1537.93 Q1494.87 1534.69 1497.83 1533.13 Q1500.79 1531.54 1505.02 1531.54 Q1505.63 1531.54 1506.36 1531.63 Q1507.09 1531.7 1507.98 1531.85 L1508.01 1537.87 Z" fill="#000000" fill-rule="evenodd" fill-opacity="1" /><path clip-path="url(#clip210)" d="M1514.16 1532.4 L1520.01 1532.4 L1520.01 1568.04 L1514.16 1568.04 L1514.16 1532.4 M1514.16 1518.52 L1520.01 1518.52 L1520.01 1525.93 L1514.16 1525.93 L1514.16 1518.52 Z" fill="#000000" fill-rule="evenodd" fill-opacity="1" /><path clip-path="url(#clip210)" d="M1562.76 1548.76 L1562.76 1551.62 L1535.83 1551.62 Q1536.21 1557.67 1539.46 1560.85 Q1542.74 1564 1548.56 1564 Q1551.94 1564 1555.09 1563.17 Q1558.27 1562.35 1561.39 1560.69 L1561.39 1566.23 Q1558.24 1567.57 1554.93 1568.27 Q1551.62 1568.97 1548.21 1568.97 Q1539.68 1568.97 1534.69 1564 Q1529.72 1559.04 1529.72 1550.57 Q1529.72 1541.82 1534.43 1536.69 Q1539.17 1531.54 1547.19 1531.54 Q1554.39 1531.54 1558.56 1536.18 Q1562.76 1540.8 1562.76 1548.76 M1556.9 1547.04 Q1556.84 1542.23 1554.2 1539.37 Q1551.59 1536.5 1547.26 1536.5 Q1542.36 1536.5 1539.4 1539.27 Q1536.47 1542.04 1536.02 1547.07 L1556.9 1547.04 Z" fill="#000000" fill-rule="evenodd" fill-opacity="1" /><path clip-path="url(#clip210)" d="M1602 1546.53 L1602 1568.04 L1596.15 1568.04 L1596.15 1546.72 Q1596.15 1541.66 1594.17 1539.14 Q1592.2 1536.63 1588.25 1536.63 Q1583.51 1536.63 1580.77 1539.65 Q1578.04 1542.68 1578.04 1547.9 L1578.04 1568.04 L1572.15 1568.04 L1572.15 1532.4 L1578.04 1532.4 L1578.04 1537.93 Q1580.14 1534.72 1582.97 1533.13 Q1585.83 1531.54 1589.56 1531.54 Q1595.7 1531.54 1598.85 1535.36 Q1602 1539.14 1602 1546.53 Z" fill="#000000" fill-rule="evenodd" fill-opacity="1" /><path clip-path="url(#clip210)" d="M1639.34 1533.76 L1639.34 1539.24 Q1636.85 1537.87 1634.34 1537.2 Q1631.86 1536.5 1629.31 1536.5 Q1623.61 1536.5 1620.46 1540.13 Q1617.31 1543.73 1617.31 1550.25 Q1617.31 1556.78 1620.46 1560.4 Q1623.61 1564 1629.31 1564 Q1631.86 1564 1634.34 1563.33 Q1636.85 1562.63 1639.34 1561.26 L1639.34 1566.68 Q1636.89 1567.82 1634.24 1568.39 Q1631.63 1568.97 1628.67 1568.97 Q1620.62 1568.97 1615.88 1563.91 Q1611.14 1558.85 1611.14 1550.25 Q1611.14 1541.53 1615.91 1536.53 Q1620.72 1531.54 1629.06 1531.54 Q1631.76 1531.54 1634.34 1532.11 Q1636.92 1532.65 1639.34 1533.76 Z" fill="#000000" fill-rule="evenodd" fill-opacity="1" /><path clip-path="url(#clip210)" d="M1680.01 1548.76 L1680.01 1551.62 L1653.09 1551.62 Q1653.47 1557.67 1656.72 1560.85 Q1659.99 1564 1665.82 1564 Q1669.19 1564 1672.34 1563.17 Q1675.53 1562.35 1678.65 1560.69 L1678.65 1566.23 Q1675.49 1567.57 1672.18 1568.27 Q1668.87 1568.97 1665.47 1568.97 Q1656.94 1568.97 1651.94 1564 Q1646.98 1559.04 1646.98 1550.57 Q1646.98 1541.82 1651.69 1536.69 Q1656.43 1531.54 1664.45 1531.54 Q1671.64 1531.54 1675.81 1536.18 Q1680.01 1540.8 1680.01 1548.76 M1674.16 1547.04 Q1674.09 1542.23 1671.45 1539.37 Q1668.84 1536.5 1664.51 1536.5 Q1659.61 1536.5 1656.65 1539.27 Q1653.72 1542.04 1653.28 1547.07 L1674.16 1547.04 Z" fill="#000000" fill-rule="evenodd" fill-opacity="1" /><polyline clip-path="url(#clip212)" style="stroke:#000000; stroke-linecap:butt; stroke-linejoin:round; stroke-width:2; stroke-opacity:0.1; fill:none" points="
  370.861,1328.76 2352.76,1328.76 
  "/>
<polyline clip-path="url(#clip212)" style="stroke:#000000; stroke-linecap:butt; stroke-linejoin:round; stroke-width:2; stroke-opacity:0.1; fill:none" points="
  370.861,1049.23 2352.76,1049.23 
  "/>
<polyline clip-path="url(#clip212)" style="stroke:#000000; stroke-linecap:butt; stroke-linejoin:round; stroke-width:2; stroke-opacity:0.1; fill:none" points="
  370.861,769.706 2352.76,769.706 
  "/>
<polyline clip-path="url(#clip212)" style="stroke:#000000; stroke-linecap:butt; stroke-linejoin:round; stroke-width:2; stroke-opacity:0.1; fill:none" points="
  370.861,490.179 2352.76,490.179 
  "/>
<polyline clip-path="url(#clip212)" style="stroke:#000000; stroke-linecap:butt; stroke-linejoin:round; stroke-width:2; stroke-opacity:0.1; fill:none" points="
  370.861,210.652 2352.76,210.652 
  "/>
<polyline clip-path="url(#clip212)" style="stroke:#000000; stroke-linecap:butt; stroke-linejoin:round; stroke-width:2; stroke-opacity:0.05; fill:none" points="
  370.861,1384.66 2352.76,1384.66 
  "/>
<polyline clip-path="url(#clip212)" style="stroke:#000000; stroke-linecap:butt; stroke-linejoin:round; stroke-width:2; stroke-opacity:0.05; fill:none" points="
  370.861,1272.85 2352.76,1272.85 
  "/>
<polyline clip-path="url(#clip212)" style="stroke:#000000; stroke-linecap:butt; stroke-linejoin:round; stroke-width:2; stroke-opacity:0.05; fill:none" points="
  370.861,1216.95 2352.76,1216.95 
  "/>
<polyline clip-path="url(#clip212)" style="stroke:#000000; stroke-linecap:butt; stroke-linejoin:round; stroke-width:2; stroke-opacity:0.05; fill:none" points="
  370.861,1161.04 2352.76,1161.04 
  "/>
<polyline clip-path="url(#clip212)" style="stroke:#000000; stroke-linecap:butt; stroke-linejoin:round; stroke-width:2; stroke-opacity:0.05; fill:none" points="
  370.861,1105.14 2352.76,1105.14 
  "/>
<polyline clip-path="url(#clip212)" style="stroke:#000000; stroke-linecap:butt; stroke-linejoin:round; stroke-width:2; stroke-opacity:0.05; fill:none" points="
  370.861,993.327 2352.76,993.327 
  "/>
<polyline clip-path="url(#clip212)" style="stroke:#000000; stroke-linecap:butt; stroke-linejoin:round; stroke-width:2; stroke-opacity:0.05; fill:none" points="
  370.861,937.422 2352.76,937.422 
  "/>
<polyline clip-path="url(#clip212)" style="stroke:#000000; stroke-linecap:butt; stroke-linejoin:round; stroke-width:2; stroke-opacity:0.05; fill:none" points="
  370.861,881.516 2352.76,881.516 
  "/>
<polyline clip-path="url(#clip212)" style="stroke:#000000; stroke-linecap:butt; stroke-linejoin:round; stroke-width:2; stroke-opacity:0.05; fill:none" points="
  370.861,825.611 2352.76,825.611 
  "/>
<polyline clip-path="url(#clip212)" style="stroke:#000000; stroke-linecap:butt; stroke-linejoin:round; stroke-width:2; stroke-opacity:0.05; fill:none" points="
  370.861,713.8 2352.76,713.8 
  "/>
<polyline clip-path="url(#clip212)" style="stroke:#000000; stroke-linecap:butt; stroke-linejoin:round; stroke-width:2; stroke-opacity:0.05; fill:none" points="
  370.861,657.895 2352.76,657.895 
  "/>
<polyline clip-path="url(#clip212)" style="stroke:#000000; stroke-linecap:butt; stroke-linejoin:round; stroke-width:2; stroke-opacity:0.05; fill:none" points="
  370.861,601.99 2352.76,601.99 
  "/>
<polyline clip-path="url(#clip212)" style="stroke:#000000; stroke-linecap:butt; stroke-linejoin:round; stroke-width:2; stroke-opacity:0.05; fill:none" points="
  370.861,546.084 2352.76,546.084 
  "/>
<polyline clip-path="url(#clip212)" style="stroke:#000000; stroke-linecap:butt; stroke-linejoin:round; stroke-width:2; stroke-opacity:0.05; fill:none" points="
  370.861,434.274 2352.76,434.274 
  "/>
<polyline clip-path="url(#clip212)" style="stroke:#000000; stroke-linecap:butt; stroke-linejoin:round; stroke-width:2; stroke-opacity:0.05; fill:none" points="
  370.861,378.368 2352.76,378.368 
  "/>
<polyline clip-path="url(#clip212)" style="stroke:#000000; stroke-linecap:butt; stroke-linejoin:round; stroke-width:2; stroke-opacity:0.05; fill:none" points="
  370.861,322.463 2352.76,322.463 
  "/>
<polyline clip-path="url(#clip212)" style="stroke:#000000; stroke-linecap:butt; stroke-linejoin:round; stroke-width:2; stroke-opacity:0.05; fill:none" points="
  370.861,266.558 2352.76,266.558 
  "/>
<polyline clip-path="url(#clip212)" style="stroke:#000000; stroke-linecap:butt; stroke-linejoin:round; stroke-width:2; stroke-opacity:0.05; fill:none" points="
  370.861,154.747 2352.76,154.747 
  "/>
<polyline clip-path="url(#clip210)" style="stroke:#000000; stroke-linecap:butt; stroke-linejoin:round; stroke-width:4; stroke-opacity:1; fill:none" points="
  370.861,1423.18 370.861,123.472 
  "/>
<polyline clip-path="url(#clip210)" style="stroke:#000000; stroke-linecap:butt; stroke-linejoin:round; stroke-width:4; stroke-opacity:1; fill:none" points="
  370.861,1328.76 389.758,1328.76 
  "/>
<polyline clip-path="url(#clip210)" style="stroke:#000000; stroke-linecap:butt; stroke-linejoin:round; stroke-width:4; stroke-opacity:1; fill:none" points="
  370.861,1049.23 389.758,1049.23 
  "/>
<polyline clip-path="url(#clip210)" style="stroke:#000000; stroke-linecap:butt; stroke-linejoin:round; stroke-width:4; stroke-opacity:1; fill:none" points="
  370.861,769.706 389.758,769.706 
  "/>
<polyline clip-path="url(#clip210)" style="stroke:#000000; stroke-linecap:butt; stroke-linejoin:round; stroke-width:4; stroke-opacity:1; fill:none" points="
  370.861,490.179 389.758,490.179 
  "/>
<polyline clip-path="url(#clip210)" style="stroke:#000000; stroke-linecap:butt; stroke-linejoin:round; stroke-width:4; stroke-opacity:1; fill:none" points="
  370.861,210.652 389.758,210.652 
  "/>
<polyline clip-path="url(#clip210)" style="stroke:#000000; stroke-linecap:butt; stroke-linejoin:round; stroke-width:4; stroke-opacity:1; fill:none" points="
  370.861,1384.66 380.31,1384.66 
  "/>
<polyline clip-path="url(#clip210)" style="stroke:#000000; stroke-linecap:butt; stroke-linejoin:round; stroke-width:4; stroke-opacity:1; fill:none" points="
  370.861,1272.85 380.31,1272.85 
  "/>
<polyline clip-path="url(#clip210)" style="stroke:#000000; stroke-linecap:butt; stroke-linejoin:round; stroke-width:4; stroke-opacity:1; fill:none" points="
  370.861,1216.95 380.31,1216.95 
  "/>
<polyline clip-path="url(#clip210)" style="stroke:#000000; stroke-linecap:butt; stroke-linejoin:round; stroke-width:4; stroke-opacity:1; fill:none" points="
  370.861,1161.04 380.31,1161.04 
  "/>
<polyline clip-path="url(#clip210)" style="stroke:#000000; stroke-linecap:butt; stroke-linejoin:round; stroke-width:4; stroke-opacity:1; fill:none" points="
  370.861,1105.14 380.31,1105.14 
  "/>
<polyline clip-path="url(#clip210)" style="stroke:#000000; stroke-linecap:butt; stroke-linejoin:round; stroke-width:4; stroke-opacity:1; fill:none" points="
  370.861,993.327 380.31,993.327 
  "/>
<polyline clip-path="url(#clip210)" style="stroke:#000000; stroke-linecap:butt; stroke-linejoin:round; stroke-width:4; stroke-opacity:1; fill:none" points="
  370.861,937.422 380.31,937.422 
  "/>
<polyline clip-path="url(#clip210)" style="stroke:#000000; stroke-linecap:butt; stroke-linejoin:round; stroke-width:4; stroke-opacity:1; fill:none" points="
  370.861,881.516 380.31,881.516 
  "/>
<polyline clip-path="url(#clip210)" style="stroke:#000000; stroke-linecap:butt; stroke-linejoin:round; stroke-width:4; stroke-opacity:1; fill:none" points="
  370.861,825.611 380.31,825.611 
  "/>
<polyline clip-path="url(#clip210)" style="stroke:#000000; stroke-linecap:butt; stroke-linejoin:round; stroke-width:4; stroke-opacity:1; fill:none" points="
  370.861,713.8 380.31,713.8 
  "/>
<polyline clip-path="url(#clip210)" style="stroke:#000000; stroke-linecap:butt; stroke-linejoin:round; stroke-width:4; stroke-opacity:1; fill:none" points="
  370.861,657.895 380.31,657.895 
  "/>
<polyline clip-path="url(#clip210)" style="stroke:#000000; stroke-linecap:butt; stroke-linejoin:round; stroke-width:4; stroke-opacity:1; fill:none" points="
  370.861,601.99 380.31,601.99 
  "/>
<polyline clip-path="url(#clip210)" style="stroke:#000000; stroke-linecap:butt; stroke-linejoin:round; stroke-width:4; stroke-opacity:1; fill:none" points="
  370.861,546.084 380.31,546.084 
  "/>
<polyline clip-path="url(#clip210)" style="stroke:#000000; stroke-linecap:butt; stroke-linejoin:round; stroke-width:4; stroke-opacity:1; fill:none" points="
  370.861,434.274 380.31,434.274 
  "/>
<polyline clip-path="url(#clip210)" style="stroke:#000000; stroke-linecap:butt; stroke-linejoin:round; stroke-width:4; stroke-opacity:1; fill:none" points="
  370.861,378.368 380.31,378.368 
  "/>
<polyline clip-path="url(#clip210)" style="stroke:#000000; stroke-linecap:butt; stroke-linejoin:round; stroke-width:4; stroke-opacity:1; fill:none" points="
  370.861,322.463 380.31,322.463 
  "/>
<polyline clip-path="url(#clip210)" style="stroke:#000000; stroke-linecap:butt; stroke-linejoin:round; stroke-width:4; stroke-opacity:1; fill:none" points="
  370.861,266.558 380.31,266.558 
  "/>
<polyline clip-path="url(#clip210)" style="stroke:#000000; stroke-linecap:butt; stroke-linejoin:round; stroke-width:4; stroke-opacity:1; fill:none" points="
  370.861,154.747 380.31,154.747 
  "/>
<path clip-path="url(#clip210)" d="M129.862 1322 L118.056 1340.45 L129.862 1340.45 L129.862 1322 M128.635 1317.93 L134.515 1317.93 L134.515 1340.45 L139.445 1340.45 L139.445 1344.34 L134.515 1344.34 L134.515 1352.49 L129.862 1352.49 L129.862 1344.34 L114.26 1344.34 L114.26 1339.82 L128.635 1317.93 Z" fill="#000000" fill-rule="evenodd" fill-opacity="1" /><path clip-path="url(#clip210)" d="M147.177 1346.61 L152.061 1346.61 L152.061 1352.49 L147.177 1352.49 L147.177 1346.61 Z" fill="#000000" fill-rule="evenodd" fill-opacity="1" /><path clip-path="url(#clip210)" d="M172.246 1321.01 Q168.635 1321.01 166.806 1324.57 Q165.001 1328.11 165.001 1335.24 Q165.001 1342.35 166.806 1345.91 Q168.635 1349.45 172.246 1349.45 Q175.88 1349.45 177.686 1345.91 Q179.514 1342.35 179.514 1335.24 Q179.514 1328.11 177.686 1324.57 Q175.88 1321.01 172.246 1321.01 M172.246 1317.3 Q178.056 1317.3 181.112 1321.91 Q184.19 1326.49 184.19 1335.24 Q184.19 1343.97 181.112 1348.57 Q178.056 1353.16 172.246 1353.16 Q166.436 1353.16 163.357 1348.57 Q160.302 1343.97 160.302 1335.24 Q160.302 1326.49 163.357 1321.91 Q166.436 1317.3 172.246 1317.3 Z" fill="#000000" fill-rule="evenodd" fill-opacity="1" /><path clip-path="url(#clip210)" d="M202.408 1321.01 Q198.797 1321.01 196.968 1324.57 Q195.163 1328.11 195.163 1335.24 Q195.163 1342.35 196.968 1345.91 Q198.797 1349.45 202.408 1349.45 Q206.042 1349.45 207.848 1345.91 Q209.676 1342.35 209.676 1335.24 Q209.676 1328.11 207.848 1324.57 Q206.042 1321.01 202.408 1321.01 M202.408 1317.3 Q208.218 1317.3 211.274 1321.91 Q214.352 1326.49 214.352 1335.24 Q214.352 1343.97 211.274 1348.57 Q208.218 1353.16 202.408 1353.16 Q196.598 1353.16 193.519 1348.57 Q190.463 1343.97 190.463 1335.24 Q190.463 1326.49 193.519 1321.91 Q196.598 1317.3 202.408 1317.3 Z" fill="#000000" fill-rule="evenodd" fill-opacity="1" /><path clip-path="url(#clip210)" d="M250.741 1327.02 L240.162 1337.65 L250.741 1348.23 L247.986 1351.03 L237.361 1340.4 L226.736 1351.03 L224.005 1348.23 L234.56 1337.65 L224.005 1327.02 L226.736 1324.22 L237.361 1334.85 L247.986 1324.22 L250.741 1327.02 Z" fill="#000000" fill-rule="evenodd" fill-opacity="1" /><path clip-path="url(#clip210)" d="M263.102 1348.55 L270.741 1348.55 L270.741 1322.19 L262.431 1323.85 L262.431 1319.59 L270.695 1317.93 L275.37 1317.93 L275.37 1348.55 L283.009 1348.55 L283.009 1352.49 L263.102 1352.49 L263.102 1348.55 Z" fill="#000000" fill-rule="evenodd" fill-opacity="1" /><path clip-path="url(#clip210)" d="M302.454 1321.01 Q298.843 1321.01 297.014 1324.57 Q295.208 1328.11 295.208 1335.24 Q295.208 1342.35 297.014 1345.91 Q298.843 1349.45 302.454 1349.45 Q306.088 1349.45 307.893 1345.91 Q309.722 1342.35 309.722 1335.24 Q309.722 1328.11 307.893 1324.57 Q306.088 1321.01 302.454 1321.01 M302.454 1317.3 Q308.264 1317.3 311.319 1321.91 Q314.398 1326.49 314.398 1335.24 Q314.398 1343.97 311.319 1348.57 Q308.264 1353.16 302.454 1353.16 Q296.643 1353.16 293.565 1348.57 Q290.509 1343.97 290.509 1335.24 Q290.509 1326.49 293.565 1321.91 Q296.643 1317.3 302.454 1317.3 Z" fill="#000000" fill-rule="evenodd" fill-opacity="1" /><path clip-path="url(#clip210)" d="M327.074 1300.31 L317.482 1315.3 L327.074 1315.3 L327.074 1300.31 M326.078 1297 L330.855 1297 L330.855 1315.3 L334.861 1315.3 L334.861 1318.46 L330.855 1318.46 L330.855 1325.08 L327.074 1325.08 L327.074 1318.46 L314.398 1318.46 L314.398 1314.79 L326.078 1297 Z" fill="#000000" fill-rule="evenodd" fill-opacity="1" /><path clip-path="url(#clip210)" d="M127.593 1053.82 Q124.445 1053.82 122.593 1055.97 Q120.765 1058.12 120.765 1061.87 Q120.765 1065.6 122.593 1067.77 Q124.445 1069.93 127.593 1069.93 Q130.742 1069.93 132.57 1067.77 Q134.422 1065.6 134.422 1061.87 Q134.422 1058.12 132.57 1055.97 Q130.742 1053.82 127.593 1053.82 M136.876 1039.16 L136.876 1043.42 Q135.117 1042.59 133.311 1042.15 Q131.529 1041.71 129.769 1041.71 Q125.14 1041.71 122.686 1044.84 Q120.255 1047.96 119.908 1054.28 Q121.274 1052.27 123.334 1051.2 Q125.394 1050.11 127.871 1050.11 Q133.08 1050.11 136.089 1053.28 Q139.121 1056.43 139.121 1061.87 Q139.121 1067.2 135.973 1070.41 Q132.825 1073.63 127.593 1073.63 Q121.598 1073.63 118.427 1069.05 Q115.256 1064.44 115.256 1055.71 Q115.256 1047.52 119.144 1042.66 Q123.033 1037.78 129.584 1037.78 Q131.343 1037.78 133.126 1038.12 Q134.931 1038.47 136.876 1039.16 Z" fill="#000000" fill-rule="evenodd" fill-opacity="1" /><path clip-path="url(#clip210)" d="M147.177 1067.08 L152.061 1067.08 L152.061 1072.96 L147.177 1072.96 L147.177 1067.08 Z" fill="#000000" fill-rule="evenodd" fill-opacity="1" /><path clip-path="url(#clip210)" d="M172.246 1041.48 Q168.635 1041.48 166.806 1045.04 Q165.001 1048.59 165.001 1055.71 Q165.001 1062.82 166.806 1066.39 Q168.635 1069.93 172.246 1069.93 Q175.88 1069.93 177.686 1066.39 Q179.514 1062.82 179.514 1055.71 Q179.514 1048.59 177.686 1045.04 Q175.88 1041.48 172.246 1041.48 M172.246 1037.78 Q178.056 1037.78 181.112 1042.38 Q184.19 1046.96 184.19 1055.71 Q184.19 1064.44 181.112 1069.05 Q178.056 1073.63 172.246 1073.63 Q166.436 1073.63 163.357 1069.05 Q160.302 1064.44 160.302 1055.71 Q160.302 1046.96 163.357 1042.38 Q166.436 1037.78 172.246 1037.78 Z" fill="#000000" fill-rule="evenodd" fill-opacity="1" /><path clip-path="url(#clip210)" d="M202.408 1041.48 Q198.797 1041.48 196.968 1045.04 Q195.163 1048.59 195.163 1055.71 Q195.163 1062.82 196.968 1066.39 Q198.797 1069.93 202.408 1069.93 Q206.042 1069.93 207.848 1066.39 Q209.676 1062.82 209.676 1055.71 Q209.676 1048.59 207.848 1045.04 Q206.042 1041.48 202.408 1041.48 M202.408 1037.78 Q208.218 1037.78 211.274 1042.38 Q214.352 1046.96 214.352 1055.71 Q214.352 1064.44 211.274 1069.05 Q208.218 1073.63 202.408 1073.63 Q196.598 1073.63 193.519 1069.05 Q190.463 1064.44 190.463 1055.71 Q190.463 1046.96 193.519 1042.38 Q196.598 1037.78 202.408 1037.78 Z" fill="#000000" fill-rule="evenodd" fill-opacity="1" /><path clip-path="url(#clip210)" d="M250.741 1047.5 L240.162 1058.12 L250.741 1068.7 L247.986 1071.5 L237.361 1060.88 L226.736 1071.5 L224.005 1068.7 L234.56 1058.12 L224.005 1047.5 L226.736 1044.7 L237.361 1055.32 L247.986 1044.7 L250.741 1047.5 Z" fill="#000000" fill-rule="evenodd" fill-opacity="1" /><path clip-path="url(#clip210)" d="M263.102 1069.02 L270.741 1069.02 L270.741 1042.66 L262.431 1044.33 L262.431 1040.07 L270.695 1038.4 L275.37 1038.4 L275.37 1069.02 L283.009 1069.02 L283.009 1072.96 L263.102 1072.96 L263.102 1069.02 Z" fill="#000000" fill-rule="evenodd" fill-opacity="1" /><path clip-path="url(#clip210)" d="M302.454 1041.48 Q298.843 1041.48 297.014 1045.04 Q295.208 1048.59 295.208 1055.71 Q295.208 1062.82 297.014 1066.39 Q298.843 1069.93 302.454 1069.93 Q306.088 1069.93 307.893 1066.39 Q309.722 1062.82 309.722 1055.71 Q309.722 1048.59 307.893 1045.04 Q306.088 1041.48 302.454 1041.48 M302.454 1037.78 Q308.264 1037.78 311.319 1042.38 Q314.398 1046.96 314.398 1055.71 Q314.398 1064.44 311.319 1069.05 Q308.264 1073.63 302.454 1073.63 Q296.643 1073.63 293.565 1069.05 Q290.509 1064.44 290.509 1055.71 Q290.509 1046.96 293.565 1042.38 Q296.643 1037.78 302.454 1037.78 Z" fill="#000000" fill-rule="evenodd" fill-opacity="1" /><path clip-path="url(#clip210)" d="M327.074 1020.78 L317.482 1035.77 L327.074 1035.77 L327.074 1020.78 M326.078 1017.47 L330.855 1017.47 L330.855 1035.77 L334.861 1035.77 L334.861 1038.93 L330.855 1038.93 L330.855 1045.55 L327.074 1045.55 L327.074 1038.93 L314.398 1038.93 L314.398 1035.26 L326.078 1017.47 Z" fill="#000000" fill-rule="evenodd" fill-opacity="1" /><path clip-path="url(#clip210)" d="M127.015 777.021 Q123.681 777.021 121.76 778.804 Q119.862 780.586 119.862 783.711 Q119.862 786.836 121.76 788.619 Q123.681 790.401 127.015 790.401 Q130.348 790.401 132.269 788.619 Q134.191 786.813 134.191 783.711 Q134.191 780.586 132.269 778.804 Q130.371 777.021 127.015 777.021 M122.339 775.031 Q119.33 774.29 117.64 772.23 Q115.973 770.17 115.973 767.207 Q115.973 763.063 118.913 760.656 Q121.876 758.248 127.015 758.248 Q132.177 758.248 135.117 760.656 Q138.056 763.063 138.056 767.207 Q138.056 770.17 136.367 772.23 Q134.7 774.29 131.714 775.031 Q135.093 775.818 136.968 778.109 Q138.867 780.401 138.867 783.711 Q138.867 788.734 135.788 791.42 Q132.732 794.105 127.015 794.105 Q121.297 794.105 118.218 791.42 Q115.163 788.734 115.163 783.711 Q115.163 780.401 117.061 778.109 Q118.959 775.818 122.339 775.031 M120.626 767.647 Q120.626 770.332 122.293 771.836 Q123.982 773.341 127.015 773.341 Q130.024 773.341 131.714 771.836 Q133.427 770.332 133.427 767.647 Q133.427 764.961 131.714 763.457 Q130.024 761.952 127.015 761.952 Q123.982 761.952 122.293 763.457 Q120.626 764.961 120.626 767.647 Z" fill="#000000" fill-rule="evenodd" fill-opacity="1" /><path clip-path="url(#clip210)" d="M147.177 787.554 L152.061 787.554 L152.061 793.433 L147.177 793.433 L147.177 787.554 Z" fill="#000000" fill-rule="evenodd" fill-opacity="1" /><path clip-path="url(#clip210)" d="M172.246 761.952 Q168.635 761.952 166.806 765.517 Q165.001 769.059 165.001 776.188 Q165.001 783.295 166.806 786.859 Q168.635 790.401 172.246 790.401 Q175.88 790.401 177.686 786.859 Q179.514 783.295 179.514 776.188 Q179.514 769.059 177.686 765.517 Q175.88 761.952 172.246 761.952 M172.246 758.248 Q178.056 758.248 181.112 762.855 Q184.19 767.438 184.19 776.188 Q184.19 784.915 181.112 789.521 Q178.056 794.105 172.246 794.105 Q166.436 794.105 163.357 789.521 Q160.302 784.915 160.302 776.188 Q160.302 767.438 163.357 762.855 Q166.436 758.248 172.246 758.248 Z" fill="#000000" fill-rule="evenodd" fill-opacity="1" /><path clip-path="url(#clip210)" d="M202.408 761.952 Q198.797 761.952 196.968 765.517 Q195.163 769.059 195.163 776.188 Q195.163 783.295 196.968 786.859 Q198.797 790.401 202.408 790.401 Q206.042 790.401 207.848 786.859 Q209.676 783.295 209.676 776.188 Q209.676 769.059 207.848 765.517 Q206.042 761.952 202.408 761.952 M202.408 758.248 Q208.218 758.248 211.274 762.855 Q214.352 767.438 214.352 776.188 Q214.352 784.915 211.274 789.521 Q208.218 794.105 202.408 794.105 Q196.598 794.105 193.519 789.521 Q190.463 784.915 190.463 776.188 Q190.463 767.438 193.519 762.855 Q196.598 758.248 202.408 758.248 Z" fill="#000000" fill-rule="evenodd" fill-opacity="1" /><path clip-path="url(#clip210)" d="M250.741 767.971 L240.162 778.596 L250.741 789.174 L247.986 791.975 L237.361 781.35 L226.736 791.975 L224.005 789.174 L234.56 778.596 L224.005 767.971 L226.736 765.17 L237.361 775.795 L247.986 765.17 L250.741 767.971 Z" fill="#000000" fill-rule="evenodd" fill-opacity="1" /><path clip-path="url(#clip210)" d="M263.102 789.498 L270.741 789.498 L270.741 763.133 L262.431 764.799 L262.431 760.54 L270.695 758.873 L275.37 758.873 L275.37 789.498 L283.009 789.498 L283.009 793.433 L263.102 793.433 L263.102 789.498 Z" fill="#000000" fill-rule="evenodd" fill-opacity="1" /><path clip-path="url(#clip210)" d="M302.454 761.952 Q298.843 761.952 297.014 765.517 Q295.208 769.059 295.208 776.188 Q295.208 783.295 297.014 786.859 Q298.843 790.401 302.454 790.401 Q306.088 790.401 307.893 786.859 Q309.722 783.295 309.722 776.188 Q309.722 769.059 307.893 765.517 Q306.088 761.952 302.454 761.952 M302.454 758.248 Q308.264 758.248 311.319 762.855 Q314.398 767.438 314.398 776.188 Q314.398 784.915 311.319 789.521 Q308.264 794.105 302.454 794.105 Q296.643 794.105 293.565 789.521 Q290.509 784.915 290.509 776.188 Q290.509 767.438 293.565 762.855 Q296.643 758.248 302.454 758.248 Z" fill="#000000" fill-rule="evenodd" fill-opacity="1" /><path clip-path="url(#clip210)" d="M327.074 741.253 L317.482 756.243 L327.074 756.243 L327.074 741.253 M326.078 737.943 L330.855 737.943 L330.855 756.243 L334.861 756.243 L334.861 759.403 L330.855 759.403 L330.855 766.023 L327.074 766.023 L327.074 759.403 L314.398 759.403 L314.398 755.735 L326.078 737.943 Z" fill="#000000" fill-rule="evenodd" fill-opacity="1" /><path clip-path="url(#clip210)" d="M120.12 509.972 L127.758 509.972 L127.758 483.606 L119.448 485.273 L119.448 481.013 L127.712 479.347 L132.388 479.347 L132.388 509.972 L140.027 509.972 L140.027 513.907 L120.12 513.907 L120.12 509.972 Z" fill="#000000" fill-rule="evenodd" fill-opacity="1" /><path clip-path="url(#clip210)" d="M149.471 508.027 L154.355 508.027 L154.355 513.907 L149.471 513.907 L149.471 508.027 Z" fill="#000000" fill-rule="evenodd" fill-opacity="1" /><path clip-path="url(#clip210)" d="M174.541 482.425 Q170.929 482.425 169.101 485.99 Q167.295 489.532 167.295 496.661 Q167.295 503.768 169.101 507.333 Q170.929 510.874 174.541 510.874 Q178.175 510.874 179.98 507.333 Q181.809 503.768 181.809 496.661 Q181.809 489.532 179.98 485.99 Q178.175 482.425 174.541 482.425 M174.541 478.722 Q180.351 478.722 183.406 483.328 Q186.485 487.911 186.485 496.661 Q186.485 505.388 183.406 509.995 Q180.351 514.578 174.541 514.578 Q168.73 514.578 165.652 509.995 Q162.596 505.388 162.596 496.661 Q162.596 487.911 165.652 483.328 Q168.73 478.722 174.541 478.722 Z" fill="#000000" fill-rule="evenodd" fill-opacity="1" /><path clip-path="url(#clip210)" d="M204.702 482.425 Q201.091 482.425 199.263 485.99 Q197.457 489.532 197.457 496.661 Q197.457 503.768 199.263 507.333 Q201.091 510.874 204.702 510.874 Q208.337 510.874 210.142 507.333 Q211.971 503.768 211.971 496.661 Q211.971 489.532 210.142 485.99 Q208.337 482.425 204.702 482.425 M204.702 478.722 Q210.513 478.722 213.568 483.328 Q216.647 487.911 216.647 496.661 Q216.647 505.388 213.568 509.995 Q210.513 514.578 204.702 514.578 Q198.892 514.578 195.814 509.995 Q192.758 505.388 192.758 496.661 Q192.758 487.911 195.814 483.328 Q198.892 478.722 204.702 478.722 Z" fill="#000000" fill-rule="evenodd" fill-opacity="1" /><path clip-path="url(#clip210)" d="M253.035 488.444 L242.457 499.069 L253.035 509.647 L250.281 512.448 L239.656 501.823 L229.031 512.448 L226.299 509.647 L236.855 499.069 L226.299 488.444 L229.031 485.643 L239.656 496.268 L250.281 485.643 L253.035 488.444 Z" fill="#000000" fill-rule="evenodd" fill-opacity="1" /><path clip-path="url(#clip210)" d="M265.397 509.972 L273.035 509.972 L273.035 483.606 L264.725 485.273 L264.725 481.013 L272.989 479.347 L277.665 479.347 L277.665 509.972 L285.304 509.972 L285.304 513.907 L265.397 513.907 L265.397 509.972 Z" fill="#000000" fill-rule="evenodd" fill-opacity="1" /><path clip-path="url(#clip210)" d="M304.748 482.425 Q301.137 482.425 299.308 485.99 Q297.503 489.532 297.503 496.661 Q297.503 503.768 299.308 507.333 Q301.137 510.874 304.748 510.874 Q308.382 510.874 310.188 507.333 Q312.017 503.768 312.017 496.661 Q312.017 489.532 310.188 485.99 Q308.382 482.425 304.748 482.425 M304.748 478.722 Q310.558 478.722 313.614 483.328 Q316.693 487.911 316.693 496.661 Q316.693 505.388 313.614 509.995 Q310.558 514.578 304.748 514.578 Q298.938 514.578 295.859 509.995 Q292.804 505.388 292.804 496.661 Q292.804 487.911 295.859 483.328 Q298.938 478.722 304.748 478.722 Z" fill="#000000" fill-rule="evenodd" fill-opacity="1" /><path clip-path="url(#clip210)" d="M317.877 458.416 L332.792 458.416 L332.792 461.614 L321.357 461.614 L321.357 468.497 Q322.184 468.215 323.012 468.084 Q323.839 467.933 324.667 467.933 Q329.369 467.933 332.115 470.51 Q334.861 473.086 334.861 477.487 Q334.861 482.02 332.04 484.54 Q329.218 487.042 324.084 487.042 Q322.316 487.042 320.473 486.741 Q318.649 486.44 316.693 485.838 L316.693 482.02 Q318.385 482.942 320.191 483.393 Q321.996 483.844 324.009 483.844 Q327.262 483.844 329.162 482.133 Q331.062 480.421 331.062 477.487 Q331.062 474.553 329.162 472.842 Q327.262 471.13 324.009 471.13 Q322.485 471.13 320.962 471.469 Q319.457 471.807 317.877 472.522 L317.877 458.416 Z" fill="#000000" fill-rule="evenodd" fill-opacity="1" /><path clip-path="url(#clip210)" d="M120.12 230.445 L127.758 230.445 L127.758 204.079 L119.448 205.746 L119.448 201.487 L127.712 199.82 L132.388 199.82 L132.388 230.445 L140.027 230.445 L140.027 234.38 L120.12 234.38 L120.12 230.445 Z" fill="#000000" fill-rule="evenodd" fill-opacity="1" /><path clip-path="url(#clip210)" d="M149.471 228.5 L154.355 228.5 L154.355 234.38 L149.471 234.38 L149.471 228.5 Z" fill="#000000" fill-rule="evenodd" fill-opacity="1" /><path clip-path="url(#clip210)" d="M168.568 230.445 L184.888 230.445 L184.888 234.38 L162.943 234.38 L162.943 230.445 Q165.605 227.69 170.189 223.061 Q174.795 218.408 175.976 217.065 Q178.221 214.542 179.101 212.806 Q180.003 211.047 180.003 209.357 Q180.003 206.602 178.059 204.866 Q176.138 203.13 173.036 203.13 Q170.837 203.13 168.383 203.894 Q165.953 204.658 163.175 206.209 L163.175 201.487 Q165.999 200.352 168.453 199.774 Q170.906 199.195 172.943 199.195 Q178.314 199.195 181.508 201.88 Q184.702 204.565 184.702 209.056 Q184.702 211.186 183.892 213.107 Q183.105 215.005 180.999 217.598 Q180.42 218.269 177.318 221.487 Q174.216 224.681 168.568 230.445 Z" fill="#000000" fill-rule="evenodd" fill-opacity="1" /><path clip-path="url(#clip210)" d="M204.702 202.899 Q201.091 202.899 199.263 206.464 Q197.457 210.005 197.457 217.135 Q197.457 224.241 199.263 227.806 Q201.091 231.348 204.702 231.348 Q208.337 231.348 210.142 227.806 Q211.971 224.241 211.971 217.135 Q211.971 210.005 210.142 206.464 Q208.337 202.899 204.702 202.899 M204.702 199.195 Q210.513 199.195 213.568 203.801 Q216.647 208.385 216.647 217.135 Q216.647 225.862 213.568 230.468 Q210.513 235.051 204.702 235.051 Q198.892 235.051 195.814 230.468 Q192.758 225.862 192.758 217.135 Q192.758 208.385 195.814 203.801 Q198.892 199.195 204.702 199.195 Z" fill="#000000" fill-rule="evenodd" fill-opacity="1" /><path clip-path="url(#clip210)" d="M253.035 208.917 L242.457 219.542 L253.035 230.121 L250.281 232.922 L239.656 222.297 L229.031 232.922 L226.299 230.121 L236.855 219.542 L226.299 208.917 L229.031 206.116 L239.656 216.741 L250.281 206.116 L253.035 208.917 Z" fill="#000000" fill-rule="evenodd" fill-opacity="1" /><path clip-path="url(#clip210)" d="M265.397 230.445 L273.035 230.445 L273.035 204.079 L264.725 205.746 L264.725 201.487 L272.989 199.82 L277.665 199.82 L277.665 230.445 L285.304 230.445 L285.304 234.38 L265.397 234.38 L265.397 230.445 Z" fill="#000000" fill-rule="evenodd" fill-opacity="1" /><path clip-path="url(#clip210)" d="M304.748 202.899 Q301.137 202.899 299.308 206.464 Q297.503 210.005 297.503 217.135 Q297.503 224.241 299.308 227.806 Q301.137 231.348 304.748 231.348 Q308.382 231.348 310.188 227.806 Q312.017 224.241 312.017 217.135 Q312.017 210.005 310.188 206.464 Q308.382 202.899 304.748 202.899 M304.748 199.195 Q310.558 199.195 313.614 203.801 Q316.693 208.385 316.693 217.135 Q316.693 225.862 313.614 230.468 Q310.558 235.051 304.748 235.051 Q298.938 235.051 295.859 230.468 Q292.804 225.862 292.804 217.135 Q292.804 208.385 295.859 203.801 Q298.938 199.195 304.748 199.195 Z" fill="#000000" fill-rule="evenodd" fill-opacity="1" /><path clip-path="url(#clip210)" d="M317.877 178.89 L332.792 178.89 L332.792 182.087 L321.357 182.087 L321.357 188.971 Q322.184 188.688 323.012 188.557 Q323.839 188.406 324.667 188.406 Q329.369 188.406 332.115 190.983 Q334.861 193.56 334.861 197.961 Q334.861 202.493 332.04 205.014 Q329.218 207.515 324.084 207.515 Q322.316 207.515 320.473 207.214 Q318.649 206.913 316.693 206.311 L316.693 202.493 Q318.385 203.415 320.191 203.866 Q321.996 204.318 324.009 204.318 Q327.262 204.318 329.162 202.606 Q331.062 200.895 331.062 197.961 Q331.062 195.027 329.162 193.315 Q327.262 191.604 324.009 191.604 Q322.485 191.604 320.962 191.942 Q319.457 192.281 317.877 192.995 L317.877 178.89 Z" fill="#000000" fill-rule="evenodd" fill-opacity="1" /><path clip-path="url(#clip210)" d="M18.0438 841.996 L24.314 841.996 Q22.5634 845.656 21.704 848.903 Q20.8447 852.149 20.8447 855.173 Q20.8447 860.425 22.8817 863.289 Q24.9187 866.122 28.6745 866.122 Q31.8255 866.122 33.4488 864.244 Q35.0402 862.334 36.0269 857.051 L36.8226 853.168 Q38.1912 845.975 41.6605 842.569 Q45.098 839.131 50.8908 839.131 Q57.7976 839.131 61.3624 843.778 Q64.9272 848.394 64.9272 857.337 Q64.9272 860.711 64.1633 864.531 Q63.3994 868.318 61.9035 872.392 L55.2831 872.392 Q57.4793 868.477 58.5933 864.722 Q59.7073 860.966 59.7073 857.337 Q59.7073 851.831 57.543 848.839 Q55.3786 845.847 51.3682 845.847 Q47.8671 845.847 45.8937 848.012 Q43.9204 850.144 42.9337 855.046 L42.1698 858.961 Q40.7375 866.154 37.682 869.369 Q34.6264 872.583 29.1837 872.583 Q22.8817 872.583 19.2532 868.159 Q15.6248 863.703 15.6248 855.905 Q15.6248 852.563 16.2295 849.094 Q16.8343 845.624 18.0438 841.996 Z" fill="#000000" fill-rule="evenodd" fill-opacity="1" /><path clip-path="url(#clip210)" d="M46.0847 813.159 Q46.0847 820.257 47.7079 822.994 Q49.3312 825.732 53.2461 825.732 Q56.3653 825.732 58.2114 823.695 Q60.0256 821.626 60.0256 818.093 Q60.0256 813.223 56.5881 810.295 Q53.1188 807.335 47.3897 807.335 L46.0847 807.335 L46.0847 813.159 M43.6657 801.478 L64.0042 801.478 L64.0042 807.335 L58.5933 807.335 Q61.8398 809.34 63.3994 812.332 Q64.9272 815.324 64.9272 819.652 Q64.9272 825.127 61.8716 828.373 Q58.7843 831.588 53.6281 831.588 Q47.6125 831.588 44.5569 827.578 Q41.5014 823.535 41.5014 815.547 L41.5014 807.335 L40.9285 807.335 Q36.8862 807.335 34.6901 810.008 Q32.4621 812.65 32.4621 817.456 Q32.4621 820.512 33.1941 823.408 Q33.9262 826.305 35.3903 828.978 L29.9795 828.978 Q28.7381 825.763 28.1334 822.74 Q27.4968 819.716 27.4968 816.852 Q27.4968 809.117 31.5072 805.298 Q35.5176 801.478 43.6657 801.478 Z" fill="#000000" fill-rule="evenodd" fill-opacity="1" /><path clip-path="url(#clip210)" d="M14.479 789.415 L14.479 783.559 L64.0042 783.559 L64.0042 789.415 L14.479 789.415 Z" fill="#000000" fill-rule="evenodd" fill-opacity="1" /><path clip-path="url(#clip210)" d="M46.0847 755.104 Q46.0847 762.202 47.7079 764.939 Q49.3312 767.676 53.2461 767.676 Q56.3653 767.676 58.2114 765.639 Q60.0256 763.571 60.0256 760.038 Q60.0256 755.168 56.5881 752.24 Q53.1188 749.28 47.3897 749.28 L46.0847 749.28 L46.0847 755.104 M43.6657 743.423 L64.0042 743.423 L64.0042 749.28 L58.5933 749.28 Q61.8398 751.285 63.3994 754.277 Q64.9272 757.268 64.9272 761.597 Q64.9272 767.072 61.8716 770.318 Q58.7843 773.533 53.6281 773.533 Q47.6125 773.533 44.5569 769.522 Q41.5014 765.48 41.5014 757.491 L41.5014 749.28 L40.9285 749.28 Q36.8862 749.28 34.6901 751.953 Q32.4621 754.595 32.4621 759.401 Q32.4621 762.457 33.1941 765.353 Q33.9262 768.249 35.3903 770.923 L29.9795 770.923 Q28.7381 767.708 28.1334 764.685 Q27.4968 761.661 27.4968 758.796 Q27.4968 751.062 31.5072 747.243 Q35.5176 743.423 43.6657 743.423 Z" fill="#000000" fill-rule="evenodd" fill-opacity="1" /><path clip-path="url(#clip210)" d="M33.8307 710.703 Q33.2578 711.69 33.0032 712.868 Q32.7167 714.014 32.7167 715.414 Q32.7167 720.379 35.9632 723.053 Q39.1779 725.695 45.2253 725.695 L64.0042 725.695 L64.0042 731.583 L28.3562 731.583 L28.3562 725.695 L33.8944 725.695 Q30.6479 723.849 29.0883 720.888 Q27.4968 717.928 27.4968 713.695 Q27.4968 713.09 27.5923 712.358 Q27.656 711.626 27.8151 710.735 L33.8307 710.703 Z" fill="#000000" fill-rule="evenodd" fill-opacity="1" /><path clip-path="url(#clip210)" d="M67.3143 689.728 Q73.68 692.211 75.6216 694.566 Q77.5631 696.922 77.5631 700.868 L77.5631 705.547 L72.6615 705.547 L72.6615 702.11 Q72.6615 699.691 71.5157 698.354 Q70.3699 697.017 66.1048 695.394 L63.4312 694.343 L28.3562 708.762 L28.3562 702.555 L56.238 691.415 L28.3562 680.275 L28.3562 674.069 L67.3143 689.728 Z" fill="#000000" fill-rule="evenodd" fill-opacity="1" /><path clip-path="url(#clip210)" d="M687.07 14.0809 L687.07 22.0612 Q682.411 19.8332 678.279 18.7395 Q674.147 17.6457 670.299 17.6457 Q663.615 17.6457 659.969 20.2383 Q656.364 22.8309 656.364 27.611 Q656.364 31.6214 658.754 33.6873 Q661.184 35.7128 667.909 36.9686 L672.851 37.9813 Q682.006 39.7232 686.34 44.1387 Q690.715 48.5136 690.715 55.8863 Q690.715 64.6767 684.801 69.2137 Q678.927 73.7508 667.544 73.7508 Q663.25 73.7508 658.389 72.7785 Q653.569 71.8063 648.383 69.9024 L648.383 61.4765 Q653.366 64.2716 658.146 65.6895 Q662.926 67.1073 667.544 67.1073 Q674.552 67.1073 678.36 64.3527 Q682.168 61.598 682.168 56.4939 Q682.168 52.0379 679.413 49.5264 Q676.699 47.0148 670.461 45.759 L665.478 44.7868 Q656.323 42.9639 652.232 39.075 Q648.14 35.1862 648.14 28.2591 Q648.14 20.2383 653.771 15.6203 Q659.442 11.0023 669.367 11.0023 Q673.621 11.0023 678.036 11.7719 Q682.451 12.5416 687.07 14.0809 Z" fill="#000000" fill-rule="evenodd" fill-opacity="1" /><path clip-path="url(#clip210)" d="M723.771 49.7694 Q714.737 49.7694 711.253 51.8354 Q707.77 53.9013 707.77 58.8839 Q707.77 62.8538 710.362 65.2034 Q712.995 67.5124 717.492 67.5124 Q723.69 67.5124 727.417 63.1374 Q731.184 58.7219 731.184 51.4303 L731.184 49.7694 L723.771 49.7694 M738.638 46.6907 L738.638 72.576 L731.184 72.576 L731.184 65.6895 Q728.632 69.8214 724.824 71.8063 Q721.016 73.7508 715.507 73.7508 Q708.539 73.7508 704.407 69.8619 Q700.316 65.9325 700.316 59.3701 Q700.316 51.7138 705.42 47.825 Q710.565 43.9361 720.733 43.9361 L731.184 43.9361 L731.184 43.2069 Q731.184 38.0623 727.781 35.2672 Q724.419 32.4315 718.302 32.4315 Q714.413 32.4315 710.727 33.3632 Q707.04 34.295 703.638 36.1584 L703.638 29.2718 Q707.729 27.692 711.577 26.9223 Q715.426 26.1121 719.072 26.1121 Q728.915 26.1121 733.776 31.2163 Q738.638 36.3204 738.638 46.6907 Z" fill="#000000" fill-rule="evenodd" fill-opacity="1" /><path clip-path="url(#clip210)" d="M753.99 9.54393 L761.444 9.54393 L761.444 72.576 L753.99 72.576 L753.99 9.54393 Z" fill="#000000" fill-rule="evenodd" fill-opacity="1" /><path clip-path="url(#clip210)" d="M797.659 49.7694 Q788.626 49.7694 785.142 51.8354 Q781.658 53.9013 781.658 58.8839 Q781.658 62.8538 784.251 65.2034 Q786.884 67.5124 791.38 67.5124 Q797.578 67.5124 801.305 63.1374 Q805.072 58.7219 805.072 51.4303 L805.072 49.7694 L797.659 49.7694 M812.526 46.6907 L812.526 72.576 L805.072 72.576 L805.072 65.6895 Q802.52 69.8214 798.712 71.8063 Q794.905 73.7508 789.395 73.7508 Q782.428 73.7508 778.296 69.8619 Q774.204 65.9325 774.204 59.3701 Q774.204 51.7138 779.309 47.825 Q784.453 43.9361 794.621 43.9361 L805.072 43.9361 L805.072 43.2069 Q805.072 38.0623 801.67 35.2672 Q798.307 32.4315 792.19 32.4315 Q788.302 32.4315 784.615 33.3632 Q780.929 34.295 777.526 36.1584 L777.526 29.2718 Q781.618 27.692 785.466 26.9223 Q789.314 26.1121 792.96 26.1121 Q802.804 26.1121 807.665 31.2163 Q812.526 36.3204 812.526 46.6907 Z" fill="#000000" fill-rule="evenodd" fill-opacity="1" /><path clip-path="url(#clip210)" d="M854.169 34.1734 Q852.914 33.4443 851.415 33.1202 Q849.956 32.7556 848.174 32.7556 Q841.855 32.7556 838.452 36.8875 Q835.09 40.9789 835.09 48.6757 L835.09 72.576 L827.595 72.576 L827.595 27.2059 L835.09 27.2059 L835.09 34.2544 Q837.439 30.1225 841.206 28.1376 Q844.974 26.1121 850.361 26.1121 Q851.131 26.1121 852.063 26.2337 Q852.995 26.3147 854.129 26.5172 L854.169 34.1734 Z" fill="#000000" fill-rule="evenodd" fill-opacity="1" /><path clip-path="url(#clip210)" d="M880.865 76.7889 Q877.705 84.8907 874.707 87.3618 Q871.71 89.8329 866.687 89.8329 L860.732 89.8329 L860.732 83.5945 L865.107 83.5945 Q868.185 83.5945 869.887 82.1361 Q871.588 80.6778 873.654 75.2496 L874.991 71.8468 L856.64 27.2059 L864.54 27.2059 L878.718 62.6918 L892.896 27.2059 L900.795 27.2059 L880.865 76.7889 Z" fill="#000000" fill-rule="evenodd" fill-opacity="1" /><path clip-path="url(#clip210)" d="M932.109 27.2059 L940.008 27.2059 L954.186 65.2844 L968.364 27.2059 L976.264 27.2059 L959.25 72.576 L949.122 72.576 L932.109 27.2059 Z" fill="#000000" fill-rule="evenodd" fill-opacity="1" /><path clip-path="url(#clip210)" d="M1015.48 28.5427 L1015.48 35.5912 Q1012.32 33.9709 1008.91 33.1607 Q1005.51 32.3505 1001.87 32.3505 Q996.316 32.3505 993.52 34.0519 Q990.766 35.7533 990.766 39.156 Q990.766 41.7486 992.751 43.2475 Q994.736 44.7058 1000.73 46.0426 L1003.28 46.6097 Q1011.22 48.3111 1014.54 51.4303 Q1017.91 54.509 1017.91 60.0587 Q1017.91 66.3781 1012.88 70.0644 Q1007.9 73.7508 999.151 73.7508 Q995.505 73.7508 991.535 73.0216 Q987.606 72.3329 983.231 70.9151 L983.231 63.2184 Q987.363 65.3654 991.373 66.4591 Q995.384 67.5124 999.313 67.5124 Q1004.58 67.5124 1007.42 65.73 Q1010.25 63.9071 1010.25 60.6258 Q1010.25 57.5877 1008.18 55.9673 Q1006.16 54.3469 999.232 52.8481 L996.64 52.2405 Q989.713 50.7821 986.634 47.7845 Q983.555 44.7463 983.555 39.4801 Q983.555 33.0797 988.092 29.5959 Q992.629 26.1121 1000.97 26.1121 Q1005.11 26.1121 1008.75 26.7198 Q1012.4 27.3274 1015.48 28.5427 Z" fill="#000000" fill-rule="evenodd" fill-opacity="1" /><path clip-path="url(#clip210)" d="M1056.47 12.096 L1094.71 12.096 L1094.71 18.9825 L1064.65 18.9825 L1064.65 36.8875 L1093.46 36.8875 L1093.46 43.7741 L1064.65 43.7741 L1064.65 65.6895 L1095.44 65.6895 L1095.44 72.576 L1056.47 72.576 L1056.47 12.096 Z" fill="#000000" fill-rule="evenodd" fill-opacity="1" /><path clip-path="url(#clip210)" d="M1146.28 27.2059 L1129.87 49.2833 L1147.13 72.576 L1138.34 72.576 L1125.13 54.752 L1111.93 72.576 L1103.14 72.576 L1120.76 48.8377 L1104.64 27.2059 L1113.43 27.2059 L1125.46 43.369 L1137.49 27.2059 L1146.28 27.2059 Z" fill="#000000" fill-rule="evenodd" fill-opacity="1" /><path clip-path="url(#clip210)" d="M1164.87 65.7705 L1164.87 89.8329 L1157.38 89.8329 L1157.38 27.2059 L1164.87 27.2059 L1164.87 34.0924 Q1167.22 30.0415 1170.79 28.0971 Q1174.39 26.1121 1179.38 26.1121 Q1187.64 26.1121 1192.78 32.6746 Q1197.97 39.2371 1197.97 49.9314 Q1197.97 60.6258 1192.78 67.1883 Q1187.64 73.7508 1179.38 73.7508 Q1174.39 73.7508 1170.79 71.8063 Q1167.22 69.8214 1164.87 65.7705 M1190.23 49.9314 Q1190.23 41.7081 1186.83 37.0496 Q1183.47 32.3505 1177.55 32.3505 Q1171.64 32.3505 1168.24 37.0496 Q1164.87 41.7081 1164.87 49.9314 Q1164.87 58.1548 1168.24 62.8538 Q1171.64 67.5124 1177.55 67.5124 Q1183.47 67.5124 1186.83 62.8538 Q1190.23 58.1548 1190.23 49.9314 Z" fill="#000000" fill-rule="evenodd" fill-opacity="1" /><path clip-path="url(#clip210)" d="M1249.13 48.0275 L1249.13 51.6733 L1214.86 51.6733 Q1215.35 59.3701 1219.48 63.421 Q1223.65 67.4314 1231.07 67.4314 Q1235.36 67.4314 1239.37 66.3781 Q1243.42 65.3249 1247.39 63.2184 L1247.39 70.267 Q1243.38 71.9684 1239.17 72.8596 Q1234.95 73.7508 1230.62 73.7508 Q1219.76 73.7508 1213.4 67.4314 Q1207.08 61.1119 1207.08 50.3365 Q1207.08 39.1965 1213.08 32.6746 Q1219.12 26.1121 1229.32 26.1121 Q1238.48 26.1121 1243.79 32.0264 Q1249.13 37.9003 1249.13 48.0275 M1241.68 45.84 Q1241.6 39.7232 1238.24 36.0774 Q1234.91 32.4315 1229.4 32.4315 Q1223.17 32.4315 1219.4 35.9558 Q1215.67 39.4801 1215.1 45.8805 L1241.68 45.84 Z" fill="#000000" fill-rule="evenodd" fill-opacity="1" /><path clip-path="url(#clip210)" d="M1287.66 34.1734 Q1286.4 33.4443 1284.9 33.1202 Q1283.44 32.7556 1281.66 32.7556 Q1275.34 32.7556 1271.94 36.8875 Q1268.58 40.9789 1268.58 48.6757 L1268.58 72.576 L1261.08 72.576 L1261.08 27.2059 L1268.58 27.2059 L1268.58 34.2544 Q1270.93 30.1225 1274.69 28.1376 Q1278.46 26.1121 1283.85 26.1121 Q1284.62 26.1121 1285.55 26.2337 Q1286.48 26.3147 1287.62 26.5172 L1287.66 34.1734 Z" fill="#000000" fill-rule="evenodd" fill-opacity="1" /><path clip-path="url(#clip210)" d="M1295.47 27.2059 L1302.93 27.2059 L1302.93 72.576 L1295.47 72.576 L1295.47 27.2059 M1295.47 9.54393 L1302.93 9.54393 L1302.93 18.9825 L1295.47 18.9825 L1295.47 9.54393 Z" fill="#000000" fill-rule="evenodd" fill-opacity="1" /><path clip-path="url(#clip210)" d="M1357.33 48.0275 L1357.33 51.6733 L1323.06 51.6733 Q1323.55 59.3701 1327.68 63.421 Q1331.85 67.4314 1339.27 67.4314 Q1343.56 67.4314 1347.57 66.3781 Q1351.62 65.3249 1355.59 63.2184 L1355.59 70.267 Q1351.58 71.9684 1347.37 72.8596 Q1343.15 73.7508 1338.82 73.7508 Q1327.96 73.7508 1321.6 67.4314 Q1315.28 61.1119 1315.28 50.3365 Q1315.28 39.1965 1321.28 32.6746 Q1327.31 26.1121 1337.52 26.1121 Q1346.68 26.1121 1351.98 32.0264 Q1357.33 37.9003 1357.33 48.0275 M1349.88 45.84 Q1349.8 39.7232 1346.44 36.0774 Q1343.11 32.4315 1337.6 32.4315 Q1331.37 32.4315 1327.6 35.9558 Q1323.87 39.4801 1323.3 45.8805 L1349.88 45.84 Z" fill="#000000" fill-rule="evenodd" fill-opacity="1" /><path clip-path="url(#clip210)" d="M1407.28 45.1919 L1407.28 72.576 L1399.83 72.576 L1399.83 45.4349 Q1399.83 38.994 1397.31 35.7938 Q1394.8 32.5936 1389.78 32.5936 Q1383.74 32.5936 1380.26 36.4419 Q1376.78 40.2903 1376.78 46.9338 L1376.78 72.576 L1369.28 72.576 L1369.28 27.2059 L1376.78 27.2059 L1376.78 34.2544 Q1379.45 30.163 1383.06 28.1376 Q1386.7 26.1121 1391.44 26.1121 Q1399.26 26.1121 1403.27 30.9732 Q1407.28 35.7938 1407.28 45.1919 Z" fill="#000000" fill-rule="evenodd" fill-opacity="1" /><path clip-path="url(#clip210)" d="M1454.8 28.9478 L1454.8 35.9153 Q1451.64 34.1734 1448.44 33.3227 Q1445.28 32.4315 1442.04 32.4315 Q1434.79 32.4315 1430.78 37.0496 Q1426.76 41.6271 1426.76 49.9314 Q1426.76 58.2358 1430.78 62.8538 Q1434.79 67.4314 1442.04 67.4314 Q1445.28 67.4314 1448.44 66.5807 Q1451.64 65.6895 1454.8 63.9476 L1454.8 70.8341 Q1451.68 72.2924 1448.32 73.0216 Q1444.99 73.7508 1441.23 73.7508 Q1430.98 73.7508 1424.94 67.3098 Q1418.91 60.8689 1418.91 49.9314 Q1418.91 38.832 1424.98 32.472 Q1431.1 26.1121 1441.71 26.1121 Q1445.16 26.1121 1448.44 26.8413 Q1451.72 27.5299 1454.8 28.9478 Z" fill="#000000" fill-rule="evenodd" fill-opacity="1" /><path clip-path="url(#clip210)" d="M1506.57 48.0275 L1506.57 51.6733 L1472.3 51.6733 Q1472.78 59.3701 1476.91 63.421 Q1481.09 67.4314 1488.5 67.4314 Q1492.79 67.4314 1496.8 66.3781 Q1500.86 65.3249 1504.83 63.2184 L1504.83 70.267 Q1500.82 71.9684 1496.6 72.8596 Q1492.39 73.7508 1488.05 73.7508 Q1477.2 73.7508 1470.84 67.4314 Q1464.52 61.1119 1464.52 50.3365 Q1464.52 39.1965 1470.51 32.6746 Q1476.55 26.1121 1486.76 26.1121 Q1495.91 26.1121 1501.22 32.0264 Q1506.57 37.9003 1506.57 48.0275 M1499.11 45.84 Q1499.03 39.7232 1495.67 36.0774 Q1492.35 32.4315 1486.84 32.4315 Q1480.6 32.4315 1476.83 35.9558 Q1473.11 39.4801 1472.54 45.8805 L1499.11 45.84 Z" fill="#000000" fill-rule="evenodd" fill-opacity="1" /><path clip-path="url(#clip210)" d="M1563.08 9.62495 Q1557.65 18.942 1555.02 28.0566 Q1552.38 37.1711 1552.38 46.5287 Q1552.38 55.8863 1555.02 65.0818 Q1557.69 74.2369 1563.08 83.5134 L1556.6 83.5134 Q1550.52 73.9938 1547.48 64.7983 Q1544.48 55.6027 1544.48 46.5287 Q1544.48 37.4952 1547.48 28.3401 Q1550.48 19.1851 1556.6 9.62495 L1563.08 9.62495 Z" fill="#000000" fill-rule="evenodd" fill-opacity="1" /><path clip-path="url(#clip210)" d="M1569.48 12.096 L1620.64 12.096 L1620.64 18.9825 L1599.17 18.9825 L1599.17 72.576 L1590.95 72.576 L1590.95 18.9825 L1569.48 18.9825 L1569.48 12.096 Z" fill="#000000" fill-rule="evenodd" fill-opacity="1" /><path clip-path="url(#clip210)" d="M1642.31 34.1734 Q1641.06 33.4443 1639.56 33.1202 Q1638.1 32.7556 1636.32 32.7556 Q1630 32.7556 1626.6 36.8875 Q1623.23 40.9789 1623.23 48.6757 L1623.23 72.576 L1615.74 72.576 L1615.74 27.2059 L1623.23 27.2059 L1623.23 34.2544 Q1625.58 30.1225 1629.35 28.1376 Q1633.12 26.1121 1638.51 26.1121 Q1639.28 26.1121 1640.21 26.2337 Q1641.14 26.3147 1642.27 26.5172 L1642.31 34.1734 Z" fill="#000000" fill-rule="evenodd" fill-opacity="1" /><path clip-path="url(#clip210)" d="M1670.75 49.7694 Q1661.72 49.7694 1658.23 51.8354 Q1654.75 53.9013 1654.75 58.8839 Q1654.75 62.8538 1657.34 65.2034 Q1659.98 67.5124 1664.47 67.5124 Q1670.67 67.5124 1674.4 63.1374 Q1678.16 58.7219 1678.16 51.4303 L1678.16 49.7694 L1670.75 49.7694 M1685.62 46.6907 L1685.62 72.576 L1678.16 72.576 L1678.16 65.6895 Q1675.61 69.8214 1671.8 71.8063 Q1668 73.7508 1662.49 73.7508 Q1655.52 73.7508 1651.39 69.8619 Q1647.3 65.9325 1647.3 59.3701 Q1647.3 51.7138 1652.4 47.825 Q1657.54 43.9361 1667.71 43.9361 L1678.16 43.9361 L1678.16 43.2069 Q1678.16 38.0623 1674.76 35.2672 Q1671.4 32.4315 1665.28 32.4315 Q1661.39 32.4315 1657.71 33.3632 Q1654.02 34.295 1650.62 36.1584 L1650.62 29.2718 Q1654.71 27.692 1658.56 26.9223 Q1662.41 26.1121 1666.05 26.1121 Q1675.9 26.1121 1680.76 31.2163 Q1685.62 36.3204 1685.62 46.6907 Z" fill="#000000" fill-rule="evenodd" fill-opacity="1" /><path clip-path="url(#clip210)" d="M1700.97 27.2059 L1708.42 27.2059 L1708.42 72.576 L1700.97 72.576 L1700.97 27.2059 M1700.97 9.54393 L1708.42 9.54393 L1708.42 18.9825 L1700.97 18.9825 L1700.97 9.54393 Z" fill="#000000" fill-rule="evenodd" fill-opacity="1" /><path clip-path="url(#clip210)" d="M1761.73 45.1919 L1761.73 72.576 L1754.28 72.576 L1754.28 45.4349 Q1754.28 38.994 1751.77 35.7938 Q1749.26 32.5936 1744.23 32.5936 Q1738.2 32.5936 1734.71 36.4419 Q1731.23 40.2903 1731.23 46.9338 L1731.23 72.576 L1723.74 72.576 L1723.74 27.2059 L1731.23 27.2059 L1731.23 34.2544 Q1733.9 30.163 1737.51 28.1376 Q1741.16 26.1121 1745.89 26.1121 Q1753.71 26.1121 1757.72 30.9732 Q1761.73 35.7938 1761.73 45.1919 Z" fill="#000000" fill-rule="evenodd" fill-opacity="1" /><path clip-path="url(#clip210)" d="M1776.6 27.2059 L1784.05 27.2059 L1784.05 72.576 L1776.6 72.576 L1776.6 27.2059 M1776.6 9.54393 L1784.05 9.54393 L1784.05 18.9825 L1776.6 18.9825 L1776.6 9.54393 Z" fill="#000000" fill-rule="evenodd" fill-opacity="1" /><path clip-path="url(#clip210)" d="M1837.36 45.1919 L1837.36 72.576 L1829.91 72.576 L1829.91 45.4349 Q1829.91 38.994 1827.4 35.7938 Q1824.89 32.5936 1819.86 32.5936 Q1813.83 32.5936 1810.34 36.4419 Q1806.86 40.2903 1806.86 46.9338 L1806.86 72.576 L1799.37 72.576 L1799.37 27.2059 L1806.86 27.2059 L1806.86 34.2544 Q1809.53 30.163 1813.14 28.1376 Q1816.79 26.1121 1821.53 26.1121 Q1829.34 26.1121 1833.35 30.9732 Q1837.36 35.7938 1837.36 45.1919 Z" fill="#000000" fill-rule="evenodd" fill-opacity="1" /><path clip-path="url(#clip210)" d="M1882.09 49.3643 Q1882.09 41.2625 1878.72 36.8065 Q1875.4 32.3505 1869.37 32.3505 Q1863.37 32.3505 1860.01 36.8065 Q1856.69 41.2625 1856.69 49.3643 Q1856.69 57.4256 1860.01 61.8816 Q1863.37 66.3376 1869.37 66.3376 Q1875.4 66.3376 1878.72 61.8816 Q1882.09 57.4256 1882.09 49.3643 M1889.54 66.9452 Q1889.54 78.5308 1884.4 84.1616 Q1879.25 89.8329 1868.64 89.8329 Q1864.71 89.8329 1861.22 89.2252 Q1857.74 88.6581 1854.46 87.4428 L1854.46 80.1917 Q1857.74 81.9741 1860.94 82.8248 Q1864.14 83.6755 1867.46 83.6755 Q1874.79 83.6755 1878.44 79.8271 Q1882.09 76.0193 1882.09 68.282 L1882.09 64.5957 Q1879.78 68.6061 1876.17 70.5911 Q1872.57 72.576 1867.54 72.576 Q1859.2 72.576 1854.09 66.2161 Q1848.99 59.8562 1848.99 49.3643 Q1848.99 38.832 1854.09 32.472 Q1859.2 26.1121 1867.54 26.1121 Q1872.57 26.1121 1876.17 28.0971 Q1879.78 30.082 1882.09 34.0924 L1882.09 27.2059 L1889.54 27.2059 L1889.54 66.9452 Z" fill="#000000" fill-rule="evenodd" fill-opacity="1" /><path clip-path="url(#clip210)" d="M1960.19 28.5427 L1960.19 35.5912 Q1957.03 33.9709 1953.63 33.1607 Q1950.22 32.3505 1946.58 32.3505 Q1941.03 32.3505 1938.23 34.0519 Q1935.48 35.7533 1935.48 39.156 Q1935.48 41.7486 1937.46 43.2475 Q1939.45 44.7058 1945.44 46.0426 L1947.99 46.6097 Q1955.93 48.3111 1959.26 51.4303 Q1962.62 54.509 1962.62 60.0587 Q1962.62 66.3781 1957.6 70.0644 Q1952.61 73.7508 1943.86 73.7508 Q1940.22 73.7508 1936.25 73.0216 Q1932.32 72.3329 1927.94 70.9151 L1927.94 63.2184 Q1932.07 65.3654 1936.08 66.4591 Q1940.1 67.5124 1944.02 67.5124 Q1949.29 67.5124 1952.13 65.73 Q1954.96 63.9071 1954.96 60.6258 Q1954.96 57.5877 1952.9 55.9673 Q1950.87 54.3469 1943.94 52.8481 L1941.35 52.2405 Q1934.42 50.7821 1931.35 47.7845 Q1928.27 44.7463 1928.27 39.4801 Q1928.27 33.0797 1932.8 29.5959 Q1937.34 26.1121 1945.69 26.1121 Q1949.82 26.1121 1953.46 26.7198 Q1957.11 27.3274 1960.19 28.5427 Z" fill="#000000" fill-rule="evenodd" fill-opacity="1" /><path clip-path="url(#clip210)" d="M2013.3 48.0275 L2013.3 51.6733 L1979.02 51.6733 Q1979.51 59.3701 1983.64 63.421 Q1987.81 67.4314 1995.23 67.4314 Q1999.52 67.4314 2003.53 66.3781 Q2007.58 65.3249 2011.55 63.2184 L2011.55 70.267 Q2007.54 71.9684 2003.33 72.8596 Q1999.12 73.7508 1994.78 73.7508 Q1983.93 73.7508 1977.57 67.4314 Q1971.25 61.1119 1971.25 50.3365 Q1971.25 39.1965 1977.24 32.6746 Q1983.28 26.1121 1993.49 26.1121 Q2002.64 26.1121 2007.95 32.0264 Q2013.3 37.9003 2013.3 48.0275 M2005.84 45.84 Q2005.76 39.7232 2002.4 36.0774 Q1999.08 32.4315 1993.57 32.4315 Q1987.33 32.4315 1983.56 35.9558 Q1979.83 39.4801 1979.27 45.8805 L2005.84 45.84 Z" fill="#000000" fill-rule="evenodd" fill-opacity="1" /><path clip-path="url(#clip210)" d="M2032.9 14.324 L2032.9 27.2059 L2048.25 27.2059 L2048.25 32.9987 L2032.9 32.9987 L2032.9 57.6282 Q2032.9 63.1779 2034.4 64.7578 Q2035.94 66.3376 2040.6 66.3376 L2048.25 66.3376 L2048.25 72.576 L2040.6 72.576 Q2031.97 72.576 2028.69 69.3758 Q2025.41 66.1351 2025.41 57.6282 L2025.41 32.9987 L2019.94 32.9987 L2019.94 27.2059 L2025.41 27.2059 L2025.41 14.324 L2032.9 14.324 Z" fill="#000000" fill-rule="evenodd" fill-opacity="1" /><path clip-path="url(#clip210)" d="M2056.88 9.62495 L2063.36 9.62495 Q2069.44 19.1851 2072.44 28.3401 Q2075.48 37.4952 2075.48 46.5287 Q2075.48 55.6027 2072.44 64.7983 Q2069.44 73.9938 2063.36 83.5134 L2056.88 83.5134 Q2062.27 74.2369 2064.9 65.0818 Q2067.58 55.8863 2067.58 46.5287 Q2067.58 37.1711 2064.9 28.0566 Q2062.27 18.942 2056.88 9.62495 Z" fill="#000000" fill-rule="evenodd" fill-opacity="1" /><circle clip-path="url(#clip212)" cx="1262.36" cy="726.547" r="14" fill="#ff0000" fill-rule="evenodd" fill-opacity="1" stroke="#000000" stroke-opacity="1" stroke-width="3.2"/>
<circle clip-path="url(#clip212)" cx="1620.39" cy="514.316" r="14" fill="#ff0000" fill-rule="evenodd" fill-opacity="1" stroke="#000000" stroke-opacity="1" stroke-width="3.2"/>
<circle clip-path="url(#clip212)" cx="983.888" cy="1004.26" r="14" fill="#ff0000" fill-rule="evenodd" fill-opacity="1" stroke="#000000" stroke-opacity="1" stroke-width="3.2"/>
<circle clip-path="url(#clip212)" cx="1401.59" cy="574.876" r="14" fill="#ff0000" fill-rule="evenodd" fill-opacity="1" stroke="#000000" stroke-opacity="1" stroke-width="3.2"/>
<circle clip-path="url(#clip212)" cx="1103.23" cy="1033.7" r="14" fill="#ff0000" fill-rule="evenodd" fill-opacity="1" stroke="#000000" stroke-opacity="1" stroke-width="3.2"/>
<circle clip-path="url(#clip212)" cx="1560.71" cy="605.652" r="14" fill="#ff0000" fill-rule="evenodd" fill-opacity="1" stroke="#000000" stroke-opacity="1" stroke-width="3.2"/>
<polyline clip-path="url(#clip212)" style="stroke:#0000ff; stroke-linecap:butt; stroke-linejoin:round; stroke-width:4; stroke-opacity:1; fill:none" points="
  2097.76,290.697 605.967,1269 1938.63,395.049 1779.51,499.401 1839.18,460.269 645.748,1242.91 506.514,1334.22 1998.31,355.917 804.873,1138.56 1381.7,760.282 
  1023.67,995.075 844.654,1112.47 2117.65,277.653 466.733,1360.31 1222.57,864.634 426.952,1386.4 1182.79,890.722 2296.66,160.256 2256.88,186.344 944.107,1047.25 
  844.654,1112.47 1003.78,1008.12 784.982,1151.6 
  "/>
<path clip-path="url(#clip210)" d="
M1994.26 322.316 L2286.69 322.316 L2286.69 166.796 L1994.26 166.796  Z
  " fill="#ffffff" fill-rule="evenodd" fill-opacity="1"/>
<polyline clip-path="url(#clip210)" style="stroke:#000000; stroke-linecap:butt; stroke-linejoin:round; stroke-width:4; stroke-opacity:1; fill:none" points="
  1994.26,322.316 2286.69,322.316 2286.69,166.796 1994.26,166.796 1994.26,322.316 
  "/>
<circle clip-path="url(#clip210)" cx="2090.26" cy="218.636" r="23" fill="#ff0000" fill-rule="evenodd" fill-opacity="1" stroke="#000000" stroke-opacity="1" stroke-width="5.12"/>
<path clip-path="url(#clip210)" d="M2200.1 238.323 Q2198.3 242.953 2196.59 244.365 Q2194.87 245.777 2192 245.777 L2188.6 245.777 L2188.6 242.212 L2191.1 242.212 Q2192.86 242.212 2193.83 241.379 Q2194.8 240.545 2195.98 237.443 L2196.75 235.499 L2186.26 209.99 L2190.78 209.99 L2198.88 230.268 L2206.98 209.99 L2211.49 209.99 L2200.1 238.323 Z" fill="#000000" fill-rule="evenodd" fill-opacity="1" /><path clip-path="url(#clip210)" d="M2218.79 231.981 L2226.42 231.981 L2226.42 205.615 L2218.11 207.282 L2218.11 203.022 L2226.38 201.356 L2231.05 201.356 L2231.05 231.981 L2238.69 231.981 L2238.69 235.916 L2218.79 235.916 L2218.79 231.981 Z" fill="#000000" fill-rule="evenodd" fill-opacity="1" /><polyline clip-path="url(#clip210)" style="stroke:#0000ff; stroke-linecap:butt; stroke-linejoin:round; stroke-width:4; stroke-opacity:1; fill:none" points="
  2018.26,270.476 2162.26,270.476 
  "/>
<path clip-path="url(#clip210)" d="M2200.1 290.163 Q2198.3 294.793 2196.59 296.205 Q2194.87 297.617 2192 297.617 L2188.6 297.617 L2188.6 294.052 L2191.1 294.052 Q2192.86 294.052 2193.83 293.219 Q2194.8 292.385 2195.98 289.283 L2196.75 287.339 L2186.26 261.83 L2190.78 261.83 L2198.88 282.108 L2206.98 261.83 L2211.49 261.83 L2200.1 290.163 Z" fill="#000000" fill-rule="evenodd" fill-opacity="1" /><path clip-path="url(#clip210)" d="M2222 283.821 L2238.32 283.821 L2238.32 287.756 L2216.38 287.756 L2216.38 283.821 Q2219.04 281.066 2223.62 276.436 Q2228.23 271.784 2229.41 270.441 Q2231.66 267.918 2232.54 266.182 Q2233.44 264.423 2233.44 262.733 Q2233.44 259.978 2231.49 258.242 Q2229.57 256.506 2226.47 256.506 Q2224.27 256.506 2221.82 257.27 Q2219.39 258.034 2216.61 259.585 L2216.61 254.862 Q2219.43 253.728 2221.89 253.149 Q2224.34 252.571 2226.38 252.571 Q2231.75 252.571 2234.94 255.256 Q2238.14 257.941 2238.14 262.432 Q2238.14 264.561 2237.33 266.483 Q2236.54 268.381 2234.43 270.973 Q2233.85 271.645 2230.75 274.862 Q2227.65 278.057 2222 283.821 Z" fill="#000000" fill-rule="evenodd" fill-opacity="1" /></svg>
