<?xml version="1.0" encoding="utf-8"?>
<svg xmlns="http://www.w3.org/2000/svg" xmlns:xlink="http://www.w3.org/1999/xlink" width="600" height="400" viewBox="0 0 2400 1600">
<defs>
  <clipPath id="clip360">
    <rect x="0" y="0" width="2400" height="1600"/>
  </clipPath>
</defs>
<path clip-path="url(#clip360)" d="
M0 1600 L2400 1600 L2400 0 L0 0  Z
  " fill="#ffffff" fill-rule="evenodd" fill-opacity="1"/>
<defs>
  <clipPath id="clip361">
    <rect x="480" y="0" width="1681" height="1600"/>
  </clipPath>
</defs>
<path clip-path="url(#clip360)" d="
M307.593 1486.45 L2352.76 1486.45 L2352.76 47.2441 L307.593 47.2441  Z
  " fill="#ffffff" fill-rule="evenodd" fill-opacity="1"/>
<defs>
  <clipPath id="clip362">
    <rect x="307" y="47" width="2046" height="1440"/>
  </clipPath>
</defs>
<polyline clip-path="url(#clip362)" style="stroke:#000000; stroke-linecap:butt; stroke-linejoin:round; stroke-width:2; stroke-opacity:0.1; fill:none" points="
  550.204,1486.45 550.204,47.2441 
  "/>
<polyline clip-path="url(#clip362)" style="stroke:#000000; stroke-linecap:butt; stroke-linejoin:round; stroke-width:2; stroke-opacity:0.1; fill:none" points="
  960.715,1486.45 960.715,47.2441 
  "/>
<polyline clip-path="url(#clip362)" style="stroke:#000000; stroke-linecap:butt; stroke-linejoin:round; stroke-width:2; stroke-opacity:0.1; fill:none" points="
  1371.23,1486.45 1371.23,47.2441 
  "/>
<polyline clip-path="url(#clip362)" style="stroke:#000000; stroke-linecap:butt; stroke-linejoin:round; stroke-width:2; stroke-opacity:0.1; fill:none" points="
  1781.74,1486.45 1781.74,47.2441 
  "/>
<polyline clip-path="url(#clip362)" style="stroke:#000000; stroke-linecap:butt; stroke-linejoin:round; stroke-width:2; stroke-opacity:0.1; fill:none" points="
  2192.25,1486.45 2192.25,47.2441 
  "/>
<polyline clip-path="url(#clip360)" style="stroke:#000000; stroke-linecap:butt; stroke-linejoin:round; stroke-width:4; stroke-opacity:1; fill:none" points="
  307.593,1486.45 2352.76,1486.45 
  "/>
<polyline clip-path="url(#clip360)" style="stroke:#000000; stroke-linecap:butt; stroke-linejoin:round; stroke-width:4; stroke-opacity:1; fill:none" points="
  550.204,1486.45 550.204,1467.55 
  "/>
<polyline clip-path="url(#clip360)" style="stroke:#000000; stroke-linecap:butt; stroke-linejoin:round; stroke-width:4; stroke-opacity:1; fill:none" points="
  960.715,1486.45 960.715,1467.55 
  "/>
<polyline clip-path="url(#clip360)" style="stroke:#000000; stroke-linecap:butt; stroke-linejoin:round; stroke-width:4; stroke-opacity:1; fill:none" points="
  1371.23,1486.45 1371.23,1467.55 
  "/>
<polyline clip-path="url(#clip360)" style="stroke:#000000; stroke-linecap:butt; stroke-linejoin:round; stroke-width:4; stroke-opacity:1; fill:none" points="
  1781.74,1486.45 1781.74,1467.55 
  "/>
<polyline clip-path="url(#clip360)" style="stroke:#000000; stroke-linecap:butt; stroke-linejoin:round; stroke-width:4; stroke-opacity:1; fill:none" points="
  2192.25,1486.45 2192.25,1467.55 
  "/>
<path clip-path="url(#clip360)" d="M544.857 1544.91 L561.177 1544.91 L561.177 1548.85 L539.232 1548.85 L539.232 1544.91 Q541.894 1542.16 546.478 1537.53 Q551.084 1532.88 552.265 1531.53 Q554.51 1529.01 555.39 1527.27 Q556.292 1525.51 556.292 1523.82 Q556.292 1521.07 554.348 1519.33 Q552.427 1517.6 549.325 1517.6 Q547.126 1517.6 544.672 1518.36 Q542.242 1519.13 539.464 1520.68 L539.464 1515.95 Q542.288 1514.82 544.742 1514.24 Q547.195 1513.66 549.232 1513.66 Q554.603 1513.66 557.797 1516.35 Q560.991 1519.03 560.991 1523.52 Q560.991 1525.65 560.181 1527.57 Q559.394 1529.47 557.288 1532.07 Q556.709 1532.74 553.607 1535.95 Q550.505 1539.15 544.857 1544.91 Z" fill="#000000" fill-rule="evenodd" fill-opacity="1" /><path clip-path="url(#clip360)" d="M963.724 1518.36 L951.919 1536.81 L963.724 1536.81 L963.724 1518.36 M962.497 1514.29 L968.377 1514.29 L968.377 1536.81 L973.307 1536.81 L973.307 1540.7 L968.377 1540.7 L968.377 1548.85 L963.724 1548.85 L963.724 1540.7 L948.122 1540.7 L948.122 1536.19 L962.497 1514.29 Z" fill="#000000" fill-rule="evenodd" fill-opacity="1" /><path clip-path="url(#clip360)" d="M1371.63 1529.7 Q1368.48 1529.7 1366.63 1531.86 Q1364.8 1534.01 1364.8 1537.76 Q1364.8 1541.49 1366.63 1543.66 Q1368.48 1545.82 1371.63 1545.82 Q1374.78 1545.82 1376.61 1543.66 Q1378.46 1541.49 1378.46 1537.76 Q1378.46 1534.01 1376.61 1531.86 Q1374.78 1529.7 1371.63 1529.7 M1380.91 1515.05 L1380.91 1519.31 Q1379.15 1518.48 1377.35 1518.04 Q1375.57 1517.6 1373.81 1517.6 Q1369.18 1517.6 1366.72 1520.72 Q1364.29 1523.85 1363.95 1530.17 Q1365.31 1528.15 1367.37 1527.09 Q1369.43 1526 1371.91 1526 Q1377.12 1526 1380.13 1529.17 Q1383.16 1532.32 1383.16 1537.76 Q1383.16 1543.08 1380.01 1546.3 Q1376.86 1549.52 1371.63 1549.52 Q1365.64 1549.52 1362.46 1544.94 Q1359.29 1540.33 1359.29 1531.6 Q1359.29 1523.41 1363.18 1518.55 Q1367.07 1513.66 1373.62 1513.66 Q1375.38 1513.66 1377.16 1514.01 Q1378.97 1514.36 1380.91 1515.05 Z" fill="#000000" fill-rule="evenodd" fill-opacity="1" /><path clip-path="url(#clip360)" d="M1781.74 1532.44 Q1778.4 1532.44 1776.48 1534.22 Q1774.58 1536 1774.58 1539.13 Q1774.58 1542.25 1776.48 1544.03 Q1778.4 1545.82 1781.74 1545.82 Q1785.07 1545.82 1786.99 1544.03 Q1788.91 1542.23 1788.91 1539.13 Q1788.91 1536 1786.99 1534.22 Q1785.09 1532.44 1781.74 1532.44 M1777.06 1530.45 Q1774.05 1529.7 1772.36 1527.64 Q1770.69 1525.58 1770.69 1522.62 Q1770.69 1518.48 1773.63 1516.07 Q1776.6 1513.66 1781.74 1513.66 Q1786.9 1513.66 1789.84 1516.07 Q1792.78 1518.48 1792.78 1522.62 Q1792.78 1525.58 1791.09 1527.64 Q1789.42 1529.7 1786.43 1530.45 Q1789.81 1531.23 1791.69 1533.52 Q1793.59 1535.82 1793.59 1539.13 Q1793.59 1544.15 1790.51 1546.83 Q1787.45 1549.52 1781.74 1549.52 Q1776.02 1549.52 1772.94 1546.83 Q1769.88 1544.15 1769.88 1539.13 Q1769.88 1535.82 1771.78 1533.52 Q1773.68 1531.23 1777.06 1530.45 M1775.35 1523.06 Q1775.35 1525.75 1777.01 1527.25 Q1778.7 1528.76 1781.74 1528.76 Q1784.75 1528.76 1786.43 1527.25 Q1788.15 1525.75 1788.15 1523.06 Q1788.15 1520.38 1786.43 1518.87 Q1784.75 1517.37 1781.74 1517.37 Q1778.7 1517.37 1777.01 1518.87 Q1775.35 1520.38 1775.35 1523.06 Z" fill="#000000" fill-rule="evenodd" fill-opacity="1" /><path clip-path="url(#clip360)" d="M2166.93 1544.91 L2174.57 1544.91 L2174.57 1518.55 L2166.26 1520.21 L2166.26 1515.95 L2174.53 1514.29 L2179.2 1514.29 L2179.2 1544.91 L2186.84 1544.91 L2186.84 1548.85 L2166.93 1548.85 L2166.93 1544.91 Z" fill="#000000" fill-rule="evenodd" fill-opacity="1" /><path clip-path="url(#clip360)" d="M2206.29 1517.37 Q2202.67 1517.37 2200.85 1520.93 Q2199.04 1524.47 2199.04 1531.6 Q2199.04 1538.71 2200.85 1542.27 Q2202.67 1545.82 2206.29 1545.82 Q2209.92 1545.82 2211.73 1542.27 Q2213.55 1538.71 2213.55 1531.6 Q2213.55 1524.47 2211.73 1520.93 Q2209.92 1517.37 2206.29 1517.37 M2206.29 1513.66 Q2212.1 1513.66 2215.15 1518.27 Q2218.23 1522.85 2218.23 1531.6 Q2218.23 1540.33 2215.15 1544.94 Q2212.1 1549.52 2206.29 1549.52 Q2200.48 1549.52 2197.4 1544.94 Q2194.34 1540.33 2194.34 1531.6 Q2194.34 1522.85 2197.4 1518.27 Q2200.48 1513.66 2206.29 1513.66 Z" fill="#000000" fill-rule="evenodd" fill-opacity="1" /><polyline clip-path="url(#clip362)" style="stroke:#000000; stroke-linecap:butt; stroke-linejoin:round; stroke-width:2; stroke-opacity:0.1; fill:none" points="
  307.593,1387.44 2352.76,1387.44 
  "/>
<polyline clip-path="url(#clip362)" style="stroke:#000000; stroke-linecap:butt; stroke-linejoin:round; stroke-width:2; stroke-opacity:0.1; fill:none" points="
  307.593,1081.74 2352.76,1081.74 
  "/>
<polyline clip-path="url(#clip362)" style="stroke:#000000; stroke-linecap:butt; stroke-linejoin:round; stroke-width:2; stroke-opacity:0.1; fill:none" points="
  307.593,776.047 2352.76,776.047 
  "/>
<polyline clip-path="url(#clip362)" style="stroke:#000000; stroke-linecap:butt; stroke-linejoin:round; stroke-width:2; stroke-opacity:0.1; fill:none" points="
  307.593,470.352 2352.76,470.352 
  "/>
<polyline clip-path="url(#clip362)" style="stroke:#000000; stroke-linecap:butt; stroke-linejoin:round; stroke-width:2; stroke-opacity:0.1; fill:none" points="
  307.593,164.657 2352.76,164.657 
  "/>
<polyline clip-path="url(#clip360)" style="stroke:#000000; stroke-linecap:butt; stroke-linejoin:round; stroke-width:4; stroke-opacity:1; fill:none" points="
  307.593,1486.45 307.593,47.2441 
  "/>
<polyline clip-path="url(#clip360)" style="stroke:#000000; stroke-linecap:butt; stroke-linejoin:round; stroke-width:4; stroke-opacity:1; fill:none" points="
  307.593,1387.44 326.49,1387.44 
  "/>
<polyline clip-path="url(#clip360)" style="stroke:#000000; stroke-linecap:butt; stroke-linejoin:round; stroke-width:4; stroke-opacity:1; fill:none" points="
  307.593,1081.74 326.49,1081.74 
  "/>
<polyline clip-path="url(#clip360)" style="stroke:#000000; stroke-linecap:butt; stroke-linejoin:round; stroke-width:4; stroke-opacity:1; fill:none" points="
  307.593,776.047 326.49,776.047 
  "/>
<polyline clip-path="url(#clip360)" style="stroke:#000000; stroke-linecap:butt; stroke-linejoin:round; stroke-width:4; stroke-opacity:1; fill:none" points="
  307.593,470.352 326.49,470.352 
  "/>
<polyline clip-path="url(#clip360)" style="stroke:#000000; stroke-linecap:butt; stroke-linejoin:round; stroke-width:4; stroke-opacity:1; fill:none" points="
  307.593,164.657 326.49,164.657 
  "/>
<path clip-path="url(#clip360)" d="M66.5939 1380.68 L54.7884 1399.13 L66.5939 1399.13 L66.5939 1380.68 M65.367 1376.6 L71.2466 1376.6 L71.2466 1399.13 L76.1772 1399.13 L76.1772 1403.02 L71.2466 1403.02 L71.2466 1411.16 L66.5939 1411.16 L66.5939 1403.02 L50.9921 1403.02 L50.9921 1398.5 L65.367 1376.6 Z" fill="#000000" fill-rule="evenodd" fill-opacity="1" /><path clip-path="url(#clip360)" d="M83.9086 1405.29 L88.7928 1405.29 L88.7928 1411.16 L83.9086 1411.16 L83.9086 1405.29 Z" fill="#000000" fill-rule="evenodd" fill-opacity="1" /><path clip-path="url(#clip360)" d="M108.978 1379.68 Q105.367 1379.68 103.538 1383.25 Q101.733 1386.79 101.733 1393.92 Q101.733 1401.03 103.538 1404.59 Q105.367 1408.13 108.978 1408.13 Q112.612 1408.13 114.418 1404.59 Q116.246 1401.03 116.246 1393.92 Q116.246 1386.79 114.418 1383.25 Q112.612 1379.68 108.978 1379.68 M108.978 1375.98 Q114.788 1375.98 117.844 1380.59 Q120.922 1385.17 120.922 1393.92 Q120.922 1402.65 117.844 1407.25 Q114.788 1411.84 108.978 1411.84 Q103.168 1411.84 100.089 1407.25 Q97.0335 1402.65 97.0335 1393.92 Q97.0335 1385.17 100.089 1380.59 Q103.168 1375.98 108.978 1375.98 Z" fill="#000000" fill-rule="evenodd" fill-opacity="1" /><path clip-path="url(#clip360)" d="M139.14 1379.68 Q135.529 1379.68 133.7 1383.25 Q131.894 1386.79 131.894 1393.92 Q131.894 1401.03 133.7 1404.59 Q135.529 1408.13 139.14 1408.13 Q142.774 1408.13 144.58 1404.59 Q146.408 1401.03 146.408 1393.92 Q146.408 1386.79 144.58 1383.25 Q142.774 1379.68 139.14 1379.68 M139.14 1375.98 Q144.95 1375.98 148.005 1380.59 Q151.084 1385.17 151.084 1393.92 Q151.084 1402.65 148.005 1407.25 Q144.95 1411.84 139.14 1411.84 Q133.33 1411.84 130.251 1407.25 Q127.195 1402.65 127.195 1393.92 Q127.195 1385.17 130.251 1380.59 Q133.33 1375.98 139.14 1375.98 Z" fill="#000000" fill-rule="evenodd" fill-opacity="1" /><path clip-path="url(#clip360)" d="M187.473 1385.7 L176.894 1396.33 L187.473 1406.91 L184.718 1409.71 L174.093 1399.08 L163.468 1409.71 L160.737 1406.91 L171.292 1396.33 L160.737 1385.7 L163.468 1382.9 L174.093 1393.53 L184.718 1382.9 L187.473 1385.7 Z" fill="#000000" fill-rule="evenodd" fill-opacity="1" /><path clip-path="url(#clip360)" d="M199.834 1407.23 L207.473 1407.23 L207.473 1380.86 L199.163 1382.53 L199.163 1378.27 L207.426 1376.6 L212.102 1376.6 L212.102 1407.23 L219.741 1407.23 L219.741 1411.16 L199.834 1411.16 L199.834 1407.23 Z" fill="#000000" fill-rule="evenodd" fill-opacity="1" /><path clip-path="url(#clip360)" d="M239.186 1379.68 Q235.574 1379.68 233.746 1383.25 Q231.94 1386.79 231.94 1393.92 Q231.94 1401.03 233.746 1404.59 Q235.574 1408.13 239.186 1408.13 Q242.82 1408.13 244.625 1404.59 Q246.454 1401.03 246.454 1393.92 Q246.454 1386.79 244.625 1383.25 Q242.82 1379.68 239.186 1379.68 M239.186 1375.98 Q244.996 1375.98 248.051 1380.59 Q251.13 1385.17 251.13 1393.92 Q251.13 1402.65 248.051 1407.25 Q244.996 1411.84 239.186 1411.84 Q233.375 1411.84 230.297 1407.25 Q227.241 1402.65 227.241 1393.92 Q227.241 1385.17 230.297 1380.59 Q233.375 1375.98 239.186 1375.98 Z" fill="#000000" fill-rule="evenodd" fill-opacity="1" /><path clip-path="url(#clip360)" d="M263.806 1358.98 L254.214 1373.97 L263.806 1373.97 L263.806 1358.98 M262.81 1355.67 L267.587 1355.67 L267.587 1373.97 L271.593 1373.97 L271.593 1377.13 L267.587 1377.13 L267.587 1383.75 L263.806 1383.75 L263.806 1377.13 L251.13 1377.13 L251.13 1373.47 L262.81 1355.67 Z" fill="#000000" fill-rule="evenodd" fill-opacity="1" /><path clip-path="url(#clip360)" d="M64.3254 1086.33 Q61.1773 1086.33 59.3254 1088.48 Q57.4967 1090.63 57.4967 1094.38 Q57.4967 1098.11 59.3254 1100.28 Q61.1773 1102.44 64.3254 1102.44 Q67.4735 1102.44 69.3022 1100.28 Q71.1541 1098.11 71.1541 1094.38 Q71.1541 1090.63 69.3022 1088.48 Q67.4735 1086.33 64.3254 1086.33 M73.6077 1071.67 L73.6077 1075.93 Q71.8485 1075.1 70.0429 1074.66 Q68.2606 1074.22 66.5013 1074.22 Q61.8717 1074.22 59.418 1077.34 Q56.9875 1080.47 56.6402 1086.79 Q58.006 1084.78 60.0662 1083.71 Q62.1263 1082.62 64.6032 1082.62 Q69.8115 1082.62 72.8207 1085.79 Q75.8531 1088.94 75.8531 1094.38 Q75.8531 1099.71 72.705 1102.92 Q69.5568 1106.14 64.3254 1106.14 Q58.33 1106.14 55.1588 1101.56 Q51.9875 1096.95 51.9875 1088.22 Q51.9875 1080.03 55.8764 1075.17 Q59.7652 1070.28 66.3161 1070.28 Q68.0754 1070.28 69.8578 1070.63 Q71.6633 1070.98 73.6077 1071.67 Z" fill="#000000" fill-rule="evenodd" fill-opacity="1" /><path clip-path="url(#clip360)" d="M83.9086 1099.59 L88.7928 1099.59 L88.7928 1105.47 L83.9086 1105.47 L83.9086 1099.59 Z" fill="#000000" fill-rule="evenodd" fill-opacity="1" /><path clip-path="url(#clip360)" d="M108.978 1073.99 Q105.367 1073.99 103.538 1077.55 Q101.733 1081.09 101.733 1088.22 Q101.733 1095.33 103.538 1098.9 Q105.367 1102.44 108.978 1102.44 Q112.612 1102.44 114.418 1098.9 Q116.246 1095.33 116.246 1088.22 Q116.246 1081.09 114.418 1077.55 Q112.612 1073.99 108.978 1073.99 M108.978 1070.28 Q114.788 1070.28 117.844 1074.89 Q120.922 1079.47 120.922 1088.22 Q120.922 1096.95 117.844 1101.56 Q114.788 1106.14 108.978 1106.14 Q103.168 1106.14 100.089 1101.56 Q97.0335 1096.95 97.0335 1088.22 Q97.0335 1079.47 100.089 1074.89 Q103.168 1070.28 108.978 1070.28 Z" fill="#000000" fill-rule="evenodd" fill-opacity="1" /><path clip-path="url(#clip360)" d="M139.14 1073.99 Q135.529 1073.99 133.7 1077.55 Q131.894 1081.09 131.894 1088.22 Q131.894 1095.33 133.7 1098.9 Q135.529 1102.44 139.14 1102.44 Q142.774 1102.44 144.58 1098.9 Q146.408 1095.33 146.408 1088.22 Q146.408 1081.09 144.58 1077.55 Q142.774 1073.99 139.14 1073.99 M139.14 1070.28 Q144.95 1070.28 148.005 1074.89 Q151.084 1079.47 151.084 1088.22 Q151.084 1096.95 148.005 1101.56 Q144.95 1106.14 139.14 1106.14 Q133.33 1106.14 130.251 1101.56 Q127.195 1096.95 127.195 1088.22 Q127.195 1079.47 130.251 1074.89 Q133.33 1070.28 139.14 1070.28 Z" fill="#000000" fill-rule="evenodd" fill-opacity="1" /><path clip-path="url(#clip360)" d="M187.473 1080.01 L176.894 1090.63 L187.473 1101.21 L184.718 1104.01 L174.093 1093.39 L163.468 1104.01 L160.737 1101.21 L171.292 1090.63 L160.737 1080.01 L163.468 1077.21 L174.093 1087.83 L184.718 1077.21 L187.473 1080.01 Z" fill="#000000" fill-rule="evenodd" fill-opacity="1" /><path clip-path="url(#clip360)" d="M199.834 1101.53 L207.473 1101.53 L207.473 1075.17 L199.163 1076.84 L199.163 1072.58 L207.426 1070.91 L212.102 1070.91 L212.102 1101.53 L219.741 1101.53 L219.741 1105.47 L199.834 1105.47 L199.834 1101.53 Z" fill="#000000" fill-rule="evenodd" fill-opacity="1" /><path clip-path="url(#clip360)" d="M239.186 1073.99 Q235.574 1073.99 233.746 1077.55 Q231.94 1081.09 231.94 1088.22 Q231.94 1095.33 233.746 1098.9 Q235.574 1102.44 239.186 1102.44 Q242.82 1102.44 244.625 1098.9 Q246.454 1095.33 246.454 1088.22 Q246.454 1081.09 244.625 1077.55 Q242.82 1073.99 239.186 1073.99 M239.186 1070.28 Q244.996 1070.28 248.051 1074.89 Q251.13 1079.47 251.13 1088.22 Q251.13 1096.95 248.051 1101.56 Q244.996 1106.14 239.186 1106.14 Q233.375 1106.14 230.297 1101.56 Q227.241 1096.95 227.241 1088.22 Q227.241 1079.47 230.297 1074.89 Q233.375 1070.28 239.186 1070.28 Z" fill="#000000" fill-rule="evenodd" fill-opacity="1" /><path clip-path="url(#clip360)" d="M263.806 1053.29 L254.214 1068.28 L263.806 1068.28 L263.806 1053.29 M262.81 1049.98 L267.587 1049.98 L267.587 1068.28 L271.593 1068.28 L271.593 1071.44 L267.587 1071.44 L267.587 1078.06 L263.806 1078.06 L263.806 1071.44 L251.13 1071.44 L251.13 1067.77 L262.81 1049.98 Z" fill="#000000" fill-rule="evenodd" fill-opacity="1" /><path clip-path="url(#clip360)" d="M63.7467 783.363 Q60.4134 783.363 58.4921 785.145 Q56.5939 786.928 56.5939 790.053 Q56.5939 793.178 58.4921 794.96 Q60.4134 796.742 63.7467 796.742 Q67.08 796.742 69.0013 794.96 Q70.9226 793.154 70.9226 790.053 Q70.9226 786.928 69.0013 785.145 Q67.1032 783.363 63.7467 783.363 M59.0708 781.372 Q56.0615 780.631 54.3717 778.571 Q52.7051 776.511 52.7051 773.548 Q52.7051 769.405 55.6449 766.997 Q58.6078 764.59 63.7467 764.59 Q68.9087 764.59 71.8485 766.997 Q74.7883 769.405 74.7883 773.548 Q74.7883 776.511 73.0985 778.571 Q71.4318 780.631 68.4457 781.372 Q71.8253 782.159 73.7003 784.451 Q75.5985 786.742 75.5985 790.053 Q75.5985 795.076 72.5198 797.761 Q69.4642 800.446 63.7467 800.446 Q58.0291 800.446 54.9504 797.761 Q51.8949 795.076 51.8949 790.053 Q51.8949 786.742 53.793 784.451 Q55.6912 782.159 59.0708 781.372 M57.3578 773.988 Q57.3578 776.673 59.0245 778.178 Q60.7143 779.682 63.7467 779.682 Q66.7559 779.682 68.4457 778.178 Q70.1587 776.673 70.1587 773.988 Q70.1587 771.303 68.4457 769.798 Q66.7559 768.293 63.7467 768.293 Q60.7143 768.293 59.0245 769.798 Q57.3578 771.303 57.3578 773.988 Z" fill="#000000" fill-rule="evenodd" fill-opacity="1" /><path clip-path="url(#clip360)" d="M83.9086 793.895 L88.7928 793.895 L88.7928 799.775 L83.9086 799.775 L83.9086 793.895 Z" fill="#000000" fill-rule="evenodd" fill-opacity="1" /><path clip-path="url(#clip360)" d="M108.978 768.293 Q105.367 768.293 103.538 771.858 Q101.733 775.4 101.733 782.529 Q101.733 789.636 103.538 793.201 Q105.367 796.742 108.978 796.742 Q112.612 796.742 114.418 793.201 Q116.246 789.636 116.246 782.529 Q116.246 775.4 114.418 771.858 Q112.612 768.293 108.978 768.293 M108.978 764.59 Q114.788 764.59 117.844 769.196 Q120.922 773.779 120.922 782.529 Q120.922 791.256 117.844 795.863 Q114.788 800.446 108.978 800.446 Q103.168 800.446 100.089 795.863 Q97.0335 791.256 97.0335 782.529 Q97.0335 773.779 100.089 769.196 Q103.168 764.59 108.978 764.59 Z" fill="#000000" fill-rule="evenodd" fill-opacity="1" /><path clip-path="url(#clip360)" d="M139.14 768.293 Q135.529 768.293 133.7 771.858 Q131.894 775.4 131.894 782.529 Q131.894 789.636 133.7 793.201 Q135.529 796.742 139.14 796.742 Q142.774 796.742 144.58 793.201 Q146.408 789.636 146.408 782.529 Q146.408 775.4 144.58 771.858 Q142.774 768.293 139.14 768.293 M139.14 764.59 Q144.95 764.59 148.005 769.196 Q151.084 773.779 151.084 782.529 Q151.084 791.256 148.005 795.863 Q144.95 800.446 139.14 800.446 Q133.33 800.446 130.251 795.863 Q127.195 791.256 127.195 782.529 Q127.195 773.779 130.251 769.196 Q133.33 764.59 139.14 764.59 Z" fill="#000000" fill-rule="evenodd" fill-opacity="1" /><path clip-path="url(#clip360)" d="M187.473 774.312 L176.894 784.937 L187.473 795.515 L184.718 798.316 L174.093 787.691 L163.468 798.316 L160.737 795.515 L171.292 784.937 L160.737 774.312 L163.468 771.511 L174.093 782.136 L184.718 771.511 L187.473 774.312 Z" fill="#000000" fill-rule="evenodd" fill-opacity="1" /><path clip-path="url(#clip360)" d="M199.834 795.84 L207.473 795.84 L207.473 769.474 L199.163 771.141 L199.163 766.881 L207.426 765.215 L212.102 765.215 L212.102 795.84 L219.741 795.84 L219.741 799.775 L199.834 799.775 L199.834 795.84 Z" fill="#000000" fill-rule="evenodd" fill-opacity="1" /><path clip-path="url(#clip360)" d="M239.186 768.293 Q235.574 768.293 233.746 771.858 Q231.94 775.4 231.94 782.529 Q231.94 789.636 233.746 793.201 Q235.574 796.742 239.186 796.742 Q242.82 796.742 244.625 793.201 Q246.454 789.636 246.454 782.529 Q246.454 775.4 244.625 771.858 Q242.82 768.293 239.186 768.293 M239.186 764.59 Q244.996 764.59 248.051 769.196 Q251.13 773.779 251.13 782.529 Q251.13 791.256 248.051 795.863 Q244.996 800.446 239.186 800.446 Q233.375 800.446 230.297 795.863 Q227.241 791.256 227.241 782.529 Q227.241 773.779 230.297 769.196 Q233.375 764.59 239.186 764.59 Z" fill="#000000" fill-rule="evenodd" fill-opacity="1" /><path clip-path="url(#clip360)" d="M263.806 747.594 L254.214 762.584 L263.806 762.584 L263.806 747.594 M262.81 744.284 L267.587 744.284 L267.587 762.584 L271.593 762.584 L271.593 765.744 L267.587 765.744 L267.587 772.364 L263.806 772.364 L263.806 765.744 L251.13 765.744 L251.13 762.076 L262.81 744.284 Z" fill="#000000" fill-rule="evenodd" fill-opacity="1" /><path clip-path="url(#clip360)" d="M56.8515 490.144 L64.4903 490.144 L64.4903 463.779 L56.1802 465.446 L56.1802 461.186 L64.444 459.52 L69.1199 459.52 L69.1199 490.144 L76.7588 490.144 L76.7588 494.08 L56.8515 494.08 L56.8515 490.144 Z" fill="#000000" fill-rule="evenodd" fill-opacity="1" /><path clip-path="url(#clip360)" d="M86.2032 488.2 L91.0874 488.2 L91.0874 494.08 L86.2032 494.08 L86.2032 488.2 Z" fill="#000000" fill-rule="evenodd" fill-opacity="1" /><path clip-path="url(#clip360)" d="M111.272 462.598 Q107.661 462.598 105.833 466.163 Q104.027 469.705 104.027 476.834 Q104.027 483.941 105.833 487.506 Q107.661 491.047 111.272 491.047 Q114.907 491.047 116.712 487.506 Q118.541 483.941 118.541 476.834 Q118.541 469.705 116.712 466.163 Q114.907 462.598 111.272 462.598 M111.272 458.895 Q117.083 458.895 120.138 463.501 Q123.217 468.084 123.217 476.834 Q123.217 485.561 120.138 490.168 Q117.083 494.751 111.272 494.751 Q105.462 494.751 102.384 490.168 Q99.3281 485.561 99.3281 476.834 Q99.3281 468.084 102.384 463.501 Q105.462 458.895 111.272 458.895 Z" fill="#000000" fill-rule="evenodd" fill-opacity="1" /><path clip-path="url(#clip360)" d="M141.434 462.598 Q137.823 462.598 135.995 466.163 Q134.189 469.705 134.189 476.834 Q134.189 483.941 135.995 487.506 Q137.823 491.047 141.434 491.047 Q145.069 491.047 146.874 487.506 Q148.703 483.941 148.703 476.834 Q148.703 469.705 146.874 466.163 Q145.069 462.598 141.434 462.598 M141.434 458.895 Q147.245 458.895 150.3 463.501 Q153.379 468.084 153.379 476.834 Q153.379 485.561 150.3 490.168 Q147.245 494.751 141.434 494.751 Q135.624 494.751 132.546 490.168 Q129.49 485.561 129.49 476.834 Q129.49 468.084 132.546 463.501 Q135.624 458.895 141.434 458.895 Z" fill="#000000" fill-rule="evenodd" fill-opacity="1" /><path clip-path="url(#clip360)" d="M189.767 468.617 L179.189 479.242 L189.767 489.82 L187.013 492.621 L176.388 481.996 L165.763 492.621 L163.031 489.82 L173.587 479.242 L163.031 468.617 L165.763 465.816 L176.388 476.441 L187.013 465.816 L189.767 468.617 Z" fill="#000000" fill-rule="evenodd" fill-opacity="1" /><path clip-path="url(#clip360)" d="M202.128 490.144 L209.767 490.144 L209.767 463.779 L201.457 465.446 L201.457 461.186 L209.721 459.52 L214.397 459.52 L214.397 490.144 L222.036 490.144 L222.036 494.08 L202.128 494.08 L202.128 490.144 Z" fill="#000000" fill-rule="evenodd" fill-opacity="1" /><path clip-path="url(#clip360)" d="M241.48 462.598 Q237.869 462.598 236.04 466.163 Q234.235 469.705 234.235 476.834 Q234.235 483.941 236.04 487.506 Q237.869 491.047 241.48 491.047 Q245.114 491.047 246.92 487.506 Q248.749 483.941 248.749 476.834 Q248.749 469.705 246.92 466.163 Q245.114 462.598 241.48 462.598 M241.48 458.895 Q247.29 458.895 250.346 463.501 Q253.424 468.084 253.424 476.834 Q253.424 485.561 250.346 490.168 Q247.29 494.751 241.48 494.751 Q235.67 494.751 232.591 490.168 Q229.536 485.561 229.536 476.834 Q229.536 468.084 232.591 463.501 Q235.67 458.895 241.48 458.895 Z" fill="#000000" fill-rule="evenodd" fill-opacity="1" /><path clip-path="url(#clip360)" d="M254.609 438.589 L269.524 438.589 L269.524 441.787 L258.089 441.787 L258.089 448.67 Q258.916 448.388 259.744 448.256 Q260.571 448.106 261.399 448.106 Q266.101 448.106 268.847 450.683 Q271.593 453.259 271.593 457.66 Q271.593 462.193 268.772 464.713 Q265.95 467.215 260.816 467.215 Q259.048 467.215 257.205 466.914 Q255.38 466.613 253.424 466.011 L253.424 462.193 Q255.117 463.115 256.923 463.566 Q258.728 464.017 260.741 464.017 Q263.994 464.017 265.894 462.306 Q267.794 460.594 267.794 457.66 Q267.794 454.726 265.894 453.015 Q263.994 451.303 260.741 451.303 Q259.217 451.303 257.694 451.642 Q256.189 451.98 254.609 452.695 L254.609 438.589 Z" fill="#000000" fill-rule="evenodd" fill-opacity="1" /><path clip-path="url(#clip360)" d="M56.8515 184.449 L64.4903 184.449 L64.4903 158.084 L56.1802 159.75 L56.1802 155.491 L64.444 153.825 L69.1199 153.825 L69.1199 184.449 L76.7588 184.449 L76.7588 188.385 L56.8515 188.385 L56.8515 184.449 Z" fill="#000000" fill-rule="evenodd" fill-opacity="1" /><path clip-path="url(#clip360)" d="M86.2032 182.505 L91.0874 182.505 L91.0874 188.385 L86.2032 188.385 L86.2032 182.505 Z" fill="#000000" fill-rule="evenodd" fill-opacity="1" /><path clip-path="url(#clip360)" d="M105.3 184.449 L121.62 184.449 L121.62 188.385 L99.6753 188.385 L99.6753 184.449 Q102.337 181.695 106.921 177.065 Q111.527 172.412 112.708 171.07 Q114.953 168.547 115.833 166.811 Q116.735 165.051 116.735 163.361 Q116.735 160.607 114.791 158.871 Q112.87 157.135 109.768 157.135 Q107.569 157.135 105.115 157.899 Q102.685 158.662 99.9068 160.213 L99.9068 155.491 Q102.731 154.357 105.185 153.778 Q107.638 153.2 109.675 153.2 Q115.046 153.2 118.24 155.885 Q121.434 158.57 121.434 163.061 Q121.434 165.19 120.624 167.111 Q119.837 169.01 117.731 171.602 Q117.152 172.273 114.05 175.491 Q110.948 178.685 105.3 184.449 Z" fill="#000000" fill-rule="evenodd" fill-opacity="1" /><path clip-path="url(#clip360)" d="M141.434 156.903 Q137.823 156.903 135.995 160.468 Q134.189 164.01 134.189 171.139 Q134.189 178.246 135.995 181.81 Q137.823 185.352 141.434 185.352 Q145.069 185.352 146.874 181.81 Q148.703 178.246 148.703 171.139 Q148.703 164.01 146.874 160.468 Q145.069 156.903 141.434 156.903 M141.434 153.2 Q147.245 153.2 150.3 157.806 Q153.379 162.389 153.379 171.139 Q153.379 179.866 150.3 184.472 Q147.245 189.056 141.434 189.056 Q135.624 189.056 132.546 184.472 Q129.49 179.866 129.49 171.139 Q129.49 162.389 132.546 157.806 Q135.624 153.2 141.434 153.2 Z" fill="#000000" fill-rule="evenodd" fill-opacity="1" /><path clip-path="url(#clip360)" d="M189.767 162.922 L179.189 173.547 L189.767 184.125 L187.013 186.926 L176.388 176.301 L165.763 186.926 L163.031 184.125 L173.587 173.547 L163.031 162.922 L165.763 160.121 L176.388 170.746 L187.013 160.121 L189.767 162.922 Z" fill="#000000" fill-rule="evenodd" fill-opacity="1" /><path clip-path="url(#clip360)" d="M202.128 184.449 L209.767 184.449 L209.767 158.084 L201.457 159.75 L201.457 155.491 L209.721 153.825 L214.397 153.825 L214.397 184.449 L222.036 184.449 L222.036 188.385 L202.128 188.385 L202.128 184.449 Z" fill="#000000" fill-rule="evenodd" fill-opacity="1" /><path clip-path="url(#clip360)" d="M241.48 156.903 Q237.869 156.903 236.04 160.468 Q234.235 164.01 234.235 171.139 Q234.235 178.246 236.04 181.81 Q237.869 185.352 241.48 185.352 Q245.114 185.352 246.92 181.81 Q248.749 178.246 248.749 171.139 Q248.749 164.01 246.92 160.468 Q245.114 156.903 241.48 156.903 M241.48 153.2 Q247.29 153.2 250.346 157.806 Q253.424 162.389 253.424 171.139 Q253.424 179.866 250.346 184.472 Q247.29 189.056 241.48 189.056 Q235.67 189.056 232.591 184.472 Q229.536 179.866 229.536 171.139 Q229.536 162.389 232.591 157.806 Q235.67 153.2 241.48 153.2 Z" fill="#000000" fill-rule="evenodd" fill-opacity="1" /><path clip-path="url(#clip360)" d="M254.609 132.894 L269.524 132.894 L269.524 136.091 L258.089 136.091 L258.089 142.975 Q258.916 142.693 259.744 142.561 Q260.571 142.411 261.399 142.411 Q266.101 142.411 268.847 144.988 Q271.593 147.564 271.593 151.965 Q271.593 156.498 268.772 159.018 Q265.95 161.52 260.816 161.52 Q259.048 161.52 257.205 161.219 Q255.38 160.918 253.424 160.316 L253.424 156.498 Q255.117 157.419 256.923 157.871 Q258.728 158.322 260.741 158.322 Q263.994 158.322 265.894 156.611 Q267.794 154.899 267.794 151.965 Q267.794 149.031 265.894 147.32 Q263.994 145.608 260.741 145.608 Q259.217 145.608 257.694 145.947 Q256.189 146.285 254.609 147 L254.609 132.894 Z" fill="#000000" fill-rule="evenodd" fill-opacity="1" /><circle clip-path="url(#clip362)" cx="365.475" cy="1397.48" r="14" fill="#009af9" fill-rule="evenodd" fill-opacity="1" stroke="#000000" stroke-opacity="1" stroke-width="3.2"/>
<circle clip-path="url(#clip362)" cx="406.526" cy="1292.6" r="14" fill="#009af9" fill-rule="evenodd" fill-opacity="1" stroke="#000000" stroke-opacity="1" stroke-width="3.2"/>
<circle clip-path="url(#clip362)" cx="447.577" cy="1422.12" r="14" fill="#009af9" fill-rule="evenodd" fill-opacity="1" stroke="#000000" stroke-opacity="1" stroke-width="3.2"/>
<circle clip-path="url(#clip362)" cx="550.204" cy="1333.56" r="14" fill="#009af9" fill-rule="evenodd" fill-opacity="1" stroke="#000000" stroke-opacity="1" stroke-width="3.2"/>
<circle clip-path="url(#clip362)" cx="591.256" cy="1389.1" r="14" fill="#009af9" fill-rule="evenodd" fill-opacity="1" stroke="#000000" stroke-opacity="1" stroke-width="3.2"/>
<circle clip-path="url(#clip362)" cx="734.934" cy="1133.07" r="14" fill="#009af9" fill-rule="evenodd" fill-opacity="1" stroke="#000000" stroke-opacity="1" stroke-width="3.2"/>
<circle clip-path="url(#clip362)" cx="755.46" cy="1079.45" r="14" fill="#009af9" fill-rule="evenodd" fill-opacity="1" stroke="#000000" stroke-opacity="1" stroke-width="3.2"/>
<circle clip-path="url(#clip362)" cx="796.511" cy="1166.65" r="14" fill="#009af9" fill-rule="evenodd" fill-opacity="1" stroke="#000000" stroke-opacity="1" stroke-width="3.2"/>
<circle clip-path="url(#clip362)" cx="796.511" cy="1013.8" r="14" fill="#009af9" fill-rule="evenodd" fill-opacity="1" stroke="#000000" stroke-opacity="1" stroke-width="3.2"/>
<circle clip-path="url(#clip362)" cx="899.138" cy="1124.71" r="14" fill="#009af9" fill-rule="evenodd" fill-opacity="1" stroke="#000000" stroke-opacity="1" stroke-width="3.2"/>
<circle clip-path="url(#clip362)" cx="940.189" cy="1032.56" r="14" fill="#009af9" fill-rule="evenodd" fill-opacity="1" stroke="#000000" stroke-opacity="1" stroke-width="3.2"/>
<circle clip-path="url(#clip362)" cx="960.715" cy="1146.03" r="14" fill="#009af9" fill-rule="evenodd" fill-opacity="1" stroke="#000000" stroke-opacity="1" stroke-width="3.2"/>
<circle clip-path="url(#clip362)" cx="960.715" cy="1128.25" r="14" fill="#009af9" fill-rule="evenodd" fill-opacity="1" stroke="#000000" stroke-opacity="1" stroke-width="3.2"/>
<circle clip-path="url(#clip362)" cx="981.24" cy="1126.36" r="14" fill="#009af9" fill-rule="evenodd" fill-opacity="1" stroke="#000000" stroke-opacity="1" stroke-width="3.2"/>
<circle clip-path="url(#clip362)" cx="1063.34" cy="1064.76" r="14" fill="#009af9" fill-rule="evenodd" fill-opacity="1" stroke="#000000" stroke-opacity="1" stroke-width="3.2"/>
<circle clip-path="url(#clip362)" cx="1145.44" cy="960.412" r="14" fill="#009af9" fill-rule="evenodd" fill-opacity="1" stroke="#000000" stroke-opacity="1" stroke-width="3.2"/>
<circle clip-path="url(#clip362)" cx="1186.5" cy="989.59" r="14" fill="#009af9" fill-rule="evenodd" fill-opacity="1" stroke="#000000" stroke-opacity="1" stroke-width="3.2"/>
<circle clip-path="url(#clip362)" cx="1227.55" cy="728.848" r="14" fill="#009af9" fill-rule="evenodd" fill-opacity="1" stroke="#000000" stroke-opacity="1" stroke-width="3.2"/>
<circle clip-path="url(#clip362)" cx="1350.7" cy="755.214" r="14" fill="#009af9" fill-rule="evenodd" fill-opacity="1" stroke="#000000" stroke-opacity="1" stroke-width="3.2"/>
<circle clip-path="url(#clip362)" cx="1371.23" cy="562.978" r="14" fill="#009af9" fill-rule="evenodd" fill-opacity="1" stroke="#000000" stroke-opacity="1" stroke-width="3.2"/>
<circle clip-path="url(#clip362)" cx="1535.43" cy="596.635" r="14" fill="#009af9" fill-rule="evenodd" fill-opacity="1" stroke="#000000" stroke-opacity="1" stroke-width="3.2"/>
<circle clip-path="url(#clip362)" cx="1597.01" cy="496.749" r="14" fill="#009af9" fill-rule="evenodd" fill-opacity="1" stroke="#000000" stroke-opacity="1" stroke-width="3.2"/>
<circle clip-path="url(#clip362)" cx="1761.21" cy="450.451" r="14" fill="#009af9" fill-rule="evenodd" fill-opacity="1" stroke="#000000" stroke-opacity="1" stroke-width="3.2"/>
<circle clip-path="url(#clip362)" cx="1822.79" cy="259.239" r="14" fill="#009af9" fill-rule="evenodd" fill-opacity="1" stroke="#000000" stroke-opacity="1" stroke-width="3.2"/>
<circle clip-path="url(#clip362)" cx="1925.41" cy="326.201" r="14" fill="#009af9" fill-rule="evenodd" fill-opacity="1" stroke="#000000" stroke-opacity="1" stroke-width="3.2"/>
<circle clip-path="url(#clip362)" cx="1986.99" cy="385.033" r="14" fill="#009af9" fill-rule="evenodd" fill-opacity="1" stroke="#000000" stroke-opacity="1" stroke-width="3.2"/>
<circle clip-path="url(#clip362)" cx="2089.62" cy="210.985" r="14" fill="#009af9" fill-rule="evenodd" fill-opacity="1" stroke="#000000" stroke-opacity="1" stroke-width="3.2"/>
<circle clip-path="url(#clip362)" cx="2110.14" cy="277.229" r="14" fill="#009af9" fill-rule="evenodd" fill-opacity="1" stroke="#000000" stroke-opacity="1" stroke-width="3.2"/>
<circle clip-path="url(#clip362)" cx="2253.82" cy="128.111" r="14" fill="#009af9" fill-rule="evenodd" fill-opacity="1" stroke="#000000" stroke-opacity="1" stroke-width="3.2"/>
<circle clip-path="url(#clip362)" cx="2294.87" cy="136.044" r="14" fill="#009af9" fill-rule="evenodd" fill-opacity="1" stroke="#000000" stroke-opacity="1" stroke-width="3.2"/>
<polyline clip-path="url(#clip362)" style="stroke:#e26f46; stroke-linecap:butt; stroke-linejoin:round; stroke-width:4; stroke-opacity:1; fill:none" points="
  365.475,1445.72 406.526,1416.83 447.577,1387.94 550.204,1315.72 591.256,1286.83 734.934,1185.72 755.46,1171.28 796.511,1142.39 899.138,1070.17 
  940.189,1041.28 960.715,1026.84 981.24,1012.39 1063.34,954.618 1145.44,896.842 1186.5,867.954 1227.55,839.066 1350.7,752.402 1371.23,737.958 
  1535.43,622.406 1597.01,579.074 1761.21,463.521 1822.79,420.189 1925.41,347.969 1986.99,304.637 2089.62,232.417 2110.14,217.973 2253.82,116.864 2294.87,87.9763 
  
  "/>
<polyline clip-path="url(#clip362)" style="stroke:#3da44d; stroke-linecap:butt; stroke-linejoin:round; stroke-width:4; stroke-opacity:1; fill:none" stroke-dasharray="16, 10" points="
  365.475,1445.72 406.526,1416.83 447.577,1387.94 550.204,1315.72 591.256,1286.83 734.934,1185.72 755.46,1171.28 796.511,1142.39 899.138,1070.17 
  940.189,1041.28 960.715,1026.84 981.24,1012.39 1063.34,954.618 1145.44,896.842 1186.5,867.954 1227.55,839.066 1350.7,752.402 1371.23,737.958 
  1535.43,622.406 1597.01,579.074 1761.21,463.521 1822.79,420.189 1925.41,347.969 1986.99,304.637 2089.62,232.417 2110.14,217.973 2253.82,116.864 2294.87,87.9763 
  
  "/>
<polyline clip-path="url(#clip362)" style="stroke:#c271d2; stroke-linecap:butt; stroke-linejoin:round; stroke-width:4; stroke-opacity:1; fill:none" stroke-dasharray="2, 4" points="
  365.475,1445.72 406.526,1416.83 447.577,1387.94 550.204,1315.72 591.256,1286.83 734.934,1185.72 755.46,1171.28 796.511,1142.39 899.138,1070.17 
  940.189,1041.28 960.715,1026.84 981.24,1012.39 1063.34,954.618 1145.44,896.842 1186.5,867.954 1227.55,839.066 1350.7,752.402 1371.23,737.958 
  1535.43,622.406 1597.01,579.074 1761.21,463.521 1822.79,420.189 1925.41,347.969 1986.99,304.637 2089.62,232.417 2110.14,217.973 2253.82,116.864 2294.87,87.9763 
  
  "/>
<path clip-path="url(#clip360)" d="
M1990.44 354.418 L2284.58 354.418 L2284.58 95.2176 L1990.44 95.2176  Z
  " fill="#ffffff" fill-rule="evenodd" fill-opacity="1"/>
<polyline clip-path="url(#clip360)" style="stroke:#000000; stroke-linecap:butt; stroke-linejoin:round; stroke-width:4; stroke-opacity:1; fill:none" points="
  1990.44,354.418 2284.58,354.418 2284.58,95.2176 1990.44,95.2176 1990.44,354.418 
  "/>
<circle clip-path="url(#clip360)" cx="2086.44" cy="147.058" r="23" fill="#009af9" fill-rule="evenodd" fill-opacity="1" stroke="#000000" stroke-opacity="1" stroke-width="5.12"/>
<path clip-path="url(#clip360)" d="M2196.28 166.745 Q2194.48 171.375 2192.76 172.787 Q2191.05 174.199 2188.18 174.199 L2184.78 174.199 L2184.78 170.634 L2187.28 170.634 Q2189.04 170.634 2190.01 169.8 Q2190.98 168.967 2192.16 165.865 L2192.93 163.921 L2182.44 138.412 L2186.95 138.412 L2195.06 158.689 L2203.16 138.412 L2207.67 138.412 L2196.28 166.745 Z" fill="#000000" fill-rule="evenodd" fill-opacity="1" /><path clip-path="url(#clip360)" d="M2214.96 160.402 L2222.6 160.402 L2222.6 134.037 L2214.29 135.703 L2214.29 131.444 L2222.56 129.778 L2227.23 129.778 L2227.23 160.402 L2234.87 160.402 L2234.87 164.338 L2214.96 164.338 L2214.96 160.402 Z" fill="#000000" fill-rule="evenodd" fill-opacity="1" /><polyline clip-path="url(#clip360)" style="stroke:#e26f46; stroke-linecap:butt; stroke-linejoin:round; stroke-width:4; stroke-opacity:1; fill:none" points="
  2014.44,198.898 2158.44,198.898 
  "/>
<path clip-path="url(#clip360)" d="M2196.28 218.585 Q2194.48 223.215 2192.76 224.627 Q2191.05 226.039 2188.18 226.039 L2184.78 226.039 L2184.78 222.474 L2187.28 222.474 Q2189.04 222.474 2190.01 221.64 Q2190.98 220.807 2192.16 217.705 L2192.93 215.761 L2182.44 190.252 L2186.95 190.252 L2195.06 210.529 L2203.16 190.252 L2207.67 190.252 L2196.28 218.585 Z" fill="#000000" fill-rule="evenodd" fill-opacity="1" /><path clip-path="url(#clip360)" d="M2218.18 212.242 L2234.5 212.242 L2234.5 216.178 L2212.56 216.178 L2212.56 212.242 Q2215.22 209.488 2219.8 204.858 Q2224.41 200.205 2225.59 198.863 Q2227.83 196.34 2228.71 194.604 Q2229.62 192.844 2229.62 191.155 Q2229.62 188.4 2227.67 186.664 Q2225.75 184.928 2222.65 184.928 Q2220.45 184.928 2218 185.692 Q2215.57 186.455 2212.79 188.006 L2212.79 183.284 Q2215.61 182.15 2218.07 181.571 Q2220.52 180.993 2222.56 180.993 Q2227.93 180.993 2231.12 183.678 Q2234.32 186.363 2234.32 190.854 Q2234.32 192.983 2233.51 194.905 Q2232.72 196.803 2230.61 199.395 Q2230.03 200.067 2226.93 203.284 Q2223.83 206.479 2218.18 212.242 Z" fill="#000000" fill-rule="evenodd" fill-opacity="1" /><polyline clip-path="url(#clip360)" style="stroke:#3da44d; stroke-linecap:butt; stroke-linejoin:round; stroke-width:4; stroke-opacity:1; fill:none" stroke-dasharray="16, 10" points="
  2014.44,250.738 2158.44,250.738 
  "/>
<path clip-path="url(#clip360)" d="M2196.28 270.425 Q2194.48 275.055 2192.76 276.467 Q2191.05 277.879 2188.18 277.879 L2184.78 277.879 L2184.78 274.314 L2187.28 274.314 Q2189.04 274.314 2190.01 273.48 Q2190.98 272.647 2192.16 269.545 L2192.93 267.601 L2182.44 242.092 L2186.95 242.092 L2195.06 262.369 L2203.16 242.092 L2207.67 242.092 L2196.28 270.425 Z" fill="#000000" fill-rule="evenodd" fill-opacity="1" /><path clip-path="url(#clip360)" d="M2228.32 249.383 Q2231.68 250.101 2233.55 252.369 Q2235.45 254.638 2235.45 257.971 Q2235.45 263.087 2231.93 265.888 Q2228.41 268.689 2221.93 268.689 Q2219.76 268.689 2217.44 268.249 Q2215.15 267.832 2212.7 266.976 L2212.7 262.462 Q2214.64 263.596 2216.95 264.175 Q2219.27 264.754 2221.79 264.754 Q2226.19 264.754 2228.48 263.018 Q2230.8 261.281 2230.8 257.971 Q2230.8 254.916 2228.64 253.203 Q2226.51 251.467 2222.69 251.467 L2218.67 251.467 L2218.67 247.624 L2222.88 247.624 Q2226.33 247.624 2228.16 246.258 Q2229.99 244.87 2229.99 242.277 Q2229.99 239.615 2228.09 238.203 Q2226.21 236.768 2222.69 236.768 Q2220.77 236.768 2218.57 237.184 Q2216.38 237.601 2213.74 238.481 L2213.74 234.314 Q2216.4 233.573 2218.71 233.203 Q2221.05 232.833 2223.11 232.833 Q2228.44 232.833 2231.54 235.263 Q2234.64 237.67 2234.64 241.791 Q2234.64 244.661 2233 246.652 Q2231.35 248.62 2228.32 249.383 Z" fill="#000000" fill-rule="evenodd" fill-opacity="1" /><polyline clip-path="url(#clip360)" style="stroke:#c271d2; stroke-linecap:butt; stroke-linejoin:round; stroke-width:4; stroke-opacity:1; fill:none" stroke-dasharray="2, 4" points="
  2014.44,302.578 2158.44,302.578 
  "/>
<path clip-path="url(#clip360)" d="M2196.28 322.265 Q2194.48 326.895 2192.76 328.307 Q2191.05 329.719 2188.18 329.719 L2184.78 329.719 L2184.78 326.154 L2187.28 326.154 Q2189.04 326.154 2190.01 325.32 Q2190.98 324.487 2192.16 321.385 L2192.93 319.441 L2182.44 293.932 L2186.95 293.932 L2195.06 314.209 L2203.16 293.932 L2207.67 293.932 L2196.28 322.265 Z" fill="#000000" fill-rule="evenodd" fill-opacity="1" /><path clip-path="url(#clip360)" d="M2227 289.372 L2215.2 307.821 L2227 307.821 L2227 289.372 M2225.77 285.298 L2231.65 285.298 L2231.65 307.821 L2236.58 307.821 L2236.58 311.709 L2231.65 311.709 L2231.65 319.858 L2227 319.858 L2227 311.709 L2211.4 311.709 L2211.4 307.196 L2225.77 285.298 Z" fill="#000000" fill-rule="evenodd" fill-opacity="1" /></svg>
