<?xml version="1.0" encoding="utf-8"?>
<svg xmlns="http://www.w3.org/2000/svg" xmlns:xlink="http://www.w3.org/1999/xlink" width="600" height="400" viewBox="0 0 2400 1600">
<defs>
  <clipPath id="clip240">
    <rect x="0" y="0" width="2400" height="1600"/>
  </clipPath>
</defs>
<path clip-path="url(#clip240)" d="
M0 1600 L2400 1600 L2400 0 L0 0  Z
  " fill="#ffffff" fill-rule="evenodd" fill-opacity="1"/>
<defs>
  <clipPath id="clip241">
    <rect x="480" y="0" width="1681" height="1600"/>
  </clipPath>
</defs>
<path clip-path="url(#clip240)" d="
M138.959 1486.45 L1068.44 1486.45 L1068.44 47.2441 L138.959 47.2441  Z
  " fill="#ffffff" fill-rule="evenodd" fill-opacity="1"/>
<defs>
  <clipPath id="clip242">
    <rect x="138" y="47" width="930" height="1440"/>
  </clipPath>
</defs>
<polyline clip-path="url(#clip242)" style="stroke:#000000; stroke-linecap:butt; stroke-linejoin:round; stroke-width:2; stroke-opacity:0.1; fill:none" points="
  286.213,1486.45 286.213,47.2441 
  "/>
<polyline clip-path="url(#clip242)" style="stroke:#000000; stroke-linecap:butt; stroke-linejoin:round; stroke-width:2; stroke-opacity:0.1; fill:none" points="
  437.397,1486.45 437.397,47.2441 
  "/>
<polyline clip-path="url(#clip242)" style="stroke:#000000; stroke-linecap:butt; stroke-linejoin:round; stroke-width:2; stroke-opacity:0.1; fill:none" points="
  588.581,1486.45 588.581,47.2441 
  "/>
<polyline clip-path="url(#clip242)" style="stroke:#000000; stroke-linecap:butt; stroke-linejoin:round; stroke-width:2; stroke-opacity:0.1; fill:none" points="
  739.765,1486.45 739.765,47.2441 
  "/>
<polyline clip-path="url(#clip242)" style="stroke:#000000; stroke-linecap:butt; stroke-linejoin:round; stroke-width:2; stroke-opacity:0.1; fill:none" points="
  890.949,1486.45 890.949,47.2441 
  "/>
<polyline clip-path="url(#clip242)" style="stroke:#000000; stroke-linecap:butt; stroke-linejoin:round; stroke-width:2; stroke-opacity:0.1; fill:none" points="
  1042.13,1486.45 1042.13,47.2441 
  "/>
<polyline clip-path="url(#clip240)" style="stroke:#000000; stroke-linecap:butt; stroke-linejoin:round; stroke-width:4; stroke-opacity:1; fill:none" points="
  138.959,1486.45 1068.44,1486.45 
  "/>
<polyline clip-path="url(#clip240)" style="stroke:#000000; stroke-linecap:butt; stroke-linejoin:round; stroke-width:4; stroke-opacity:1; fill:none" points="
  286.213,1486.45 286.213,1467.55 
  "/>
<polyline clip-path="url(#clip240)" style="stroke:#000000; stroke-linecap:butt; stroke-linejoin:round; stroke-width:4; stroke-opacity:1; fill:none" points="
  437.397,1486.45 437.397,1467.55 
  "/>
<polyline clip-path="url(#clip240)" style="stroke:#000000; stroke-linecap:butt; stroke-linejoin:round; stroke-width:4; stroke-opacity:1; fill:none" points="
  588.581,1486.45 588.581,1467.55 
  "/>
<polyline clip-path="url(#clip240)" style="stroke:#000000; stroke-linecap:butt; stroke-linejoin:round; stroke-width:4; stroke-opacity:1; fill:none" points="
  739.765,1486.45 739.765,1467.55 
  "/>
<polyline clip-path="url(#clip240)" style="stroke:#000000; stroke-linecap:butt; stroke-linejoin:round; stroke-width:4; stroke-opacity:1; fill:none" points="
  890.949,1486.45 890.949,1467.55 
  "/>
<polyline clip-path="url(#clip240)" style="stroke:#000000; stroke-linecap:butt; stroke-linejoin:round; stroke-width:4; stroke-opacity:1; fill:none" points="
  1042.13,1486.45 1042.13,1467.55 
  "/>
<path clip-path="url(#clip240)" d="M276.491 1514.29 L294.847 1514.29 L294.847 1518.22 L280.773 1518.22 L280.773 1526.7 Q281.791 1526.35 282.81 1526.19 Q283.828 1526 284.847 1526 Q290.634 1526 294.014 1529.17 Q297.393 1532.34 297.393 1537.76 Q297.393 1543.34 293.921 1546.44 Q290.449 1549.52 284.129 1549.52 Q281.954 1549.52 279.685 1549.15 Q277.44 1548.78 275.032 1548.04 L275.032 1543.34 Q277.116 1544.47 279.338 1545.03 Q281.56 1545.58 284.037 1545.58 Q288.041 1545.58 290.379 1543.48 Q292.717 1541.37 292.717 1537.76 Q292.717 1534.15 290.379 1532.04 Q288.041 1529.94 284.037 1529.94 Q282.162 1529.94 280.287 1530.35 Q278.435 1530.77 276.491 1531.65 L276.491 1514.29 Z" fill="#000000" fill-rule="evenodd" fill-opacity="1" /><path clip-path="url(#clip240)" d="M412.084 1544.91 L419.723 1544.91 L419.723 1518.55 L411.413 1520.21 L411.413 1515.95 L419.677 1514.29 L424.353 1514.29 L424.353 1544.91 L431.992 1544.91 L431.992 1548.85 L412.084 1548.85 L412.084 1544.91 Z" fill="#000000" fill-rule="evenodd" fill-opacity="1" /><path clip-path="url(#clip240)" d="M451.436 1517.37 Q447.825 1517.37 445.996 1520.93 Q444.191 1524.47 444.191 1531.6 Q444.191 1538.71 445.996 1542.27 Q447.825 1545.82 451.436 1545.82 Q455.07 1545.82 456.876 1542.27 Q458.705 1538.71 458.705 1531.6 Q458.705 1524.47 456.876 1520.93 Q455.07 1517.37 451.436 1517.37 M451.436 1513.66 Q457.246 1513.66 460.302 1518.27 Q463.38 1522.85 463.38 1531.6 Q463.38 1540.33 460.302 1544.94 Q457.246 1549.52 451.436 1549.52 Q445.626 1549.52 442.547 1544.94 Q439.492 1540.33 439.492 1531.6 Q439.492 1522.85 442.547 1518.27 Q445.626 1513.66 451.436 1513.66 Z" fill="#000000" fill-rule="evenodd" fill-opacity="1" /><path clip-path="url(#clip240)" d="M563.766 1544.91 L571.405 1544.91 L571.405 1518.55 L563.095 1520.21 L563.095 1515.95 L571.359 1514.29 L576.035 1514.29 L576.035 1544.91 L583.674 1544.91 L583.674 1548.85 L563.766 1548.85 L563.766 1544.91 Z" fill="#000000" fill-rule="evenodd" fill-opacity="1" /><path clip-path="url(#clip240)" d="M593.164 1514.29 L611.521 1514.29 L611.521 1518.22 L597.447 1518.22 L597.447 1526.7 Q598.465 1526.35 599.484 1526.19 Q600.502 1526 601.521 1526 Q607.308 1526 610.687 1529.17 Q614.067 1532.34 614.067 1537.76 Q614.067 1543.34 610.595 1546.44 Q607.122 1549.52 600.803 1549.52 Q598.627 1549.52 596.359 1549.15 Q594.113 1548.78 591.706 1548.04 L591.706 1543.34 Q593.789 1544.47 596.011 1545.03 Q598.234 1545.58 600.71 1545.58 Q604.715 1545.58 607.053 1543.48 Q609.391 1541.37 609.391 1537.76 Q609.391 1534.15 607.053 1532.04 Q604.715 1529.94 600.71 1529.94 Q598.835 1529.94 596.961 1530.35 Q595.109 1530.77 593.164 1531.65 L593.164 1514.29 Z" fill="#000000" fill-rule="evenodd" fill-opacity="1" /><path clip-path="url(#clip240)" d="M718.538 1544.91 L734.858 1544.91 L734.858 1548.85 L712.913 1548.85 L712.913 1544.91 Q715.575 1542.16 720.159 1537.53 Q724.765 1532.88 725.946 1531.53 Q728.191 1529.01 729.071 1527.27 Q729.973 1525.51 729.973 1523.82 Q729.973 1521.07 728.029 1519.33 Q726.108 1517.6 723.006 1517.6 Q720.807 1517.6 718.353 1518.36 Q715.923 1519.13 713.145 1520.68 L713.145 1515.95 Q715.969 1514.82 718.423 1514.24 Q720.876 1513.66 722.913 1513.66 Q728.284 1513.66 731.478 1516.35 Q734.672 1519.03 734.672 1523.52 Q734.672 1525.65 733.862 1527.57 Q733.075 1529.47 730.969 1532.07 Q730.39 1532.74 727.288 1535.95 Q724.186 1539.15 718.538 1544.91 Z" fill="#000000" fill-rule="evenodd" fill-opacity="1" /><path clip-path="url(#clip240)" d="M754.672 1517.37 Q751.061 1517.37 749.233 1520.93 Q747.427 1524.47 747.427 1531.6 Q747.427 1538.71 749.233 1542.27 Q751.061 1545.82 754.672 1545.82 Q758.307 1545.82 760.112 1542.27 Q761.941 1538.71 761.941 1531.6 Q761.941 1524.47 760.112 1520.93 Q758.307 1517.37 754.672 1517.37 M754.672 1513.66 Q760.482 1513.66 763.538 1518.27 Q766.617 1522.85 766.617 1531.6 Q766.617 1540.33 763.538 1544.94 Q760.482 1549.52 754.672 1549.52 Q748.862 1549.52 745.784 1544.94 Q742.728 1540.33 742.728 1531.6 Q742.728 1522.85 745.784 1518.27 Q748.862 1513.66 754.672 1513.66 Z" fill="#000000" fill-rule="evenodd" fill-opacity="1" /><path clip-path="url(#clip240)" d="M870.22 1544.91 L886.539 1544.91 L886.539 1548.85 L864.595 1548.85 L864.595 1544.91 Q867.257 1542.16 871.84 1537.53 Q876.447 1532.88 877.627 1531.53 Q879.873 1529.01 880.752 1527.27 Q881.655 1525.51 881.655 1523.82 Q881.655 1521.07 879.711 1519.33 Q877.789 1517.6 874.688 1517.6 Q872.489 1517.6 870.035 1518.36 Q867.604 1519.13 864.827 1520.68 L864.827 1515.95 Q867.651 1514.82 870.104 1514.24 Q872.558 1513.66 874.595 1513.66 Q879.965 1513.66 883.16 1516.35 Q886.354 1519.03 886.354 1523.52 Q886.354 1525.65 885.544 1527.57 Q884.757 1529.47 882.651 1532.07 Q882.072 1532.74 878.97 1535.95 Q875.868 1539.15 870.22 1544.91 Z" fill="#000000" fill-rule="evenodd" fill-opacity="1" /><path clip-path="url(#clip240)" d="M896.4 1514.29 L914.757 1514.29 L914.757 1518.22 L900.683 1518.22 L900.683 1526.7 Q901.701 1526.35 902.72 1526.19 Q903.738 1526 904.757 1526 Q910.544 1526 913.924 1529.17 Q917.303 1532.34 917.303 1537.76 Q917.303 1543.34 913.831 1546.44 Q910.359 1549.52 904.039 1549.52 Q901.863 1549.52 899.595 1549.15 Q897.35 1548.78 894.942 1548.04 L894.942 1543.34 Q897.025 1544.47 899.248 1545.03 Q901.47 1545.58 903.947 1545.58 Q907.951 1545.58 910.289 1543.48 Q912.627 1541.37 912.627 1537.76 Q912.627 1534.15 910.289 1532.04 Q907.951 1529.94 903.947 1529.94 Q902.072 1529.94 900.197 1530.35 Q898.345 1530.77 896.4 1531.65 L896.4 1514.29 Z" fill="#000000" fill-rule="evenodd" fill-opacity="1" /><path clip-path="url(#clip240)" d="M1030.98 1530.21 Q1034.33 1530.93 1036.21 1533.2 Q1038.11 1535.47 1038.11 1538.8 Q1038.11 1543.92 1034.59 1546.72 Q1031.07 1549.52 1024.59 1549.52 Q1022.41 1549.52 1020.1 1549.08 Q1017.8 1548.66 1015.35 1547.81 L1015.35 1543.29 Q1017.3 1544.43 1019.61 1545.01 Q1021.92 1545.58 1024.45 1545.58 Q1028.85 1545.58 1031.14 1543.85 Q1033.45 1542.11 1033.45 1538.8 Q1033.45 1535.75 1031.3 1534.03 Q1029.17 1532.3 1025.35 1532.3 L1021.32 1532.3 L1021.32 1528.45 L1025.54 1528.45 Q1028.99 1528.45 1030.81 1527.09 Q1032.64 1525.7 1032.64 1523.11 Q1032.64 1520.45 1030.74 1519.03 Q1028.87 1517.6 1025.35 1517.6 Q1023.43 1517.6 1021.23 1518.01 Q1019.03 1518.43 1016.39 1519.31 L1016.39 1515.14 Q1019.05 1514.4 1021.37 1514.03 Q1023.71 1513.66 1025.77 1513.66 Q1031.09 1513.66 1034.19 1516.09 Q1037.3 1518.5 1037.3 1522.62 Q1037.3 1525.49 1035.65 1527.48 Q1034.01 1529.45 1030.98 1530.21 Z" fill="#000000" fill-rule="evenodd" fill-opacity="1" /><path clip-path="url(#clip240)" d="M1056.97 1517.37 Q1053.36 1517.37 1051.53 1520.93 Q1049.73 1524.47 1049.73 1531.6 Q1049.73 1538.71 1051.53 1542.27 Q1053.36 1545.82 1056.97 1545.82 Q1060.61 1545.82 1062.41 1542.27 Q1064.24 1538.71 1064.24 1531.6 Q1064.24 1524.47 1062.41 1520.93 Q1060.61 1517.37 1056.97 1517.37 M1056.97 1513.66 Q1062.78 1513.66 1065.84 1518.27 Q1068.92 1522.85 1068.92 1531.6 Q1068.92 1540.33 1065.84 1544.94 Q1062.78 1549.52 1056.97 1549.52 Q1051.16 1549.52 1048.08 1544.94 Q1045.03 1540.33 1045.03 1531.6 Q1045.03 1522.85 1048.08 1518.27 Q1051.16 1513.66 1056.97 1513.66 Z" fill="#000000" fill-rule="evenodd" fill-opacity="1" /><polyline clip-path="url(#clip242)" style="stroke:#000000; stroke-linecap:butt; stroke-linejoin:round; stroke-width:2; stroke-opacity:0.1; fill:none" points="
  138.959,1315.72 1068.44,1315.72 
  "/>
<polyline clip-path="url(#clip242)" style="stroke:#000000; stroke-linecap:butt; stroke-linejoin:round; stroke-width:2; stroke-opacity:0.1; fill:none" points="
  138.959,1026.84 1068.44,1026.84 
  "/>
<polyline clip-path="url(#clip242)" style="stroke:#000000; stroke-linecap:butt; stroke-linejoin:round; stroke-width:2; stroke-opacity:0.1; fill:none" points="
  138.959,737.958 1068.44,737.958 
  "/>
<polyline clip-path="url(#clip242)" style="stroke:#000000; stroke-linecap:butt; stroke-linejoin:round; stroke-width:2; stroke-opacity:0.1; fill:none" points="
  138.959,449.077 1068.44,449.077 
  "/>
<polyline clip-path="url(#clip242)" style="stroke:#000000; stroke-linecap:butt; stroke-linejoin:round; stroke-width:2; stroke-opacity:0.1; fill:none" points="
  138.959,160.196 1068.44,160.196 
  "/>
<polyline clip-path="url(#clip240)" style="stroke:#000000; stroke-linecap:butt; stroke-linejoin:round; stroke-width:4; stroke-opacity:1; fill:none" points="
  138.959,1486.45 138.959,47.2441 
  "/>
<polyline clip-path="url(#clip240)" style="stroke:#000000; stroke-linecap:butt; stroke-linejoin:round; stroke-width:4; stroke-opacity:1; fill:none" points="
  138.959,1315.72 157.857,1315.72 
  "/>
<polyline clip-path="url(#clip240)" style="stroke:#000000; stroke-linecap:butt; stroke-linejoin:round; stroke-width:4; stroke-opacity:1; fill:none" points="
  138.959,1026.84 157.857,1026.84 
  "/>
<polyline clip-path="url(#clip240)" style="stroke:#000000; stroke-linecap:butt; stroke-linejoin:round; stroke-width:4; stroke-opacity:1; fill:none" points="
  138.959,737.958 157.857,737.958 
  "/>
<polyline clip-path="url(#clip240)" style="stroke:#000000; stroke-linecap:butt; stroke-linejoin:round; stroke-width:4; stroke-opacity:1; fill:none" points="
  138.959,449.077 157.857,449.077 
  "/>
<polyline clip-path="url(#clip240)" style="stroke:#000000; stroke-linecap:butt; stroke-linejoin:round; stroke-width:4; stroke-opacity:1; fill:none" points="
  138.959,160.196 157.857,160.196 
  "/>
<path clip-path="url(#clip240)" d="M86.6401 1329.06 L102.959 1329.06 L102.959 1333 L81.0151 1333 L81.0151 1329.06 Q83.6771 1326.31 88.2604 1321.68 Q92.8669 1317.03 94.0475 1315.68 Q96.2928 1313.16 97.1724 1311.43 Q98.0752 1309.67 98.0752 1307.98 Q98.0752 1305.22 96.1308 1303.49 Q94.2095 1301.75 91.1077 1301.75 Q88.9086 1301.75 86.4549 1302.51 Q84.0244 1303.28 81.2466 1304.83 L81.2466 1300.11 Q84.0707 1298.97 86.5243 1298.39 Q88.978 1297.81 91.0151 1297.81 Q96.3854 1297.81 99.5798 1300.5 Q102.774 1303.18 102.774 1307.68 Q102.774 1309.81 101.964 1311.73 Q101.177 1313.62 99.0706 1316.22 Q98.4919 1316.89 95.39 1320.11 Q92.2882 1323.3 86.6401 1329.06 Z" fill="#000000" fill-rule="evenodd" fill-opacity="1" /><path clip-path="url(#clip240)" d="M93.3762 1013.63 L81.5707 1032.08 L93.3762 1032.08 L93.3762 1013.63 M92.1493 1009.56 L98.0289 1009.56 L98.0289 1032.08 L102.959 1032.08 L102.959 1035.97 L98.0289 1035.97 L98.0289 1044.12 L93.3762 1044.12 L93.3762 1035.97 L77.7744 1035.97 L77.7744 1031.46 L92.1493 1009.56 Z" fill="#000000" fill-rule="evenodd" fill-opacity="1" /><path clip-path="url(#clip240)" d="M91.4317 736.094 Q88.2836 736.094 86.4318 738.247 Q84.6031 740.4 84.6031 744.15 Q84.6031 747.877 86.4318 750.053 Q88.2836 752.206 91.4317 752.206 Q94.5799 752.206 96.4085 750.053 Q98.2604 747.877 98.2604 744.15 Q98.2604 740.4 96.4085 738.247 Q94.5799 736.094 91.4317 736.094 M100.714 721.442 L100.714 725.701 Q98.9548 724.868 97.1493 724.428 Q95.3669 723.988 93.6076 723.988 Q88.978 723.988 86.5243 727.113 Q84.0938 730.238 83.7466 736.557 Q85.1123 734.544 87.1725 733.479 Q89.2327 732.391 91.7095 732.391 Q96.9178 732.391 99.927 735.562 Q102.959 738.71 102.959 744.15 Q102.959 749.474 99.8113 752.692 Q96.6632 755.909 91.4317 755.909 Q85.4364 755.909 82.2651 751.326 Q79.0938 746.719 79.0938 737.993 Q79.0938 729.798 82.9827 724.937 Q86.8716 720.053 93.4225 720.053 Q95.1817 720.053 96.9641 720.4 Q98.7696 720.747 100.714 721.442 Z" fill="#000000" fill-rule="evenodd" fill-opacity="1" /><path clip-path="url(#clip240)" d="M91.1077 449.945 Q87.7743 449.945 85.8531 451.728 Q83.9549 453.51 83.9549 456.635 Q83.9549 459.76 85.8531 461.542 Q87.7743 463.325 91.1077 463.325 Q94.441 463.325 96.3623 461.542 Q98.2835 459.737 98.2835 456.635 Q98.2835 453.51 96.3623 451.728 Q94.4641 449.945 91.1077 449.945 M86.4318 447.955 Q83.4225 447.214 81.7327 445.154 Q80.066 443.093 80.066 440.13 Q80.066 435.987 83.0058 433.58 Q85.9688 431.172 91.1077 431.172 Q96.2697 431.172 99.2095 433.58 Q102.149 435.987 102.149 440.13 Q102.149 443.093 100.459 445.154 Q98.7928 447.214 95.8067 447.955 Q99.1863 448.742 101.061 451.033 Q102.959 453.325 102.959 456.635 Q102.959 461.658 99.8808 464.343 Q96.8252 467.028 91.1077 467.028 Q85.3901 467.028 82.3114 464.343 Q79.2559 461.658 79.2559 456.635 Q79.2559 453.325 81.154 451.033 Q83.0521 448.742 86.4318 447.955 M84.7188 440.57 Q84.7188 443.255 86.3855 444.76 Q88.0753 446.265 91.1077 446.265 Q94.1169 446.265 95.8067 444.76 Q97.5197 443.255 97.5197 440.57 Q97.5197 437.885 95.8067 436.38 Q94.1169 434.876 91.1077 434.876 Q88.0753 434.876 86.3855 436.38 Q84.7188 437.885 84.7188 440.57 Z" fill="#000000" fill-rule="evenodd" fill-opacity="1" /><path clip-path="url(#clip240)" d="M51.6634 173.541 L59.3023 173.541 L59.3023 147.176 L50.9921 148.842 L50.9921 144.583 L59.256 142.916 L63.9319 142.916 L63.9319 173.541 L71.5707 173.541 L71.5707 177.476 L51.6634 177.476 L51.6634 173.541 Z" fill="#000000" fill-rule="evenodd" fill-opacity="1" /><path clip-path="url(#clip240)" d="M91.0151 145.995 Q87.404 145.995 85.5753 149.56 Q83.7697 153.102 83.7697 160.231 Q83.7697 167.338 85.5753 170.902 Q87.404 174.444 91.0151 174.444 Q94.6493 174.444 96.4548 170.902 Q98.2835 167.338 98.2835 160.231 Q98.2835 153.102 96.4548 149.56 Q94.6493 145.995 91.0151 145.995 M91.0151 142.291 Q96.8252 142.291 99.8808 146.898 Q102.959 151.481 102.959 160.231 Q102.959 168.958 99.8808 173.564 Q96.8252 178.148 91.0151 178.148 Q85.2049 178.148 82.1262 173.564 Q79.0707 168.958 79.0707 160.231 Q79.0707 151.481 82.1262 146.898 Q85.2049 142.291 91.0151 142.291 Z" fill="#000000" fill-rule="evenodd" fill-opacity="1" /><circle clip-path="url(#clip242)" cx="165.265" cy="1445.72" r="14" fill="#009af9" fill-rule="evenodd" fill-opacity="1" stroke="#000000" stroke-opacity="1" stroke-width="3.2"/>
<circle clip-path="url(#clip242)" cx="195.502" cy="1416.83" r="14" fill="#009af9" fill-rule="evenodd" fill-opacity="1" stroke="#000000" stroke-opacity="1" stroke-width="3.2"/>
<circle clip-path="url(#clip242)" cx="225.739" cy="1387.94" r="14" fill="#009af9" fill-rule="evenodd" fill-opacity="1" stroke="#000000" stroke-opacity="1" stroke-width="3.2"/>
<circle clip-path="url(#clip242)" cx="255.976" cy="1315.72" r="14" fill="#009af9" fill-rule="evenodd" fill-opacity="1" stroke="#000000" stroke-opacity="1" stroke-width="3.2"/>
<circle clip-path="url(#clip242)" cx="286.213" cy="1286.83" r="14" fill="#009af9" fill-rule="evenodd" fill-opacity="1" stroke="#000000" stroke-opacity="1" stroke-width="3.2"/>
<circle clip-path="url(#clip242)" cx="316.45" cy="1185.72" r="14" fill="#009af9" fill-rule="evenodd" fill-opacity="1" stroke="#000000" stroke-opacity="1" stroke-width="3.2"/>
<circle clip-path="url(#clip242)" cx="346.686" cy="1171.28" r="14" fill="#009af9" fill-rule="evenodd" fill-opacity="1" stroke="#000000" stroke-opacity="1" stroke-width="3.2"/>
<circle clip-path="url(#clip242)" cx="376.923" cy="1142.39" r="14" fill="#009af9" fill-rule="evenodd" fill-opacity="1" stroke="#000000" stroke-opacity="1" stroke-width="3.2"/>
<circle clip-path="url(#clip242)" cx="407.16" cy="1142.39" r="14" fill="#009af9" fill-rule="evenodd" fill-opacity="1" stroke="#000000" stroke-opacity="1" stroke-width="3.2"/>
<circle clip-path="url(#clip242)" cx="437.397" cy="1070.17" r="14" fill="#009af9" fill-rule="evenodd" fill-opacity="1" stroke="#000000" stroke-opacity="1" stroke-width="3.2"/>
<circle clip-path="url(#clip242)" cx="467.634" cy="1041.28" r="14" fill="#009af9" fill-rule="evenodd" fill-opacity="1" stroke="#000000" stroke-opacity="1" stroke-width="3.2"/>
<circle clip-path="url(#clip242)" cx="497.87" cy="1026.84" r="14" fill="#009af9" fill-rule="evenodd" fill-opacity="1" stroke="#000000" stroke-opacity="1" stroke-width="3.2"/>
<circle clip-path="url(#clip242)" cx="528.107" cy="1026.84" r="14" fill="#009af9" fill-rule="evenodd" fill-opacity="1" stroke="#000000" stroke-opacity="1" stroke-width="3.2"/>
<circle clip-path="url(#clip242)" cx="558.344" cy="1012.39" r="14" fill="#009af9" fill-rule="evenodd" fill-opacity="1" stroke="#000000" stroke-opacity="1" stroke-width="3.2"/>
<circle clip-path="url(#clip242)" cx="588.581" cy="954.618" r="14" fill="#009af9" fill-rule="evenodd" fill-opacity="1" stroke="#000000" stroke-opacity="1" stroke-width="3.2"/>
<circle clip-path="url(#clip242)" cx="618.818" cy="896.842" r="14" fill="#009af9" fill-rule="evenodd" fill-opacity="1" stroke="#000000" stroke-opacity="1" stroke-width="3.2"/>
<circle clip-path="url(#clip242)" cx="649.055" cy="867.954" r="14" fill="#009af9" fill-rule="evenodd" fill-opacity="1" stroke="#000000" stroke-opacity="1" stroke-width="3.2"/>
<circle clip-path="url(#clip242)" cx="679.291" cy="839.066" r="14" fill="#009af9" fill-rule="evenodd" fill-opacity="1" stroke="#000000" stroke-opacity="1" stroke-width="3.2"/>
<circle clip-path="url(#clip242)" cx="709.528" cy="752.402" r="14" fill="#009af9" fill-rule="evenodd" fill-opacity="1" stroke="#000000" stroke-opacity="1" stroke-width="3.2"/>
<circle clip-path="url(#clip242)" cx="739.765" cy="737.958" r="14" fill="#009af9" fill-rule="evenodd" fill-opacity="1" stroke="#000000" stroke-opacity="1" stroke-width="3.2"/>
<circle clip-path="url(#clip242)" cx="770.002" cy="622.406" r="14" fill="#009af9" fill-rule="evenodd" fill-opacity="1" stroke="#000000" stroke-opacity="1" stroke-width="3.2"/>
<circle clip-path="url(#clip242)" cx="800.239" cy="579.074" r="14" fill="#009af9" fill-rule="evenodd" fill-opacity="1" stroke="#000000" stroke-opacity="1" stroke-width="3.2"/>
<circle clip-path="url(#clip242)" cx="830.475" cy="463.521" r="14" fill="#009af9" fill-rule="evenodd" fill-opacity="1" stroke="#000000" stroke-opacity="1" stroke-width="3.2"/>
<circle clip-path="url(#clip242)" cx="860.712" cy="420.189" r="14" fill="#009af9" fill-rule="evenodd" fill-opacity="1" stroke="#000000" stroke-opacity="1" stroke-width="3.2"/>
<circle clip-path="url(#clip242)" cx="890.949" cy="347.969" r="14" fill="#009af9" fill-rule="evenodd" fill-opacity="1" stroke="#000000" stroke-opacity="1" stroke-width="3.2"/>
<circle clip-path="url(#clip242)" cx="921.186" cy="304.637" r="14" fill="#009af9" fill-rule="evenodd" fill-opacity="1" stroke="#000000" stroke-opacity="1" stroke-width="3.2"/>
<circle clip-path="url(#clip242)" cx="951.423" cy="232.417" r="14" fill="#009af9" fill-rule="evenodd" fill-opacity="1" stroke="#000000" stroke-opacity="1" stroke-width="3.2"/>
<circle clip-path="url(#clip242)" cx="981.66" cy="217.973" r="14" fill="#009af9" fill-rule="evenodd" fill-opacity="1" stroke="#000000" stroke-opacity="1" stroke-width="3.2"/>
<circle clip-path="url(#clip242)" cx="1011.9" cy="116.864" r="14" fill="#009af9" fill-rule="evenodd" fill-opacity="1" stroke="#000000" stroke-opacity="1" stroke-width="3.2"/>
<circle clip-path="url(#clip242)" cx="1042.13" cy="87.9763" r="14" fill="#009af9" fill-rule="evenodd" fill-opacity="1" stroke="#000000" stroke-opacity="1" stroke-width="3.2"/>
<path clip-path="url(#clip240)" d="
M395.375 198.898 L1037.46 198.898 L1037.46 95.2176 L395.375 95.2176  Z
  " fill="#ffffff" fill-rule="evenodd" fill-opacity="1"/>
<polyline clip-path="url(#clip240)" style="stroke:#000000; stroke-linecap:butt; stroke-linejoin:round; stroke-width:4; stroke-opacity:1; fill:none" points="
  395.375,198.898 1037.46,198.898 1037.46,95.2176 395.375,95.2176 395.375,198.898 
  "/>
<circle clip-path="url(#clip240)" cx="491.375" cy="147.058" r="23" fill="#009af9" fill-rule="evenodd" fill-opacity="1" stroke="#000000" stroke-opacity="1" stroke-width="5.12"/>
<path clip-path="url(#clip240)" d="M587.375 129.778 L592.399 129.778 L601.982 143.99 L611.496 129.778 L616.519 129.778 L604.297 147.879 L604.297 164.338 L599.598 164.338 L599.598 147.879 L587.375 129.778 Z" fill="#000000" fill-rule="evenodd" fill-opacity="1" /><path clip-path="url(#clip240)" d="M636.773 150.31 L636.773 152.393 L617.19 152.393 Q617.468 156.791 619.829 159.106 Q622.213 161.398 626.449 161.398 Q628.903 161.398 631.195 160.796 Q633.509 160.194 635.778 158.99 L635.778 163.018 Q633.486 163.99 631.079 164.5 Q628.671 165.009 626.195 165.009 Q619.991 165.009 616.357 161.398 Q612.746 157.787 612.746 151.629 Q612.746 145.264 616.172 141.537 Q619.621 137.787 625.454 137.787 Q630.685 137.787 633.718 141.166 Q636.773 144.523 636.773 150.31 M632.514 149.06 Q632.468 145.565 630.546 143.481 Q628.648 141.398 625.5 141.398 Q621.935 141.398 619.783 143.412 Q617.653 145.426 617.329 149.083 L632.514 149.06 Z" fill="#000000" fill-rule="evenodd" fill-opacity="1" /><path clip-path="url(#clip240)" d="M655.546 151.305 Q650.384 151.305 648.394 152.486 Q646.403 153.666 646.403 156.514 Q646.403 158.782 647.884 160.125 Q649.389 161.444 651.958 161.444 Q655.5 161.444 657.63 158.944 Q659.782 156.421 659.782 152.254 L659.782 151.305 L655.546 151.305 M664.042 149.546 L664.042 164.338 L659.782 164.338 L659.782 160.402 Q658.324 162.763 656.148 163.898 Q653.972 165.009 650.824 165.009 Q646.843 165.009 644.482 162.787 Q642.144 160.541 642.144 156.791 Q642.144 152.416 645.06 150.194 Q648 147.972 653.81 147.972 L659.782 147.972 L659.782 147.555 Q659.782 144.615 657.838 143.018 Q655.917 141.398 652.421 141.398 Q650.199 141.398 648.093 141.93 Q645.986 142.463 644.042 143.527 L644.042 139.592 Q646.38 138.69 648.579 138.25 Q650.778 137.787 652.861 137.787 Q658.486 137.787 661.264 140.703 Q664.042 143.62 664.042 149.546 Z" fill="#000000" fill-rule="evenodd" fill-opacity="1" /><path clip-path="url(#clip240)" d="M687.838 142.393 Q687.12 141.977 686.264 141.791 Q685.43 141.583 684.412 141.583 Q680.801 141.583 678.856 143.944 Q676.935 146.282 676.935 150.68 L676.935 164.338 L672.653 164.338 L672.653 138.412 L676.935 138.412 L676.935 142.44 Q678.278 140.078 680.43 138.944 Q682.583 137.787 685.662 137.787 Q686.102 137.787 686.634 137.856 Q687.167 137.903 687.815 138.018 L687.838 142.393 Z" fill="#000000" fill-rule="evenodd" fill-opacity="1" /><path clip-path="url(#clip240)" d="M708.833 139.176 L708.833 143.203 Q707.028 142.277 705.083 141.815 Q703.139 141.352 701.055 141.352 Q697.884 141.352 696.287 142.324 Q694.713 143.296 694.713 145.24 Q694.713 146.722 695.847 147.578 Q696.981 148.412 700.407 149.176 L701.866 149.5 Q706.403 150.472 708.301 152.254 Q710.222 154.014 710.222 157.185 Q710.222 160.796 707.352 162.902 Q704.504 165.009 699.504 165.009 Q697.421 165.009 695.153 164.592 Q692.907 164.199 690.407 163.388 L690.407 158.99 Q692.768 160.217 695.06 160.842 Q697.352 161.444 699.597 161.444 Q702.606 161.444 704.227 160.426 Q705.847 159.384 705.847 157.509 Q705.847 155.773 704.666 154.847 Q703.509 153.921 699.551 153.064 L698.069 152.717 Q694.111 151.884 692.352 150.171 Q690.592 148.435 690.592 145.426 Q690.592 141.768 693.185 139.778 Q695.778 137.787 700.546 137.787 Q702.907 137.787 704.99 138.134 Q707.074 138.481 708.833 139.176 Z" fill="#000000" fill-rule="evenodd" fill-opacity="1" /><path clip-path="url(#clip240)" d="M732.259 129.778 L754.111 129.778 L754.111 133.713 L736.935 133.713 L736.935 143.944 L753.393 143.944 L753.393 147.879 L736.935 147.879 L736.935 160.402 L754.527 160.402 L754.527 164.338 L732.259 164.338 L732.259 129.778 Z" fill="#000000" fill-rule="evenodd" fill-opacity="1" /><path clip-path="url(#clip240)" d="M783.578 138.412 L774.203 151.027 L784.064 164.338 L779.041 164.338 L771.495 154.152 L763.949 164.338 L758.925 164.338 L768.995 150.773 L759.782 138.412 L764.805 138.412 L771.68 147.648 L778.555 138.412 L783.578 138.412 Z" fill="#000000" fill-rule="evenodd" fill-opacity="1" /><path clip-path="url(#clip240)" d="M794.203 160.449 L794.203 174.199 L789.921 174.199 L789.921 138.412 L794.203 138.412 L794.203 142.347 Q795.546 140.032 797.583 138.921 Q799.643 137.787 802.49 137.787 Q807.212 137.787 810.152 141.537 Q813.115 145.287 813.115 151.398 Q813.115 157.509 810.152 161.259 Q807.212 165.009 802.49 165.009 Q799.643 165.009 797.583 163.898 Q795.546 162.763 794.203 160.449 M808.694 151.398 Q808.694 146.699 806.749 144.037 Q804.828 141.352 801.448 141.352 Q798.069 141.352 796.124 144.037 Q794.203 146.699 794.203 151.398 Q794.203 156.097 796.124 158.782 Q798.069 161.444 801.448 161.444 Q804.828 161.444 806.749 158.782 Q808.694 156.097 808.694 151.398 Z" fill="#000000" fill-rule="evenodd" fill-opacity="1" /><path clip-path="url(#clip240)" d="M842.351 150.31 L842.351 152.393 L822.768 152.393 Q823.045 156.791 825.407 159.106 Q827.791 161.398 832.027 161.398 Q834.481 161.398 836.772 160.796 Q839.087 160.194 841.356 158.99 L841.356 163.018 Q839.064 163.99 836.656 164.5 Q834.249 165.009 831.772 165.009 Q825.569 165.009 821.934 161.398 Q818.323 157.787 818.323 151.629 Q818.323 145.264 821.749 141.537 Q825.198 137.787 831.031 137.787 Q836.263 137.787 839.295 141.166 Q842.351 144.523 842.351 150.31 M838.092 149.06 Q838.045 145.565 836.124 143.481 Q834.226 141.398 831.078 141.398 Q827.513 141.398 825.36 143.412 Q823.231 145.426 822.907 149.083 L838.092 149.06 Z" fill="#000000" fill-rule="evenodd" fill-opacity="1" /><path clip-path="url(#clip240)" d="M864.365 142.393 Q863.647 141.977 862.791 141.791 Q861.957 141.583 860.939 141.583 Q857.328 141.583 855.383 143.944 Q853.462 146.282 853.462 150.68 L853.462 164.338 L849.18 164.338 L849.18 138.412 L853.462 138.412 L853.462 142.44 Q854.805 140.078 856.957 138.944 Q859.11 137.787 862.189 137.787 Q862.629 137.787 863.161 137.856 Q863.693 137.903 864.341 138.018 L864.365 142.393 Z" fill="#000000" fill-rule="evenodd" fill-opacity="1" /><path clip-path="url(#clip240)" d="M868.832 138.412 L873.091 138.412 L873.091 164.338 L868.832 164.338 L868.832 138.412 M868.832 128.319 L873.091 128.319 L873.091 133.713 L868.832 133.713 L868.832 128.319 Z" fill="#000000" fill-rule="evenodd" fill-opacity="1" /><path clip-path="url(#clip240)" d="M904.179 150.31 L904.179 152.393 L884.596 152.393 Q884.874 156.791 887.235 159.106 Q889.619 161.398 893.855 161.398 Q896.309 161.398 898.601 160.796 Q900.915 160.194 903.184 158.99 L903.184 163.018 Q900.892 163.99 898.485 164.5 Q896.077 165.009 893.601 165.009 Q887.397 165.009 883.763 161.398 Q880.152 157.787 880.152 151.629 Q880.152 145.264 883.578 141.537 Q887.027 137.787 892.86 137.787 Q898.091 137.787 901.124 141.166 Q904.179 144.523 904.179 150.31 M899.92 149.06 Q899.874 145.565 897.952 143.481 Q896.054 141.398 892.906 141.398 Q889.341 141.398 887.189 143.412 Q885.059 145.426 884.735 149.083 L899.92 149.06 Z" fill="#000000" fill-rule="evenodd" fill-opacity="1" /><path clip-path="url(#clip240)" d="M932.721 148.689 L932.721 164.338 L928.462 164.338 L928.462 148.828 Q928.462 145.148 927.026 143.319 Q925.591 141.49 922.721 141.49 Q919.272 141.49 917.281 143.69 Q915.29 145.889 915.29 149.685 L915.29 164.338 L911.008 164.338 L911.008 138.412 L915.29 138.412 L915.29 142.44 Q916.818 140.102 918.878 138.944 Q920.962 137.787 923.67 137.787 Q928.137 137.787 930.429 140.565 Q932.721 143.319 932.721 148.689 Z" fill="#000000" fill-rule="evenodd" fill-opacity="1" /><path clip-path="url(#clip240)" d="M959.873 139.407 L959.873 143.389 Q958.068 142.393 956.239 141.907 Q954.434 141.398 952.582 141.398 Q948.438 141.398 946.147 144.037 Q943.855 146.652 943.855 151.398 Q943.855 156.143 946.147 158.782 Q948.438 161.398 952.582 161.398 Q954.434 161.398 956.239 160.912 Q958.068 160.402 959.873 159.407 L959.873 163.342 Q958.091 164.176 956.17 164.592 Q954.272 165.009 952.119 165.009 Q946.262 165.009 942.813 161.328 Q939.364 157.648 939.364 151.398 Q939.364 145.055 942.836 141.421 Q946.332 137.787 952.397 137.787 Q954.364 137.787 956.239 138.203 Q958.114 138.597 959.873 139.407 Z" fill="#000000" fill-rule="evenodd" fill-opacity="1" /><path clip-path="url(#clip240)" d="M989.457 150.31 L989.457 152.393 L969.873 152.393 Q970.151 156.791 972.512 159.106 Q974.896 161.398 979.133 161.398 Q981.586 161.398 983.878 160.796 Q986.193 160.194 988.461 158.99 L988.461 163.018 Q986.17 163.99 983.762 164.5 Q981.355 165.009 978.878 165.009 Q972.674 165.009 969.04 161.398 Q965.429 157.787 965.429 151.629 Q965.429 145.264 968.855 141.537 Q972.304 137.787 978.137 137.787 Q983.369 137.787 986.401 141.166 Q989.457 144.523 989.457 150.31 M985.197 149.06 Q985.151 145.565 983.23 143.481 Q981.332 141.398 978.183 141.398 Q974.619 141.398 972.466 143.412 Q970.336 145.426 970.012 149.083 L985.197 149.06 Z" fill="#000000" fill-rule="evenodd" fill-opacity="1" /><path clip-path="url(#clip240)" d="
M1423.28 1486.45 L2352.76 1486.45 L2352.76 47.2441 L1423.28 47.2441  Z
  " fill="#ffffff" fill-rule="evenodd" fill-opacity="1"/>
<defs>
  <clipPath id="clip243">
    <rect x="1423" y="47" width="930" height="1440"/>
  </clipPath>
</defs>
<polyline clip-path="url(#clip243)" style="stroke:#000000; stroke-linecap:butt; stroke-linejoin:round; stroke-width:2; stroke-opacity:0.1; fill:none" points="
  1570.53,1486.45 1570.53,47.2441 
  "/>
<polyline clip-path="url(#clip243)" style="stroke:#000000; stroke-linecap:butt; stroke-linejoin:round; stroke-width:2; stroke-opacity:0.1; fill:none" points="
  1721.71,1486.45 1721.71,47.2441 
  "/>
<polyline clip-path="url(#clip243)" style="stroke:#000000; stroke-linecap:butt; stroke-linejoin:round; stroke-width:2; stroke-opacity:0.1; fill:none" points="
  1872.9,1486.45 1872.9,47.2441 
  "/>
<polyline clip-path="url(#clip243)" style="stroke:#000000; stroke-linecap:butt; stroke-linejoin:round; stroke-width:2; stroke-opacity:0.1; fill:none" points="
  2024.08,1486.45 2024.08,47.2441 
  "/>
<polyline clip-path="url(#clip243)" style="stroke:#000000; stroke-linecap:butt; stroke-linejoin:round; stroke-width:2; stroke-opacity:0.1; fill:none" points="
  2175.27,1486.45 2175.27,47.2441 
  "/>
<polyline clip-path="url(#clip243)" style="stroke:#000000; stroke-linecap:butt; stroke-linejoin:round; stroke-width:2; stroke-opacity:0.1; fill:none" points="
  2326.45,1486.45 2326.45,47.2441 
  "/>
<polyline clip-path="url(#clip240)" style="stroke:#000000; stroke-linecap:butt; stroke-linejoin:round; stroke-width:4; stroke-opacity:1; fill:none" points="
  1423.28,1486.45 2352.76,1486.45 
  "/>
<polyline clip-path="url(#clip240)" style="stroke:#000000; stroke-linecap:butt; stroke-linejoin:round; stroke-width:4; stroke-opacity:1; fill:none" points="
  1570.53,1486.45 1570.53,1467.55 
  "/>
<polyline clip-path="url(#clip240)" style="stroke:#000000; stroke-linecap:butt; stroke-linejoin:round; stroke-width:4; stroke-opacity:1; fill:none" points="
  1721.71,1486.45 1721.71,1467.55 
  "/>
<polyline clip-path="url(#clip240)" style="stroke:#000000; stroke-linecap:butt; stroke-linejoin:round; stroke-width:4; stroke-opacity:1; fill:none" points="
  1872.9,1486.45 1872.9,1467.55 
  "/>
<polyline clip-path="url(#clip240)" style="stroke:#000000; stroke-linecap:butt; stroke-linejoin:round; stroke-width:4; stroke-opacity:1; fill:none" points="
  2024.08,1486.45 2024.08,1467.55 
  "/>
<polyline clip-path="url(#clip240)" style="stroke:#000000; stroke-linecap:butt; stroke-linejoin:round; stroke-width:4; stroke-opacity:1; fill:none" points="
  2175.27,1486.45 2175.27,1467.55 
  "/>
<polyline clip-path="url(#clip240)" style="stroke:#000000; stroke-linecap:butt; stroke-linejoin:round; stroke-width:4; stroke-opacity:1; fill:none" points="
  2326.45,1486.45 2326.45,1467.55 
  "/>
<path clip-path="url(#clip240)" d="M1560.81 1514.29 L1579.16 1514.29 L1579.16 1518.22 L1565.09 1518.22 L1565.09 1526.7 Q1566.11 1526.35 1567.13 1526.19 Q1568.15 1526 1569.16 1526 Q1574.95 1526 1578.33 1529.17 Q1581.71 1532.34 1581.71 1537.76 Q1581.71 1543.34 1578.24 1546.44 Q1574.77 1549.52 1568.45 1549.52 Q1566.27 1549.52 1564 1549.15 Q1561.76 1548.78 1559.35 1548.04 L1559.35 1543.34 Q1561.43 1544.47 1563.65 1545.03 Q1565.88 1545.58 1568.35 1545.58 Q1572.36 1545.58 1574.7 1543.48 Q1577.03 1541.37 1577.03 1537.76 Q1577.03 1534.15 1574.7 1532.04 Q1572.36 1529.94 1568.35 1529.94 Q1566.48 1529.94 1564.6 1530.35 Q1562.75 1530.77 1560.81 1531.65 L1560.81 1514.29 Z" fill="#000000" fill-rule="evenodd" fill-opacity="1" /><path clip-path="url(#clip240)" d="M1696.4 1544.91 L1704.04 1544.91 L1704.04 1518.55 L1695.73 1520.21 L1695.73 1515.95 L1703.99 1514.29 L1708.67 1514.29 L1708.67 1544.91 L1716.31 1544.91 L1716.31 1548.85 L1696.4 1548.85 L1696.4 1544.91 Z" fill="#000000" fill-rule="evenodd" fill-opacity="1" /><path clip-path="url(#clip240)" d="M1735.75 1517.37 Q1732.14 1517.37 1730.31 1520.93 Q1728.51 1524.47 1728.51 1531.6 Q1728.51 1538.71 1730.31 1542.27 Q1732.14 1545.82 1735.75 1545.82 Q1739.39 1545.82 1741.19 1542.27 Q1743.02 1538.71 1743.02 1531.6 Q1743.02 1524.47 1741.19 1520.93 Q1739.39 1517.37 1735.75 1517.37 M1735.75 1513.66 Q1741.56 1513.66 1744.62 1518.27 Q1747.7 1522.85 1747.7 1531.6 Q1747.7 1540.33 1744.62 1544.94 Q1741.56 1549.52 1735.75 1549.52 Q1729.94 1549.52 1726.86 1544.94 Q1723.81 1540.33 1723.81 1531.6 Q1723.81 1522.85 1726.86 1518.27 Q1729.94 1513.66 1735.75 1513.66 Z" fill="#000000" fill-rule="evenodd" fill-opacity="1" /><path clip-path="url(#clip240)" d="M1848.08 1544.91 L1855.72 1544.91 L1855.72 1518.55 L1847.41 1520.21 L1847.41 1515.95 L1855.68 1514.29 L1860.35 1514.29 L1860.35 1544.91 L1867.99 1544.91 L1867.99 1548.85 L1848.08 1548.85 L1848.08 1544.91 Z" fill="#000000" fill-rule="evenodd" fill-opacity="1" /><path clip-path="url(#clip240)" d="M1877.48 1514.29 L1895.84 1514.29 L1895.84 1518.22 L1881.76 1518.22 L1881.76 1526.7 Q1882.78 1526.35 1883.8 1526.19 Q1884.82 1526 1885.84 1526 Q1891.62 1526 1895 1529.17 Q1898.38 1532.34 1898.38 1537.76 Q1898.38 1543.34 1894.91 1546.44 Q1891.44 1549.52 1885.12 1549.52 Q1882.94 1549.52 1880.68 1549.15 Q1878.43 1548.78 1876.02 1548.04 L1876.02 1543.34 Q1878.11 1544.47 1880.33 1545.03 Q1882.55 1545.58 1885.03 1545.58 Q1889.03 1545.58 1891.37 1543.48 Q1893.71 1541.37 1893.71 1537.76 Q1893.71 1534.15 1891.37 1532.04 Q1889.03 1529.94 1885.03 1529.94 Q1883.15 1529.94 1881.28 1530.35 Q1879.43 1530.77 1877.48 1531.65 L1877.48 1514.29 Z" fill="#000000" fill-rule="evenodd" fill-opacity="1" /><path clip-path="url(#clip240)" d="M2002.85 1544.91 L2019.17 1544.91 L2019.17 1548.85 L1997.23 1548.85 L1997.23 1544.91 Q1999.89 1542.16 2004.48 1537.53 Q2009.08 1532.88 2010.26 1531.53 Q2012.51 1529.01 2013.39 1527.27 Q2014.29 1525.51 2014.29 1523.82 Q2014.29 1521.07 2012.35 1519.33 Q2010.42 1517.6 2007.32 1517.6 Q2005.12 1517.6 2002.67 1518.36 Q2000.24 1519.13 1997.46 1520.68 L1997.46 1515.95 Q2000.29 1514.82 2002.74 1514.24 Q2005.19 1513.66 2007.23 1513.66 Q2012.6 1513.66 2015.79 1516.35 Q2018.99 1519.03 2018.99 1523.52 Q2018.99 1525.65 2018.18 1527.57 Q2017.39 1529.47 2015.29 1532.07 Q2014.71 1532.74 2011.6 1535.95 Q2008.5 1539.15 2002.85 1544.91 Z" fill="#000000" fill-rule="evenodd" fill-opacity="1" /><path clip-path="url(#clip240)" d="M2038.99 1517.37 Q2035.38 1517.37 2033.55 1520.93 Q2031.74 1524.47 2031.74 1531.6 Q2031.74 1538.71 2033.55 1542.27 Q2035.38 1545.82 2038.99 1545.82 Q2042.62 1545.82 2044.43 1542.27 Q2046.26 1538.71 2046.26 1531.6 Q2046.26 1524.47 2044.43 1520.93 Q2042.62 1517.37 2038.99 1517.37 M2038.99 1513.66 Q2044.8 1513.66 2047.85 1518.27 Q2050.93 1522.85 2050.93 1531.6 Q2050.93 1540.33 2047.85 1544.94 Q2044.8 1549.52 2038.99 1549.52 Q2033.18 1549.52 2030.1 1544.94 Q2027.04 1540.33 2027.04 1531.6 Q2027.04 1522.85 2030.1 1518.27 Q2033.18 1513.66 2038.99 1513.66 Z" fill="#000000" fill-rule="evenodd" fill-opacity="1" /><path clip-path="url(#clip240)" d="M2154.54 1544.91 L2170.86 1544.91 L2170.86 1548.85 L2148.91 1548.85 L2148.91 1544.91 Q2151.57 1542.16 2156.16 1537.53 Q2160.76 1532.88 2161.94 1531.53 Q2164.19 1529.01 2165.07 1527.27 Q2165.97 1525.51 2165.97 1523.82 Q2165.97 1521.07 2164.03 1519.33 Q2162.11 1517.6 2159 1517.6 Q2156.81 1517.6 2154.35 1518.36 Q2151.92 1519.13 2149.14 1520.68 L2149.14 1515.95 Q2151.97 1514.82 2154.42 1514.24 Q2156.87 1513.66 2158.91 1513.66 Q2164.28 1513.66 2167.48 1516.35 Q2170.67 1519.03 2170.67 1523.52 Q2170.67 1525.65 2169.86 1527.57 Q2169.07 1529.47 2166.97 1532.07 Q2166.39 1532.74 2163.29 1535.95 Q2160.18 1539.15 2154.54 1544.91 Z" fill="#000000" fill-rule="evenodd" fill-opacity="1" /><path clip-path="url(#clip240)" d="M2180.72 1514.29 L2199.07 1514.29 L2199.07 1518.22 L2185 1518.22 L2185 1526.7 Q2186.02 1526.35 2187.04 1526.19 Q2188.06 1526 2189.07 1526 Q2194.86 1526 2198.24 1529.17 Q2201.62 1532.34 2201.62 1537.76 Q2201.62 1543.34 2198.15 1546.44 Q2194.68 1549.52 2188.36 1549.52 Q2186.18 1549.52 2183.91 1549.15 Q2181.67 1548.78 2179.26 1548.04 L2179.26 1543.34 Q2181.34 1544.47 2183.56 1545.03 Q2185.79 1545.58 2188.26 1545.58 Q2192.27 1545.58 2194.61 1543.48 Q2196.94 1541.37 2196.94 1537.76 Q2196.94 1534.15 2194.61 1532.04 Q2192.27 1529.94 2188.26 1529.94 Q2186.39 1529.94 2184.51 1530.35 Q2182.66 1530.77 2180.72 1531.65 L2180.72 1514.29 Z" fill="#000000" fill-rule="evenodd" fill-opacity="1" /><path clip-path="url(#clip240)" d="M2315.29 1530.21 Q2318.65 1530.93 2320.52 1533.2 Q2322.42 1535.47 2322.42 1538.8 Q2322.42 1543.92 2318.9 1546.72 Q2315.39 1549.52 2308.9 1549.52 Q2306.73 1549.52 2304.41 1549.08 Q2302.12 1548.66 2299.67 1547.81 L2299.67 1543.29 Q2301.61 1544.43 2303.93 1545.01 Q2306.24 1545.58 2308.76 1545.58 Q2313.16 1545.58 2315.45 1543.85 Q2317.77 1542.11 2317.77 1538.8 Q2317.77 1535.75 2315.62 1534.03 Q2313.49 1532.3 2309.67 1532.3 L2305.64 1532.3 L2305.64 1528.45 L2309.85 1528.45 Q2313.3 1528.45 2315.13 1527.09 Q2316.96 1525.7 2316.96 1523.11 Q2316.96 1520.45 2315.06 1519.03 Q2313.19 1517.6 2309.67 1517.6 Q2307.75 1517.6 2305.55 1518.01 Q2303.35 1518.43 2300.71 1519.31 L2300.71 1515.14 Q2303.37 1514.4 2305.69 1514.03 Q2308.02 1513.66 2310.08 1513.66 Q2315.41 1513.66 2318.51 1516.09 Q2321.61 1518.5 2321.61 1522.62 Q2321.61 1525.49 2319.97 1527.48 Q2318.32 1529.45 2315.29 1530.21 Z" fill="#000000" fill-rule="evenodd" fill-opacity="1" /><path clip-path="url(#clip240)" d="M2341.29 1517.37 Q2337.68 1517.37 2335.85 1520.93 Q2334.04 1524.47 2334.04 1531.6 Q2334.04 1538.71 2335.85 1542.27 Q2337.68 1545.82 2341.29 1545.82 Q2344.92 1545.82 2346.73 1542.27 Q2348.56 1538.71 2348.56 1531.6 Q2348.56 1524.47 2346.73 1520.93 Q2344.92 1517.37 2341.29 1517.37 M2341.29 1513.66 Q2347.1 1513.66 2350.15 1518.27 Q2353.23 1522.85 2353.23 1531.6 Q2353.23 1540.33 2350.15 1544.94 Q2347.1 1549.52 2341.29 1549.52 Q2335.48 1549.52 2332.4 1544.94 Q2329.34 1540.33 2329.34 1531.6 Q2329.34 1522.85 2332.4 1518.27 Q2335.48 1513.66 2341.29 1513.66 Z" fill="#000000" fill-rule="evenodd" fill-opacity="1" /><polyline clip-path="url(#clip243)" style="stroke:#000000; stroke-linecap:butt; stroke-linejoin:round; stroke-width:2; stroke-opacity:0.1; fill:none" points="
  1423.28,1409.33 2352.76,1409.33 
  "/>
<polyline clip-path="url(#clip243)" style="stroke:#000000; stroke-linecap:butt; stroke-linejoin:round; stroke-width:2; stroke-opacity:0.1; fill:none" points="
  1423.28,1088.58 2352.76,1088.58 
  "/>
<polyline clip-path="url(#clip243)" style="stroke:#000000; stroke-linecap:butt; stroke-linejoin:round; stroke-width:2; stroke-opacity:0.1; fill:none" points="
  1423.28,767.824 2352.76,767.824 
  "/>
<polyline clip-path="url(#clip243)" style="stroke:#000000; stroke-linecap:butt; stroke-linejoin:round; stroke-width:2; stroke-opacity:0.1; fill:none" points="
  1423.28,447.073 2352.76,447.073 
  "/>
<polyline clip-path="url(#clip243)" style="stroke:#000000; stroke-linecap:butt; stroke-linejoin:round; stroke-width:2; stroke-opacity:0.1; fill:none" points="
  1423.28,126.322 2352.76,126.322 
  "/>
<polyline clip-path="url(#clip240)" style="stroke:#000000; stroke-linecap:butt; stroke-linejoin:round; stroke-width:4; stroke-opacity:1; fill:none" points="
  1423.28,1486.45 1423.28,47.2441 
  "/>
<polyline clip-path="url(#clip240)" style="stroke:#000000; stroke-linecap:butt; stroke-linejoin:round; stroke-width:4; stroke-opacity:1; fill:none" points="
  1423.28,1409.33 1442.17,1409.33 
  "/>
<polyline clip-path="url(#clip240)" style="stroke:#000000; stroke-linecap:butt; stroke-linejoin:round; stroke-width:4; stroke-opacity:1; fill:none" points="
  1423.28,1088.58 1442.17,1088.58 
  "/>
<polyline clip-path="url(#clip240)" style="stroke:#000000; stroke-linecap:butt; stroke-linejoin:round; stroke-width:4; stroke-opacity:1; fill:none" points="
  1423.28,767.824 1442.17,767.824 
  "/>
<polyline clip-path="url(#clip240)" style="stroke:#000000; stroke-linecap:butt; stroke-linejoin:round; stroke-width:4; stroke-opacity:1; fill:none" points="
  1423.28,447.073 1442.17,447.073 
  "/>
<polyline clip-path="url(#clip240)" style="stroke:#000000; stroke-linecap:butt; stroke-linejoin:round; stroke-width:4; stroke-opacity:1; fill:none" points="
  1423.28,126.322 1442.17,126.322 
  "/>
<path clip-path="url(#clip240)" d="M1182.28 1402.57 L1170.47 1421.02 L1182.28 1421.02 L1182.28 1402.57 M1181.05 1398.49 L1186.93 1398.49 L1186.93 1421.02 L1191.86 1421.02 L1191.86 1424.91 L1186.93 1424.91 L1186.93 1433.05 L1182.28 1433.05 L1182.28 1424.91 L1166.68 1424.91 L1166.68 1420.39 L1181.05 1398.49 Z" fill="#000000" fill-rule="evenodd" fill-opacity="1" /><path clip-path="url(#clip240)" d="M1199.59 1427.17 L1204.48 1427.17 L1204.48 1433.05 L1199.59 1433.05 L1199.59 1427.17 Z" fill="#000000" fill-rule="evenodd" fill-opacity="1" /><path clip-path="url(#clip240)" d="M1224.66 1401.57 Q1221.05 1401.57 1219.22 1405.14 Q1217.42 1408.68 1217.42 1415.81 Q1217.42 1422.92 1219.22 1426.48 Q1221.05 1430.02 1224.66 1430.02 Q1228.3 1430.02 1230.1 1426.48 Q1231.93 1422.92 1231.93 1415.81 Q1231.93 1408.68 1230.1 1405.14 Q1228.3 1401.57 1224.66 1401.57 M1224.66 1397.87 Q1230.47 1397.87 1233.53 1402.48 Q1236.61 1407.06 1236.61 1415.81 Q1236.61 1424.54 1233.53 1429.14 Q1230.47 1433.73 1224.66 1433.73 Q1218.85 1433.73 1215.77 1429.14 Q1212.72 1424.54 1212.72 1415.81 Q1212.72 1407.06 1215.77 1402.48 Q1218.85 1397.87 1224.66 1397.87 Z" fill="#000000" fill-rule="evenodd" fill-opacity="1" /><path clip-path="url(#clip240)" d="M1254.82 1401.57 Q1251.21 1401.57 1249.38 1405.14 Q1247.58 1408.68 1247.58 1415.81 Q1247.58 1422.92 1249.38 1426.48 Q1251.21 1430.02 1254.82 1430.02 Q1258.46 1430.02 1260.26 1426.48 Q1262.09 1422.92 1262.09 1415.81 Q1262.09 1408.68 1260.26 1405.14 Q1258.46 1401.57 1254.82 1401.57 M1254.82 1397.87 Q1260.63 1397.87 1263.69 1402.48 Q1266.77 1407.06 1266.77 1415.81 Q1266.77 1424.54 1263.69 1429.14 Q1260.63 1433.73 1254.82 1433.73 Q1249.01 1433.73 1245.93 1429.14 Q1242.88 1424.54 1242.88 1415.81 Q1242.88 1407.06 1245.93 1402.48 Q1249.01 1397.87 1254.82 1397.87 Z" fill="#000000" fill-rule="evenodd" fill-opacity="1" /><path clip-path="url(#clip240)" d="M1303.16 1407.59 L1292.58 1418.22 L1303.16 1428.79 L1300.4 1431.6 L1289.78 1420.97 L1279.15 1431.6 L1276.42 1428.79 L1286.98 1418.22 L1276.42 1407.59 L1279.15 1404.79 L1289.78 1415.42 L1300.4 1404.79 L1303.16 1407.59 Z" fill="#000000" fill-rule="evenodd" fill-opacity="1" /><path clip-path="url(#clip240)" d="M1315.52 1429.12 L1323.16 1429.12 L1323.16 1402.75 L1314.85 1404.42 L1314.85 1400.16 L1323.11 1398.49 L1327.79 1398.49 L1327.79 1429.12 L1335.42 1429.12 L1335.42 1433.05 L1315.52 1433.05 L1315.52 1429.12 Z" fill="#000000" fill-rule="evenodd" fill-opacity="1" /><path clip-path="url(#clip240)" d="M1354.87 1401.57 Q1351.26 1401.57 1349.43 1405.14 Q1347.62 1408.68 1347.62 1415.81 Q1347.62 1422.92 1349.43 1426.48 Q1351.26 1430.02 1354.87 1430.02 Q1358.5 1430.02 1360.31 1426.48 Q1362.14 1422.92 1362.14 1415.81 Q1362.14 1408.68 1360.31 1405.14 Q1358.5 1401.57 1354.87 1401.57 M1354.87 1397.87 Q1360.68 1397.87 1363.73 1402.48 Q1366.81 1407.06 1366.81 1415.81 Q1366.81 1424.54 1363.73 1429.14 Q1360.68 1433.73 1354.87 1433.73 Q1349.06 1433.73 1345.98 1429.14 Q1342.92 1424.54 1342.92 1415.81 Q1342.92 1407.06 1345.98 1402.48 Q1349.06 1397.87 1354.87 1397.87 Z" fill="#000000" fill-rule="evenodd" fill-opacity="1" /><path clip-path="url(#clip240)" d="M1379.49 1380.87 L1369.9 1395.86 L1379.49 1395.86 L1379.49 1380.87 M1378.49 1377.56 L1383.27 1377.56 L1383.27 1395.86 L1387.28 1395.86 L1387.28 1399.02 L1383.27 1399.02 L1383.27 1405.64 L1379.49 1405.64 L1379.49 1399.02 L1366.81 1399.02 L1366.81 1395.36 L1378.49 1377.56 Z" fill="#000000" fill-rule="evenodd" fill-opacity="1" /><path clip-path="url(#clip240)" d="M1180.01 1093.16 Q1176.86 1093.16 1175.01 1095.31 Q1173.18 1097.47 1173.18 1101.22 Q1173.18 1104.94 1175.01 1107.12 Q1176.86 1109.27 1180.01 1109.27 Q1183.16 1109.27 1184.99 1107.12 Q1186.84 1104.94 1186.84 1101.22 Q1186.84 1097.47 1184.99 1095.31 Q1183.16 1093.16 1180.01 1093.16 M1189.29 1078.51 L1189.29 1082.77 Q1187.53 1081.93 1185.73 1081.49 Q1183.94 1081.05 1182.18 1081.05 Q1177.56 1081.05 1175.1 1084.18 Q1172.67 1087.3 1172.32 1093.62 Q1173.69 1091.61 1175.75 1090.54 Q1177.81 1089.46 1180.29 1089.46 Q1185.49 1089.46 1188.5 1092.63 Q1191.54 1095.78 1191.54 1101.22 Q1191.54 1106.54 1188.39 1109.76 Q1185.24 1112.97 1180.01 1112.97 Q1174.01 1112.97 1170.84 1108.39 Q1167.67 1103.78 1167.67 1095.06 Q1167.67 1086.86 1171.56 1082 Q1175.45 1077.12 1182 1077.12 Q1183.76 1077.12 1185.54 1077.47 Q1187.35 1077.81 1189.29 1078.51 Z" fill="#000000" fill-rule="evenodd" fill-opacity="1" /><path clip-path="url(#clip240)" d="M1199.59 1106.42 L1204.48 1106.42 L1204.48 1112.3 L1199.59 1112.3 L1199.59 1106.42 Z" fill="#000000" fill-rule="evenodd" fill-opacity="1" /><path clip-path="url(#clip240)" d="M1224.66 1080.82 Q1221.05 1080.82 1219.22 1084.39 Q1217.42 1087.93 1217.42 1095.06 Q1217.42 1102.16 1219.22 1105.73 Q1221.05 1109.27 1224.66 1109.27 Q1228.3 1109.27 1230.1 1105.73 Q1231.93 1102.16 1231.93 1095.06 Q1231.93 1087.93 1230.1 1084.39 Q1228.3 1080.82 1224.66 1080.82 M1224.66 1077.12 Q1230.47 1077.12 1233.53 1081.72 Q1236.61 1086.31 1236.61 1095.06 Q1236.61 1103.78 1233.53 1108.39 Q1230.47 1112.97 1224.66 1112.97 Q1218.85 1112.97 1215.77 1108.39 Q1212.72 1103.78 1212.72 1095.06 Q1212.72 1086.31 1215.77 1081.72 Q1218.85 1077.12 1224.66 1077.12 Z" fill="#000000" fill-rule="evenodd" fill-opacity="1" /><path clip-path="url(#clip240)" d="M1254.82 1080.82 Q1251.21 1080.82 1249.38 1084.39 Q1247.58 1087.93 1247.58 1095.06 Q1247.58 1102.16 1249.38 1105.73 Q1251.21 1109.27 1254.82 1109.27 Q1258.46 1109.27 1260.26 1105.73 Q1262.09 1102.16 1262.09 1095.06 Q1262.09 1087.93 1260.26 1084.39 Q1258.46 1080.82 1254.82 1080.82 M1254.82 1077.12 Q1260.63 1077.12 1263.69 1081.72 Q1266.77 1086.31 1266.77 1095.06 Q1266.77 1103.78 1263.69 1108.39 Q1260.63 1112.97 1254.82 1112.97 Q1249.01 1112.97 1245.93 1108.39 Q1242.88 1103.78 1242.88 1095.06 Q1242.88 1086.31 1245.93 1081.72 Q1249.01 1077.12 1254.82 1077.12 Z" fill="#000000" fill-rule="evenodd" fill-opacity="1" /><path clip-path="url(#clip240)" d="M1303.16 1086.84 L1292.58 1097.47 L1303.16 1108.04 L1300.4 1110.84 L1289.78 1100.22 L1279.15 1110.84 L1276.42 1108.04 L1286.98 1097.47 L1276.42 1086.84 L1279.15 1084.04 L1289.78 1094.66 L1300.4 1084.04 L1303.16 1086.84 Z" fill="#000000" fill-rule="evenodd" fill-opacity="1" /><path clip-path="url(#clip240)" d="M1315.52 1108.37 L1323.16 1108.37 L1323.16 1082 L1314.85 1083.67 L1314.85 1079.41 L1323.11 1077.74 L1327.79 1077.74 L1327.79 1108.37 L1335.42 1108.37 L1335.42 1112.3 L1315.52 1112.3 L1315.52 1108.37 Z" fill="#000000" fill-rule="evenodd" fill-opacity="1" /><path clip-path="url(#clip240)" d="M1354.87 1080.82 Q1351.26 1080.82 1349.43 1084.39 Q1347.62 1087.93 1347.62 1095.06 Q1347.62 1102.16 1349.43 1105.73 Q1351.26 1109.27 1354.87 1109.27 Q1358.5 1109.27 1360.31 1105.73 Q1362.14 1102.16 1362.14 1095.06 Q1362.14 1087.93 1360.31 1084.39 Q1358.5 1080.82 1354.87 1080.82 M1354.87 1077.12 Q1360.68 1077.12 1363.73 1081.72 Q1366.81 1086.31 1366.81 1095.06 Q1366.81 1103.78 1363.73 1108.39 Q1360.68 1112.97 1354.87 1112.97 Q1349.06 1112.97 1345.98 1108.39 Q1342.92 1103.78 1342.92 1095.06 Q1342.92 1086.31 1345.98 1081.72 Q1349.06 1077.12 1354.87 1077.12 Z" fill="#000000" fill-rule="evenodd" fill-opacity="1" /><path clip-path="url(#clip240)" d="M1379.49 1060.12 L1369.9 1075.11 L1379.49 1075.11 L1379.49 1060.12 M1378.49 1056.81 L1383.27 1056.81 L1383.27 1075.11 L1387.28 1075.11 L1387.28 1078.27 L1383.27 1078.27 L1383.27 1084.89 L1379.49 1084.89 L1379.49 1078.27 L1366.81 1078.27 L1366.81 1074.6 L1378.49 1056.81 Z" fill="#000000" fill-rule="evenodd" fill-opacity="1" /><path clip-path="url(#clip240)" d="M1179.43 775.14 Q1176.1 775.14 1174.18 776.922 Q1172.28 778.705 1172.28 781.83 Q1172.28 784.955 1174.18 786.737 Q1176.1 788.519 1179.43 788.519 Q1182.76 788.519 1184.68 786.737 Q1186.61 784.932 1186.61 781.83 Q1186.61 778.705 1184.68 776.922 Q1182.79 775.14 1179.43 775.14 M1174.75 773.149 Q1171.74 772.408 1170.06 770.348 Q1168.39 768.288 1168.39 765.325 Q1168.39 761.182 1171.33 758.774 Q1174.29 756.367 1179.43 756.367 Q1184.59 756.367 1187.53 758.774 Q1190.47 761.182 1190.47 765.325 Q1190.47 768.288 1188.78 770.348 Q1187.12 772.408 1184.13 773.149 Q1187.51 773.936 1189.38 776.228 Q1191.28 778.52 1191.28 781.83 Q1191.28 786.853 1188.2 789.538 Q1185.15 792.223 1179.43 792.223 Q1173.71 792.223 1170.63 789.538 Q1167.58 786.853 1167.58 781.83 Q1167.58 778.52 1169.48 776.228 Q1171.37 773.936 1174.75 773.149 M1173.04 765.765 Q1173.04 768.45 1174.71 769.955 Q1176.4 771.459 1179.43 771.459 Q1182.44 771.459 1184.13 769.955 Q1185.84 768.45 1185.84 765.765 Q1185.84 763.08 1184.13 761.575 Q1182.44 760.071 1179.43 760.071 Q1176.4 760.071 1174.71 761.575 Q1173.04 763.08 1173.04 765.765 Z" fill="#000000" fill-rule="evenodd" fill-opacity="1" /><path clip-path="url(#clip240)" d="M1199.59 785.672 L1204.48 785.672 L1204.48 791.552 L1199.59 791.552 L1199.59 785.672 Z" fill="#000000" fill-rule="evenodd" fill-opacity="1" /><path clip-path="url(#clip240)" d="M1224.66 760.071 Q1221.05 760.071 1219.22 763.635 Q1217.42 767.177 1217.42 774.307 Q1217.42 781.413 1219.22 784.978 Q1221.05 788.519 1224.66 788.519 Q1228.3 788.519 1230.1 784.978 Q1231.93 781.413 1231.93 774.307 Q1231.93 767.177 1230.1 763.635 Q1228.3 760.071 1224.66 760.071 M1224.66 756.367 Q1230.47 756.367 1233.53 760.973 Q1236.61 765.557 1236.61 774.307 Q1236.61 783.033 1233.53 787.64 Q1230.47 792.223 1224.66 792.223 Q1218.85 792.223 1215.77 787.64 Q1212.72 783.033 1212.72 774.307 Q1212.72 765.557 1215.77 760.973 Q1218.85 756.367 1224.66 756.367 Z" fill="#000000" fill-rule="evenodd" fill-opacity="1" /><path clip-path="url(#clip240)" d="M1254.82 760.071 Q1251.21 760.071 1249.38 763.635 Q1247.58 767.177 1247.58 774.307 Q1247.58 781.413 1249.38 784.978 Q1251.21 788.519 1254.82 788.519 Q1258.46 788.519 1260.26 784.978 Q1262.09 781.413 1262.09 774.307 Q1262.09 767.177 1260.26 763.635 Q1258.46 760.071 1254.82 760.071 M1254.82 756.367 Q1260.63 756.367 1263.69 760.973 Q1266.77 765.557 1266.77 774.307 Q1266.77 783.033 1263.69 787.64 Q1260.63 792.223 1254.82 792.223 Q1249.01 792.223 1245.93 787.64 Q1242.88 783.033 1242.88 774.307 Q1242.88 765.557 1245.93 760.973 Q1249.01 756.367 1254.82 756.367 Z" fill="#000000" fill-rule="evenodd" fill-opacity="1" /><path clip-path="url(#clip240)" d="M1303.16 766.089 L1292.58 776.714 L1303.16 787.293 L1300.4 790.094 L1289.78 779.469 L1279.15 790.094 L1276.42 787.293 L1286.98 776.714 L1276.42 766.089 L1279.15 763.288 L1289.78 773.913 L1300.4 763.288 L1303.16 766.089 Z" fill="#000000" fill-rule="evenodd" fill-opacity="1" /><path clip-path="url(#clip240)" d="M1315.52 787.617 L1323.16 787.617 L1323.16 761.251 L1314.85 762.918 L1314.85 758.659 L1323.11 756.992 L1327.79 756.992 L1327.79 787.617 L1335.42 787.617 L1335.42 791.552 L1315.52 791.552 L1315.52 787.617 Z" fill="#000000" fill-rule="evenodd" fill-opacity="1" /><path clip-path="url(#clip240)" d="M1354.87 760.071 Q1351.26 760.071 1349.43 763.635 Q1347.62 767.177 1347.62 774.307 Q1347.62 781.413 1349.43 784.978 Q1351.26 788.519 1354.87 788.519 Q1358.5 788.519 1360.31 784.978 Q1362.14 781.413 1362.14 774.307 Q1362.14 767.177 1360.31 763.635 Q1358.5 760.071 1354.87 760.071 M1354.87 756.367 Q1360.68 756.367 1363.73 760.973 Q1366.81 765.557 1366.81 774.307 Q1366.81 783.033 1363.73 787.64 Q1360.68 792.223 1354.87 792.223 Q1349.06 792.223 1345.98 787.64 Q1342.92 783.033 1342.92 774.307 Q1342.92 765.557 1345.98 760.973 Q1349.06 756.367 1354.87 756.367 Z" fill="#000000" fill-rule="evenodd" fill-opacity="1" /><path clip-path="url(#clip240)" d="M1379.49 739.372 L1369.9 754.361 L1379.49 754.361 L1379.49 739.372 M1378.49 736.061 L1383.27 736.061 L1383.27 754.361 L1387.28 754.361 L1387.28 757.521 L1383.27 757.521 L1383.27 764.141 L1379.49 764.141 L1379.49 757.521 L1366.81 757.521 L1366.81 753.854 L1378.49 736.061 Z" fill="#000000" fill-rule="evenodd" fill-opacity="1" /><path clip-path="url(#clip240)" d="M1172.53 466.866 L1180.17 466.866 L1180.17 440.5 L1171.86 442.167 L1171.86 437.907 L1180.13 436.241 L1184.8 436.241 L1184.8 466.866 L1192.44 466.866 L1192.44 470.801 L1172.53 470.801 L1172.53 466.866 Z" fill="#000000" fill-rule="evenodd" fill-opacity="1" /><path clip-path="url(#clip240)" d="M1201.89 464.921 L1206.77 464.921 L1206.77 470.801 L1201.89 470.801 L1201.89 464.921 Z" fill="#000000" fill-rule="evenodd" fill-opacity="1" /><path clip-path="url(#clip240)" d="M1226.96 439.319 Q1223.34 439.319 1221.52 442.884 Q1219.71 446.426 1219.71 453.555 Q1219.71 460.662 1221.52 464.227 Q1223.34 467.768 1226.96 467.768 Q1230.59 467.768 1232.4 464.227 Q1234.22 460.662 1234.22 453.555 Q1234.22 446.426 1232.4 442.884 Q1230.59 439.319 1226.96 439.319 M1226.96 435.616 Q1232.77 435.616 1235.82 440.222 Q1238.9 444.806 1238.9 453.555 Q1238.9 462.282 1235.82 466.889 Q1232.77 471.472 1226.96 471.472 Q1221.15 471.472 1218.07 466.889 Q1215.01 462.282 1215.01 453.555 Q1215.01 444.806 1218.07 440.222 Q1221.15 435.616 1226.96 435.616 Z" fill="#000000" fill-rule="evenodd" fill-opacity="1" /><path clip-path="url(#clip240)" d="M1257.12 439.319 Q1253.51 439.319 1251.68 442.884 Q1249.87 446.426 1249.87 453.555 Q1249.87 460.662 1251.68 464.227 Q1253.51 467.768 1257.12 467.768 Q1260.75 467.768 1262.56 464.227 Q1264.39 460.662 1264.39 453.555 Q1264.39 446.426 1262.56 442.884 Q1260.75 439.319 1257.12 439.319 M1257.12 435.616 Q1262.93 435.616 1265.98 440.222 Q1269.06 444.806 1269.06 453.555 Q1269.06 462.282 1265.98 466.889 Q1262.93 471.472 1257.12 471.472 Q1251.31 471.472 1248.23 466.889 Q1245.17 462.282 1245.17 453.555 Q1245.17 444.806 1248.23 440.222 Q1251.31 435.616 1257.12 435.616 Z" fill="#000000" fill-rule="evenodd" fill-opacity="1" /><path clip-path="url(#clip240)" d="M1305.45 445.338 L1294.87 455.963 L1305.45 466.542 L1302.7 469.342 L1292.07 458.718 L1281.45 469.342 L1278.71 466.542 L1289.27 455.963 L1278.71 445.338 L1281.45 442.537 L1292.07 453.162 L1302.7 442.537 L1305.45 445.338 Z" fill="#000000" fill-rule="evenodd" fill-opacity="1" /><path clip-path="url(#clip240)" d="M1317.81 466.866 L1325.45 466.866 L1325.45 440.5 L1317.14 442.167 L1317.14 437.907 L1325.4 436.241 L1330.08 436.241 L1330.08 466.866 L1337.72 466.866 L1337.72 470.801 L1317.81 470.801 L1317.81 466.866 Z" fill="#000000" fill-rule="evenodd" fill-opacity="1" /><path clip-path="url(#clip240)" d="M1357.16 439.319 Q1353.55 439.319 1351.72 442.884 Q1349.92 446.426 1349.92 453.555 Q1349.92 460.662 1351.72 464.227 Q1353.55 467.768 1357.16 467.768 Q1360.8 467.768 1362.6 464.227 Q1364.43 460.662 1364.43 453.555 Q1364.43 446.426 1362.6 442.884 Q1360.8 439.319 1357.16 439.319 M1357.16 435.616 Q1362.97 435.616 1366.03 440.222 Q1369.11 444.806 1369.11 453.555 Q1369.11 462.282 1366.03 466.889 Q1362.97 471.472 1357.16 471.472 Q1351.35 471.472 1348.27 466.889 Q1345.22 462.282 1345.22 453.555 Q1345.22 444.806 1348.27 440.222 Q1351.35 435.616 1357.16 435.616 Z" fill="#000000" fill-rule="evenodd" fill-opacity="1" /><path clip-path="url(#clip240)" d="M1370.29 415.31 L1385.21 415.31 L1385.21 418.508 L1373.77 418.508 L1373.77 425.391 Q1374.6 425.109 1375.43 424.978 Q1376.25 424.827 1377.08 424.827 Q1381.78 424.827 1384.53 427.404 Q1387.28 429.98 1387.28 434.381 Q1387.28 438.914 1384.45 441.434 Q1381.63 443.936 1376.5 443.936 Q1374.73 443.936 1372.89 443.635 Q1371.06 443.334 1369.11 442.732 L1369.11 438.914 Q1370.8 439.836 1372.61 440.287 Q1374.41 440.738 1376.42 440.738 Q1379.68 440.738 1381.58 439.027 Q1383.48 437.315 1383.48 434.381 Q1383.48 431.447 1381.58 429.736 Q1379.68 428.024 1376.42 428.024 Q1374.9 428.024 1373.38 428.363 Q1371.87 428.702 1370.29 429.416 L1370.29 415.31 Z" fill="#000000" fill-rule="evenodd" fill-opacity="1" /><path clip-path="url(#clip240)" d="M1172.53 146.115 L1180.17 146.115 L1180.17 119.749 L1171.86 121.416 L1171.86 117.156 L1180.13 115.49 L1184.8 115.49 L1184.8 146.115 L1192.44 146.115 L1192.44 150.05 L1172.53 150.05 L1172.53 146.115 Z" fill="#000000" fill-rule="evenodd" fill-opacity="1" /><path clip-path="url(#clip240)" d="M1201.89 144.17 L1206.77 144.17 L1206.77 150.05 L1201.89 150.05 L1201.89 144.17 Z" fill="#000000" fill-rule="evenodd" fill-opacity="1" /><path clip-path="url(#clip240)" d="M1220.98 146.115 L1237.3 146.115 L1237.3 150.05 L1215.36 150.05 L1215.36 146.115 Q1218.02 143.36 1222.6 138.73 Q1227.21 134.078 1228.39 132.735 Q1230.64 130.212 1231.52 128.476 Q1232.42 126.716 1232.42 125.027 Q1232.42 122.272 1230.47 120.536 Q1228.55 118.8 1225.45 118.8 Q1223.25 118.8 1220.8 119.564 Q1218.37 120.328 1215.59 121.879 L1215.59 117.156 Q1218.41 116.022 1220.87 115.443 Q1223.32 114.865 1225.36 114.865 Q1230.73 114.865 1233.92 117.55 Q1237.12 120.235 1237.12 124.726 Q1237.12 126.855 1236.31 128.777 Q1235.52 130.675 1233.41 133.267 Q1232.84 133.939 1229.73 137.156 Q1226.63 140.351 1220.98 146.115 Z" fill="#000000" fill-rule="evenodd" fill-opacity="1" /><path clip-path="url(#clip240)" d="M1257.12 118.568 Q1253.51 118.568 1251.68 122.133 Q1249.87 125.675 1249.87 132.804 Q1249.87 139.911 1251.68 143.476 Q1253.51 147.017 1257.12 147.017 Q1260.75 147.017 1262.56 143.476 Q1264.39 139.911 1264.39 132.804 Q1264.39 125.675 1262.56 122.133 Q1260.75 118.568 1257.12 118.568 M1257.12 114.865 Q1262.93 114.865 1265.98 119.471 Q1269.06 124.054 1269.06 132.804 Q1269.06 141.531 1265.98 146.138 Q1262.93 150.721 1257.12 150.721 Q1251.31 150.721 1248.23 146.138 Q1245.17 141.531 1245.17 132.804 Q1245.17 124.054 1248.23 119.471 Q1251.31 114.865 1257.12 114.865 Z" fill="#000000" fill-rule="evenodd" fill-opacity="1" /><path clip-path="url(#clip240)" d="M1305.45 124.587 L1294.87 135.212 L1305.45 145.79 L1302.7 148.591 L1292.07 137.966 L1281.45 148.591 L1278.71 145.79 L1289.27 135.212 L1278.71 124.587 L1281.45 121.786 L1292.07 132.411 L1302.7 121.786 L1305.45 124.587 Z" fill="#000000" fill-rule="evenodd" fill-opacity="1" /><path clip-path="url(#clip240)" d="M1317.81 146.115 L1325.45 146.115 L1325.45 119.749 L1317.14 121.416 L1317.14 117.156 L1325.4 115.49 L1330.08 115.49 L1330.08 146.115 L1337.72 146.115 L1337.72 150.05 L1317.81 150.05 L1317.81 146.115 Z" fill="#000000" fill-rule="evenodd" fill-opacity="1" /><path clip-path="url(#clip240)" d="M1357.16 118.568 Q1353.55 118.568 1351.72 122.133 Q1349.92 125.675 1349.92 132.804 Q1349.92 139.911 1351.72 143.476 Q1353.55 147.017 1357.16 147.017 Q1360.8 147.017 1362.6 143.476 Q1364.43 139.911 1364.43 132.804 Q1364.43 125.675 1362.6 122.133 Q1360.8 118.568 1357.16 118.568 M1357.16 114.865 Q1362.97 114.865 1366.03 119.471 Q1369.11 124.054 1369.11 132.804 Q1369.11 141.531 1366.03 146.138 Q1362.97 150.721 1357.16 150.721 Q1351.35 150.721 1348.27 146.138 Q1345.22 141.531 1345.22 132.804 Q1345.22 124.054 1348.27 119.471 Q1351.35 114.865 1357.16 114.865 Z" fill="#000000" fill-rule="evenodd" fill-opacity="1" /><path clip-path="url(#clip240)" d="M1370.29 94.5593 L1385.21 94.5593 L1385.21 97.7566 L1373.77 97.7566 L1373.77 104.64 Q1374.6 104.358 1375.43 104.226 Q1376.25 104.076 1377.08 104.076 Q1381.78 104.076 1384.53 106.653 Q1387.28 109.229 1387.28 113.63 Q1387.28 118.163 1384.45 120.683 Q1381.63 123.185 1376.5 123.185 Q1374.73 123.185 1372.89 122.884 Q1371.06 122.583 1369.11 121.981 L1369.11 118.163 Q1370.8 119.085 1372.61 119.536 Q1374.41 119.987 1376.42 119.987 Q1379.68 119.987 1381.58 118.276 Q1383.48 116.564 1383.48 113.63 Q1383.48 110.696 1381.58 108.985 Q1379.68 107.273 1376.42 107.273 Q1374.9 107.273 1373.38 107.612 Q1371.87 107.95 1370.29 108.665 L1370.29 94.5593 Z" fill="#000000" fill-rule="evenodd" fill-opacity="1" /><circle clip-path="url(#clip243)" cx="1449.58" cy="1419.86" r="14" fill="#ff0000" fill-rule="evenodd" fill-opacity="1" stroke="#000000" stroke-opacity="1" stroke-width="3.2"/>
<circle clip-path="url(#clip243)" cx="1479.82" cy="1309.81" r="14" fill="#ff0000" fill-rule="evenodd" fill-opacity="1" stroke="#000000" stroke-opacity="1" stroke-width="3.2"/>
<circle clip-path="url(#clip243)" cx="1510.06" cy="1445.72" r="14" fill="#ff0000" fill-rule="evenodd" fill-opacity="1" stroke="#000000" stroke-opacity="1" stroke-width="3.2"/>
<circle clip-path="url(#clip243)" cx="1540.29" cy="1352.79" r="14" fill="#ff0000" fill-rule="evenodd" fill-opacity="1" stroke="#000000" stroke-opacity="1" stroke-width="3.2"/>
<circle clip-path="url(#clip243)" cx="1570.53" cy="1411.07" r="14" fill="#ff0000" fill-rule="evenodd" fill-opacity="1" stroke="#000000" stroke-opacity="1" stroke-width="3.2"/>
<circle clip-path="url(#clip243)" cx="1600.77" cy="1142.43" r="14" fill="#ff0000" fill-rule="evenodd" fill-opacity="1" stroke="#000000" stroke-opacity="1" stroke-width="3.2"/>
<circle clip-path="url(#clip243)" cx="1631" cy="1086.17" r="14" fill="#ff0000" fill-rule="evenodd" fill-opacity="1" stroke="#000000" stroke-opacity="1" stroke-width="3.2"/>
<circle clip-path="url(#clip243)" cx="1661.24" cy="1177.66" r="14" fill="#ff0000" fill-rule="evenodd" fill-opacity="1" stroke="#000000" stroke-opacity="1" stroke-width="3.2"/>
<circle clip-path="url(#clip243)" cx="1691.48" cy="1017.29" r="14" fill="#ff0000" fill-rule="evenodd" fill-opacity="1" stroke="#000000" stroke-opacity="1" stroke-width="3.2"/>
<circle clip-path="url(#clip243)" cx="1721.71" cy="1133.66" r="14" fill="#ff0000" fill-rule="evenodd" fill-opacity="1" stroke="#000000" stroke-opacity="1" stroke-width="3.2"/>
<circle clip-path="url(#clip243)" cx="1751.95" cy="1036.97" r="14" fill="#ff0000" fill-rule="evenodd" fill-opacity="1" stroke="#000000" stroke-opacity="1" stroke-width="3.2"/>
<circle clip-path="url(#clip243)" cx="1782.19" cy="1156.03" r="14" fill="#ff0000" fill-rule="evenodd" fill-opacity="1" stroke="#000000" stroke-opacity="1" stroke-width="3.2"/>
<circle clip-path="url(#clip243)" cx="1812.42" cy="1137.38" r="14" fill="#ff0000" fill-rule="evenodd" fill-opacity="1" stroke="#000000" stroke-opacity="1" stroke-width="3.2"/>
<circle clip-path="url(#clip243)" cx="1842.66" cy="1135.39" r="14" fill="#ff0000" fill-rule="evenodd" fill-opacity="1" stroke="#000000" stroke-opacity="1" stroke-width="3.2"/>
<circle clip-path="url(#clip243)" cx="1872.9" cy="1070.76" r="14" fill="#ff0000" fill-rule="evenodd" fill-opacity="1" stroke="#000000" stroke-opacity="1" stroke-width="3.2"/>
<circle clip-path="url(#clip243)" cx="1903.13" cy="961.269" r="14" fill="#ff0000" fill-rule="evenodd" fill-opacity="1" stroke="#000000" stroke-opacity="1" stroke-width="3.2"/>
<circle clip-path="url(#clip243)" cx="1933.37" cy="991.885" r="14" fill="#ff0000" fill-rule="evenodd" fill-opacity="1" stroke="#000000" stroke-opacity="1" stroke-width="3.2"/>
<circle clip-path="url(#clip243)" cx="1963.61" cy="718.3" r="14" fill="#ff0000" fill-rule="evenodd" fill-opacity="1" stroke="#000000" stroke-opacity="1" stroke-width="3.2"/>
<circle clip-path="url(#clip243)" cx="1993.84" cy="745.965" r="14" fill="#ff0000" fill-rule="evenodd" fill-opacity="1" stroke="#000000" stroke-opacity="1" stroke-width="3.2"/>
<circle clip-path="url(#clip243)" cx="2024.08" cy="544.261" r="14" fill="#ff0000" fill-rule="evenodd" fill-opacity="1" stroke="#000000" stroke-opacity="1" stroke-width="3.2"/>
<circle clip-path="url(#clip243)" cx="2054.32" cy="579.575" r="14" fill="#ff0000" fill-rule="evenodd" fill-opacity="1" stroke="#000000" stroke-opacity="1" stroke-width="3.2"/>
<circle clip-path="url(#clip243)" cx="2084.56" cy="474.77" r="14" fill="#ff0000" fill-rule="evenodd" fill-opacity="1" stroke="#000000" stroke-opacity="1" stroke-width="3.2"/>
<circle clip-path="url(#clip243)" cx="2114.79" cy="426.192" r="14" fill="#ff0000" fill-rule="evenodd" fill-opacity="1" stroke="#000000" stroke-opacity="1" stroke-width="3.2"/>
<circle clip-path="url(#clip243)" cx="2145.03" cy="225.562" r="14" fill="#ff0000" fill-rule="evenodd" fill-opacity="1" stroke="#000000" stroke-opacity="1" stroke-width="3.2"/>
<circle clip-path="url(#clip243)" cx="2175.27" cy="295.823" r="14" fill="#ff0000" fill-rule="evenodd" fill-opacity="1" stroke="#000000" stroke-opacity="1" stroke-width="3.2"/>
<circle clip-path="url(#clip243)" cx="2205.5" cy="357.552" r="14" fill="#ff0000" fill-rule="evenodd" fill-opacity="1" stroke="#000000" stroke-opacity="1" stroke-width="3.2"/>
<circle clip-path="url(#clip243)" cx="2235.74" cy="174.932" r="14" fill="#ff0000" fill-rule="evenodd" fill-opacity="1" stroke="#000000" stroke-opacity="1" stroke-width="3.2"/>
<circle clip-path="url(#clip243)" cx="2265.98" cy="244.439" r="14" fill="#ff0000" fill-rule="evenodd" fill-opacity="1" stroke="#000000" stroke-opacity="1" stroke-width="3.2"/>
<circle clip-path="url(#clip243)" cx="2296.21" cy="87.9763" r="14" fill="#ff0000" fill-rule="evenodd" fill-opacity="1" stroke="#000000" stroke-opacity="1" stroke-width="3.2"/>
<circle clip-path="url(#clip243)" cx="2326.45" cy="96.2998" r="14" fill="#ff0000" fill-rule="evenodd" fill-opacity="1" stroke="#000000" stroke-opacity="1" stroke-width="3.2"/>
<path clip-path="url(#clip240)" d="
M1937.4 198.898 L2321.77 198.898 L2321.77 95.2176 L1937.4 95.2176  Z
  " fill="#ffffff" fill-rule="evenodd" fill-opacity="1"/>
<polyline clip-path="url(#clip240)" style="stroke:#000000; stroke-linecap:butt; stroke-linejoin:round; stroke-width:4; stroke-opacity:1; fill:none" points="
  1937.4,198.898 2321.77,198.898 2321.77,95.2176 1937.4,95.2176 1937.4,198.898 
  "/>
<circle clip-path="url(#clip240)" cx="2033.4" cy="147.058" r="23" fill="#ff0000" fill-rule="evenodd" fill-opacity="1" stroke="#000000" stroke-opacity="1" stroke-width="5.12"/>
<path clip-path="url(#clip240)" d="M2151.64 130.912 L2151.64 135.472 Q2148.98 134.199 2146.62 133.574 Q2144.26 132.949 2142.06 132.949 Q2138.24 132.949 2136.16 134.43 Q2134.1 135.912 2134.1 138.643 Q2134.1 140.935 2135.46 142.115 Q2136.85 143.273 2140.7 143.99 L2143.52 144.569 Q2148.75 145.565 2151.23 148.088 Q2153.73 150.588 2153.73 154.801 Q2153.73 159.824 2150.35 162.416 Q2146.99 165.009 2140.49 165.009 Q2138.03 165.009 2135.26 164.453 Q2132.5 163.898 2129.54 162.81 L2129.54 157.995 Q2132.39 159.592 2135.12 160.402 Q2137.85 161.213 2140.49 161.213 Q2144.49 161.213 2146.67 159.639 Q2148.84 158.064 2148.84 155.148 Q2148.84 152.602 2147.27 151.166 Q2145.72 149.731 2142.15 149.014 L2139.31 148.458 Q2134.07 147.416 2131.74 145.194 Q2129.4 142.972 2129.4 139.014 Q2129.4 134.43 2132.62 131.791 Q2135.86 129.153 2141.53 129.153 Q2143.96 129.153 2146.48 129.592 Q2149.01 130.032 2151.64 130.912 Z" fill="#000000" fill-rule="evenodd" fill-opacity="1" /><path clip-path="url(#clip240)" d="M2172.62 151.305 Q2167.45 151.305 2165.46 152.486 Q2163.47 153.666 2163.47 156.514 Q2163.47 158.782 2164.95 160.125 Q2166.46 161.444 2169.03 161.444 Q2172.57 161.444 2174.7 158.944 Q2176.85 156.421 2176.85 152.254 L2176.85 151.305 L2172.62 151.305 M2181.11 149.546 L2181.11 164.338 L2176.85 164.338 L2176.85 160.402 Q2175.39 162.763 2173.22 163.898 Q2171.04 165.009 2167.89 165.009 Q2163.91 165.009 2161.55 162.787 Q2159.21 160.541 2159.21 156.791 Q2159.21 152.416 2162.13 150.194 Q2165.07 147.972 2170.88 147.972 L2176.85 147.972 L2176.85 147.555 Q2176.85 144.615 2174.91 143.018 Q2172.99 141.398 2169.49 141.398 Q2167.27 141.398 2165.16 141.93 Q2163.06 142.463 2161.11 143.527 L2161.11 139.592 Q2163.45 138.69 2165.65 138.25 Q2167.85 137.787 2169.93 137.787 Q2175.56 137.787 2178.33 140.703 Q2181.11 143.62 2181.11 149.546 Z" fill="#000000" fill-rule="evenodd" fill-opacity="1" /><path clip-path="url(#clip240)" d="M2189.88 128.319 L2194.14 128.319 L2194.14 164.338 L2189.88 164.338 L2189.88 128.319 Z" fill="#000000" fill-rule="evenodd" fill-opacity="1" /><path clip-path="url(#clip240)" d="M2214.84 151.305 Q2209.68 151.305 2207.69 152.486 Q2205.69 153.666 2205.69 156.514 Q2205.69 158.782 2207.18 160.125 Q2208.68 161.444 2211.25 161.444 Q2214.79 161.444 2216.92 158.944 Q2219.07 156.421 2219.07 152.254 L2219.07 151.305 L2214.84 151.305 M2223.33 149.546 L2223.33 164.338 L2219.07 164.338 L2219.07 160.402 Q2217.62 162.763 2215.44 163.898 Q2213.26 165.009 2210.12 165.009 Q2206.13 165.009 2203.77 162.787 Q2201.44 160.541 2201.44 156.791 Q2201.44 152.416 2204.35 150.194 Q2207.29 147.972 2213.1 147.972 L2219.07 147.972 L2219.07 147.555 Q2219.07 144.615 2217.13 143.018 Q2215.21 141.398 2211.71 141.398 Q2209.49 141.398 2207.38 141.93 Q2205.28 142.463 2203.33 143.527 L2203.33 139.592 Q2205.67 138.69 2207.87 138.25 Q2210.07 137.787 2212.15 137.787 Q2217.78 137.787 2220.56 140.703 Q2223.33 143.62 2223.33 149.546 Z" fill="#000000" fill-rule="evenodd" fill-opacity="1" /><path clip-path="url(#clip240)" d="M2247.13 142.393 Q2246.41 141.977 2245.56 141.791 Q2244.72 141.583 2243.7 141.583 Q2240.09 141.583 2238.15 143.944 Q2236.23 146.282 2236.23 150.68 L2236.23 164.338 L2231.94 164.338 L2231.94 138.412 L2236.23 138.412 L2236.23 142.44 Q2237.57 140.078 2239.72 138.944 Q2241.88 137.787 2244.95 137.787 Q2245.39 137.787 2245.93 137.856 Q2246.46 137.903 2247.11 138.018 L2247.13 142.393 Z" fill="#000000" fill-rule="evenodd" fill-opacity="1" /><path clip-path="url(#clip240)" d="M2262.38 166.745 Q2260.58 171.375 2258.87 172.787 Q2257.15 174.199 2254.28 174.199 L2250.88 174.199 L2250.88 170.634 L2253.38 170.634 Q2255.14 170.634 2256.11 169.8 Q2257.08 168.967 2258.26 165.865 L2259.03 163.921 L2248.54 138.412 L2253.06 138.412 L2261.16 158.689 L2269.26 138.412 L2273.77 138.412 L2262.38 166.745 Z" fill="#000000" fill-rule="evenodd" fill-opacity="1" /></svg>
