<?xml version="1.0" encoding="utf-8"?>
<svg xmlns="http://www.w3.org/2000/svg" xmlns:xlink="http://www.w3.org/1999/xlink" width="600" height="400" viewBox="0 0 2400 1600">
<defs>
  <clipPath id="clip540">
    <rect x="0" y="0" width="2400" height="1600"/>
  </clipPath>
</defs>
<path clip-path="url(#clip540)" d="
M0 1600 L2400 1600 L2400 0 L0 0  Z
  " fill="#ffffff" fill-rule="evenodd" fill-opacity="1"/>
<defs>
  <clipPath id="clip541">
    <rect x="480" y="0" width="1681" height="1600"/>
  </clipPath>
</defs>
<path clip-path="url(#clip540)" d="
M219.033 1423.18 L2352.76 1423.18 L2352.76 47.2441 L219.033 47.2441  Z
  " fill="#ffffff" fill-rule="evenodd" fill-opacity="1"/>
<defs>
  <clipPath id="clip542">
    <rect x="219" y="47" width="2135" height="1377"/>
  </clipPath>
</defs>
<polyline clip-path="url(#clip542)" style="stroke:#000000; stroke-linecap:butt; stroke-linejoin:round; stroke-width:2; stroke-opacity:0.1; fill:none" points="
  279.421,1423.18 279.421,47.2441 
  "/>
<polyline clip-path="url(#clip542)" style="stroke:#000000; stroke-linecap:butt; stroke-linejoin:round; stroke-width:2; stroke-opacity:0.1; fill:none" points="
  620.599,1423.18 620.599,47.2441 
  "/>
<polyline clip-path="url(#clip542)" style="stroke:#000000; stroke-linecap:butt; stroke-linejoin:round; stroke-width:2; stroke-opacity:0.1; fill:none" points="
  961.776,1423.18 961.776,47.2441 
  "/>
<polyline clip-path="url(#clip542)" style="stroke:#000000; stroke-linecap:butt; stroke-linejoin:round; stroke-width:2; stroke-opacity:0.1; fill:none" points="
  1302.95,1423.18 1302.95,47.2441 
  "/>
<polyline clip-path="url(#clip542)" style="stroke:#000000; stroke-linecap:butt; stroke-linejoin:round; stroke-width:2; stroke-opacity:0.1; fill:none" points="
  1644.13,1423.18 1644.13,47.2441 
  "/>
<polyline clip-path="url(#clip542)" style="stroke:#000000; stroke-linecap:butt; stroke-linejoin:round; stroke-width:2; stroke-opacity:0.1; fill:none" points="
  1985.31,1423.18 1985.31,47.2441 
  "/>
<polyline clip-path="url(#clip542)" style="stroke:#000000; stroke-linecap:butt; stroke-linejoin:round; stroke-width:2; stroke-opacity:0.1; fill:none" points="
  2326.49,1423.18 2326.49,47.2441 
  "/>
<polyline clip-path="url(#clip540)" style="stroke:#000000; stroke-linecap:butt; stroke-linejoin:round; stroke-width:4; stroke-opacity:1; fill:none" points="
  219.033,1423.18 2352.76,1423.18 
  "/>
<polyline clip-path="url(#clip540)" style="stroke:#000000; stroke-linecap:butt; stroke-linejoin:round; stroke-width:4; stroke-opacity:1; fill:none" points="
  279.421,1423.18 279.421,1404.28 
  "/>
<polyline clip-path="url(#clip540)" style="stroke:#000000; stroke-linecap:butt; stroke-linejoin:round; stroke-width:4; stroke-opacity:1; fill:none" points="
  620.599,1423.18 620.599,1404.28 
  "/>
<polyline clip-path="url(#clip540)" style="stroke:#000000; stroke-linecap:butt; stroke-linejoin:round; stroke-width:4; stroke-opacity:1; fill:none" points="
  961.776,1423.18 961.776,1404.28 
  "/>
<polyline clip-path="url(#clip540)" style="stroke:#000000; stroke-linecap:butt; stroke-linejoin:round; stroke-width:4; stroke-opacity:1; fill:none" points="
  1302.95,1423.18 1302.95,1404.28 
  "/>
<polyline clip-path="url(#clip540)" style="stroke:#000000; stroke-linecap:butt; stroke-linejoin:round; stroke-width:4; stroke-opacity:1; fill:none" points="
  1644.13,1423.18 1644.13,1404.28 
  "/>
<polyline clip-path="url(#clip540)" style="stroke:#000000; stroke-linecap:butt; stroke-linejoin:round; stroke-width:4; stroke-opacity:1; fill:none" points="
  1985.31,1423.18 1985.31,1404.28 
  "/>
<polyline clip-path="url(#clip540)" style="stroke:#000000; stroke-linecap:butt; stroke-linejoin:round; stroke-width:4; stroke-opacity:1; fill:none" points="
  2326.49,1423.18 2326.49,1404.28 
  "/>
<path clip-path="url(#clip540)" d="M269.803 1481.64 L277.442 1481.64 L277.442 1455.28 L269.132 1456.95 L269.132 1452.69 L277.396 1451.02 L282.072 1451.02 L282.072 1481.64 L289.711 1481.64 L289.711 1485.58 L269.803 1485.58 L269.803 1481.64 Z" fill="#000000" fill-rule="evenodd" fill-opacity="1" /><path clip-path="url(#clip540)" d="M615.251 1481.64 L631.571 1481.64 L631.571 1485.58 L609.626 1485.58 L609.626 1481.64 Q612.289 1478.89 616.872 1474.26 Q621.478 1469.61 622.659 1468.27 Q624.904 1465.74 625.784 1464.01 Q626.687 1462.25 626.687 1460.56 Q626.687 1457.8 624.742 1456.07 Q622.821 1454.33 619.719 1454.33 Q617.52 1454.33 615.066 1455.09 Q612.636 1455.86 609.858 1457.41 L609.858 1452.69 Q612.682 1451.55 615.136 1450.97 Q617.589 1450.39 619.626 1450.39 Q624.997 1450.39 628.191 1453.08 Q631.386 1455.77 631.386 1460.26 Q631.386 1462.39 630.575 1464.31 Q629.788 1466.2 627.682 1468.8 Q627.103 1469.47 624.001 1472.69 Q620.9 1475.88 615.251 1481.64 Z" fill="#000000" fill-rule="evenodd" fill-opacity="1" /><path clip-path="url(#clip540)" d="M966.024 1466.95 Q969.38 1467.66 971.255 1469.93 Q973.153 1472.2 973.153 1475.53 Q973.153 1480.65 969.635 1483.45 Q966.116 1486.25 959.635 1486.25 Q957.459 1486.25 955.144 1485.81 Q952.852 1485.39 950.399 1484.54 L950.399 1480.02 Q952.343 1481.16 954.658 1481.74 Q956.973 1482.32 959.496 1482.32 Q963.894 1482.32 966.186 1480.58 Q968.5 1478.84 968.5 1475.53 Q968.5 1472.48 966.348 1470.77 Q964.218 1469.03 960.399 1469.03 L956.371 1469.03 L956.371 1465.19 L960.584 1465.19 Q964.033 1465.19 965.862 1463.82 Q967.69 1462.43 967.69 1459.84 Q967.69 1457.18 965.792 1455.77 Q963.917 1454.33 960.399 1454.33 Q958.477 1454.33 956.278 1454.75 Q954.079 1455.16 951.44 1456.04 L951.44 1451.88 Q954.102 1451.14 956.417 1450.77 Q958.755 1450.39 960.815 1450.39 Q966.139 1450.39 969.241 1452.83 Q972.343 1455.23 972.343 1459.35 Q972.343 1462.22 970.7 1464.21 Q969.056 1466.18 966.024 1466.95 Z" fill="#000000" fill-rule="evenodd" fill-opacity="1" /><path clip-path="url(#clip540)" d="M1305.96 1455.09 L1294.16 1473.54 L1305.96 1473.54 L1305.96 1455.09 M1304.74 1451.02 L1310.62 1451.02 L1310.62 1473.54 L1315.55 1473.54 L1315.55 1477.43 L1310.62 1477.43 L1310.62 1485.58 L1305.96 1485.58 L1305.96 1477.43 L1290.36 1477.43 L1290.36 1472.92 L1304.74 1451.02 Z" fill="#000000" fill-rule="evenodd" fill-opacity="1" /><path clip-path="url(#clip540)" d="M1634.41 1451.02 L1652.76 1451.02 L1652.76 1454.96 L1638.69 1454.96 L1638.69 1463.43 Q1639.71 1463.08 1640.73 1462.92 Q1641.75 1462.73 1642.76 1462.73 Q1648.55 1462.73 1651.93 1465.9 Q1655.31 1469.08 1655.31 1474.49 Q1655.31 1480.07 1651.84 1483.17 Q1648.37 1486.25 1642.05 1486.25 Q1639.87 1486.25 1637.6 1485.88 Q1635.36 1485.51 1632.95 1484.77 L1632.95 1480.07 Q1635.03 1481.2 1637.26 1481.76 Q1639.48 1482.32 1641.95 1482.32 Q1645.96 1482.32 1648.3 1480.21 Q1650.64 1478.1 1650.64 1474.49 Q1650.64 1470.88 1648.3 1468.77 Q1645.96 1466.67 1641.95 1466.67 Q1640.08 1466.67 1638.2 1467.08 Q1636.35 1467.5 1634.41 1468.38 L1634.41 1451.02 Z" fill="#000000" fill-rule="evenodd" fill-opacity="1" /><path clip-path="url(#clip540)" d="M1985.71 1466.44 Q1982.56 1466.44 1980.71 1468.59 Q1978.88 1470.74 1978.88 1474.49 Q1978.88 1478.22 1980.71 1480.39 Q1982.56 1482.55 1985.71 1482.55 Q1988.86 1482.55 1990.69 1480.39 Q1992.54 1478.22 1992.54 1474.49 Q1992.54 1470.74 1990.69 1468.59 Q1988.86 1466.44 1985.71 1466.44 M1995 1451.78 L1995 1456.04 Q1993.24 1455.21 1991.43 1454.77 Q1989.65 1454.33 1987.89 1454.33 Q1983.26 1454.33 1980.81 1457.45 Q1978.38 1460.58 1978.03 1466.9 Q1979.39 1464.89 1981.45 1463.82 Q1983.51 1462.73 1985.99 1462.73 Q1991.2 1462.73 1994.21 1465.9 Q1997.24 1469.05 1997.24 1474.49 Q1997.24 1479.82 1994.09 1483.03 Q1990.94 1486.25 1985.71 1486.25 Q1979.72 1486.25 1976.55 1481.67 Q1973.38 1477.06 1973.38 1468.33 Q1973.38 1460.14 1977.26 1455.28 Q1981.15 1450.39 1987.7 1450.39 Q1989.46 1450.39 1991.25 1450.74 Q1993.05 1451.09 1995 1451.78 Z" fill="#000000" fill-rule="evenodd" fill-opacity="1" /><path clip-path="url(#clip540)" d="M2315.37 1451.02 L2337.6 1451.02 L2337.6 1453.01 L2325.05 1485.58 L2320.17 1485.58 L2331.97 1454.96 L2315.37 1454.96 L2315.37 1451.02 Z" fill="#000000" fill-rule="evenodd" fill-opacity="1" /><path clip-path="url(#clip540)" d="M1105.52 1525.81 L1105.52 1543.66 L1113.61 1543.66 Q1118.09 1543.66 1120.55 1541.34 Q1123 1539.02 1123 1534.72 Q1123 1530.45 1120.55 1528.13 Q1118.09 1525.81 1113.61 1525.81 L1105.52 1525.81 M1099.09 1520.52 L1113.61 1520.52 Q1121.6 1520.52 1125.67 1524.15 Q1129.78 1527.75 1129.78 1534.72 Q1129.78 1541.75 1125.67 1545.35 Q1121.6 1548.95 1113.61 1548.95 L1105.52 1548.95 L1105.52 1568.04 L1099.09 1568.04 L1099.09 1520.52 Z" fill="#000000" fill-rule="evenodd" fill-opacity="1" /><path clip-path="url(#clip540)" d="M1166.31 1548.76 L1166.31 1551.62 L1139.39 1551.62 Q1139.77 1557.67 1143.02 1560.85 Q1146.29 1564 1152.12 1564 Q1155.49 1564 1158.64 1563.17 Q1161.83 1562.35 1164.95 1560.69 L1164.95 1566.23 Q1161.79 1567.57 1158.48 1568.27 Q1155.17 1568.97 1151.77 1568.97 Q1143.24 1568.97 1138.24 1564 Q1133.28 1559.04 1133.28 1550.57 Q1133.28 1541.82 1137.99 1536.69 Q1142.73 1531.54 1150.75 1531.54 Q1157.94 1531.54 1162.11 1536.18 Q1166.31 1540.8 1166.31 1548.76 M1160.46 1547.04 Q1160.39 1542.23 1157.75 1539.37 Q1155.14 1536.5 1150.81 1536.5 Q1145.91 1536.5 1142.95 1539.27 Q1140.02 1542.04 1139.58 1547.07 L1160.46 1547.04 Z" fill="#000000" fill-rule="evenodd" fill-opacity="1" /><path clip-path="url(#clip540)" d="M1181.72 1522.27 L1181.72 1532.4 L1193.78 1532.4 L1193.78 1536.95 L1181.72 1536.95 L1181.72 1556.3 Q1181.72 1560.66 1182.9 1561.9 Q1184.11 1563.14 1187.77 1563.14 L1193.78 1563.14 L1193.78 1568.04 L1187.77 1568.04 Q1180.99 1568.04 1178.41 1565.53 Q1175.83 1562.98 1175.83 1556.3 L1175.83 1536.95 L1171.53 1536.95 L1171.53 1532.4 L1175.83 1532.4 L1175.83 1522.27 L1181.72 1522.27 Z" fill="#000000" fill-rule="evenodd" fill-opacity="1" /><path clip-path="url(#clip540)" d="M1217.69 1550.12 Q1210.59 1550.12 1207.85 1551.75 Q1205.11 1553.37 1205.11 1557.29 Q1205.11 1560.4 1207.15 1562.25 Q1209.22 1564.07 1212.75 1564.07 Q1217.62 1564.07 1220.55 1560.63 Q1223.51 1557.16 1223.51 1551.43 L1223.51 1550.12 L1217.69 1550.12 M1229.37 1547.71 L1229.37 1568.04 L1223.51 1568.04 L1223.51 1562.63 Q1221.51 1565.88 1218.51 1567.44 Q1215.52 1568.97 1211.19 1568.97 Q1205.72 1568.97 1202.47 1565.91 Q1199.26 1562.82 1199.26 1557.67 Q1199.26 1551.65 1203.27 1548.6 Q1207.31 1545.54 1215.3 1545.54 L1223.51 1545.54 L1223.51 1544.97 Q1223.51 1540.93 1220.84 1538.73 Q1218.2 1536.5 1213.39 1536.5 Q1210.33 1536.5 1207.44 1537.23 Q1204.54 1537.97 1201.87 1539.43 L1201.87 1534.02 Q1205.08 1532.78 1208.11 1532.17 Q1211.13 1531.54 1213.99 1531.54 Q1221.73 1531.54 1225.55 1535.55 Q1229.37 1539.56 1229.37 1547.71 Z" fill="#000000" fill-rule="evenodd" fill-opacity="1" /><path clip-path="url(#clip540)" d="M1241.43 1518.52 L1247.29 1518.52 L1247.29 1568.04 L1241.43 1568.04 L1241.43 1518.52 Z" fill="#000000" fill-rule="evenodd" fill-opacity="1" /><path clip-path="url(#clip540)" d="M1259.8 1520.52 L1266.22 1520.52 L1266.22 1562.63 L1289.36 1562.63 L1289.36 1568.04 L1259.8 1568.04 L1259.8 1520.52 Z" fill="#000000" fill-rule="evenodd" fill-opacity="1" /><path clip-path="url(#clip540)" d="M1325.2 1548.76 L1325.2 1551.62 L1298.28 1551.62 Q1298.66 1557.67 1301.9 1560.85 Q1305.18 1564 1311.01 1564 Q1314.38 1564 1317.53 1563.17 Q1320.71 1562.35 1323.83 1560.69 L1323.83 1566.23 Q1320.68 1567.57 1317.37 1568.27 Q1314.06 1568.97 1310.66 1568.97 Q1302.13 1568.97 1297.13 1564 Q1292.16 1559.04 1292.16 1550.57 Q1292.16 1541.82 1296.88 1536.69 Q1301.62 1531.54 1309.64 1531.54 Q1316.83 1531.54 1321 1536.18 Q1325.2 1540.8 1325.2 1548.76 M1319.35 1547.04 Q1319.28 1542.23 1316.64 1539.37 Q1314.03 1536.5 1309.7 1536.5 Q1304.8 1536.5 1301.84 1539.27 Q1298.91 1542.04 1298.47 1547.07 L1319.35 1547.04 Z" fill="#000000" fill-rule="evenodd" fill-opacity="1" /><path clip-path="url(#clip540)" d="M1364.45 1546.53 L1364.45 1568.04 L1358.59 1568.04 L1358.59 1546.72 Q1358.59 1541.66 1356.62 1539.14 Q1354.64 1536.63 1350.7 1536.63 Q1345.95 1536.63 1343.22 1539.65 Q1340.48 1542.68 1340.48 1547.9 L1340.48 1568.04 L1334.59 1568.04 L1334.59 1532.4 L1340.48 1532.4 L1340.48 1537.93 Q1342.58 1534.72 1345.41 1533.13 Q1348.28 1531.54 1352 1531.54 Q1358.15 1531.54 1361.3 1535.36 Q1364.45 1539.14 1364.45 1546.53 Z" fill="#000000" fill-rule="evenodd" fill-opacity="1" /><path clip-path="url(#clip540)" d="M1399.59 1549.81 Q1399.59 1543.44 1396.94 1539.94 Q1394.33 1536.44 1389.59 1536.44 Q1384.88 1536.44 1382.24 1539.94 Q1379.63 1543.44 1379.63 1549.81 Q1379.63 1556.14 1382.24 1559.64 Q1384.88 1563.14 1389.59 1563.14 Q1394.33 1563.14 1396.94 1559.64 Q1399.59 1556.14 1399.59 1549.81 M1405.44 1563.62 Q1405.44 1572.72 1401.4 1577.15 Q1397.36 1581.6 1389.02 1581.6 Q1385.93 1581.6 1383.19 1581.13 Q1380.46 1580.68 1377.88 1579.72 L1377.88 1574.03 Q1380.46 1575.43 1382.97 1576.1 Q1385.49 1576.76 1388.1 1576.76 Q1393.86 1576.76 1396.72 1573.74 Q1399.59 1570.75 1399.59 1564.67 L1399.59 1561.77 Q1397.77 1564.92 1394.94 1566.48 Q1392.11 1568.04 1388.16 1568.04 Q1381.6 1568.04 1377.59 1563.05 Q1373.58 1558.05 1373.58 1549.81 Q1373.58 1541.53 1377.59 1536.53 Q1381.6 1531.54 1388.16 1531.54 Q1392.11 1531.54 1394.94 1533.1 Q1397.77 1534.66 1399.59 1537.81 L1399.59 1532.4 L1405.44 1532.4 L1405.44 1563.62 Z" fill="#000000" fill-rule="evenodd" fill-opacity="1" /><path clip-path="url(#clip540)" d="M1423.3 1522.27 L1423.3 1532.4 L1435.36 1532.4 L1435.36 1536.95 L1423.3 1536.95 L1423.3 1556.3 Q1423.3 1560.66 1424.48 1561.9 Q1425.69 1563.14 1429.35 1563.14 L1435.36 1563.14 L1435.36 1568.04 L1429.35 1568.04 Q1422.57 1568.04 1419.99 1565.53 Q1417.41 1562.98 1417.41 1556.3 L1417.41 1536.95 L1413.11 1536.95 L1413.11 1532.4 L1417.41 1532.4 L1417.41 1522.27 L1423.3 1522.27 Z" fill="#000000" fill-rule="evenodd" fill-opacity="1" /><path clip-path="url(#clip540)" d="M1472.7 1546.53 L1472.7 1568.04 L1466.84 1568.04 L1466.84 1546.72 Q1466.84 1541.66 1464.87 1539.14 Q1462.89 1536.63 1458.95 1536.63 Q1454.2 1536.63 1451.47 1539.65 Q1448.73 1542.68 1448.73 1547.9 L1448.73 1568.04 L1442.84 1568.04 L1442.84 1518.52 L1448.73 1518.52 L1448.73 1537.93 Q1450.83 1534.72 1453.66 1533.13 Q1456.53 1531.54 1460.25 1531.54 Q1466.39 1531.54 1469.55 1535.36 Q1472.7 1539.14 1472.7 1546.53 Z" fill="#000000" fill-rule="evenodd" fill-opacity="1" /><polyline clip-path="url(#clip542)" style="stroke:#000000; stroke-linecap:butt; stroke-linejoin:round; stroke-width:2; stroke-opacity:0.1; fill:none" points="
  219.033,1167.9 2352.76,1167.9 
  "/>
<polyline clip-path="url(#clip542)" style="stroke:#000000; stroke-linecap:butt; stroke-linejoin:round; stroke-width:2; stroke-opacity:0.1; fill:none" points="
  219.033,897.469 2352.76,897.469 
  "/>
<polyline clip-path="url(#clip542)" style="stroke:#000000; stroke-linecap:butt; stroke-linejoin:round; stroke-width:2; stroke-opacity:0.1; fill:none" points="
  219.033,627.041 2352.76,627.041 
  "/>
<polyline clip-path="url(#clip542)" style="stroke:#000000; stroke-linecap:butt; stroke-linejoin:round; stroke-width:2; stroke-opacity:0.1; fill:none" points="
  219.033,356.613 2352.76,356.613 
  "/>
<polyline clip-path="url(#clip542)" style="stroke:#000000; stroke-linecap:butt; stroke-linejoin:round; stroke-width:2; stroke-opacity:0.1; fill:none" points="
  219.033,86.1857 2352.76,86.1857 
  "/>
<polyline clip-path="url(#clip540)" style="stroke:#000000; stroke-linecap:butt; stroke-linejoin:round; stroke-width:4; stroke-opacity:1; fill:none" points="
  219.033,1423.18 219.033,47.2441 
  "/>
<polyline clip-path="url(#clip540)" style="stroke:#000000; stroke-linecap:butt; stroke-linejoin:round; stroke-width:4; stroke-opacity:1; fill:none" points="
  219.033,1167.9 237.931,1167.9 
  "/>
<polyline clip-path="url(#clip540)" style="stroke:#000000; stroke-linecap:butt; stroke-linejoin:round; stroke-width:4; stroke-opacity:1; fill:none" points="
  219.033,897.469 237.931,897.469 
  "/>
<polyline clip-path="url(#clip540)" style="stroke:#000000; stroke-linecap:butt; stroke-linejoin:round; stroke-width:4; stroke-opacity:1; fill:none" points="
  219.033,627.041 237.931,627.041 
  "/>
<polyline clip-path="url(#clip540)" style="stroke:#000000; stroke-linecap:butt; stroke-linejoin:round; stroke-width:4; stroke-opacity:1; fill:none" points="
  219.033,356.613 237.931,356.613 
  "/>
<polyline clip-path="url(#clip540)" style="stroke:#000000; stroke-linecap:butt; stroke-linejoin:round; stroke-width:4; stroke-opacity:1; fill:none" points="
  219.033,86.1857 237.931,86.1857 
  "/>
<path clip-path="url(#clip540)" d="M126.853 1153.69 Q123.242 1153.69 121.413 1157.26 Q119.607 1160.8 119.607 1167.93 Q119.607 1175.04 121.413 1178.6 Q123.242 1182.14 126.853 1182.14 Q130.487 1182.14 132.292 1178.6 Q134.121 1175.04 134.121 1167.93 Q134.121 1160.8 132.292 1157.26 Q130.487 1153.69 126.853 1153.69 M126.853 1149.99 Q132.663 1149.99 135.718 1154.6 Q138.797 1159.18 138.797 1167.93 Q138.797 1176.66 135.718 1181.26 Q132.663 1185.85 126.853 1185.85 Q121.043 1185.85 117.964 1181.26 Q114.908 1176.66 114.908 1167.93 Q114.908 1159.18 117.964 1154.6 Q121.043 1149.99 126.853 1149.99 Z" fill="#000000" fill-rule="evenodd" fill-opacity="1" /><path clip-path="url(#clip540)" d="M147.015 1179.3 L151.899 1179.3 L151.899 1185.18 L147.015 1185.18 L147.015 1179.3 Z" fill="#000000" fill-rule="evenodd" fill-opacity="1" /><path clip-path="url(#clip540)" d="M162.13 1150.62 L180.487 1150.62 L180.487 1154.55 L166.413 1154.55 L166.413 1163.02 Q167.431 1162.68 168.45 1162.51 Q169.468 1162.33 170.487 1162.33 Q176.274 1162.33 179.653 1165.5 Q183.033 1168.67 183.033 1174.09 Q183.033 1179.67 179.561 1182.77 Q176.089 1185.85 169.769 1185.85 Q167.593 1185.85 165.325 1185.48 Q163.079 1185.11 160.672 1184.37 L160.672 1179.67 Q162.755 1180.8 164.977 1181.36 Q167.2 1181.91 169.677 1181.91 Q173.681 1181.91 176.019 1179.81 Q178.357 1177.7 178.357 1174.09 Q178.357 1170.48 176.019 1168.37 Q173.681 1166.26 169.677 1166.26 Q167.802 1166.26 165.927 1166.68 Q164.075 1167.1 162.13 1167.98 L162.13 1150.62 Z" fill="#000000" fill-rule="evenodd" fill-opacity="1" /><path clip-path="url(#clip540)" d="M116.668 910.813 L124.306 910.813 L124.306 884.448 L115.996 886.114 L115.996 881.855 L124.26 880.189 L128.936 880.189 L128.936 910.813 L136.575 910.813 L136.575 914.749 L116.668 914.749 L116.668 910.813 Z" fill="#000000" fill-rule="evenodd" fill-opacity="1" /><path clip-path="url(#clip540)" d="M146.019 908.869 L150.903 908.869 L150.903 914.749 L146.019 914.749 L146.019 908.869 Z" fill="#000000" fill-rule="evenodd" fill-opacity="1" /><path clip-path="url(#clip540)" d="M171.089 883.267 Q167.477 883.267 165.649 886.832 Q163.843 890.374 163.843 897.503 Q163.843 904.61 165.649 908.175 Q167.477 911.716 171.089 911.716 Q174.723 911.716 176.528 908.175 Q178.357 904.61 178.357 897.503 Q178.357 890.374 176.528 886.832 Q174.723 883.267 171.089 883.267 M171.089 879.564 Q176.899 879.564 179.954 884.17 Q183.033 888.753 183.033 897.503 Q183.033 906.23 179.954 910.837 Q176.899 915.42 171.089 915.42 Q165.278 915.42 162.2 910.837 Q159.144 906.23 159.144 897.503 Q159.144 888.753 162.2 884.17 Q165.278 879.564 171.089 879.564 Z" fill="#000000" fill-rule="evenodd" fill-opacity="1" /><path clip-path="url(#clip540)" d="M117.663 640.386 L125.302 640.386 L125.302 614.02 L116.992 615.687 L116.992 611.428 L125.255 609.761 L129.931 609.761 L129.931 640.386 L137.57 640.386 L137.57 644.321 L117.663 644.321 L117.663 640.386 Z" fill="#000000" fill-rule="evenodd" fill-opacity="1" /><path clip-path="url(#clip540)" d="M147.015 638.441 L151.899 638.441 L151.899 644.321 L147.015 644.321 L147.015 638.441 Z" fill="#000000" fill-rule="evenodd" fill-opacity="1" /><path clip-path="url(#clip540)" d="M162.13 609.761 L180.487 609.761 L180.487 613.696 L166.413 613.696 L166.413 622.168 Q167.431 621.821 168.45 621.659 Q169.468 621.474 170.487 621.474 Q176.274 621.474 179.653 624.645 Q183.033 627.816 183.033 633.233 Q183.033 638.812 179.561 641.914 Q176.089 644.992 169.769 644.992 Q167.593 644.992 165.325 644.622 Q163.079 644.251 160.672 643.511 L160.672 638.812 Q162.755 639.946 164.977 640.501 Q167.2 641.057 169.677 641.057 Q173.681 641.057 176.019 638.951 Q178.357 636.844 178.357 633.233 Q178.357 629.622 176.019 627.515 Q173.681 625.409 169.677 625.409 Q167.802 625.409 165.927 625.826 Q164.075 626.242 162.13 627.122 L162.13 609.761 Z" fill="#000000" fill-rule="evenodd" fill-opacity="1" /><path clip-path="url(#clip540)" d="M119.885 369.958 L136.204 369.958 L136.204 373.893 L114.26 373.893 L114.26 369.958 Q116.922 367.204 121.505 362.574 Q126.112 357.921 127.292 356.579 Q129.538 354.055 130.417 352.319 Q131.32 350.56 131.32 348.87 Q131.32 346.116 129.376 344.38 Q127.455 342.643 124.353 342.643 Q122.154 342.643 119.7 343.407 Q117.269 344.171 114.492 345.722 L114.492 341 Q117.316 339.866 119.769 339.287 Q122.223 338.708 124.26 338.708 Q129.63 338.708 132.825 341.393 Q136.019 344.079 136.019 348.569 Q136.019 350.699 135.209 352.62 Q134.422 354.518 132.316 357.111 Q131.737 357.782 128.635 361 Q125.533 364.194 119.885 369.958 Z" fill="#000000" fill-rule="evenodd" fill-opacity="1" /><path clip-path="url(#clip540)" d="M146.019 368.014 L150.903 368.014 L150.903 373.893 L146.019 373.893 L146.019 368.014 Z" fill="#000000" fill-rule="evenodd" fill-opacity="1" /><path clip-path="url(#clip540)" d="M171.089 342.412 Q167.477 342.412 165.649 345.977 Q163.843 349.518 163.843 356.648 Q163.843 363.754 165.649 367.319 Q167.477 370.861 171.089 370.861 Q174.723 370.861 176.528 367.319 Q178.357 363.754 178.357 356.648 Q178.357 349.518 176.528 345.977 Q174.723 342.412 171.089 342.412 M171.089 338.708 Q176.899 338.708 179.954 343.315 Q183.033 347.898 183.033 356.648 Q183.033 365.375 179.954 369.981 Q176.899 374.565 171.089 374.565 Q165.278 374.565 162.2 369.981 Q159.144 365.375 159.144 356.648 Q159.144 347.898 162.2 343.315 Q165.278 338.708 171.089 338.708 Z" fill="#000000" fill-rule="evenodd" fill-opacity="1" /><path clip-path="url(#clip540)" d="M120.88 99.5305 L137.2 99.5305 L137.2 103.466 L115.256 103.466 L115.256 99.5305 Q117.918 96.7759 122.501 92.1463 Q127.107 87.4935 128.288 86.151 Q130.533 83.6278 131.413 81.8917 Q132.316 80.1325 132.316 78.4427 Q132.316 75.688 130.371 73.9519 Q128.45 72.2158 125.348 72.2158 Q123.149 72.2158 120.695 72.9797 Q118.265 73.7436 115.487 75.2945 L115.487 70.5723 Q118.311 69.4381 120.765 68.8594 Q123.218 68.2807 125.255 68.2807 Q130.626 68.2807 133.82 70.9658 Q137.015 73.651 137.015 78.1417 Q137.015 80.2714 136.204 82.1926 Q135.417 84.0908 133.311 86.6834 Q132.732 87.3546 129.63 90.5722 Q126.529 93.7667 120.88 99.5305 Z" fill="#000000" fill-rule="evenodd" fill-opacity="1" /><path clip-path="url(#clip540)" d="M147.015 97.5861 L151.899 97.5861 L151.899 103.466 L147.015 103.466 L147.015 97.5861 Z" fill="#000000" fill-rule="evenodd" fill-opacity="1" /><path clip-path="url(#clip540)" d="M162.13 68.9057 L180.487 68.9057 L180.487 72.8408 L166.413 72.8408 L166.413 81.313 Q167.431 80.9658 168.45 80.8038 Q169.468 80.6186 170.487 80.6186 Q176.274 80.6186 179.653 83.7899 Q183.033 86.9611 183.033 92.3778 Q183.033 97.9564 179.561 101.058 Q176.089 104.137 169.769 104.137 Q167.593 104.137 165.325 103.767 Q163.079 103.396 160.672 102.655 L160.672 97.9564 Q162.755 99.0907 164.977 99.6462 Q167.2 100.202 169.677 100.202 Q173.681 100.202 176.019 98.0953 Q178.357 95.9889 178.357 92.3778 Q178.357 88.7667 176.019 86.6602 Q173.681 84.5537 169.677 84.5537 Q167.802 84.5537 165.927 84.9704 Q164.075 85.3871 162.13 86.2667 L162.13 68.9057 Z" fill="#000000" fill-rule="evenodd" fill-opacity="1" /><path clip-path="url(#clip540)" d="M21.7677 897.856 L39.6235 897.856 L39.6235 889.771 Q39.6235 885.284 37.3 882.833 Q34.9765 880.382 30.6797 880.382 Q26.4147 880.382 24.0912 882.833 Q21.7677 885.284 21.7677 889.771 L21.7677 897.856 M16.4842 904.285 L16.4842 889.771 Q16.4842 881.782 20.1126 877.708 Q23.7092 873.602 30.6797 873.602 Q37.7138 873.602 41.3104 877.708 Q44.907 881.782 44.907 889.771 L44.907 897.856 L64.0042 897.856 L64.0042 904.285 L16.4842 904.285 Z" fill="#000000" fill-rule="evenodd" fill-opacity="1" /><path clip-path="url(#clip540)" d="M44.7161 837.063 L47.5806 837.063 L47.5806 863.99 Q53.6281 863.608 56.8109 860.362 Q59.9619 857.083 59.9619 851.259 Q59.9619 847.885 59.1344 844.734 Q58.3069 841.551 56.6518 838.432 L62.1899 838.432 Q63.5267 841.583 64.227 844.893 Q64.9272 848.203 64.9272 851.609 Q64.9272 860.139 59.9619 865.136 Q54.9967 870.101 46.5303 870.101 Q37.7774 870.101 32.6531 865.391 Q27.4968 860.648 27.4968 852.627 Q27.4968 845.434 32.1438 841.265 Q36.7589 837.063 44.7161 837.063 M42.9973 842.92 Q38.1912 842.983 35.3266 845.625 Q32.4621 848.235 32.4621 852.564 Q32.4621 857.465 35.2312 860.425 Q38.0002 863.354 43.0292 863.799 L42.9973 842.92 Z" fill="#000000" fill-rule="evenodd" fill-opacity="1" /><path clip-path="url(#clip540)" d="M18.2347 821.658 L28.3562 821.658 L28.3562 809.595 L32.9077 809.595 L32.9077 821.658 L52.2594 821.658 Q56.6199 821.658 57.8613 820.481 Q59.1026 819.271 59.1026 815.611 L59.1026 809.595 L64.0042 809.595 L64.0042 815.611 Q64.0042 822.39 61.4897 824.968 Q58.9434 827.547 52.2594 827.547 L32.9077 827.547 L32.9077 831.843 L28.3562 831.843 L28.3562 827.547 L18.2347 827.547 L18.2347 821.658 Z" fill="#000000" fill-rule="evenodd" fill-opacity="1" /><path clip-path="url(#clip540)" d="M46.0847 785.692 Q46.0847 792.79 47.7079 795.527 Q49.3312 798.264 53.2461 798.264 Q56.3653 798.264 58.2114 796.227 Q60.0256 794.158 60.0256 790.625 Q60.0256 785.756 56.5881 782.827 Q53.1188 779.867 47.3897 779.867 L46.0847 779.867 L46.0847 785.692 M43.6657 774.011 L64.0042 774.011 L64.0042 779.867 L58.5933 779.867 Q61.8398 781.873 63.3994 784.864 Q64.9272 787.856 64.9272 792.185 Q64.9272 797.66 61.8716 800.906 Q58.7843 804.121 53.6281 804.121 Q47.6125 804.121 44.5569 800.11 Q41.5014 796.068 41.5014 788.079 L41.5014 779.867 L40.9285 779.867 Q36.8862 779.867 34.6901 782.541 Q32.4621 785.183 32.4621 789.989 Q32.4621 793.044 33.1941 795.941 Q33.9262 798.837 35.3903 801.511 L29.9795 801.511 Q28.7381 798.296 28.1334 795.272 Q27.4968 792.249 27.4968 789.384 Q27.4968 781.65 31.5072 777.83 Q35.5176 774.011 43.6657 774.011 Z" fill="#000000" fill-rule="evenodd" fill-opacity="1" /><path clip-path="url(#clip540)" d="M14.479 761.948 L14.479 756.091 L64.0042 756.091 L64.0042 761.948 L14.479 761.948 Z" fill="#000000" fill-rule="evenodd" fill-opacity="1" /><path clip-path="url(#clip540)" d="M16.4842 747.816 L16.4842 741.323 L56.6518 731.329 L16.4842 721.367 L16.4842 714.141 L56.6518 704.147 L16.4842 694.185 L16.4842 687.66 L64.0042 699.596 L64.0042 707.68 L22.7544 717.706 L64.0042 727.828 L64.0042 735.912 L16.4842 747.816 Z" fill="#000000" fill-rule="evenodd" fill-opacity="1" /><path clip-path="url(#clip540)" d="M28.3562 680.817 L28.3562 674.961 L64.0042 674.961 L64.0042 680.817 L28.3562 680.817 M14.479 680.817 L14.479 674.961 L21.895 674.961 L21.895 680.817 L14.479 680.817 Z" fill="#000000" fill-rule="evenodd" fill-opacity="1" /><path clip-path="url(#clip540)" d="M33.7671 639.249 L14.479 639.249 L14.479 633.392 L64.0042 633.392 L64.0042 639.249 L58.657 639.249 Q61.8398 641.095 63.3994 643.928 Q64.9272 646.729 64.9272 650.675 Q64.9272 657.137 59.771 661.211 Q54.6147 665.253 46.212 665.253 Q37.8093 665.253 32.6531 661.211 Q27.4968 657.137 27.4968 650.675 Q27.4968 646.729 29.0564 643.928 Q30.5842 641.095 33.7671 639.249 M46.212 659.205 Q52.6732 659.205 56.3653 656.564 Q60.0256 653.89 60.0256 649.243 Q60.0256 644.596 56.3653 641.923 Q52.6732 639.249 46.212 639.249 Q39.7508 639.249 36.0905 641.923 Q32.3984 644.596 32.3984 649.243 Q32.3984 653.89 36.0905 656.564 Q39.7508 659.205 46.212 659.205 Z" fill="#000000" fill-rule="evenodd" fill-opacity="1" /><path clip-path="url(#clip540)" d="M18.2347 615.537 L28.3562 615.537 L28.3562 603.474 L32.9077 603.474 L32.9077 615.537 L52.2594 615.537 Q56.6199 615.537 57.8613 614.359 Q59.1026 613.15 59.1026 609.489 L59.1026 603.474 L64.0042 603.474 L64.0042 609.489 Q64.0042 616.269 61.4897 618.847 Q58.9434 621.425 52.2594 621.425 L32.9077 621.425 L32.9077 625.722 L28.3562 625.722 L28.3562 621.425 L18.2347 621.425 L18.2347 615.537 Z" fill="#000000" fill-rule="evenodd" fill-opacity="1" /><path clip-path="url(#clip540)" d="M42.4881 566.139 L64.0042 566.139 L64.0042 571.995 L42.679 571.995 Q37.6183 571.995 35.1038 573.969 Q32.5894 575.942 32.5894 579.889 Q32.5894 584.631 35.6131 587.368 Q38.6368 590.106 43.8567 590.106 L64.0042 590.106 L64.0042 595.994 L14.479 595.994 L14.479 590.106 L33.8944 590.106 Q30.6797 588.005 29.0883 585.172 Q27.4968 582.308 27.4968 578.584 Q27.4968 572.441 31.3163 569.29 Q35.1038 566.139 42.4881 566.139 Z" fill="#000000" fill-rule="evenodd" fill-opacity="1" /><circle clip-path="url(#clip542)" cx="415.892" cy="1330.15" r="14" fill="#cc4ccc" fill-rule="evenodd" fill-opacity="1" stroke="#000000" stroke-opacity="1" stroke-width="3.2"/>
<circle clip-path="url(#clip542)" cx="415.892" cy="1330.15" r="14" fill="#cc4ccc" fill-rule="evenodd" fill-opacity="1" stroke="#000000" stroke-opacity="1" stroke-width="3.2"/>
<circle clip-path="url(#clip542)" cx="381.775" cy="1330.15" r="14" fill="#cc4ccc" fill-rule="evenodd" fill-opacity="1" stroke="#000000" stroke-opacity="1" stroke-width="3.2"/>
<circle clip-path="url(#clip542)" cx="450.01" cy="1330.15" r="14" fill="#cc4ccc" fill-rule="evenodd" fill-opacity="1" stroke="#000000" stroke-opacity="1" stroke-width="3.2"/>
<circle clip-path="url(#clip542)" cx="415.892" cy="1330.15" r="14" fill="#cc4ccc" fill-rule="evenodd" fill-opacity="1" stroke="#000000" stroke-opacity="1" stroke-width="3.2"/>
<circle clip-path="url(#clip542)" cx="518.245" cy="1221.98" r="14" fill="#cc4ccc" fill-rule="evenodd" fill-opacity="1" stroke="#000000" stroke-opacity="1" stroke-width="3.2"/>
<circle clip-path="url(#clip542)" cx="415.892" cy="1276.07" r="14" fill="#cc4ccc" fill-rule="evenodd" fill-opacity="1" stroke="#000000" stroke-opacity="1" stroke-width="3.2"/>
<circle clip-path="url(#clip542)" cx="450.01" cy="1330.15" r="14" fill="#cc4ccc" fill-rule="evenodd" fill-opacity="1" stroke="#000000" stroke-opacity="1" stroke-width="3.2"/>
<circle clip-path="url(#clip542)" cx="415.892" cy="1330.15" r="14" fill="#cc4ccc" fill-rule="evenodd" fill-opacity="1" stroke="#000000" stroke-opacity="1" stroke-width="3.2"/>
<circle clip-path="url(#clip542)" cx="450.01" cy="1384.24" r="14" fill="#cc4ccc" fill-rule="evenodd" fill-opacity="1" stroke="#000000" stroke-opacity="1" stroke-width="3.2"/>
<circle clip-path="url(#clip542)" cx="450.01" cy="1330.15" r="14" fill="#cc4ccc" fill-rule="evenodd" fill-opacity="1" stroke="#000000" stroke-opacity="1" stroke-width="3.2"/>
<circle clip-path="url(#clip542)" cx="484.128" cy="1330.15" r="14" fill="#cc4ccc" fill-rule="evenodd" fill-opacity="1" stroke="#000000" stroke-opacity="1" stroke-width="3.2"/>
<circle clip-path="url(#clip542)" cx="415.892" cy="1384.24" r="14" fill="#cc4ccc" fill-rule="evenodd" fill-opacity="1" stroke="#000000" stroke-opacity="1" stroke-width="3.2"/>
<circle clip-path="url(#clip542)" cx="313.539" cy="1384.24" r="14" fill="#cc4ccc" fill-rule="evenodd" fill-opacity="1" stroke="#000000" stroke-opacity="1" stroke-width="3.2"/>
<circle clip-path="url(#clip542)" cx="347.657" cy="1330.15" r="14" fill="#cc4ccc" fill-rule="evenodd" fill-opacity="1" stroke="#000000" stroke-opacity="1" stroke-width="3.2"/>
<circle clip-path="url(#clip542)" cx="450.01" cy="1221.98" r="14" fill="#cc4ccc" fill-rule="evenodd" fill-opacity="1" stroke="#000000" stroke-opacity="1" stroke-width="3.2"/>
<circle clip-path="url(#clip542)" cx="381.775" cy="1221.98" r="14" fill="#cc4ccc" fill-rule="evenodd" fill-opacity="1" stroke="#000000" stroke-opacity="1" stroke-width="3.2"/>
<circle clip-path="url(#clip542)" cx="415.892" cy="1276.07" r="14" fill="#cc4ccc" fill-rule="evenodd" fill-opacity="1" stroke="#000000" stroke-opacity="1" stroke-width="3.2"/>
<circle clip-path="url(#clip542)" cx="518.245" cy="1276.07" r="14" fill="#cc4ccc" fill-rule="evenodd" fill-opacity="1" stroke="#000000" stroke-opacity="1" stroke-width="3.2"/>
<circle clip-path="url(#clip542)" cx="450.01" cy="1276.07" r="14" fill="#cc4ccc" fill-rule="evenodd" fill-opacity="1" stroke="#000000" stroke-opacity="1" stroke-width="3.2"/>
<circle clip-path="url(#clip542)" cx="518.245" cy="1330.15" r="14" fill="#cc4ccc" fill-rule="evenodd" fill-opacity="1" stroke="#000000" stroke-opacity="1" stroke-width="3.2"/>
<circle clip-path="url(#clip542)" cx="450.01" cy="1221.98" r="14" fill="#cc4ccc" fill-rule="evenodd" fill-opacity="1" stroke="#000000" stroke-opacity="1" stroke-width="3.2"/>
<circle clip-path="url(#clip542)" cx="279.421" cy="1330.15" r="14" fill="#cc4ccc" fill-rule="evenodd" fill-opacity="1" stroke="#000000" stroke-opacity="1" stroke-width="3.2"/>
<circle clip-path="url(#clip542)" cx="518.245" cy="1167.9" r="14" fill="#cc4ccc" fill-rule="evenodd" fill-opacity="1" stroke="#000000" stroke-opacity="1" stroke-width="3.2"/>
<circle clip-path="url(#clip542)" cx="586.481" cy="1330.15" r="14" fill="#cc4ccc" fill-rule="evenodd" fill-opacity="1" stroke="#000000" stroke-opacity="1" stroke-width="3.2"/>
<circle clip-path="url(#clip542)" cx="484.128" cy="1330.15" r="14" fill="#cc4ccc" fill-rule="evenodd" fill-opacity="1" stroke="#000000" stroke-opacity="1" stroke-width="3.2"/>
<circle clip-path="url(#clip542)" cx="484.128" cy="1221.98" r="14" fill="#cc4ccc" fill-rule="evenodd" fill-opacity="1" stroke="#000000" stroke-opacity="1" stroke-width="3.2"/>
<circle clip-path="url(#clip542)" cx="450.01" cy="1330.15" r="14" fill="#cc4ccc" fill-rule="evenodd" fill-opacity="1" stroke="#000000" stroke-opacity="1" stroke-width="3.2"/>
<circle clip-path="url(#clip542)" cx="415.892" cy="1330.15" r="14" fill="#cc4ccc" fill-rule="evenodd" fill-opacity="1" stroke="#000000" stroke-opacity="1" stroke-width="3.2"/>
<circle clip-path="url(#clip542)" cx="484.128" cy="1330.15" r="14" fill="#cc4ccc" fill-rule="evenodd" fill-opacity="1" stroke="#000000" stroke-opacity="1" stroke-width="3.2"/>
<circle clip-path="url(#clip542)" cx="484.128" cy="1330.15" r="14" fill="#cc4ccc" fill-rule="evenodd" fill-opacity="1" stroke="#000000" stroke-opacity="1" stroke-width="3.2"/>
<circle clip-path="url(#clip542)" cx="450.01" cy="1221.98" r="14" fill="#cc4ccc" fill-rule="evenodd" fill-opacity="1" stroke="#000000" stroke-opacity="1" stroke-width="3.2"/>
<circle clip-path="url(#clip542)" cx="450.01" cy="1384.24" r="14" fill="#cc4ccc" fill-rule="evenodd" fill-opacity="1" stroke="#000000" stroke-opacity="1" stroke-width="3.2"/>
<circle clip-path="url(#clip542)" cx="415.892" cy="1330.15" r="14" fill="#cc4ccc" fill-rule="evenodd" fill-opacity="1" stroke="#000000" stroke-opacity="1" stroke-width="3.2"/>
<circle clip-path="url(#clip542)" cx="450.01" cy="1330.15" r="14" fill="#cc4ccc" fill-rule="evenodd" fill-opacity="1" stroke="#000000" stroke-opacity="1" stroke-width="3.2"/>
<circle clip-path="url(#clip542)" cx="347.657" cy="1330.15" r="14" fill="#cc4ccc" fill-rule="evenodd" fill-opacity="1" stroke="#000000" stroke-opacity="1" stroke-width="3.2"/>
<circle clip-path="url(#clip542)" cx="381.775" cy="1330.15" r="14" fill="#cc4ccc" fill-rule="evenodd" fill-opacity="1" stroke="#000000" stroke-opacity="1" stroke-width="3.2"/>
<circle clip-path="url(#clip542)" cx="415.892" cy="1384.24" r="14" fill="#cc4ccc" fill-rule="evenodd" fill-opacity="1" stroke="#000000" stroke-opacity="1" stroke-width="3.2"/>
<circle clip-path="url(#clip542)" cx="381.775" cy="1330.15" r="14" fill="#cc4ccc" fill-rule="evenodd" fill-opacity="1" stroke="#000000" stroke-opacity="1" stroke-width="3.2"/>
<circle clip-path="url(#clip542)" cx="450.01" cy="1330.15" r="14" fill="#cc4ccc" fill-rule="evenodd" fill-opacity="1" stroke="#000000" stroke-opacity="1" stroke-width="3.2"/>
<circle clip-path="url(#clip542)" cx="381.775" cy="1276.07" r="14" fill="#cc4ccc" fill-rule="evenodd" fill-opacity="1" stroke="#000000" stroke-opacity="1" stroke-width="3.2"/>
<circle clip-path="url(#clip542)" cx="381.775" cy="1276.07" r="14" fill="#cc4ccc" fill-rule="evenodd" fill-opacity="1" stroke="#000000" stroke-opacity="1" stroke-width="3.2"/>
<circle clip-path="url(#clip542)" cx="381.775" cy="1330.15" r="14" fill="#cc4ccc" fill-rule="evenodd" fill-opacity="1" stroke="#000000" stroke-opacity="1" stroke-width="3.2"/>
<circle clip-path="url(#clip542)" cx="484.128" cy="1113.81" r="14" fill="#cc4ccc" fill-rule="evenodd" fill-opacity="1" stroke="#000000" stroke-opacity="1" stroke-width="3.2"/>
<circle clip-path="url(#clip542)" cx="586.481" cy="1221.98" r="14" fill="#cc4ccc" fill-rule="evenodd" fill-opacity="1" stroke="#000000" stroke-opacity="1" stroke-width="3.2"/>
<circle clip-path="url(#clip542)" cx="415.892" cy="1276.07" r="14" fill="#cc4ccc" fill-rule="evenodd" fill-opacity="1" stroke="#000000" stroke-opacity="1" stroke-width="3.2"/>
<circle clip-path="url(#clip542)" cx="484.128" cy="1330.15" r="14" fill="#cc4ccc" fill-rule="evenodd" fill-opacity="1" stroke="#000000" stroke-opacity="1" stroke-width="3.2"/>
<circle clip-path="url(#clip542)" cx="415.892" cy="1330.15" r="14" fill="#cc4ccc" fill-rule="evenodd" fill-opacity="1" stroke="#000000" stroke-opacity="1" stroke-width="3.2"/>
<circle clip-path="url(#clip542)" cx="450.01" cy="1330.15" r="14" fill="#cc4ccc" fill-rule="evenodd" fill-opacity="1" stroke="#000000" stroke-opacity="1" stroke-width="3.2"/>
<circle clip-path="url(#clip542)" cx="415.892" cy="1330.15" r="14" fill="#cc4ccc" fill-rule="evenodd" fill-opacity="1" stroke="#000000" stroke-opacity="1" stroke-width="3.2"/>
<circle clip-path="url(#clip542)" cx="1541.78" cy="681.126" r="14" fill="#4ccc4c" fill-rule="evenodd" fill-opacity="1" stroke="#000000" stroke-opacity="1" stroke-width="3.2"/>
<circle clip-path="url(#clip542)" cx="1473.54" cy="627.041" r="14" fill="#4ccc4c" fill-rule="evenodd" fill-opacity="1" stroke="#000000" stroke-opacity="1" stroke-width="3.2"/>
<circle clip-path="url(#clip542)" cx="1610.01" cy="627.041" r="14" fill="#ff4c4c" fill-rule="evenodd" fill-opacity="1" stroke="#000000" stroke-opacity="1" stroke-width="3.2"/>
<circle clip-path="url(#clip542)" cx="1302.95" cy="735.212" r="14" fill="#4ccc4c" fill-rule="evenodd" fill-opacity="1" stroke="#000000" stroke-opacity="1" stroke-width="3.2"/>
<circle clip-path="url(#clip542)" cx="1507.66" cy="627.041" r="14" fill="#4ccc4c" fill-rule="evenodd" fill-opacity="1" stroke="#000000" stroke-opacity="1" stroke-width="3.2"/>
<circle clip-path="url(#clip542)" cx="1473.54" cy="735.212" r="14" fill="#4ccc4c" fill-rule="evenodd" fill-opacity="1" stroke="#000000" stroke-opacity="1" stroke-width="3.2"/>
<circle clip-path="url(#clip542)" cx="1541.78" cy="572.955" r="14" fill="#4ccc4c" fill-rule="evenodd" fill-opacity="1" stroke="#000000" stroke-opacity="1" stroke-width="3.2"/>
<circle clip-path="url(#clip542)" cx="1064.13" cy="897.469" r="14" fill="#4ccc4c" fill-rule="evenodd" fill-opacity="1" stroke="#000000" stroke-opacity="1" stroke-width="3.2"/>
<circle clip-path="url(#clip542)" cx="1507.66" cy="735.212" r="14" fill="#4ccc4c" fill-rule="evenodd" fill-opacity="1" stroke="#000000" stroke-opacity="1" stroke-width="3.2"/>
<circle clip-path="url(#clip542)" cx="1268.84" cy="681.126" r="14" fill="#4ccc4c" fill-rule="evenodd" fill-opacity="1" stroke="#000000" stroke-opacity="1" stroke-width="3.2"/>
<circle clip-path="url(#clip542)" cx="1132.36" cy="897.469" r="14" fill="#4ccc4c" fill-rule="evenodd" fill-opacity="1" stroke="#000000" stroke-opacity="1" stroke-width="3.2"/>
<circle clip-path="url(#clip542)" cx="1371.19" cy="627.041" r="14" fill="#4ccc4c" fill-rule="evenodd" fill-opacity="1" stroke="#000000" stroke-opacity="1" stroke-width="3.2"/>
<circle clip-path="url(#clip542)" cx="1302.95" cy="897.469" r="14" fill="#4ccc4c" fill-rule="evenodd" fill-opacity="1" stroke="#000000" stroke-opacity="1" stroke-width="3.2"/>
<circle clip-path="url(#clip542)" cx="1541.78" cy="681.126" r="14" fill="#4ccc4c" fill-rule="evenodd" fill-opacity="1" stroke="#000000" stroke-opacity="1" stroke-width="3.2"/>
<circle clip-path="url(#clip542)" cx="1166.48" cy="735.212" r="14" fill="#4ccc4c" fill-rule="evenodd" fill-opacity="1" stroke="#000000" stroke-opacity="1" stroke-width="3.2"/>
<circle clip-path="url(#clip542)" cx="1439.42" cy="681.126" r="14" fill="#4ccc4c" fill-rule="evenodd" fill-opacity="1" stroke="#000000" stroke-opacity="1" stroke-width="3.2"/>
<circle clip-path="url(#clip542)" cx="1473.54" cy="627.041" r="14" fill="#4ccc4c" fill-rule="evenodd" fill-opacity="1" stroke="#000000" stroke-opacity="1" stroke-width="3.2"/>
<circle clip-path="url(#clip542)" cx="1337.07" cy="897.469" r="14" fill="#4ccc4c" fill-rule="evenodd" fill-opacity="1" stroke="#000000" stroke-opacity="1" stroke-width="3.2"/>
<circle clip-path="url(#clip542)" cx="1473.54" cy="627.041" r="14" fill="#4ccc4c" fill-rule="evenodd" fill-opacity="1" stroke="#000000" stroke-opacity="1" stroke-width="3.2"/>
<circle clip-path="url(#clip542)" cx="1268.84" cy="843.383" r="14" fill="#4ccc4c" fill-rule="evenodd" fill-opacity="1" stroke="#000000" stroke-opacity="1" stroke-width="3.2"/>
<circle clip-path="url(#clip542)" cx="1575.9" cy="464.784" r="14" fill="#4ccc4c" fill-rule="evenodd" fill-opacity="1" stroke="#000000" stroke-opacity="1" stroke-width="3.2"/>
<circle clip-path="url(#clip542)" cx="1302.95" cy="735.212" r="14" fill="#4ccc4c" fill-rule="evenodd" fill-opacity="1" stroke="#000000" stroke-opacity="1" stroke-width="3.2"/>
<circle clip-path="url(#clip542)" cx="1610.01" cy="627.041" r="14" fill="#4ccc4c" fill-rule="evenodd" fill-opacity="1" stroke="#000000" stroke-opacity="1" stroke-width="3.2"/>
<circle clip-path="url(#clip542)" cx="1541.78" cy="789.297" r="14" fill="#4ccc4c" fill-rule="evenodd" fill-opacity="1" stroke="#000000" stroke-opacity="1" stroke-width="3.2"/>
<circle clip-path="url(#clip542)" cx="1405.31" cy="735.212" r="14" fill="#4ccc4c" fill-rule="evenodd" fill-opacity="1" stroke="#000000" stroke-opacity="1" stroke-width="3.2"/>
<circle clip-path="url(#clip542)" cx="1439.42" cy="681.126" r="14" fill="#4ccc4c" fill-rule="evenodd" fill-opacity="1" stroke="#000000" stroke-opacity="1" stroke-width="3.2"/>
<circle clip-path="url(#clip542)" cx="1575.9" cy="681.126" r="14" fill="#4ccc4c" fill-rule="evenodd" fill-opacity="1" stroke="#000000" stroke-opacity="1" stroke-width="3.2"/>
<circle clip-path="url(#clip542)" cx="1644.13" cy="518.87" r="14" fill="#ff4c4c" fill-rule="evenodd" fill-opacity="1" stroke="#000000" stroke-opacity="1" stroke-width="3.2"/>
<circle clip-path="url(#clip542)" cx="1473.54" cy="627.041" r="14" fill="#4ccc4c" fill-rule="evenodd" fill-opacity="1" stroke="#000000" stroke-opacity="1" stroke-width="3.2"/>
<circle clip-path="url(#clip542)" cx="1132.36" cy="897.469" r="14" fill="#4ccc4c" fill-rule="evenodd" fill-opacity="1" stroke="#000000" stroke-opacity="1" stroke-width="3.2"/>
<circle clip-path="url(#clip542)" cx="1234.72" cy="843.383" r="14" fill="#4ccc4c" fill-rule="evenodd" fill-opacity="1" stroke="#000000" stroke-opacity="1" stroke-width="3.2"/>
<circle clip-path="url(#clip542)" cx="1200.6" cy="897.469" r="14" fill="#4ccc4c" fill-rule="evenodd" fill-opacity="1" stroke="#000000" stroke-opacity="1" stroke-width="3.2"/>
<circle clip-path="url(#clip542)" cx="1268.84" cy="789.297" r="14" fill="#4ccc4c" fill-rule="evenodd" fill-opacity="1" stroke="#000000" stroke-opacity="1" stroke-width="3.2"/>
<circle clip-path="url(#clip542)" cx="1678.25" cy="572.955" r="14" fill="#4ccc4c" fill-rule="evenodd" fill-opacity="1" stroke="#000000" stroke-opacity="1" stroke-width="3.2"/>
<circle clip-path="url(#clip542)" cx="1473.54" cy="627.041" r="14" fill="#4ccc4c" fill-rule="evenodd" fill-opacity="1" stroke="#000000" stroke-opacity="1" stroke-width="3.2"/>
<circle clip-path="url(#clip542)" cx="1473.54" cy="572.955" r="14" fill="#4ccc4c" fill-rule="evenodd" fill-opacity="1" stroke="#000000" stroke-opacity="1" stroke-width="3.2"/>
<circle clip-path="url(#clip542)" cx="1541.78" cy="627.041" r="14" fill="#4ccc4c" fill-rule="evenodd" fill-opacity="1" stroke="#000000" stroke-opacity="1" stroke-width="3.2"/>
<circle clip-path="url(#clip542)" cx="1439.42" cy="735.212" r="14" fill="#4ccc4c" fill-rule="evenodd" fill-opacity="1" stroke="#000000" stroke-opacity="1" stroke-width="3.2"/>
<circle clip-path="url(#clip542)" cx="1337.07" cy="735.212" r="14" fill="#4ccc4c" fill-rule="evenodd" fill-opacity="1" stroke="#000000" stroke-opacity="1" stroke-width="3.2"/>
<circle clip-path="url(#clip542)" cx="1302.95" cy="735.212" r="14" fill="#4ccc4c" fill-rule="evenodd" fill-opacity="1" stroke="#000000" stroke-opacity="1" stroke-width="3.2"/>
<circle clip-path="url(#clip542)" cx="1439.42" cy="789.297" r="14" fill="#4ccc4c" fill-rule="evenodd" fill-opacity="1" stroke="#000000" stroke-opacity="1" stroke-width="3.2"/>
<circle clip-path="url(#clip542)" cx="1507.66" cy="681.126" r="14" fill="#4ccc4c" fill-rule="evenodd" fill-opacity="1" stroke="#000000" stroke-opacity="1" stroke-width="3.2"/>
<circle clip-path="url(#clip542)" cx="1302.95" cy="789.297" r="14" fill="#4ccc4c" fill-rule="evenodd" fill-opacity="1" stroke="#000000" stroke-opacity="1" stroke-width="3.2"/>
<circle clip-path="url(#clip542)" cx="1064.13" cy="897.469" r="14" fill="#4ccc4c" fill-rule="evenodd" fill-opacity="1" stroke="#000000" stroke-opacity="1" stroke-width="3.2"/>
<circle clip-path="url(#clip542)" cx="1371.19" cy="735.212" r="14" fill="#4ccc4c" fill-rule="evenodd" fill-opacity="1" stroke="#000000" stroke-opacity="1" stroke-width="3.2"/>
<circle clip-path="url(#clip542)" cx="1371.19" cy="789.297" r="14" fill="#4ccc4c" fill-rule="evenodd" fill-opacity="1" stroke="#000000" stroke-opacity="1" stroke-width="3.2"/>
<circle clip-path="url(#clip542)" cx="1371.19" cy="735.212" r="14" fill="#4ccc4c" fill-rule="evenodd" fill-opacity="1" stroke="#000000" stroke-opacity="1" stroke-width="3.2"/>
<circle clip-path="url(#clip542)" cx="1405.31" cy="735.212" r="14" fill="#4ccc4c" fill-rule="evenodd" fill-opacity="1" stroke="#000000" stroke-opacity="1" stroke-width="3.2"/>
<circle clip-path="url(#clip542)" cx="961.776" cy="843.383" r="14" fill="#4ccc4c" fill-rule="evenodd" fill-opacity="1" stroke="#000000" stroke-opacity="1" stroke-width="3.2"/>
<circle clip-path="url(#clip542)" cx="1337.07" cy="735.212" r="14" fill="#4ccc4c" fill-rule="evenodd" fill-opacity="1" stroke="#000000" stroke-opacity="1" stroke-width="3.2"/>
<circle clip-path="url(#clip542)" cx="1985.31" cy="86.1857" r="14" fill="#ff4c4c" fill-rule="evenodd" fill-opacity="1" stroke="#000000" stroke-opacity="1" stroke-width="3.2"/>
<circle clip-path="url(#clip542)" cx="1678.25" cy="410.699" r="14" fill="#4ccc4c" fill-rule="evenodd" fill-opacity="1" stroke="#000000" stroke-opacity="1" stroke-width="3.2"/>
<circle clip-path="url(#clip542)" cx="1951.19" cy="302.528" r="14" fill="#ff4c4c" fill-rule="evenodd" fill-opacity="1" stroke="#000000" stroke-opacity="1" stroke-width="3.2"/>
<circle clip-path="url(#clip542)" cx="1848.84" cy="464.784" r="14" fill="#ff4c4c" fill-rule="evenodd" fill-opacity="1" stroke="#000000" stroke-opacity="1" stroke-width="3.2"/>
<circle clip-path="url(#clip542)" cx="1917.07" cy="248.442" r="14" fill="#ff4c4c" fill-rule="evenodd" fill-opacity="1" stroke="#000000" stroke-opacity="1" stroke-width="3.2"/>
<circle clip-path="url(#clip542)" cx="2190.01" cy="302.528" r="14" fill="#ff4c4c" fill-rule="evenodd" fill-opacity="1" stroke="#000000" stroke-opacity="1" stroke-width="3.2"/>
<circle clip-path="url(#clip542)" cx="1473.54" cy="518.87" r="14" fill="#4ccc4c" fill-rule="evenodd" fill-opacity="1" stroke="#000000" stroke-opacity="1" stroke-width="3.2"/>
<circle clip-path="url(#clip542)" cx="2087.66" cy="464.784" r="14" fill="#ff4c4c" fill-rule="evenodd" fill-opacity="1" stroke="#000000" stroke-opacity="1" stroke-width="3.2"/>
<circle clip-path="url(#clip542)" cx="1917.07" cy="464.784" r="14" fill="#ff4c4c" fill-rule="evenodd" fill-opacity="1" stroke="#000000" stroke-opacity="1" stroke-width="3.2"/>
<circle clip-path="url(#clip542)" cx="2019.43" cy="86.1857" r="14" fill="#ff4c4c" fill-rule="evenodd" fill-opacity="1" stroke="#000000" stroke-opacity="1" stroke-width="3.2"/>
<circle clip-path="url(#clip542)" cx="1678.25" cy="356.613" r="14" fill="#ff4c4c" fill-rule="evenodd" fill-opacity="1" stroke="#000000" stroke-opacity="1" stroke-width="3.2"/>
<circle clip-path="url(#clip542)" cx="1746.48" cy="410.699" r="14" fill="#ff4c4c" fill-rule="evenodd" fill-opacity="1" stroke="#000000" stroke-opacity="1" stroke-width="3.2"/>
<circle clip-path="url(#clip542)" cx="1814.72" cy="302.528" r="14" fill="#ff4c4c" fill-rule="evenodd" fill-opacity="1" stroke="#000000" stroke-opacity="1" stroke-width="3.2"/>
<circle clip-path="url(#clip542)" cx="1644.13" cy="356.613" r="14" fill="#4ccc4c" fill-rule="evenodd" fill-opacity="1" stroke="#000000" stroke-opacity="1" stroke-width="3.2"/>
<circle clip-path="url(#clip542)" cx="1678.25" cy="140.271" r="14" fill="#4ccc4c" fill-rule="evenodd" fill-opacity="1" stroke="#000000" stroke-opacity="1" stroke-width="3.2"/>
<circle clip-path="url(#clip542)" cx="1746.48" cy="194.357" r="14" fill="#ff4c4c" fill-rule="evenodd" fill-opacity="1" stroke="#000000" stroke-opacity="1" stroke-width="3.2"/>
<circle clip-path="url(#clip542)" cx="1814.72" cy="464.784" r="14" fill="#ff4c4c" fill-rule="evenodd" fill-opacity="1" stroke="#000000" stroke-opacity="1" stroke-width="3.2"/>
<circle clip-path="url(#clip542)" cx="2224.13" cy="248.442" r="14" fill="#ff4c4c" fill-rule="evenodd" fill-opacity="1" stroke="#000000" stroke-opacity="1" stroke-width="3.2"/>
<circle clip-path="url(#clip542)" cx="2292.37" cy="194.357" r="14" fill="#ff4c4c" fill-rule="evenodd" fill-opacity="1" stroke="#000000" stroke-opacity="1" stroke-width="3.2"/>
<circle clip-path="url(#clip542)" cx="1644.13" cy="627.041" r="14" fill="#4ccc4c" fill-rule="evenodd" fill-opacity="1" stroke="#000000" stroke-opacity="1" stroke-width="3.2"/>
<circle clip-path="url(#clip542)" cx="1882.95" cy="194.357" r="14" fill="#ff4c4c" fill-rule="evenodd" fill-opacity="1" stroke="#000000" stroke-opacity="1" stroke-width="3.2"/>
<circle clip-path="url(#clip542)" cx="1610.01" cy="356.613" r="14" fill="#4ccc4c" fill-rule="evenodd" fill-opacity="1" stroke="#000000" stroke-opacity="1" stroke-width="3.2"/>
<circle clip-path="url(#clip542)" cx="2224.13" cy="356.613" r="14" fill="#ff4c4c" fill-rule="evenodd" fill-opacity="1" stroke="#000000" stroke-opacity="1" stroke-width="3.2"/>
<circle clip-path="url(#clip542)" cx="1610.01" cy="464.784" r="14" fill="#4ccc4c" fill-rule="evenodd" fill-opacity="1" stroke="#000000" stroke-opacity="1" stroke-width="3.2"/>
<circle clip-path="url(#clip542)" cx="1882.95" cy="302.528" r="14" fill="#ff4c4c" fill-rule="evenodd" fill-opacity="1" stroke="#000000" stroke-opacity="1" stroke-width="3.2"/>
<circle clip-path="url(#clip542)" cx="1985.31" cy="464.784" r="14" fill="#ff4c4c" fill-rule="evenodd" fill-opacity="1" stroke="#000000" stroke-opacity="1" stroke-width="3.2"/>
<circle clip-path="url(#clip542)" cx="1575.9" cy="464.784" r="14" fill="#4ccc4c" fill-rule="evenodd" fill-opacity="1" stroke="#000000" stroke-opacity="1" stroke-width="3.2"/>
<circle clip-path="url(#clip542)" cx="1610.01" cy="464.784" r="14" fill="#4ccc4c" fill-rule="evenodd" fill-opacity="1" stroke="#000000" stroke-opacity="1" stroke-width="3.2"/>
<circle clip-path="url(#clip542)" cx="1848.84" cy="302.528" r="14" fill="#ff4c4c" fill-rule="evenodd" fill-opacity="1" stroke="#000000" stroke-opacity="1" stroke-width="3.2"/>
<circle clip-path="url(#clip542)" cx="1917.07" cy="572.955" r="14" fill="#ff4c4c" fill-rule="evenodd" fill-opacity="1" stroke="#000000" stroke-opacity="1" stroke-width="3.2"/>
<circle clip-path="url(#clip542)" cx="2019.43" cy="410.699" r="14" fill="#ff4c4c" fill-rule="evenodd" fill-opacity="1" stroke="#000000" stroke-opacity="1" stroke-width="3.2"/>
<circle clip-path="url(#clip542)" cx="2121.78" cy="356.613" r="14" fill="#ff4c4c" fill-rule="evenodd" fill-opacity="1" stroke="#000000" stroke-opacity="1" stroke-width="3.2"/>
<circle clip-path="url(#clip542)" cx="1848.84" cy="248.442" r="14" fill="#ff4c4c" fill-rule="evenodd" fill-opacity="1" stroke="#000000" stroke-opacity="1" stroke-width="3.2"/>
<circle clip-path="url(#clip542)" cx="1678.25" cy="627.041" r="14" fill="#4ccc4c" fill-rule="evenodd" fill-opacity="1" stroke="#000000" stroke-opacity="1" stroke-width="3.2"/>
<circle clip-path="url(#clip542)" cx="1848.84" cy="681.126" r="14" fill="#ff4c4c" fill-rule="evenodd" fill-opacity="1" stroke="#000000" stroke-opacity="1" stroke-width="3.2"/>
<circle clip-path="url(#clip542)" cx="2019.43" cy="194.357" r="14" fill="#ff4c4c" fill-rule="evenodd" fill-opacity="1" stroke="#000000" stroke-opacity="1" stroke-width="3.2"/>
<circle clip-path="url(#clip542)" cx="1848.84" cy="140.271" r="14" fill="#ff4c4c" fill-rule="evenodd" fill-opacity="1" stroke="#000000" stroke-opacity="1" stroke-width="3.2"/>
<circle clip-path="url(#clip542)" cx="1814.72" cy="464.784" r="14" fill="#ff4c4c" fill-rule="evenodd" fill-opacity="1" stroke="#000000" stroke-opacity="1" stroke-width="3.2"/>
<circle clip-path="url(#clip542)" cx="1575.9" cy="464.784" r="14" fill="#4ccc4c" fill-rule="evenodd" fill-opacity="1" stroke="#000000" stroke-opacity="1" stroke-width="3.2"/>
<circle clip-path="url(#clip542)" cx="1780.6" cy="302.528" r="14" fill="#ff4c4c" fill-rule="evenodd" fill-opacity="1" stroke="#000000" stroke-opacity="1" stroke-width="3.2"/>
<circle clip-path="url(#clip542)" cx="1848.84" cy="140.271" r="14" fill="#ff4c4c" fill-rule="evenodd" fill-opacity="1" stroke="#000000" stroke-opacity="1" stroke-width="3.2"/>
<circle clip-path="url(#clip542)" cx="1678.25" cy="194.357" r="14" fill="#ff4c4c" fill-rule="evenodd" fill-opacity="1" stroke="#000000" stroke-opacity="1" stroke-width="3.2"/>
<circle clip-path="url(#clip542)" cx="1678.25" cy="410.699" r="14" fill="#4ccc4c" fill-rule="evenodd" fill-opacity="1" stroke="#000000" stroke-opacity="1" stroke-width="3.2"/>
<circle clip-path="url(#clip542)" cx="1951.19" cy="194.357" r="14" fill="#ff4c4c" fill-rule="evenodd" fill-opacity="1" stroke="#000000" stroke-opacity="1" stroke-width="3.2"/>
<circle clip-path="url(#clip542)" cx="1882.95" cy="86.1857" r="14" fill="#ff4c4c" fill-rule="evenodd" fill-opacity="1" stroke="#000000" stroke-opacity="1" stroke-width="3.2"/>
<circle clip-path="url(#clip542)" cx="1712.37" cy="194.357" r="14" fill="#ff4c4c" fill-rule="evenodd" fill-opacity="1" stroke="#000000" stroke-opacity="1" stroke-width="3.2"/>
<circle clip-path="url(#clip542)" cx="1644.13" cy="410.699" r="14" fill="#4ccc4c" fill-rule="evenodd" fill-opacity="1" stroke="#000000" stroke-opacity="1" stroke-width="3.2"/>
<circle clip-path="url(#clip542)" cx="1712.37" cy="356.613" r="14" fill="#ff4c4c" fill-rule="evenodd" fill-opacity="1" stroke="#000000" stroke-opacity="1" stroke-width="3.2"/>
<circle clip-path="url(#clip542)" cx="1780.6" cy="194.357" r="14" fill="#ff4c4c" fill-rule="evenodd" fill-opacity="1" stroke="#000000" stroke-opacity="1" stroke-width="3.2"/>
<circle clip-path="url(#clip542)" cx="1678.25" cy="464.784" r="14" fill="#4ccc4c" fill-rule="evenodd" fill-opacity="1" stroke="#000000" stroke-opacity="1" stroke-width="3.2"/>
</svg>
