<?xml version="1.0" encoding="utf-8"?>
<svg xmlns="http://www.w3.org/2000/svg" xmlns:xlink="http://www.w3.org/1999/xlink" width="600" height="400" viewBox="0 0 2400 1600">
<defs>
  <clipPath id="clip050">
    <rect x="0" y="0" width="2400" height="1600"/>
  </clipPath>
</defs>
<path clip-path="url(#clip050)" d="
M0 1600 L2400 1600 L2400 0 L0 0  Z
  " fill="#ffffff" fill-rule="evenodd" fill-opacity="1"/>
<defs>
  <clipPath id="clip051">
    <rect x="480" y="0" width="1681" height="1600"/>
  </clipPath>
</defs>
<path clip-path="url(#clip050)" d="
M370.861 1423.18 L2352.76 1423.18 L2352.76 123.472 L370.861 123.472  Z
  " fill="#ffffff" fill-rule="evenodd" fill-opacity="1"/>
<defs>
  <clipPath id="clip052">
    <rect x="370" y="123" width="1983" height="1301"/>
  </clipPath>
</defs>
<polyline clip-path="url(#clip052)" style="stroke:#000000; stroke-linecap:butt; stroke-linejoin:round; stroke-width:2; stroke-opacity:0.1; fill:none" points="
  605.967,1423.18 605.967,123.472 
  "/>
<polyline clip-path="url(#clip052)" style="stroke:#000000; stroke-linecap:butt; stroke-linejoin:round; stroke-width:2; stroke-opacity:0.1; fill:none" points="
  1003.78,1423.18 1003.78,123.472 
  "/>
<polyline clip-path="url(#clip052)" style="stroke:#000000; stroke-linecap:butt; stroke-linejoin:round; stroke-width:2; stroke-opacity:0.1; fill:none" points="
  1401.59,1423.18 1401.59,123.472 
  "/>
<polyline clip-path="url(#clip052)" style="stroke:#000000; stroke-linecap:butt; stroke-linejoin:round; stroke-width:2; stroke-opacity:0.1; fill:none" points="
  1799.4,1423.18 1799.4,123.472 
  "/>
<polyline clip-path="url(#clip052)" style="stroke:#000000; stroke-linecap:butt; stroke-linejoin:round; stroke-width:2; stroke-opacity:0.1; fill:none" points="
  2197.21,1423.18 2197.21,123.472 
  "/>
<polyline clip-path="url(#clip050)" style="stroke:#000000; stroke-linecap:butt; stroke-linejoin:round; stroke-width:4; stroke-opacity:1; fill:none" points="
  370.861,1423.18 2352.76,1423.18 
  "/>
<polyline clip-path="url(#clip050)" style="stroke:#000000; stroke-linecap:butt; stroke-linejoin:round; stroke-width:4; stroke-opacity:1; fill:none" points="
  605.967,1423.18 605.967,1404.28 
  "/>
<polyline clip-path="url(#clip050)" style="stroke:#000000; stroke-linecap:butt; stroke-linejoin:round; stroke-width:4; stroke-opacity:1; fill:none" points="
  1003.78,1423.18 1003.78,1404.28 
  "/>
<polyline clip-path="url(#clip050)" style="stroke:#000000; stroke-linecap:butt; stroke-linejoin:round; stroke-width:4; stroke-opacity:1; fill:none" points="
  1401.59,1423.18 1401.59,1404.28 
  "/>
<polyline clip-path="url(#clip050)" style="stroke:#000000; stroke-linecap:butt; stroke-linejoin:round; stroke-width:4; stroke-opacity:1; fill:none" points="
  1799.4,1423.18 1799.4,1404.28 
  "/>
<polyline clip-path="url(#clip050)" style="stroke:#000000; stroke-linecap:butt; stroke-linejoin:round; stroke-width:4; stroke-opacity:1; fill:none" points="
  2197.21,1423.18 2197.21,1404.28 
  "/>
<path clip-path="url(#clip050)" d="M600.62 1481.64 L616.939 1481.64 L616.939 1485.58 L594.995 1485.58 L594.995 1481.64 Q597.657 1478.89 602.24 1474.26 Q606.847 1469.61 608.027 1468.27 Q610.273 1465.74 611.152 1464.01 Q612.055 1462.25 612.055 1460.56 Q612.055 1457.8 610.111 1456.07 Q608.189 1454.33 605.088 1454.33 Q602.889 1454.33 600.435 1455.09 Q598.004 1455.86 595.227 1457.41 L595.227 1452.69 Q598.051 1451.55 600.504 1450.97 Q602.958 1450.39 604.995 1450.39 Q610.365 1450.39 613.56 1453.08 Q616.754 1455.77 616.754 1460.26 Q616.754 1462.39 615.944 1464.31 Q615.157 1466.2 613.051 1468.8 Q612.472 1469.47 609.37 1472.69 Q606.268 1475.88 600.62 1481.64 Z" fill="#000000" fill-rule="evenodd" fill-opacity="1" /><path clip-path="url(#clip050)" d="M1006.79 1455.09 L994.982 1473.54 L1006.79 1473.54 L1006.79 1455.09 M1005.56 1451.02 L1011.44 1451.02 L1011.44 1473.54 L1016.37 1473.54 L1016.37 1477.43 L1011.44 1477.43 L1011.44 1485.58 L1006.79 1485.58 L1006.79 1477.43 L991.186 1477.43 L991.186 1472.92 L1005.56 1451.02 Z" fill="#000000" fill-rule="evenodd" fill-opacity="1" /><path clip-path="url(#clip050)" d="M1401.99 1466.44 Q1398.85 1466.44 1396.99 1468.59 Q1395.17 1470.74 1395.17 1474.49 Q1395.17 1478.22 1396.99 1480.39 Q1398.85 1482.55 1401.99 1482.55 Q1405.14 1482.55 1406.97 1480.39 Q1408.82 1478.22 1408.82 1474.49 Q1408.82 1470.74 1406.97 1468.59 Q1405.14 1466.44 1401.99 1466.44 M1411.28 1451.78 L1411.28 1456.04 Q1409.52 1455.21 1407.71 1454.77 Q1405.93 1454.33 1404.17 1454.33 Q1399.54 1454.33 1397.09 1457.45 Q1394.66 1460.58 1394.31 1466.9 Q1395.68 1464.89 1397.74 1463.82 Q1399.8 1462.73 1402.27 1462.73 Q1407.48 1462.73 1410.49 1465.9 Q1413.52 1469.05 1413.52 1474.49 Q1413.52 1479.82 1410.37 1483.03 Q1407.23 1486.25 1401.99 1486.25 Q1396 1486.25 1392.83 1481.67 Q1389.66 1477.06 1389.66 1468.33 Q1389.66 1460.14 1393.55 1455.28 Q1397.43 1450.39 1403.99 1450.39 Q1405.74 1450.39 1407.53 1450.74 Q1409.33 1451.09 1411.28 1451.78 Z" fill="#000000" fill-rule="evenodd" fill-opacity="1" /><path clip-path="url(#clip050)" d="M1799.4 1469.17 Q1796.07 1469.17 1794.15 1470.95 Q1792.25 1472.73 1792.25 1475.86 Q1792.25 1478.98 1794.15 1480.77 Q1796.07 1482.55 1799.4 1482.55 Q1802.73 1482.55 1804.66 1480.77 Q1806.58 1478.96 1806.58 1475.86 Q1806.58 1472.73 1804.66 1470.95 Q1802.76 1469.17 1799.4 1469.17 M1794.72 1467.18 Q1791.72 1466.44 1790.03 1464.38 Q1788.36 1462.32 1788.36 1459.35 Q1788.36 1455.21 1791.3 1452.8 Q1794.26 1450.39 1799.4 1450.39 Q1804.56 1450.39 1807.5 1452.8 Q1810.44 1455.21 1810.44 1459.35 Q1810.44 1462.32 1808.75 1464.38 Q1807.09 1466.44 1804.1 1467.18 Q1807.48 1467.96 1809.35 1470.26 Q1811.25 1472.55 1811.25 1475.86 Q1811.25 1480.88 1808.17 1483.57 Q1805.12 1486.25 1799.4 1486.25 Q1793.68 1486.25 1790.6 1483.57 Q1787.55 1480.88 1787.55 1475.86 Q1787.55 1472.55 1789.45 1470.26 Q1791.35 1467.96 1794.72 1467.18 M1793.01 1459.79 Q1793.01 1462.48 1794.68 1463.98 Q1796.37 1465.49 1799.4 1465.49 Q1802.41 1465.49 1804.1 1463.98 Q1805.81 1462.48 1805.81 1459.79 Q1805.81 1457.11 1804.1 1455.6 Q1802.41 1454.1 1799.4 1454.1 Q1796.37 1454.1 1794.68 1455.6 Q1793.01 1457.11 1793.01 1459.79 Z" fill="#000000" fill-rule="evenodd" fill-opacity="1" /><path clip-path="url(#clip050)" d="M2171.9 1481.64 L2179.54 1481.64 L2179.54 1455.28 L2171.23 1456.95 L2171.23 1452.69 L2179.49 1451.02 L2184.17 1451.02 L2184.17 1481.64 L2191.81 1481.64 L2191.81 1485.58 L2171.9 1485.58 L2171.9 1481.64 Z" fill="#000000" fill-rule="evenodd" fill-opacity="1" /><path clip-path="url(#clip050)" d="M2211.25 1454.1 Q2207.64 1454.1 2205.81 1457.66 Q2204.01 1461.2 2204.01 1468.33 Q2204.01 1475.44 2205.81 1479.01 Q2207.64 1482.55 2211.25 1482.55 Q2214.89 1482.55 2216.69 1479.01 Q2218.52 1475.44 2218.52 1468.33 Q2218.52 1461.2 2216.69 1457.66 Q2214.89 1454.1 2211.25 1454.1 M2211.25 1450.39 Q2217.06 1450.39 2220.12 1455 Q2223.2 1459.58 2223.2 1468.33 Q2223.2 1477.06 2220.12 1481.67 Q2217.06 1486.25 2211.25 1486.25 Q2205.44 1486.25 2202.36 1481.67 Q2199.31 1477.06 2199.31 1468.33 Q2199.31 1459.58 2202.36 1455 Q2205.44 1450.39 2211.25 1450.39 Z" fill="#000000" fill-rule="evenodd" fill-opacity="1" /><path clip-path="url(#clip050)" d="M1043.6 1520.52 L1050.51 1520.52 L1063.69 1540.07 L1076.77 1520.52 L1083.67 1520.52 L1066.87 1545.41 L1066.87 1568.04 L1060.41 1568.04 L1060.41 1545.41 L1043.6 1520.52 Z" fill="#000000" fill-rule="evenodd" fill-opacity="1" /><path clip-path="url(#clip050)" d="M1111.52 1548.76 L1111.52 1551.62 L1084.6 1551.62 Q1084.98 1557.67 1088.23 1560.85 Q1091.5 1564 1097.33 1564 Q1100.7 1564 1103.85 1563.17 Q1107.04 1562.35 1110.16 1560.69 L1110.16 1566.23 Q1107.01 1567.57 1103.69 1568.27 Q1100.38 1568.97 1096.98 1568.97 Q1088.45 1568.97 1083.45 1564 Q1078.49 1559.04 1078.49 1550.57 Q1078.49 1541.82 1083.2 1536.69 Q1087.94 1531.54 1095.96 1531.54 Q1103.15 1531.54 1107.32 1536.18 Q1111.52 1540.8 1111.52 1548.76 M1105.67 1547.04 Q1105.6 1542.23 1102.96 1539.37 Q1100.35 1536.5 1096.02 1536.5 Q1091.12 1536.5 1088.16 1539.27 Q1085.23 1542.04 1084.79 1547.07 L1105.67 1547.04 Z" fill="#000000" fill-rule="evenodd" fill-opacity="1" /><path clip-path="url(#clip050)" d="M1137.34 1550.12 Q1130.24 1550.12 1127.5 1551.75 Q1124.77 1553.37 1124.77 1557.29 Q1124.77 1560.4 1126.8 1562.25 Q1128.87 1564.07 1132.4 1564.07 Q1137.27 1564.07 1140.2 1560.63 Q1143.16 1557.16 1143.16 1551.43 L1143.16 1550.12 L1137.34 1550.12 M1149.02 1547.71 L1149.02 1568.04 L1143.16 1568.04 L1143.16 1562.63 Q1141.16 1565.88 1138.17 1567.44 Q1135.17 1568.97 1130.84 1568.97 Q1125.37 1568.97 1122.12 1565.91 Q1118.91 1562.82 1118.91 1557.67 Q1118.91 1551.65 1122.92 1548.6 Q1126.96 1545.54 1134.95 1545.54 L1143.16 1545.54 L1143.16 1544.97 Q1143.16 1540.93 1140.49 1538.73 Q1137.85 1536.5 1133.04 1536.5 Q1129.99 1536.5 1127.09 1537.23 Q1124.19 1537.97 1121.52 1539.43 L1121.52 1534.02 Q1124.73 1532.78 1127.76 1532.17 Q1130.78 1531.54 1133.65 1531.54 Q1141.38 1531.54 1145.2 1535.55 Q1149.02 1539.56 1149.02 1547.71 Z" fill="#000000" fill-rule="evenodd" fill-opacity="1" /><path clip-path="url(#clip050)" d="M1181.74 1537.87 Q1180.75 1537.3 1179.57 1537.04 Q1178.43 1536.76 1177.03 1536.76 Q1172.06 1536.76 1169.39 1540 Q1166.75 1543.22 1166.75 1549.27 L1166.75 1568.04 L1160.86 1568.04 L1160.86 1532.4 L1166.75 1532.4 L1166.75 1537.93 Q1168.59 1534.69 1171.55 1533.13 Q1174.51 1531.54 1178.75 1531.54 Q1179.35 1531.54 1180.08 1531.63 Q1180.82 1531.7 1181.71 1531.85 L1181.74 1537.87 Z" fill="#000000" fill-rule="evenodd" fill-opacity="1" /><path clip-path="url(#clip050)" d="M1210.61 1533.45 L1210.61 1538.98 Q1208.12 1537.71 1205.45 1537.07 Q1202.78 1536.44 1199.91 1536.44 Q1195.55 1536.44 1193.36 1537.77 Q1191.19 1539.11 1191.19 1541.79 Q1191.19 1543.82 1192.75 1545 Q1194.31 1546.15 1199.02 1547.2 L1201.03 1547.64 Q1207.26 1548.98 1209.87 1551.43 Q1212.52 1553.85 1212.52 1558.21 Q1212.52 1563.17 1208.57 1566.07 Q1204.65 1568.97 1197.78 1568.97 Q1194.92 1568.97 1191.8 1568.39 Q1188.71 1567.85 1185.27 1566.74 L1185.27 1560.69 Q1188.52 1562.38 1191.67 1563.24 Q1194.82 1564.07 1197.91 1564.07 Q1202.05 1564.07 1204.27 1562.66 Q1206.5 1561.23 1206.5 1558.65 Q1206.5 1556.27 1204.88 1554.99 Q1203.29 1553.72 1197.84 1552.54 L1195.81 1552.07 Q1190.36 1550.92 1187.95 1548.56 Q1185.53 1546.18 1185.53 1542.04 Q1185.53 1537.01 1189.09 1534.27 Q1192.66 1531.54 1199.21 1531.54 Q1202.46 1531.54 1205.32 1532.01 Q1208.19 1532.49 1210.61 1533.45 Z" fill="#000000" fill-rule="evenodd" fill-opacity="1" /><path clip-path="url(#clip050)" d="M1256.38 1536.5 Q1251.67 1536.5 1248.93 1540.19 Q1246.19 1543.85 1246.19 1550.25 Q1246.19 1556.65 1248.9 1560.34 Q1251.63 1564 1256.38 1564 Q1261.06 1564 1263.79 1560.31 Q1266.53 1556.62 1266.53 1550.25 Q1266.53 1543.92 1263.79 1540.23 Q1261.06 1536.5 1256.38 1536.5 M1256.38 1531.54 Q1264.02 1531.54 1268.38 1536.5 Q1272.74 1541.47 1272.74 1550.25 Q1272.74 1559 1268.38 1564 Q1264.02 1568.97 1256.38 1568.97 Q1248.71 1568.97 1244.35 1564 Q1240.02 1559 1240.02 1550.25 Q1240.02 1541.47 1244.35 1536.5 Q1248.71 1531.54 1256.38 1531.54 Z" fill="#000000" fill-rule="evenodd" fill-opacity="1" /><path clip-path="url(#clip050)" d="M1300.49 1518.52 L1300.49 1523.39 L1294.89 1523.39 Q1291.74 1523.39 1290.5 1524.66 Q1289.29 1525.93 1289.29 1529.24 L1289.29 1532.4 L1298.93 1532.4 L1298.93 1536.95 L1289.29 1536.95 L1289.29 1568.04 L1283.4 1568.04 L1283.4 1536.95 L1277.8 1536.95 L1277.8 1532.4 L1283.4 1532.4 L1283.4 1529.91 Q1283.4 1523.96 1286.17 1521.26 Q1288.94 1518.52 1294.95 1518.52 L1300.49 1518.52 Z" fill="#000000" fill-rule="evenodd" fill-opacity="1" /><path clip-path="url(#clip050)" d="M1326.37 1520.52 L1356.41 1520.52 L1356.41 1525.93 L1332.8 1525.93 L1332.8 1540 L1355.43 1540 L1355.43 1545.41 L1332.8 1545.41 L1332.8 1562.63 L1356.99 1562.63 L1356.99 1568.04 L1326.37 1568.04 L1326.37 1520.52 Z" fill="#000000" fill-rule="evenodd" fill-opacity="1" /><path clip-path="url(#clip050)" d="M1396.93 1532.4 L1384.04 1549.74 L1397.6 1568.04 L1390.69 1568.04 L1380.32 1554.04 L1369.94 1568.04 L1363.03 1568.04 L1376.88 1549.39 L1364.21 1532.4 L1371.12 1532.4 L1380.57 1545.1 L1390.02 1532.4 L1396.93 1532.4 Z" fill="#000000" fill-rule="evenodd" fill-opacity="1" /><path clip-path="url(#clip050)" d="M1411.54 1562.7 L1411.54 1581.6 L1405.65 1581.6 L1405.65 1532.4 L1411.54 1532.4 L1411.54 1537.81 Q1413.39 1534.62 1416.19 1533.1 Q1419.02 1531.54 1422.94 1531.54 Q1429.43 1531.54 1433.47 1536.69 Q1437.54 1541.85 1437.54 1550.25 Q1437.54 1558.65 1433.47 1563.81 Q1429.43 1568.97 1422.94 1568.97 Q1419.02 1568.97 1416.19 1567.44 Q1413.39 1565.88 1411.54 1562.7 M1431.47 1550.25 Q1431.47 1543.79 1428.79 1540.13 Q1426.15 1536.44 1421.5 1536.44 Q1416.86 1536.44 1414.18 1540.13 Q1411.54 1543.79 1411.54 1550.25 Q1411.54 1556.71 1414.18 1560.4 Q1416.86 1564.07 1421.5 1564.07 Q1426.15 1564.07 1428.79 1560.4 Q1431.47 1556.71 1431.47 1550.25 Z" fill="#000000" fill-rule="evenodd" fill-opacity="1" /><path clip-path="url(#clip050)" d="M1477.74 1548.76 L1477.74 1551.62 L1450.82 1551.62 Q1451.2 1557.67 1454.45 1560.85 Q1457.72 1564 1463.55 1564 Q1466.92 1564 1470.07 1563.17 Q1473.26 1562.35 1476.38 1560.69 L1476.38 1566.23 Q1473.22 1567.57 1469.91 1568.27 Q1466.6 1568.97 1463.2 1568.97 Q1454.67 1568.97 1449.67 1564 Q1444.71 1559.04 1444.71 1550.57 Q1444.71 1541.82 1449.42 1536.69 Q1454.16 1531.54 1462.18 1531.54 Q1469.37 1531.54 1473.54 1536.18 Q1477.74 1540.8 1477.74 1548.76 M1471.89 1547.04 Q1471.82 1542.23 1469.18 1539.37 Q1466.57 1536.5 1462.24 1536.5 Q1457.34 1536.5 1454.38 1539.27 Q1451.45 1542.04 1451.01 1547.07 L1471.89 1547.04 Z" fill="#000000" fill-rule="evenodd" fill-opacity="1" /><path clip-path="url(#clip050)" d="M1508.01 1537.87 Q1507.03 1537.3 1505.85 1537.04 Q1504.7 1536.76 1503.3 1536.76 Q1498.34 1536.76 1495.66 1540 Q1493.02 1543.22 1493.02 1549.27 L1493.02 1568.04 L1487.13 1568.04 L1487.13 1532.4 L1493.02 1532.4 L1493.02 1537.93 Q1494.87 1534.69 1497.83 1533.13 Q1500.79 1531.54 1505.02 1531.54 Q1505.63 1531.54 1506.36 1531.63 Q1507.09 1531.7 1507.98 1531.85 L1508.01 1537.87 Z" fill="#000000" fill-rule="evenodd" fill-opacity="1" /><path clip-path="url(#clip050)" d="M1514.16 1532.4 L1520.01 1532.4 L1520.01 1568.04 L1514.16 1568.04 L1514.16 1532.4 M1514.16 1518.52 L1520.01 1518.52 L1520.01 1525.93 L1514.16 1525.93 L1514.16 1518.52 Z" fill="#000000" fill-rule="evenodd" fill-opacity="1" /><path clip-path="url(#clip050)" d="M1562.76 1548.76 L1562.76 1551.62 L1535.83 1551.62 Q1536.21 1557.67 1539.46 1560.85 Q1542.74 1564 1548.56 1564 Q1551.94 1564 1555.09 1563.17 Q1558.27 1562.35 1561.39 1560.69 L1561.39 1566.23 Q1558.24 1567.57 1554.93 1568.27 Q1551.62 1568.97 1548.21 1568.97 Q1539.68 1568.97 1534.69 1564 Q1529.72 1559.04 1529.72 1550.57 Q1529.72 1541.82 1534.43 1536.69 Q1539.17 1531.54 1547.19 1531.54 Q1554.39 1531.54 1558.56 1536.18 Q1562.76 1540.8 1562.76 1548.76 M1556.9 1547.04 Q1556.84 1542.23 1554.2 1539.37 Q1551.59 1536.5 1547.26 1536.5 Q1542.36 1536.5 1539.4 1539.27 Q1536.47 1542.04 1536.02 1547.07 L1556.9 1547.04 Z" fill="#000000" fill-rule="evenodd" fill-opacity="1" /><path clip-path="url(#clip050)" d="M1602 1546.53 L1602 1568.04 L1596.15 1568.04 L1596.15 1546.72 Q1596.15 1541.66 1594.17 1539.14 Q1592.2 1536.63 1588.25 1536.63 Q1583.51 1536.63 1580.77 1539.65 Q1578.04 1542.68 1578.04 1547.9 L1578.04 1568.04 L1572.15 1568.04 L1572.15 1532.4 L1578.04 1532.4 L1578.04 1537.93 Q1580.14 1534.72 1582.97 1533.13 Q1585.83 1531.54 1589.56 1531.54 Q1595.7 1531.54 1598.85 1535.36 Q1602 1539.14 1602 1546.53 Z" fill="#000000" fill-rule="evenodd" fill-opacity="1" /><path clip-path="url(#clip050)" d="M1639.34 1533.76 L1639.34 1539.24 Q1636.85 1537.87 1634.34 1537.2 Q1631.86 1536.5 1629.31 1536.5 Q1623.61 1536.5 1620.46 1540.13 Q1617.31 1543.73 1617.31 1550.25 Q1617.31 1556.78 1620.46 1560.4 Q1623.61 1564 1629.31 1564 Q1631.86 1564 1634.34 1563.33 Q1636.85 1562.63 1639.34 1561.26 L1639.34 1566.68 Q1636.89 1567.82 1634.24 1568.39 Q1631.63 1568.97 1628.67 1568.97 Q1620.62 1568.97 1615.88 1563.91 Q1611.14 1558.85 1611.14 1550.25 Q1611.14 1541.53 1615.91 1536.53 Q1620.72 1531.54 1629.06 1531.54 Q1631.76 1531.54 1634.34 1532.11 Q1636.92 1532.65 1639.34 1533.76 Z" fill="#000000" fill-rule="evenodd" fill-opacity="1" /><path clip-path="url(#clip050)" d="M1680.01 1548.76 L1680.01 1551.62 L1653.09 1551.62 Q1653.47 1557.67 1656.72 1560.85 Q1659.99 1564 1665.82 1564 Q1669.19 1564 1672.34 1563.17 Q1675.53 1562.35 1678.65 1560.69 L1678.65 1566.23 Q1675.49 1567.57 1672.18 1568.27 Q1668.87 1568.97 1665.47 1568.97 Q1656.94 1568.97 1651.94 1564 Q1646.98 1559.04 1646.98 1550.57 Q1646.98 1541.82 1651.69 1536.69 Q1656.43 1531.54 1664.45 1531.54 Q1671.64 1531.54 1675.81 1536.18 Q1680.01 1540.8 1680.01 1548.76 M1674.16 1547.04 Q1674.09 1542.23 1671.45 1539.37 Q1668.84 1536.5 1664.51 1536.5 Q1659.61 1536.5 1656.65 1539.27 Q1653.72 1542.04 1653.28 1547.07 L1674.16 1547.04 Z" fill="#000000" fill-rule="evenodd" fill-opacity="1" /><polyline clip-path="url(#clip052)" style="stroke:#000000; stroke-linecap:butt; stroke-linejoin:round; stroke-width:2; stroke-opacity:0.1; fill:none" points="
  370.861,1353.53 2352.76,1353.53 
  "/>
<polyline clip-path="url(#clip052)" style="stroke:#000000; stroke-linecap:butt; stroke-linejoin:round; stroke-width:2; stroke-opacity:0.1; fill:none" points="
  370.861,1063.87 2352.76,1063.87 
  "/>
<polyline clip-path="url(#clip052)" style="stroke:#000000; stroke-linecap:butt; stroke-linejoin:round; stroke-width:2; stroke-opacity:0.1; fill:none" points="
  370.861,774.209 2352.76,774.209 
  "/>
<polyline clip-path="url(#clip052)" style="stroke:#000000; stroke-linecap:butt; stroke-linejoin:round; stroke-width:2; stroke-opacity:0.1; fill:none" points="
  370.861,484.547 2352.76,484.547 
  "/>
<polyline clip-path="url(#clip052)" style="stroke:#000000; stroke-linecap:butt; stroke-linejoin:round; stroke-width:2; stroke-opacity:0.1; fill:none" points="
  370.861,194.885 2352.76,194.885 
  "/>
<polyline clip-path="url(#clip050)" style="stroke:#000000; stroke-linecap:butt; stroke-linejoin:round; stroke-width:4; stroke-opacity:1; fill:none" points="
  370.861,1423.18 370.861,123.472 
  "/>
<polyline clip-path="url(#clip050)" style="stroke:#000000; stroke-linecap:butt; stroke-linejoin:round; stroke-width:4; stroke-opacity:1; fill:none" points="
  370.861,1353.53 389.758,1353.53 
  "/>
<polyline clip-path="url(#clip050)" style="stroke:#000000; stroke-linecap:butt; stroke-linejoin:round; stroke-width:4; stroke-opacity:1; fill:none" points="
  370.861,1063.87 389.758,1063.87 
  "/>
<polyline clip-path="url(#clip050)" style="stroke:#000000; stroke-linecap:butt; stroke-linejoin:round; stroke-width:4; stroke-opacity:1; fill:none" points="
  370.861,774.209 389.758,774.209 
  "/>
<polyline clip-path="url(#clip050)" style="stroke:#000000; stroke-linecap:butt; stroke-linejoin:round; stroke-width:4; stroke-opacity:1; fill:none" points="
  370.861,484.547 389.758,484.547 
  "/>
<polyline clip-path="url(#clip050)" style="stroke:#000000; stroke-linecap:butt; stroke-linejoin:round; stroke-width:4; stroke-opacity:1; fill:none" points="
  370.861,194.885 389.758,194.885 
  "/>
<path clip-path="url(#clip050)" d="M129.862 1346.78 L118.056 1365.22 L129.862 1365.22 L129.862 1346.78 M128.635 1342.7 L134.515 1342.7 L134.515 1365.22 L139.445 1365.22 L139.445 1369.11 L134.515 1369.11 L134.515 1377.26 L129.862 1377.26 L129.862 1369.11 L114.26 1369.11 L114.26 1364.6 L128.635 1342.7 Z" fill="#000000" fill-rule="evenodd" fill-opacity="1" /><path clip-path="url(#clip050)" d="M147.177 1371.38 L152.061 1371.38 L152.061 1377.26 L147.177 1377.26 L147.177 1371.38 Z" fill="#000000" fill-rule="evenodd" fill-opacity="1" /><path clip-path="url(#clip050)" d="M172.246 1345.78 Q168.635 1345.78 166.806 1349.34 Q165.001 1352.89 165.001 1360.02 Q165.001 1367.12 166.806 1370.69 Q168.635 1374.23 172.246 1374.23 Q175.88 1374.23 177.686 1370.69 Q179.514 1367.12 179.514 1360.02 Q179.514 1352.89 177.686 1349.34 Q175.88 1345.78 172.246 1345.78 M172.246 1342.08 Q178.056 1342.08 181.112 1346.68 Q184.19 1351.27 184.19 1360.02 Q184.19 1368.74 181.112 1373.35 Q178.056 1377.93 172.246 1377.93 Q166.436 1377.93 163.357 1373.35 Q160.302 1368.74 160.302 1360.02 Q160.302 1351.27 163.357 1346.68 Q166.436 1342.08 172.246 1342.08 Z" fill="#000000" fill-rule="evenodd" fill-opacity="1" /><path clip-path="url(#clip050)" d="M202.408 1345.78 Q198.797 1345.78 196.968 1349.34 Q195.163 1352.89 195.163 1360.02 Q195.163 1367.12 196.968 1370.69 Q198.797 1374.23 202.408 1374.23 Q206.042 1374.23 207.848 1370.69 Q209.676 1367.12 209.676 1360.02 Q209.676 1352.89 207.848 1349.34 Q206.042 1345.78 202.408 1345.78 M202.408 1342.08 Q208.218 1342.08 211.274 1346.68 Q214.352 1351.27 214.352 1360.02 Q214.352 1368.74 211.274 1373.35 Q208.218 1377.93 202.408 1377.93 Q196.598 1377.93 193.519 1373.35 Q190.463 1368.74 190.463 1360.02 Q190.463 1351.27 193.519 1346.68 Q196.598 1342.08 202.408 1342.08 Z" fill="#000000" fill-rule="evenodd" fill-opacity="1" /><path clip-path="url(#clip050)" d="M250.741 1351.8 L240.162 1362.42 L250.741 1373 L247.986 1375.8 L237.361 1365.18 L226.736 1375.8 L224.005 1373 L234.56 1362.42 L224.005 1351.8 L226.736 1349 L237.361 1359.62 L247.986 1349 L250.741 1351.8 Z" fill="#000000" fill-rule="evenodd" fill-opacity="1" /><path clip-path="url(#clip050)" d="M263.102 1373.33 L270.741 1373.33 L270.741 1346.96 L262.431 1348.63 L262.431 1344.37 L270.695 1342.7 L275.37 1342.7 L275.37 1373.33 L283.009 1373.33 L283.009 1377.26 L263.102 1377.26 L263.102 1373.33 Z" fill="#000000" fill-rule="evenodd" fill-opacity="1" /><path clip-path="url(#clip050)" d="M302.454 1345.78 Q298.843 1345.78 297.014 1349.34 Q295.208 1352.89 295.208 1360.02 Q295.208 1367.12 297.014 1370.69 Q298.843 1374.23 302.454 1374.23 Q306.088 1374.23 307.893 1370.69 Q309.722 1367.12 309.722 1360.02 Q309.722 1352.89 307.893 1349.34 Q306.088 1345.78 302.454 1345.78 M302.454 1342.08 Q308.264 1342.08 311.319 1346.68 Q314.398 1351.27 314.398 1360.02 Q314.398 1368.74 311.319 1373.35 Q308.264 1377.93 302.454 1377.93 Q296.643 1377.93 293.565 1373.35 Q290.509 1368.74 290.509 1360.02 Q290.509 1351.27 293.565 1346.68 Q296.643 1342.08 302.454 1342.08 Z" fill="#000000" fill-rule="evenodd" fill-opacity="1" /><path clip-path="url(#clip050)" d="M327.074 1325.08 L317.482 1340.07 L327.074 1340.07 L327.074 1325.08 M326.078 1321.77 L330.855 1321.77 L330.855 1340.07 L334.861 1340.07 L334.861 1343.23 L330.855 1343.23 L330.855 1349.85 L327.074 1349.85 L327.074 1343.23 L314.398 1343.23 L314.398 1339.56 L326.078 1321.77 Z" fill="#000000" fill-rule="evenodd" fill-opacity="1" /><path clip-path="url(#clip050)" d="M127.593 1068.46 Q124.445 1068.46 122.593 1070.61 Q120.765 1072.76 120.765 1076.51 Q120.765 1080.24 122.593 1082.41 Q124.445 1084.57 127.593 1084.57 Q130.742 1084.57 132.57 1082.41 Q134.422 1080.24 134.422 1076.51 Q134.422 1072.76 132.57 1070.61 Q130.742 1068.46 127.593 1068.46 M136.876 1053.8 L136.876 1058.06 Q135.117 1057.23 133.311 1056.79 Q131.529 1056.35 129.769 1056.35 Q125.14 1056.35 122.686 1059.47 Q120.255 1062.6 119.908 1068.92 Q121.274 1066.9 123.334 1065.84 Q125.394 1064.75 127.871 1064.75 Q133.08 1064.75 136.089 1067.92 Q139.121 1071.07 139.121 1076.51 Q139.121 1081.84 135.973 1085.05 Q132.825 1088.27 127.593 1088.27 Q121.598 1088.27 118.427 1083.69 Q115.256 1079.08 115.256 1070.35 Q115.256 1062.16 119.144 1057.3 Q123.033 1052.41 129.584 1052.41 Q131.343 1052.41 133.126 1052.76 Q134.931 1053.11 136.876 1053.8 Z" fill="#000000" fill-rule="evenodd" fill-opacity="1" /><path clip-path="url(#clip050)" d="M147.177 1081.72 L152.061 1081.72 L152.061 1087.6 L147.177 1087.6 L147.177 1081.72 Z" fill="#000000" fill-rule="evenodd" fill-opacity="1" /><path clip-path="url(#clip050)" d="M172.246 1056.12 Q168.635 1056.12 166.806 1059.68 Q165.001 1063.22 165.001 1070.35 Q165.001 1077.46 166.806 1081.03 Q168.635 1084.57 172.246 1084.57 Q175.88 1084.57 177.686 1081.03 Q179.514 1077.46 179.514 1070.35 Q179.514 1063.22 177.686 1059.68 Q175.88 1056.12 172.246 1056.12 M172.246 1052.41 Q178.056 1052.41 181.112 1057.02 Q184.19 1061.6 184.19 1070.35 Q184.19 1079.08 181.112 1083.69 Q178.056 1088.27 172.246 1088.27 Q166.436 1088.27 163.357 1083.69 Q160.302 1079.08 160.302 1070.35 Q160.302 1061.6 163.357 1057.02 Q166.436 1052.41 172.246 1052.41 Z" fill="#000000" fill-rule="evenodd" fill-opacity="1" /><path clip-path="url(#clip050)" d="M202.408 1056.12 Q198.797 1056.12 196.968 1059.68 Q195.163 1063.22 195.163 1070.35 Q195.163 1077.46 196.968 1081.03 Q198.797 1084.57 202.408 1084.57 Q206.042 1084.57 207.848 1081.03 Q209.676 1077.46 209.676 1070.35 Q209.676 1063.22 207.848 1059.68 Q206.042 1056.12 202.408 1056.12 M202.408 1052.41 Q208.218 1052.41 211.274 1057.02 Q214.352 1061.6 214.352 1070.35 Q214.352 1079.08 211.274 1083.69 Q208.218 1088.27 202.408 1088.27 Q196.598 1088.27 193.519 1083.69 Q190.463 1079.08 190.463 1070.35 Q190.463 1061.6 193.519 1057.02 Q196.598 1052.41 202.408 1052.41 Z" fill="#000000" fill-rule="evenodd" fill-opacity="1" /><path clip-path="url(#clip050)" d="M250.741 1062.14 L240.162 1072.76 L250.741 1083.34 L247.986 1086.14 L237.361 1075.52 L226.736 1086.14 L224.005 1083.34 L234.56 1072.76 L224.005 1062.14 L226.736 1059.34 L237.361 1069.96 L247.986 1059.34 L250.741 1062.14 Z" fill="#000000" fill-rule="evenodd" fill-opacity="1" /><path clip-path="url(#clip050)" d="M263.102 1083.66 L270.741 1083.66 L270.741 1057.3 L262.431 1058.96 L262.431 1054.71 L270.695 1053.04 L275.37 1053.04 L275.37 1083.66 L283.009 1083.66 L283.009 1087.6 L263.102 1087.6 L263.102 1083.66 Z" fill="#000000" fill-rule="evenodd" fill-opacity="1" /><path clip-path="url(#clip050)" d="M302.454 1056.12 Q298.843 1056.12 297.014 1059.68 Q295.208 1063.22 295.208 1070.35 Q295.208 1077.46 297.014 1081.03 Q298.843 1084.57 302.454 1084.57 Q306.088 1084.57 307.893 1081.03 Q309.722 1077.46 309.722 1070.35 Q309.722 1063.22 307.893 1059.68 Q306.088 1056.12 302.454 1056.12 M302.454 1052.41 Q308.264 1052.41 311.319 1057.02 Q314.398 1061.6 314.398 1070.35 Q314.398 1079.08 311.319 1083.69 Q308.264 1088.27 302.454 1088.27 Q296.643 1088.27 293.565 1083.69 Q290.509 1079.08 290.509 1070.35 Q290.509 1061.6 293.565 1057.02 Q296.643 1052.41 302.454 1052.41 Z" fill="#000000" fill-rule="evenodd" fill-opacity="1" /><path clip-path="url(#clip050)" d="M327.074 1035.42 L317.482 1050.41 L327.074 1050.41 L327.074 1035.42 M326.078 1032.11 L330.855 1032.11 L330.855 1050.41 L334.861 1050.41 L334.861 1053.57 L330.855 1053.57 L330.855 1060.19 L327.074 1060.19 L327.074 1053.57 L314.398 1053.57 L314.398 1049.9 L326.078 1032.11 Z" fill="#000000" fill-rule="evenodd" fill-opacity="1" /><path clip-path="url(#clip050)" d="M127.015 781.525 Q123.681 781.525 121.76 783.308 Q119.862 785.09 119.862 788.215 Q119.862 791.34 121.76 793.122 Q123.681 794.905 127.015 794.905 Q130.348 794.905 132.269 793.122 Q134.191 791.317 134.191 788.215 Q134.191 785.09 132.269 783.308 Q130.371 781.525 127.015 781.525 M122.339 779.534 Q119.33 778.794 117.64 776.733 Q115.973 774.673 115.973 771.71 Q115.973 767.567 118.913 765.159 Q121.876 762.752 127.015 762.752 Q132.177 762.752 135.117 765.159 Q138.056 767.567 138.056 771.71 Q138.056 774.673 136.367 776.733 Q134.7 778.794 131.714 779.534 Q135.093 780.321 136.968 782.613 Q138.867 784.905 138.867 788.215 Q138.867 793.238 135.788 795.923 Q132.732 798.608 127.015 798.608 Q121.297 798.608 118.218 795.923 Q115.163 793.238 115.163 788.215 Q115.163 784.905 117.061 782.613 Q118.959 780.321 122.339 779.534 M120.626 772.15 Q120.626 774.835 122.293 776.34 Q123.982 777.845 127.015 777.845 Q130.024 777.845 131.714 776.34 Q133.427 774.835 133.427 772.15 Q133.427 769.465 131.714 767.96 Q130.024 766.456 127.015 766.456 Q123.982 766.456 122.293 767.96 Q120.626 769.465 120.626 772.15 Z" fill="#000000" fill-rule="evenodd" fill-opacity="1" /><path clip-path="url(#clip050)" d="M147.177 792.057 L152.061 792.057 L152.061 797.937 L147.177 797.937 L147.177 792.057 Z" fill="#000000" fill-rule="evenodd" fill-opacity="1" /><path clip-path="url(#clip050)" d="M172.246 766.456 Q168.635 766.456 166.806 770.021 Q165.001 773.562 165.001 780.692 Q165.001 787.798 166.806 791.363 Q168.635 794.905 172.246 794.905 Q175.88 794.905 177.686 791.363 Q179.514 787.798 179.514 780.692 Q179.514 773.562 177.686 770.021 Q175.88 766.456 172.246 766.456 M172.246 762.752 Q178.056 762.752 181.112 767.359 Q184.19 771.942 184.19 780.692 Q184.19 789.419 181.112 794.025 Q178.056 798.608 172.246 798.608 Q166.436 798.608 163.357 794.025 Q160.302 789.419 160.302 780.692 Q160.302 771.942 163.357 767.359 Q166.436 762.752 172.246 762.752 Z" fill="#000000" fill-rule="evenodd" fill-opacity="1" /><path clip-path="url(#clip050)" d="M202.408 766.456 Q198.797 766.456 196.968 770.021 Q195.163 773.562 195.163 780.692 Q195.163 787.798 196.968 791.363 Q198.797 794.905 202.408 794.905 Q206.042 794.905 207.848 791.363 Q209.676 787.798 209.676 780.692 Q209.676 773.562 207.848 770.021 Q206.042 766.456 202.408 766.456 M202.408 762.752 Q208.218 762.752 211.274 767.359 Q214.352 771.942 214.352 780.692 Q214.352 789.419 211.274 794.025 Q208.218 798.608 202.408 798.608 Q196.598 798.608 193.519 794.025 Q190.463 789.419 190.463 780.692 Q190.463 771.942 193.519 767.359 Q196.598 762.752 202.408 762.752 Z" fill="#000000" fill-rule="evenodd" fill-opacity="1" /><path clip-path="url(#clip050)" d="M250.741 772.474 L240.162 783.099 L250.741 793.678 L247.986 796.479 L237.361 785.854 L226.736 796.479 L224.005 793.678 L234.56 783.099 L224.005 772.474 L226.736 769.673 L237.361 780.298 L247.986 769.673 L250.741 772.474 Z" fill="#000000" fill-rule="evenodd" fill-opacity="1" /><path clip-path="url(#clip050)" d="M263.102 794.002 L270.741 794.002 L270.741 767.636 L262.431 769.303 L262.431 765.044 L270.695 763.377 L275.37 763.377 L275.37 794.002 L283.009 794.002 L283.009 797.937 L263.102 797.937 L263.102 794.002 Z" fill="#000000" fill-rule="evenodd" fill-opacity="1" /><path clip-path="url(#clip050)" d="M302.454 766.456 Q298.843 766.456 297.014 770.021 Q295.208 773.562 295.208 780.692 Q295.208 787.798 297.014 791.363 Q298.843 794.905 302.454 794.905 Q306.088 794.905 307.893 791.363 Q309.722 787.798 309.722 780.692 Q309.722 773.562 307.893 770.021 Q306.088 766.456 302.454 766.456 M302.454 762.752 Q308.264 762.752 311.319 767.359 Q314.398 771.942 314.398 780.692 Q314.398 789.419 311.319 794.025 Q308.264 798.608 302.454 798.608 Q296.643 798.608 293.565 794.025 Q290.509 789.419 290.509 780.692 Q290.509 771.942 293.565 767.359 Q296.643 762.752 302.454 762.752 Z" fill="#000000" fill-rule="evenodd" fill-opacity="1" /><path clip-path="url(#clip050)" d="M327.074 745.757 L317.482 760.747 L327.074 760.747 L327.074 745.757 M326.078 742.447 L330.855 742.447 L330.855 760.747 L334.861 760.747 L334.861 763.906 L330.855 763.906 L330.855 770.527 L327.074 770.527 L327.074 763.906 L314.398 763.906 L314.398 760.239 L326.078 742.447 Z" fill="#000000" fill-rule="evenodd" fill-opacity="1" /><path clip-path="url(#clip050)" d="M120.12 504.34 L127.758 504.34 L127.758 477.974 L119.448 479.641 L119.448 475.382 L127.712 473.715 L132.388 473.715 L132.388 504.34 L140.027 504.34 L140.027 508.275 L120.12 508.275 L120.12 504.34 Z" fill="#000000" fill-rule="evenodd" fill-opacity="1" /><path clip-path="url(#clip050)" d="M149.471 502.395 L154.355 502.395 L154.355 508.275 L149.471 508.275 L149.471 502.395 Z" fill="#000000" fill-rule="evenodd" fill-opacity="1" /><path clip-path="url(#clip050)" d="M174.541 476.794 Q170.929 476.794 169.101 480.359 Q167.295 483.9 167.295 491.03 Q167.295 498.136 169.101 501.701 Q170.929 505.243 174.541 505.243 Q178.175 505.243 179.98 501.701 Q181.809 498.136 181.809 491.03 Q181.809 483.9 179.98 480.359 Q178.175 476.794 174.541 476.794 M174.541 473.09 Q180.351 473.09 183.406 477.696 Q186.485 482.28 186.485 491.03 Q186.485 499.757 183.406 504.363 Q180.351 508.946 174.541 508.946 Q168.73 508.946 165.652 504.363 Q162.596 499.757 162.596 491.03 Q162.596 482.28 165.652 477.696 Q168.73 473.09 174.541 473.09 Z" fill="#000000" fill-rule="evenodd" fill-opacity="1" /><path clip-path="url(#clip050)" d="M204.702 476.794 Q201.091 476.794 199.263 480.359 Q197.457 483.9 197.457 491.03 Q197.457 498.136 199.263 501.701 Q201.091 505.243 204.702 505.243 Q208.337 505.243 210.142 501.701 Q211.971 498.136 211.971 491.03 Q211.971 483.9 210.142 480.359 Q208.337 476.794 204.702 476.794 M204.702 473.09 Q210.513 473.09 213.568 477.696 Q216.647 482.28 216.647 491.03 Q216.647 499.757 213.568 504.363 Q210.513 508.946 204.702 508.946 Q198.892 508.946 195.814 504.363 Q192.758 499.757 192.758 491.03 Q192.758 482.28 195.814 477.696 Q198.892 473.09 204.702 473.09 Z" fill="#000000" fill-rule="evenodd" fill-opacity="1" /><path clip-path="url(#clip050)" d="M253.035 482.812 L242.457 493.437 L253.035 504.016 L250.281 506.817 L239.656 496.192 L229.031 506.817 L226.299 504.016 L236.855 493.437 L226.299 482.812 L229.031 480.011 L239.656 490.636 L250.281 480.011 L253.035 482.812 Z" fill="#000000" fill-rule="evenodd" fill-opacity="1" /><path clip-path="url(#clip050)" d="M265.397 504.34 L273.035 504.34 L273.035 477.974 L264.725 479.641 L264.725 475.382 L272.989 473.715 L277.665 473.715 L277.665 504.34 L285.304 504.34 L285.304 508.275 L265.397 508.275 L265.397 504.34 Z" fill="#000000" fill-rule="evenodd" fill-opacity="1" /><path clip-path="url(#clip050)" d="M304.748 476.794 Q301.137 476.794 299.308 480.359 Q297.503 483.9 297.503 491.03 Q297.503 498.136 299.308 501.701 Q301.137 505.243 304.748 505.243 Q308.382 505.243 310.188 501.701 Q312.017 498.136 312.017 491.03 Q312.017 483.9 310.188 480.359 Q308.382 476.794 304.748 476.794 M304.748 473.09 Q310.558 473.09 313.614 477.696 Q316.693 482.28 316.693 491.03 Q316.693 499.757 313.614 504.363 Q310.558 508.946 304.748 508.946 Q298.938 508.946 295.859 504.363 Q292.804 499.757 292.804 491.03 Q292.804 482.28 295.859 477.696 Q298.938 473.09 304.748 473.09 Z" fill="#000000" fill-rule="evenodd" fill-opacity="1" /><path clip-path="url(#clip050)" d="M317.877 452.785 L332.792 452.785 L332.792 455.982 L321.357 455.982 L321.357 462.866 Q322.184 462.583 323.012 462.452 Q323.839 462.301 324.667 462.301 Q329.369 462.301 332.115 464.878 Q334.861 467.455 334.861 471.856 Q334.861 476.388 332.04 478.909 Q329.218 481.41 324.084 481.41 Q322.316 481.41 320.473 481.109 Q318.649 480.808 316.693 480.206 L316.693 476.388 Q318.385 477.31 320.191 477.761 Q321.996 478.213 324.009 478.213 Q327.262 478.213 329.162 476.501 Q331.062 474.79 331.062 471.856 Q331.062 468.922 329.162 467.21 Q327.262 465.499 324.009 465.499 Q322.485 465.499 320.962 465.837 Q319.457 466.176 317.877 466.89 L317.877 452.785 Z" fill="#000000" fill-rule="evenodd" fill-opacity="1" /><path clip-path="url(#clip050)" d="M120.12 214.678 L127.758 214.678 L127.758 188.312 L119.448 189.979 L119.448 185.72 L127.712 184.053 L132.388 184.053 L132.388 214.678 L140.027 214.678 L140.027 218.613 L120.12 218.613 L120.12 214.678 Z" fill="#000000" fill-rule="evenodd" fill-opacity="1" /><path clip-path="url(#clip050)" d="M149.471 212.733 L154.355 212.733 L154.355 218.613 L149.471 218.613 L149.471 212.733 Z" fill="#000000" fill-rule="evenodd" fill-opacity="1" /><path clip-path="url(#clip050)" d="M168.568 214.678 L184.888 214.678 L184.888 218.613 L162.943 218.613 L162.943 214.678 Q165.605 211.923 170.189 207.294 Q174.795 202.641 175.976 201.298 Q178.221 198.775 179.101 197.039 Q180.003 195.28 180.003 193.59 Q180.003 190.835 178.059 189.099 Q176.138 187.363 173.036 187.363 Q170.837 187.363 168.383 188.127 Q165.953 188.891 163.175 190.442 L163.175 185.72 Q165.999 184.585 168.453 184.007 Q170.906 183.428 172.943 183.428 Q178.314 183.428 181.508 186.113 Q184.702 188.798 184.702 193.289 Q184.702 195.419 183.892 197.34 Q183.105 199.238 180.999 201.831 Q180.42 202.502 177.318 205.72 Q174.216 208.914 168.568 214.678 Z" fill="#000000" fill-rule="evenodd" fill-opacity="1" /><path clip-path="url(#clip050)" d="M204.702 187.132 Q201.091 187.132 199.263 190.696 Q197.457 194.238 197.457 201.368 Q197.457 208.474 199.263 212.039 Q201.091 215.581 204.702 215.581 Q208.337 215.581 210.142 212.039 Q211.971 208.474 211.971 201.368 Q211.971 194.238 210.142 190.696 Q208.337 187.132 204.702 187.132 M204.702 183.428 Q210.513 183.428 213.568 188.034 Q216.647 192.618 216.647 201.368 Q216.647 210.095 213.568 214.701 Q210.513 219.284 204.702 219.284 Q198.892 219.284 195.814 214.701 Q192.758 210.095 192.758 201.368 Q192.758 192.618 195.814 188.034 Q198.892 183.428 204.702 183.428 Z" fill="#000000" fill-rule="evenodd" fill-opacity="1" /><path clip-path="url(#clip050)" d="M253.035 193.15 L242.457 203.775 L253.035 214.354 L250.281 217.155 L239.656 206.53 L229.031 217.155 L226.299 214.354 L236.855 203.775 L226.299 193.15 L229.031 190.349 L239.656 200.974 L250.281 190.349 L253.035 193.15 Z" fill="#000000" fill-rule="evenodd" fill-opacity="1" /><path clip-path="url(#clip050)" d="M265.397 214.678 L273.035 214.678 L273.035 188.312 L264.725 189.979 L264.725 185.72 L272.989 184.053 L277.665 184.053 L277.665 214.678 L285.304 214.678 L285.304 218.613 L265.397 218.613 L265.397 214.678 Z" fill="#000000" fill-rule="evenodd" fill-opacity="1" /><path clip-path="url(#clip050)" d="M304.748 187.132 Q301.137 187.132 299.308 190.696 Q297.503 194.238 297.503 201.368 Q297.503 208.474 299.308 212.039 Q301.137 215.581 304.748 215.581 Q308.382 215.581 310.188 212.039 Q312.017 208.474 312.017 201.368 Q312.017 194.238 310.188 190.696 Q308.382 187.132 304.748 187.132 M304.748 183.428 Q310.558 183.428 313.614 188.034 Q316.693 192.618 316.693 201.368 Q316.693 210.095 313.614 214.701 Q310.558 219.284 304.748 219.284 Q298.938 219.284 295.859 214.701 Q292.804 210.095 292.804 201.368 Q292.804 192.618 295.859 188.034 Q298.938 183.428 304.748 183.428 Z" fill="#000000" fill-rule="evenodd" fill-opacity="1" /><path clip-path="url(#clip050)" d="M317.877 163.123 L332.792 163.123 L332.792 166.32 L321.357 166.32 L321.357 173.204 Q322.184 172.921 323.012 172.79 Q323.839 172.639 324.667 172.639 Q329.369 172.639 332.115 175.216 Q334.861 177.793 334.861 182.194 Q334.861 186.726 332.04 189.247 Q329.218 191.748 324.084 191.748 Q322.316 191.748 320.473 191.447 Q318.649 191.146 316.693 190.544 L316.693 186.726 Q318.385 187.648 320.191 188.099 Q321.996 188.551 324.009 188.551 Q327.262 188.551 329.162 186.839 Q331.062 185.128 331.062 182.194 Q331.062 179.26 329.162 177.548 Q327.262 175.837 324.009 175.837 Q322.485 175.837 320.962 176.175 Q319.457 176.514 317.877 177.228 L317.877 163.123 Z" fill="#000000" fill-rule="evenodd" fill-opacity="1" /><path clip-path="url(#clip050)" d="M18.0438 841.996 L24.314 841.996 Q22.5634 845.656 21.704 848.903 Q20.8447 852.149 20.8447 855.173 Q20.8447 860.425 22.8817 863.289 Q24.9187 866.122 28.6745 866.122 Q31.8255 866.122 33.4488 864.244 Q35.0402 862.334 36.0269 857.051 L36.8226 853.168 Q38.1912 845.975 41.6605 842.569 Q45.098 839.131 50.8908 839.131 Q57.7976 839.131 61.3624 843.778 Q64.9272 848.394 64.9272 857.337 Q64.9272 860.711 64.1633 864.531 Q63.3994 868.318 61.9035 872.392 L55.2831 872.392 Q57.4793 868.477 58.5933 864.722 Q59.7073 860.966 59.7073 857.337 Q59.7073 851.831 57.543 848.839 Q55.3786 845.847 51.3682 845.847 Q47.8671 845.847 45.8937 848.012 Q43.9204 850.144 42.9337 855.046 L42.1698 858.961 Q40.7375 866.154 37.682 869.369 Q34.6264 872.583 29.1837 872.583 Q22.8817 872.583 19.2532 868.159 Q15.6248 863.703 15.6248 855.905 Q15.6248 852.563 16.2295 849.094 Q16.8343 845.624 18.0438 841.996 Z" fill="#000000" fill-rule="evenodd" fill-opacity="1" /><path clip-path="url(#clip050)" d="M46.0847 813.159 Q46.0847 820.257 47.7079 822.994 Q49.3312 825.732 53.2461 825.732 Q56.3653 825.732 58.2114 823.695 Q60.0256 821.626 60.0256 818.093 Q60.0256 813.223 56.5881 810.295 Q53.1188 807.335 47.3897 807.335 L46.0847 807.335 L46.0847 813.159 M43.6657 801.478 L64.0042 801.478 L64.0042 807.335 L58.5933 807.335 Q61.8398 809.34 63.3994 812.332 Q64.9272 815.324 64.9272 819.652 Q64.9272 825.127 61.8716 828.373 Q58.7843 831.588 53.6281 831.588 Q47.6125 831.588 44.5569 827.578 Q41.5014 823.535 41.5014 815.547 L41.5014 807.335 L40.9285 807.335 Q36.8862 807.335 34.6901 810.008 Q32.4621 812.65 32.4621 817.456 Q32.4621 820.512 33.1941 823.408 Q33.9262 826.305 35.3903 828.978 L29.9795 828.978 Q28.7381 825.763 28.1334 822.74 Q27.4968 819.716 27.4968 816.852 Q27.4968 809.117 31.5072 805.298 Q35.5176 801.478 43.6657 801.478 Z" fill="#000000" fill-rule="evenodd" fill-opacity="1" /><path clip-path="url(#clip050)" d="M14.479 789.415 L14.479 783.559 L64.0042 783.559 L64.0042 789.415 L14.479 789.415 Z" fill="#000000" fill-rule="evenodd" fill-opacity="1" /><path clip-path="url(#clip050)" d="M46.0847 755.104 Q46.0847 762.202 47.7079 764.939 Q49.3312 767.676 53.2461 767.676 Q56.3653 767.676 58.2114 765.639 Q60.0256 763.571 60.0256 760.038 Q60.0256 755.168 56.5881 752.24 Q53.1188 749.28 47.3897 749.28 L46.0847 749.28 L46.0847 755.104 M43.6657 743.423 L64.0042 743.423 L64.0042 749.28 L58.5933 749.28 Q61.8398 751.285 63.3994 754.277 Q64.9272 757.268 64.9272 761.597 Q64.9272 767.072 61.8716 770.318 Q58.7843 773.533 53.6281 773.533 Q47.6125 773.533 44.5569 769.522 Q41.5014 765.48 41.5014 757.491 L41.5014 749.28 L40.9285 749.28 Q36.8862 749.28 34.6901 751.953 Q32.4621 754.595 32.4621 759.401 Q32.4621 762.457 33.1941 765.353 Q33.9262 768.249 35.3903 770.923 L29.9795 770.923 Q28.7381 767.708 28.1334 764.685 Q27.4968 761.661 27.4968 758.796 Q27.4968 751.062 31.5072 747.243 Q35.5176 743.423 43.6657 743.423 Z" fill="#000000" fill-rule="evenodd" fill-opacity="1" /><path clip-path="url(#clip050)" d="M33.8307 710.703 Q33.2578 711.69 33.0032 712.868 Q32.7167 714.014 32.7167 715.414 Q32.7167 720.379 35.9632 723.053 Q39.1779 725.695 45.2253 725.695 L64.0042 725.695 L64.0042 731.583 L28.3562 731.583 L28.3562 725.695 L33.8944 725.695 Q30.6479 723.849 29.0883 720.888 Q27.4968 717.928 27.4968 713.695 Q27.4968 713.09 27.5923 712.358 Q27.656 711.626 27.8151 710.735 L33.8307 710.703 Z" fill="#000000" fill-rule="evenodd" fill-opacity="1" /><path clip-path="url(#clip050)" d="M67.3143 689.728 Q73.68 692.211 75.6216 694.566 Q77.5631 696.922 77.5631 700.868 L77.5631 705.547 L72.6615 705.547 L72.6615 702.11 Q72.6615 699.691 71.5157 698.354 Q70.3699 697.017 66.1048 695.394 L63.4312 694.343 L28.3562 708.762 L28.3562 702.555 L56.238 691.415 L28.3562 680.275 L28.3562 674.069 L67.3143 689.728 Z" fill="#000000" fill-rule="evenodd" fill-opacity="1" /><path clip-path="url(#clip050)" d="M971.524 14.0809 L971.524 22.0612 Q966.865 19.8332 962.734 18.7395 Q958.602 17.6457 954.753 17.6457 Q948.069 17.6457 944.423 20.2383 Q940.818 22.8309 940.818 27.611 Q940.818 31.6214 943.208 33.6873 Q945.639 35.7128 952.363 36.9686 L957.305 37.9813 Q966.46 39.7232 970.795 44.1387 Q975.17 48.5136 975.17 55.8863 Q975.17 64.6767 969.255 69.2137 Q963.382 73.7508 951.999 73.7508 Q947.705 73.7508 942.844 72.7785 Q938.023 71.8063 932.838 69.9024 L932.838 61.4765 Q937.82 64.2716 942.601 65.6895 Q947.381 67.1073 951.999 67.1073 Q959.007 67.1073 962.815 64.3527 Q966.622 61.598 966.622 56.4939 Q966.622 52.0379 963.868 49.5264 Q961.154 47.0148 954.915 45.759 L949.933 44.7868 Q940.778 42.9639 936.686 39.075 Q932.595 35.1862 932.595 28.2591 Q932.595 20.2383 938.226 15.6203 Q943.897 11.0023 953.822 11.0023 Q958.075 11.0023 962.49 11.7719 Q966.906 12.5416 971.524 14.0809 Z" fill="#000000" fill-rule="evenodd" fill-opacity="1" /><path clip-path="url(#clip050)" d="M1008.23 49.7694 Q999.192 49.7694 995.708 51.8354 Q992.224 53.9013 992.224 58.8839 Q992.224 62.8538 994.817 65.2034 Q997.45 67.5124 1001.95 67.5124 Q1008.14 67.5124 1011.87 63.1374 Q1015.64 58.7219 1015.64 51.4303 L1015.64 49.7694 L1008.23 49.7694 M1023.09 46.6907 L1023.09 72.576 L1015.64 72.576 L1015.64 65.6895 Q1013.09 69.8214 1009.28 71.8063 Q1005.47 73.7508 999.961 73.7508 Q992.994 73.7508 988.862 69.8619 Q984.77 65.9325 984.77 59.3701 Q984.77 51.7138 989.875 47.825 Q995.019 43.9361 1005.19 43.9361 L1015.64 43.9361 L1015.64 43.2069 Q1015.64 38.0623 1012.24 35.2672 Q1008.87 32.4315 1002.76 32.4315 Q998.868 32.4315 995.181 33.3632 Q991.495 34.295 988.092 36.1584 L988.092 29.2718 Q992.184 27.692 996.032 26.9223 Q999.88 26.1121 1003.53 26.1121 Q1013.37 26.1121 1018.23 31.2163 Q1023.09 36.3204 1023.09 46.6907 Z" fill="#000000" fill-rule="evenodd" fill-opacity="1" /><path clip-path="url(#clip050)" d="M1038.44 9.54393 L1045.9 9.54393 L1045.9 72.576 L1038.44 72.576 L1038.44 9.54393 Z" fill="#000000" fill-rule="evenodd" fill-opacity="1" /><path clip-path="url(#clip050)" d="M1082.11 49.7694 Q1073.08 49.7694 1069.6 51.8354 Q1066.11 53.9013 1066.11 58.8839 Q1066.11 62.8538 1068.71 65.2034 Q1071.34 67.5124 1075.83 67.5124 Q1082.03 67.5124 1085.76 63.1374 Q1089.53 58.7219 1089.53 51.4303 L1089.53 49.7694 L1082.11 49.7694 M1096.98 46.6907 L1096.98 72.576 L1089.53 72.576 L1089.53 65.6895 Q1086.97 69.8214 1083.17 71.8063 Q1079.36 73.7508 1073.85 73.7508 Q1066.88 73.7508 1062.75 69.8619 Q1058.66 65.9325 1058.66 59.3701 Q1058.66 51.7138 1063.76 47.825 Q1068.91 43.9361 1079.08 43.9361 L1089.53 43.9361 L1089.53 43.2069 Q1089.53 38.0623 1086.12 35.2672 Q1082.76 32.4315 1076.64 32.4315 Q1072.76 32.4315 1069.07 33.3632 Q1065.38 34.295 1061.98 36.1584 L1061.98 29.2718 Q1066.07 27.692 1069.92 26.9223 Q1073.77 26.1121 1077.41 26.1121 Q1087.26 26.1121 1092.12 31.2163 Q1096.98 36.3204 1096.98 46.6907 Z" fill="#000000" fill-rule="evenodd" fill-opacity="1" /><path clip-path="url(#clip050)" d="M1138.62 34.1734 Q1137.37 33.4443 1135.87 33.1202 Q1134.41 32.7556 1132.63 32.7556 Q1126.31 32.7556 1122.91 36.8875 Q1119.54 40.9789 1119.54 48.6757 L1119.54 72.576 L1112.05 72.576 L1112.05 27.2059 L1119.54 27.2059 L1119.54 34.2544 Q1121.89 30.1225 1125.66 28.1376 Q1129.43 26.1121 1134.82 26.1121 Q1135.59 26.1121 1136.52 26.2337 Q1137.45 26.3147 1138.58 26.5172 L1138.62 34.1734 Z" fill="#000000" fill-rule="evenodd" fill-opacity="1" /><path clip-path="url(#clip050)" d="M1165.32 76.7889 Q1162.16 84.8907 1159.16 87.3618 Q1156.16 89.8329 1151.14 89.8329 L1145.19 89.8329 L1145.19 83.5945 L1149.56 83.5945 Q1152.64 83.5945 1154.34 82.1361 Q1156.04 80.6778 1158.11 75.2496 L1159.45 71.8468 L1141.09 27.2059 L1148.99 27.2059 L1163.17 62.6918 L1177.35 27.2059 L1185.25 27.2059 L1165.32 76.7889 Z" fill="#000000" fill-rule="evenodd" fill-opacity="1" /><path clip-path="url(#clip050)" d="M1216.56 27.2059 L1224.46 27.2059 L1238.64 65.2844 L1252.82 27.2059 L1260.72 27.2059 L1243.7 72.576 L1233.58 72.576 L1216.56 27.2059 Z" fill="#000000" fill-rule="evenodd" fill-opacity="1" /><path clip-path="url(#clip050)" d="M1299.93 28.5427 L1299.93 35.5912 Q1296.77 33.9709 1293.37 33.1607 Q1289.97 32.3505 1286.32 32.3505 Q1280.77 32.3505 1277.97 34.0519 Q1275.22 35.7533 1275.22 39.156 Q1275.22 41.7486 1277.21 43.2475 Q1279.19 44.7058 1285.19 46.0426 L1287.74 46.6097 Q1295.68 48.3111 1299 51.4303 Q1302.36 54.509 1302.36 60.0587 Q1302.36 66.3781 1297.34 70.0644 Q1292.36 73.7508 1283.61 73.7508 Q1279.96 73.7508 1275.99 73.0216 Q1272.06 72.3329 1267.69 70.9151 L1267.69 63.2184 Q1271.82 65.3654 1275.83 66.4591 Q1279.84 67.5124 1283.77 67.5124 Q1289.03 67.5124 1291.87 65.73 Q1294.71 63.9071 1294.71 60.6258 Q1294.71 57.5877 1292.64 55.9673 Q1290.61 54.3469 1283.69 52.8481 L1281.09 52.2405 Q1274.17 50.7821 1271.09 47.7845 Q1268.01 44.7463 1268.01 39.4801 Q1268.01 33.0797 1272.55 29.5959 Q1277.08 26.1121 1285.43 26.1121 Q1289.56 26.1121 1293.21 26.7198 Q1296.85 27.3274 1299.93 28.5427 Z" fill="#000000" fill-rule="evenodd" fill-opacity="1" /><path clip-path="url(#clip050)" d="M1340.93 12.096 L1379.17 12.096 L1379.17 18.9825 L1349.11 18.9825 L1349.11 36.8875 L1377.91 36.8875 L1377.91 43.7741 L1349.11 43.7741 L1349.11 65.6895 L1379.9 65.6895 L1379.9 72.576 L1340.93 72.576 L1340.93 12.096 Z" fill="#000000" fill-rule="evenodd" fill-opacity="1" /><path clip-path="url(#clip050)" d="M1430.73 27.2059 L1414.33 49.2833 L1431.59 72.576 L1422.79 72.576 L1409.59 54.752 L1396.38 72.576 L1387.59 72.576 L1405.21 48.8377 L1389.09 27.2059 L1397.88 27.2059 L1409.91 43.369 L1421.94 27.2059 L1430.73 27.2059 Z" fill="#000000" fill-rule="evenodd" fill-opacity="1" /><path clip-path="url(#clip050)" d="M1449.33 65.7705 L1449.33 89.8329 L1441.83 89.8329 L1441.83 27.2059 L1449.33 27.2059 L1449.33 34.0924 Q1451.68 30.0415 1455.24 28.0971 Q1458.85 26.1121 1463.83 26.1121 Q1472.09 26.1121 1477.24 32.6746 Q1482.42 39.2371 1482.42 49.9314 Q1482.42 60.6258 1477.24 67.1883 Q1472.09 73.7508 1463.83 73.7508 Q1458.85 73.7508 1455.24 71.8063 Q1451.68 69.8214 1449.33 65.7705 M1474.69 49.9314 Q1474.69 41.7081 1471.28 37.0496 Q1467.92 32.3505 1462.01 32.3505 Q1456.09 32.3505 1452.69 37.0496 Q1449.33 41.7081 1449.33 49.9314 Q1449.33 58.1548 1452.69 62.8538 Q1456.09 67.5124 1462.01 67.5124 Q1467.92 67.5124 1471.28 62.8538 Q1474.69 58.1548 1474.69 49.9314 Z" fill="#000000" fill-rule="evenodd" fill-opacity="1" /><path clip-path="url(#clip050)" d="M1533.59 48.0275 L1533.59 51.6733 L1499.32 51.6733 Q1499.8 59.3701 1503.93 63.421 Q1508.11 67.4314 1515.52 67.4314 Q1519.81 67.4314 1523.82 66.3781 Q1527.88 65.3249 1531.85 63.2184 L1531.85 70.267 Q1527.83 71.9684 1523.62 72.8596 Q1519.41 73.7508 1515.07 73.7508 Q1504.22 73.7508 1497.86 67.4314 Q1491.54 61.1119 1491.54 50.3365 Q1491.54 39.1965 1497.53 32.6746 Q1503.57 26.1121 1513.78 26.1121 Q1522.93 26.1121 1528.24 32.0264 Q1533.59 37.9003 1533.59 48.0275 M1526.13 45.84 Q1526.05 39.7232 1522.69 36.0774 Q1519.37 32.4315 1513.86 32.4315 Q1507.62 32.4315 1503.85 35.9558 Q1500.13 39.4801 1499.56 45.8805 L1526.13 45.84 Z" fill="#000000" fill-rule="evenodd" fill-opacity="1" /><path clip-path="url(#clip050)" d="M1572.11 34.1734 Q1570.86 33.4443 1569.36 33.1202 Q1567.9 32.7556 1566.12 32.7556 Q1559.8 32.7556 1556.39 36.8875 Q1553.03 40.9789 1553.03 48.6757 L1553.03 72.576 L1545.54 72.576 L1545.54 27.2059 L1553.03 27.2059 L1553.03 34.2544 Q1555.38 30.1225 1559.15 28.1376 Q1562.92 26.1121 1568.3 26.1121 Q1569.07 26.1121 1570 26.2337 Q1570.94 26.3147 1572.07 26.5172 L1572.11 34.1734 Z" fill="#000000" fill-rule="evenodd" fill-opacity="1" /><path clip-path="url(#clip050)" d="M1579.93 27.2059 L1587.38 27.2059 L1587.38 72.576 L1579.93 72.576 L1579.93 27.2059 M1579.93 9.54393 L1587.38 9.54393 L1587.38 18.9825 L1579.93 18.9825 L1579.93 9.54393 Z" fill="#000000" fill-rule="evenodd" fill-opacity="1" /><path clip-path="url(#clip050)" d="M1641.79 48.0275 L1641.79 51.6733 L1607.52 51.6733 Q1608 59.3701 1612.13 63.421 Q1616.31 67.4314 1623.72 67.4314 Q1628.01 67.4314 1632.02 66.3781 Q1636.07 65.3249 1640.04 63.2184 L1640.04 70.267 Q1636.03 71.9684 1631.82 72.8596 Q1627.61 73.7508 1623.27 73.7508 Q1612.42 73.7508 1606.06 67.4314 Q1599.74 61.1119 1599.74 50.3365 Q1599.74 39.1965 1605.73 32.6746 Q1611.77 26.1121 1621.98 26.1121 Q1631.13 26.1121 1636.44 32.0264 Q1641.79 37.9003 1641.79 48.0275 M1634.33 45.84 Q1634.25 39.7232 1630.89 36.0774 Q1627.57 32.4315 1622.06 32.4315 Q1615.82 32.4315 1612.05 35.9558 Q1608.33 39.4801 1607.76 45.8805 L1634.33 45.84 Z" fill="#000000" fill-rule="evenodd" fill-opacity="1" /><path clip-path="url(#clip050)" d="M1691.73 45.1919 L1691.73 72.576 L1684.28 72.576 L1684.28 45.4349 Q1684.28 38.994 1681.77 35.7938 Q1679.26 32.5936 1674.23 32.5936 Q1668.2 32.5936 1664.71 36.4419 Q1661.23 40.2903 1661.23 46.9338 L1661.23 72.576 L1653.74 72.576 L1653.74 27.2059 L1661.23 27.2059 L1661.23 34.2544 Q1663.9 30.163 1667.51 28.1376 Q1671.16 26.1121 1675.9 26.1121 Q1683.71 26.1121 1687.72 30.9732 Q1691.73 35.7938 1691.73 45.1919 Z" fill="#000000" fill-rule="evenodd" fill-opacity="1" /><path clip-path="url(#clip050)" d="M1739.25 28.9478 L1739.25 35.9153 Q1736.09 34.1734 1732.89 33.3227 Q1729.73 32.4315 1726.49 32.4315 Q1719.24 32.4315 1715.23 37.0496 Q1711.22 41.6271 1711.22 49.9314 Q1711.22 58.2358 1715.23 62.8538 Q1719.24 67.4314 1726.49 67.4314 Q1729.73 67.4314 1732.89 66.5807 Q1736.09 65.6895 1739.25 63.9476 L1739.25 70.8341 Q1736.13 72.2924 1732.77 73.0216 Q1729.45 73.7508 1725.68 73.7508 Q1715.43 73.7508 1709.4 67.3098 Q1703.36 60.8689 1703.36 49.9314 Q1703.36 38.832 1709.44 32.472 Q1715.55 26.1121 1726.17 26.1121 Q1729.61 26.1121 1732.89 26.8413 Q1736.17 27.5299 1739.25 28.9478 Z" fill="#000000" fill-rule="evenodd" fill-opacity="1" /><path clip-path="url(#clip050)" d="M1791.02 48.0275 L1791.02 51.6733 L1756.75 51.6733 Q1757.24 59.3701 1761.37 63.421 Q1765.54 67.4314 1772.95 67.4314 Q1777.25 67.4314 1781.26 66.3781 Q1785.31 65.3249 1789.28 63.2184 L1789.28 70.267 Q1785.27 71.9684 1781.06 72.8596 Q1776.84 73.7508 1772.51 73.7508 Q1761.65 73.7508 1755.29 67.4314 Q1748.97 61.1119 1748.97 50.3365 Q1748.97 39.1965 1754.97 32.6746 Q1761 26.1121 1771.21 26.1121 Q1780.37 26.1121 1785.67 32.0264 Q1791.02 37.9003 1791.02 48.0275 M1783.57 45.84 Q1783.49 39.7232 1780.12 36.0774 Q1776.8 32.4315 1771.29 32.4315 Q1765.06 32.4315 1761.29 35.9558 Q1757.56 39.4801 1756.99 45.8805 L1783.57 45.84 Z" fill="#000000" fill-rule="evenodd" fill-opacity="1" /><circle clip-path="url(#clip052)" cx="426.952" cy="1363.05" r="14" fill="#000000" fill-rule="evenodd" fill-opacity="1" stroke="none"/>
<circle clip-path="url(#clip052)" cx="466.733" cy="1263.67" r="14" fill="#000000" fill-rule="evenodd" fill-opacity="1" stroke="none"/>
<circle clip-path="url(#clip052)" cx="506.514" cy="1386.4" r="14" fill="#000000" fill-rule="evenodd" fill-opacity="1" stroke="none"/>
<circle clip-path="url(#clip052)" cx="605.967" cy="1302.48" r="14" fill="#000000" fill-rule="evenodd" fill-opacity="1" stroke="none"/>
<circle clip-path="url(#clip052)" cx="645.748" cy="1355.11" r="14" fill="#000000" fill-rule="evenodd" fill-opacity="1" stroke="none"/>
<circle clip-path="url(#clip052)" cx="784.982" cy="1112.51" r="14" fill="#000000" fill-rule="evenodd" fill-opacity="1" stroke="none"/>
<circle clip-path="url(#clip052)" cx="804.873" cy="1061.7" r="14" fill="#000000" fill-rule="evenodd" fill-opacity="1" stroke="none"/>
<circle clip-path="url(#clip052)" cx="844.654" cy="1144.33" r="14" fill="#000000" fill-rule="evenodd" fill-opacity="1" stroke="none"/>
<circle clip-path="url(#clip052)" cx="844.654" cy="999.494" r="14" fill="#000000" fill-rule="evenodd" fill-opacity="1" stroke="none"/>
<circle clip-path="url(#clip052)" cx="944.107" cy="1104.58" r="14" fill="#000000" fill-rule="evenodd" fill-opacity="1" stroke="none"/>
<circle clip-path="url(#clip052)" cx="983.888" cy="1017.26" r="14" fill="#000000" fill-rule="evenodd" fill-opacity="1" stroke="none"/>
<circle clip-path="url(#clip052)" cx="1003.78" cy="1124.79" r="14" fill="#000000" fill-rule="evenodd" fill-opacity="1" stroke="none"/>
<circle clip-path="url(#clip052)" cx="1003.78" cy="1107.94" r="14" fill="#000000" fill-rule="evenodd" fill-opacity="1" stroke="none"/>
<circle clip-path="url(#clip052)" cx="1023.67" cy="1106.15" r="14" fill="#000000" fill-rule="evenodd" fill-opacity="1" stroke="none"/>
<circle clip-path="url(#clip052)" cx="1103.23" cy="1047.78" r="14" fill="#000000" fill-rule="evenodd" fill-opacity="1" stroke="none"/>
<circle clip-path="url(#clip052)" cx="1182.79" cy="948.905" r="14" fill="#000000" fill-rule="evenodd" fill-opacity="1" stroke="none"/>
<circle clip-path="url(#clip052)" cx="1222.57" cy="976.553" r="14" fill="#000000" fill-rule="evenodd" fill-opacity="1" stroke="none"/>
<circle clip-path="url(#clip052)" cx="1262.36" cy="729.486" r="14" fill="#000000" fill-rule="evenodd" fill-opacity="1" stroke="none"/>
<circle clip-path="url(#clip052)" cx="1381.7" cy="754.469" r="14" fill="#000000" fill-rule="evenodd" fill-opacity="1" stroke="none"/>
<circle clip-path="url(#clip052)" cx="1401.59" cy="572.315" r="14" fill="#000000" fill-rule="evenodd" fill-opacity="1" stroke="none"/>
<circle clip-path="url(#clip052)" cx="1560.71" cy="604.207" r="14" fill="#000000" fill-rule="evenodd" fill-opacity="1" stroke="none"/>
<circle clip-path="url(#clip052)" cx="1620.39" cy="509.56" r="14" fill="#000000" fill-rule="evenodd" fill-opacity="1" stroke="none"/>
<circle clip-path="url(#clip052)" cx="1779.51" cy="465.69" r="14" fill="#000000" fill-rule="evenodd" fill-opacity="1" stroke="none"/>
<circle clip-path="url(#clip052)" cx="1839.18" cy="284.507" r="14" fill="#000000" fill-rule="evenodd" fill-opacity="1" stroke="none"/>
<circle clip-path="url(#clip052)" cx="1938.63" cy="347.957" r="14" fill="#000000" fill-rule="evenodd" fill-opacity="1" stroke="none"/>
<circle clip-path="url(#clip052)" cx="1998.31" cy="403.703" r="14" fill="#000000" fill-rule="evenodd" fill-opacity="1" stroke="none"/>
<circle clip-path="url(#clip052)" cx="2097.76" cy="238.784" r="14" fill="#000000" fill-rule="evenodd" fill-opacity="1" stroke="none"/>
<circle clip-path="url(#clip052)" cx="2117.65" cy="301.553" r="14" fill="#000000" fill-rule="evenodd" fill-opacity="1" stroke="none"/>
<circle clip-path="url(#clip052)" cx="2256.88" cy="160.256" r="14" fill="#000000" fill-rule="evenodd" fill-opacity="1" stroke="none"/>
<circle clip-path="url(#clip052)" cx="2296.66" cy="167.773" r="14" fill="#000000" fill-rule="evenodd" fill-opacity="1" stroke="none"/>
</svg>
