<?xml version="1.0" encoding="utf-8"?>
<svg xmlns="http://www.w3.org/2000/svg" xmlns:xlink="http://www.w3.org/1999/xlink" width="600" height="400" viewBox="0 0 2400 1600">
<defs>
  <clipPath id="clip720">
    <rect x="0" y="0" width="2400" height="1600"/>
  </clipPath>
</defs>
<path clip-path="url(#clip720)" d="
M0 1600 L2400 1600 L2400 0 L0 0  Z
  " fill="#333333" fill-rule="evenodd" fill-opacity="1"/>
<defs>
  <clipPath id="clip721">
    <rect x="480" y="0" width="1681" height="1600"/>
  </clipPath>
</defs>
<path clip-path="url(#clip720)" d="
M138.867 1486.45 L2352.76 1486.45 L2352.76 47.2441 L138.867 47.2441  Z
  " fill="#333333" fill-rule="evenodd" fill-opacity="1"/>
<defs>
  <clipPath id="clip722">
    <rect x="138" y="47" width="2215" height="1440"/>
  </clipPath>
</defs>
<polyline clip-path="url(#clip722)" style="stroke:#ffffff; stroke-linecap:butt; stroke-linejoin:round; stroke-width:2; stroke-opacity:0.1; fill:none" points="
  266.792,1486.45 266.792,47.2441 
  "/>
<polyline clip-path="url(#clip722)" style="stroke:#ffffff; stroke-linecap:butt; stroke-linejoin:round; stroke-width:2; stroke-opacity:0.1; fill:none" points="
  593.132,1486.45 593.132,47.2441 
  "/>
<polyline clip-path="url(#clip722)" style="stroke:#ffffff; stroke-linecap:butt; stroke-linejoin:round; stroke-width:2; stroke-opacity:0.1; fill:none" points="
  919.472,1486.45 919.472,47.2441 
  "/>
<polyline clip-path="url(#clip722)" style="stroke:#ffffff; stroke-linecap:butt; stroke-linejoin:round; stroke-width:2; stroke-opacity:0.1; fill:none" points="
  1245.81,1486.45 1245.81,47.2441 
  "/>
<polyline clip-path="url(#clip722)" style="stroke:#ffffff; stroke-linecap:butt; stroke-linejoin:round; stroke-width:2; stroke-opacity:0.1; fill:none" points="
  1572.15,1486.45 1572.15,47.2441 
  "/>
<polyline clip-path="url(#clip722)" style="stroke:#ffffff; stroke-linecap:butt; stroke-linejoin:round; stroke-width:2; stroke-opacity:0.1; fill:none" points="
  1898.49,1486.45 1898.49,47.2441 
  "/>
<polyline clip-path="url(#clip722)" style="stroke:#ffffff; stroke-linecap:butt; stroke-linejoin:round; stroke-width:2; stroke-opacity:0.1; fill:none" points="
  2224.83,1486.45 2224.83,47.2441 
  "/>
<polyline clip-path="url(#clip720)" style="stroke:#ffffff; stroke-linecap:butt; stroke-linejoin:round; stroke-width:4; stroke-opacity:1; fill:none" points="
  138.867,1486.45 2352.76,1486.45 
  "/>
<polyline clip-path="url(#clip720)" style="stroke:#ffffff; stroke-linecap:butt; stroke-linejoin:round; stroke-width:4; stroke-opacity:1; fill:none" points="
  266.792,1486.45 266.792,1467.55 
  "/>
<polyline clip-path="url(#clip720)" style="stroke:#ffffff; stroke-linecap:butt; stroke-linejoin:round; stroke-width:4; stroke-opacity:1; fill:none" points="
  593.132,1486.45 593.132,1467.55 
  "/>
<polyline clip-path="url(#clip720)" style="stroke:#ffffff; stroke-linecap:butt; stroke-linejoin:round; stroke-width:4; stroke-opacity:1; fill:none" points="
  919.472,1486.45 919.472,1467.55 
  "/>
<polyline clip-path="url(#clip720)" style="stroke:#ffffff; stroke-linecap:butt; stroke-linejoin:round; stroke-width:4; stroke-opacity:1; fill:none" points="
  1245.81,1486.45 1245.81,1467.55 
  "/>
<polyline clip-path="url(#clip720)" style="stroke:#ffffff; stroke-linecap:butt; stroke-linejoin:round; stroke-width:4; stroke-opacity:1; fill:none" points="
  1572.15,1486.45 1572.15,1467.55 
  "/>
<polyline clip-path="url(#clip720)" style="stroke:#ffffff; stroke-linecap:butt; stroke-linejoin:round; stroke-width:4; stroke-opacity:1; fill:none" points="
  1898.49,1486.45 1898.49,1467.55 
  "/>
<polyline clip-path="url(#clip720)" style="stroke:#ffffff; stroke-linecap:butt; stroke-linejoin:round; stroke-width:4; stroke-opacity:1; fill:none" points="
  2224.83,1486.45 2224.83,1467.55 
  "/>
<path clip-path="url(#clip720)" d="M255.635 1530.21 Q258.991 1530.93 260.866 1533.2 Q262.764 1535.47 262.764 1538.8 Q262.764 1543.92 259.246 1546.72 Q255.727 1549.52 249.246 1549.52 Q247.07 1549.52 244.755 1549.08 Q242.463 1548.66 240.01 1547.81 L240.01 1543.29 Q241.954 1544.43 244.269 1545.01 Q246.584 1545.58 249.107 1545.58 Q253.505 1545.58 255.797 1543.85 Q258.112 1542.11 258.112 1538.8 Q258.112 1535.75 255.959 1534.03 Q253.829 1532.3 250.01 1532.3 L245.982 1532.3 L245.982 1528.45 L250.195 1528.45 Q253.644 1528.45 255.473 1527.09 Q257.301 1525.7 257.301 1523.11 Q257.301 1520.45 255.403 1519.03 Q253.528 1517.6 250.01 1517.6 Q248.088 1517.6 245.889 1518.01 Q243.69 1518.43 241.051 1519.31 L241.051 1515.14 Q243.713 1514.4 246.028 1514.03 Q248.366 1513.66 250.426 1513.66 Q255.75 1513.66 258.852 1516.09 Q261.954 1518.5 261.954 1522.62 Q261.954 1525.49 260.311 1527.48 Q258.667 1529.45 255.635 1530.21 Z" fill="#ffffff" fill-rule="evenodd" fill-opacity="1" /><path clip-path="url(#clip720)" d="M281.63 1517.37 Q278.019 1517.37 276.19 1520.93 Q274.385 1524.47 274.385 1531.6 Q274.385 1538.71 276.19 1542.27 Q278.019 1545.82 281.63 1545.82 Q285.264 1545.82 287.07 1542.27 Q288.898 1538.71 288.898 1531.6 Q288.898 1524.47 287.07 1520.93 Q285.264 1517.37 281.63 1517.37 M281.63 1513.66 Q287.44 1513.66 290.496 1518.27 Q293.574 1522.85 293.574 1531.6 Q293.574 1540.33 290.496 1544.94 Q287.44 1549.52 281.63 1549.52 Q275.82 1549.52 272.741 1544.94 Q269.686 1540.33 269.686 1531.6 Q269.686 1522.85 272.741 1518.27 Q275.82 1513.66 281.63 1513.66 Z" fill="#ffffff" fill-rule="evenodd" fill-opacity="1" /><path clip-path="url(#clip720)" d="M581.303 1518.36 L569.498 1536.81 L581.303 1536.81 L581.303 1518.36 M580.076 1514.29 L585.956 1514.29 L585.956 1536.81 L590.886 1536.81 L590.886 1540.7 L585.956 1540.7 L585.956 1548.85 L581.303 1548.85 L581.303 1540.7 L565.701 1540.7 L565.701 1536.19 L580.076 1514.29 Z" fill="#ffffff" fill-rule="evenodd" fill-opacity="1" /><path clip-path="url(#clip720)" d="M608.618 1517.37 Q605.007 1517.37 603.178 1520.93 Q601.373 1524.47 601.373 1531.6 Q601.373 1538.71 603.178 1542.27 Q605.007 1545.82 608.618 1545.82 Q612.252 1545.82 614.058 1542.27 Q615.886 1538.71 615.886 1531.6 Q615.886 1524.47 614.058 1520.93 Q612.252 1517.37 608.618 1517.37 M608.618 1513.66 Q614.428 1513.66 617.484 1518.27 Q620.562 1522.85 620.562 1531.6 Q620.562 1540.33 617.484 1544.94 Q614.428 1549.52 608.618 1549.52 Q602.808 1549.52 599.729 1544.94 Q596.673 1540.33 596.673 1531.6 Q596.673 1522.85 599.729 1518.27 Q602.808 1513.66 608.618 1513.66 Z" fill="#ffffff" fill-rule="evenodd" fill-opacity="1" /><path clip-path="url(#clip720)" d="M894.171 1514.29 L912.527 1514.29 L912.527 1518.22 L898.453 1518.22 L898.453 1526.7 Q899.472 1526.35 900.49 1526.19 Q901.509 1526 902.527 1526 Q908.314 1526 911.694 1529.17 Q915.073 1532.34 915.073 1537.76 Q915.073 1543.34 911.601 1546.44 Q908.129 1549.52 901.81 1549.52 Q899.634 1549.52 897.365 1549.15 Q895.12 1548.78 892.712 1548.04 L892.712 1543.34 Q894.796 1544.47 897.018 1545.03 Q899.24 1545.58 901.717 1545.58 Q905.722 1545.58 908.06 1543.48 Q910.398 1541.37 910.398 1537.76 Q910.398 1534.15 908.06 1532.04 Q905.722 1529.94 901.717 1529.94 Q899.842 1529.94 897.967 1530.35 Q896.115 1530.77 894.171 1531.65 L894.171 1514.29 Z" fill="#ffffff" fill-rule="evenodd" fill-opacity="1" /><path clip-path="url(#clip720)" d="M934.286 1517.37 Q930.675 1517.37 928.847 1520.93 Q927.041 1524.47 927.041 1531.6 Q927.041 1538.71 928.847 1542.27 Q930.675 1545.82 934.286 1545.82 Q937.921 1545.82 939.726 1542.27 Q941.555 1538.71 941.555 1531.6 Q941.555 1524.47 939.726 1520.93 Q937.921 1517.37 934.286 1517.37 M934.286 1513.66 Q940.096 1513.66 943.152 1518.27 Q946.231 1522.85 946.231 1531.6 Q946.231 1540.33 943.152 1544.94 Q940.096 1549.52 934.286 1549.52 Q928.476 1549.52 925.397 1544.94 Q922.342 1540.33 922.342 1531.6 Q922.342 1522.85 925.397 1518.27 Q928.476 1513.66 934.286 1513.66 Z" fill="#ffffff" fill-rule="evenodd" fill-opacity="1" /><path clip-path="url(#clip720)" d="M1231.22 1529.7 Q1228.07 1529.7 1226.22 1531.86 Q1224.39 1534.01 1224.39 1537.76 Q1224.39 1541.49 1226.22 1543.66 Q1228.07 1545.82 1231.22 1545.82 Q1234.36 1545.82 1236.19 1543.66 Q1238.05 1541.49 1238.05 1537.76 Q1238.05 1534.01 1236.19 1531.86 Q1234.36 1529.7 1231.22 1529.7 M1240.5 1515.05 L1240.5 1519.31 Q1238.74 1518.48 1236.93 1518.04 Q1235.15 1517.6 1233.39 1517.6 Q1228.76 1517.6 1226.31 1520.72 Q1223.88 1523.85 1223.53 1530.17 Q1224.9 1528.15 1226.96 1527.09 Q1229.02 1526 1231.49 1526 Q1236.7 1526 1239.71 1529.17 Q1242.74 1532.32 1242.74 1537.76 Q1242.74 1543.08 1239.6 1546.3 Q1236.45 1549.52 1231.22 1549.52 Q1225.22 1549.52 1222.05 1544.94 Q1218.88 1540.33 1218.88 1531.6 Q1218.88 1523.41 1222.77 1518.55 Q1226.66 1513.66 1233.21 1513.66 Q1234.97 1513.66 1236.75 1514.01 Q1238.55 1514.36 1240.5 1515.05 Z" fill="#ffffff" fill-rule="evenodd" fill-opacity="1" /><path clip-path="url(#clip720)" d="M1260.8 1517.37 Q1257.19 1517.37 1255.36 1520.93 Q1253.55 1524.47 1253.55 1531.6 Q1253.55 1538.71 1255.36 1542.27 Q1257.19 1545.82 1260.8 1545.82 Q1264.43 1545.82 1266.24 1542.27 Q1268.07 1538.71 1268.07 1531.6 Q1268.07 1524.47 1266.24 1520.93 Q1264.43 1517.37 1260.8 1517.37 M1260.8 1513.66 Q1266.61 1513.66 1269.67 1518.27 Q1272.74 1522.85 1272.74 1531.6 Q1272.74 1540.33 1269.67 1544.94 Q1266.61 1549.52 1260.8 1549.52 Q1254.99 1549.52 1251.91 1544.94 Q1248.86 1540.33 1248.86 1531.6 Q1248.86 1522.85 1251.91 1518.27 Q1254.99 1513.66 1260.8 1513.66 Z" fill="#ffffff" fill-rule="evenodd" fill-opacity="1" /><path clip-path="url(#clip720)" d="M1545.51 1514.29 L1567.73 1514.29 L1567.73 1516.28 L1555.18 1548.85 L1550.3 1548.85 L1562.1 1518.22 L1545.51 1518.22 L1545.51 1514.29 Z" fill="#ffffff" fill-rule="evenodd" fill-opacity="1" /><path clip-path="url(#clip720)" d="M1586.85 1517.37 Q1583.24 1517.37 1581.41 1520.93 Q1579.6 1524.47 1579.6 1531.6 Q1579.6 1538.71 1581.41 1542.27 Q1583.24 1545.82 1586.85 1545.82 Q1590.48 1545.82 1592.29 1542.27 Q1594.12 1538.71 1594.12 1531.6 Q1594.12 1524.47 1592.29 1520.93 Q1590.48 1517.37 1586.85 1517.37 M1586.85 1513.66 Q1592.66 1513.66 1595.72 1518.27 Q1598.79 1522.85 1598.79 1531.6 Q1598.79 1540.33 1595.72 1544.94 Q1592.66 1549.52 1586.85 1549.52 Q1581.04 1549.52 1577.96 1544.94 Q1574.91 1540.33 1574.91 1531.6 Q1574.91 1522.85 1577.96 1518.27 Q1581.04 1513.66 1586.85 1513.66 Z" fill="#ffffff" fill-rule="evenodd" fill-opacity="1" /><path clip-path="url(#clip720)" d="M1883.36 1532.44 Q1880.03 1532.44 1878.11 1534.22 Q1876.21 1536 1876.21 1539.13 Q1876.21 1542.25 1878.11 1544.03 Q1880.03 1545.82 1883.36 1545.82 Q1886.7 1545.82 1888.62 1544.03 Q1890.54 1542.23 1890.54 1539.13 Q1890.54 1536 1888.62 1534.22 Q1886.72 1532.44 1883.36 1532.44 M1878.69 1530.45 Q1875.68 1529.7 1873.99 1527.64 Q1872.32 1525.58 1872.32 1522.62 Q1872.32 1518.48 1875.26 1516.07 Q1878.22 1513.66 1883.36 1513.66 Q1888.53 1513.66 1891.47 1516.07 Q1894.41 1518.48 1894.41 1522.62 Q1894.41 1525.58 1892.72 1527.64 Q1891.05 1529.7 1888.06 1530.45 Q1891.44 1531.23 1893.32 1533.52 Q1895.22 1535.82 1895.22 1539.13 Q1895.22 1544.15 1892.14 1546.83 Q1889.08 1549.52 1883.36 1549.52 Q1877.65 1549.52 1874.57 1546.83 Q1871.51 1544.15 1871.51 1539.13 Q1871.51 1535.82 1873.41 1533.52 Q1875.31 1531.23 1878.69 1530.45 M1876.97 1523.06 Q1876.97 1525.75 1878.64 1527.25 Q1880.33 1528.76 1883.36 1528.76 Q1886.37 1528.76 1888.06 1527.25 Q1889.78 1525.75 1889.78 1523.06 Q1889.78 1520.38 1888.06 1518.87 Q1886.37 1517.37 1883.36 1517.37 Q1880.33 1517.37 1878.64 1518.87 Q1876.97 1520.38 1876.97 1523.06 Z" fill="#ffffff" fill-rule="evenodd" fill-opacity="1" /><path clip-path="url(#clip720)" d="M1913.53 1517.37 Q1909.91 1517.37 1908.09 1520.93 Q1906.28 1524.47 1906.28 1531.6 Q1906.28 1538.71 1908.09 1542.27 Q1909.91 1545.82 1913.53 1545.82 Q1917.16 1545.82 1918.97 1542.27 Q1920.79 1538.71 1920.79 1531.6 Q1920.79 1524.47 1918.97 1520.93 Q1917.16 1517.37 1913.53 1517.37 M1913.53 1513.66 Q1919.34 1513.66 1922.39 1518.27 Q1925.47 1522.85 1925.47 1531.6 Q1925.47 1540.33 1922.39 1544.94 Q1919.34 1549.52 1913.53 1549.52 Q1907.72 1549.52 1904.64 1544.94 Q1901.58 1540.33 1901.58 1531.6 Q1901.58 1522.85 1904.64 1518.27 Q1907.72 1513.66 1913.53 1513.66 Z" fill="#ffffff" fill-rule="evenodd" fill-opacity="1" /><path clip-path="url(#clip720)" d="M2199.96 1548.13 L2199.96 1543.87 Q2201.72 1544.7 2203.52 1545.14 Q2205.33 1545.58 2207.06 1545.58 Q2211.69 1545.58 2214.12 1542.48 Q2216.58 1539.36 2216.93 1533.01 Q2215.58 1535.01 2213.52 1536.07 Q2211.46 1537.13 2208.96 1537.13 Q2203.78 1537.13 2200.75 1534.01 Q2197.74 1530.86 2197.74 1525.42 Q2197.74 1520.1 2200.88 1516.88 Q2204.03 1513.66 2209.26 1513.66 Q2215.26 1513.66 2218.41 1518.27 Q2221.58 1522.85 2221.58 1531.6 Q2221.58 1539.77 2217.69 1544.66 Q2213.82 1549.52 2207.27 1549.52 Q2205.51 1549.52 2203.71 1549.17 Q2201.9 1548.82 2199.96 1548.13 M2209.26 1533.48 Q2212.41 1533.48 2214.24 1531.32 Q2216.09 1529.17 2216.09 1525.42 Q2216.09 1521.7 2214.24 1519.54 Q2212.41 1517.37 2209.26 1517.37 Q2206.12 1517.37 2204.26 1519.54 Q2202.43 1521.7 2202.43 1525.42 Q2202.43 1529.17 2204.26 1531.32 Q2206.12 1533.48 2209.26 1533.48 Z" fill="#ffffff" fill-rule="evenodd" fill-opacity="1" /><path clip-path="url(#clip720)" d="M2239.98 1517.37 Q2236.37 1517.37 2234.54 1520.93 Q2232.74 1524.47 2232.74 1531.6 Q2232.74 1538.71 2234.54 1542.27 Q2236.37 1545.82 2239.98 1545.82 Q2243.62 1545.82 2245.42 1542.27 Q2247.25 1538.71 2247.25 1531.6 Q2247.25 1524.47 2245.42 1520.93 Q2243.62 1517.37 2239.98 1517.37 M2239.98 1513.66 Q2245.79 1513.66 2248.85 1518.27 Q2251.93 1522.85 2251.93 1531.6 Q2251.93 1540.33 2248.85 1544.94 Q2245.79 1549.52 2239.98 1549.52 Q2234.17 1549.52 2231.09 1544.94 Q2228.04 1540.33 2228.04 1531.6 Q2228.04 1522.85 2231.09 1518.27 Q2234.17 1513.66 2239.98 1513.66 Z" fill="#ffffff" fill-rule="evenodd" fill-opacity="1" /><polyline clip-path="url(#clip722)" style="stroke:#ffffff; stroke-linecap:butt; stroke-linejoin:round; stroke-width:2; stroke-opacity:0.1; fill:none" points="
  138.867,1355.2 2352.76,1355.2 
  "/>
<polyline clip-path="url(#clip722)" style="stroke:#ffffff; stroke-linecap:butt; stroke-linejoin:round; stroke-width:2; stroke-opacity:0.1; fill:none" points="
  138.867,1083.65 2352.76,1083.65 
  "/>
<polyline clip-path="url(#clip722)" style="stroke:#ffffff; stroke-linecap:butt; stroke-linejoin:round; stroke-width:2; stroke-opacity:0.1; fill:none" points="
  138.867,812.104 2352.76,812.104 
  "/>
<polyline clip-path="url(#clip722)" style="stroke:#ffffff; stroke-linecap:butt; stroke-linejoin:round; stroke-width:2; stroke-opacity:0.1; fill:none" points="
  138.867,540.556 2352.76,540.556 
  "/>
<polyline clip-path="url(#clip722)" style="stroke:#ffffff; stroke-linecap:butt; stroke-linejoin:round; stroke-width:2; stroke-opacity:0.1; fill:none" points="
  138.867,269.008 2352.76,269.008 
  "/>
<polyline clip-path="url(#clip720)" style="stroke:#ffffff; stroke-linecap:butt; stroke-linejoin:round; stroke-width:4; stroke-opacity:1; fill:none" points="
  138.867,1486.45 138.867,47.2441 
  "/>
<polyline clip-path="url(#clip720)" style="stroke:#ffffff; stroke-linecap:butt; stroke-linejoin:round; stroke-width:4; stroke-opacity:1; fill:none" points="
  138.867,1355.2 157.764,1355.2 
  "/>
<polyline clip-path="url(#clip720)" style="stroke:#ffffff; stroke-linecap:butt; stroke-linejoin:round; stroke-width:4; stroke-opacity:1; fill:none" points="
  138.867,1083.65 157.764,1083.65 
  "/>
<polyline clip-path="url(#clip720)" style="stroke:#ffffff; stroke-linecap:butt; stroke-linejoin:round; stroke-width:4; stroke-opacity:1; fill:none" points="
  138.867,812.104 157.764,812.104 
  "/>
<polyline clip-path="url(#clip720)" style="stroke:#ffffff; stroke-linecap:butt; stroke-linejoin:round; stroke-width:4; stroke-opacity:1; fill:none" points="
  138.867,540.556 157.764,540.556 
  "/>
<polyline clip-path="url(#clip720)" style="stroke:#ffffff; stroke-linecap:butt; stroke-linejoin:round; stroke-width:4; stroke-opacity:1; fill:none" points="
  138.867,269.008 157.764,269.008 
  "/>
<path clip-path="url(#clip720)" d="M91.3391 1353.34 Q88.191 1353.34 86.3392 1355.49 Q84.5105 1357.64 84.5105 1361.39 Q84.5105 1365.12 86.3392 1367.29 Q88.191 1369.45 91.3391 1369.45 Q94.4873 1369.45 96.316 1367.29 Q98.1678 1365.12 98.1678 1361.39 Q98.1678 1357.64 96.316 1355.49 Q94.4873 1353.34 91.3391 1353.34 M100.621 1338.68 L100.621 1342.94 Q98.8622 1342.11 97.0567 1341.67 Q95.2743 1341.23 93.515 1341.23 Q88.8854 1341.23 86.4318 1344.35 Q84.0012 1347.48 83.654 1353.8 Q85.0197 1351.79 87.0799 1350.72 Q89.1401 1349.63 91.6169 1349.63 Q96.8252 1349.63 99.8345 1352.8 Q102.867 1355.95 102.867 1361.39 Q102.867 1366.72 99.7187 1369.93 Q96.5706 1373.15 91.3391 1373.15 Q85.3438 1373.15 82.1725 1368.57 Q79.0012 1363.96 79.0012 1355.23 Q79.0012 1347.04 82.8901 1342.18 Q86.779 1337.29 93.3299 1337.29 Q95.0891 1337.29 96.8715 1337.64 Q98.6771 1337.99 100.621 1338.68 Z" fill="#ffffff" fill-rule="evenodd" fill-opacity="1" /><path clip-path="url(#clip720)" d="M81.2466 1100.21 L81.2466 1095.96 Q83.0058 1096.79 84.8114 1097.23 Q86.6169 1097.67 88.353 1097.67 Q92.9826 1097.67 95.4132 1094.57 Q97.8669 1091.44 98.2141 1085.1 Q96.8715 1087.09 94.8113 1088.15 Q92.7512 1089.22 90.2512 1089.22 Q85.066 1089.22 82.0336 1086.09 Q79.0244 1082.95 79.0244 1077.51 Q79.0244 1072.18 82.1725 1068.96 Q85.3206 1065.75 90.5521 1065.75 Q96.5474 1065.75 99.6956 1070.35 Q102.867 1074.94 102.867 1083.69 Q102.867 1091.86 98.978 1096.74 Q95.1123 1101.6 88.5614 1101.6 Q86.8021 1101.6 84.9966 1101.26 Q83.191 1100.91 81.2466 1100.21 M90.5521 1085.56 Q93.7002 1085.56 95.5289 1083.41 Q97.3808 1081.26 97.3808 1077.51 Q97.3808 1073.78 95.5289 1071.63 Q93.7002 1069.45 90.5521 1069.45 Q87.404 1069.45 85.5521 1071.63 Q83.7234 1073.78 83.7234 1077.51 Q83.7234 1081.26 85.5521 1083.41 Q87.404 1085.56 90.5521 1085.56 Z" fill="#ffffff" fill-rule="evenodd" fill-opacity="1" /><path clip-path="url(#clip720)" d="M53.168 825.449 L60.8069 825.449 L60.8069 799.083 L52.4967 800.75 L52.4967 796.491 L60.7606 794.824 L65.4365 794.824 L65.4365 825.449 L73.0753 825.449 L73.0753 829.384 L53.168 829.384 L53.168 825.449 Z" fill="#ffffff" fill-rule="evenodd" fill-opacity="1" /><path clip-path="url(#clip720)" d="M86.5475 825.449 L102.867 825.449 L102.867 829.384 L80.9225 829.384 L80.9225 825.449 Q83.5845 822.694 88.1679 818.065 Q92.7743 813.412 93.9549 812.069 Q96.2002 809.546 97.0798 807.81 Q97.9826 806.051 97.9826 804.361 Q97.9826 801.606 96.0382 799.87 Q94.1169 798.134 91.0151 798.134 Q88.816 798.134 86.3623 798.898 Q83.9318 799.662 81.154 801.213 L81.154 796.491 Q83.9781 795.356 86.4318 794.778 Q88.8854 794.199 90.9225 794.199 Q96.2928 794.199 99.4872 796.884 Q102.682 799.569 102.682 804.06 Q102.682 806.19 101.871 808.111 Q101.084 810.009 98.978 812.602 Q98.3993 813.273 95.2974 816.491 Q92.1956 819.685 86.5475 825.449 Z" fill="#ffffff" fill-rule="evenodd" fill-opacity="1" /><path clip-path="url(#clip720)" d="M52.5662 553.901 L60.205 553.901 L60.205 527.535 L51.8949 529.202 L51.8949 524.943 L60.1587 523.276 L64.8346 523.276 L64.8346 553.901 L72.4735 553.901 L72.4735 557.836 L52.5662 557.836 L52.5662 553.901 Z" fill="#ffffff" fill-rule="evenodd" fill-opacity="1" /><path clip-path="url(#clip720)" d="M81.9642 523.276 L100.321 523.276 L100.321 527.211 L86.2466 527.211 L86.2466 535.683 Q87.2651 535.336 88.2836 535.174 Q89.3021 534.989 90.3206 534.989 Q96.1076 534.989 99.4872 538.16 Q102.867 541.332 102.867 546.748 Q102.867 552.327 99.3946 555.429 Q95.9224 558.507 89.603 558.507 Q87.4271 558.507 85.1586 558.137 Q82.9133 557.767 80.5059 557.026 L80.5059 552.327 Q82.5892 553.461 84.8114 554.017 Q87.0336 554.572 89.5104 554.572 Q93.515 554.572 95.853 552.466 Q98.1909 550.359 98.1909 546.748 Q98.1909 543.137 95.853 541.031 Q93.515 538.924 89.5104 538.924 Q87.6354 538.924 85.7605 539.341 Q83.9086 539.757 81.9642 540.637 L81.9642 523.276 Z" fill="#ffffff" fill-rule="evenodd" fill-opacity="1" /><path clip-path="url(#clip720)" d="M51.6634 282.353 L59.3023 282.353 L59.3023 255.987 L50.9921 257.654 L50.9921 253.395 L59.256 251.728 L63.9319 251.728 L63.9319 282.353 L71.5707 282.353 L71.5707 286.288 L51.6634 286.288 L51.6634 282.353 Z" fill="#ffffff" fill-rule="evenodd" fill-opacity="1" /><path clip-path="url(#clip720)" d="M91.0151 269.876 Q87.6817 269.876 85.7605 271.659 Q83.8623 273.441 83.8623 276.566 Q83.8623 279.691 85.7605 281.473 Q87.6817 283.256 91.0151 283.256 Q94.3484 283.256 96.2697 281.473 Q98.1909 279.668 98.1909 276.566 Q98.1909 273.441 96.2697 271.659 Q94.3715 269.876 91.0151 269.876 M86.3392 267.886 Q83.3299 267.145 81.6401 265.085 Q79.9735 263.024 79.9735 260.061 Q79.9735 255.918 82.9133 253.511 Q85.8762 251.103 91.0151 251.103 Q96.1771 251.103 99.1169 253.511 Q102.057 255.918 102.057 260.061 Q102.057 263.024 100.367 265.085 Q98.7002 267.145 95.7141 267.886 Q99.0937 268.673 100.969 270.964 Q102.867 273.256 102.867 276.566 Q102.867 281.589 99.7882 284.274 Q96.7326 286.959 91.0151 286.959 Q85.2975 286.959 82.2188 284.274 Q79.1633 281.589 79.1633 276.566 Q79.1633 273.256 81.0614 270.964 Q82.9595 268.673 86.3392 267.886 M84.6262 260.501 Q84.6262 263.186 86.2929 264.691 Q87.9827 266.196 91.0151 266.196 Q94.0243 266.196 95.7141 264.691 Q97.4271 263.186 97.4271 260.501 Q97.4271 257.816 95.7141 256.312 Q94.0243 254.807 91.0151 254.807 Q87.9827 254.807 86.2929 256.312 Q84.6262 257.816 84.6262 260.501 Z" fill="#ffffff" fill-rule="evenodd" fill-opacity="1" /><line clip-path="url(#clip722)" x1="2224.83" y1="1445.72" x2="2224.83" y2="1397.72" style="stroke:#009af9; stroke-width:3.2; stroke-opacity:0.5"/>
<line clip-path="url(#clip722)" x1="2224.83" y1="1445.72" x2="2176.83" y2="1445.72" style="stroke:#009af9; stroke-width:3.2; stroke-opacity:0.5"/>
<line clip-path="url(#clip722)" x1="2224.83" y1="1445.72" x2="2224.83" y2="1493.72" style="stroke:#009af9; stroke-width:3.2; stroke-opacity:0.5"/>
<line clip-path="url(#clip722)" x1="2224.83" y1="1445.72" x2="2272.83" y2="1445.72" style="stroke:#009af9; stroke-width:3.2; stroke-opacity:0.5"/>
<line clip-path="url(#clip722)" x1="2061.66" y1="812.104" x2="2061.66" y2="764.104" style="stroke:#009af9; stroke-width:3.2; stroke-opacity:0.5"/>
<line clip-path="url(#clip722)" x1="2061.66" y1="812.104" x2="2013.66" y2="812.104" style="stroke:#009af9; stroke-width:3.2; stroke-opacity:0.5"/>
<line clip-path="url(#clip722)" x1="2061.66" y1="812.104" x2="2061.66" y2="860.104" style="stroke:#009af9; stroke-width:3.2; stroke-opacity:0.5"/>
<line clip-path="url(#clip722)" x1="2061.66" y1="812.104" x2="2109.66" y2="812.104" style="stroke:#009af9; stroke-width:3.2; stroke-opacity:0.5"/>
<line clip-path="url(#clip722)" x1="2126.93" y1="540.556" x2="2126.93" y2="492.556" style="stroke:#009af9; stroke-width:3.2; stroke-opacity:0.5"/>
<line clip-path="url(#clip722)" x1="2126.93" y1="540.556" x2="2078.93" y2="540.556" style="stroke:#009af9; stroke-width:3.2; stroke-opacity:0.5"/>
<line clip-path="url(#clip722)" x1="2126.93" y1="540.556" x2="2126.93" y2="588.556" style="stroke:#009af9; stroke-width:3.2; stroke-opacity:0.5"/>
<line clip-path="url(#clip722)" x1="2126.93" y1="540.556" x2="2174.93" y2="540.556" style="stroke:#009af9; stroke-width:3.2; stroke-opacity:0.5"/>
<line clip-path="url(#clip722)" x1="2290.1" y1="1445.72" x2="2290.1" y2="1397.72" style="stroke:#009af9; stroke-width:3.2; stroke-opacity:0.5"/>
<line clip-path="url(#clip722)" x1="2290.1" y1="1445.72" x2="2242.1" y2="1445.72" style="stroke:#009af9; stroke-width:3.2; stroke-opacity:0.5"/>
<line clip-path="url(#clip722)" x1="2290.1" y1="1445.72" x2="2290.1" y2="1493.72" style="stroke:#009af9; stroke-width:3.2; stroke-opacity:0.5"/>
<line clip-path="url(#clip722)" x1="2290.1" y1="1445.72" x2="2338.1" y2="1445.72" style="stroke:#009af9; stroke-width:3.2; stroke-opacity:0.5"/>
<path clip-path="url(#clip722)" d="M332.06 1403.2 L290.492 1379.2 L290.492 1331.2 L332.06 1307.2 L373.628 1331.2 L373.628 1379.2 Z" fill="#e26f46" fill-rule="evenodd" fill-opacity="0.5" stroke="#ffffff" stroke-opacity="0.5" stroke-width="3.2"/>
<path clip-path="url(#clip722)" d="M462.596 1312.68 L421.028 1288.68 L421.028 1240.68 L462.596 1216.68 L504.164 1240.68 L504.164 1288.68 Z" fill="#e26f46" fill-rule="evenodd" fill-opacity="0.5" stroke="#ffffff" stroke-opacity="0.5" stroke-width="3.2"/>
<path clip-path="url(#clip722)" d="M201.524 860.104 L159.956 836.104 L159.956 788.104 L201.524 764.104 L243.092 788.104 L243.092 836.104 Z" fill="#e26f46" fill-rule="evenodd" fill-opacity="0.5" stroke="#ffffff" stroke-opacity="0.5" stroke-width="3.2"/>
<path clip-path="url(#clip722)" d="M364.694 1312.68 L323.126 1288.68 L323.126 1240.68 L364.694 1216.68 L406.262 1240.68 L406.262 1288.68 Z" fill="#e26f46" fill-rule="evenodd" fill-opacity="0.5" stroke="#ffffff" stroke-opacity="0.5" stroke-width="3.2"/>
<path clip-path="url(#clip722)" d="M756.302 39.9763 L747.95 70.6963 L718.766 58.0723 L737.582 83.7043 L709.502 98.6803 L741.278 99.9283 L735.47 131.224 L756.302 107.176 L777.134 131.224 L771.326 99.9283 L803.102 98.6803 L775.022 83.7043 L793.838 58.0723 L764.654 70.6963 L756.302 39.9763 Z" fill="#3da44d" fill-rule="evenodd" fill-opacity="0.5" stroke="#ffffff" stroke-opacity="0.5" stroke-width="3.2"/>
<path clip-path="url(#clip722)" d="M919.472 673.588 L911.12 704.308 L881.936 691.684 L900.752 717.316 L872.672 732.292 L904.448 733.54 L898.64 764.836 L919.472 740.788 L940.304 764.836 L934.496 733.54 L966.272 732.292 L938.192 717.316 L957.008 691.684 L927.824 704.308 L919.472 673.588 Z" fill="#3da44d" fill-rule="evenodd" fill-opacity="0.5" stroke="#ffffff" stroke-opacity="0.5" stroke-width="3.2"/>
<path clip-path="url(#clip722)" d="M1050.01 1126.17 L1041.66 1156.89 L1012.47 1144.26 L1031.29 1169.9 L1003.21 1184.87 L1034.98 1186.12 L1029.18 1217.42 L1050.01 1193.37 L1070.84 1217.42 L1065.03 1186.12 L1096.81 1184.87 L1068.73 1169.9 L1087.54 1144.26 L1058.36 1156.89 L1050.01 1126.17 Z" fill="#3da44d" fill-rule="evenodd" fill-opacity="0.5" stroke="#ffffff" stroke-opacity="0.5" stroke-width="3.2"/>
<path clip-path="url(#clip722)" d="M658.4 945.136 L650.048 975.856 L620.864 963.232 L639.68 988.864 L611.6 1003.84 L643.376 1005.09 L637.568 1036.38 L658.4 1012.34 L679.232 1036.38 L673.424 1005.09 L705.2 1003.84 L677.12 988.864 L695.936 963.232 L666.752 975.856 L658.4 945.136 Z" fill="#3da44d" fill-rule="evenodd" fill-opacity="0.5" stroke="#ffffff" stroke-opacity="0.5" stroke-width="3.2"/>
<path clip-path="url(#clip720)" d="
M1826.35 302.578 L2278.96 302.578 L2278.96 95.2176 L1826.35 95.2176  Z
  " fill="#333333" fill-rule="evenodd" fill-opacity="1"/>
<polyline clip-path="url(#clip720)" style="stroke:#ffffff; stroke-linecap:butt; stroke-linejoin:round; stroke-width:4; stroke-opacity:1; fill:none" points="
  1826.35,302.578 2278.96,302.578 2278.96,95.2176 1826.35,95.2176 1826.35,302.578 
  "/>
<line clip-path="url(#clip720)" x1="1922.35" y1="147.058" x2="1922.35" y2="121.458" style="stroke:#009af9; stroke-width:3.2; stroke-opacity:0.5"/>
<line clip-path="url(#clip720)" x1="1922.35" y1="147.058" x2="1896.75" y2="147.058" style="stroke:#009af9; stroke-width:3.2; stroke-opacity:0.5"/>
<line clip-path="url(#clip720)" x1="1922.35" y1="147.058" x2="1922.35" y2="172.658" style="stroke:#009af9; stroke-width:3.2; stroke-opacity:0.5"/>
<line clip-path="url(#clip720)" x1="1922.35" y1="147.058" x2="1947.95" y2="147.058" style="stroke:#009af9; stroke-width:3.2; stroke-opacity:0.5"/>
<path clip-path="url(#clip720)" d="M2038.69 143.389 Q2040.29 140.518 2042.51 139.153 Q2044.73 137.787 2047.74 137.787 Q2051.79 137.787 2053.99 140.634 Q2056.19 143.458 2056.19 148.689 L2056.19 164.338 L2051.91 164.338 L2051.91 148.828 Q2051.91 145.102 2050.59 143.296 Q2049.27 141.49 2046.56 141.49 Q2043.25 141.49 2041.33 143.69 Q2039.41 145.889 2039.41 149.685 L2039.41 164.338 L2035.13 164.338 L2035.13 148.828 Q2035.13 145.078 2033.81 143.296 Q2032.49 141.49 2029.73 141.49 Q2026.47 141.49 2024.55 143.713 Q2022.63 145.912 2022.63 149.685 L2022.63 164.338 L2018.35 164.338 L2018.35 138.412 L2022.63 138.412 L2022.63 142.44 Q2024.09 140.055 2026.12 138.921 Q2028.16 137.787 2030.96 137.787 Q2033.78 137.787 2035.75 139.222 Q2037.74 140.657 2038.69 143.389 Z" fill="#ffffff" fill-rule="evenodd" fill-opacity="1" /><path clip-path="url(#clip720)" d="M2064.25 154.106 L2064.25 138.412 L2068.51 138.412 L2068.51 153.944 Q2068.51 157.625 2069.94 159.476 Q2071.38 161.305 2074.25 161.305 Q2077.7 161.305 2079.69 159.106 Q2081.7 156.907 2081.7 153.111 L2081.7 138.412 L2085.96 138.412 L2085.96 164.338 L2081.7 164.338 L2081.7 160.356 Q2080.15 162.717 2078.09 163.875 Q2076.05 165.009 2073.34 165.009 Q2068.88 165.009 2066.56 162.231 Q2064.25 159.453 2064.25 154.106 M2074.97 137.787 L2074.97 137.787 Z" fill="#ffffff" fill-rule="evenodd" fill-opacity="1" /><path clip-path="url(#clip720)" d="M2114.92 143.389 Q2116.52 140.518 2118.74 139.153 Q2120.96 137.787 2123.97 137.787 Q2128.02 137.787 2130.22 140.634 Q2132.42 143.458 2132.42 148.689 L2132.42 164.338 L2128.14 164.338 L2128.14 148.828 Q2128.14 145.102 2126.82 143.296 Q2125.5 141.49 2122.79 141.49 Q2119.48 141.49 2117.56 143.69 Q2115.64 145.889 2115.64 149.685 L2115.64 164.338 L2111.35 164.338 L2111.35 148.828 Q2111.35 145.078 2110.03 143.296 Q2108.71 141.49 2105.96 141.49 Q2102.7 141.49 2100.78 143.713 Q2098.85 145.912 2098.85 149.685 L2098.85 164.338 L2094.57 164.338 L2094.57 138.412 L2098.85 138.412 L2098.85 142.44 Q2100.31 140.055 2102.35 138.921 Q2104.39 137.787 2107.19 137.787 Q2110.01 137.787 2111.98 139.222 Q2113.97 140.657 2114.92 143.389 Z" fill="#ffffff" fill-rule="evenodd" fill-opacity="1" /><path clip-path="url(#clip720)" d="M2159.52 151.398 Q2159.52 146.699 2157.58 144.037 Q2155.66 141.352 2152.28 141.352 Q2148.9 141.352 2146.96 144.037 Q2145.03 146.699 2145.03 151.398 Q2145.03 156.097 2146.96 158.782 Q2148.9 161.444 2152.28 161.444 Q2155.66 161.444 2157.58 158.782 Q2159.52 156.097 2159.52 151.398 M2145.03 142.347 Q2146.38 140.032 2148.41 138.921 Q2150.47 137.787 2153.32 137.787 Q2158.04 137.787 2160.98 141.537 Q2163.95 145.287 2163.95 151.398 Q2163.95 157.509 2160.98 161.259 Q2158.04 165.009 2153.32 165.009 Q2150.47 165.009 2148.41 163.898 Q2146.38 162.763 2145.03 160.449 L2145.03 164.338 L2140.75 164.338 L2140.75 128.319 L2145.03 128.319 L2145.03 142.347 Z" fill="#ffffff" fill-rule="evenodd" fill-opacity="1" /><path clip-path="url(#clip720)" d="M2182.79 151.305 Q2177.63 151.305 2175.64 152.486 Q2173.65 153.666 2173.65 156.514 Q2173.65 158.782 2175.13 160.125 Q2176.63 161.444 2179.2 161.444 Q2182.74 161.444 2184.87 158.944 Q2187.02 156.421 2187.02 152.254 L2187.02 151.305 L2182.79 151.305 M2191.28 149.546 L2191.28 164.338 L2187.02 164.338 L2187.02 160.402 Q2185.57 162.763 2183.39 163.898 Q2181.21 165.009 2178.07 165.009 Q2174.08 165.009 2171.72 162.787 Q2169.39 160.541 2169.39 156.791 Q2169.39 152.416 2172.3 150.194 Q2175.24 147.972 2181.05 147.972 L2187.02 147.972 L2187.02 147.555 Q2187.02 144.615 2185.08 143.018 Q2183.16 141.398 2179.66 141.398 Q2177.44 141.398 2175.33 141.93 Q2173.23 142.463 2171.28 143.527 L2171.28 139.592 Q2173.62 138.69 2175.82 138.25 Q2178.02 137.787 2180.1 137.787 Q2185.73 137.787 2188.51 140.703 Q2191.28 143.62 2191.28 149.546 Z" fill="#ffffff" fill-rule="evenodd" fill-opacity="1" /><path clip-path="url(#clip720)" d="M2200.06 138.412 L2204.32 138.412 L2204.32 164.338 L2200.06 164.338 L2200.06 138.412 M2200.06 128.319 L2204.32 128.319 L2204.32 133.713 L2200.06 133.713 L2200.06 128.319 Z" fill="#ffffff" fill-rule="evenodd" fill-opacity="1" /><path clip-path="url(#clip720)" d="M1922.35 224.498 L1900.18 211.698 L1900.18 186.098 L1922.35 173.298 L1944.51 186.098 L1944.51 211.698 Z" fill="#e26f46" fill-rule="evenodd" fill-opacity="0.5" stroke="#ffffff" stroke-opacity="0.5" stroke-width="1.70667"/>
<path clip-path="url(#clip720)" d="M2040.06 200.529 L2040.06 216.178 L2035.8 216.178 L2035.8 200.668 Q2035.8 196.988 2034.36 195.159 Q2032.93 193.33 2030.06 193.33 Q2026.61 193.33 2024.62 195.53 Q2022.63 197.729 2022.63 201.525 L2022.63 216.178 L2018.35 216.178 L2018.35 190.252 L2022.63 190.252 L2022.63 194.28 Q2024.16 191.942 2026.22 190.784 Q2028.3 189.627 2031.01 189.627 Q2035.47 189.627 2037.77 192.405 Q2040.06 195.159 2040.06 200.529 Z" fill="#ffffff" fill-rule="evenodd" fill-opacity="1" /><path clip-path="url(#clip720)" d="M2070.73 202.15 L2070.73 204.233 L2051.15 204.233 Q2051.42 208.631 2053.78 210.946 Q2056.17 213.238 2060.4 213.238 Q2062.86 213.238 2065.15 212.636 Q2067.47 212.034 2069.73 210.83 L2069.73 214.858 Q2067.44 215.83 2065.03 216.34 Q2062.63 216.849 2060.15 216.849 Q2053.95 216.849 2050.31 213.238 Q2046.7 209.627 2046.7 203.469 Q2046.7 197.104 2050.13 193.377 Q2053.58 189.627 2059.41 189.627 Q2064.64 189.627 2067.67 193.006 Q2070.73 196.363 2070.73 202.15 M2066.47 200.9 Q2066.42 197.405 2064.5 195.321 Q2062.6 193.238 2059.46 193.238 Q2055.89 193.238 2053.74 195.252 Q2051.61 197.266 2051.28 200.923 L2066.47 200.9 Z" fill="#ffffff" fill-rule="evenodd" fill-opacity="1" /><path clip-path="url(#clip720)" d="M2075.24 190.252 L2079.5 190.252 L2084.83 210.483 L2090.13 190.252 L2095.15 190.252 L2100.47 210.483 L2105.78 190.252 L2110.03 190.252 L2103.25 216.178 L2098.23 216.178 L2092.65 194.928 L2087.05 216.178 L2082.03 216.178 L2075.24 190.252 Z" fill="#ffffff" fill-rule="evenodd" fill-opacity="1" /><path clip-path="url(#clip720)" d="M2142.35 218.585 Q2140.54 223.215 2138.83 224.627 Q2137.12 226.039 2134.25 226.039 L2130.84 226.039 L2130.84 222.474 L2133.34 222.474 Q2135.1 222.474 2136.08 221.64 Q2137.05 220.807 2138.23 217.705 L2138.99 215.761 L2128.51 190.252 L2133.02 190.252 L2141.12 210.529 L2149.22 190.252 L2153.74 190.252 L2142.35 218.585 Z" fill="#ffffff" fill-rule="evenodd" fill-opacity="1" /><path clip-path="url(#clip720)" d="M2169.66 193.238 Q2166.24 193.238 2164.25 195.923 Q2162.26 198.585 2162.26 203.238 Q2162.26 207.891 2164.22 210.576 Q2166.21 213.238 2169.66 213.238 Q2173.07 213.238 2175.06 210.553 Q2177.05 207.867 2177.05 203.238 Q2177.05 198.631 2175.06 195.946 Q2173.07 193.238 2169.66 193.238 M2169.66 189.627 Q2175.22 189.627 2178.39 193.238 Q2181.56 196.849 2181.56 203.238 Q2181.56 209.604 2178.39 213.238 Q2175.22 216.849 2169.66 216.849 Q2164.08 216.849 2160.91 213.238 Q2157.77 209.604 2157.77 203.238 Q2157.77 196.849 2160.91 193.238 Q2164.08 189.627 2169.66 189.627 Z" fill="#ffffff" fill-rule="evenodd" fill-opacity="1" /><path clip-path="url(#clip720)" d="M2203.64 194.233 Q2202.93 193.817 2202.07 193.631 Q2201.24 193.423 2200.22 193.423 Q2196.61 193.423 2194.66 195.784 Q2192.74 198.122 2192.74 202.52 L2192.74 216.178 L2188.46 216.178 L2188.46 190.252 L2192.74 190.252 L2192.74 194.28 Q2194.08 191.918 2196.24 190.784 Q2198.39 189.627 2201.47 189.627 Q2201.91 189.627 2202.44 189.696 Q2202.97 189.743 2203.62 189.858 L2203.64 194.233 Z" fill="#ffffff" fill-rule="evenodd" fill-opacity="1" /><path clip-path="url(#clip720)" d="M2207.95 180.159 L2212.23 180.159 L2212.23 201.432 L2224.94 190.252 L2230.38 190.252 L2216.63 202.381 L2230.96 216.178 L2225.4 216.178 L2212.23 203.516 L2212.23 216.178 L2207.95 216.178 L2207.95 180.159 Z" fill="#ffffff" fill-rule="evenodd" fill-opacity="1" /><path clip-path="url(#clip720)" d="M1922.35 225.138 L1917.89 241.522 L1902.33 234.789 L1912.36 248.459 L1897.39 256.446 L1914.33 257.112 L1911.23 273.803 L1922.35 260.978 L1933.46 273.803 L1930.36 257.112 L1947.31 256.446 L1932.33 248.459 L1942.36 234.789 L1926.8 241.522 L1922.35 225.138 Z" fill="#3da44d" fill-rule="evenodd" fill-opacity="0.5" stroke="#ffffff" stroke-opacity="0.5" stroke-width="1.70667"/>
<path clip-path="url(#clip720)" d="M2022.63 264.129 L2022.63 277.879 L2018.35 277.879 L2018.35 242.092 L2022.63 242.092 L2022.63 246.027 Q2023.97 243.712 2026.01 242.601 Q2028.07 241.467 2030.91 241.467 Q2035.64 241.467 2038.58 245.217 Q2041.54 248.967 2041.54 255.078 Q2041.54 261.189 2038.58 264.939 Q2035.64 268.689 2030.91 268.689 Q2028.07 268.689 2026.01 267.578 Q2023.97 266.443 2022.63 264.129 M2037.12 255.078 Q2037.12 250.379 2035.17 247.717 Q2033.25 245.032 2029.87 245.032 Q2026.49 245.032 2024.55 247.717 Q2022.63 250.379 2022.63 255.078 Q2022.63 259.777 2024.55 262.462 Q2026.49 265.124 2029.87 265.124 Q2033.25 265.124 2035.17 262.462 Q2037.12 259.777 2037.12 255.078 Z" fill="#ffffff" fill-rule="evenodd" fill-opacity="1" /><path clip-path="url(#clip720)" d="M2060.38 254.985 Q2055.22 254.985 2053.23 256.166 Q2051.24 257.346 2051.24 260.194 Q2051.24 262.462 2052.72 263.805 Q2054.22 265.124 2056.79 265.124 Q2060.34 265.124 2062.47 262.624 Q2064.62 260.101 2064.62 255.934 L2064.62 254.985 L2060.38 254.985 M2068.88 253.226 L2068.88 268.018 L2064.62 268.018 L2064.62 264.082 Q2063.16 266.443 2060.98 267.578 Q2058.81 268.689 2055.66 268.689 Q2051.68 268.689 2049.32 266.467 Q2046.98 264.221 2046.98 260.471 Q2046.98 256.096 2049.9 253.874 Q2052.84 251.652 2058.65 251.652 L2064.62 251.652 L2064.62 251.235 Q2064.62 248.295 2062.67 246.698 Q2060.75 245.078 2057.26 245.078 Q2055.03 245.078 2052.93 245.61 Q2050.82 246.143 2048.88 247.207 L2048.88 243.272 Q2051.22 242.37 2053.41 241.93 Q2055.61 241.467 2057.7 241.467 Q2063.32 241.467 2066.1 244.383 Q2068.88 247.3 2068.88 253.226 Z" fill="#ffffff" fill-rule="evenodd" fill-opacity="1" /><path clip-path="url(#clip720)" d="M2092.67 246.073 Q2091.96 245.657 2091.1 245.471 Q2090.27 245.263 2089.25 245.263 Q2085.64 245.263 2083.69 247.624 Q2081.77 249.962 2081.77 254.36 L2081.77 268.018 L2077.49 268.018 L2077.49 242.092 L2081.77 242.092 L2081.77 246.12 Q2083.11 243.758 2085.27 242.624 Q2087.42 241.467 2090.5 241.467 Q2090.94 241.467 2091.47 241.536 Q2092 241.583 2092.65 241.698 L2092.67 246.073 Z" fill="#ffffff" fill-rule="evenodd" fill-opacity="1" /><path clip-path="url(#clip720)" d="M2097.14 242.092 L2101.4 242.092 L2101.4 268.018 L2097.14 268.018 L2097.14 242.092 M2097.14 231.999 L2101.4 231.999 L2101.4 237.393 L2097.14 237.393 L2097.14 231.999 Z" fill="#ffffff" fill-rule="evenodd" fill-opacity="1" /><path clip-path="url(#clip720)" d="M2126.84 242.856 L2126.84 246.883 Q2125.03 245.957 2123.09 245.495 Q2121.15 245.032 2119.06 245.032 Q2115.89 245.032 2114.29 246.004 Q2112.72 246.976 2112.72 248.92 Q2112.72 250.402 2113.85 251.258 Q2114.99 252.092 2118.41 252.856 L2119.87 253.18 Q2124.41 254.152 2126.31 255.934 Q2128.23 257.694 2128.23 260.865 Q2128.23 264.476 2125.36 266.582 Q2122.51 268.689 2117.51 268.689 Q2115.43 268.689 2113.16 268.272 Q2110.91 267.879 2108.41 267.068 L2108.41 262.67 Q2110.78 263.897 2113.07 264.522 Q2115.36 265.124 2117.6 265.124 Q2120.61 265.124 2122.23 264.106 Q2123.85 263.064 2123.85 261.189 Q2123.85 259.453 2122.67 258.527 Q2121.52 257.601 2117.56 256.744 L2116.08 256.397 Q2112.12 255.564 2110.36 253.851 Q2108.6 252.115 2108.6 249.106 Q2108.6 245.448 2111.19 243.458 Q2113.78 241.467 2118.55 241.467 Q2120.91 241.467 2123 241.814 Q2125.08 242.161 2126.84 242.856 Z" fill="#ffffff" fill-rule="evenodd" fill-opacity="1" /></svg>
