<?xml version="1.0" encoding="utf-8"?>
<svg xmlns="http://www.w3.org/2000/svg" xmlns:xlink="http://www.w3.org/1999/xlink" width="600" height="400" viewBox="0 0 2400 1600">
<defs>
  <clipPath id="clip400">
    <rect x="0" y="0" width="2400" height="1600"/>
  </clipPath>
</defs>
<path clip-path="url(#clip400)" d="
M0 1600 L2400 1600 L2400 0 L0 0  Z
  " fill="#ffffff" fill-rule="evenodd" fill-opacity="1"/>
<defs>
  <clipPath id="clip401">
    <rect x="480" y="0" width="1681" height="1600"/>
  </clipPath>
</defs>
<path clip-path="url(#clip400)" d="
M370.861 1423.18 L2352.76 1423.18 L2352.76 47.2441 L370.861 47.2441  Z
  " fill="#ffffff" fill-rule="evenodd" fill-opacity="1"/>
<defs>
  <clipPath id="clip402">
    <rect x="370" y="47" width="1983" height="1377"/>
  </clipPath>
</defs>
<polyline clip-path="url(#clip402)" style="stroke:#000000; stroke-linecap:butt; stroke-linejoin:round; stroke-width:2; stroke-opacity:0.1; fill:none" points="
  605.967,1423.18 605.967,47.2441 
  "/>
<polyline clip-path="url(#clip402)" style="stroke:#000000; stroke-linecap:butt; stroke-linejoin:round; stroke-width:2; stroke-opacity:0.1; fill:none" points="
  1003.78,1423.18 1003.78,47.2441 
  "/>
<polyline clip-path="url(#clip402)" style="stroke:#000000; stroke-linecap:butt; stroke-linejoin:round; stroke-width:2; stroke-opacity:0.1; fill:none" points="
  1401.59,1423.18 1401.59,47.2441 
  "/>
<polyline clip-path="url(#clip402)" style="stroke:#000000; stroke-linecap:butt; stroke-linejoin:round; stroke-width:2; stroke-opacity:0.1; fill:none" points="
  1799.4,1423.18 1799.4,47.2441 
  "/>
<polyline clip-path="url(#clip402)" style="stroke:#000000; stroke-linecap:butt; stroke-linejoin:round; stroke-width:2; stroke-opacity:0.1; fill:none" points="
  2197.21,1423.18 2197.21,47.2441 
  "/>
<polyline clip-path="url(#clip400)" style="stroke:#000000; stroke-linecap:butt; stroke-linejoin:round; stroke-width:4; stroke-opacity:1; fill:none" points="
  370.861,1423.18 2352.76,1423.18 
  "/>
<polyline clip-path="url(#clip400)" style="stroke:#000000; stroke-linecap:butt; stroke-linejoin:round; stroke-width:4; stroke-opacity:1; fill:none" points="
  605.967,1423.18 605.967,1404.28 
  "/>
<polyline clip-path="url(#clip400)" style="stroke:#000000; stroke-linecap:butt; stroke-linejoin:round; stroke-width:4; stroke-opacity:1; fill:none" points="
  1003.78,1423.18 1003.78,1404.28 
  "/>
<polyline clip-path="url(#clip400)" style="stroke:#000000; stroke-linecap:butt; stroke-linejoin:round; stroke-width:4; stroke-opacity:1; fill:none" points="
  1401.59,1423.18 1401.59,1404.28 
  "/>
<polyline clip-path="url(#clip400)" style="stroke:#000000; stroke-linecap:butt; stroke-linejoin:round; stroke-width:4; stroke-opacity:1; fill:none" points="
  1799.4,1423.18 1799.4,1404.28 
  "/>
<polyline clip-path="url(#clip400)" style="stroke:#000000; stroke-linecap:butt; stroke-linejoin:round; stroke-width:4; stroke-opacity:1; fill:none" points="
  2197.21,1423.18 2197.21,1404.28 
  "/>
<path clip-path="url(#clip400)" d="M600.62 1481.64 L616.939 1481.64 L616.939 1485.58 L594.995 1485.58 L594.995 1481.64 Q597.657 1478.89 602.24 1474.26 Q606.847 1469.61 608.027 1468.27 Q610.273 1465.74 611.152 1464.01 Q612.055 1462.25 612.055 1460.56 Q612.055 1457.8 610.111 1456.07 Q608.189 1454.33 605.088 1454.33 Q602.889 1454.33 600.435 1455.09 Q598.004 1455.86 595.227 1457.41 L595.227 1452.69 Q598.051 1451.55 600.504 1450.97 Q602.958 1450.39 604.995 1450.39 Q610.365 1450.39 613.56 1453.08 Q616.754 1455.77 616.754 1460.26 Q616.754 1462.39 615.944 1464.31 Q615.157 1466.2 613.051 1468.8 Q612.472 1469.47 609.37 1472.69 Q606.268 1475.88 600.62 1481.64 Z" fill="#000000" fill-rule="evenodd" fill-opacity="1" /><path clip-path="url(#clip400)" d="M1006.79 1455.09 L994.982 1473.54 L1006.79 1473.54 L1006.79 1455.09 M1005.56 1451.02 L1011.44 1451.02 L1011.44 1473.54 L1016.37 1473.54 L1016.37 1477.43 L1011.44 1477.43 L1011.44 1485.58 L1006.79 1485.58 L1006.79 1477.43 L991.186 1477.43 L991.186 1472.92 L1005.56 1451.02 Z" fill="#000000" fill-rule="evenodd" fill-opacity="1" /><path clip-path="url(#clip400)" d="M1401.99 1466.44 Q1398.85 1466.44 1396.99 1468.59 Q1395.17 1470.74 1395.17 1474.49 Q1395.17 1478.22 1396.99 1480.39 Q1398.85 1482.55 1401.99 1482.55 Q1405.14 1482.55 1406.97 1480.39 Q1408.82 1478.22 1408.82 1474.49 Q1408.82 1470.74 1406.97 1468.59 Q1405.14 1466.44 1401.99 1466.44 M1411.28 1451.78 L1411.28 1456.04 Q1409.52 1455.21 1407.71 1454.77 Q1405.93 1454.33 1404.17 1454.33 Q1399.54 1454.33 1397.09 1457.45 Q1394.66 1460.58 1394.31 1466.9 Q1395.68 1464.89 1397.74 1463.82 Q1399.8 1462.73 1402.27 1462.73 Q1407.48 1462.73 1410.49 1465.9 Q1413.52 1469.05 1413.52 1474.49 Q1413.52 1479.82 1410.37 1483.03 Q1407.23 1486.25 1401.99 1486.25 Q1396 1486.25 1392.83 1481.67 Q1389.66 1477.06 1389.66 1468.33 Q1389.66 1460.14 1393.55 1455.28 Q1397.43 1450.39 1403.99 1450.39 Q1405.74 1450.39 1407.53 1450.74 Q1409.33 1451.09 1411.28 1451.78 Z" fill="#000000" fill-rule="evenodd" fill-opacity="1" /><path clip-path="url(#clip400)" d="M1799.4 1469.17 Q1796.07 1469.17 1794.15 1470.95 Q1792.25 1472.73 1792.25 1475.86 Q1792.25 1478.98 1794.15 1480.77 Q1796.07 1482.55 1799.4 1482.55 Q1802.73 1482.55 1804.66 1480.77 Q1806.58 1478.96 1806.58 1475.86 Q1806.58 1472.73 1804.66 1470.95 Q1802.76 1469.17 1799.4 1469.17 M1794.72 1467.18 Q1791.72 1466.44 1790.03 1464.38 Q1788.36 1462.32 1788.36 1459.35 Q1788.36 1455.21 1791.3 1452.8 Q1794.26 1450.39 1799.4 1450.39 Q1804.56 1450.39 1807.5 1452.8 Q1810.44 1455.21 1810.44 1459.35 Q1810.44 1462.32 1808.75 1464.38 Q1807.09 1466.44 1804.1 1467.18 Q1807.48 1467.96 1809.35 1470.26 Q1811.25 1472.55 1811.25 1475.86 Q1811.25 1480.88 1808.17 1483.57 Q1805.12 1486.25 1799.4 1486.25 Q1793.68 1486.25 1790.6 1483.57 Q1787.55 1480.88 1787.55 1475.86 Q1787.55 1472.55 1789.45 1470.26 Q1791.35 1467.96 1794.72 1467.18 M1793.01 1459.79 Q1793.01 1462.48 1794.68 1463.98 Q1796.37 1465.49 1799.4 1465.49 Q1802.41 1465.49 1804.1 1463.98 Q1805.81 1462.48 1805.81 1459.79 Q1805.81 1457.11 1804.1 1455.6 Q1802.41 1454.1 1799.4 1454.1 Q1796.37 1454.1 1794.68 1455.6 Q1793.01 1457.11 1793.01 1459.79 Z" fill="#000000" fill-rule="evenodd" fill-opacity="1" /><path clip-path="url(#clip400)" d="M2171.9 1481.64 L2179.54 1481.64 L2179.54 1455.28 L2171.23 1456.95 L2171.23 1452.69 L2179.49 1451.02 L2184.17 1451.02 L2184.17 1481.64 L2191.81 1481.64 L2191.81 1485.58 L2171.9 1485.58 L2171.9 1481.64 Z" fill="#000000" fill-rule="evenodd" fill-opacity="1" /><path clip-path="url(#clip400)" d="M2211.25 1454.1 Q2207.64 1454.1 2205.81 1457.66 Q2204.01 1461.2 2204.01 1468.33 Q2204.01 1475.44 2205.81 1479.01 Q2207.64 1482.55 2211.25 1482.55 Q2214.89 1482.55 2216.69 1479.01 Q2218.52 1475.44 2218.52 1468.33 Q2218.52 1461.2 2216.69 1457.66 Q2214.89 1454.1 2211.25 1454.1 M2211.25 1450.39 Q2217.06 1450.39 2220.12 1455 Q2223.2 1459.58 2223.2 1468.33 Q2223.2 1477.06 2220.12 1481.67 Q2217.06 1486.25 2211.25 1486.25 Q2205.44 1486.25 2202.36 1481.67 Q2199.31 1477.06 2199.31 1468.33 Q2199.31 1459.58 2202.36 1455 Q2205.44 1450.39 2211.25 1450.39 Z" fill="#000000" fill-rule="evenodd" fill-opacity="1" /><path clip-path="url(#clip400)" d="M1184.98 1520.52 L1215.03 1520.52 L1215.03 1525.93 L1191.41 1525.93 L1191.41 1540 L1214.04 1540 L1214.04 1545.41 L1191.41 1545.41 L1191.41 1562.63 L1215.6 1562.63 L1215.6 1568.04 L1184.98 1568.04 L1184.98 1520.52 Z" fill="#000000" fill-rule="evenodd" fill-opacity="1" /><path clip-path="url(#clip400)" d="M1255.55 1532.4 L1242.66 1549.74 L1256.22 1568.04 L1249.31 1568.04 L1238.93 1554.04 L1228.56 1568.04 L1221.65 1568.04 L1235.5 1549.39 L1222.83 1532.4 L1229.74 1532.4 L1239.19 1545.1 L1248.64 1532.4 L1255.55 1532.4 Z" fill="#000000" fill-rule="evenodd" fill-opacity="1" /><path clip-path="url(#clip400)" d="M1270.16 1562.7 L1270.16 1581.6 L1264.27 1581.6 L1264.27 1532.4 L1270.16 1532.4 L1270.16 1537.81 Q1272 1534.62 1274.81 1533.1 Q1277.64 1531.54 1281.55 1531.54 Q1288.05 1531.54 1292.09 1536.69 Q1296.16 1541.85 1296.16 1550.25 Q1296.16 1558.65 1292.09 1563.81 Q1288.05 1568.97 1281.55 1568.97 Q1277.64 1568.97 1274.81 1567.44 Q1272 1565.88 1270.16 1562.7 M1290.08 1550.25 Q1290.08 1543.79 1287.41 1540.13 Q1284.77 1536.44 1280.12 1536.44 Q1275.47 1536.44 1272.8 1540.13 Q1270.16 1543.79 1270.16 1550.25 Q1270.16 1556.71 1272.8 1560.4 Q1275.47 1564.07 1280.12 1564.07 Q1284.77 1564.07 1287.41 1560.4 Q1290.08 1556.71 1290.08 1550.25 Z" fill="#000000" fill-rule="evenodd" fill-opacity="1" /><path clip-path="url(#clip400)" d="M1336.36 1548.76 L1336.36 1551.62 L1309.43 1551.62 Q1309.82 1557.67 1313.06 1560.85 Q1316.34 1564 1322.17 1564 Q1325.54 1564 1328.69 1563.17 Q1331.87 1562.35 1334.99 1560.69 L1334.99 1566.23 Q1331.84 1567.57 1328.53 1568.27 Q1325.22 1568.97 1321.82 1568.97 Q1313.29 1568.97 1308.29 1564 Q1303.32 1559.04 1303.32 1550.57 Q1303.32 1541.82 1308.03 1536.69 Q1312.78 1531.54 1320.8 1531.54 Q1327.99 1531.54 1332.16 1536.18 Q1336.36 1540.8 1336.36 1548.76 M1330.51 1547.04 Q1330.44 1542.23 1327.8 1539.37 Q1325.19 1536.5 1320.86 1536.5 Q1315.96 1536.5 1313 1539.27 Q1310.07 1542.04 1309.63 1547.07 L1330.51 1547.04 Z" fill="#000000" fill-rule="evenodd" fill-opacity="1" /><path clip-path="url(#clip400)" d="M1366.63 1537.87 Q1365.64 1537.3 1364.47 1537.04 Q1363.32 1536.76 1361.92 1536.76 Q1356.95 1536.76 1354.28 1540 Q1351.64 1543.22 1351.64 1549.27 L1351.64 1568.04 L1345.75 1568.04 L1345.75 1532.4 L1351.64 1532.4 L1351.64 1537.93 Q1353.49 1534.69 1356.45 1533.13 Q1359.41 1531.54 1363.64 1531.54 Q1364.24 1531.54 1364.98 1531.63 Q1365.71 1531.7 1366.6 1531.85 L1366.63 1537.87 Z" fill="#000000" fill-rule="evenodd" fill-opacity="1" /><path clip-path="url(#clip400)" d="M1372.77 1532.4 L1378.63 1532.4 L1378.63 1568.04 L1372.77 1568.04 L1372.77 1532.4 M1372.77 1518.52 L1378.63 1518.52 L1378.63 1525.93 L1372.77 1525.93 L1372.77 1518.52 Z" fill="#000000" fill-rule="evenodd" fill-opacity="1" /><path clip-path="url(#clip400)" d="M1421.38 1548.76 L1421.38 1551.62 L1394.45 1551.62 Q1394.83 1557.67 1398.08 1560.85 Q1401.36 1564 1407.18 1564 Q1410.55 1564 1413.7 1563.17 Q1416.89 1562.35 1420.01 1560.69 L1420.01 1566.23 Q1416.86 1567.57 1413.55 1568.27 Q1410.24 1568.97 1406.83 1568.97 Q1398.3 1568.97 1393.3 1564 Q1388.34 1559.04 1388.34 1550.57 Q1388.34 1541.82 1393.05 1536.69 Q1397.79 1531.54 1405.81 1531.54 Q1413 1531.54 1417.17 1536.18 Q1421.38 1540.8 1421.38 1548.76 M1415.52 1547.04 Q1415.46 1542.23 1412.81 1539.37 Q1410.2 1536.5 1405.87 1536.5 Q1400.97 1536.5 1398.01 1539.27 Q1395.09 1542.04 1394.64 1547.07 L1415.52 1547.04 Z" fill="#000000" fill-rule="evenodd" fill-opacity="1" /><path clip-path="url(#clip400)" d="M1460.62 1546.53 L1460.62 1568.04 L1454.76 1568.04 L1454.76 1546.72 Q1454.76 1541.66 1452.79 1539.14 Q1450.82 1536.63 1446.87 1536.63 Q1442.13 1536.63 1439.39 1539.65 Q1436.65 1542.68 1436.65 1547.9 L1436.65 1568.04 L1430.76 1568.04 L1430.76 1532.4 L1436.65 1532.4 L1436.65 1537.93 Q1438.75 1534.72 1441.59 1533.13 Q1444.45 1531.54 1448.18 1531.54 Q1454.32 1531.54 1457.47 1535.36 Q1460.62 1539.14 1460.62 1546.53 Z" fill="#000000" fill-rule="evenodd" fill-opacity="1" /><path clip-path="url(#clip400)" d="M1497.95 1533.76 L1497.95 1539.24 Q1495.47 1537.87 1492.96 1537.2 Q1490.48 1536.5 1487.93 1536.5 Q1482.23 1536.5 1479.08 1540.13 Q1475.93 1543.73 1475.93 1550.25 Q1475.93 1556.78 1479.08 1560.4 Q1482.23 1564 1487.93 1564 Q1490.48 1564 1492.96 1563.33 Q1495.47 1562.63 1497.95 1561.26 L1497.95 1566.68 Q1495.5 1567.82 1492.86 1568.39 Q1490.25 1568.97 1487.29 1568.97 Q1479.24 1568.97 1474.5 1563.91 Q1469.75 1558.85 1469.75 1550.25 Q1469.75 1541.53 1474.53 1536.53 Q1479.34 1531.54 1487.67 1531.54 Q1490.38 1531.54 1492.96 1532.11 Q1495.54 1532.65 1497.95 1533.76 Z" fill="#000000" fill-rule="evenodd" fill-opacity="1" /><path clip-path="url(#clip400)" d="M1538.63 1548.76 L1538.63 1551.62 L1511.7 1551.62 Q1512.09 1557.67 1515.33 1560.85 Q1518.61 1564 1524.44 1564 Q1527.81 1564 1530.96 1563.17 Q1534.14 1562.35 1537.26 1560.69 L1537.26 1566.23 Q1534.11 1567.57 1530.8 1568.27 Q1527.49 1568.97 1524.09 1568.97 Q1515.56 1568.97 1510.56 1564 Q1505.59 1559.04 1505.59 1550.57 Q1505.59 1541.82 1510.3 1536.69 Q1515.05 1531.54 1523.07 1531.54 Q1530.26 1531.54 1534.43 1536.18 Q1538.63 1540.8 1538.63 1548.76 M1532.78 1547.04 Q1532.71 1542.23 1530.07 1539.37 Q1527.46 1536.5 1523.13 1536.5 Q1518.23 1536.5 1515.27 1539.27 Q1512.34 1542.04 1511.9 1547.07 L1532.78 1547.04 Z" fill="#000000" fill-rule="evenodd" fill-opacity="1" /><polyline clip-path="url(#clip402)" style="stroke:#000000; stroke-linecap:butt; stroke-linejoin:round; stroke-width:2; stroke-opacity:0.1; fill:none" points="
  370.861,1328.52 2352.76,1328.52 
  "/>
<polyline clip-path="url(#clip402)" style="stroke:#000000; stroke-linecap:butt; stroke-linejoin:round; stroke-width:2; stroke-opacity:0.1; fill:none" points="
  370.861,1036.27 2352.76,1036.27 
  "/>
<polyline clip-path="url(#clip402)" style="stroke:#000000; stroke-linecap:butt; stroke-linejoin:round; stroke-width:2; stroke-opacity:0.1; fill:none" points="
  370.861,744.009 2352.76,744.009 
  "/>
<polyline clip-path="url(#clip402)" style="stroke:#000000; stroke-linecap:butt; stroke-linejoin:round; stroke-width:2; stroke-opacity:0.1; fill:none" points="
  370.861,451.752 2352.76,451.752 
  "/>
<polyline clip-path="url(#clip402)" style="stroke:#000000; stroke-linecap:butt; stroke-linejoin:round; stroke-width:2; stroke-opacity:0.1; fill:none" points="
  370.861,159.495 2352.76,159.495 
  "/>
<polyline clip-path="url(#clip400)" style="stroke:#000000; stroke-linecap:butt; stroke-linejoin:round; stroke-width:4; stroke-opacity:1; fill:none" points="
  370.861,1423.18 370.861,47.2441 
  "/>
<polyline clip-path="url(#clip400)" style="stroke:#000000; stroke-linecap:butt; stroke-linejoin:round; stroke-width:4; stroke-opacity:1; fill:none" points="
  370.861,1328.52 389.758,1328.52 
  "/>
<polyline clip-path="url(#clip400)" style="stroke:#000000; stroke-linecap:butt; stroke-linejoin:round; stroke-width:4; stroke-opacity:1; fill:none" points="
  370.861,1036.27 389.758,1036.27 
  "/>
<polyline clip-path="url(#clip400)" style="stroke:#000000; stroke-linecap:butt; stroke-linejoin:round; stroke-width:4; stroke-opacity:1; fill:none" points="
  370.861,744.009 389.758,744.009 
  "/>
<polyline clip-path="url(#clip400)" style="stroke:#000000; stroke-linecap:butt; stroke-linejoin:round; stroke-width:4; stroke-opacity:1; fill:none" points="
  370.861,451.752 389.758,451.752 
  "/>
<polyline clip-path="url(#clip400)" style="stroke:#000000; stroke-linecap:butt; stroke-linejoin:round; stroke-width:4; stroke-opacity:1; fill:none" points="
  370.861,159.495 389.758,159.495 
  "/>
<path clip-path="url(#clip400)" d="M129.862 1321.76 L118.056 1340.21 L129.862 1340.21 L129.862 1321.76 M128.635 1317.69 L134.515 1317.69 L134.515 1340.21 L139.445 1340.21 L139.445 1344.1 L134.515 1344.1 L134.515 1352.25 L129.862 1352.25 L129.862 1344.1 L114.26 1344.1 L114.26 1339.59 L128.635 1317.69 Z" fill="#000000" fill-rule="evenodd" fill-opacity="1" /><path clip-path="url(#clip400)" d="M147.177 1346.37 L152.061 1346.37 L152.061 1352.25 L147.177 1352.25 L147.177 1346.37 Z" fill="#000000" fill-rule="evenodd" fill-opacity="1" /><path clip-path="url(#clip400)" d="M172.246 1320.77 Q168.635 1320.77 166.806 1324.33 Q165.001 1327.87 165.001 1335 Q165.001 1342.11 166.806 1345.68 Q168.635 1349.22 172.246 1349.22 Q175.88 1349.22 177.686 1345.68 Q179.514 1342.11 179.514 1335 Q179.514 1327.87 177.686 1324.33 Q175.88 1320.77 172.246 1320.77 M172.246 1317.06 Q178.056 1317.06 181.112 1321.67 Q184.19 1326.25 184.19 1335 Q184.19 1343.73 181.112 1348.34 Q178.056 1352.92 172.246 1352.92 Q166.436 1352.92 163.357 1348.34 Q160.302 1343.73 160.302 1335 Q160.302 1326.25 163.357 1321.67 Q166.436 1317.06 172.246 1317.06 Z" fill="#000000" fill-rule="evenodd" fill-opacity="1" /><path clip-path="url(#clip400)" d="M202.408 1320.77 Q198.797 1320.77 196.968 1324.33 Q195.163 1327.87 195.163 1335 Q195.163 1342.11 196.968 1345.68 Q198.797 1349.22 202.408 1349.22 Q206.042 1349.22 207.848 1345.68 Q209.676 1342.11 209.676 1335 Q209.676 1327.87 207.848 1324.33 Q206.042 1320.77 202.408 1320.77 M202.408 1317.06 Q208.218 1317.06 211.274 1321.67 Q214.352 1326.25 214.352 1335 Q214.352 1343.73 211.274 1348.34 Q208.218 1352.92 202.408 1352.92 Q196.598 1352.92 193.519 1348.34 Q190.463 1343.73 190.463 1335 Q190.463 1326.25 193.519 1321.67 Q196.598 1317.06 202.408 1317.06 Z" fill="#000000" fill-rule="evenodd" fill-opacity="1" /><path clip-path="url(#clip400)" d="M250.741 1326.79 L240.162 1337.41 L250.741 1347.99 L247.986 1350.79 L237.361 1340.17 L226.736 1350.79 L224.005 1347.99 L234.56 1337.41 L224.005 1326.79 L226.736 1323.99 L237.361 1334.61 L247.986 1323.99 L250.741 1326.79 Z" fill="#000000" fill-rule="evenodd" fill-opacity="1" /><path clip-path="url(#clip400)" d="M263.102 1348.31 L270.741 1348.31 L270.741 1321.95 L262.431 1323.62 L262.431 1319.36 L270.695 1317.69 L275.37 1317.69 L275.37 1348.31 L283.009 1348.31 L283.009 1352.25 L263.102 1352.25 L263.102 1348.31 Z" fill="#000000" fill-rule="evenodd" fill-opacity="1" /><path clip-path="url(#clip400)" d="M302.454 1320.77 Q298.843 1320.77 297.014 1324.33 Q295.208 1327.87 295.208 1335 Q295.208 1342.11 297.014 1345.68 Q298.843 1349.22 302.454 1349.22 Q306.088 1349.22 307.893 1345.68 Q309.722 1342.11 309.722 1335 Q309.722 1327.87 307.893 1324.33 Q306.088 1320.77 302.454 1320.77 M302.454 1317.06 Q308.264 1317.06 311.319 1321.67 Q314.398 1326.25 314.398 1335 Q314.398 1343.73 311.319 1348.34 Q308.264 1352.92 302.454 1352.92 Q296.643 1352.92 293.565 1348.34 Q290.509 1343.73 290.509 1335 Q290.509 1326.25 293.565 1321.67 Q296.643 1317.06 302.454 1317.06 Z" fill="#000000" fill-rule="evenodd" fill-opacity="1" /><path clip-path="url(#clip400)" d="M327.074 1300.07 L317.482 1315.06 L327.074 1315.06 L327.074 1300.07 M326.078 1296.76 L330.855 1296.76 L330.855 1315.06 L334.861 1315.06 L334.861 1318.22 L330.855 1318.22 L330.855 1324.84 L327.074 1324.84 L327.074 1318.22 L314.398 1318.22 L314.398 1314.55 L326.078 1296.76 Z" fill="#000000" fill-rule="evenodd" fill-opacity="1" /><path clip-path="url(#clip400)" d="M127.593 1040.85 Q124.445 1040.85 122.593 1043 Q120.765 1045.15 120.765 1048.9 Q120.765 1052.63 122.593 1054.81 Q124.445 1056.96 127.593 1056.96 Q130.742 1056.96 132.57 1054.81 Q134.422 1052.63 134.422 1048.9 Q134.422 1045.15 132.57 1043 Q130.742 1040.85 127.593 1040.85 M136.876 1026.2 L136.876 1030.46 Q135.117 1029.62 133.311 1029.18 Q131.529 1028.74 129.769 1028.74 Q125.14 1028.74 122.686 1031.87 Q120.255 1034.99 119.908 1041.31 Q121.274 1039.3 123.334 1038.23 Q125.394 1037.15 127.871 1037.15 Q133.08 1037.15 136.089 1040.32 Q139.121 1043.47 139.121 1048.9 Q139.121 1054.23 135.973 1057.45 Q132.825 1060.66 127.593 1060.66 Q121.598 1060.66 118.427 1056.08 Q115.256 1051.47 115.256 1042.75 Q115.256 1034.55 119.144 1029.69 Q123.033 1024.81 129.584 1024.81 Q131.343 1024.81 133.126 1025.16 Q134.931 1025.5 136.876 1026.2 Z" fill="#000000" fill-rule="evenodd" fill-opacity="1" /><path clip-path="url(#clip400)" d="M147.177 1054.11 L152.061 1054.11 L152.061 1059.99 L147.177 1059.99 L147.177 1054.11 Z" fill="#000000" fill-rule="evenodd" fill-opacity="1" /><path clip-path="url(#clip400)" d="M172.246 1028.51 Q168.635 1028.51 166.806 1032.08 Q165.001 1035.62 165.001 1042.75 Q165.001 1049.85 166.806 1053.42 Q168.635 1056.96 172.246 1056.96 Q175.88 1056.96 177.686 1053.42 Q179.514 1049.85 179.514 1042.75 Q179.514 1035.62 177.686 1032.08 Q175.88 1028.51 172.246 1028.51 M172.246 1024.81 Q178.056 1024.81 181.112 1029.41 Q184.19 1034 184.19 1042.75 Q184.19 1051.47 181.112 1056.08 Q178.056 1060.66 172.246 1060.66 Q166.436 1060.66 163.357 1056.08 Q160.302 1051.47 160.302 1042.75 Q160.302 1034 163.357 1029.41 Q166.436 1024.81 172.246 1024.81 Z" fill="#000000" fill-rule="evenodd" fill-opacity="1" /><path clip-path="url(#clip400)" d="M202.408 1028.51 Q198.797 1028.51 196.968 1032.08 Q195.163 1035.62 195.163 1042.75 Q195.163 1049.85 196.968 1053.42 Q198.797 1056.96 202.408 1056.96 Q206.042 1056.96 207.848 1053.42 Q209.676 1049.85 209.676 1042.75 Q209.676 1035.62 207.848 1032.08 Q206.042 1028.51 202.408 1028.51 M202.408 1024.81 Q208.218 1024.81 211.274 1029.41 Q214.352 1034 214.352 1042.75 Q214.352 1051.47 211.274 1056.08 Q208.218 1060.66 202.408 1060.66 Q196.598 1060.66 193.519 1056.08 Q190.463 1051.47 190.463 1042.75 Q190.463 1034 193.519 1029.41 Q196.598 1024.81 202.408 1024.81 Z" fill="#000000" fill-rule="evenodd" fill-opacity="1" /><path clip-path="url(#clip400)" d="M250.741 1034.53 L240.162 1045.15 L250.741 1055.73 L247.986 1058.53 L237.361 1047.91 L226.736 1058.53 L224.005 1055.73 L234.56 1045.15 L224.005 1034.53 L226.736 1031.73 L237.361 1042.35 L247.986 1031.73 L250.741 1034.53 Z" fill="#000000" fill-rule="evenodd" fill-opacity="1" /><path clip-path="url(#clip400)" d="M263.102 1056.06 L270.741 1056.06 L270.741 1029.69 L262.431 1031.36 L262.431 1027.1 L270.695 1025.43 L275.37 1025.43 L275.37 1056.06 L283.009 1056.06 L283.009 1059.99 L263.102 1059.99 L263.102 1056.06 Z" fill="#000000" fill-rule="evenodd" fill-opacity="1" /><path clip-path="url(#clip400)" d="M302.454 1028.51 Q298.843 1028.51 297.014 1032.08 Q295.208 1035.62 295.208 1042.75 Q295.208 1049.85 297.014 1053.42 Q298.843 1056.96 302.454 1056.96 Q306.088 1056.96 307.893 1053.42 Q309.722 1049.85 309.722 1042.75 Q309.722 1035.62 307.893 1032.08 Q306.088 1028.51 302.454 1028.51 M302.454 1024.81 Q308.264 1024.81 311.319 1029.41 Q314.398 1034 314.398 1042.75 Q314.398 1051.47 311.319 1056.08 Q308.264 1060.66 302.454 1060.66 Q296.643 1060.66 293.565 1056.08 Q290.509 1051.47 290.509 1042.75 Q290.509 1034 293.565 1029.41 Q296.643 1024.81 302.454 1024.81 Z" fill="#000000" fill-rule="evenodd" fill-opacity="1" /><path clip-path="url(#clip400)" d="M327.074 1007.81 L317.482 1022.8 L327.074 1022.8 L327.074 1007.81 M326.078 1004.5 L330.855 1004.5 L330.855 1022.8 L334.861 1022.8 L334.861 1025.96 L330.855 1025.96 L330.855 1032.58 L327.074 1032.58 L327.074 1025.96 L314.398 1025.96 L314.398 1022.29 L326.078 1004.5 Z" fill="#000000" fill-rule="evenodd" fill-opacity="1" /><path clip-path="url(#clip400)" d="M127.015 751.324 Q123.681 751.324 121.76 753.107 Q119.862 754.889 119.862 758.014 Q119.862 761.139 121.76 762.921 Q123.681 764.704 127.015 764.704 Q130.348 764.704 132.269 762.921 Q134.191 761.116 134.191 758.014 Q134.191 754.889 132.269 753.107 Q130.371 751.324 127.015 751.324 M122.339 749.334 Q119.33 748.593 117.64 746.533 Q115.973 744.472 115.973 741.51 Q115.973 737.366 118.913 734.959 Q121.876 732.551 127.015 732.551 Q132.177 732.551 135.117 734.959 Q138.056 737.366 138.056 741.51 Q138.056 744.472 136.367 746.533 Q134.7 748.593 131.714 749.334 Q135.093 750.121 136.968 752.412 Q138.867 754.704 138.867 758.014 Q138.867 763.037 135.788 765.722 Q132.732 768.408 127.015 768.408 Q121.297 768.408 118.218 765.722 Q115.163 763.037 115.163 758.014 Q115.163 754.704 117.061 752.412 Q118.959 750.121 122.339 749.334 M120.626 741.949 Q120.626 744.634 122.293 746.139 Q123.982 747.644 127.015 747.644 Q130.024 747.644 131.714 746.139 Q133.427 744.634 133.427 741.949 Q133.427 739.264 131.714 737.76 Q130.024 736.255 127.015 736.255 Q123.982 736.255 122.293 737.76 Q120.626 739.264 120.626 741.949 Z" fill="#000000" fill-rule="evenodd" fill-opacity="1" /><path clip-path="url(#clip400)" d="M147.177 761.857 L152.061 761.857 L152.061 767.736 L147.177 767.736 L147.177 761.857 Z" fill="#000000" fill-rule="evenodd" fill-opacity="1" /><path clip-path="url(#clip400)" d="M172.246 736.255 Q168.635 736.255 166.806 739.82 Q165.001 743.361 165.001 750.491 Q165.001 757.597 166.806 761.162 Q168.635 764.704 172.246 764.704 Q175.88 764.704 177.686 761.162 Q179.514 757.597 179.514 750.491 Q179.514 743.361 177.686 739.82 Q175.88 736.255 172.246 736.255 M172.246 732.551 Q178.056 732.551 181.112 737.158 Q184.19 741.741 184.19 750.491 Q184.19 759.218 181.112 763.824 Q178.056 768.408 172.246 768.408 Q166.436 768.408 163.357 763.824 Q160.302 759.218 160.302 750.491 Q160.302 741.741 163.357 737.158 Q166.436 732.551 172.246 732.551 Z" fill="#000000" fill-rule="evenodd" fill-opacity="1" /><path clip-path="url(#clip400)" d="M202.408 736.255 Q198.797 736.255 196.968 739.82 Q195.163 743.361 195.163 750.491 Q195.163 757.597 196.968 761.162 Q198.797 764.704 202.408 764.704 Q206.042 764.704 207.848 761.162 Q209.676 757.597 209.676 750.491 Q209.676 743.361 207.848 739.82 Q206.042 736.255 202.408 736.255 M202.408 732.551 Q208.218 732.551 211.274 737.158 Q214.352 741.741 214.352 750.491 Q214.352 759.218 211.274 763.824 Q208.218 768.408 202.408 768.408 Q196.598 768.408 193.519 763.824 Q190.463 759.218 190.463 750.491 Q190.463 741.741 193.519 737.158 Q196.598 732.551 202.408 732.551 Z" fill="#000000" fill-rule="evenodd" fill-opacity="1" /><path clip-path="url(#clip400)" d="M250.741 742.273 L240.162 752.898 L250.741 763.477 L247.986 766.278 L237.361 755.653 L226.736 766.278 L224.005 763.477 L234.56 752.898 L224.005 742.273 L226.736 739.472 L237.361 750.097 L247.986 739.472 L250.741 742.273 Z" fill="#000000" fill-rule="evenodd" fill-opacity="1" /><path clip-path="url(#clip400)" d="M263.102 763.801 L270.741 763.801 L270.741 737.435 L262.431 739.102 L262.431 734.843 L270.695 733.176 L275.37 733.176 L275.37 763.801 L283.009 763.801 L283.009 767.736 L263.102 767.736 L263.102 763.801 Z" fill="#000000" fill-rule="evenodd" fill-opacity="1" /><path clip-path="url(#clip400)" d="M302.454 736.255 Q298.843 736.255 297.014 739.82 Q295.208 743.361 295.208 750.491 Q295.208 757.597 297.014 761.162 Q298.843 764.704 302.454 764.704 Q306.088 764.704 307.893 761.162 Q309.722 757.597 309.722 750.491 Q309.722 743.361 307.893 739.82 Q306.088 736.255 302.454 736.255 M302.454 732.551 Q308.264 732.551 311.319 737.158 Q314.398 741.741 314.398 750.491 Q314.398 759.218 311.319 763.824 Q308.264 768.408 302.454 768.408 Q296.643 768.408 293.565 763.824 Q290.509 759.218 290.509 750.491 Q290.509 741.741 293.565 737.158 Q296.643 732.551 302.454 732.551 Z" fill="#000000" fill-rule="evenodd" fill-opacity="1" /><path clip-path="url(#clip400)" d="M327.074 715.556 L317.482 730.546 L327.074 730.546 L327.074 715.556 M326.078 712.246 L330.855 712.246 L330.855 730.546 L334.861 730.546 L334.861 733.705 L330.855 733.705 L330.855 740.326 L327.074 740.326 L327.074 733.705 L314.398 733.705 L314.398 730.038 L326.078 712.246 Z" fill="#000000" fill-rule="evenodd" fill-opacity="1" /><path clip-path="url(#clip400)" d="M120.12 471.544 L127.758 471.544 L127.758 445.179 L119.448 446.846 L119.448 442.586 L127.712 440.92 L132.388 440.92 L132.388 471.544 L140.027 471.544 L140.027 475.48 L120.12 475.48 L120.12 471.544 Z" fill="#000000" fill-rule="evenodd" fill-opacity="1" /><path clip-path="url(#clip400)" d="M149.471 469.6 L154.355 469.6 L154.355 475.48 L149.471 475.48 L149.471 469.6 Z" fill="#000000" fill-rule="evenodd" fill-opacity="1" /><path clip-path="url(#clip400)" d="M174.541 443.998 Q170.929 443.998 169.101 447.563 Q167.295 451.105 167.295 458.234 Q167.295 465.341 169.101 468.906 Q170.929 472.447 174.541 472.447 Q178.175 472.447 179.98 468.906 Q181.809 465.341 181.809 458.234 Q181.809 451.105 179.98 447.563 Q178.175 443.998 174.541 443.998 M174.541 440.295 Q180.351 440.295 183.406 444.901 Q186.485 449.484 186.485 458.234 Q186.485 466.961 183.406 471.568 Q180.351 476.151 174.541 476.151 Q168.73 476.151 165.652 471.568 Q162.596 466.961 162.596 458.234 Q162.596 449.484 165.652 444.901 Q168.73 440.295 174.541 440.295 Z" fill="#000000" fill-rule="evenodd" fill-opacity="1" /><path clip-path="url(#clip400)" d="M204.702 443.998 Q201.091 443.998 199.263 447.563 Q197.457 451.105 197.457 458.234 Q197.457 465.341 199.263 468.906 Q201.091 472.447 204.702 472.447 Q208.337 472.447 210.142 468.906 Q211.971 465.341 211.971 458.234 Q211.971 451.105 210.142 447.563 Q208.337 443.998 204.702 443.998 M204.702 440.295 Q210.513 440.295 213.568 444.901 Q216.647 449.484 216.647 458.234 Q216.647 466.961 213.568 471.568 Q210.513 476.151 204.702 476.151 Q198.892 476.151 195.814 471.568 Q192.758 466.961 192.758 458.234 Q192.758 449.484 195.814 444.901 Q198.892 440.295 204.702 440.295 Z" fill="#000000" fill-rule="evenodd" fill-opacity="1" /><path clip-path="url(#clip400)" d="M253.035 450.017 L242.457 460.642 L253.035 471.22 L250.281 474.021 L239.656 463.396 L229.031 474.021 L226.299 471.22 L236.855 460.642 L226.299 450.017 L229.031 447.216 L239.656 457.841 L250.281 447.216 L253.035 450.017 Z" fill="#000000" fill-rule="evenodd" fill-opacity="1" /><path clip-path="url(#clip400)" d="M265.397 471.544 L273.035 471.544 L273.035 445.179 L264.725 446.846 L264.725 442.586 L272.989 440.92 L277.665 440.92 L277.665 471.544 L285.304 471.544 L285.304 475.48 L265.397 475.48 L265.397 471.544 Z" fill="#000000" fill-rule="evenodd" fill-opacity="1" /><path clip-path="url(#clip400)" d="M304.748 443.998 Q301.137 443.998 299.308 447.563 Q297.503 451.105 297.503 458.234 Q297.503 465.341 299.308 468.906 Q301.137 472.447 304.748 472.447 Q308.382 472.447 310.188 468.906 Q312.017 465.341 312.017 458.234 Q312.017 451.105 310.188 447.563 Q308.382 443.998 304.748 443.998 M304.748 440.295 Q310.558 440.295 313.614 444.901 Q316.693 449.484 316.693 458.234 Q316.693 466.961 313.614 471.568 Q310.558 476.151 304.748 476.151 Q298.938 476.151 295.859 471.568 Q292.804 466.961 292.804 458.234 Q292.804 449.484 295.859 444.901 Q298.938 440.295 304.748 440.295 Z" fill="#000000" fill-rule="evenodd" fill-opacity="1" /><path clip-path="url(#clip400)" d="M317.877 419.989 L332.792 419.989 L332.792 423.187 L321.357 423.187 L321.357 430.07 Q322.184 429.788 323.012 429.656 Q323.839 429.506 324.667 429.506 Q329.369 429.506 332.115 432.083 Q334.861 434.659 334.861 439.06 Q334.861 443.593 332.04 446.113 Q329.218 448.615 324.084 448.615 Q322.316 448.615 320.473 448.314 Q318.649 448.013 316.693 447.411 L316.693 443.593 Q318.385 444.515 320.191 444.966 Q321.996 445.417 324.009 445.417 Q327.262 445.417 329.162 443.706 Q331.062 441.994 331.062 439.06 Q331.062 436.126 329.162 434.415 Q327.262 432.703 324.009 432.703 Q322.485 432.703 320.962 433.042 Q319.457 433.38 317.877 434.095 L317.877 419.989 Z" fill="#000000" fill-rule="evenodd" fill-opacity="1" /><path clip-path="url(#clip400)" d="M120.12 179.288 L127.758 179.288 L127.758 152.922 L119.448 154.589 L119.448 150.33 L127.712 148.663 L132.388 148.663 L132.388 179.288 L140.027 179.288 L140.027 183.223 L120.12 183.223 L120.12 179.288 Z" fill="#000000" fill-rule="evenodd" fill-opacity="1" /><path clip-path="url(#clip400)" d="M149.471 177.343 L154.355 177.343 L154.355 183.223 L149.471 183.223 L149.471 177.343 Z" fill="#000000" fill-rule="evenodd" fill-opacity="1" /><path clip-path="url(#clip400)" d="M168.568 179.288 L184.888 179.288 L184.888 183.223 L162.943 183.223 L162.943 179.288 Q165.605 176.533 170.189 171.904 Q174.795 167.251 175.976 165.908 Q178.221 163.385 179.101 161.649 Q180.003 159.89 180.003 158.2 Q180.003 155.445 178.059 153.709 Q176.138 151.973 173.036 151.973 Q170.837 151.973 168.383 152.737 Q165.953 153.501 163.175 155.052 L163.175 150.33 Q165.999 149.195 168.453 148.617 Q170.906 148.038 172.943 148.038 Q178.314 148.038 181.508 150.723 Q184.702 153.408 184.702 157.899 Q184.702 160.029 183.892 161.95 Q183.105 163.848 180.999 166.441 Q180.42 167.112 177.318 170.33 Q174.216 173.524 168.568 179.288 Z" fill="#000000" fill-rule="evenodd" fill-opacity="1" /><path clip-path="url(#clip400)" d="M204.702 151.742 Q201.091 151.742 199.263 155.306 Q197.457 158.848 197.457 165.978 Q197.457 173.084 199.263 176.649 Q201.091 180.191 204.702 180.191 Q208.337 180.191 210.142 176.649 Q211.971 173.084 211.971 165.978 Q211.971 158.848 210.142 155.306 Q208.337 151.742 204.702 151.742 M204.702 148.038 Q210.513 148.038 213.568 152.644 Q216.647 157.228 216.647 165.978 Q216.647 174.705 213.568 179.311 Q210.513 183.894 204.702 183.894 Q198.892 183.894 195.814 179.311 Q192.758 174.705 192.758 165.978 Q192.758 157.228 195.814 152.644 Q198.892 148.038 204.702 148.038 Z" fill="#000000" fill-rule="evenodd" fill-opacity="1" /><path clip-path="url(#clip400)" d="M253.035 157.76 L242.457 168.385 L253.035 178.964 L250.281 181.765 L239.656 171.14 L229.031 181.765 L226.299 178.964 L236.855 168.385 L226.299 157.76 L229.031 154.959 L239.656 165.584 L250.281 154.959 L253.035 157.76 Z" fill="#000000" fill-rule="evenodd" fill-opacity="1" /><path clip-path="url(#clip400)" d="M265.397 179.288 L273.035 179.288 L273.035 152.922 L264.725 154.589 L264.725 150.33 L272.989 148.663 L277.665 148.663 L277.665 179.288 L285.304 179.288 L285.304 183.223 L265.397 183.223 L265.397 179.288 Z" fill="#000000" fill-rule="evenodd" fill-opacity="1" /><path clip-path="url(#clip400)" d="M304.748 151.742 Q301.137 151.742 299.308 155.306 Q297.503 158.848 297.503 165.978 Q297.503 173.084 299.308 176.649 Q301.137 180.191 304.748 180.191 Q308.382 180.191 310.188 176.649 Q312.017 173.084 312.017 165.978 Q312.017 158.848 310.188 155.306 Q308.382 151.742 304.748 151.742 M304.748 148.038 Q310.558 148.038 313.614 152.644 Q316.693 157.228 316.693 165.978 Q316.693 174.705 313.614 179.311 Q310.558 183.894 304.748 183.894 Q298.938 183.894 295.859 179.311 Q292.804 174.705 292.804 165.978 Q292.804 157.228 295.859 152.644 Q298.938 148.038 304.748 148.038 Z" fill="#000000" fill-rule="evenodd" fill-opacity="1" /><path clip-path="url(#clip400)" d="M317.877 127.733 L332.792 127.733 L332.792 130.93 L321.357 130.93 L321.357 137.814 Q322.184 137.531 323.012 137.4 Q323.839 137.249 324.667 137.249 Q329.369 137.249 332.115 139.826 Q334.861 142.403 334.861 146.804 Q334.861 151.336 332.04 153.857 Q329.218 156.358 324.084 156.358 Q322.316 156.358 320.473 156.057 Q318.649 155.756 316.693 155.154 L316.693 151.336 Q318.385 152.258 320.191 152.709 Q321.996 153.161 324.009 153.161 Q327.262 153.161 329.162 151.449 Q331.062 149.738 331.062 146.804 Q331.062 143.87 329.162 142.158 Q327.262 140.447 324.009 140.447 Q322.485 140.447 320.962 140.785 Q319.457 141.124 317.877 141.838 L317.877 127.733 Z" fill="#000000" fill-rule="evenodd" fill-opacity="1" /><path clip-path="url(#clip400)" d="M18.0438 803.882 L24.314 803.882 Q22.5634 807.542 21.704 810.789 Q20.8447 814.035 20.8447 817.059 Q20.8447 822.311 22.8817 825.175 Q24.9187 828.008 28.6745 828.008 Q31.8255 828.008 33.4488 826.13 Q35.0402 824.22 36.0269 818.937 L36.8226 815.054 Q38.1912 807.861 41.6605 804.455 Q45.098 801.017 50.8908 801.017 Q57.7976 801.017 61.3624 805.664 Q64.9272 810.28 64.9272 819.223 Q64.9272 822.597 64.1633 826.417 Q63.3994 830.204 61.9035 834.278 L55.2831 834.278 Q57.4793 830.363 58.5933 826.608 Q59.7073 822.852 59.7073 819.223 Q59.7073 813.717 57.543 810.725 Q55.3786 807.733 51.3682 807.733 Q47.8671 807.733 45.8937 809.898 Q43.9204 812.03 42.9337 816.932 L42.1698 820.847 Q40.7375 828.04 37.682 831.255 Q34.6264 834.469 29.1837 834.469 Q22.8817 834.469 19.2532 830.045 Q15.6248 825.589 15.6248 817.791 Q15.6248 814.449 16.2295 810.98 Q16.8343 807.51 18.0438 803.882 Z" fill="#000000" fill-rule="evenodd" fill-opacity="1" /><path clip-path="url(#clip400)" d="M46.0847 775.045 Q46.0847 782.143 47.7079 784.88 Q49.3312 787.618 53.2461 787.618 Q56.3653 787.618 58.2114 785.581 Q60.0256 783.512 60.0256 779.979 Q60.0256 775.109 56.5881 772.181 Q53.1188 769.221 47.3897 769.221 L46.0847 769.221 L46.0847 775.045 M43.6657 763.364 L64.0042 763.364 L64.0042 769.221 L58.5933 769.221 Q61.8398 771.226 63.3994 774.218 Q64.9272 777.21 64.9272 781.538 Q64.9272 787.013 61.8716 790.259 Q58.7843 793.474 53.6281 793.474 Q47.6125 793.474 44.5569 789.464 Q41.5014 785.421 41.5014 777.433 L41.5014 769.221 L40.9285 769.221 Q36.8862 769.221 34.6901 771.894 Q32.4621 774.536 32.4621 779.342 Q32.4621 782.398 33.1941 785.294 Q33.9262 788.191 35.3903 790.864 L29.9795 790.864 Q28.7381 787.649 28.1334 784.626 Q27.4968 781.602 27.4968 778.737 Q27.4968 771.003 31.5072 767.184 Q35.5176 763.364 43.6657 763.364 Z" fill="#000000" fill-rule="evenodd" fill-opacity="1" /><path clip-path="url(#clip400)" d="M14.479 751.301 L14.479 745.445 L64.0042 745.445 L64.0042 751.301 L14.479 751.301 Z" fill="#000000" fill-rule="evenodd" fill-opacity="1" /><path clip-path="url(#clip400)" d="M46.0847 716.99 Q46.0847 724.088 47.7079 726.825 Q49.3312 729.562 53.2461 729.562 Q56.3653 729.562 58.2114 727.525 Q60.0256 725.457 60.0256 721.924 Q60.0256 717.054 56.5881 714.126 Q53.1188 711.166 47.3897 711.166 L46.0847 711.166 L46.0847 716.99 M43.6657 705.309 L64.0042 705.309 L64.0042 711.166 L58.5933 711.166 Q61.8398 713.171 63.3994 716.163 Q64.9272 719.154 64.9272 723.483 Q64.9272 728.958 61.8716 732.204 Q58.7843 735.419 53.6281 735.419 Q47.6125 735.419 44.5569 731.408 Q41.5014 727.366 41.5014 719.377 L41.5014 711.166 L40.9285 711.166 Q36.8862 711.166 34.6901 713.839 Q32.4621 716.481 32.4621 721.287 Q32.4621 724.343 33.1941 727.239 Q33.9262 730.135 35.3903 732.809 L29.9795 732.809 Q28.7381 729.594 28.1334 726.571 Q27.4968 723.547 27.4968 720.682 Q27.4968 712.948 31.5072 709.128 Q35.5176 705.309 43.6657 705.309 Z" fill="#000000" fill-rule="evenodd" fill-opacity="1" /><path clip-path="url(#clip400)" d="M33.8307 672.589 Q33.2578 673.576 33.0032 674.754 Q32.7167 675.899 32.7167 677.3 Q32.7167 682.265 35.9632 684.939 Q39.1779 687.581 45.2253 687.581 L64.0042 687.581 L64.0042 693.469 L28.3562 693.469 L28.3562 687.581 L33.8944 687.581 Q30.6479 685.735 29.0883 682.774 Q27.4968 679.814 27.4968 675.581 Q27.4968 674.976 27.5923 674.244 Q27.656 673.512 27.8151 672.621 L33.8307 672.589 Z" fill="#000000" fill-rule="evenodd" fill-opacity="1" /><path clip-path="url(#clip400)" d="M67.3143 651.614 Q73.68 654.097 75.6216 656.452 Q77.5631 658.808 77.5631 662.754 L77.5631 667.433 L72.6615 667.433 L72.6615 663.996 Q72.6615 661.577 71.5157 660.24 Q70.3699 658.903 66.1048 657.28 L63.4312 656.229 L28.3562 670.648 L28.3562 664.441 L56.238 653.301 L28.3562 642.161 L28.3562 635.955 L67.3143 651.614 Z" fill="#000000" fill-rule="evenodd" fill-opacity="1" /><circle clip-path="url(#clip402)" cx="426.952" cy="1338.12" r="14" fill="#0000ff" fill-rule="evenodd" fill-opacity="1" stroke="#000000" stroke-opacity="1" stroke-width="0"/>
<circle clip-path="url(#clip402)" cx="466.733" cy="1237.85" r="14" fill="#0000ff" fill-rule="evenodd" fill-opacity="1" stroke="#000000" stroke-opacity="1" stroke-width="0"/>
<circle clip-path="url(#clip402)" cx="506.514" cy="1361.68" r="14" fill="#0000ff" fill-rule="evenodd" fill-opacity="1" stroke="#000000" stroke-opacity="1" stroke-width="0"/>
<circle clip-path="url(#clip402)" cx="605.967" cy="1277.01" r="14" fill="#0000ff" fill-rule="evenodd" fill-opacity="1" stroke="#000000" stroke-opacity="1" stroke-width="0"/>
<circle clip-path="url(#clip402)" cx="645.748" cy="1330.11" r="14" fill="#0000ff" fill-rule="evenodd" fill-opacity="1" stroke="#000000" stroke-opacity="1" stroke-width="0"/>
<circle clip-path="url(#clip402)" cx="784.982" cy="1085.34" r="14" fill="#0000ff" fill-rule="evenodd" fill-opacity="1" stroke="#000000" stroke-opacity="1" stroke-width="0"/>
<circle clip-path="url(#clip402)" cx="804.873" cy="1034.07" r="14" fill="#0000ff" fill-rule="evenodd" fill-opacity="1" stroke="#000000" stroke-opacity="1" stroke-width="0"/>
<circle clip-path="url(#clip402)" cx="844.654" cy="1117.44" r="14" fill="#0000ff" fill-rule="evenodd" fill-opacity="1" stroke="#000000" stroke-opacity="1" stroke-width="0"/>
<circle clip-path="url(#clip402)" cx="844.654" cy="971.311" r="14" fill="#0000ff" fill-rule="evenodd" fill-opacity="1" stroke="#000000" stroke-opacity="1" stroke-width="0"/>
<circle clip-path="url(#clip402)" cx="944.107" cy="1077.34" r="14" fill="#0000ff" fill-rule="evenodd" fill-opacity="1" stroke="#000000" stroke-opacity="1" stroke-width="0"/>
<circle clip-path="url(#clip402)" cx="983.888" cy="989.241" r="14" fill="#0000ff" fill-rule="evenodd" fill-opacity="1" stroke="#000000" stroke-opacity="1" stroke-width="0"/>
<circle clip-path="url(#clip402)" cx="1003.78" cy="1097.73" r="14" fill="#0000ff" fill-rule="evenodd" fill-opacity="1" stroke="#000000" stroke-opacity="1" stroke-width="0"/>
<circle clip-path="url(#clip402)" cx="1003.78" cy="1080.73" r="14" fill="#0000ff" fill-rule="evenodd" fill-opacity="1" stroke="#000000" stroke-opacity="1" stroke-width="0"/>
<circle clip-path="url(#clip402)" cx="1023.67" cy="1078.92" r="14" fill="#0000ff" fill-rule="evenodd" fill-opacity="1" stroke="#000000" stroke-opacity="1" stroke-width="0"/>
<circle clip-path="url(#clip402)" cx="1103.23" cy="1020.03" r="14" fill="#0000ff" fill-rule="evenodd" fill-opacity="1" stroke="#000000" stroke-opacity="1" stroke-width="0"/>
<circle clip-path="url(#clip402)" cx="1182.79" cy="920.269" r="14" fill="#0000ff" fill-rule="evenodd" fill-opacity="1" stroke="#000000" stroke-opacity="1" stroke-width="0"/>
<circle clip-path="url(#clip402)" cx="1222.57" cy="948.164" r="14" fill="#0000ff" fill-rule="evenodd" fill-opacity="1" stroke="#000000" stroke-opacity="1" stroke-width="0"/>
<circle clip-path="url(#clip402)" cx="1262.36" cy="698.884" r="14" fill="#0000ff" fill-rule="evenodd" fill-opacity="1" stroke="#000000" stroke-opacity="1" stroke-width="0"/>
<circle clip-path="url(#clip402)" cx="1381.7" cy="724.091" r="14" fill="#0000ff" fill-rule="evenodd" fill-opacity="1" stroke="#000000" stroke-opacity="1" stroke-width="0"/>
<circle clip-path="url(#clip402)" cx="1401.59" cy="540.306" r="14" fill="#0000ff" fill-rule="evenodd" fill-opacity="1" stroke="#000000" stroke-opacity="1" stroke-width="0"/>
<circle clip-path="url(#clip402)" cx="1560.71" cy="572.483" r="14" fill="#0000ff" fill-rule="evenodd" fill-opacity="1" stroke="#000000" stroke-opacity="1" stroke-width="0"/>
<circle clip-path="url(#clip402)" cx="1620.39" cy="476.988" r="14" fill="#0000ff" fill-rule="evenodd" fill-opacity="1" stroke="#000000" stroke-opacity="1" stroke-width="0"/>
<circle clip-path="url(#clip402)" cx="1779.51" cy="432.726" r="14" fill="#0000ff" fill-rule="evenodd" fill-opacity="1" stroke="#000000" stroke-opacity="1" stroke-width="0"/>
<circle clip-path="url(#clip402)" cx="1839.18" cy="249.92" r="14" fill="#0000ff" fill-rule="evenodd" fill-opacity="1" stroke="#000000" stroke-opacity="1" stroke-width="0"/>
<circle clip-path="url(#clip402)" cx="1938.63" cy="313.938" r="14" fill="#0000ff" fill-rule="evenodd" fill-opacity="1" stroke="#000000" stroke-opacity="1" stroke-width="0"/>
<circle clip-path="url(#clip402)" cx="1998.31" cy="370.183" r="14" fill="#0000ff" fill-rule="evenodd" fill-opacity="1" stroke="#000000" stroke-opacity="1" stroke-width="0"/>
<circle clip-path="url(#clip402)" cx="2097.76" cy="203.787" r="14" fill="#0000ff" fill-rule="evenodd" fill-opacity="1" stroke="#000000" stroke-opacity="1" stroke-width="0"/>
<circle clip-path="url(#clip402)" cx="2117.65" cy="267.119" r="14" fill="#0000ff" fill-rule="evenodd" fill-opacity="1" stroke="#000000" stroke-opacity="1" stroke-width="0"/>
<circle clip-path="url(#clip402)" cx="2256.88" cy="124.556" r="14" fill="#0000ff" fill-rule="evenodd" fill-opacity="1" stroke="#000000" stroke-opacity="1" stroke-width="0"/>
<circle clip-path="url(#clip402)" cx="2296.66" cy="132.14" r="14" fill="#0000ff" fill-rule="evenodd" fill-opacity="1" stroke="#000000" stroke-opacity="1" stroke-width="0"/>
<polyline clip-path="url(#clip402)" style="stroke:#ff0000; stroke-linecap:butt; stroke-linejoin:round; stroke-width:4; stroke-opacity:1; fill:none" points="
  426.952,1384.24 2296.66,86.1857 
  "/>
</svg>
