<?xml version="1.0" encoding="utf-8"?>
<svg xmlns="http://www.w3.org/2000/svg" xmlns:xlink="http://www.w3.org/1999/xlink" width="600" height="400" viewBox="0 0 2400 1600">
<defs>
  <clipPath id="clip080">
    <rect x="0" y="0" width="2400" height="1600"/>
  </clipPath>
</defs>
<path clip-path="url(#clip080)" d="
M0 1600 L2400 1600 L2400 0 L0 0  Z
  " fill="#ffffff" fill-rule="evenodd" fill-opacity="1"/>
<defs>
  <clipPath id="clip081">
    <rect x="480" y="0" width="1681" height="1600"/>
  </clipPath>
</defs>
<path clip-path="url(#clip080)" d="
M156.112 1486.45 L2352.76 1486.45 L2352.76 47.2441 L156.112 47.2441  Z
  " fill="#ffffff" fill-rule="evenodd" fill-opacity="1"/>
<defs>
  <clipPath id="clip082">
    <rect x="156" y="47" width="2198" height="1440"/>
  </clipPath>
</defs>
<polyline clip-path="url(#clip082)" style="stroke:#000000; stroke-linecap:butt; stroke-linejoin:round; stroke-width:2; stroke-opacity:0.1; fill:none" points="
  385.667,1486.45 385.667,47.2441 
  "/>
<polyline clip-path="url(#clip082)" style="stroke:#000000; stroke-linecap:butt; stroke-linejoin:round; stroke-width:2; stroke-opacity:0.1; fill:none" points="
  861.211,1486.45 861.211,47.2441 
  "/>
<polyline clip-path="url(#clip082)" style="stroke:#000000; stroke-linecap:butt; stroke-linejoin:round; stroke-width:2; stroke-opacity:0.1; fill:none" points="
  1336.76,1486.45 1336.76,47.2441 
  "/>
<polyline clip-path="url(#clip082)" style="stroke:#000000; stroke-linecap:butt; stroke-linejoin:round; stroke-width:2; stroke-opacity:0.1; fill:none" points="
  1812.3,1486.45 1812.3,47.2441 
  "/>
<polyline clip-path="url(#clip082)" style="stroke:#000000; stroke-linecap:butt; stroke-linejoin:round; stroke-width:2; stroke-opacity:0.1; fill:none" points="
  2287.84,1486.45 2287.84,47.2441 
  "/>
<polyline clip-path="url(#clip080)" style="stroke:#000000; stroke-linecap:butt; stroke-linejoin:round; stroke-width:4; stroke-opacity:1; fill:none" points="
  156.112,1486.45 2352.76,1486.45 
  "/>
<polyline clip-path="url(#clip080)" style="stroke:#000000; stroke-linecap:butt; stroke-linejoin:round; stroke-width:4; stroke-opacity:1; fill:none" points="
  385.667,1486.45 385.667,1467.55 
  "/>
<polyline clip-path="url(#clip080)" style="stroke:#000000; stroke-linecap:butt; stroke-linejoin:round; stroke-width:4; stroke-opacity:1; fill:none" points="
  861.211,1486.45 861.211,1467.55 
  "/>
<polyline clip-path="url(#clip080)" style="stroke:#000000; stroke-linecap:butt; stroke-linejoin:round; stroke-width:4; stroke-opacity:1; fill:none" points="
  1336.76,1486.45 1336.76,1467.55 
  "/>
<polyline clip-path="url(#clip080)" style="stroke:#000000; stroke-linecap:butt; stroke-linejoin:round; stroke-width:4; stroke-opacity:1; fill:none" points="
  1812.3,1486.45 1812.3,1467.55 
  "/>
<polyline clip-path="url(#clip080)" style="stroke:#000000; stroke-linecap:butt; stroke-linejoin:round; stroke-width:4; stroke-opacity:1; fill:none" points="
  2287.84,1486.45 2287.84,1467.55 
  "/>
<path clip-path="url(#clip080)" d="M385.667 1517.37 Q382.056 1517.37 380.227 1520.93 Q378.422 1524.47 378.422 1531.6 Q378.422 1538.71 380.227 1542.27 Q382.056 1545.82 385.667 1545.82 Q389.301 1545.82 391.107 1542.27 Q392.935 1538.71 392.935 1531.6 Q392.935 1524.47 391.107 1520.93 Q389.301 1517.37 385.667 1517.37 M385.667 1513.66 Q391.477 1513.66 394.533 1518.27 Q397.611 1522.85 397.611 1531.6 Q397.611 1540.33 394.533 1544.94 Q391.477 1549.52 385.667 1549.52 Q379.857 1549.52 376.778 1544.94 Q373.723 1540.33 373.723 1531.6 Q373.723 1522.85 376.778 1518.27 Q379.857 1513.66 385.667 1513.66 Z" fill="#000000" fill-rule="evenodd" fill-opacity="1" /><path clip-path="url(#clip080)" d="M840.482 1544.91 L856.802 1544.91 L856.802 1548.85 L834.857 1548.85 L834.857 1544.91 Q837.519 1542.16 842.103 1537.53 Q846.709 1532.88 847.89 1531.53 Q850.135 1529.01 851.015 1527.27 Q851.917 1525.51 851.917 1523.82 Q851.917 1521.07 849.973 1519.33 Q848.052 1517.6 844.95 1517.6 Q842.751 1517.6 840.297 1518.36 Q837.867 1519.13 835.089 1520.68 L835.089 1515.95 Q837.913 1514.82 840.367 1514.24 Q842.82 1513.66 844.857 1513.66 Q850.228 1513.66 853.422 1516.35 Q856.616 1519.03 856.616 1523.52 Q856.616 1525.65 855.806 1527.57 Q855.019 1529.47 852.913 1532.07 Q852.334 1532.74 849.232 1535.95 Q846.13 1539.15 840.482 1544.91 Z" fill="#000000" fill-rule="evenodd" fill-opacity="1" /><path clip-path="url(#clip080)" d="M866.663 1514.29 L885.019 1514.29 L885.019 1518.22 L870.945 1518.22 L870.945 1526.7 Q871.964 1526.35 872.982 1526.19 Q874.001 1526 875.019 1526 Q880.806 1526 884.186 1529.17 Q887.565 1532.34 887.565 1537.76 Q887.565 1543.34 884.093 1546.44 Q880.621 1549.52 874.302 1549.52 Q872.126 1549.52 869.857 1549.15 Q867.612 1548.78 865.204 1548.04 L865.204 1543.34 Q867.288 1544.47 869.51 1545.03 Q871.732 1545.58 874.209 1545.58 Q878.214 1545.58 880.552 1543.48 Q882.889 1541.37 882.889 1537.76 Q882.889 1534.15 880.552 1532.04 Q878.214 1529.94 874.209 1529.94 Q872.334 1529.94 870.459 1530.35 Q868.607 1530.77 866.663 1531.65 L866.663 1514.29 Z" fill="#000000" fill-rule="evenodd" fill-opacity="1" /><path clip-path="url(#clip080)" d="M1311.46 1514.29 L1329.81 1514.29 L1329.81 1518.22 L1315.74 1518.22 L1315.74 1526.7 Q1316.76 1526.35 1317.77 1526.19 Q1318.79 1526 1319.81 1526 Q1325.6 1526 1328.98 1529.17 Q1332.36 1532.34 1332.36 1537.76 Q1332.36 1543.34 1328.89 1546.44 Q1325.41 1549.52 1319.09 1549.52 Q1316.92 1549.52 1314.65 1549.15 Q1312.4 1548.78 1310 1548.04 L1310 1543.34 Q1312.08 1544.47 1314.3 1545.03 Q1316.52 1545.58 1319 1545.58 Q1323.01 1545.58 1325.34 1543.48 Q1327.68 1541.37 1327.68 1537.76 Q1327.68 1534.15 1325.34 1532.04 Q1323.01 1529.94 1319 1529.94 Q1317.13 1529.94 1315.25 1530.35 Q1313.4 1530.77 1311.46 1531.65 L1311.46 1514.29 Z" fill="#000000" fill-rule="evenodd" fill-opacity="1" /><path clip-path="url(#clip080)" d="M1351.57 1517.37 Q1347.96 1517.37 1346.13 1520.93 Q1344.33 1524.47 1344.33 1531.6 Q1344.33 1538.71 1346.13 1542.27 Q1347.96 1545.82 1351.57 1545.82 Q1355.2 1545.82 1357.01 1542.27 Q1358.84 1538.71 1358.84 1531.6 Q1358.84 1524.47 1357.01 1520.93 Q1355.2 1517.37 1351.57 1517.37 M1351.57 1513.66 Q1357.38 1513.66 1360.44 1518.27 Q1363.51 1522.85 1363.51 1531.6 Q1363.51 1540.33 1360.44 1544.94 Q1357.38 1549.52 1351.57 1549.52 Q1345.76 1549.52 1342.68 1544.94 Q1339.63 1540.33 1339.63 1531.6 Q1339.63 1522.85 1342.68 1518.27 Q1345.76 1513.66 1351.57 1513.66 Z" fill="#000000" fill-rule="evenodd" fill-opacity="1" /><path clip-path="url(#clip080)" d="M1786.15 1514.29 L1808.38 1514.29 L1808.38 1516.28 L1795.83 1548.85 L1790.95 1548.85 L1802.75 1518.22 L1786.15 1518.22 L1786.15 1514.29 Z" fill="#000000" fill-rule="evenodd" fill-opacity="1" /><path clip-path="url(#clip080)" d="M1817.54 1514.29 L1835.9 1514.29 L1835.9 1518.22 L1821.83 1518.22 L1821.83 1526.7 Q1822.84 1526.35 1823.86 1526.19 Q1824.88 1526 1825.9 1526 Q1831.69 1526 1835.07 1529.17 Q1838.45 1532.34 1838.45 1537.76 Q1838.45 1543.34 1834.97 1546.44 Q1831.5 1549.52 1825.18 1549.52 Q1823.01 1549.52 1820.74 1549.15 Q1818.49 1548.78 1816.09 1548.04 L1816.09 1543.34 Q1818.17 1544.47 1820.39 1545.03 Q1822.61 1545.58 1825.09 1545.58 Q1829.09 1545.58 1831.43 1543.48 Q1833.77 1541.37 1833.77 1537.76 Q1833.77 1534.15 1831.43 1532.04 Q1829.09 1529.94 1825.09 1529.94 Q1823.21 1529.94 1821.34 1530.35 Q1819.49 1530.77 1817.54 1531.65 L1817.54 1514.29 Z" fill="#000000" fill-rule="evenodd" fill-opacity="1" /><path clip-path="url(#clip080)" d="M2247.45 1544.91 L2255.09 1544.91 L2255.09 1518.55 L2246.78 1520.21 L2246.78 1515.95 L2255.04 1514.29 L2259.72 1514.29 L2259.72 1544.91 L2267.36 1544.91 L2267.36 1548.85 L2247.45 1548.85 L2247.45 1544.91 Z" fill="#000000" fill-rule="evenodd" fill-opacity="1" /><path clip-path="url(#clip080)" d="M2286.8 1517.37 Q2283.19 1517.37 2281.36 1520.93 Q2279.56 1524.47 2279.56 1531.6 Q2279.56 1538.71 2281.36 1542.27 Q2283.19 1545.82 2286.8 1545.82 Q2290.44 1545.82 2292.24 1542.27 Q2294.07 1538.71 2294.07 1531.6 Q2294.07 1524.47 2292.24 1520.93 Q2290.44 1517.37 2286.8 1517.37 M2286.8 1513.66 Q2292.61 1513.66 2295.67 1518.27 Q2298.75 1522.85 2298.75 1531.6 Q2298.75 1540.33 2295.67 1544.94 Q2292.61 1549.52 2286.8 1549.52 Q2280.99 1549.52 2277.91 1544.94 Q2274.86 1540.33 2274.86 1531.6 Q2274.86 1522.85 2277.91 1518.27 Q2280.99 1513.66 2286.8 1513.66 Z" fill="#000000" fill-rule="evenodd" fill-opacity="1" /><path clip-path="url(#clip080)" d="M2316.96 1517.37 Q2313.35 1517.37 2311.53 1520.93 Q2309.72 1524.47 2309.72 1531.6 Q2309.72 1538.71 2311.53 1542.27 Q2313.35 1545.82 2316.96 1545.82 Q2320.6 1545.82 2322.4 1542.27 Q2324.23 1538.71 2324.23 1531.6 Q2324.23 1524.47 2322.4 1520.93 Q2320.6 1517.37 2316.96 1517.37 M2316.96 1513.66 Q2322.78 1513.66 2325.83 1518.27 Q2328.91 1522.85 2328.91 1531.6 Q2328.91 1540.33 2325.83 1544.94 Q2322.78 1549.52 2316.96 1549.52 Q2311.15 1549.52 2308.08 1544.94 Q2305.02 1540.33 2305.02 1531.6 Q2305.02 1522.85 2308.08 1518.27 Q2311.15 1513.66 2316.96 1513.66 Z" fill="#000000" fill-rule="evenodd" fill-opacity="1" /><polyline clip-path="url(#clip082)" style="stroke:#000000; stroke-linecap:butt; stroke-linejoin:round; stroke-width:2; stroke-opacity:0.1; fill:none" points="
  156.112,1445.79 2352.76,1445.79 
  "/>
<polyline clip-path="url(#clip082)" style="stroke:#000000; stroke-linecap:butt; stroke-linejoin:round; stroke-width:2; stroke-opacity:0.1; fill:none" points="
  156.112,1031.8 2352.76,1031.8 
  "/>
<polyline clip-path="url(#clip082)" style="stroke:#000000; stroke-linecap:butt; stroke-linejoin:round; stroke-width:2; stroke-opacity:0.1; fill:none" points="
  156.112,617.82 2352.76,617.82 
  "/>
<polyline clip-path="url(#clip082)" style="stroke:#000000; stroke-linecap:butt; stroke-linejoin:round; stroke-width:2; stroke-opacity:0.1; fill:none" points="
  156.112,203.835 2352.76,203.835 
  "/>
<polyline clip-path="url(#clip080)" style="stroke:#000000; stroke-linecap:butt; stroke-linejoin:round; stroke-width:4; stroke-opacity:1; fill:none" points="
  156.112,1486.45 156.112,47.2441 
  "/>
<polyline clip-path="url(#clip080)" style="stroke:#000000; stroke-linecap:butt; stroke-linejoin:round; stroke-width:4; stroke-opacity:1; fill:none" points="
  156.112,1445.79 175.01,1445.79 
  "/>
<polyline clip-path="url(#clip080)" style="stroke:#000000; stroke-linecap:butt; stroke-linejoin:round; stroke-width:4; stroke-opacity:1; fill:none" points="
  156.112,1031.8 175.01,1031.8 
  "/>
<polyline clip-path="url(#clip080)" style="stroke:#000000; stroke-linecap:butt; stroke-linejoin:round; stroke-width:4; stroke-opacity:1; fill:none" points="
  156.112,617.82 175.01,617.82 
  "/>
<polyline clip-path="url(#clip080)" style="stroke:#000000; stroke-linecap:butt; stroke-linejoin:round; stroke-width:4; stroke-opacity:1; fill:none" points="
  156.112,203.835 175.01,203.835 
  "/>
<path clip-path="url(#clip080)" d="M62.9365 1431.59 Q59.3254 1431.59 57.4967 1435.15 Q55.6912 1438.69 55.6912 1445.82 Q55.6912 1452.93 57.4967 1456.5 Q59.3254 1460.04 62.9365 1460.04 Q66.5707 1460.04 68.3763 1456.5 Q70.205 1452.93 70.205 1445.82 Q70.205 1438.69 68.3763 1435.15 Q66.5707 1431.59 62.9365 1431.59 M62.9365 1427.88 Q68.7467 1427.88 71.8022 1432.49 Q74.8809 1437.07 74.8809 1445.82 Q74.8809 1454.55 71.8022 1459.16 Q68.7467 1463.74 62.9365 1463.74 Q57.1264 1463.74 54.0477 1459.16 Q50.9921 1454.55 50.9921 1445.82 Q50.9921 1437.07 54.0477 1432.49 Q57.1264 1427.88 62.9365 1427.88 Z" fill="#000000" fill-rule="evenodd" fill-opacity="1" /><path clip-path="url(#clip080)" d="M83.0984 1457.19 L87.9827 1457.19 L87.9827 1463.07 L83.0984 1463.07 L83.0984 1457.19 Z" fill="#000000" fill-rule="evenodd" fill-opacity="1" /><path clip-path="url(#clip080)" d="M108.168 1431.59 Q104.557 1431.59 102.728 1435.15 Q100.922 1438.69 100.922 1445.82 Q100.922 1452.93 102.728 1456.5 Q104.557 1460.04 108.168 1460.04 Q111.802 1460.04 113.608 1456.5 Q115.436 1452.93 115.436 1445.82 Q115.436 1438.69 113.608 1435.15 Q111.802 1431.59 108.168 1431.59 M108.168 1427.88 Q113.978 1427.88 117.033 1432.49 Q120.112 1437.07 120.112 1445.82 Q120.112 1454.55 117.033 1459.16 Q113.978 1463.74 108.168 1463.74 Q102.358 1463.74 99.2789 1459.16 Q96.2234 1454.55 96.2234 1445.82 Q96.2234 1437.07 99.2789 1432.49 Q102.358 1427.88 108.168 1427.88 Z" fill="#000000" fill-rule="evenodd" fill-opacity="1" /><path clip-path="url(#clip080)" d="M64.1634 1017.6 Q60.5523 1017.6 58.7236 1021.17 Q56.918 1024.71 56.918 1031.84 Q56.918 1038.95 58.7236 1042.51 Q60.5523 1046.05 64.1634 1046.05 Q67.7976 1046.05 69.6031 1042.51 Q71.4318 1038.95 71.4318 1031.84 Q71.4318 1024.71 69.6031 1021.17 Q67.7976 1017.6 64.1634 1017.6 M64.1634 1013.9 Q69.9735 1013.9 73.029 1018.51 Q76.1077 1023.09 76.1077 1031.84 Q76.1077 1040.57 73.029 1045.17 Q69.9735 1049.76 64.1634 1049.76 Q58.3532 1049.76 55.2745 1045.17 Q52.219 1040.57 52.219 1031.84 Q52.219 1023.09 55.2745 1018.51 Q58.3532 1013.9 64.1634 1013.9 Z" fill="#000000" fill-rule="evenodd" fill-opacity="1" /><path clip-path="url(#clip080)" d="M84.3253 1043.2 L89.2095 1043.2 L89.2095 1049.08 L84.3253 1049.08 L84.3253 1043.2 Z" fill="#000000" fill-rule="evenodd" fill-opacity="1" /><path clip-path="url(#clip080)" d="M100.205 1045.15 L107.844 1045.15 L107.844 1018.78 L99.5335 1020.45 L99.5335 1016.19 L107.797 1014.52 L112.473 1014.52 L112.473 1045.15 L120.112 1045.15 L120.112 1049.08 L100.205 1049.08 L100.205 1045.15 Z" fill="#000000" fill-rule="evenodd" fill-opacity="1" /><path clip-path="url(#clip080)" d="M64.5337 603.619 Q60.9226 603.619 59.0939 607.183 Q57.2884 610.725 57.2884 617.855 Q57.2884 624.961 59.0939 628.526 Q60.9226 632.068 64.5337 632.068 Q68.168 632.068 69.9735 628.526 Q71.8022 624.961 71.8022 617.855 Q71.8022 610.725 69.9735 607.183 Q68.168 603.619 64.5337 603.619 M64.5337 599.915 Q70.3439 599.915 73.3994 604.521 Q76.4781 609.105 76.4781 617.855 Q76.4781 626.582 73.3994 631.188 Q70.3439 635.771 64.5337 635.771 Q58.7236 635.771 55.6449 631.188 Q52.5893 626.582 52.5893 617.855 Q52.5893 609.105 55.6449 604.521 Q58.7236 599.915 64.5337 599.915 Z" fill="#000000" fill-rule="evenodd" fill-opacity="1" /><path clip-path="url(#clip080)" d="M84.6956 629.22 L89.5799 629.22 L89.5799 635.1 L84.6956 635.1 L84.6956 629.22 Z" fill="#000000" fill-rule="evenodd" fill-opacity="1" /><path clip-path="url(#clip080)" d="M103.793 631.165 L120.112 631.165 L120.112 635.1 L98.1678 635.1 L98.1678 631.165 Q100.83 628.41 105.413 623.781 Q110.02 619.128 111.2 617.785 Q113.445 615.262 114.325 613.526 Q115.228 611.767 115.228 610.077 Q115.228 607.322 113.283 605.586 Q111.362 603.85 108.26 603.85 Q106.061 603.85 103.608 604.614 Q101.177 605.378 98.3993 606.929 L98.3993 602.207 Q101.223 601.072 103.677 600.494 Q106.131 599.915 108.168 599.915 Q113.538 599.915 116.733 602.6 Q119.927 605.285 119.927 609.776 Q119.927 611.906 119.117 613.827 Q118.33 615.725 116.223 618.318 Q115.645 618.989 112.543 622.207 Q109.441 625.401 103.793 631.165 Z" fill="#000000" fill-rule="evenodd" fill-opacity="1" /><path clip-path="url(#clip080)" d="M63.5847 189.634 Q59.9736 189.634 58.1449 193.199 Q56.3393 196.741 56.3393 203.87 Q56.3393 210.977 58.1449 214.541 Q59.9736 218.083 63.5847 218.083 Q67.2189 218.083 69.0244 214.541 Q70.8531 210.977 70.8531 203.87 Q70.8531 196.741 69.0244 193.199 Q67.2189 189.634 63.5847 189.634 M63.5847 185.93 Q69.3948 185.93 72.4503 190.537 Q75.529 195.12 75.529 203.87 Q75.529 212.597 72.4503 217.203 Q69.3948 221.787 63.5847 221.787 Q57.7745 221.787 54.6958 217.203 Q51.6403 212.597 51.6403 203.87 Q51.6403 195.12 54.6958 190.537 Q57.7745 185.93 63.5847 185.93 Z" fill="#000000" fill-rule="evenodd" fill-opacity="1" /><path clip-path="url(#clip080)" d="M83.7466 215.236 L88.6308 215.236 L88.6308 221.115 L83.7466 221.115 L83.7466 215.236 Z" fill="#000000" fill-rule="evenodd" fill-opacity="1" /><path clip-path="url(#clip080)" d="M112.983 202.481 Q116.339 203.199 118.214 205.467 Q120.112 207.736 120.112 211.069 Q120.112 216.185 116.594 218.986 Q113.075 221.787 106.594 221.787 Q104.418 221.787 102.103 221.347 Q99.8113 220.93 97.3576 220.074 L97.3576 215.56 Q99.3021 216.694 101.617 217.273 Q103.932 217.852 106.455 217.852 Q110.853 217.852 113.145 216.115 Q115.459 214.379 115.459 211.069 Q115.459 208.014 113.307 206.301 Q111.177 204.565 107.358 204.565 L103.33 204.565 L103.33 200.722 L107.543 200.722 Q110.992 200.722 112.82 199.356 Q114.649 197.967 114.649 195.375 Q114.649 192.713 112.751 191.301 Q110.876 189.866 107.358 189.866 Q105.436 189.866 103.237 190.282 Q101.038 190.699 98.3993 191.579 L98.3993 187.412 Q101.061 186.671 103.376 186.301 Q105.714 185.93 107.774 185.93 Q113.098 185.93 116.2 188.361 Q119.302 190.768 119.302 194.889 Q119.302 197.759 117.658 199.75 Q116.015 201.717 112.983 202.481 Z" fill="#000000" fill-rule="evenodd" fill-opacity="1" /><polyline clip-path="url(#clip082)" style="stroke:#009af9; stroke-linecap:butt; stroke-linejoin:round; stroke-width:4; stroke-opacity:1; fill:none" points="
  1847.6,1445.66 1849.83,1445.66 1852.05,1445.65 1854.28,1445.63 1856.51,1445.6 1858.73,1445.56 1860.96,1445.52 1863.18,1445.46 1865.41,1445.39 1867.64,1445.3 
  1869.86,1445.2 1872.09,1445.07 1874.31,1444.92 1876.54,1444.74 1878.77,1444.52 1880.99,1444.26 1883.22,1443.96 1885.44,1443.61 1887.67,1443.2 1889.9,1442.72 
  1892.12,1442.16 1894.35,1441.51 1896.58,1440.76 1898.8,1439.9 1901.03,1438.92 1903.25,1437.8 1905.48,1436.52 1907.71,1435.07 1909.93,1433.43 1912.16,1431.59 
  1914.38,1429.53 1916.61,1427.22 1918.84,1424.65 1921.06,1421.8 1923.29,1418.65 1925.51,1415.19 1927.74,1411.38 1929.97,1407.21 1932.19,1402.68 1934.42,1397.75 
  1936.64,1392.43 1938.87,1386.69 1941.1,1380.52 1943.32,1373.93 1945.55,1366.91 1947.77,1359.45 1950,1351.56 1952.23,1343.24 1954.45,1334.52 1956.68,1325.39 
  1958.9,1315.88 1961.13,1306.01 1963.36,1295.82 1965.58,1285.32 1967.81,1274.56 1970.03,1263.57 1972.26,1252.39 1974.49,1241.08 1976.71,1229.67 1978.94,1218.21 
  1981.17,1206.77 1983.39,1195.38 1985.62,1184.1 1987.84,1172.99 1990.07,1162.1 1992.3,1151.47 1994.52,1141.16 1996.75,1131.2 1998.97,1121.66 2001.2,1112.56 
  2003.43,1103.94 2005.65,1095.83 2007.88,1088.25 2010.1,1081.24 2012.33,1074.79 2014.56,1068.92 2016.78,1063.64 2019.01,1058.93 2021.23,1054.8 2023.46,1051.23 
  2025.69,1048.19 2027.91,1045.67 2030.14,1043.63 2032.36,1042.04 2034.59,1040.86 2036.82,1040.05 2039.04,1039.58 2041.27,1039.39 2043.49,1039.43 2045.72,1039.68 
  2047.95,1040.07 2050.17,1040.57 2052.4,1041.13 2054.62,1041.71 2056.85,1042.28 2059.08,1042.81 2061.3,1043.27 2063.53,1043.63 2065.76,1043.88 2067.98,1044.01 
  2070.21,1044.01 2072.43,1043.88 2074.66,1043.63 2076.89,1043.27 2079.11,1042.81 2081.34,1042.28 2083.56,1041.71 2085.79,1041.13 2088.02,1040.57 2090.24,1040.07 
  2092.47,1039.68 2094.69,1039.43 2096.92,1039.39 2099.15,1039.58 2101.37,1040.05 2103.6,1040.86 2105.82,1042.04 2108.05,1043.63 2110.28,1045.67 2112.5,1048.19 
  2114.73,1051.23 2116.95,1054.8 2119.18,1058.93 2121.41,1063.64 2123.63,1068.92 2125.86,1074.79 2128.08,1081.24 2130.31,1088.25 2132.54,1095.83 2134.76,1103.94 
  2136.99,1112.56 2139.22,1121.66 2141.44,1131.2 2143.67,1141.16 2145.89,1151.47 2148.12,1162.1 2150.35,1172.99 2152.57,1184.1 2154.8,1195.38 2157.02,1206.77 
  2159.25,1218.21 2161.48,1229.67 2163.7,1241.08 2165.93,1252.39 2168.15,1263.57 2170.38,1274.56 2172.61,1285.32 2174.83,1295.82 2177.06,1306.01 2179.28,1315.88 
  2181.51,1325.39 2183.74,1334.52 2185.96,1343.24 2188.19,1351.56 2190.41,1359.45 2192.64,1366.91 2194.87,1373.93 2197.09,1380.52 2199.32,1386.69 2201.54,1392.43 
  2203.77,1397.75 2206,1402.68 2208.22,1407.21 2210.45,1411.38 2212.67,1415.19 2214.9,1418.65 2217.13,1421.8 2219.35,1424.65 2221.58,1427.22 2223.81,1429.53 
  2226.03,1431.59 2228.26,1433.43 2230.48,1435.07 2232.71,1436.52 2234.94,1437.8 2237.16,1438.92 2239.39,1439.9 2241.61,1440.76 2243.84,1441.51 2246.07,1442.16 
  2248.29,1442.72 2250.52,1443.2 2252.74,1443.61 2254.97,1443.96 2257.2,1444.26 2259.42,1444.52 2261.65,1444.74 2263.87,1444.92 2266.1,1445.07 2268.33,1445.2 
  2270.55,1445.3 2272.78,1445.39 2275,1445.46 2277.23,1445.52 2279.46,1445.56 2281.68,1445.6 2283.91,1445.63 2286.13,1445.65 2288.36,1445.66 2290.59,1445.66 
  
  "/>
<polyline clip-path="url(#clip082)" style="stroke:#e26f46; stroke-linecap:butt; stroke-linejoin:round; stroke-width:4; stroke-opacity:1; fill:none" points="
  218.281,1445.68 221.875,1445.66 225.469,1445.64 229.063,1445.62 232.657,1445.59 236.251,1445.55 239.845,1445.5 243.439,1445.44 247.033,1445.36 250.627,1445.27 
  254.221,1445.17 257.815,1445.04 261.409,1444.89 265.003,1444.71 268.597,1444.5 272.191,1444.26 275.785,1443.97 279.379,1443.63 282.973,1443.24 286.567,1442.79 
  290.161,1442.26 293.755,1441.66 297.349,1440.97 300.943,1440.18 304.537,1439.29 308.131,1438.27 311.725,1437.11 315.319,1435.81 318.913,1434.35 322.507,1432.72 
  326.101,1430.89 329.695,1428.87 333.289,1426.62 336.883,1424.14 340.477,1421.41 344.071,1418.42 347.665,1415.16 351.259,1411.61 354.853,1407.76 358.447,1403.6 
  362.041,1399.13 365.635,1394.33 369.229,1389.22 372.823,1383.78 376.417,1378.01 380.011,1371.93 383.605,1365.55 387.199,1358.87 390.793,1351.91 394.387,1344.69 
  397.981,1337.24 401.575,1329.57 405.169,1321.73 408.763,1313.75 412.357,1305.67 415.952,1297.51 419.546,1289.34 423.14,1281.18 426.734,1273.1 430.328,1265.13 
  433.922,1257.33 437.516,1249.74 441.11,1242.4 444.704,1235.38 448.298,1228.69 451.892,1222.4 455.486,1216.53 459.08,1211.12 462.674,1206.19 466.268,1201.77 
  469.862,1197.88 473.456,1194.52 477.05,1191.71 480.644,1189.44 484.238,1187.7 487.832,1186.49 491.426,1185.77 495.02,1185.54 498.614,1185.76 502.208,1186.38 
  505.802,1187.39 509.396,1188.72 512.99,1190.34 516.584,1192.19 520.178,1194.24 523.772,1196.42 527.366,1198.7 530.96,1201.01 534.554,1203.32 538.148,1205.59 
  541.742,1207.76 545.336,1209.81 548.93,1211.7 552.524,1213.41 556.118,1214.91 559.712,1216.18 563.306,1217.22 566.9,1218.03 570.494,1218.59 574.088,1218.93 
  577.682,1219.04 581.276,1218.95 584.87,1218.67 588.464,1218.24 592.058,1217.69 595.652,1217.03 599.246,1216.32 602.84,1215.58 606.434,1214.86 610.028,1214.19 
  613.622,1213.61 617.216,1213.16 620.81,1212.87 624.404,1212.79 627.998,1212.95 631.592,1213.37 635.186,1214.09 638.78,1215.12 642.374,1216.49 645.968,1218.21 
  649.562,1220.3 653.156,1222.76 656.75,1225.6 660.344,1228.82 663.938,1232.42 667.532,1236.38 671.126,1240.69 674.72,1245.35 678.314,1250.32 681.908,1255.59 
  685.502,1261.13 689.096,1266.92 692.69,1272.93 696.284,1279.13 699.878,1285.49 703.472,1291.97 707.066,1298.55 710.66,1305.19 714.254,1311.86 717.848,1318.52 
  721.442,1325.16 725.036,1331.74 728.63,1338.23 732.224,1344.61 735.818,1350.86 739.412,1356.95 743.006,1362.86 746.6,1368.58 750.194,1374.1 753.788,1379.39 
  757.382,1384.46 760.976,1389.29 764.57,1393.88 768.164,1398.22 771.758,1402.32 775.352,1406.17 778.946,1409.77 782.54,1413.14 786.134,1416.28 789.728,1419.18 
  793.322,1421.87 796.916,1424.34 800.51,1426.61 804.104,1428.69 807.698,1430.59 811.292,1432.31 814.886,1433.87 818.48,1435.28 822.074,1436.55 825.668,1437.69 
  829.262,1438.71 832.856,1439.61 836.45,1440.42 840.044,1441.14 843.638,1441.77 847.232,1442.32 850.826,1442.81 854.42,1443.24 858.014,1443.61 861.608,1443.93 
  865.202,1444.21 868.796,1444.45 872.39,1444.66 875.984,1444.84 879.578,1444.99 883.172,1445.12 886.766,1445.23 890.36,1445.32 893.954,1445.4 897.548,1445.46 
  901.142,1445.52 904.736,1445.56 908.33,1445.6 911.924,1445.63 915.518,1445.65 919.112,1445.67 922.706,1445.68 926.3,1445.68 929.894,1445.69 933.488,1445.68 
  
  "/>
<polyline clip-path="url(#clip082)" style="stroke:#3da44d; stroke-linecap:butt; stroke-linejoin:round; stroke-width:4; stroke-opacity:1; fill:none" points="
  811.772,1445.62 813.607,1445.6 815.442,1445.58 817.277,1445.54 819.112,1445.48 820.947,1445.4 822.782,1445.3 824.617,1445.17 826.453,1445.01 828.288,1444.81 
  830.123,1444.56 831.958,1444.25 833.793,1443.86 835.628,1443.4 837.463,1442.84 839.298,1442.16 841.133,1441.35 842.968,1440.38 844.804,1439.23 846.639,1437.88 
  848.474,1436.29 850.309,1434.44 852.144,1432.29 853.979,1429.8 855.814,1426.96 857.649,1423.7 859.484,1420.01 861.319,1415.85 863.154,1411.17 864.99,1405.96 
  866.825,1400.18 868.66,1393.81 870.495,1386.82 872.33,1379.22 874.165,1370.99 876,1362.14 877.835,1352.68 879.67,1342.65 881.505,1332.08 883.341,1321.01 
  885.176,1309.51 887.011,1297.66 888.846,1285.53 890.681,1273.23 892.516,1260.86 894.351,1248.53 896.186,1236.37 898.021,1224.49 899.856,1213.03 901.691,1202.11 
  903.527,1191.85 905.362,1182.38 907.197,1173.8 909.032,1166.21 910.867,1159.7 912.702,1154.32 914.537,1150.13 916.372,1147.15 918.207,1145.39 920.042,1144.84 
  921.878,1145.45 923.713,1147.15 925.548,1149.87 927.383,1153.49 929.218,1157.89 931.053,1162.92 932.888,1168.43 934.723,1174.24 936.558,1180.16 938.393,1186.02 
  940.228,1191.62 942.064,1196.78 943.899,1201.3 945.734,1205.02 947.569,1207.77 949.404,1209.4 951.239,1209.77 953.074,1208.78 954.909,1206.33 956.744,1202.35 
  958.579,1196.82 960.415,1189.7 962.25,1181.03 964.085,1170.82 965.92,1159.17 967.755,1146.15 969.59,1131.88 971.425,1116.52 973.26,1100.22 975.095,1083.16 
  976.93,1065.55 978.766,1047.6 980.601,1029.53 982.436,1011.56 984.271,993.922 986.106,976.846 987.941,960.549 989.776,945.242 991.611,931.12 993.446,918.361 
  995.281,907.122 997.116,897.536 998.952,889.707 1000.79,883.714 1002.62,879.604 1004.46,877.391 1006.29,877.061 1008.13,878.567 1009.96,881.833 1011.8,886.755 
  1013.63,893.202 1015.47,901.024 1017.3,910.047 1019.14,920.086 1020.97,930.944 1022.81,942.416 1024.64,954.296 1026.48,966.383 1028.31,978.481 1030.15,990.407 
  1031.98,1001.99 1033.82,1013.09 1035.65,1023.58 1037.49,1033.35 1039.32,1042.33 1041.16,1050.48 1042.99,1057.77 1044.83,1064.22 1046.66,1069.86 1048.5,1074.75 
  1050.33,1078.97 1052.17,1082.62 1054,1085.83 1055.84,1088.71 1057.67,1091.41 1059.51,1094.06 1061.34,1096.81 1063.18,1099.79 1065.01,1103.12 1066.85,1106.93 
  1068.69,1111.31 1070.52,1116.35 1072.36,1122.12 1074.19,1128.66 1076.03,1135.99 1077.86,1144.13 1079.7,1153.06 1081.53,1162.74 1083.37,1173.12 1085.2,1184.14 
  1087.04,1195.71 1088.87,1207.75 1090.71,1220.15 1092.54,1232.82 1094.38,1245.65 1096.21,1258.53 1098.05,1271.35 1099.88,1284.03 1101.72,1296.46 1103.55,1308.56 
  1105.39,1320.26 1107.22,1331.48 1109.06,1342.18 1110.89,1352.32 1112.73,1361.86 1114.56,1370.77 1116.4,1379.05 1118.23,1386.7 1120.07,1393.71 1121.9,1400.11 
  1123.74,1405.91 1125.57,1411.13 1127.41,1415.82 1129.24,1419.99 1131.08,1423.69 1132.91,1426.94 1134.75,1429.8 1136.58,1432.28 1138.42,1434.43 1140.25,1436.29 
  1142.09,1437.88 1143.92,1439.23 1145.76,1440.38 1147.59,1441.35 1149.43,1442.16 1151.26,1442.84 1153.1,1443.4 1154.93,1443.86 1156.77,1444.24 1158.6,1444.56 
  1160.44,1444.81 1162.28,1445.01 1164.11,1445.17 1165.95,1445.3 1167.78,1445.4 1169.62,1445.48 1171.45,1445.54 1173.29,1445.58 1175.12,1445.6 1176.96,1445.62 
  
  "/>
<polyline clip-path="url(#clip082)" style="stroke:#c271d2; stroke-linecap:butt; stroke-linejoin:round; stroke-width:4; stroke-opacity:1; fill:none" points="
  441.704,1445.47 442.861,1445.44 444.019,1445.38 445.176,1445.28 446.333,1445.13 447.491,1444.93 448.648,1444.66 449.806,1444.31 450.963,1443.86 452.12,1443.27 
  453.278,1442.53 454.435,1441.59 455.592,1440.42 456.75,1438.96 457.907,1437.15 459.065,1434.93 460.222,1432.23 461.379,1428.95 462.537,1425.01 463.694,1420.3 
  464.852,1414.72 466.009,1408.13 467.166,1400.41 468.324,1391.44 469.481,1381.08 470.638,1369.18 471.796,1355.62 472.953,1340.25 474.111,1322.97 475.268,1303.65 
  476.425,1282.18 477.583,1258.5 478.74,1232.53 479.897,1204.23 481.055,1173.59 482.212,1140.61 483.37,1105.33 484.527,1067.82 485.684,1028.16 486.842,986.497 
  487.999,942.966 489.156,897.747 490.314,851.043 491.471,803.082 492.629,754.112 493.786,704.404 494.943,654.25 496.101,603.958 497.258,553.858 498.415,504.295 
  499.573,455.632 500.73,408.25 501.888,362.543 503.045,318.918 504.202,277.794 505.36,239.597 506.517,204.755 507.674,173.693 508.832,146.823 509.989,124.541 
  511.147,107.212 512.304,95.1657 513.461,88.68 514.619,87.9763 515.776,93.2074 516.933,104.45 518.091,121.699 519.248,144.859 520.406,173.747 521.563,208.091 
  522.72,247.532 523.878,291.63 525.035,339.876 526.192,391.699 527.35,446.479 528.507,503.565 529.665,562.287 530.822,621.972 531.979,681.961 533.137,741.619 
  534.294,800.356 535.451,857.628 536.609,912.956 537.766,965.925 538.924,1016.19 540.081,1063.49 541.238,1107.63 542.396,1148.47 543.553,1185.96 544.71,1220.11 
  545.868,1250.96 547.025,1278.62 548.183,1303.24 549.34,1324.97 550.497,1344.02 551.655,1360.59 552.812,1374.89 553.969,1387.13 555.127,1397.54 556.284,1406.32 
  557.442,1413.65 558.599,1419.73 559.756,1424.7 560.914,1428.71 562.071,1431.9 563.228,1434.37 564.386,1436.21 565.543,1437.5 566.701,1438.28 567.858,1438.59 
  569.015,1438.45 570.173,1437.88 571.33,1436.85 572.487,1435.34 573.645,1433.32 574.802,1430.74 575.96,1427.52 577.117,1423.6 578.274,1418.9 579.432,1413.33 
  580.589,1406.78 581.746,1399.17 582.904,1390.4 584.061,1380.37 585.219,1369 586.376,1356.22 587.533,1341.95 588.691,1326.18 589.848,1308.87 591.005,1290.05 
  592.163,1269.76 593.32,1248.08 594.478,1225.14 595.635,1201.09 596.792,1176.14 597.95,1150.52 599.107,1124.51 600.264,1098.43 601.422,1072.6 602.579,1047.38 
  603.737,1023.15 604.894,1000.28 606.051,979.145 607.209,960.097 608.366,943.469 609.524,929.557 610.681,918.615 611.838,910.846 612.996,906.395 614.153,905.346 
  615.31,907.72 616.468,913.472 617.625,922.492 618.783,934.613 619.94,949.611 621.097,967.216 622.255,987.114 623.412,1008.97 624.569,1032.41 625.727,1057.07 
  626.884,1082.56 628.042,1108.54 629.199,1134.63 630.356,1160.52 631.514,1185.92 632.671,1210.55 633.828,1234.19 634.986,1256.66 636.143,1277.81 637.301,1297.54 
  638.458,1315.78 639.615,1332.5 640.773,1347.69 641.93,1361.38 643.087,1373.62 644.245,1384.48 645.402,1394.03 646.56,1402.37 647.717,1409.6 648.874,1415.81 
  650.032,1421.12 651.189,1425.61 652.346,1429.39 653.504,1432.55 654.661,1435.16 655.819,1437.32 656.976,1439.08 658.133,1440.5 659.291,1441.65 660.448,1442.57 
  661.605,1443.3 662.763,1443.88 663.92,1444.32 665.078,1444.67 666.235,1444.94 667.392,1445.13 668.55,1445.28 669.707,1445.38 670.864,1445.44 672.022,1445.47 
  
  "/>
<polyline clip-path="url(#clip082)" style="stroke:#ac8d18; stroke-linecap:butt; stroke-linejoin:round; stroke-width:4; stroke-opacity:1; fill:none" points="
  923.161,1445.72 926.935,1445.71 930.709,1445.7 934.484,1445.69 938.258,1445.67 942.032,1445.65 945.807,1445.62 949.581,1445.59 953.356,1445.55 957.13,1445.49 
  960.904,1445.43 964.679,1445.35 968.453,1445.26 972.228,1445.15 976.002,1445.02 979.776,1444.86 983.551,1444.68 987.325,1444.46 991.1,1444.21 994.874,1443.91 
  998.648,1443.56 1002.42,1443.16 1006.2,1442.7 1009.97,1442.17 1013.75,1441.56 1017.52,1440.86 1021.29,1440.07 1025.07,1439.17 1028.84,1438.15 1032.62,1437 
  1036.39,1435.71 1040.17,1434.27 1043.94,1432.66 1047.72,1430.88 1051.49,1428.91 1055.26,1426.73 1059.04,1424.34 1062.81,1421.72 1066.59,1418.86 1070.36,1415.76 
  1074.14,1412.41 1077.91,1408.78 1081.68,1404.89 1085.46,1400.73 1089.23,1396.29 1093.01,1391.57 1096.78,1386.57 1100.56,1381.31 1104.33,1375.78 1108.11,1370 
  1111.88,1363.97 1115.65,1357.72 1119.43,1351.26 1123.2,1344.61 1126.98,1337.79 1130.75,1330.84 1134.53,1323.77 1138.3,1316.62 1142.08,1309.42 1145.85,1302.21 
  1149.62,1295.01 1153.4,1287.86 1157.17,1280.81 1160.95,1273.87 1164.72,1267.09 1168.5,1260.51 1172.27,1254.14 1176.04,1248.04 1179.82,1242.21 1183.59,1236.7 
  1187.37,1231.51 1191.14,1226.68 1194.92,1222.22 1198.69,1218.13 1202.47,1214.44 1206.24,1211.13 1210.01,1208.23 1213.79,1205.71 1217.56,1203.58 1221.34,1201.82 
  1225.11,1200.41 1228.89,1199.35 1232.66,1198.61 1236.43,1198.17 1240.21,1197.99 1243.98,1198.06 1247.76,1198.35 1251.53,1198.83 1255.31,1199.46 1259.08,1200.23 
  1262.86,1201.09 1266.63,1202.03 1270.4,1203.02 1274.18,1204.03 1277.95,1205.04 1281.73,1206.04 1285.5,1207 1289.28,1207.92 1293.05,1208.78 1296.83,1209.58 
  1300.6,1210.3 1304.37,1210.97 1308.15,1211.56 1311.92,1212.09 1315.7,1212.58 1319.47,1213.02 1323.25,1213.43 1327.02,1213.83 1330.79,1214.24 1334.57,1214.67 
  1338.34,1215.14 1342.12,1215.68 1345.89,1216.3 1349.67,1217.03 1353.44,1217.89 1357.22,1218.89 1360.99,1220.07 1364.76,1221.43 1368.54,1223 1372.31,1224.8 
  1376.09,1226.83 1379.86,1229.1 1383.64,1231.64 1387.41,1234.45 1391.18,1237.53 1394.96,1240.88 1398.73,1244.51 1402.51,1248.41 1406.28,1252.59 1410.06,1257.02 
  1413.83,1261.71 1417.61,1266.63 1421.38,1271.78 1425.15,1277.13 1428.93,1282.67 1432.7,1288.38 1436.48,1294.23 1440.25,1300.2 1444.03,1306.26 1447.8,1312.39 
  1451.58,1318.57 1455.35,1324.76 1459.12,1330.94 1462.9,1337.09 1466.67,1343.18 1470.45,1349.18 1474.22,1355.08 1478,1360.85 1481.77,1366.47 1485.54,1371.92 
  1489.32,1377.19 1493.09,1382.27 1496.87,1387.14 1500.64,1391.79 1504.42,1396.22 1508.19,1400.42 1511.97,1404.39 1515.74,1408.12 1519.51,1411.62 1523.29,1414.89 
  1527.06,1417.93 1530.84,1420.75 1534.61,1423.35 1538.39,1425.74 1542.16,1427.94 1545.93,1429.94 1549.71,1431.76 1553.48,1433.42 1557.26,1434.91 1561.03,1436.25 
  1564.81,1437.45 1568.58,1438.53 1572.36,1439.48 1576.13,1440.33 1579.9,1441.08 1583.68,1441.74 1587.45,1442.32 1591.23,1442.82 1595,1443.26 1598.78,1443.64 
  1602.55,1443.97 1606.33,1444.26 1610.1,1444.5 1613.87,1444.71 1617.65,1444.89 1621.42,1445.04 1625.2,1445.17 1628.97,1445.27 1632.75,1445.36 1636.52,1445.44 
  1640.29,1445.5 1644.07,1445.55 1647.84,1445.59 1651.62,1445.63 1655.39,1445.66 1659.17,1445.68 1662.94,1445.69 1666.72,1445.7 1670.49,1445.71 1674.26,1445.72 
  
  "/>
<polyline clip-path="url(#clip082)" style="stroke:#00a9ad; stroke-linecap:butt; stroke-linejoin:round; stroke-width:4; stroke-opacity:1; fill:none" points="
  334.514,1445.69 337.704,1445.69 340.895,1445.68 344.085,1445.66 347.276,1445.63 350.466,1445.6 353.657,1445.55 356.847,1445.49 360.038,1445.42 363.228,1445.34 
  366.419,1445.23 369.609,1445.1 372.8,1444.94 375.991,1444.74 379.181,1444.51 382.372,1444.23 385.562,1443.9 388.753,1443.51 391.943,1443.04 395.134,1442.5 
  398.324,1441.85 401.515,1441.1 404.705,1440.23 407.896,1439.22 411.086,1438.06 414.277,1436.72 417.468,1435.19 420.658,1433.44 423.849,1431.47 427.039,1429.23 
  430.23,1426.72 433.42,1423.91 436.611,1420.77 439.801,1417.29 442.992,1413.44 446.182,1409.2 449.373,1404.56 452.563,1399.49 455.754,1393.98 458.944,1388.02 
  462.135,1381.59 465.326,1374.7 468.516,1367.35 471.707,1359.53 474.897,1351.26 478.088,1342.55 481.278,1333.41 484.469,1323.88 487.659,1313.98 490.85,1303.74 
  494.04,1293.21 497.231,1282.42 500.421,1271.44 503.612,1260.31 506.802,1249.09 509.993,1237.83 513.184,1226.6 516.374,1215.47 519.565,1204.5 522.755,1193.74 
  525.946,1183.27 529.136,1173.14 532.327,1163.42 535.517,1154.15 538.708,1145.4 541.898,1137.2 545.089,1129.6 548.279,1122.64 551.47,1116.35 554.66,1110.76 
  557.851,1105.88 561.042,1101.73 564.232,1098.32 567.423,1095.66 570.613,1093.74 573.804,1092.55 576.994,1092.1 580.185,1092.36 583.375,1093.31 586.566,1094.94 
  589.756,1097.22 592.947,1100.13 596.137,1103.65 599.328,1107.73 602.519,1112.36 605.709,1117.5 608.9,1123.12 612.09,1129.19 615.281,1135.66 618.471,1142.51 
  621.662,1149.69 624.852,1157.17 628.043,1164.9 631.233,1172.85 634.424,1180.96 637.614,1189.2 640.805,1197.51 643.995,1205.85 647.186,1214.16 650.377,1222.4 
  653.567,1230.51 656.758,1238.44 659.948,1246.14 663.139,1253.56 666.329,1260.64 669.52,1267.35 672.71,1273.63 675.901,1279.45 679.091,1284.78 682.282,1289.57 
  685.472,1293.82 688.663,1297.49 691.853,1300.59 695.044,1303.1 698.235,1305.04 701.425,1306.41 704.616,1307.23 707.806,1307.54 710.997,1307.36 714.187,1306.75 
  717.378,1305.74 720.568,1304.4 723.759,1302.78 726.949,1300.95 730.14,1298.97 733.33,1296.91 736.521,1294.84 739.711,1292.83 742.902,1290.94 746.093,1289.24 
  749.283,1287.79 752.474,1286.64 755.664,1285.84 758.855,1285.44 762.045,1285.47 765.236,1285.96 768.426,1286.93 771.617,1288.4 774.807,1290.36 777.998,1292.81 
  781.188,1295.74 784.379,1299.13 787.57,1302.96 790.76,1307.2 793.951,1311.8 797.141,1316.74 800.332,1321.96 803.522,1327.41 806.713,1333.06 809.903,1338.84 
  813.094,1344.72 816.284,1350.64 819.475,1356.57 822.665,1362.44 825.856,1368.23 829.046,1373.9 832.237,1379.42 835.428,1384.75 838.618,1389.87 841.809,1394.76 
  844.999,1399.41 848.19,1403.8 851.38,1407.92 854.571,1411.77 857.761,1415.35 860.952,1418.66 864.142,1421.7 867.333,1424.49 870.523,1427.03 873.714,1429.33 
  876.904,1431.41 880.095,1433.27 883.286,1434.93 886.476,1436.41 889.667,1437.72 892.857,1438.88 896.048,1439.89 899.238,1440.77 902.429,1441.54 905.619,1442.21 
  908.81,1442.78 912,1443.27 915.191,1443.69 918.381,1444.04 921.572,1444.35 924.762,1444.6 927.953,1444.81 931.144,1444.99 934.334,1445.14 937.525,1445.26 
  940.715,1445.36 943.906,1445.44 947.096,1445.51 950.287,1445.56 953.477,1445.6 956.668,1445.64 959.858,1445.66 963.049,1445.68 966.239,1445.69 969.43,1445.7 
  
  "/>
<path clip-path="url(#clip080)" d="
M1826.92 458.098 L2279.53 458.098 L2279.53 95.2176 L1826.92 95.2176  Z
  " fill="#ffffff" fill-rule="evenodd" fill-opacity="1"/>
<polyline clip-path="url(#clip080)" style="stroke:#000000; stroke-linecap:butt; stroke-linejoin:round; stroke-width:4; stroke-opacity:1; fill:none" points="
  1826.92,458.098 2279.53,458.098 2279.53,95.2176 1826.92,95.2176 1826.92,458.098 
  "/>
<polyline clip-path="url(#clip080)" style="stroke:#009af9; stroke-linecap:butt; stroke-linejoin:round; stroke-width:4; stroke-opacity:1; fill:none" points="
  1850.92,147.058 1994.92,147.058 
  "/>
<path clip-path="url(#clip080)" d="M2039.27 143.389 Q2040.86 140.518 2043.09 139.153 Q2045.31 137.787 2048.32 137.787 Q2052.37 137.787 2054.57 140.634 Q2056.77 143.458 2056.77 148.689 L2056.77 164.338 L2052.48 164.338 L2052.48 148.828 Q2052.48 145.102 2051.17 143.296 Q2049.85 141.49 2047.14 141.49 Q2043.83 141.49 2041.91 143.69 Q2039.98 145.889 2039.98 149.685 L2039.98 164.338 L2035.7 164.338 L2035.7 148.828 Q2035.7 145.078 2034.38 143.296 Q2033.06 141.49 2030.31 141.49 Q2027.04 141.49 2025.12 143.713 Q2023.2 145.912 2023.2 149.685 L2023.2 164.338 L2018.92 164.338 L2018.92 138.412 L2023.2 138.412 L2023.2 142.44 Q2024.66 140.055 2026.7 138.921 Q2028.73 137.787 2031.54 137.787 Q2034.36 137.787 2036.33 139.222 Q2038.32 140.657 2039.27 143.389 Z" fill="#000000" fill-rule="evenodd" fill-opacity="1" /><path clip-path="url(#clip080)" d="M2064.82 154.106 L2064.82 138.412 L2069.08 138.412 L2069.08 153.944 Q2069.08 157.625 2070.52 159.476 Q2071.95 161.305 2074.82 161.305 Q2078.27 161.305 2080.26 159.106 Q2082.28 156.907 2082.28 153.111 L2082.28 138.412 L2086.54 138.412 L2086.54 164.338 L2082.28 164.338 L2082.28 160.356 Q2080.73 162.717 2078.66 163.875 Q2076.63 165.009 2073.92 165.009 Q2069.45 165.009 2067.14 162.231 Q2064.82 159.453 2064.82 154.106 M2075.54 137.787 L2075.54 137.787 Z" fill="#000000" fill-rule="evenodd" fill-opacity="1" /><path clip-path="url(#clip080)" d="M2115.49 143.389 Q2117.09 140.518 2119.31 139.153 Q2121.54 137.787 2124.54 137.787 Q2128.6 137.787 2130.79 140.634 Q2132.99 143.458 2132.99 148.689 L2132.99 164.338 L2128.71 164.338 L2128.71 148.828 Q2128.71 145.102 2127.39 143.296 Q2126.07 141.49 2123.36 141.49 Q2120.05 141.49 2118.13 143.69 Q2116.21 145.889 2116.21 149.685 L2116.21 164.338 L2111.93 164.338 L2111.93 148.828 Q2111.93 145.078 2110.61 143.296 Q2109.29 141.49 2106.54 141.49 Q2103.27 141.49 2101.35 143.713 Q2099.43 145.912 2099.43 149.685 L2099.43 164.338 L2095.15 164.338 L2095.15 138.412 L2099.43 138.412 L2099.43 142.44 Q2100.89 140.055 2102.92 138.921 Q2104.96 137.787 2107.76 137.787 Q2110.59 137.787 2112.55 139.222 Q2114.54 140.657 2115.49 143.389 Z" fill="#000000" fill-rule="evenodd" fill-opacity="1" /><path clip-path="url(#clip080)" d="M2160.1 151.398 Q2160.1 146.699 2158.16 144.037 Q2156.23 141.352 2152.85 141.352 Q2149.47 141.352 2147.53 144.037 Q2145.61 146.699 2145.61 151.398 Q2145.61 156.097 2147.53 158.782 Q2149.47 161.444 2152.85 161.444 Q2156.23 161.444 2158.16 158.782 Q2160.1 156.097 2160.1 151.398 M2145.61 142.347 Q2146.95 140.032 2148.99 138.921 Q2151.05 137.787 2153.9 137.787 Q2158.62 137.787 2161.56 141.537 Q2164.52 145.287 2164.52 151.398 Q2164.52 157.509 2161.56 161.259 Q2158.62 165.009 2153.9 165.009 Q2151.05 165.009 2148.99 163.898 Q2146.95 162.763 2145.61 160.449 L2145.61 164.338 L2141.33 164.338 L2141.33 128.319 L2145.61 128.319 L2145.61 142.347 Z" fill="#000000" fill-rule="evenodd" fill-opacity="1" /><path clip-path="url(#clip080)" d="M2183.36 151.305 Q2178.2 151.305 2176.21 152.486 Q2174.22 153.666 2174.22 156.514 Q2174.22 158.782 2175.7 160.125 Q2177.21 161.444 2179.78 161.444 Q2183.32 161.444 2185.45 158.944 Q2187.6 156.421 2187.6 152.254 L2187.6 151.305 L2183.36 151.305 M2191.86 149.546 L2191.86 164.338 L2187.6 164.338 L2187.6 160.402 Q2186.14 162.763 2183.97 163.898 Q2181.79 165.009 2178.64 165.009 Q2174.66 165.009 2172.3 162.787 Q2169.96 160.541 2169.96 156.791 Q2169.96 152.416 2172.88 150.194 Q2175.82 147.972 2181.63 147.972 L2187.6 147.972 L2187.6 147.555 Q2187.6 144.615 2185.66 143.018 Q2183.73 141.398 2180.24 141.398 Q2178.02 141.398 2175.91 141.93 Q2173.8 142.463 2171.86 143.527 L2171.86 139.592 Q2174.2 138.69 2176.4 138.25 Q2178.59 137.787 2180.68 137.787 Q2186.3 137.787 2189.08 140.703 Q2191.86 143.62 2191.86 149.546 Z" fill="#000000" fill-rule="evenodd" fill-opacity="1" /><path clip-path="url(#clip080)" d="M2200.63 138.412 L2204.89 138.412 L2204.89 164.338 L2200.63 164.338 L2200.63 138.412 M2200.63 128.319 L2204.89 128.319 L2204.89 133.713 L2200.63 133.713 L2200.63 128.319 Z" fill="#000000" fill-rule="evenodd" fill-opacity="1" /><polyline clip-path="url(#clip080)" style="stroke:#e26f46; stroke-linecap:butt; stroke-linejoin:round; stroke-width:4; stroke-opacity:1; fill:none" points="
  1850.92,198.898 1994.92,198.898 
  "/>
<path clip-path="url(#clip080)" d="M2039.27 195.229 Q2040.86 192.358 2043.09 190.993 Q2045.31 189.627 2048.32 189.627 Q2052.37 189.627 2054.57 192.474 Q2056.77 195.298 2056.77 200.529 L2056.77 216.178 L2052.48 216.178 L2052.48 200.668 Q2052.48 196.942 2051.17 195.136 Q2049.85 193.33 2047.14 193.33 Q2043.83 193.33 2041.91 195.53 Q2039.98 197.729 2039.98 201.525 L2039.98 216.178 L2035.7 216.178 L2035.7 200.668 Q2035.7 196.918 2034.38 195.136 Q2033.06 193.33 2030.31 193.33 Q2027.04 193.33 2025.12 195.553 Q2023.2 197.752 2023.2 201.525 L2023.2 216.178 L2018.92 216.178 L2018.92 190.252 L2023.2 190.252 L2023.2 194.28 Q2024.66 191.895 2026.7 190.761 Q2028.73 189.627 2031.54 189.627 Q2034.36 189.627 2036.33 191.062 Q2038.32 192.497 2039.27 195.229 Z" fill="#000000" fill-rule="evenodd" fill-opacity="1" /><path clip-path="url(#clip080)" d="M2064.82 205.946 L2064.82 190.252 L2069.08 190.252 L2069.08 205.784 Q2069.08 209.465 2070.52 211.316 Q2071.95 213.145 2074.82 213.145 Q2078.27 213.145 2080.26 210.946 Q2082.28 208.747 2082.28 204.951 L2082.28 190.252 L2086.54 190.252 L2086.54 216.178 L2082.28 216.178 L2082.28 212.196 Q2080.73 214.557 2078.66 215.715 Q2076.63 216.849 2073.92 216.849 Q2069.45 216.849 2067.14 214.071 Q2064.82 211.293 2064.82 205.946 M2075.54 189.627 L2075.54 189.627 Z" fill="#000000" fill-rule="evenodd" fill-opacity="1" /><path clip-path="url(#clip080)" d="M2115.49 195.229 Q2117.09 192.358 2119.31 190.993 Q2121.54 189.627 2124.54 189.627 Q2128.6 189.627 2130.79 192.474 Q2132.99 195.298 2132.99 200.529 L2132.99 216.178 L2128.71 216.178 L2128.71 200.668 Q2128.71 196.942 2127.39 195.136 Q2126.07 193.33 2123.36 193.33 Q2120.05 193.33 2118.13 195.53 Q2116.21 197.729 2116.21 201.525 L2116.21 216.178 L2111.93 216.178 L2111.93 200.668 Q2111.93 196.918 2110.61 195.136 Q2109.29 193.33 2106.54 193.33 Q2103.27 193.33 2101.35 195.553 Q2099.43 197.752 2099.43 201.525 L2099.43 216.178 L2095.15 216.178 L2095.15 190.252 L2099.43 190.252 L2099.43 194.28 Q2100.89 191.895 2102.92 190.761 Q2104.96 189.627 2107.76 189.627 Q2110.59 189.627 2112.55 191.062 Q2114.54 192.497 2115.49 195.229 Z" fill="#000000" fill-rule="evenodd" fill-opacity="1" /><path clip-path="url(#clip080)" d="M2160.1 203.238 Q2160.1 198.539 2158.16 195.877 Q2156.23 193.192 2152.85 193.192 Q2149.47 193.192 2147.53 195.877 Q2145.61 198.539 2145.61 203.238 Q2145.61 207.937 2147.53 210.622 Q2149.47 213.284 2152.85 213.284 Q2156.23 213.284 2158.16 210.622 Q2160.1 207.937 2160.1 203.238 M2145.61 194.187 Q2146.95 191.872 2148.99 190.761 Q2151.05 189.627 2153.9 189.627 Q2158.62 189.627 2161.56 193.377 Q2164.52 197.127 2164.52 203.238 Q2164.52 209.349 2161.56 213.099 Q2158.62 216.849 2153.9 216.849 Q2151.05 216.849 2148.99 215.738 Q2146.95 214.603 2145.61 212.289 L2145.61 216.178 L2141.33 216.178 L2141.33 180.159 L2145.61 180.159 L2145.61 194.187 Z" fill="#000000" fill-rule="evenodd" fill-opacity="1" /><path clip-path="url(#clip080)" d="M2183.36 203.145 Q2178.2 203.145 2176.21 204.326 Q2174.22 205.506 2174.22 208.354 Q2174.22 210.622 2175.7 211.965 Q2177.21 213.284 2179.78 213.284 Q2183.32 213.284 2185.45 210.784 Q2187.6 208.261 2187.6 204.094 L2187.6 203.145 L2183.36 203.145 M2191.86 201.386 L2191.86 216.178 L2187.6 216.178 L2187.6 212.242 Q2186.14 214.603 2183.97 215.738 Q2181.79 216.849 2178.64 216.849 Q2174.66 216.849 2172.3 214.627 Q2169.96 212.381 2169.96 208.631 Q2169.96 204.256 2172.88 202.034 Q2175.82 199.812 2181.63 199.812 L2187.6 199.812 L2187.6 199.395 Q2187.6 196.455 2185.66 194.858 Q2183.73 193.238 2180.24 193.238 Q2178.02 193.238 2175.91 193.77 Q2173.8 194.303 2171.86 195.367 L2171.86 191.432 Q2174.2 190.53 2176.4 190.09 Q2178.59 189.627 2180.68 189.627 Q2186.3 189.627 2189.08 192.543 Q2191.86 195.46 2191.86 201.386 Z" fill="#000000" fill-rule="evenodd" fill-opacity="1" /><path clip-path="url(#clip080)" d="M2200.63 190.252 L2204.89 190.252 L2204.89 216.178 L2200.63 216.178 L2200.63 190.252 M2200.63 180.159 L2204.89 180.159 L2204.89 185.553 L2200.63 185.553 L2200.63 180.159 Z" fill="#000000" fill-rule="evenodd" fill-opacity="1" /><polyline clip-path="url(#clip080)" style="stroke:#3da44d; stroke-linecap:butt; stroke-linejoin:round; stroke-width:4; stroke-opacity:1; fill:none" points="
  1850.92,250.738 1994.92,250.738 
  "/>
<path clip-path="url(#clip080)" d="M2040.63 252.369 L2040.63 268.018 L2036.37 268.018 L2036.37 252.508 Q2036.37 248.828 2034.94 246.999 Q2033.5 245.17 2030.63 245.17 Q2027.18 245.17 2025.19 247.37 Q2023.2 249.569 2023.2 253.365 L2023.2 268.018 L2018.92 268.018 L2018.92 242.092 L2023.2 242.092 L2023.2 246.12 Q2024.73 243.782 2026.79 242.624 Q2028.87 241.467 2031.58 241.467 Q2036.05 241.467 2038.34 244.245 Q2040.63 246.999 2040.63 252.369 Z" fill="#000000" fill-rule="evenodd" fill-opacity="1" /><path clip-path="url(#clip080)" d="M2071.3 253.99 L2071.3 256.073 L2051.72 256.073 Q2052 260.471 2054.36 262.786 Q2056.74 265.078 2060.98 265.078 Q2063.43 265.078 2065.73 264.476 Q2068.04 263.874 2070.31 262.67 L2070.31 266.698 Q2068.02 267.67 2065.61 268.18 Q2063.2 268.689 2060.73 268.689 Q2054.52 268.689 2050.89 265.078 Q2047.28 261.467 2047.28 255.309 Q2047.28 248.944 2050.7 245.217 Q2054.15 241.467 2059.98 241.467 Q2065.22 241.467 2068.25 244.846 Q2071.3 248.203 2071.3 253.99 M2067.04 252.74 Q2067 249.245 2065.08 247.161 Q2063.18 245.078 2060.03 245.078 Q2056.47 245.078 2054.31 247.092 Q2052.18 249.106 2051.86 252.763 L2067.04 252.74 Z" fill="#000000" fill-rule="evenodd" fill-opacity="1" /><path clip-path="url(#clip080)" d="M2075.82 242.092 L2080.08 242.092 L2085.4 262.323 L2090.7 242.092 L2095.72 242.092 L2101.05 262.323 L2106.35 242.092 L2110.61 242.092 L2103.83 268.018 L2098.8 268.018 L2093.23 246.768 L2087.62 268.018 L2082.6 268.018 L2075.82 242.092 Z" fill="#000000" fill-rule="evenodd" fill-opacity="1" /><path clip-path="url(#clip080)" d="M2142.92 270.425 Q2141.12 275.055 2139.41 276.467 Q2137.69 277.879 2134.82 277.879 L2131.42 277.879 L2131.42 274.314 L2133.92 274.314 Q2135.68 274.314 2136.65 273.48 Q2137.62 272.647 2138.8 269.545 L2139.57 267.601 L2129.08 242.092 L2133.6 242.092 L2141.7 262.369 L2149.8 242.092 L2154.31 242.092 L2142.92 270.425 Z" fill="#000000" fill-rule="evenodd" fill-opacity="1" /><path clip-path="url(#clip080)" d="M2170.24 245.078 Q2166.81 245.078 2164.82 247.763 Q2162.83 250.425 2162.83 255.078 Q2162.83 259.731 2164.8 262.416 Q2166.79 265.078 2170.24 265.078 Q2173.64 265.078 2175.63 262.393 Q2177.62 259.707 2177.62 255.078 Q2177.62 250.471 2175.63 247.786 Q2173.64 245.078 2170.24 245.078 M2170.24 241.467 Q2175.79 241.467 2178.97 245.078 Q2182.14 248.689 2182.14 255.078 Q2182.14 261.444 2178.97 265.078 Q2175.79 268.689 2170.24 268.689 Q2164.66 268.689 2161.49 265.078 Q2158.34 261.444 2158.34 255.078 Q2158.34 248.689 2161.49 245.078 Q2164.66 241.467 2170.24 241.467 Z" fill="#000000" fill-rule="evenodd" fill-opacity="1" /><path clip-path="url(#clip080)" d="M2204.22 246.073 Q2203.5 245.657 2202.65 245.471 Q2201.81 245.263 2200.79 245.263 Q2197.18 245.263 2195.24 247.624 Q2193.32 249.962 2193.32 254.36 L2193.32 268.018 L2189.03 268.018 L2189.03 242.092 L2193.32 242.092 L2193.32 246.12 Q2194.66 243.758 2196.81 242.624 Q2198.97 241.467 2202.04 241.467 Q2202.48 241.467 2203.02 241.536 Q2203.55 241.583 2204.2 241.698 L2204.22 246.073 Z" fill="#000000" fill-rule="evenodd" fill-opacity="1" /><path clip-path="url(#clip080)" d="M2208.53 231.999 L2212.81 231.999 L2212.81 253.272 L2225.52 242.092 L2230.96 242.092 L2217.21 254.221 L2231.53 268.018 L2225.98 268.018 L2212.81 255.356 L2212.81 268.018 L2208.53 268.018 L2208.53 231.999 Z" fill="#000000" fill-rule="evenodd" fill-opacity="1" /><polyline clip-path="url(#clip080)" style="stroke:#c271d2; stroke-linecap:butt; stroke-linejoin:round; stroke-width:4; stroke-opacity:1; fill:none" points="
  1850.92,302.578 1994.92,302.578 
  "/>
<path clip-path="url(#clip080)" d="M2040.63 304.209 L2040.63 319.858 L2036.37 319.858 L2036.37 304.348 Q2036.37 300.668 2034.94 298.839 Q2033.5 297.01 2030.63 297.01 Q2027.18 297.01 2025.19 299.21 Q2023.2 301.409 2023.2 305.205 L2023.2 319.858 L2018.92 319.858 L2018.92 293.932 L2023.2 293.932 L2023.2 297.96 Q2024.73 295.622 2026.79 294.464 Q2028.87 293.307 2031.58 293.307 Q2036.05 293.307 2038.34 296.085 Q2040.63 298.839 2040.63 304.209 Z" fill="#000000" fill-rule="evenodd" fill-opacity="1" /><path clip-path="url(#clip080)" d="M2071.3 305.83 L2071.3 307.913 L2051.72 307.913 Q2052 312.311 2054.36 314.626 Q2056.74 316.918 2060.98 316.918 Q2063.43 316.918 2065.73 316.316 Q2068.04 315.714 2070.31 314.51 L2070.31 318.538 Q2068.02 319.51 2065.61 320.02 Q2063.2 320.529 2060.73 320.529 Q2054.52 320.529 2050.89 316.918 Q2047.28 313.307 2047.28 307.149 Q2047.28 300.784 2050.7 297.057 Q2054.15 293.307 2059.98 293.307 Q2065.22 293.307 2068.25 296.686 Q2071.3 300.043 2071.3 305.83 M2067.04 304.58 Q2067 301.085 2065.08 299.001 Q2063.18 296.918 2060.03 296.918 Q2056.47 296.918 2054.31 298.932 Q2052.18 300.946 2051.86 304.603 L2067.04 304.58 Z" fill="#000000" fill-rule="evenodd" fill-opacity="1" /><path clip-path="url(#clip080)" d="M2075.82 293.932 L2080.08 293.932 L2085.4 314.163 L2090.7 293.932 L2095.72 293.932 L2101.05 314.163 L2106.35 293.932 L2110.61 293.932 L2103.83 319.858 L2098.8 319.858 L2093.23 298.608 L2087.62 319.858 L2082.6 319.858 L2075.82 293.932 Z" fill="#000000" fill-rule="evenodd" fill-opacity="1" /><path clip-path="url(#clip080)" d="M2142.92 322.265 Q2141.12 326.895 2139.41 328.307 Q2137.69 329.719 2134.82 329.719 L2131.42 329.719 L2131.42 326.154 L2133.92 326.154 Q2135.68 326.154 2136.65 325.32 Q2137.62 324.487 2138.8 321.385 L2139.57 319.441 L2129.08 293.932 L2133.6 293.932 L2141.7 314.209 L2149.8 293.932 L2154.31 293.932 L2142.92 322.265 Z" fill="#000000" fill-rule="evenodd" fill-opacity="1" /><path clip-path="url(#clip080)" d="M2170.24 296.918 Q2166.81 296.918 2164.82 299.603 Q2162.83 302.265 2162.83 306.918 Q2162.83 311.571 2164.8 314.256 Q2166.79 316.918 2170.24 316.918 Q2173.64 316.918 2175.63 314.233 Q2177.62 311.547 2177.62 306.918 Q2177.62 302.311 2175.63 299.626 Q2173.64 296.918 2170.24 296.918 M2170.24 293.307 Q2175.79 293.307 2178.97 296.918 Q2182.14 300.529 2182.14 306.918 Q2182.14 313.284 2178.97 316.918 Q2175.79 320.529 2170.24 320.529 Q2164.66 320.529 2161.49 316.918 Q2158.34 313.284 2158.34 306.918 Q2158.34 300.529 2161.49 296.918 Q2164.66 293.307 2170.24 293.307 Z" fill="#000000" fill-rule="evenodd" fill-opacity="1" /><path clip-path="url(#clip080)" d="M2204.22 297.913 Q2203.5 297.497 2202.65 297.311 Q2201.81 297.103 2200.79 297.103 Q2197.18 297.103 2195.24 299.464 Q2193.32 301.802 2193.32 306.2 L2193.32 319.858 L2189.03 319.858 L2189.03 293.932 L2193.32 293.932 L2193.32 297.96 Q2194.66 295.598 2196.81 294.464 Q2198.97 293.307 2202.04 293.307 Q2202.48 293.307 2203.02 293.376 Q2203.55 293.423 2204.2 293.538 L2204.22 297.913 Z" fill="#000000" fill-rule="evenodd" fill-opacity="1" /><path clip-path="url(#clip080)" d="M2208.53 283.839 L2212.81 283.839 L2212.81 305.112 L2225.52 293.932 L2230.96 293.932 L2217.21 306.061 L2231.53 319.858 L2225.98 319.858 L2212.81 307.196 L2212.81 319.858 L2208.53 319.858 L2208.53 283.839 Z" fill="#000000" fill-rule="evenodd" fill-opacity="1" /><polyline clip-path="url(#clip080)" style="stroke:#ac8d18; stroke-linecap:butt; stroke-linejoin:round; stroke-width:4; stroke-opacity:1; fill:none" points="
  1850.92,354.418 1994.92,354.418 
  "/>
<path clip-path="url(#clip080)" d="M2023.2 367.809 L2023.2 381.559 L2018.92 381.559 L2018.92 345.772 L2023.2 345.772 L2023.2 349.707 Q2024.54 347.392 2026.58 346.281 Q2028.64 345.147 2031.49 345.147 Q2036.21 345.147 2039.15 348.897 Q2042.11 352.647 2042.11 358.758 Q2042.11 364.869 2039.15 368.619 Q2036.21 372.369 2031.49 372.369 Q2028.64 372.369 2026.58 371.258 Q2024.54 370.123 2023.2 367.809 M2037.69 358.758 Q2037.69 354.059 2035.75 351.397 Q2033.83 348.712 2030.45 348.712 Q2027.07 348.712 2025.12 351.397 Q2023.2 354.059 2023.2 358.758 Q2023.2 363.457 2025.12 366.142 Q2027.07 368.804 2030.45 368.804 Q2033.83 368.804 2035.75 366.142 Q2037.69 363.457 2037.69 358.758 Z" fill="#000000" fill-rule="evenodd" fill-opacity="1" /><path clip-path="url(#clip080)" d="M2060.96 358.665 Q2055.79 358.665 2053.8 359.846 Q2051.81 361.026 2051.81 363.874 Q2051.81 366.142 2053.29 367.485 Q2054.8 368.804 2057.37 368.804 Q2060.91 368.804 2063.04 366.304 Q2065.19 363.781 2065.19 359.614 L2065.19 358.665 L2060.96 358.665 M2069.45 356.906 L2069.45 371.698 L2065.19 371.698 L2065.19 367.762 Q2063.73 370.123 2061.56 371.258 Q2059.38 372.369 2056.23 372.369 Q2052.25 372.369 2049.89 370.147 Q2047.55 367.901 2047.55 364.151 Q2047.55 359.776 2050.47 357.554 Q2053.41 355.332 2059.22 355.332 L2065.19 355.332 L2065.19 354.915 Q2065.19 351.975 2063.25 350.378 Q2061.33 348.758 2057.83 348.758 Q2055.61 348.758 2053.5 349.29 Q2051.4 349.823 2049.45 350.887 L2049.45 346.952 Q2051.79 346.05 2053.99 345.61 Q2056.19 345.147 2058.27 345.147 Q2063.9 345.147 2066.67 348.063 Q2069.45 350.98 2069.45 356.906 Z" fill="#000000" fill-rule="evenodd" fill-opacity="1" /><path clip-path="url(#clip080)" d="M2093.25 349.753 Q2092.53 349.337 2091.67 349.151 Q2090.84 348.943 2089.82 348.943 Q2086.21 348.943 2084.27 351.304 Q2082.35 353.642 2082.35 358.04 L2082.35 371.698 L2078.06 371.698 L2078.06 345.772 L2082.35 345.772 L2082.35 349.8 Q2083.69 347.438 2085.84 346.304 Q2087.99 345.147 2091.07 345.147 Q2091.51 345.147 2092.04 345.216 Q2092.58 345.263 2093.23 345.378 L2093.25 349.753 Z" fill="#000000" fill-rule="evenodd" fill-opacity="1" /><path clip-path="url(#clip080)" d="M2097.72 345.772 L2101.97 345.772 L2101.97 371.698 L2097.72 371.698 L2097.72 345.772 M2097.72 335.679 L2101.97 335.679 L2101.97 341.073 L2097.72 341.073 L2097.72 335.679 Z" fill="#000000" fill-rule="evenodd" fill-opacity="1" /><path clip-path="url(#clip080)" d="M2127.41 346.536 L2127.41 350.563 Q2125.61 349.637 2123.66 349.175 Q2121.72 348.712 2119.64 348.712 Q2116.47 348.712 2114.87 349.684 Q2113.29 350.656 2113.29 352.6 Q2113.29 354.082 2114.43 354.938 Q2115.56 355.772 2118.99 356.536 L2120.45 356.86 Q2124.98 357.832 2126.88 359.614 Q2128.8 361.374 2128.8 364.545 Q2128.8 368.156 2125.93 370.262 Q2123.09 372.369 2118.09 372.369 Q2116 372.369 2113.73 371.952 Q2111.49 371.559 2108.99 370.748 L2108.99 366.35 Q2111.35 367.577 2113.64 368.202 Q2115.93 368.804 2118.18 368.804 Q2121.19 368.804 2122.81 367.786 Q2124.43 366.744 2124.43 364.869 Q2124.43 363.133 2123.25 362.207 Q2122.09 361.281 2118.13 360.424 L2116.65 360.077 Q2112.69 359.244 2110.93 357.531 Q2109.17 355.795 2109.17 352.786 Q2109.17 349.128 2111.77 347.138 Q2114.36 345.147 2119.13 345.147 Q2121.49 345.147 2123.57 345.494 Q2125.66 345.841 2127.41 346.536 Z" fill="#000000" fill-rule="evenodd" fill-opacity="1" /><polyline clip-path="url(#clip080)" style="stroke:#00a9ad; stroke-linecap:butt; stroke-linejoin:round; stroke-width:4; stroke-opacity:1; fill:none" points="
  1850.92,406.258 1994.92,406.258 
  "/>
<path clip-path="url(#clip080)" d="M2023.2 419.649 L2023.2 433.399 L2018.92 433.399 L2018.92 397.612 L2023.2 397.612 L2023.2 401.547 Q2024.54 399.232 2026.58 398.121 Q2028.64 396.987 2031.49 396.987 Q2036.21 396.987 2039.15 400.737 Q2042.11 404.487 2042.11 410.598 Q2042.11 416.709 2039.15 420.459 Q2036.21 424.209 2031.49 424.209 Q2028.64 424.209 2026.58 423.098 Q2024.54 421.963 2023.2 419.649 M2037.69 410.598 Q2037.69 405.899 2035.75 403.237 Q2033.83 400.552 2030.45 400.552 Q2027.07 400.552 2025.12 403.237 Q2023.2 405.899 2023.2 410.598 Q2023.2 415.297 2025.12 417.982 Q2027.07 420.644 2030.45 420.644 Q2033.83 420.644 2035.75 417.982 Q2037.69 415.297 2037.69 410.598 Z" fill="#000000" fill-rule="evenodd" fill-opacity="1" /><path clip-path="url(#clip080)" d="M2060.96 410.505 Q2055.79 410.505 2053.8 411.686 Q2051.81 412.866 2051.81 415.714 Q2051.81 417.982 2053.29 419.325 Q2054.8 420.644 2057.37 420.644 Q2060.91 420.644 2063.04 418.144 Q2065.19 415.621 2065.19 411.454 L2065.19 410.505 L2060.96 410.505 M2069.45 408.746 L2069.45 423.538 L2065.19 423.538 L2065.19 419.602 Q2063.73 421.963 2061.56 423.098 Q2059.38 424.209 2056.23 424.209 Q2052.25 424.209 2049.89 421.987 Q2047.55 419.741 2047.55 415.991 Q2047.55 411.616 2050.47 409.394 Q2053.41 407.172 2059.22 407.172 L2065.19 407.172 L2065.19 406.755 Q2065.19 403.815 2063.25 402.218 Q2061.33 400.598 2057.83 400.598 Q2055.61 400.598 2053.5 401.13 Q2051.4 401.663 2049.45 402.727 L2049.45 398.792 Q2051.79 397.89 2053.99 397.45 Q2056.19 396.987 2058.27 396.987 Q2063.9 396.987 2066.67 399.903 Q2069.45 402.82 2069.45 408.746 Z" fill="#000000" fill-rule="evenodd" fill-opacity="1" /><path clip-path="url(#clip080)" d="M2093.25 401.593 Q2092.53 401.177 2091.67 400.991 Q2090.84 400.783 2089.82 400.783 Q2086.21 400.783 2084.27 403.144 Q2082.35 405.482 2082.35 409.88 L2082.35 423.538 L2078.06 423.538 L2078.06 397.612 L2082.35 397.612 L2082.35 401.64 Q2083.69 399.278 2085.84 398.144 Q2087.99 396.987 2091.07 396.987 Q2091.51 396.987 2092.04 397.056 Q2092.58 397.103 2093.23 397.218 L2093.25 401.593 Z" fill="#000000" fill-rule="evenodd" fill-opacity="1" /><path clip-path="url(#clip080)" d="M2097.72 397.612 L2101.97 397.612 L2101.97 423.538 L2097.72 423.538 L2097.72 397.612 M2097.72 387.519 L2101.97 387.519 L2101.97 392.913 L2097.72 392.913 L2097.72 387.519 Z" fill="#000000" fill-rule="evenodd" fill-opacity="1" /><path clip-path="url(#clip080)" d="M2127.41 398.376 L2127.41 402.403 Q2125.61 401.477 2123.66 401.015 Q2121.72 400.552 2119.64 400.552 Q2116.47 400.552 2114.87 401.524 Q2113.29 402.496 2113.29 404.44 Q2113.29 405.922 2114.43 406.778 Q2115.56 407.612 2118.99 408.376 L2120.45 408.7 Q2124.98 409.672 2126.88 411.454 Q2128.8 413.214 2128.8 416.385 Q2128.8 419.996 2125.93 422.102 Q2123.09 424.209 2118.09 424.209 Q2116 424.209 2113.73 423.792 Q2111.49 423.399 2108.99 422.588 L2108.99 418.19 Q2111.35 419.417 2113.64 420.042 Q2115.93 420.644 2118.18 420.644 Q2121.19 420.644 2122.81 419.626 Q2124.43 418.584 2124.43 416.709 Q2124.43 414.973 2123.25 414.047 Q2122.09 413.121 2118.13 412.264 L2116.65 411.917 Q2112.69 411.084 2110.93 409.371 Q2109.17 407.635 2109.17 404.626 Q2109.17 400.968 2111.77 398.978 Q2114.36 396.987 2119.13 396.987 Q2121.49 396.987 2123.57 397.334 Q2125.66 397.681 2127.41 398.376 Z" fill="#000000" fill-rule="evenodd" fill-opacity="1" /></svg>
